<?xml version="1.0" standalone="no"?>
<svg version="1.0" xmlns="http://www.w3.org/2000/svg"
 width="1147.000000pt" height="1280.000000pt" viewBox="0 0 1147.000000 1280.000000"
 preserveAspectRatio="xMidYMid meet">
<g transform="translate(0.000000,1280.000000) scale(0.100000,-0.100000)"
fill="#000000" stroke="none">
<path d="M2715 12785 c-38 -7 -95 -20 -125 -29 -30 -9 -103 -23 -162 -31 -75
-10 -122 -22 -155 -40 -34 -17 -63 -25 -100 -25 -53 0 -83 -17 -83 -46 0 -10
-14 -14 -55 -14 -91 0 -184 -61 -250 -165 -18 -27 -79 -109 -136 -182 -130
-165 -212 -295 -310 -493 -116 -233 -166 -377 -191 -549 -17 -115 -16 -465 1
-561 26 -143 94 -308 192 -460 48 -75 71 -144 84 -250 10 -72 41 -172 75 -240
32 -62 65 -106 164 -215 62 -68 70 -82 77 -128 10 -79 63 -204 129 -310 33
-52 60 -103 60 -113 0 -9 -18 -37 -41 -61 -45 -49 -89 -134 -89 -174 0 -15
-14 -42 -35 -65 -19 -21 -46 -51 -59 -66 -18 -20 -34 -28 -58 -28 -19 0 -69
-9 -110 -20 -42 -11 -126 -27 -186 -35 -128 -18 -210 -43 -305 -92 -78 -41
-98 -65 -122 -148 -33 -117 -39 -125 -156 -184 -61 -31 -113 -51 -120 -47 -8
4 -25 13 -39 21 -34 20 -171 20 -209 0 -16 -8 -34 -28 -39 -45 -7 -17 -22 -34
-37 -40 -14 -5 -30 -22 -36 -37 -12 -32 -28 -45 -94 -79 -92 -48 -126 -95
-151 -213 -19 -91 -17 -158 6 -233 11 -34 20 -71 20 -81 0 -10 7 -28 15 -41 9
-13 14 -30 13 -37 -2 -8 7 -15 20 -17 30 -5 46 -36 32 -63 -9 -17 -17 -19 -43
-13 -62 13 -59 18 -84 -125 l-24 -133 30 -142 c29 -138 32 -145 114 -288 125
-218 160 -317 122 -348 -32 -26 -6 -188 41 -257 14 -21 46 -81 70 -133 25 -52
53 -104 64 -115 33 -36 51 -106 59 -240 9 -140 20 -177 70 -239 34 -43 39 -83
20 -166 -14 -61 -78 -194 -128 -269 -59 -87 -71 -119 -81 -229 -5 -54 -16
-133 -24 -177 -8 -44 -20 -143 -26 -220 -18 -219 -53 -353 -134 -513 -33 -64
-46 -152 -46 -310 0 -131 8 -164 55 -226 14 -18 37 -62 50 -97 14 -34 35 -77
47 -95 24 -35 84 -74 113 -74 21 0 105 83 125 124 l15 31 145 0 c168 0 195 9
252 85 29 39 142 133 361 304 32 25 75 50 96 56 48 13 128 92 172 171 118 209
331 515 353 505 6 -2 56 -25 111 -50 173 -78 273 -94 359 -55 62 27 148 36
162 18 6 -8 16 -51 22 -97 6 -45 19 -97 28 -114 26 -50 189 -208 214 -208 31
0 77 -50 89 -98 6 -22 28 -65 47 -94 44 -65 53 -119 54 -313 1 -190 6 -208 78
-276 86 -81 170 -96 248 -44 34 22 68 100 89 200 19 91 31 285 21 339 -9 47
-60 104 -113 128 -24 10 -43 23 -43 27 0 4 -11 13 -25 19 -16 8 -39 41 -69 99
-24 48 -65 113 -91 143 -68 78 -77 95 -86 153 -24 152 -229 397 -271 323 -11
-20 -51 -21 -68 -1 -7 8 -25 15 -41 15 -20 0 -35 9 -54 34 -14 19 -39 39 -55
44 -20 7 -30 19 -35 41 -11 50 -146 151 -202 151 -13 0 -32 9 -44 21 -14 14
-28 19 -45 15 -34 -9 -31 12 9 65 19 24 42 59 52 78 9 19 60 91 113 160 57 75
112 160 135 211 22 46 70 135 107 197 87 145 110 203 164 420 57 224 106 369
189 554 36 81 91 216 121 300 89 244 106 281 121 269 7 -6 25 -41 40 -78 38
-95 49 -110 92 -118 21 -4 42 -9 47 -12 15 -8 -18 -22 -56 -22 -25 0 -37 -4
-35 -12 1 -7 -8 -14 -20 -16 -25 -4 -31 -18 -11 -24 8 -3 1 -22 -21 -56 -48
-75 -60 -157 -38 -259 23 -108 22 -132 -9 -164 -15 -15 -28 -39 -29 -52 -2
-14 -10 -36 -20 -50 -9 -14 -20 -54 -25 -89 -20 -141 53 -335 169 -447 l66
-64 3 -142 c3 -121 1 -145 -13 -159 -26 -26 -79 -20 -117 12 -46 40 -59 43
-106 22 -90 -41 -104 -128 -39 -256 45 -89 93 -134 192 -181 72 -34 90 -38
183 -43 123 -6 120 -3 161 -135 54 -172 107 -254 185 -289 52 -23 54 -26 111
-137 69 -136 102 -186 169 -258 91 -95 141 -108 236 -57 63 34 113 38 288 23
l154 -12 83 105 c97 123 151 175 212 202 48 21 55 20 158 -22 39 -16 137 -54
219 -85 83 -30 154 -59 159 -64 14 -14 -5 -61 -69 -172 -66 -117 -78 -152 -63
-196 32 -98 153 -22 248 155 24 44 58 95 77 113 l34 33 69 -12 c88 -15 181
-49 188 -70 10 -23 -54 -137 -99 -177 -22 -20 -37 -42 -35 -49 3 -8 -1 -26 -9
-41 -8 -15 -11 -31 -8 -36 10 -16 117 -9 159 10 22 10 89 62 149 115 59 54
110 95 113 93 2 -3 -7 -22 -22 -42 -28 -42 -33 -75 -11 -75 8 0 36 -18 61 -40
25 -22 58 -43 73 -47 15 -5 106 -8 202 -8 143 1 183 4 220 19 25 9 79 22 120
27 41 6 91 13 111 16 60 8 82 -47 29 -74 -14 -7 -24 -17 -23 -23 2 -5 -13 -17
-32 -26 -19 -9 -102 -78 -183 -154 -82 -75 -156 -141 -164 -146 -9 -5 -27 -31
-41 -59 -33 -65 -169 -260 -214 -307 -29 -30 -37 -46 -41 -88 -4 -42 -9 -53
-28 -60 -13 -5 -33 -29 -45 -52 -23 -47 -303 -336 -357 -370 -22 -14 -57 -22
-111 -25 -91 -7 -131 1 -131 23 0 15 -2 15 -24 0 -15 -10 -27 -12 -31 -6 -11
18 -81 11 -108 -10 -18 -14 -41 -20 -79 -20 -31 -1 -61 -7 -72 -15 -11 -8 -34
-15 -50 -15 -17 0 -73 -9 -125 -20 -120 -25 -147 -25 -161 0 -12 23 -40 27
-40 6 0 -26 -27 -36 -134 -51 -139 -20 -186 -30 -254 -59 -63 -26 -89 -33
-407 -105 -344 -78 -346 -78 -765 -111 -74 -6 -161 -16 -192 -22 -74 -14 -154
-7 -200 18 -20 10 -105 65 -189 122 -85 56 -187 119 -229 140 -93 46 -225 173
-263 254 -28 59 -54 86 -142 146 -48 33 -70 42 -103 42 -24 0 -54 7 -67 16
-37 24 -191 24 -232 -1 -27 -16 -36 -16 -79 -6 -27 7 -78 25 -114 41 -87 38
-157 50 -325 57 -172 7 -235 -7 -293 -65 -20 -21 -49 -45 -64 -54 -19 -12 -33
-38 -50 -90 -29 -87 -53 -106 -152 -115 -65 -6 -66 -6 -133 39 -115 77 -320
171 -481 221 -113 36 -145 40 -167 22 -19 -14 -19 -16 15 -44 34 -29 34 -29
40 -134 3 -59 8 -109 12 -112 3 -3 15 27 27 67 40 129 49 139 85 99 10 -11 31
-25 47 -31 22 -10 28 -17 23 -32 -5 -16 -2 -18 21 -12 24 6 26 5 17 -12 -15
-29 -44 -52 -73 -59 -21 -5 -30 -2 -42 15 -9 12 -20 19 -26 16 -28 -18 -44
-199 -19 -224 10 -10 10 -17 0 -32 -6 -11 -12 -29 -12 -40 0 -11 -7 -20 -15
-20 -8 0 -15 -4 -15 -10 0 -14 5 -13 51 11 39 19 42 20 90 4 31 -11 72 -16
107 -13 42 2 56 0 54 -9 -1 -7 7 -13 17 -13 23 0 31 -19 31 -76 0 -46 -9 -54
-31 -28 -9 12 -24 15 -51 11 -28 -4 -38 -2 -38 9 0 22 -27 16 -48 -11 -24 -31
-62 -34 -62 -5 0 31 -48 27 -60 -5 -23 -59 -31 -199 -19 -310 7 -61 13 -162
14 -225 2 -63 6 -123 10 -132 4 -9 1 -34 -6 -55 -20 -58 -16 -313 6 -383 19
-58 19 -69 10 -300 -5 -126 -3 -153 14 -205 l19 -60 113 0 113 0 1 30 c2 67 5
85 15 85 5 0 12 -17 16 -37 4 -21 11 -46 16 -55 8 -17 93 -18 1573 -18 861 0
1565 3 1565 7 0 3 -76 83 -169 178 -93 95 -181 191 -197 214 -26 39 -26 44
-11 53 26 14 10 28 -33 28 -26 0 -48 8 -67 24 -15 13 -42 30 -59 39 -38 19
-131 119 -227 242 -54 70 -66 91 -52 93 48 10 220 -27 380 -82 25 -8 62 -11
93 -8 52 5 53 4 107 -47 29 -28 61 -51 70 -51 9 0 48 -14 86 -30 121 -54 392
-64 482 -19 20 11 68 23 105 28 38 5 100 22 138 39 92 40 148 50 344 62 339
21 379 28 497 91 115 63 126 66 308 90 207 27 427 73 571 120 134 43 273 74
379 84 61 6 73 4 92 -12 12 -11 40 -26 63 -33 23 -7 46 -22 51 -32 7 -13 17
-16 34 -12 22 5 25 3 23 -17 -3 -22 1 -25 72 -59 9 -5 14 -18 12 -34 -1 -14 1
-26 7 -26 11 0 31 -54 31 -84 0 -31 37 -94 88 -151 62 -69 88 -113 108 -181 9
-33 25 -69 37 -81 l20 -22 -21 -51 c-20 -48 -14 -71 8 -30 22 40 29 18 11 -31
-13 -32 -35 -64 -64 -89 -57 -50 -127 -158 -127 -195 l0 -28 66 7 c37 4 79 13
94 21 21 11 30 11 39 2 9 -9 85 -13 269 -14 198 -2 251 0 232 9 -14 6 -39 18
-57 26 -18 8 -35 22 -38 31 -3 10 -17 24 -31 31 -27 15 -116 113 -158 174 -50
74 -28 142 50 155 31 5 38 12 48 41 9 27 18 36 46 44 19 5 49 20 67 33 26 19
44 23 101 23 59 0 70 3 74 18 3 11 26 29 52 42 26 12 54 33 63 46 8 13 20 24
25 24 14 0 -48 -110 -87 -154 -42 -47 -55 -89 -55 -174 0 -71 24 -134 68 -175
40 -37 182 -137 196 -137 6 0 17 14 23 30 10 27 15 30 57 30 53 0 53 0 42 -82
l-7 -48 143 1 c160 0 236 9 248 30 7 11 17 11 57 -3 62 -21 144 -32 183 -23
l32 7 -24 16 c-13 8 -40 30 -61 49 -20 18 -44 33 -52 33 -8 0 -19 9 -25 20 -6
11 -16 17 -25 14 -11 -5 -14 0 -13 17 3 21 -2 24 -41 30 -31 4 -50 13 -60 29
-9 13 -31 37 -50 54 -19 17 -64 61 -100 98 -37 38 -73 68 -81 68 -9 0 -24 16
-34 34 -10 19 -29 45 -42 57 -27 25 -32 59 -9 59 51 0 145 -76 231 -186 70
-90 124 -132 254 -200 69 -36 116 -76 202 -174 18 -20 36 -30 56 -30 45 0 56
20 37 71 -18 54 -19 79 -2 79 16 0 124 -74 153 -105 25 -27 62 -32 314 -41
l186 -6 134 82 c204 125 306 197 355 253 55 61 167 279 163 316 -2 18 -10 27
-26 29 -14 2 -22 9 -20 19 2 10 -7 19 -26 24 -16 5 -33 14 -37 20 -15 24 35
90 88 118 18 9 36 8 85 -5 60 -15 98 -15 200 2 35 6 40 3 106 -62 45 -45 97
-84 151 -112 44 -24 81 -47 81 -52 0 -9 -20 -15 -122 -31 -43 -6 -82 -17 -87
-23 -5 -6 -13 -31 -18 -56 -8 -41 -12 -45 -37 -43 -25 2 -27 -1 -22 -22 4 -17
0 -30 -15 -44 l-21 -20 21 -34 c26 -43 26 -45 -1 -49 -14 -2 -24 -12 -28 -27
-6 -28 -30 -41 -30 -16 0 11 -6 15 -18 11 -10 -4 -27 1 -38 9 -22 16 -38 20
-29 6 8 -14 -20 -27 -87 -40 -31 -7 -67 -20 -80 -31 -13 -10 -51 -29 -85 -43
-58 -23 -94 -46 -186 -117 -21 -16 -44 -27 -52 -24 -23 9 -27 -14 -4 -26 35
-19 102 -4 134 30 29 30 45 38 45 22 0 -5 -10 -14 -22 -19 -50 -23 30 -35 267
-40 274 -6 360 3 399 42 32 32 60 30 64 -6 4 -33 28 -39 161 -39 165 0 200 22
171 110 -15 47 -7 193 16 286 14 58 14 64 -6 114 -50 127 -184 322 -232 339
-35 12 -36 38 -4 86 14 20 27 55 30 78 3 23 10 76 15 118 13 97 1 149 -73 303
-64 135 -96 170 -216 232 -50 25 -105 60 -122 77 -21 21 -63 43 -137 68 -298
104 -333 120 -393 179 -41 40 -59 67 -68 99 -6 23 -28 80 -48 125 -49 111 -51
181 -5 283 42 90 98 284 113 388 6 44 16 100 23 125 24 93 16 146 -40 262 -63
132 -116 214 -221 344 -114 142 -177 179 -297 179 -82 -1 -106 -11 -215 -96
-125 -97 -164 -162 -177 -295 -6 -59 -12 -79 -23 -79 -11 0 -17 25 -27 99 -7
63 -21 117 -36 150 -25 52 -62 173 -71 236 -3 19 -10 94 -16 165 -11 158 -22
193 -64 210 l-31 13 28 7 c28 7 38 25 13 25 -8 0 -28 11 -43 24 -27 23 -28 28
-28 118 1 68 6 102 19 128 25 50 36 170 25 263 -13 108 -33 154 -74 171 -26
11 -40 30 -74 100 -24 47 -47 86 -51 86 -16 0 -60 74 -90 153 -17 43 -42 130
-56 195 -73 341 -105 456 -155 559 -83 169 -189 319 -279 396 -32 28 -24 85
16 112 17 12 126 53 243 93 116 39 223 79 236 88 30 19 32 49 6 64 -26 14
-172 12 -306 -4 -122 -14 -167 -8 -189 27 -14 22 -24 72 -46 231 -6 44 -17 92
-24 108 -8 15 -10 28 -5 28 5 0 56 -47 114 -105 60 -59 114 -105 124 -105 55
0 105 125 105 265 1 87 -1 93 -42 172 -23 46 -42 93 -42 107 0 14 -10 30 -23
39 -13 8 -46 59 -73 112 -58 116 -96 161 -223 267 -136 113 -135 111 -96 175
l32 52 34 -35 c64 -66 132 -95 267 -114 57 -7 105 -8 162 -1 144 18 175 34
224 111 12 19 31 36 42 38 11 2 47 -15 80 -38 56 -38 62 -40 137 -40 129 0
288 41 340 88 11 9 23 27 28 40 19 49 114 53 193 7 55 -32 79 -32 171 5 109
43 166 74 204 109 18 16 57 42 87 57 l54 26 35 -26 c65 -50 93 -57 167 -41 81
17 182 62 244 109 56 43 100 47 145 14 67 -50 259 -17 381 66 192 131 217 138
511 144 l209 4 -4 190 -3 190 -28 22 -27 22 26 19 c32 25 46 98 20 108 -20 8
-74 -11 -156 -56 -36 -20 -91 -42 -123 -50 -32 -9 -85 -32 -118 -51 -33 -20
-71 -39 -85 -42 -20 -5 -24 -12 -24 -41 0 -77 -48 -106 -201 -123 -135 -14
-227 -40 -352 -97 l-102 -47 -173 -8 c-180 -8 -214 -16 -274 -61 -46 -35 -133
-77 -159 -77 -11 0 -37 -8 -56 -17 -31 -14 -43 -15 -87 -4 -28 6 -72 17 -98
23 -61 14 -144 3 -190 -25 -20 -12 -58 -35 -84 -51 -67 -42 -123 -41 -188 1
-57 38 -108 47 -230 41 -111 -6 -172 -30 -238 -95 -57 -56 -60 -56 -227 21
l-119 55 -113 -38 c-63 -21 -133 -48 -156 -60 -45 -22 -113 -84 -113 -102 0
-6 -16 -9 -37 -7 -28 2 -40 10 -52 31 -9 16 -41 42 -71 59 -30 16 -62 36 -71
44 -11 10 -46 14 -134 14 -65 0 -145 5 -177 12 -47 10 -61 10 -67 0 -4 -7 -15
-10 -23 -7 -9 4 -19 2 -23 -4 -11 -19 -42 -12 -59 14 -9 13 -16 41 -16 62 0
29 -3 34 -12 25 -18 -18 -25 -15 -31 16 -3 15 -24 51 -46 81 -23 29 -41 57
-41 62 0 18 -17 8 -29 -17 -22 -50 9 -114 117 -242 51 -61 192 -181 240 -206
29 -15 104 -71 481 -358 35 -27 77 -52 93 -55 21 -4 27 -10 23 -21 -3 -8 13
-45 35 -83 50 -82 103 -214 125 -312 24 -105 30 -116 56 -110 21 6 22 4 15
-35 -9 -58 -26 -91 -42 -85 -8 3 -43 49 -78 102 -36 53 -92 128 -126 166 -34
39 -73 91 -86 118 -16 30 -31 47 -43 47 -10 0 -23 11 -29 25 -6 13 -22 27 -34
29 -13 3 -75 15 -139 27 l-116 23 -28 -22 c-15 -12 -40 -22 -55 -22 -15 0 -33
-7 -40 -15 -15 -18 -42 -19 -59 -2 -16 16 -37 -11 -52 -67 -15 -54 -6 -97 29
-148 38 -56 72 -123 72 -143 0 -23 -45 -41 -65 -25 -8 7 -15 19 -15 26 0 18
-8 18 -26 -1 -9 -8 -24 -15 -34 -15 -49 0 -109 -100 -140 -233 -38 -165 -39
-153 31 -242 34 -44 96 -129 137 -190 78 -112 167 -209 205 -221 29 -9 43 15
51 89 4 34 14 72 22 85 11 17 12 27 5 36 -15 17 -4 26 32 26 29 0 30 1 12 19
-15 18 -16 25 -4 71 10 40 10 58 1 82 -9 24 -8 38 3 64 14 34 52 53 76 39 18
-12 4 -111 -25 -166 -23 -45 -23 -48 -6 -64 10 -9 20 -36 23 -63 3 -26 9 -57
12 -69 6 -17 3 -23 -9 -23 -9 0 -16 -5 -16 -11 0 -7 10 -9 28 -4 39 9 47 21
28 40 -19 19 -19 17 -6 50 15 40 54 31 58 -13 3 -33 -46 -493 -53 -500 -13
-13 -165 141 -165 168 0 9 -37 23 -103 39 -77 18 -196 80 -241 125 -50 51
-144 228 -186 354 -26 77 -31 109 -31 183 0 96 10 125 45 139 14 5 27 22 34
47 17 56 68 132 97 143 14 5 25 17 25 28 0 39 -31 118 -58 151 -24 30 -34 34
-69 33 -65 -3 -69 11 -39 128 28 110 34 190 14 190 -26 0 -86 -26 -119 -51
-19 -13 -46 -32 -60 -41 -14 -9 -32 -30 -39 -47 -13 -32 -24 -39 -35 -21 -16
26 -99 -4 -110 -40 -4 -14 -15 -20 -35 -20 -25 0 -28 -3 -26 -31 1 -37 -15
-47 -37 -24 -9 8 -29 15 -45 15 -38 0 -57 23 -57 71 0 44 1 43 -25 27 -35 -22
-33 0 4 43 40 47 47 79 16 79 -10 0 -23 7 -28 16 -8 14 -10 14 -16 -2 -4 -10
-10 -47 -13 -81 -15 -158 99 -273 298 -303 63 -9 88 -8 150 5 107 24 104 24
107 -11 4 -43 -22 -102 -50 -113 -13 -5 -55 -15 -94 -21 -60 -11 -80 -10 -135
4 -36 9 -80 16 -97 16 -19 0 -40 8 -52 20 -11 11 -29 20 -40 20 -51 0 -141
126 -175 244 -22 74 -16 205 10 255 16 33 18 33 63 26 125 -18 121 -18 156 9
19 14 38 26 42 26 4 0 26 -17 49 -39 56 -52 185 -100 215 -80 13 8 13 11 -2
20 -25 14 -22 53 6 102 13 23 32 66 42 96 26 74 53 101 102 101 66 0 122 -45
246 -195 32 -39 44 -26 17 18 -33 54 -223 231 -273 255 -41 20 -46 27 -57 75
-11 47 -10 61 12 147 45 171 45 230 -2 230 -10 0 -38 13 -62 30 -51 34 -70 37
-91 13 -72 -82 -59 -198 32 -278 32 -29 60 -89 60 -130 0 -67 -71 -108 -118
-67 -16 13 -23 43 -36 144 -9 70 -21 138 -26 150 -19 45 -77 113 -118 141 -23
16 -49 41 -57 56 -7 15 -30 47 -49 70 -20 24 -43 58 -52 76 -22 47 -126 169
-147 173 -16 3 -16 1 -1 -31 9 -19 14 -43 10 -52 -5 -15 -10 -14 -37 9 -17 14
-37 26 -46 26 -10 0 -13 6 -9 16 3 8 -3 42 -14 74 -11 33 -20 71 -20 85 0 52
14 46 210 -78 30 -20 98 -73 151 -120 152 -133 219 -173 227 -135 4 23 -71 95
-128 122 -31 14 -46 28 -48 44 -2 14 -10 22 -22 22 -25 0 -144 111 -164 154
-15 33 -16 33 -103 40 -51 4 -97 13 -111 22 -21 14 -27 13 -67 -6 -67 -32
-105 -81 -105 -134 0 -83 -45 -85 -156 -6 -108 76 -110 78 -117 150 -4 35 -15
77 -25 94 -18 30 -19 31 -107 32 -89 2 -143 14 -157 37 -4 7 -8 31 -8 54 0 24
-10 65 -22 93 -22 50 -22 50 -67 50 -93 -1 -170 -17 -202 -45 -40 -33 -54 -23
-70 51 -19 85 -39 110 -99 123 -68 15 -86 14 -104 -4 -8 -8 -25 -16 -37 -17
-20 -3 -24 3 -31 37 -16 83 -12 102 40 182 57 90 159 291 201 397 38 93 56
244 47 381 -14 200 -54 431 -87 501 -10 22 -19 48 -19 57 0 32 -42 172 -65
217 -13 25 -28 65 -35 90 -6 25 -31 98 -55 162 -25 64 -47 136 -51 160 -9 58
-25 81 -110 161 -41 38 -74 75 -74 83 0 7 -9 19 -21 26 -11 7 -26 27 -34 44
-13 31 -181 222 -275 313 -60 58 -136 109 -245 163 -172 87 -172 87 -777 117
-103 6 -196 15 -207 20 -26 14 -108 12 -196 -4z m-542 -162 c-7 -2 -21 -2 -30
0 -10 3 -4 5 12 5 17 0 24 -2 18 -5z m1447 -19 c58 -14 143 -30 189 -35 151
-17 269 -104 427 -315 47 -62 96 -122 110 -133 13 -10 27 -34 31 -52 3 -19 15
-45 25 -59 12 -15 17 -33 13 -47 -4 -17 3 -34 24 -61 42 -52 364 -691 395
-782 29 -89 46 -250 46 -456 0 -152 -12 -240 -35 -263 -13 -14 -15 11 -15 214
0 127 -4 235 -8 240 -4 6 -19 16 -34 22 -34 15 -62 57 -55 83 3 12 0 20 -7 20
-22 0 -36 -24 -36 -62 0 -26 -5 -41 -16 -45 -11 -4 -13 -13 -9 -34 9 -42 -14
-37 -59 11 -30 33 -43 40 -74 40 -46 0 -75 -15 -49 -26 9 -3 24 -4 32 0 27 10
16 -22 -12 -36 -16 -8 -41 -38 -60 -73 -41 -73 -94 -125 -128 -125 -32 0 -32
10 0 40 14 13 29 38 34 54 5 18 14 30 22 28 7 -2 19 5 26 14 17 24 17 213 0
280 -18 70 -87 176 -87 134 0 -20 -32 -9 -57 20 -16 19 -34 30 -51 30 -14 0
-33 7 -43 16 -31 28 -49 11 -49 -46 0 -56 0 -56 -93 -41 -31 5 -55 4 -70 -4
-22 -11 -23 -10 -19 17 5 32 -3 35 -29 12 -16 -14 -18 -12 -24 28 -4 24 -13
50 -20 58 -7 8 -15 24 -17 35 -2 13 -13 21 -32 23 -18 2 -30 11 -33 23 -4 13
-14 19 -33 19 -39 0 -60 9 -60 27 0 12 -7 14 -27 10 -49 -10 -91 27 -158 139
-34 57 -46 114 -23 114 6 0 4 8 -6 19 -16 18 -16 21 5 64 18 37 20 49 10 61
-14 17 -133 66 -161 66 -11 0 -30 11 -42 25 -20 23 -125 71 -135 61 -2 -2 0
-30 6 -61 13 -68 8 -78 -30 -73 -25 4 -27 2 -18 -15 6 -10 8 -25 5 -33 -3 -7
4 -20 15 -28 13 -9 16 -16 10 -21 -36 -22 10 -73 106 -118 29 -13 59 -30 68
-37 8 -7 24 -10 35 -7 30 8 25 -2 -20 -41 l-41 -34 64 -67 c104 -107 115 -146
62 -210 l-26 -30 33 -5 c61 -9 218 -18 218 -11 0 3 -12 17 -27 31 l-28 26 35
-5 c19 -3 61 -21 94 -41 32 -19 82 -43 110 -52 161 -52 305 -172 371 -308 45
-94 56 -162 48 -292 -7 -116 -1 -150 26 -157 70 -18 106 -265 54 -374 -21 -46
-117 -130 -179 -158 -49 -23 -108 -80 -131 -127 -46 -96 -56 -126 -62 -198 -8
-94 -15 -105 -59 -89 -28 10 -45 33 -41 55 3 19 -2 34 -11 34 -5 0 -10 -21
-10 -47 0 -27 -7 -61 -16 -78 -9 -16 -16 -44 -15 -62 0 -18 -4 -35 -10 -39
-10 -6 -52 20 -111 67 -33 27 -49 21 -88 -32 -35 -49 -38 -69 -10 -76 24 -6
25 -12 4 -41 -14 -20 -14 -23 0 -28 8 -3 24 -21 35 -40 11 -19 28 -34 37 -34
11 0 14 -5 10 -17 -4 -9 4 -31 20 -54 15 -22 24 -45 20 -54 -8 -23 -48 -15
-61 11 -18 37 -34 51 -64 57 -40 8 -65 64 -58 129 6 45 4 50 -19 60 -31 14
-40 6 -57 -53 -11 -39 -16 -44 -45 -47 -20 -2 -32 -9 -32 -18 0 -19 -4 -18
-58 13 l-47 27 33 -37 c38 -45 40 -60 7 -81 -39 -25 -59 -20 -83 23 -17 29
-22 55 -22 107 0 78 -10 77 -39 -7 -17 -45 -17 -55 -5 -57 17 -4 17 -2 3 -58
-6 -24 -17 -44 -24 -44 -8 0 -24 19 -37 43 -13 23 -30 42 -38 42 -9 0 -23 -22
-34 -52 -10 -29 -22 -53 -25 -53 -8 0 -50 84 -62 124 -5 17 -4 36 2 47 12 23
29 25 29 4 0 -25 17 -17 39 19 20 32 20 36 6 137 -8 57 -17 119 -20 138 l-4
35 48 -48 c27 -26 57 -64 67 -84 34 -65 150 -104 200 -68 16 12 19 26 19 88
-1 85 -21 142 -64 186 -25 24 -30 36 -25 59 3 17 -1 45 -10 67 -21 49 -21 49
9 44 24 -5 24 -4 -10 33 -19 22 -35 44 -35 50 0 7 -11 9 -27 6 -37 -7 -50 0
-78 42 -14 20 -48 52 -76 71 -38 26 -55 45 -64 73 -23 68 -80 112 -111 86 -14
-11 -15 -32 -9 -143 6 -112 4 -137 -10 -174 -15 -37 -16 -51 -6 -100 19 -96
26 -255 11 -282 l-12 -23 -14 24 c-7 13 -13 52 -14 87 0 128 -49 48 -86 -143
-15 -74 -21 -89 -46 -106 -16 -12 -45 -53 -64 -92 -52 -104 -52 -104 -86 -62
-17 19 -42 42 -58 50 -73 38 -200 40 -243 4 l-22 -18 38 -38 c20 -21 37 -42
37 -45 0 -3 -30 -9 -66 -13 -57 -6 -69 -4 -87 13 -12 11 -55 37 -94 58 -40 21
-73 44 -73 51 0 6 -13 39 -30 74 -16 34 -34 88 -40 118 -6 31 -13 67 -16 80
-3 13 -52 72 -110 132 -57 60 -122 136 -144 170 -43 66 -85 184 -96 268 -6 43
-4 52 11 57 13 5 26 -2 46 -27 27 -33 29 -33 55 -19 15 8 39 37 53 63 l26 48
-27 24 c-16 13 -36 29 -45 35 -16 9 -13 15 27 51 25 23 36 38 25 34 -11 -4
-32 -10 -47 -13 -24 -4 -28 -1 -28 20 0 52 166 348 195 348 10 0 55 85 55 104
0 13 -20 5 -49 -20 -17 -14 -49 -35 -72 -47 -45 -24 -119 -131 -119 -173 0
-28 -39 -134 -49 -134 -4 0 -18 19 -32 43 -22 38 -24 55 -27 186 -5 194 -22
163 -22 -40 0 -164 9 -212 42 -230 13 -7 17 -14 10 -21 -26 -26 -102 49 -102
101 0 11 -13 34 -30 51 -16 17 -32 43 -35 58 -17 79 -20 84 -55 96 -30 9 -39
20 -60 71 -22 55 -24 72 -24 215 2 237 49 574 89 626 13 17 14 16 14 -21 0
-22 -4 -83 -9 -135 -15 -144 -13 -489 2 -535 19 -56 43 -60 34 -7 -3 23 -2 51
4 64 5 13 14 97 20 188 14 224 54 401 95 416 8 3 15 14 15 23 0 34 226 236
297 266 18 8 33 19 33 24 0 6 36 29 80 51 83 41 99 55 54 44 -20 -5 -25 -3
-22 6 5 15 16 22 68 45 19 8 43 20 52 27 14 10 22 9 45 -8 15 -12 34 -33 41
-47 16 -32 52 -43 101 -31 45 11 49 31 22 95 -23 53 -20 68 18 103 12 11 21
25 21 32 0 16 57 47 120 65 25 7 50 18 55 24 6 7 31 12 57 12 65 1 127 37 154
88 15 30 27 41 49 43 43 5 108 -24 126 -57 13 -22 27 -31 60 -36 24 -4 110
-27 190 -51 147 -44 202 -53 214 -34 10 16 25 1 25 -24 0 -22 4 -24 83 -28 63
-4 100 -12 157 -36 74 -32 124 -40 134 -23 3 5 -10 11 -29 14 -19 3 -61 24
-94 46 -33 23 -64 41 -69 41 -5 0 -45 31 -88 70 -76 68 -122 93 -194 105 -19
3 -42 10 -50 16 -13 8 -12 12 8 26 40 28 18 73 -36 73 -24 0 -72 37 -72 55 0
17 106 89 119 81 5 -4 11 1 13 10 2 11 15 18 38 19 19 2 55 8 80 14 25 6 74
14 110 19 36 5 67 10 70 11 3 0 52 -11 110 -25z m-1034 -30 c-5 -12 -2 -15 11
-9 77 31 243 -1 243 -47 0 -4 -8 -8 -17 -8 -10 0 -38 -14 -62 -30 -51 -34 -99
-50 -157 -50 -51 0 -102 -17 -131 -43 -30 -27 -21 -37 31 -37 52 0 79 -22 47
-39 -11 -6 -21 -21 -23 -33 -2 -16 -12 -24 -36 -29 -18 -4 -41 -14 -52 -24
-26 -23 -79 -13 -121 22 l-32 27 -29 -34 c-16 -19 -38 -52 -49 -73 -11 -21
-31 -42 -44 -47 -29 -11 -42 -52 -26 -86 10 -22 9 -24 -18 -24 -25 0 -47 16
-64 46 -4 7 3 24 14 38 29 37 19 74 -22 83 -17 3 -36 14 -42 23 -8 14 -14 16
-28 7 -13 -8 -31 -6 -72 8 -47 16 -62 17 -95 7 -22 -7 -46 -12 -53 -12 -23 1
72 81 103 87 15 3 28 11 28 18 0 25 66 77 145 115 88 42 261 100 300 100 13 0
28 7 33 17 7 12 31 18 96 23 47 4 89 10 93 13 13 14 35 7 29 -9z m-856 -584
c0 -23 -146 -160 -171 -160 -23 0 -5 39 34 76 81 78 137 112 137 84z m-80
-1890 c0 -5 -12 -10 -27 -10 -22 0 -25 2 -13 10 20 13 40 13 40 0z m2924 -60
c-4 -24 -2 -45 5 -54 26 -32 64 -425 65 -678 1 -153 -1 -180 -16 -194 -24 -24
-48 -11 -48 28 l0 32 -45 -44 c-25 -24 -48 -52 -51 -62 -4 -13 -12 -16 -30
-12 -21 5 -24 3 -24 -21 0 -15 -17 -66 -39 -114 -21 -47 -55 -133 -76 -191
-70 -197 -177 -403 -216 -415 -11 -4 -32 -25 -46 -48 -34 -54 -213 -232 -292
-290 -44 -33 -75 -48 -109 -53 -26 -3 -56 -15 -67 -25 -26 -23 -98 -49 -137
-49 -55 0 -148 65 -148 104 0 6 -9 17 -21 24 -27 17 -22 56 9 60 12 2 28 12
35 23 18 29 36 23 53 -16 16 -39 33 -44 56 -17 41 45 83 167 68 192 -6 9 -16
6 -38 -10 -40 -30 -62 -21 -62 24 0 20 -9 59 -20 87 -12 29 -19 58 -16 66 3 8
-1 16 -9 19 -23 9 -18 29 11 45 15 8 37 31 50 51 15 23 35 40 52 44 36 9 62
32 62 57 0 15 -4 18 -22 12 -58 -17 -69 -17 -83 1 -27 35 -18 59 27 80 24 10
57 32 75 48 47 40 59 30 69 -56 10 -80 20 -90 74 -68 23 10 30 19 32 47 4 49
41 76 102 75 55 -1 66 13 66 85 0 51 24 110 52 127 14 8 22 6 40 -13 21 -22
21 -23 3 -17 -16 6 -14 1 9 -23 35 -36 92 -50 156 -39 82 15 120 58 169 194
21 58 31 103 31 142 -1 77 -32 211 -70 302 -40 94 -53 206 -25 216 22 9 75
-46 75 -76 0 -15 7 -20 30 -20 34 0 54 -29 47 -66 -3 -17 1 -28 14 -35 11 -5
26 -25 34 -44 44 -107 95 48 95 295 0 163 22 310 45 310 3 0 2 -18 -1 -40z
m267 -420 c28 -15 24 -58 -10 -112 -28 -44 -56 -68 -80 -68 -9 0 -34 67 -46
126 -8 44 14 64 71 64 25 0 54 -5 65 -10z m334 -140 c13 -15 16 -30 12 -61 -9
-67 -15 -69 -97 -29 -8 4 -16 23 -18 43 -2 27 2 39 20 51 30 22 61 20 83 -4z
m-316 -229 c52 -65 61 -99 61 -225 0 -63 4 -117 9 -121 5 -3 26 2 46 12 29 14
39 15 53 5 9 -6 38 -23 63 -36 69 -37 79 -87 29 -146 -16 -19 -33 -50 -36 -69
-5 -24 -15 -38 -38 -50 -43 -22 -207 -191 -204 -210 2 -11 -7 -17 -31 -19 -23
-2 -35 -9 -38 -22 -3 -11 -20 -28 -39 -39 -38 -23 -42 -36 -16 -50 25 -13 77
7 185 72 51 31 104 59 120 62 15 4 27 10 27 14 0 19 112 146 126 143 12 -3 13
1 5 17 -19 34 -12 50 31 81 l41 30 22 -20 c16 -15 30 -19 49 -14 23 5 26 3 26
-20 0 -59 -77 -159 -136 -175 -25 -7 -29 -12 -26 -39 3 -26 0 -32 -16 -32 -11
0 -22 -7 -26 -15 -3 -8 -15 -15 -26 -15 -17 0 -19 -4 -14 -25 4 -17 -3 -40
-25 -78 -17 -30 -31 -57 -31 -60 0 -10 53 13 73 31 10 8 15 22 13 29 -4 10 1
12 20 7 20 -5 33 0 57 23 18 16 50 42 71 58 22 16 34 31 28 33 -49 16 42 54
121 50 69 -3 87 4 87 33 0 29 24 33 67 12 47 -23 52 -39 17 -55 -22 -10 -28
-10 -32 0 -2 8 -19 -1 -45 -25 -58 -54 -176 -118 -190 -104 -7 7 -5 12 9 17
10 3 28 9 39 14 18 8 17 9 -7 9 -30 1 -78 -18 -78 -30 0 -12 -60 -71 -103
-103 -20 -15 -35 -31 -32 -37 11 -17 -42 -59 -74 -59 -21 0 -35 -7 -47 -24
-19 -31 -75 -50 -121 -43 -20 4 -51 21 -73 41 -22 20 -52 38 -67 41 -47 10
-56 19 -115 106 -37 53 -56 92 -54 106 3 20 2 21 -18 8 -27 -20 -57 -20 -50 0
5 11 0 14 -17 13 -18 -2 -28 6 -44 37 -18 34 -27 40 -58 43 -63 5 -94 82 -41
102 15 6 24 16 21 23 -3 9 7 13 33 14 21 1 66 13 100 27 l62 25 -4 -73 c-2
-55 -8 -80 -22 -95 -17 -19 -17 -21 -2 -21 9 0 28 11 40 24 14 13 42 26 68 30
90 14 205 90 270 180 35 49 35 66 -2 118 -16 22 -30 47 -30 54 0 30 -24 23
-61 -17 -47 -51 -53 -47 -77 42 -16 61 -19 64 -50 67 -35 4 -43 25 -14 41 14
9 15 12 3 20 -12 8 -12 17 2 63 8 29 18 95 21 147 7 113 16 129 56 101 16 -11
42 -38 59 -59z m357 41 c-15 -15 -16 -15 -16 5 0 12 6 23 13 26 19 6 21 -13 3
-31z m-152 -8 c17 -17 22 -69 7 -78 -10 -6 -31 45 -31 75 0 23 4 24 24 3z
m406 -16 c46 -24 64 -48 36 -48 -9 0 -21 -11 -26 -24 -11 -29 -56 -40 -87 -20
-31 20 -54 18 -60 -6 -6 -22 -23 -28 -23 -7 0 22 19 79 35 103 20 31 66 32
125 2z m-2582 -48 c4 -38 -14 -63 -28 -40 -11 18 -13 64 -3 74 14 14 28 -1 31
-34z m1093 9 c31 -31 22 -104 -16 -137 -15 -12 -32 -21 -39 -19 -15 5 -33 44
-41 94 -5 34 -3 45 14 62 27 27 55 27 82 0z m-231 -35 c0 -18 13 -38 40 -63
47 -43 46 -71 0 -71 -42 0 -70 41 -70 100 0 26 3 50 7 53 13 14 23 6 23 -19z
m1480 -78 c0 -16 -18 -31 -27 -22 -8 8 5 36 17 36 5 0 10 -6 10 -14z m-2940
-20 c0 -18 -17 -29 -30 -21 -8 5 -7 11 1 21 15 18 29 18 29 0z m3010 -41 c0
-8 -6 -15 -12 -15 -7 0 -2 -9 12 -21 l25 -20 -40 7 c-79 13 -98 27 -73 52 18
18 88 16 88 -3z m6088 -7 c-6 -16 -36 -34 -44 -25 -9 9 15 37 33 37 8 0 13 -5
11 -12z m-201 -55 c-3 -10 -5 -4 -5 12 0 17 2 24 5 18 2 -7 2 -21 0 -30z
m-107 -23 c0 -11 -9 -25 -19 -32 -18 -11 -18 -12 3 -29 24 -21 9 -25 -29 -7
-33 15 -32 37 3 65 34 28 42 28 42 3z m-7589 -15 c16 -9 36 -27 45 -40 16 -24
15 -27 -1 -45 -10 -11 -27 -20 -37 -20 -27 0 -133 103 -123 120 9 15 73 7 116
-15z m7655 10 c6 -16 -12 -45 -27 -45 -10 0 -12 44 -2 53 11 11 23 8 29 -8z
m-5702 -44 c16 -16 57 -43 92 -60 68 -32 77 -50 47 -83 -20 -22 -39 -23 -47
-2 -5 13 -15 15 -49 11 -23 -3 -47 -3 -52 1 -9 6 -45 132 -45 155 0 16 28 5
54 -22z m297 19 c25 -14 24 -52 -1 -75 -19 -17 -19 -18 0 -43 11 -13 20 -38
20 -55 0 -28 -1 -29 -13 -12 -10 13 -21 16 -41 11 -25 -6 -26 -5 -16 14 6 12
10 33 8 48 -3 23 -9 28 -42 32 -22 3 -41 10 -43 17 -3 7 3 9 16 6 17 -4 21 -1
21 19 0 44 44 62 91 38z m5529 -5 c7 -9 10 -19 6 -22 -8 -9 -38 9 -44 25 -5
17 23 15 38 -3z m-7894 -57 c21 -41 15 -139 -10 -167 -21 -23 -42 -18 -52 11
-3 11 -26 29 -50 39 -24 11 -48 28 -54 39 -13 25 -13 87 1 95 14 9 49 -24 49
-47 0 -32 33 -17 53 25 21 45 41 47 63 5z m7702 -30 c2 -11 -9 -20 -32 -28
-19 -6 -47 -21 -62 -32 l-27 -22 -23 30 c-32 39 -30 43 15 31 35 -10 42 -8 71
17 34 28 53 30 58 4z m-8263 -20 c49 -38 74 -140 41 -167 -11 -9 -19 -6 -38
17 -29 34 -64 133 -55 156 8 21 19 20 52 -6z m8453 9 c7 -8 6 -19 -3 -36 l-12
-24 -13 22 c-19 37 3 68 28 38z m-8168 -47 c0 -21 45 -60 69 -60 10 0 23 6 30
13 11 10 13 6 7 -21 -6 -36 -41 -92 -57 -92 -24 0 -89 156 -74 180 9 15 25 2
25 -20z m2734 -122 c1 -73 -17 -109 -67 -138 -23 -13 -28 -13 -46 4 -27 24
-18 36 25 36 48 0 57 28 50 155 l-5 100 21 -45 c15 -31 22 -66 22 -112z m366
116 c0 -28 -15 -32 -29 -6 -7 13 -7 22 1 30 16 16 28 5 28 -24z m4986 11 c0
-16 -7 -25 -18 -25 -9 0 -22 -8 -27 -17 -9 -16 -10 -16 -11 -2 0 13 45 69 55
69 2 0 2 -11 1 -25z m-9106 -71 c61 -75 71 -109 54 -182 l-12 -53 42 -20 c44
-20 189 -142 193 -162 3 -15 -77 -129 -94 -135 -7 -2 -13 3 -13 11 0 9 -18 30
-40 47 -40 31 -40 32 -40 99 0 77 -11 96 -60 108 -34 9 -35 11 -40 63 -4 44
-9 56 -24 58 -17 4 -18 0 -12 -39 l6 -44 -21 28 c-24 31 -39 35 -39 9 0 -20
-34 -55 -62 -65 -14 -5 -18 -1 -18 15 0 32 -27 4 -41 -43 -9 -30 -9 -42 1 -54
21 -25 43 -19 36 11 -6 23 -5 25 16 19 13 -4 35 -14 49 -21 15 -7 49 -18 75
-24 56 -13 79 -30 105 -82 22 -44 25 -116 5 -124 -7 -3 -30 6 -50 20 -21 14
-58 28 -83 32 -30 4 -55 15 -68 30 -29 31 -60 30 -132 -2 -66 -29 -116 -73
-134 -118 -17 -43 -38 -65 -76 -81 -18 -8 -33 -21 -33 -29 0 -16 -43 -33 -70
-27 -8 1 -22 9 -31 18 -15 13 -19 12 -33 -8 -16 -23 -16 -23 -31 -4 -14 20
-14 19 -15 -3 0 -14 -9 -27 -24 -34 -30 -13 -58 -4 -50 16 9 24 -32 99 -92
166 -71 79 -70 84 3 80 17 -1 45 6 62 15 21 10 43 14 64 10 24 -5 37 -2 46 9
15 18 29 20 50 7 11 -7 15 -31 16 -88 1 -94 14 -123 56 -123 88 0 129 51 129
162 0 70 8 108 21 108 5 0 9 -10 9 -22 0 -45 12 -51 71 -39 29 6 59 16 66 23
22 18 16 77 -12 110 -30 35 -34 95 -8 138 9 15 36 40 60 55 l43 28 0 67 c0 56
4 70 23 88 30 28 77 51 92 46 7 -3 36 -34 65 -70z m385 -33 c18 -37 49 -86 69
-110 51 -61 47 -102 -8 -82 -13 6 -49 32 -80 60 -30 27 -64 55 -75 61 -27 14
-26 29 3 73 15 22 19 34 10 30 -20 -8 -18 24 3 35 27 16 42 3 78 -67z m538 62
c3 -5 8 -29 12 -55 6 -40 5 -48 -8 -48 -20 0 -47 38 -47 65 0 31 31 58 43 38z
m3241 -56 c30 -40 35 -144 8 -177 l-20 -24 -43 19 c-58 26 -99 62 -99 86 0 24
104 133 121 127 7 -2 22 -16 33 -31z m3910 -49 c8 -12 12 -26 9 -31 -3 -5 -10
-2 -15 7 -5 9 -18 16 -28 16 -20 0 -26 11 -13 23 12 13 32 7 47 -15z m71 -98
c-3 -5 -15 -10 -26 -10 -10 0 -19 5 -19 10 0 6 12 10 26 10 14 0 23 -4 19 -10z
m-335 -28 c31 -25 18 -42 -30 -42 -48 0 -61 17 -30 42 12 10 26 18 30 18 4 0
18 -8 30 -18z m114 2 c22 -22 20 -51 -5 -64 -38 -21 -78 37 -47 68 16 16 33
15 52 -4z m-7733 -33 c32 -26 15 -47 -24 -32 -26 10 -35 30 -20 44 10 11 19 8
44 -12z m7477 -7 c32 -9 27 -23 -15 -40 -25 -11 -46 -13 -66 -7 -70 20 8 66
81 47z m-983 -49 c-44 -19 -119 -30 -111 -16 9 14 63 29 106 29 l35 0 -30 -13z
m190 -26 c0 -8 -9 -15 -19 -17 -14 -3 -17 0 -12 13 3 10 1 25 -6 34 -12 14
-11 14 12 0 14 -9 25 -23 25 -30z m505 22 c23 -43 13 -58 -47 -70 -65 -13 -86
-3 -81 38 5 43 108 69 128 32z m-3512 -33 l3 -28 30 23 c27 19 45 22 153 25
l123 4 21 -27 c28 -36 28 -76 -2 -150 -14 -33 -27 -77 -31 -97 -7 -42 -28 -50
-45 -17 -13 24 -36 20 -32 -5 2 -12 -2 -17 -14 -14 -18 3 -48 54 -88 148 l-24
55 -16 -37 c-9 -21 -23 -38 -30 -38 -14 0 -51 39 -58 61 -2 7 -21 2 -46 -11
-33 -18 -48 -20 -65 -13 -17 8 -37 5 -87 -14 -35 -13 -96 -31 -135 -39 -38 -9
-79 -24 -90 -34 -11 -10 -36 -23 -56 -29 -20 -6 -47 -23 -60 -37 -13 -15 -50
-44 -81 -65 -32 -22 -65 -54 -74 -72 -10 -18 -60 -75 -113 -127 -133 -132
-181 -187 -220 -256 -66 -116 -160 -250 -207 -294 -26 -25 -43 -39 -39 -31 5
9 3 12 -6 9 -7 -2 -20 -18 -29 -34 -13 -23 -23 -28 -43 -26 -20 3 -27 -1 -27
-13 0 -13 -6 -16 -23 -11 -12 3 -36 -2 -52 -10 -29 -15 -31 -14 -51 12 -15 18
-28 25 -42 22 -11 -3 -26 -2 -33 2 -23 15 10 40 118 92 150 73 180 103 259
265 57 117 76 146 143 217 97 101 151 172 151 197 0 14 7 19 28 19 32 0 88 25
156 69 28 17 60 31 73 31 12 0 27 9 33 20 6 12 21 20 35 20 19 0 25 5 25 21 0
14 11 25 38 36 20 8 58 31 84 49 87 65 343 165 408 161 30 -2 35 -6 38 -29z
m2360 -18 c13 -9 4 -10 -36 -7 -29 2 -59 10 -65 17 -10 10 -3 11 36 6 27 -3
56 -11 65 -16z m981 7 c16 -20 3 -27 -48 -27 -65 0 -157 -17 -193 -35 -37 -18
-38 -18 -38 -4 0 14 80 48 153 64 81 18 112 18 126 2z m-4895 -18 c34 -27 49
-55 41 -79 -8 -25 -32 -26 -58 -3 -18 17 -19 17 -16 -2 3 -17 -2 -21 -36 -23
-39 -3 -39 -3 -22 16 16 17 16 20 2 25 -18 8 -20 58 -3 75 18 18 62 14 92 -9z
m3566 -54 c-10 -12 -15 -13 -21 -3 -11 17 11 42 24 29 7 -7 6 -15 -3 -26z
m881 25 c12 -7 19 -21 19 -40 0 -16 5 -32 10 -35 38 -23 -50 -36 -92 -14 -21
11 -21 12 -4 25 12 8 17 21 13 34 -3 12 1 24 11 30 21 12 20 12 43 0z m-5744
-16 c33 -5 73 -44 73 -71 0 -8 11 -38 25 -66 29 -62 42 -132 26 -141 -13 -8
-95 74 -117 116 -8 16 -19 26 -24 23 -6 -4 -19 9 -30 28 -12 19 -31 38 -43 41
-12 3 -40 24 -62 46 l-40 41 80 -6 c44 -3 94 -8 112 -11z m5256 9 c-7 -2 -21
-2 -30 0 -10 3 -4 5 12 5 17 0 24 -2 18 -5z m1180 -14 c-16 -16 -113 -25 -113
-11 0 12 27 19 85 21 29 1 36 -2 28 -10z m-7079 -21 c3 -13 6 -36 6 -53 0 -16
7 -43 15 -59 19 -36 19 -36 -8 -36 -12 0 -33 -7 -46 -16 l-23 -17 6 74 c10
104 16 129 31 129 7 0 15 -10 19 -22z m6272 11 c3 -6 1 -16 -5 -22 -13 -13
-62 1 -69 21 -5 15 64 17 74 1z m-1298 -37 c4 -37 -11 -41 -59 -16 -34 17 -34
35 2 45 41 12 54 6 57 -29z m1130 32 c13 -4 21 -12 19 -18 -6 -18 -39 -19 -49
-2 -14 25 -41 21 -33 -5 5 -15 3 -20 -6 -17 -8 3 -15 14 -17 26 -3 19 1 22 30
22 18 0 43 -3 56 -6z m-355 -18 c7 -18 -2 -84 -15 -108 -11 -22 -73 -34 -93
-18 -18 15 -20 95 -3 107 11 7 79 29 99 32 4 1 9 -5 12 -13z m222 -5 c-3 -5 2
-17 11 -25 14 -15 14 -16 -4 -16 -61 0 -73 46 -14 49 7 1 11 -3 7 -8z m-1912
-44 c6 -20 6 -37 -2 -53 -10 -24 -12 -24 -41 -9 -34 18 -36 25 -14 66 19 37
44 35 57 -4z m1472 4 c17 -7 16 -8 -9 -15 -33 -8 -174 3 -182 15 -6 11 163 11
191 0z m-5014 -108 c54 -28 54 -28 53 -73 0 -25 -12 -83 -26 -130 -31 -101
-48 -255 -48 -429 0 -181 -15 -286 -48 -339 -15 -24 -34 -55 -42 -70 -8 -15
-41 -58 -73 -97 -101 -122 -129 -195 -246 -660 -91 -358 -108 -407 -163 -476
-22 -29 -58 -91 -78 -139 -56 -130 -118 -219 -251 -357 -65 -68 -119 -128
-119 -134 0 -11 -62 -95 -140 -190 -25 -30 -57 -73 -70 -95 -28 -46 -34 -51
-78 -63 -43 -12 -92 4 -92 30 0 10 48 111 106 225 166 324 300 620 379 839 18
50 49 131 68 180 44 111 131 404 198 665 28 107 63 241 80 296 16 56 29 111
29 123 0 38 59 205 89 253 17 26 58 69 93 95 34 26 86 70 114 96 51 47 52 49
59 120 7 80 47 287 64 330 9 23 16 27 49 27 22 0 61 -12 93 -27z m-985 -34
c25 -12 54 -36 65 -53 23 -37 26 -106 5 -106 -8 0 -37 -24 -66 -52 l-51 -53 6
100 c8 134 -1 146 -58 83 -24 -27 -51 -48 -61 -48 -31 0 -54 19 -66 54 -15 45
3 83 44 96 46 14 131 4 182 -21z m718 -41 c33 -118 32 -178 -3 -178 -27 0 -58
37 -43 52 7 7 12 45 12 95 0 47 4 83 10 83 5 0 16 -24 24 -52z m5426 32 c0
-14 -39 -32 -52 -24 -8 5 -2 12 17 20 37 16 35 16 35 4z m-7075 -20 c-10 -16
-66 -42 -73 -35 -10 10 37 45 60 45 10 0 16 -5 13 -10z m4811 -32 c9 -14 -31
-48 -57 -48 -13 0 -19 7 -19 23 0 13 3 27 7 30 11 11 61 8 69 -5z m-5056 -77
c0 -5 -6 -14 -14 -20 -16 -13 -32 2 -21 19 8 12 35 13 35 1z m1569 -49 c-1
-51 -12 -85 -28 -90 -11 -4 -13 7 -9 56 4 33 9 66 13 71 12 20 25 0 24 -37z
m123 -22 c7 -11 20 -20 29 -20 9 0 24 -9 34 -20 18 -20 18 -20 29 2 13 26 55
36 66 17 11 -17 1 -40 -16 -37 -7 2 -19 -5 -27 -15 -12 -18 -15 -18 -52 -3
-51 22 -105 63 -105 82 0 21 28 17 42 -6z m-1891 -52 c11 -21 3 -58 -12 -58
-14 0 -41 69 -35 87 5 13 9 13 22 2 8 -7 20 -21 25 -31z m1210 5 c21 -40 18
-146 -5 -172 -11 -12 -14 -21 -8 -21 22 0 12 -68 -23 -167 -19 -54 -35 -106
-35 -117 0 -10 -24 -79 -54 -155 -30 -75 -59 -155 -66 -179 -6 -24 -40 -114
-74 -200 -71 -175 -83 -208 -132 -369 -18 -61 -45 -138 -60 -170 -72 -160
-275 -660 -314 -773 -16 -47 -45 -146 -64 -221 -19 -74 -54 -187 -76 -250 -23
-63 -53 -145 -67 -184 -14 -38 -32 -78 -40 -87 -8 -9 -21 -48 -28 -87 -8 -38
-28 -102 -45 -142 -18 -40 -32 -87 -32 -105 0 -19 -4 -34 -9 -34 -15 0 -36
-52 -55 -135 -13 -57 -19 -121 -19 -220 l0 -140 48 -92 c26 -51 47 -106 47
-121 0 -36 -54 -112 -79 -112 -26 0 -38 -37 -56 -173 -24 -186 -23 -193 30
-240 25 -22 45 -46 45 -53 0 -12 -41 -19 -140 -27 -32 -2 -35 -5 -41 -41 -8
-46 -30 -66 -76 -66 -26 0 -45 10 -83 46 -75 70 -84 97 -77 228 3 61 10 125
17 141 15 39 59 85 82 85 20 0 24 -16 6 -22 -7 -3 -13 -13 -13 -24 0 -12 -8
-20 -23 -22 -31 -5 -40 -31 -16 -49 12 -9 19 -26 19 -46 0 -42 23 -42 48 1 15
26 20 64 28 210 10 211 15 251 40 317 10 27 19 58 19 69 0 10 11 50 25 88 31
87 31 96 -2 100 -27 3 -28 6 -31 61 -2 35 5 91 17 140 12 45 25 116 30 158 6
41 15 88 22 105 10 25 12 26 18 11 4 -10 11 -17 16 -15 9 3 167 320 222 444
13 29 32 55 45 61 13 6 29 27 37 49 7 22 36 89 64 149 55 122 87 208 87 237 0
23 -26 24 -39 1 -14 -24 -14 -15 5 145 18 165 46 287 112 487 27 83 53 166 57
185 25 116 323 796 375 855 43 50 176 368 200 480 7 33 19 67 27 76 7 8 17 37
22 62 14 78 43 94 72 40z m4180 15 c5 -7 9 -32 9 -54 0 -48 -21 -81 -140 -222
-88 -104 -218 -270 -275 -351 -22 -32 -69 -90 -103 -131 -35 -40 -74 -90 -87
-110 -13 -21 -40 -47 -59 -59 -36 -23 -126 -116 -126 -132 0 -5 -14 -16 -32
-25 -17 -9 -63 -40 -100 -69 -38 -29 -86 -57 -107 -63 -46 -14 -151 -88 -151
-107 0 -15 -52 -21 -250 -31 -69 -3 -129 -10 -134 -15 -24 -22 -90 -8 -166 36
-30 17 -42 9 -16 -11 24 -17 15 -28 -14 -19 -36 11 -54 51 -54 122 0 76 9 87
82 97 206 29 432 65 453 74 18 7 28 21 32 41 9 41 37 42 37 1 0 -16 5 -30 11
-30 22 0 166 53 213 78 110 60 332 356 501 666 47 87 92 167 99 178 16 23 122
110 157 129 54 29 203 34 220 7z m-3776 -38 c0 -8 -8 -16 -18 -18 -21 -4 -49
16 -41 30 9 15 59 5 59 -12z m894 -34 c102 -84 108 -111 65 -316 -35 -169 -31
-273 14 -379 34 -78 41 -135 18 -144 -7 -3 -17 -22 -20 -42 -4 -19 -18 -52
-32 -73 -14 -20 -42 -73 -63 -118 -21 -45 -43 -84 -50 -88 -6 -4 -11 -19 -11
-33 0 -15 -11 -54 -24 -87 -13 -34 -29 -95 -36 -136 -7 -48 -19 -88 -35 -110
-42 -61 -125 -278 -125 -326 0 -12 -7 -24 -15 -28 -9 -3 -15 -18 -15 -36 0
-17 -11 -56 -24 -88 -13 -32 -29 -91 -35 -132 -20 -146 -92 -321 -226 -551
-44 -74 -89 -159 -101 -189 -19 -45 -28 -56 -49 -58 -18 -2 -33 -14 -43 -34
-28 -50 -53 -79 -78 -88 -14 -6 -24 -18 -24 -29 0 -31 -75 -171 -156 -291 -42
-63 -94 -149 -115 -192 -22 -43 -44 -78 -49 -78 -6 0 -39 -45 -75 -100 -36
-55 -69 -100 -75 -100 -6 0 -18 -17 -26 -37 -9 -20 -27 -45 -40 -55 -13 -11
-51 -59 -84 -107 -60 -88 -156 -190 -182 -192 -7 -1 -24 -2 -38 -3 -16 -1 -26
-8 -28 -21 -6 -26 -67 -83 -98 -91 -13 -3 -31 -4 -39 0 -10 3 -15 -1 -15 -14
0 -11 -22 -38 -51 -62 -203 -169 -264 -233 -252 -264 9 -24 -116 -16 -131 9
-16 25 4 51 45 58 51 8 85 30 185 116 50 43 111 94 134 113 49 40 48 55 -6 92
l-29 20 33 -6 c17 -3 32 -4 32 -2 0 2 -19 14 -41 26 -23 11 -66 41 -96 66 -35
28 -69 46 -94 50 -21 4 -46 15 -55 25 -9 11 -25 19 -35 19 -10 0 -20 4 -24 9
-17 29 140 114 211 114 57 0 142 -43 193 -98 46 -50 51 -78 20 -111 -33 -35
-45 -114 -17 -114 15 0 143 126 199 197 74 92 120 252 79 273 -16 9 -143 29
-148 24 -2 -1 10 -9 26 -18 17 -9 35 -29 41 -47 15 -42 14 -112 -1 -127 -32
-32 -118 5 -141 60 -8 18 -21 39 -30 47 -10 7 -17 21 -17 30 0 9 -5 22 -12 29
-17 17 -1 43 90 152 58 68 112 150 193 292 61 108 132 223 158 255 60 74 260
351 328 451 28 42 72 104 97 137 25 33 89 121 142 195 54 74 112 151 130 172
32 36 156 281 187 368 32 91 137 508 152 603 25 156 44 202 148 355 88 129
131 259 167 502 12 81 30 159 45 195 30 74 32 133 5 168 -25 31 -25 37 -2 37
9 0 41 -20 71 -44z m-2599 -41 c0 -49 -4 -53 -32 -28 -21 19 -23 44 -6 61 25
25 38 13 38 -33z m1118 -20 c5 -40 -14 -87 -161 -390 -148 -309 -341 -756
-397 -925 -21 -63 -57 -174 -80 -247 -61 -194 -210 -437 -210 -343 0 38 -59
138 -100 171 -29 23 -40 40 -40 59 0 43 -29 129 -52 152 -15 15 -19 28 -14 49
4 21 0 32 -14 42 -17 11 -19 26 -19 113 0 145 -34 310 -116 564 -23 75 -45
148 -47 164 -3 26 0 28 33 31 74 4 213 134 329 308 l75 112 86 43 c94 47 113
50 269 37 103 -8 92 -10 355 70 44 13 85 23 90 21 6 -1 11 -15 13 -31z m2242
-22 c42 -38 48 -85 18 -143 -24 -47 -30 -49 -91 -34 -24 6 -34 -1 -86 -55 -34
-36 -67 -61 -79 -61 -32 0 -62 46 -62 96 0 37 6 49 53 100 113 124 185 152
247 97z m-3290 -8 c0 -16 -27 -32 -37 -21 -7 7 16 36 28 36 5 0 9 -7 9 -15z
m4916 -8 c-28 -23 -28 -24 -12 -49 16 -25 16 -27 -6 -42 -29 -21 -78 -21 -78
-1 0 9 7 18 15 21 9 4 15 19 15 40 0 38 19 53 65 54 l30 0 -29 -23z m-3122
-35 c-2 -80 -95 -162 -184 -161 -25 0 -54 5 -66 12 -37 22 -144 121 -144 134
0 10 24 13 93 13 71 0 112 6 173 25 43 13 90 23 104 22 23 -2 25 -6 24 -45z
m-1909 -9 c5 -23 15 -47 21 -53 15 -15 39 -3 51 23 10 21 11 20 17 -10 4 -19
14 -33 22 -33 24 0 -2 -37 -45 -65 -28 -17 -43 -36 -53 -66 -17 -51 -48 -76
-105 -85 l-42 -6 6 85 c7 100 0 137 -26 137 -10 0 -24 7 -31 15 -29 35 70 108
140 103 31 -3 35 -7 45 -45z m3762 -33 c55 -32 83 -63 83 -94 0 -18 -1 -18
-18 -3 -13 12 -36 17 -74 17 -54 0 -56 1 -67 31 -17 48 -14 79 7 79 9 0 40
-14 69 -30z m-739 -92 c11 -13 30 -45 42 -72 11 -27 31 -61 44 -77 31 -36 40
-77 26 -115 l-11 -29 -21 28 c-11 15 -26 27 -33 27 -27 0 -115 171 -115 225 0
39 36 46 68 13z m-1564 -163 c4 -71 2 -184 -3 -250 -13 -169 -77 -543 -111
-650 -16 -49 -45 -153 -65 -230 -89 -347 -211 -679 -346 -945 -116 -227 -121
-234 -147 -226 -30 10 -116 99 -135 139 -30 63 -22 105 57 305 134 340 326
930 326 1004 0 17 6 39 14 47 17 19 56 117 126 316 74 212 176 475 222 575 49
104 53 98 62 -85z m5630 132 c51 -25 297 -279 284 -292 -5 -5 -142 82 -193
123 -17 13 -68 46 -114 73 -83 49 -86 49 -145 43 l-61 -6 35 36 c55 58 112 65
194 23z m-7391 -28 c-8 -29 -13 -23 -13 14 0 22 3 28 9 18 5 -7 6 -22 4 -32z
m3925 -36 l142 -6 0 -131 c0 -132 -11 -189 -25 -128 -3 17 -13 33 -21 36 -10
4 -14 22 -14 64 0 75 -14 91 -60 67 -18 -9 -38 -14 -46 -11 -9 3 -14 -1 -14
-13 0 -10 9 -21 19 -24 20 -5 62 -64 75 -104 5 -17 2 -25 -16 -34 -13 -6 -25
-13 -27 -15 -3 -3 9 -18 25 -35 l29 -31 -22 -16 c-12 -9 -34 -25 -48 -35 -33
-23 -32 -45 3 -53 44 -11 52 -23 52 -79 0 -41 -9 -71 -35 -127 l-36 -73 7
-127 c5 -93 4 -128 -5 -128 -6 0 -11 -14 -11 -31 0 -20 -14 -53 -39 -90 -22
-32 -49 -89 -62 -126 l-22 -66 -19 36 c-16 33 -21 36 -39 26 -11 -6 -27 -26
-35 -45 -13 -31 -18 -34 -54 -34 -29 0 -43 5 -52 20 -16 25 -29 25 -62 -1 -34
-27 -46 -18 -46 35 0 49 13 66 52 66 39 0 49 25 29 78 -16 43 -16 44 8 63 35
29 121 24 121 -7 0 -24 45 -16 89 16 43 32 46 50 8 50 -21 0 -20 2 7 23 32 26
29 31 -27 41 -23 4 -43 16 -53 31 -20 30 -33 31 -83 6 -45 -23 -141 -125 -141
-150 0 -9 -5 -22 -12 -29 -17 -17 -48 -15 -48 3 0 19 -5 19 -37 -2 -30 -20
-208 -31 -233 -14 -12 8 -11 14 9 35 37 40 97 64 199 80 102 17 112 20 112 42
0 9 -11 14 -33 14 -42 0 -52 9 -29 27 15 11 9 13 -43 8 -37 -4 -66 -2 -75 5
-12 9 -12 13 -2 17 9 3 4 11 -17 24 -34 21 -58 53 -71 98 -11 39 4 50 33 23
34 -31 57 -39 130 -46 37 -4 95 -15 130 -26 73 -23 110 -25 126 -6 6 7 14 49
18 92 6 69 10 82 35 105 26 25 26 27 8 32 -16 4 -19 11 -14 35 8 42 -12 50
-45 18 -45 -43 -66 -29 -36 24 19 33 19 80 1 80 -8 0 -16 6 -19 14 -3 8 -18
20 -34 28 -25 12 -29 21 -42 95 -14 81 -14 82 13 135 14 29 46 75 70 103 l44
50 15 -38 c9 -20 20 -37 24 -37 19 0 33 26 33 58 l0 35 48 -7 c26 -4 111 -9
190 -13z m926 -49 c9 -3 16 -16 16 -29 0 -24 -17 -35 -52 -35 -12 0 -36 -11
-54 -25 -35 -26 -54 -32 -54 -15 0 21 31 85 47 98 18 13 70 16 97 6z m-4776
-51 c5 -17 -26 -29 -40 -15 -6 6 -7 15 -3 22 9 14 37 9 43 -7z m5983 -32 c26
-27 29 -36 29 -94 0 -167 -104 -377 -364 -732 -45 -61 -86 -119 -92 -130 -6
-11 -21 -22 -33 -25 -11 -3 -30 -18 -40 -35 -34 -55 -110 -133 -153 -154 -24
-12 -58 -31 -76 -43 -62 -39 -262 -79 -474 -94 -82 -6 -99 -4 -113 10 -9 9
-33 16 -53 16 -46 0 -167 57 -201 94 -14 14 -23 27 -20 27 2 1 47 2 99 4 123
3 283 31 340 58 25 12 64 22 87 23 102 3 393 183 393 243 0 9 14 30 31 47 88
83 276 360 377 553 57 110 124 197 182 237 44 30 45 30 81 -5z m-2765 1 c11
-10 29 -30 38 -45 10 -15 33 -34 51 -43 57 -27 73 -104 22 -104 -46 0 -160
102 -173 155 -13 52 20 72 62 37z m-122 -82 c44 -85 103 -138 216 -195 93 -46
127 -82 103 -106 -32 -32 -194 -15 -214 22 -5 10 -18 19 -27 19 -22 0 -84 63
-107 109 -20 39 -42 199 -31 226 9 23 12 20 60 -75z m-1274 49 c0 -10 -4 -19
-10 -19 -5 0 -10 12 -10 26 0 14 4 23 10 19 6 -3 10 -15 10 -26z m5365 0 c15
-14 42 -10 49 7 8 20 35 12 101 -29 37 -22 64 -31 103 -33 29 -2 60 -8 68 -15
35 -29 87 -327 82 -469 -3 -81 -4 -85 -25 -84 -19 0 -23 -5 -23 -28 0 -17 -5
-28 -14 -28 -10 0 -17 -27 -26 -96 -18 -147 -49 -216 -65 -145 -8 36 2 87 22
118 8 12 20 61 28 110 7 48 19 113 26 143 14 66 7 276 -13 337 -11 36 -17 43
-43 45 -25 2 -29 7 -27 26 4 26 -1 27 -33 6 -19 -12 -36 -15 -71 -9 -40 6 -45
4 -42 -12 2 -12 -4 -19 -20 -21 -13 -2 -27 -14 -32 -28 -8 -20 -16 -24 -49
-24 -55 0 -121 31 -159 74 -36 41 -38 52 -18 101 16 37 41 45 65 23 10 -11 18
-7 38 20 26 32 51 36 78 11z m-5255 -9 c0 -5 -4 -10 -8 -10 -15 0 -32 -50 -47
-129 -7 -42 -16 -85 -20 -96 -6 -18 -5 -18 5 -2 13 20 30 23 30 5 0 -7 -14
-42 -30 -77 -17 -35 -29 -66 -27 -68 2 -2 16 6 30 18 38 29 35 11 -14 -106
-41 -99 -43 -121 -11 -92 30 28 33 20 11 -35 -15 -39 -16 -49 -5 -38 22 23 91
157 116 228 22 61 40 80 40 42 0 -19 -47 -205 -125 -500 -20 -76 -55 -175 -80
-225 -24 -49 -62 -136 -84 -192 -61 -154 -121 -278 -181 -373 -29 -47 -78
-139 -110 -205 -31 -66 -71 -142 -88 -169 -18 -28 -50 -97 -72 -155 -58 -154
-117 -267 -151 -292 -40 -28 -37 -9 10 70 22 36 51 95 64 131 13 36 49 120 80
187 64 140 120 303 213 621 37 124 79 256 94 292 15 36 33 101 40 145 6 44 25
139 40 210 32 147 71 400 95 615 8 79 19 148 24 153 5 5 18 3 30 -4 18 -12 24
-10 53 18 41 38 78 54 78 33z m4518 -37 c32 -28 34 -103 3 -103 -20 0 -61 70
-61 103 0 22 32 22 58 0z m-1468 -3 c0 -5 -13 -23 -30 -40 -16 -17 -30 -38
-30 -47 0 -27 -51 -105 -65 -99 -14 5 -55 -33 -55 -52 0 -22 -175 -132 -210
-132 -25 0 -5 37 53 97 82 87 172 153 207 153 15 0 34 7 41 16 12 15 11 16 -9
10 -12 -4 -22 -3 -22 1 0 11 54 63 90 86 29 20 30 20 30 7z m460 -9 c0 -5 -6
-14 -14 -20 -16 -13 -32 2 -21 19 8 12 35 13 35 1z m900 -95 c20 -13 49 -48
65 -77 25 -47 30 -67 33 -151 3 -70 -1 -118 -13 -170 -27 -111 -73 -225 -101
-247 -16 -13 -27 -36 -34 -71 -6 -29 -19 -67 -30 -84 -10 -18 -31 -74 -45
-126 -37 -133 -58 -188 -93 -244 -17 -27 -39 -71 -48 -98 -9 -27 -25 -54 -35
-61 -10 -6 -19 -17 -19 -24 0 -7 -36 -52 -80 -99 -44 -48 -80 -91 -80 -96 0
-5 -16 -16 -35 -24 -20 -8 -52 -29 -73 -48 -66 -59 -124 -80 -150 -54 -9 9
-12 8 -12 -4 0 -29 -29 -48 -75 -48 -27 0 -50 -6 -60 -17 -17 -16 -125 -33
-125 -19 0 4 14 12 32 18 28 10 30 12 12 19 -10 4 -34 8 -53 8 -59 1 -133 67
-118 104 3 9 26 18 58 22 68 10 170 63 187 98 12 25 17 26 53 21 38 -6 42 -4
83 39 125 129 354 422 342 434 -8 9 -26 -8 -96 -93 -45 -53 -78 -84 -91 -84
-11 0 -53 -10 -94 -22 -71 -21 -76 -21 -110 -5 -34 16 -35 16 -23 -2 26 -42
-17 -71 -103 -71 -35 0 -51 -4 -55 -15 -4 -9 -27 -28 -53 -42 -25 -15 -60 -39
-77 -53 -39 -33 -132 -87 -159 -92 -15 -2 -19 2 -18 19 3 24 -20 37 -49 27
-15 -4 -28 3 -50 30 -16 20 -37 36 -47 36 -10 0 -24 15 -34 36 -12 25 -22 34
-33 30 -9 -4 -18 2 -23 17 -5 12 -21 33 -35 46 -36 33 -21 41 84 41 166 0 319
38 400 99 28 21 130 114 226 205 96 92 179 164 183 161 5 -2 55 8 112 25 105
29 211 50 262 50 24 0 27 -4 27 -34 0 -19 -9 -63 -20 -98 -23 -73 -24 -82 -9
-72 23 14 98 193 133 319 43 154 81 339 98 470 6 56 16 95 22 95 6 0 27 -11
46 -24z m-2026 -128 c-134 -186 -172 -223 -188 -183 -3 9 -19 20 -34 26 -38
13 -58 54 -53 106 0 7 18 20 38 28 21 9 58 33 83 54 25 21 60 46 79 55 31 17
152 47 160 40 1 -1 -37 -58 -85 -126z m1320 76 c25 -10 19 -34 -24 -108 -64
-110 -128 -195 -206 -276 -40 -42 -80 -92 -89 -113 -9 -21 -26 -42 -38 -46
-12 -5 -47 -31 -77 -57 -90 -78 -180 -110 -230 -84 -16 9 -18 8 -14 -5 4 -8 1
-22 -6 -30 -12 -14 -148 -60 -156 -53 -2 2 7 20 19 40 30 49 589 615 618 627
14 5 48 27 77 50 68 54 96 66 126 55z m-5650 -246 c32 -49 62 -219 36 -203
-20 12 -62 108 -56 128 3 11 -2 33 -10 48 -7 15 -14 33 -14 39 0 18 29 10 44
-12z m7426 -49 c0 -10 -4 -19 -10 -19 -5 0 -10 12 -10 26 0 14 4 23 10 19 6
-3 10 -15 10 -26z m-4133 6 c3 -9 3 -19 -1 -22 -8 -9 -37 18 -30 28 8 14 24
11 31 -6z m3243 -73 c0 -15 9 -45 20 -67 11 -22 20 -41 20 -42 0 -5 -48 -3
-64 3 -28 11 -15 134 14 134 5 0 10 -13 10 -28z m-376 9 c8 -12 -21 -34 -34
-26 -17 11 -11 35 9 35 11 0 22 -4 25 -9z m1264 -18 c2 -9 -7 -13 -27 -13 -30
0 -39 9 -24 24 11 10 46 3 51 -11z m491 -3 c-52 -27 -168 -70 -190 -70 -14 0
-19 7 -19 29 0 49 29 61 145 61 l100 -1 -36 -19z m-2949 -70 c0 -5 -9 -14 -19
-20 -26 -13 -36 3 -15 24 15 16 34 13 34 -4z m1682 -111 c30 -29 30 -32 25
-97 -3 -37 -10 -84 -17 -104 l-11 -36 -109 -26 c-61 -14 -121 -26 -135 -26
-13 0 -33 -10 -44 -21 -26 -28 -55 -19 -46 13 6 20 64 151 112 255 23 49 67
73 136 73 52 0 62 -3 89 -31z m-2042 -35 c0 -13 -112 -173 -146 -208 -19 -19
-34 -41 -34 -49 0 -8 -22 -18 -58 -25 -78 -16 -81 -16 -92 13 -12 32 -51 34
-65 3 -12 -28 -56 -35 -75 -13 -11 14 -10 23 7 58 23 46 94 132 124 147 10 6
55 15 99 21 45 5 113 20 153 33 82 27 87 28 87 20z m-4500 -64 c12 -7 20 -26
25 -62 9 -77 34 -147 56 -161 15 -9 19 -24 19 -64 0 -29 -2 -53 -4 -53 -36 0
-60 41 -80 137 -8 39 -29 99 -48 134 -18 35 -34 67 -36 72 -5 10 46 9 68 -3z
m6706 -92 c27 -17 68 -40 91 -50 49 -22 66 -58 40 -86 -9 -9 -34 -67 -55 -127
-40 -110 -71 -188 -119 -300 -43 -100 -154 -303 -189 -343 -18 -21 -48 -65
-67 -98 -20 -32 -46 -70 -59 -84 -12 -13 -23 -30 -23 -37 0 -8 -6 -17 -13 -22
-7 -4 -12 -12 -11 -17 4 -23 -4 -38 -47 -84 -43 -46 -76 -67 -57 -37 4 6 -5 4
-21 -6 -30 -20 -42 -15 -48 18 -3 17 -11 20 -62 19 -49 -1 -57 1 -53 15 2 9
55 93 118 188 148 222 272 426 298 486 11 26 41 115 66 198 25 84 66 195 90
248 24 53 47 108 50 124 4 15 10 27 14 27 4 0 29 -14 57 -32z m-2905 -79 c23
-29 36 -34 129 -50 115 -21 140 -36 140 -84 0 -36 -23 -75 -34 -57 -10 16 -26
15 -26 -2 0 -32 -53 -28 -71 5 -14 26 -31 24 -27 -3 2 -18 -1 -22 -17 -20 -55
9 -185 122 -185 160 0 24 37 82 52 82 7 0 25 -14 39 -31z m3722 -81 c3 -39 13
-92 21 -117 8 -25 24 -91 37 -146 29 -131 119 -432 165 -548 44 -115 124 -362
124 -387 0 -10 8 -20 18 -22 14 -4 21 -18 25 -49 7 -55 47 -175 130 -399 36
-96 68 -191 72 -211 4 -19 17 -53 31 -75 49 -80 283 -562 317 -654 48 -130 93
-289 110 -386 8 -45 17 -86 21 -92 8 -14 53 -309 61 -402 3 -41 10 -124 16
-183 10 -102 10 -110 -9 -130 -11 -12 -29 -41 -41 -65 -32 -63 -89 -122 -117
-122 -33 0 -31 31 5 100 48 90 57 159 37 260 -10 47 -27 103 -39 125 -23 40
-57 59 -57 31 0 -8 -10 -16 -22 -18 -15 -2 -29 -16 -40 -40 -10 -20 -30 -45
-46 -57 -16 -11 -34 -33 -40 -48 -24 -65 -56 -179 -54 -190 2 -7 -5 -13 -14
-13 -11 0 -15 -6 -11 -20 8 -31 -17 -24 -51 15 -37 42 -46 83 -40 178 7 89 37
172 87 235 49 62 58 93 66 235 l6 117 -32 0 c-41 0 -94 -33 -110 -69 -9 -20
-20 -28 -36 -27 l-23 1 0 190 c-1 295 -24 432 -130 765 -32 102 -70 225 -85
273 -23 78 -30 91 -64 115 -21 15 -48 41 -59 57 -29 42 -227 505 -307 720
-108 288 -205 583 -216 660 -5 38 -25 115 -44 170 -19 55 -30 104 -26 108 4 4
19 3 33 -2 27 -10 42 -42 53 -116 11 -70 35 -145 46 -145 25 0 77 33 89 55 7
13 16 22 20 20 4 -2 15 -35 25 -72 10 -37 32 -99 50 -138 21 -45 37 -100 45
-154 13 -91 24 -131 39 -131 5 0 7 18 4 40 -4 26 0 52 12 76 14 31 17 54 12
128 -5 77 -11 105 -45 181 -53 120 -76 228 -69 319 6 74 20 126 35 126 5 0 12
-32 15 -72z m233 -10 c59 -87 136 -292 159 -423 32 -184 67 -707 48 -718 -6
-4 -15 -1 -21 6 -23 29 -34 104 -42 302 -10 251 -28 341 -80 400 -26 29 -57
134 -80 270 -11 66 -25 133 -30 149 -14 40 -13 68 3 64 6 -2 26 -25 43 -50z
m-90 -106 c27 -105 44 -274 26 -257 -25 24 -72 252 -72 345 1 62 15 36 46 -88z
m-4415 108 c45 -24 3 -110 -88 -181 -32 -25 -59 -55 -61 -67 -2 -11 -19 -32
-38 -47 -19 -14 -34 -32 -34 -39 0 -18 -57 -96 -76 -103 -9 -3 -22 3 -31 17
-14 20 -17 21 -25 6 -8 -14 -13 -15 -24 -5 -28 23 -10 112 31 153 26 26 65 98
65 119 0 16 84 98 121 117 30 17 98 38 122 39 10 1 27 -4 38 -9z m3729 -110
c0 -28 -57 -204 -91 -277 -29 -66 -41 -74 -70 -47 -16 15 -19 13 -37 -23 -21
-41 -59 -80 -68 -70 -3 3 8 34 24 69 16 35 44 106 61 158 17 52 42 113 54 135
34 59 127 100 127 55z m-3336 -28 c-7 -37 24 -75 89 -109 36 -18 46 -28 35
-31 -10 -2 -18 -10 -18 -18 0 -33 -47 -3 -79 51 -10 16 -11 5 -6 -57 4 -43 4
-78 0 -78 -16 0 -65 32 -79 52 -31 43 -18 123 30 185 30 40 35 41 28 5z m550
-7 c3 -8 14 -15 25 -15 10 0 21 -6 24 -14 3 -7 18 -16 34 -19 33 -7 97 -48 96
-62 -1 -19 -48 -36 -87 -31 -58 7 -126 80 -126 136 0 23 25 27 34 5z m-3884
-25 c0 -21 -34 -45 -50 -35 -11 7 -13 38 -3 48 3 4 17 7 30 7 16 0 23 -6 23
-20z m5973 -57 c-7 -2 -21 -2 -30 0 -10 3 -4 5 12 5 17 0 24 -2 18 -5z m826
-58 c39 -98 34 -151 -26 -272 -28 -56 -54 -122 -58 -145 -4 -24 -15 -50 -24
-58 -10 -8 -25 -40 -34 -70 -21 -71 -163 -359 -212 -430 -21 -30 -56 -84 -78
-120 -75 -123 -146 -210 -171 -210 -17 0 -23 -5 -22 -17 1 -13 -8 -19 -32 -21
-26 -3 -40 -14 -72 -57 -50 -68 -98 -105 -137 -105 -17 0 -51 -9 -77 -20 -25
-12 -83 -27 -129 -34 -46 -8 -118 -24 -161 -36 -44 -12 -99 -22 -123 -23 -28
0 -47 -6 -52 -15 -8 -14 -18 -13 -82 5 -41 12 -112 27 -159 33 -47 7 -101 18
-119 26 -19 8 -65 19 -102 24 -124 18 -275 81 -353 149 -31 27 -54 40 -65 36
-20 -6 -45 18 -55 52 -9 28 -36 39 -36 14 0 -25 -36 -17 -51 11 -8 15 -17 18
-39 13 -20 -4 -31 -2 -37 9 -4 8 -35 30 -68 48 -33 18 -64 44 -70 56 -6 13
-19 22 -33 22 -15 0 -26 8 -32 25 -8 21 -14 24 -34 19 -36 -9 -86 21 -86 51 0
28 -12 32 -30 10 -17 -21 -25 -19 -40 11 -8 14 -28 31 -45 38 -16 8 -38 27
-47 44 -25 43 -6 57 69 49 42 -4 65 -13 94 -37 51 -41 98 -58 109 -39 5 7 6
17 3 22 -2 4 -2 15 2 25 5 14 7 14 15 2 6 -8 10 -29 10 -46 0 -39 20 -57 53
-49 18 5 31 1 44 -12 25 -25 186 -107 242 -124 23 -7 45 -18 48 -25 3 -7 21
-18 41 -25 21 -6 118 -48 217 -91 219 -97 353 -143 389 -134 58 14 11 75 -70
91 -34 6 -43 18 -24 30 15 9 12 25 -5 25 -17 0 -19 10 -6 42 5 13 12 36 16 52
5 26 9 28 40 22 28 -6 36 -3 45 15 10 18 18 20 48 15 73 -11 97 -92 44 -145
-15 -15 -33 -30 -41 -32 -22 -8 -6 -54 34 -98 78 -86 228 -110 355 -57 36 15
87 36 113 45 27 10 61 28 77 40 16 11 43 21 59 21 38 0 71 40 71 87 0 19 4 32
9 29 21 -13 220 149 320 260 99 111 190 269 191 332 0 13 -9 36 -21 50 -19 24
-19 27 -4 38 10 7 14 17 11 23 -11 17 15 24 32 8 13 -13 13 -19 2 -32 -19 -23
-4 -30 24 -11 32 20 96 114 96 139 0 10 11 37 24 60 13 23 36 83 51 132 31
107 73 239 87 278 18 48 49 32 77 -38z m-929 17 c0 -13 -32 -39 -57 -46 -11
-4 -29 -18 -38 -32 -13 -20 -19 -23 -30 -14 -20 16 -5 43 43 75 36 24 82 34
82 17z m-2080 -24 c0 -13 -4 -29 -9 -37 -13 -20 -24 4 -17 35 8 30 26 32 26 2z
m-637 -15 c63 -20 65 -22 47 -33 -25 -16 -80 -12 -80 5 0 8 -9 15 -19 15 -21
0 -34 13 -24 24 9 9 19 8 76 -11z m-3192 -115 c19 -37 40 -63 59 -73 25 -13
30 -22 30 -50 0 -19 -5 -35 -10 -35 -26 0 -157 210 -144 231 10 16 33 -10 65
-73z m4399 32 c31 -29 32 -60 3 -60 -21 0 -106 86 -99 99 9 15 61 -6 96 -39z
m-4310 -12 c0 -10 -4 -18 -9 -18 -12 0 -31 56 -23 65 9 9 32 -25 32 -47z
m2848 5 c29 -76 26 -115 -9 -133 -36 -20 -52 5 -47 71 6 82 36 114 56 62z
m3170 5 c-2 -17 -10 -23 -28 -23 -18 0 -26 6 -28 23 -3 19 1 22 28 22 27 0 31
-3 28 -22z m-2397 -5 c34 -20 37 -38 10 -53 -35 -18 -70 -12 -83 14 -23 52 16
73 73 39z m249 -87 c0 -2 -9 -23 -20 -47 -11 -24 -20 -54 -20 -65 0 -23 -17
-34 -53 -34 -12 0 -28 -9 -35 -20 -7 -11 -18 -20 -26 -20 -22 0 -49 -39 -49
-71 0 -41 24 -62 80 -69 l46 -5 -54 -36 c-30 -20 -88 -63 -129 -96 -104 -84
-311 -219 -398 -261 -40 -19 -77 -43 -83 -53 -5 -11 -19 -19 -30 -19 -12 0
-96 -30 -187 -66 -163 -65 -166 -66 -242 -62 -107 6 -225 66 -151 76 13 2 28
-1 34 -7 25 -25 146 0 281 58 86 36 102 50 116 100 17 64 95 128 129 106 6 -3
11 -22 11 -42 0 -39 31 -83 59 -83 24 0 117 46 139 68 13 13 19 28 15 42 -6
24 -51 50 -87 50 -29 0 -56 24 -56 50 0 26 124 127 173 142 23 7 42 20 47 32
9 24 51 64 95 91 17 10 63 43 103 73 122 91 292 189 292 168z m-490 -55 c13
-25 13 -78 0 -86 -5 -3 -10 -15 -10 -26 0 -23 -22 -25 -40 -4 -20 25 4 135 30
135 5 0 14 -9 20 -19z m1300 4 c0 -16 -27 -32 -37 -21 -7 7 16 36 28 36 5 0 9
-7 9 -15z m-82 -189 c34 -39 62 -76 62 -83 0 -23 -37 -14 -81 20 -71 54 -120
120 -126 169 l-6 43 44 -39 c24 -22 72 -71 107 -110z m2261 98 c21 -41 41
-131 41 -182 0 -36 -4 -45 -28 -60 -16 -9 -43 -34 -61 -54 -33 -38 -120 -88
-153 -88 -15 0 -17 5 -12 28 13 53 57 168 95 247 73 153 90 168 118 109z
m-3851 -21 c4 -35 -20 -88 -80 -176 -46 -68 -108 -194 -108 -220 0 -9 -7 -34
-15 -54 -15 -35 -16 -36 -33 -20 -14 15 -17 37 -17 135 0 132 22 218 76 303
26 41 36 48 77 57 78 17 97 12 100 -25z m-2988 -195 l-1 -63 -34 39 c-37 42
-45 62 -20 52 9 -3 23 3 33 13 9 11 18 20 20 20 1 1 2 -27 2 -61z m5583 -11
c-26 -36 -65 -93 -85 -126 -38 -62 -70 -81 -140 -81 -35 0 -35 7 -3 32 14 11
25 28 25 38 0 21 102 127 164 169 36 25 75 41 84 35 2 -1 -19 -31 -45 -67z
m-1160 27 c9 -10 -41 -116 -63 -131 -11 -8 -20 -22 -20 -32 0 -26 -20 -41 -55
-41 -33 0 -54 17 -72 61 -6 14 -22 29 -35 32 l-23 6 25 -21 25 -20 -25 3 c-28
4 -38 32 -20 54 17 21 180 82 251 94 3 1 8 -2 12 -5z m637 -94 c19 -12 7 -23
-39 -39 -45 -15 -57 -14 -76 5 -12 12 -13 19 -4 30 13 16 96 19 119 4z m-388
-63 c4 -9 12 -24 16 -33 4 -9 28 -24 52 -33 51 -19 68 -51 26 -51 -14 0 -61
11 -105 25 -80 26 -80 26 -61 45 11 11 20 26 20 33 0 17 21 38 34 34 5 -2 13
-11 18 -20z m1374 -59 c-4 -23 -34 -100 -68 -172 -33 -72 -63 -150 -66 -173
-3 -27 -9 -40 -17 -37 -6 3 -24 -11 -39 -30 -15 -20 -39 -39 -54 -42 -15 -4
-40 -18 -55 -31 -23 -18 -40 -23 -85 -22 -77 0 -126 18 -130 47 -4 29 28 30
46 1 10 -16 17 -18 25 -10 8 8 3 19 -18 41 l-29 30 22 28 c39 49 55 83 43 95
-12 12 -49 5 -186 -33 -68 -19 -105 -23 -255 -23 -96 -1 -218 5 -270 12 -139
19 -341 60 -374 77 -16 8 -54 14 -85 14 -71 0 -192 33 -239 65 -20 14 -46 25
-58 25 -38 0 -125 31 -146 52 -19 19 -22 19 -30 4 -21 -38 -47 4 -27 47 19 43
49 51 131 39 40 -7 125 -17 188 -23 63 -6 195 -24 293 -40 205 -34 261 -35
395 -12 73 12 156 16 337 16 l240 -1 48 -53 c55 -62 99 -131 95 -150 -5 -23
33 -22 58 1 13 13 33 28 46 34 12 6 33 33 47 60 34 67 170 206 201 206 21 0
22 -3 16 -42z m913 -5 c10 -21 28 -77 40 -124 l22 -87 -37 -66 c-19 -36 -40
-66 -45 -66 -5 0 -9 -8 -9 -19 0 -10 -13 -35 -30 -56 -16 -21 -30 -47 -30 -59
0 -32 -43 -117 -78 -154 -29 -31 -29 -33 -11 -43 22 -11 23 -50 2 -56 -6 -2
-25 10 -41 28 l-30 32 -16 -31 c-9 -17 -16 -39 -16 -49 0 -10 -9 -26 -20 -36
-11 -9 -20 -23 -20 -31 0 -7 -7 -19 -16 -27 -9 -7 -31 -43 -49 -80 -62 -123
-187 -249 -229 -233 -13 5 -17 2 -14 -11 2 -14 -9 -20 -57 -31 -74 -15 -140
-39 -270 -94 -118 -50 -412 -131 -475 -131 -58 0 -143 23 -251 66 -48 19 -93
35 -102 35 -8 0 -20 7 -27 15 -7 8 -25 15 -40 15 -19 0 -35 9 -48 27 -18 25
-22 26 -46 15 -62 -28 -154 -3 -141 39 5 13 2 19 -10 19 -9 0 -19 -9 -22 -20
-8 -29 -34 -25 -84 14 -31 25 -47 32 -56 25 -6 -6 -21 -8 -33 -4 -19 6 -22 11
-24 45 -1 11 -17 16 -69 18 -40 2 -65 7 -62 12 4 6 20 10 38 10 51 0 18 19
-43 25 -84 8 -323 130 -409 208 -36 33 -89 71 -118 84 -50 24 -82 54 -189 179
-66 78 -87 111 -81 128 3 8 -2 16 -15 19 -29 8 -17 31 18 35 21 2 38 -5 58
-23 22 -20 31 -23 42 -14 19 15 18 36 -2 47 -15 8 -14 12 5 31 21 21 24 21 40
7 10 -9 25 -16 35 -16 9 0 21 -11 26 -25 5 -14 17 -28 26 -32 12 -5 15 -14 10
-43 -4 -29 -1 -44 15 -64 28 -35 116 -102 219 -165 47 -29 141 -92 210 -141
156 -109 220 -141 340 -170 52 -13 118 -31 145 -41 28 -9 160 -47 295 -84 135
-37 274 -75 309 -86 72 -22 221 -26 316 -8 72 13 124 39 246 122 52 35 151 98
220 140 69 42 134 86 144 97 12 13 20 41 22 78 6 77 10 87 27 72 25 -20 52 5
117 102 33 50 80 114 103 142 115 135 236 384 236 486 0 50 14 51 39 3z m862
-140 c37 -112 50 -212 55 -433 5 -181 4 -218 -9 -235 -13 -16 -17 -17 -31 -6
-26 22 -45 105 -66 286 -11 94 -27 219 -35 278 -16 113 -20 259 -8 271 11 11
70 -91 94 -161z m-4101 148 c0 -15 -113 -113 -146 -127 -18 -7 -76 -43 -130
-80 -95 -65 -284 -164 -313 -164 -28 0 23 42 94 77 39 20 132 78 207 130 135
93 265 173 280 173 5 0 8 -4 8 -9z m-862 -108 c5 -17 -26 -29 -40 -15 -6 6 -7
15 -3 22 9 14 37 9 43 -7z m-2504 -82 c35 -41 56 -74 56 -89 0 -63 -290 -544
-337 -560 -21 -6 -16 64 13 173 29 113 136 445 165 511 23 54 27 53 103 -35z
m6756 -173 c41 -72 39 -105 -7 -150 -48 -45 -90 -67 -148 -75 -59 -8 -59 5 -2
94 24 38 60 94 80 126 20 31 39 57 42 57 2 0 18 -24 35 -52z m-2393 -9 l28
-10 -25 -20 c-48 -37 -82 -35 -150 8 -23 16 -23 17 -5 24 30 11 120 10 152 -2z
m1919 -24 c9 -36 1 -40 -51 -25 -53 15 -57 26 -12 39 50 14 56 13 63 -14z
m-6141 -82 c-3 -21 -54 -133 -112 -250 -80 -159 -107 -225 -111 -262 -4 -49
-4 -51 32 -72 43 -25 46 -46 9 -60 -60 -23 -202 31 -222 84 -8 21 -5 22 43 27
l51 5 115 231 c118 235 174 334 192 334 6 0 8 -14 3 -37z m6079 28 c16 -3 31
-12 34 -18 6 -20 -104 -15 -163 7 l-50 18 75 0 c41 0 88 -3 104 -7z m-3369
-78 c-4 -10 -16 -40 -26 -68 -10 -27 -25 -55 -32 -63 -12 -11 -12 -3 -1 54 7
42 19 73 30 81 25 18 37 16 29 -4z m3145 -28 c-10 -12 -15 -13 -21 -3 -11 17
11 42 24 29 7 -7 6 -15 -3 -26z m-760 -7 l45 -21 -40 -8 c-22 -4 -66 -8 -97
-8 -51 -1 -58 1 -58 19 0 43 77 53 150 18z m1528 -25 c-2 -10 -10 -18 -18 -18
-8 0 -16 8 -18 18 -2 12 3 17 18 17 15 0 20 -5 18 -17z m-910 -10 c2 -8 -6
-13 -22 -13 -26 0 -40 12 -29 24 11 11 46 2 51 -11z m-2545 -45 c9 -5 17 -18
17 -29 0 -24 -185 -229 -206 -229 -21 0 -17 92 9 180 17 57 28 77 47 87 25 13
100 8 133 -9z m677 -29 c71 -39 130 -84 130 -100 0 -4 -7 -15 -16 -23 -14 -14
-18 -14 -47 0 -18 9 -48 30 -69 46 -20 15 -54 35 -75 44 -41 18 -53 30 -53 57
0 29 49 20 130 -24z m2952 -31 c39 -67 46 -92 33 -121 -4 -11 -2 -28 5 -42 21
-40 -2 -99 -46 -115 -15 -6 -23 -20 -28 -50 -4 -24 -17 -52 -31 -66 -14 -14
-25 -34 -25 -44 0 -22 -44 -55 -60 -45 -5 3 -10 -2 -10 -14 0 -28 -93 -131
-148 -164 -90 -52 -138 -75 -194 -91 -30 -9 -64 -26 -73 -36 -10 -11 -27 -20
-38 -20 -10 0 -31 -13 -46 -29 -31 -33 -157 -77 -194 -67 -14 3 -29 -2 -43
-15 -55 -51 -271 -99 -448 -99 -132 0 -154 5 -158 34 -2 13 -11 22 -27 24 -19
3 -22 0 -17 -13 4 -11 2 -15 -6 -13 -7 3 -13 13 -13 24 0 19 84 73 116 74 8 0
37 11 65 24 39 19 71 25 154 29 133 7 190 27 317 110 160 105 475 257 534 257
15 0 31 5 34 10 3 6 17 10 31 10 15 0 24 5 22 13 -2 6 9 28 23 47 14 19 45 70
68 113 24 42 53 90 67 106 13 16 24 39 24 50 0 27 59 181 69 181 4 0 23 -28
43 -62z m-6652 9 c0 -15 -52 -91 -69 -102 -31 -18 -17 61 16 97 19 21 53 24
53 5z m5535 -147 c0 -61 -3 -72 -31 -107 -46 -56 -134 -103 -134 -70 0 6 29
72 65 146 62 127 67 134 83 117 13 -12 17 -34 17 -86z m-388 -15 c2 -6 -14
-34 -36 -62 -21 -29 -64 -101 -94 -160 -31 -60 -65 -117 -76 -127 -20 -18 -22
-18 -93 8 -40 14 -102 33 -137 41 -121 31 -181 65 -111 65 29 0 29 0 13 28
-11 19 -14 39 -9 64 11 61 29 69 183 80 130 10 181 20 288 62 43 17 66 17 72
1z m1057 -4 c7 -11 -17 -21 -50 -21 -23 0 -31 10 -17 23 10 10 61 8 67 -2z
m-2883 -16 c40 -21 162 -127 194 -170 l27 -34 -35 -30 c-18 -17 -46 -48 -61
-69 -15 -22 -39 -45 -53 -51 -15 -7 -92 -15 -173 -18 -106 -4 -149 -10 -162
-20 -9 -8 -36 -17 -60 -20 -24 -3 -52 -12 -63 -19 -11 -8 -44 -14 -73 -14 -64
0 -66 -10 19 145 67 125 101 165 167 200 26 14 75 46 110 70 70 49 110 57 163
30z m3094 -37 c-25 -28 -49 -64 -52 -80 -3 -15 -12 -28 -19 -28 -7 0 -22 -10
-34 -22 -16 -17 -23 -19 -32 -10 -19 19 -69 14 -123 -13 -49 -25 -132 -35
-120 -15 3 6 17 10 29 10 24 0 51 22 40 32 -8 9 24 80 49 106 12 13 33 29 47
34 34 14 165 36 218 37 l44 1 -47 -52z m-5692 35 c11 -10 -13 -33 -34 -33 -18
0 -26 20 -12 33 8 9 38 9 46 0z m3540 -17 c106 -14 137 -31 137 -75 0 -45 -26
-71 -69 -71 -52 0 -207 46 -244 72 -30 21 -30 22 -7 30 17 6 21 13 16 32 -7
30 1 37 38 31 17 -3 75 -12 129 -19z m-3510 -41 c-1 -5 -8 -14 -17 -20 -18
-11 -42 7 -31 25 8 13 51 9 48 -5z m6051 -58 c28 -38 34 -142 11 -202 -15 -41
-64 -95 -86 -95 -20 0 -58 49 -70 90 -11 37 -10 49 5 94 10 28 32 73 48 99 35
55 59 59 92 14z m538 2 c33 -44 64 -199 40 -199 -28 0 -92 126 -92 181 0 56
19 63 52 18z m-5962 -104 c17 -9 33 -28 40 -49 6 -19 33 -59 60 -91 28 -31 50
-63 50 -70 0 -24 -53 -77 -70 -70 -20 8 -64 72 -78 112 -6 18 -8 47 -6 65 7
44 -10 88 -35 88 -21 0 -35 13 -24 24 10 10 32 7 63 -9z m5525 -185 c26 -50
20 -138 -15 -206 -37 -75 -253 -321 -309 -352 -44 -25 -216 -72 -263 -72 -16
0 -42 -9 -57 -21 -18 -13 -54 -24 -97 -29 -38 -5 -85 -13 -104 -19 -45 -14
-207 -14 -215 0 -4 5 -19 7 -34 4 -36 -8 -59 16 -35 36 21 18 125 62 254 109
58 21 148 55 200 76 52 20 152 48 223 62 70 14 127 30 127 36 0 5 15 26 34 46
51 53 144 186 182 261 52 105 81 123 109 69z m-1230 -116 c31 -32 1 -51 -82
-53 -49 -1 -57 15 -14 30 16 6 32 17 35 25 7 19 41 18 61 -2z m795 -38 c0 -20
-91 -63 -195 -91 -97 -27 -102 -14 -14 31 26 13 64 35 85 49 42 29 124 36 124
11z m1707 -51 c28 -14 67 -43 86 -64 30 -33 37 -51 52 -132 15 -86 32 -136
117 -364 40 -104 49 -250 23 -340 -31 -108 -130 -278 -180 -311 -45 -29 -95 5
-95 64 0 20 9 83 20 140 12 63 20 146 20 215 1 71 6 127 15 152 20 53 19 69
-6 117 -11 22 -27 72 -35 112 -18 85 -98 244 -131 259 -13 5 -26 19 -29 31 -4
12 -15 29 -25 39 -25 24 -24 72 2 98 18 18 29 20 68 15 25 -3 69 -18 98 -31z
m-2687 10 c0 -19 -24 -29 -46 -21 -13 5 -14 9 -4 21 16 20 50 19 50 0z m-6500
-19 c0 -16 -18 -31 -27 -22 -8 8 5 36 17 36 5 0 10 -6 10 -14z m7025 -176 c-3
-5 -15 -10 -26 -10 -10 0 -19 5 -19 10 0 6 12 10 26 10 14 0 23 -4 19 -10z
m945 -20 c0 -11 -4 -20 -10 -20 -5 0 -10 9 -10 20 0 11 5 20 10 20 6 0 10 -9
10 -20z m-170 -169 c0 -28 -209 -123 -313 -142 -34 -6 -69 -15 -77 -20 -88
-54 -275 -86 -344 -59 -37 14 -33 33 4 25 23 -5 32 -3 36 10 5 12 14 14 34 10
16 -3 31 -2 35 4 10 17 103 39 215 51 114 12 282 62 354 105 44 27 56 30 56
16z m166 -90 c-30 -43 -68 -80 -108 -106 -47 -29 -31 0 26 49 30 25 65 63 77
83 13 20 25 31 27 24 2 -6 -8 -29 -22 -50z m-5036 -3 c28 -29 23 -101 -8 -146
-15 -20 -22 -45 -22 -77 0 -65 -23 -54 -33 16 -15 97 4 229 33 229 5 0 19 -10
30 -22z m5905 -28 c7 -11 -38 -60 -55 -60 -16 0 -12 31 7 52 18 20 38 23 48 8z
m-912 -151 c-4 -27 -2 -44 7 -49 17 -10 -22 -50 -49 -50 -13 0 -18 -5 -15 -18
3 -10 -12 -40 -36 -72 -23 -30 -55 -79 -72 -108 -31 -55 -69 -88 -88 -77 -5 3
-10 22 -10 41 0 43 -19 80 -59 117 -17 16 -34 40 -37 53 -6 23 -7 24 -35 7
-35 -21 -47 -11 -25 22 26 40 56 54 186 86 67 16 148 43 179 59 31 16 57 29
58 30 0 0 -1 -18 -4 -41z m-833 -131 c25 -44 62 -103 82 -131 24 -32 41 -69
49 -106 6 -31 24 -85 40 -120 44 -97 29 -99 -84 -15 -71 53 -106 60 -226 46
-103 -12 -126 -25 -162 -92 -16 -30 -18 -32 -19 -12 0 38 249 512 270 512 3 0
25 -37 50 -82z m-6964 6 c-4 -13 -11 -24 -16 -24 -14 0 -13 33 2 67 11 28 12
28 16 4 2 -12 1 -34 -2 -47z m6424 -49 c-12 -15 -40 -21 -40 -8 0 3 8 15 17
25 21 23 43 7 23 -17z m2447 -36 c7 -13 20 -23 28 -21 14 3 15 0 3 -20 -9 -17
-13 -67 -11 -183 0 -88 3 -176 5 -195 4 -44 -20 -48 -41 -6 -7 16 -26 33 -41
39 -16 6 -33 22 -39 35 -6 13 -26 41 -43 63 -27 34 -32 48 -32 92 0 29 4 66 8
82 8 27 9 28 16 10 5 -11 9 -35 9 -54 1 -20 13 -54 30 -80 16 -25 32 -56 36
-68 17 -59 25 -11 25 150 0 96 3 177 7 181 11 11 27 1 40 -25z m-121 -44 c-7
-18 -26 -20 -26 -2 0 18 24 41 28 27 2 -6 1 -17 -2 -25z m-91 -129 c0 -67 -3
-80 -19 -90 -11 -6 -28 -19 -38 -28 -24 -24 -25 -24 -38 18 -16 47 -9 85 30
170 l31 69 17 -30 c11 -21 17 -55 17 -109z m-879 89 c11 -44 -1 -154 -18 -171
-28 -29 -48 -10 -48 44 0 102 49 196 66 127z m-456 -106 c0 -32 -19 -59 -40
-59 -25 0 -25 6 3 47 25 38 37 42 37 12z m-6510 -204 c-9 -11 -16 -13 -23 -6
-7 7 -6 15 3 26 9 11 16 13 23 6 7 -7 6 -15 -3 -26z m6195 -27 c106 -134 149
-207 130 -226 -19 -19 -322 -12 -355 8 -13 8 -12 13 6 31 12 11 37 24 55 28
24 5 34 12 34 26 0 25 -46 37 -114 30 -59 -6 -90 -19 -109 -47 -11 -15 -21
-17 -49 -12 -32 6 -35 5 -29 -13 4 -12 1 -25 -9 -33 -13 -11 -15 -9 -15 14 0
35 -28 34 -36 -1 -4 -16 -12 -31 -18 -35 -6 -4 -69 -8 -139 -8 -146 0 -151 5
-71 58 65 43 264 143 339 171 79 29 227 59 290 59 48 1 51 -1 90 -50z m956 17
c15 -76 180 -351 236 -395 32 -25 48 -25 80 0 35 27 68 25 133 -10 35 -19 70
-30 95 -30 44 0 85 -22 85 -46 0 -30 -61 -76 -172 -129 -151 -71 -193 -84
-301 -91 -51 -3 -123 -12 -162 -19 -77 -16 -221 -27 -640 -50 -543 -29 -609
-35 -726 -59 -64 -14 -154 -38 -200 -54 -175 -61 -208 -71 -351 -105 -138 -32
-148 -33 -148 -15 0 27 -17 22 -32 -9 -9 -19 -24 -29 -47 -34 -18 -4 -46 -17
-62 -28 -22 -17 -37 -20 -63 -16 -22 5 -44 1 -65 -10 -45 -23 -136 -50 -290
-85 -74 -17 -143 -36 -153 -41 -11 -6 -76 -15 -146 -20 -117 -10 -133 -14
-207 -49 -78 -38 -238 -90 -276 -90 -11 0 -30 -6 -42 -14 -12 -8 -62 -22 -112
-31 -49 -9 -103 -20 -120 -25 -16 -5 -80 -14 -140 -20 -61 -5 -151 -19 -201
-30 -49 -10 -127 -22 -173 -26 -70 -6 -86 -4 -95 8 -6 9 -20 17 -30 19 -10 2
-24 12 -30 22 -14 23 11 44 63 53 48 8 91 24 91 35 0 16 -49 29 -113 29 -57 1
-60 2 -42 16 15 11 17 18 9 31 -13 21 -36 29 -32 12 4 -18 -59 -49 -99 -49
-27 0 -37 -7 -59 -40 -25 -38 -26 -41 -10 -58 22 -25 20 -30 -11 -34 -14 -2
-29 -9 -31 -17 -3 -10 1 -12 17 -8 37 9 34 -13 -9 -56 -38 -38 -43 -40 -55
-24 -15 21 -25 22 -25 3 0 -17 -24 -28 -45 -20 -23 9 -18 64 10 109 13 22 25
50 25 63 0 12 5 22 11 22 11 0 9 30 -6 78 -9 27 11 29 78 6 51 -17 77 -9 77
25 0 13 -7 17 -28 13 -19 -2 -33 3 -46 17 -11 12 -17 23 -15 25 2 3 198 10
434 16 574 14 655 22 860 80 61 17 200 49 310 71 282 57 412 89 635 157 107
33 220 65 250 72 69 16 139 46 165 70 11 10 40 21 65 25 25 4 104 25 175 47
167 50 286 68 460 69 77 0 163 5 190 11 28 6 145 14 260 19 116 5 271 13 345
20 235 19 434 17 522 -5 70 -18 78 -18 101 -3 27 18 87 103 87 124 0 11 -7 9
-29 -6 -40 -29 -71 -26 -120 10 -34 24 -58 32 -124 39 -45 6 -116 10 -158 10
-115 0 -349 -47 -349 -71 0 -18 -48 -59 -70 -59 -13 0 -24 9 -30 25 -11 29
-53 34 -84 10 -30 -23 -62 -18 -101 16 l-35 31 0 -25 c0 -19 -7 -27 -27 -32
-16 -4 -158 -11 -318 -15 -159 -4 -310 -12 -335 -18 -25 -6 -124 -18 -220 -27
-197 -18 -327 -36 -478 -65 -56 -11 -148 -23 -205 -26 -56 -4 -114 -13 -129
-20 -35 -18 -246 -37 -362 -32 -70 2 -92 0 -89 -9 9 -24 -46 -26 -110 -5 -56
19 -67 20 -112 8 -28 -8 -132 -19 -230 -25 -325 -21 -460 -44 -493 -84 -16
-19 -13 -48 6 -55 7 -2 10 2 6 11 -4 11 6 16 38 20 27 4 49 14 60 27 14 18 34
24 96 31 82 9 178 0 175 -16 -1 -6 -21 -15 -45 -20 -34 -9 -39 -12 -24 -18 33
-13 7 -22 -77 -27 -63 -5 -89 -11 -112 -28 -17 -12 -70 -32 -118 -44 -77 -20
-89 -21 -97 -8 -8 13 -15 13 -58 -3 -28 -9 -58 -17 -68 -17 -16 1 -15 4 9 25
37 33 72 41 114 26 27 -10 37 -10 48 -1 23 19 18 30 -20 46 -39 16 -115 19
-115 4 0 -5 -16 -10 -35 -10 -19 0 -35 -4 -35 -10 0 -5 -20 -10 -44 -10 -25 0
-47 -4 -50 -8 -3 -5 -64 -8 -136 -7 -123 2 -130 1 -125 -16 8 -24 -17 -26 -35
-3 -26 30 -50 37 -70 19 -12 -10 -26 -14 -39 -10 -16 5 -22 1 -27 -19 -6 -24
-10 -26 -64 -26 -72 0 -113 14 -171 59 -26 20 -55 41 -65 47 -15 9 5 13 96 18
205 12 340 34 590 96 135 33 327 74 427 91 101 16 252 47 337 69 85 21 215 48
291 59 75 12 162 27 193 35 88 23 189 34 402 46 236 13 352 26 439 51 86 25
239 37 611 49 168 5 357 16 420 25 63 8 212 19 330 25 256 12 298 21 329 68
l22 33 20 -25 c25 -32 59 -33 132 -6 80 30 130 77 156 149 32 88 108 143 191
138 29 -2 35 -6 41 -32z m-6923 8 c-10 -2 -26 -2 -35 0 -10 3 -2 5 17 5 19 0
27 -2 18 -5z m6616 -55 c3 -13 7 -36 10 -53 2 -16 8 -38 11 -47 10 -26 -24
-36 -41 -13 -14 19 -19 116 -7 128 12 13 23 7 27 -15z m-6560 -18 c67 -25 106
-55 106 -81 0 -23 -8 -24 -34 -4 -26 19 -62 19 -70 0 -3 -9 -18 -15 -38 -15
-29 1 -31 2 -14 12 17 10 16 12 -13 24 -24 10 -31 19 -31 42 0 49 13 52 94 22z
m-174 -15 c0 -17 -35 -28 -76 -23 l-29 3 35 17 c43 22 70 23 70 3z m8351 -89
c38 -103 92 -191 157 -259 58 -60 110 -88 181 -98 63 -9 101 -39 101 -80 0
-37 -18 -45 -110 -52 -64 -4 -132 -21 -212 -52 -14 -6 -19 2 -29 39 -14 56
-26 66 -35 29 -8 -31 -22 -53 -35 -53 -5 0 -7 10 -4 23 4 13 -1 43 -10 68 -9
24 -24 64 -33 89 -10 25 -27 55 -39 67 -13 14 -24 40 -28 70 -3 26 -10 72 -15
102 -6 30 -10 67 -10 81 0 29 70 134 81 122 4 -4 21 -47 40 -96z m-7591 42 c0
-4 -10 -8 -22 -8 -21 -1 -21 -2 -5 -11 22 -13 22 -39 0 -39 -26 0 -53 30 -53
60 0 15 3 29 6 33 8 7 74 -24 74 -35z m-1012 -16 c4 -47 -18 -96 -49 -112 -48
-26 -63 14 -30 85 21 47 48 77 65 72 6 -2 12 -22 14 -45z m1115 41 c-7 -2 -21
-2 -30 0 -10 3 -4 5 12 5 17 0 24 -2 18 -5z m-992 -78 c19 -36 21 -47 11 -57
-19 -19 -43 1 -75 62 -19 38 -24 56 -15 61 18 11 54 -18 79 -66z m734 -5 c4
-6 -7 -10 -25 -10 -18 0 -29 4 -25 10 3 6 15 10 25 10 10 0 22 -4 25 -10z
m-101 -9 c7 -11 -22 -23 -35 -15 -5 3 -9 9 -9 15 0 12 37 12 44 0z m-1456 -24
c2 -12 -3 -17 -17 -17 -12 0 -21 6 -21 13 0 31 32 34 38 4z m116 -43 c18 -17
21 -44 6 -44 -11 0 -13 -39 -4 -65 6 -14 11 -12 35 11 16 15 29 22 29 15 0
-18 -26 -66 -45 -81 -15 -12 -19 -12 -31 5 -8 10 -14 29 -14 41 0 12 -7 25
-16 28 -12 5 -15 14 -10 36 4 23 0 36 -14 50 -20 20 -20 20 14 20 19 0 42 -7
50 -16z m1016 -11 c36 -21 72 -85 68 -121 l-3 -27 -33 33 c-19 17 -35 32 -37
32 -1 0 1 -17 6 -37 8 -36 -4 -174 -17 -195 -3 -5 -14 4 -25 21 -52 85 -221
32 -366 -116 -56 -56 -79 -73 -100 -73 -34 0 -93 34 -93 54 0 8 24 28 54 44
29 17 82 54 117 83 83 70 157 119 178 119 29 0 89 59 117 116 40 82 77 101
134 67z m395 -32 c132 -25 165 -26 212 -6 62 26 81 -19 47 -105 -21 -53 -39
-62 -89 -43 -99 36 -133 43 -220 43 -51 0 -116 -5 -145 -10 -66 -13 -82 -1
-98 71 -20 87 -25 83 86 76 53 -4 147 -15 207 -26z m-1525 -11 c0 -11 -48 -25
-56 -17 -4 3 -3 10 1 16 8 14 55 14 55 1z m-120 -74 c-7 -9 -17 -16 -22 -16
-16 0 -21 30 -7 46 11 13 14 13 27 0 13 -12 13 -18 2 -30z m2154 -96 c36 -41
66 -80 66 -87 0 -20 -36 -15 -51 7 -9 13 -30 23 -54 27 -56 8 -65 24 -65 112
l0 76 19 -30 c10 -16 48 -64 85 -105z m-2159 19 c39 -34 45 -59 16 -59 -23 0
-61 45 -61 71 0 25 3 24 45 -12z m219 -15 c9 -24 7 -64 -3 -64 -11 0 -21 25
-21 56 0 27 15 32 24 8z m1467 -74 c29 -6 64 -18 78 -27 14 -10 34 -16 45 -14
11 1 16 -2 12 -8 -10 -15 -37 -14 -81 4 -40 18 -80 11 -71 -11 7 -19 -2 -18
-63 7 -54 23 -66 45 -28 52 39 8 53 7 108 -3z m314 -40 c17 -7 34 -27 50 -62
42 -89 38 -95 -89 -123 -38 -8 -89 -24 -114 -35 -51 -23 -73 -25 -69 -7 1 6
-5 12 -13 12 -8 0 -16 -10 -18 -23 -4 -29 -44 -45 -93 -37 -36 6 -159 59 -159
69 0 2 30 14 68 27 86 28 139 55 180 90 40 35 119 76 169 88 52 12 58 12 88 1z
m-1547 -98 c3 -19 -1 -23 -15 -20 -10 2 -19 14 -21 26 -3 19 1 23 15 20 10 -2
19 -14 21 -26z m2110 11 c2 -8 -5 -13 -17 -13 -12 0 -21 6 -21 16 0 18 31 15
38 -3z m37 -68 c0 -27 -18 -28 -49 -4 -19 15 -24 24 -16 29 21 13 65 -5 65
-25z m7468 6 c108 -28 218 -76 265 -116 47 -41 69 -109 55 -166 -9 -32 -12
-34 -54 -37 -70 -4 -89 -11 -99 -37 -7 -18 -17 -25 -35 -25 -15 0 -34 -7 -43
-16 -21 -21 -104 -14 -132 11 -19 17 -22 17 -77 -8 -56 -25 -109 -40 -185 -52
-23 -3 -42 -14 -52 -30 -21 -33 -36 -32 -36 2 0 14 -7 35 -17 45 -14 15 -14
24 -5 57 7 21 12 46 12 56 0 10 17 41 39 69 21 28 41 63 44 77 11 45 66 109
110 128 23 11 48 28 55 40 16 27 54 27 155 2z m-9902 -13 c2 -18 -2 -42 -7
-48 -7 -7 -24 23 -24 43 0 19 29 24 31 5z m-211 -17 c0 -6 -10 -17 -22 -26
-26 -17 -37 -3 -18 20 14 17 40 20 40 6z m8495 -31 c0 -18 -43 -26 -57 -12
-16 16 2 33 30 30 16 -2 27 -9 27 -18z m700 10 c3 -5 -1 -30 -10 -55 -8 -25
-15 -53 -15 -61 0 -27 24 -9 34 24 10 36 29 41 64 16 14 -9 22 -26 22 -43 0
-16 12 -46 27 -67 20 -30 28 -56 32 -111 7 -77 14 -94 33 -75 20 20 28 14 28
-24 0 -42 15 -38 24 7 8 43 15 34 32 -48 16 -78 41 -146 96 -256 22 -43 37
-84 36 -89 -2 -6 -21 12 -42 41 -26 35 -48 54 -67 58 -18 3 -29 12 -29 22 0
17 -18 41 -31 41 -4 0 -9 -12 -11 -27 -2 -14 -9 -28 -16 -31 -7 -2 -10 2 -6
11 3 8 1 18 -5 22 -6 3 -11 14 -11 23 0 14 -9 17 -47 14 -59 -3 -178 36 -178
58 0 18 53 29 143 29 36 1 62 5 62 12 0 17 -102 120 -149 151 -52 33 -114 38
-129 11 -7 -11 -30 -19 -72 -24 -43 -5 -77 -17 -112 -38 -28 -18 -53 -30 -55
-27 -11 10 8 56 22 56 9 0 18 13 22 31 3 17 27 54 53 82 25 29 73 88 104 132
94 128 133 164 151 135z m-4431 -9 c8 -12 -18 -21 -61 -21 -42 0 -38 9 9 20
46 11 46 11 52 1z m-2094 -11 c0 -5 -12 -10 -27 -10 -22 0 -25 2 -13 10 20 13
40 13 40 0z m-330 -32 c12 -23 12 -28 0 -43 -13 -16 -15 -15 -27 11 -26 62 -5
87 27 32z m-1709 -11 c19 -12 35 -30 37 -40 5 -24 -71 -102 -91 -94 -16 6 -39
43 -51 83 -8 25 27 74 53 74 10 0 33 -10 52 -23z m3652 16 c-7 -2 -21 -2 -30
0 -10 3 -4 5 12 5 17 0 24 -2 18 -5z m-1436 -54 c-8 -62 -27 -74 -27 -18 0 46
5 59 23 59 6 0 7 -18 4 -41z m2523 21 c0 -15 -67 -56 -135 -84 -64 -26 -213
-57 -305 -63 -30 -2 -69 -11 -87 -19 -18 -8 -63 -14 -110 -14 -43 -1 -96 -7
-118 -15 -22 -8 -52 -15 -67 -15 -15 0 -60 -7 -100 -15 -170 -36 -335 -42
-325 -11 7 23 82 49 293 102 119 30 236 63 260 74 23 11 54 20 68 20 14 0 43
7 63 15 21 8 76 19 123 24 122 12 440 13 440 1z m1998 -6 c18 -12 22 -25 22
-67 0 -59 32 -203 55 -247 18 -36 15 -36 -61 -9 -37 13 -95 23 -156 26 -91 5
-99 4 -142 -21 -52 -30 -98 -33 -175 -10 -41 12 -56 22 -69 47 -9 17 -29 42
-44 56 -16 14 -28 31 -28 37 0 20 98 121 123 127 12 3 60 11 107 17 47 5 128
21 180 34 114 29 158 31 188 10z m-5912 -35 c40 -39 46 -59 27 -98 -16 -31
-68 -71 -95 -71 -23 0 -100 -59 -105 -81 -3 -11 -17 -22 -32 -26 -43 -10 -81
-32 -128 -76 -43 -40 -46 -41 -71 -26 -62 35 -36 76 113 179 119 82 142 106
151 159 3 20 13 47 21 60 13 20 21 22 51 18 20 -4 49 -19 68 -38z m1195 32
c-8 -5 -20 -7 -28 -4 -21 8 -15 13 15 13 20 0 23 -3 13 -9z m5314 -1 c-3 -5
-15 -10 -26 -10 -10 0 -19 5 -19 10 0 6 12 10 26 10 14 0 23 -4 19 -10z
m-6200 -30 c0 -9 -11 -16 -27 -18 -30 -4 -36 6 -16 26 16 16 43 11 43 -8z
m6313 -2 c2 -11 -6 -22 -23 -30 -21 -9 -29 -9 -42 4 -9 9 -13 24 -9 33 8 23
70 17 74 -7z m-5933 3 c7 -12 -34 -41 -57 -41 -18 0 -25 29 -11 43 10 10 61 8
68 -2z m235 -11 c16 -30 40 -163 40 -220 0 -43 -17 -80 -37 -80 -34 0 -110 87
-100 114 4 11 0 12 -23 3 -23 -9 -42 -7 -97 11 -97 32 -209 30 -281 -3 -30
-14 -60 -25 -68 -25 -21 0 -34 34 -34 93 l0 55 193 5 c155 4 208 9 272 27 44
12 87 26 95 31 22 13 28 11 40 -11z m1440 -70 c0 -5 -10 -18 -22 -30 l-22 -20
35 0 c19 0 44 -6 54 -14 18 -13 18 -14 -8 -40 -52 -52 -172 -18 -172 49 0 25
4 30 29 32 15 1 38 9 50 17 24 17 56 21 56 6z m2836 -37 c55 -55 114 -133 114
-152 0 -23 -48 -68 -82 -76 -18 -5 -37 -1 -57 11 -37 22 -51 49 -21 39 29 -9
25 4 -19 60 -105 134 -107 140 -39 154 46 10 65 3 104 -36z m1261 30 c46 -22
51 -39 19 -72 -14 -15 -26 -32 -26 -38 0 -23 -32 -43 -68 -43 -66 0 -82 9 -82
44 0 18 -5 37 -12 44 -14 14 3 37 47 64 37 22 77 23 122 1z m-4291 -31 c5 -4
19 -26 31 -49 l20 -43 -23 0 c-12 0 -26 -4 -29 -10 -10 -17 -25 -11 -34 12 -8
22 -9 22 -24 -9 -25 -47 -35 -49 -73 -12 -36 35 -44 55 -18 45 11 -4 22 1 31
14 8 11 23 20 33 20 11 0 24 9 30 20 11 20 36 26 56 12z m-2017 -68 c16 -35
41 -64 53 -64 5 0 6 20 2 45 -3 25 -2 45 3 45 22 0 57 -37 79 -84 41 -89 35
-97 -81 -95 -63 1 -71 -1 -85 -22 -28 -44 -84 -89 -111 -89 -46 0 -119 30
-119 50 0 21 41 50 71 50 63 0 119 61 134 145 4 22 10 44 12 48 8 14 28 1 42
-29z m-1349 -89 c0 -14 -4 -25 -10 -25 -5 0 -10 11 -10 25 0 14 5 25 10 25 6
0 10 -11 10 -25z m7563 14 c40 -11 45 -20 22 -39 -25 -21 -165 12 -165 39 0
14 94 14 143 0z m-28 -73 c41 -17 45 -33 11 -42 -25 -6 -74 14 -95 40 -12 14
-9 16 18 16 17 0 47 -7 66 -14z m-7516 -91 c0 -49 -13 -24 -22 45 -7 43 -6 44
8 20 8 -14 14 -43 14 -65z m2707 50 c19 -14 19 -14 -2 -15 -12 0 -27 7 -34 15
-17 20 9 21 36 0z m165 -15 c22 -12 24 -32 7 -60 -11 -17 -10 -22 2 -31 24
-16 -24 -49 -71 -49 -49 0 -52 20 -9 71 31 38 30 48 -4 50 -17 0 -16 3 9 14
37 17 41 18 66 5z m7137 -7 c24 -21 82 -102 82 -115 0 -23 -121 7 -172 44 -15
10 -27 24 -25 31 1 7 -8 11 -25 9 -40 -5 -34 6 15 28 53 24 99 25 125 3z
m-1697 -32 c-11 -21 -47 -67 -80 -102 -47 -49 -63 -61 -73 -51 -18 18 4 51 83
127 77 75 98 83 70 26z m-1004 -38 c115 -98 316 -186 535 -234 131 -29 136
-31 165 -96 57 -129 134 -335 131 -351 -4 -23 -49 -28 -61 -7 -12 23 -126 95
-149 95 -22 0 -41 43 -33 71 5 15 1 19 -19 19 -15 0 -30 8 -36 19 -5 11 -20
21 -32 23 -18 2 -24 11 -26 36 -3 28 -7 32 -32 32 -25 0 -36 10 -77 72 -37 56
-55 74 -79 80 -17 4 -37 15 -44 23 -7 8 -19 15 -27 15 -8 0 -33 13 -56 28 -23
16 -75 46 -115 68 -41 22 -70 44 -68 50 3 7 -11 30 -30 52 -29 34 -45 72 -30
72 3 0 40 -30 83 -67z m-6677 18 c17 -32 12 -48 -18 -54 -15 -3 -53 -28 -85
-56 -32 -28 -62 -51 -68 -51 -22 0 -5 32 56 103 68 79 96 93 115 58z m2340
-70 c0 -32 -24 -59 -35 -41 -8 13 13 70 26 70 5 0 9 -13 9 -29z m-2580 3 c0
-2 -12 -4 -27 -4 -21 0 -24 3 -14 9 13 8 41 5 41 -5z m1560 -11 c0 -58 -20
-93 -33 -59 -7 19 11 86 23 86 6 0 10 -12 10 -27z m-895 -6 c24 -18 11 -41
-16 -27 -10 6 -19 17 -19 25 0 19 11 19 35 2z m7973 -32 c102 -25 172 -68 172
-108 0 -11 -14 -63 -31 -116 -18 -57 -33 -128 -36 -174 -7 -87 -15 -102 -71
-116 -61 -16 -247 -31 -384 -31 -144 0 -182 12 -231 70 -44 52 -53 99 -35 183
34 153 90 256 154 283 20 8 61 19 92 24 78 12 294 4 370 -15z m-6998 6 c0 -5
-6 -14 -14 -20 -16 -13 -32 2 -21 19 8 12 35 13 35 1z m50 -41 c0 -11 -4 -20
-10 -20 -5 0 -10 9 -10 20 0 11 5 20 10 20 6 0 10 -9 10 -20z m-976 -20 c8 -9
-4 -25 -49 -67 l-60 -55 -3 57 c-4 72 9 89 61 82 22 -3 45 -11 51 -17z m7081
-67 c10 -32 28 -62 46 -78 37 -30 43 -31 68 -6 19 19 19 18 23 -82 4 -113 19
-157 73 -212 43 -43 119 -77 180 -81 27 -1 69 -7 92 -12 30 -6 103 -4 245 9
217 20 258 19 258 -11 0 -29 -58 -72 -196 -146 -126 -67 -131 -68 -204 -69
-67 0 -79 3 -111 28 -20 15 -45 27 -56 27 -12 0 -23 6 -26 14 -3 7 -25 16 -49
19 -30 4 -47 13 -58 29 -22 36 -90 98 -116 108 -15 6 -24 18 -24 30 0 27 -26
77 -100 191 -68 106 -103 189 -94 223 3 13 1 27 -5 30 -15 9 -14 39 1 54 17
17 32 -1 53 -65z m1265 -44 c0 -14 -55 -69 -69 -69 -17 0 -13 10 15 47 24 32
54 44 54 22z m-7140 -25 c0 -13 -21 -42 -34 -47 -25 -10 -28 11 -6 33 19 19
40 27 40 14z m4150 -28 c0 -18 -17 -29 -30 -21 -8 5 -7 11 1 21 15 18 29 18
29 0z m-6760 -53 c0 -5 -4 -14 -9 -22 -11 -17 -32 -5 -24 14 5 15 33 21 33 8z
m9619 -30 c5 -10 10 -52 12 -93 4 -71 3 -75 -18 -78 -36 -5 -63 31 -63 84 0
77 44 133 69 87z m-2819 1 c0 -13 -21 -44 -30 -44 -14 0 -12 24 2 38 13 13 28
16 28 6z m-4200 -55 c0 -16 -29 -22 -45 -9 -22 19 0 43 26 29 10 -5 19 -14 19
-20z m-2362 -12 c2 -10 1 -31 -3 -45 l-7 -27 -13 32 c-7 17 -23 34 -34 38 -31
10 -14 27 22 23 21 -2 33 -9 35 -21z m2524 -4 c21 -24 29 -55 19 -72 -7 -11
-15 -11 -45 -1 -47 15 -52 26 -16 34 41 8 38 26 -5 26 -33 0 -43 8 -28 23 13
13 60 7 75 -10z m-2540 -337 c-3 -5 -11 -1 -19 9 -14 20 -18 160 -6 205 5 17
11 -12 19 -90 6 -63 9 -119 6 -124z m2648 150 c0 -19 1 -19 23 2 13 12 26 22
30 22 13 0 47 -64 47 -88 0 -21 -3 -23 -31 -17 -29 7 -31 5 -24 -16 l6 -24
-21 25 c-12 14 -28 33 -36 43 -8 10 -19 15 -24 12 -11 -7 -14 54 -3 81 6 16 7
16 20 -2 7 -10 13 -27 13 -38z m7510 -213 c0 -5 -5 -15 -10 -23 -7 -11 -12
-12 -21 -3 -6 6 -8 16 -5 22 8 12 36 15 36 4z m-3644 -25 c10 -16 -36 -52 -49
-39 -7 7 -5 17 8 31 21 23 31 25 41 8z"/>
<path d="M3774 12517 c-11 -30 53 -114 72 -94 10 10 -14 62 -42 88 -21 19 -24
20 -30 6z"/>
<path d="M3445 12470 c-19 -36 -19 -40 0 -40 18 0 49 45 40 60 -11 17 -24 11
-40 -20z"/>
<path d="M3845 12387 c-8 -19 7 -76 20 -80 17 -4 18 68 1 82 -13 11 -17 11
-21 -2z"/>
<path d="M3938 12268 c26 -29 46 -108 38 -152 -5 -28 -12 -35 -34 -38 -25 -3
-27 -6 -25 -48 4 -83 14 -130 30 -130 7 0 25 -12 39 -27 30 -32 42 -23 26 20
-16 45 -15 55 8 84 41 52 14 216 -45 279 -18 19 -38 34 -45 34 -9 0 -6 -8 8
-22z m72 -262 c0 -14 -24 -29 -33 -19 -3 3 -3 11 0 19 7 18 33 18 33 0z"/>
<path d="M3000 12096 c0 -31 58 -64 132 -76 90 -14 136 -28 140 -42 5 -14 99
-22 117 -9 13 8 13 12 0 27 -22 26 -149 84 -173 79 -12 -3 -52 4 -91 15 -83
24 -125 26 -125 6z"/>
<path d="M3740 11990 c-13 -9 -13 -11 0 -20 8 -5 17 -10 20 -10 3 0 12 5 20
10 13 9 13 11 0 20 -8 5 -17 10 -20 10 -3 0 -12 -5 -20 -10z"/>
<path d="M3455 11950 c19 -21 55 -27 55 -10 0 12 -33 30 -56 30 -16 0 -16 -1
1 -20z"/>
<path d="M4021 11775 c-24 -48 -22 -72 9 -100 23 -21 26 -10 10 44 -12 43 -7
48 26 27 14 -10 27 -16 29 -14 5 6 -34 88 -43 88 -5 0 -19 -20 -31 -45z"/>
<path d="M2218 11753 c-33 -62 -34 -73 -8 -73 27 0 42 33 38 83 l-3 42 -27
-52z"/>
<path d="M4175 11588 c12 -38 39 -80 62 -95 37 -25 34 2 -8 61 -42 58 -65 73
-54 34z"/>
<path d="M4391 11557 c9 -7 19 -28 22 -47 14 -90 131 -465 153 -490 7 -9 23
-37 34 -62 11 -26 25 -50 30 -53 24 -15 0 175 -40 318 -11 39 -20 89 -20 109
0 54 -52 104 -63 61 -3 -14 -8 -9 -19 16 -9 19 -14 40 -11 47 2 7 -4 21 -14
32 -10 10 -26 33 -35 50 -10 18 -25 32 -35 32 -16 -1 -16 -2 -2 -13z"/>
<path d="M3770 11526 c0 -24 11 -48 34 -79 29 -37 31 -45 18 -53 -29 -19 -3
-35 43 -28 38 5 46 3 66 -20 12 -14 31 -26 41 -26 10 0 18 -7 18 -16 0 -10 5
-14 15 -10 11 4 23 -6 37 -30 23 -39 38 -34 39 12 1 53 -13 94 -35 106 -11 6
-54 37 -95 70 -62 50 -157 108 -176 108 -3 0 -5 -15 -5 -34z"/>
<path d="M4227 11453 c-4 -3 -7 -14 -7 -22 0 -21 87 -151 101 -151 16 0 1 56
-32 123 -27 52 -45 67 -62 50z"/>
<path d="M4344 11407 c-9 -23 59 -197 92 -236 16 -19 21 -35 17 -51 -4 -16 -3
-21 5 -16 30 18 1 147 -48 214 -16 23 -30 48 -30 55 0 7 -6 22 -14 33 -14 18
-15 18 -22 1z"/>
<path d="M4412 11365 c12 -27 28 -34 28 -12 0 14 -20 37 -32 37 -4 0 -2 -11 4
-25z"/>
<path d="M4612 11335 c0 -16 2 -22 5 -12 2 9 2 23 0 30 -3 6 -5 -1 -5 -18z"/>
<path d="M2551 11271 c-27 -27 -41 -63 -41 -102 0 -46 18 -34 52 36 24 47 29
68 21 76 -8 8 -17 5 -32 -10z"/>
<path d="M3983 11223 c-7 -2 -13 -9 -13 -14 0 -15 53 -6 58 9 4 12 -21 15 -45
5z"/>
<path d="M3133 11173 c-18 -6 -16 -33 1 -33 15 0 30 27 18 33 -4 3 -13 2 -19
0z"/>
<path d="M2280 11127 c0 -30 24 -64 34 -49 6 11 -19 72 -29 72 -3 0 -5 -10 -5
-23z"/>
<path d="M3537 11090 c-63 -12 -213 -127 -297 -227 -24 -29 -50 -53 -58 -53
-19 0 -132 -110 -132 -129 0 -9 -21 -50 -46 -91 -24 -41 -47 -86 -51 -100 -10
-40 -41 -97 -57 -103 -20 -8 -33 11 -46 67 -12 57 -4 94 46 203 19 42 34 91
34 109 0 25 7 38 26 50 14 10 23 23 20 31 -3 8 4 37 15 64 12 27 19 52 17 55
-3 2 -29 -12 -59 -33 -53 -36 -57 -37 -159 -41 -58 -2 -111 -8 -117 -14 -7 -6
-13 -23 -13 -38 0 -21 -6 -29 -24 -34 -13 -3 -39 -20 -57 -38 l-34 -33 28 -3
c15 -2 27 -7 27 -12 0 -5 -12 -16 -27 -24 -16 -8 -36 -28 -46 -45 -19 -33 -13
-39 16 -16 11 7 25 11 32 9 8 -3 21 6 30 20 21 31 35 33 35 6 0 -11 9 -25 20
-32 23 -15 26 -41 6 -57 -29 -24 -57 -110 -54 -164 l3 -51 48 -17 c26 -10 69
-31 96 -49 l49 -31 60 30 c33 17 62 27 66 24 3 -4 6 -18 6 -32 0 -31 46 -114
88 -159 31 -33 69 -44 58 -17 -8 21 10 64 30 72 10 3 29 -7 52 -29 59 -57 112
-76 112 -41 0 13 6 11 28 -10 22 -21 48 -31 113 -43 46 -9 92 -20 101 -25 13
-7 20 -3 30 18 16 34 44 38 40 6 -3 -18 2 -23 18 -23 30 0 100 38 100 55 0 22
19 28 51 15 27 -11 31 -10 49 13 11 14 36 35 55 47 19 12 38 33 41 46 3 13 10
24 15 24 5 0 9 9 9 19 0 10 7 22 16 25 8 3 12 11 8 17 -3 6 2 23 13 37 11 15
27 45 35 68 19 48 50 192 44 202 -2 4 -9 42 -15 85 -13 90 -53 179 -106 232
-20 19 -44 35 -55 35 -10 0 -35 15 -54 34 -20 18 -63 43 -96 55 -59 22 -72 34
-47 44 19 8 -93 6 -136 -3z m-717 -239 c0 -21 -65 -81 -87 -81 -17 0 -16 6 3
35 9 14 14 31 11 39 -8 20 1 26 40 26 26 0 33 -4 33 -19z m679 -295 c10 -12 7
-18 -14 -32 -47 -31 -173 -3 -144 32 16 20 142 19 158 0z m184 -17 c14 -22 0
-69 -20 -69 -39 0 -73 70 -40 84 21 9 50 2 60 -15z"/>
<path d="M3225 11035 c-25 -24 -32 -45 -17 -45 9 0 44 36 56 58 12 21 -14 13
-39 -13z"/>
<path d="M4672 11038 c-14 -14 -16 -38 -3 -38 15 0 30 25 22 38 -5 9 -10 9
-19 0z"/>
<path d="M3060 11015 c-9 -11 -10 -19 -3 -26 7 -7 14 -5 23 6 9 11 10 19 3 26
-7 7 -14 5 -23 -6z"/>
<path d="M2372 10978 c5 -15 58 -24 58 -10 0 11 -24 22 -47 22 -8 0 -13 -6
-11 -12z"/>
<path d="M1492 10853 c-12 -88 -2 -118 36 -108 15 3 35 14 46 24 18 18 17 20
-3 67 -22 48 -48 84 -61 84 -4 0 -12 -30 -18 -67z m68 -28 c10 -13 9 -15 -9
-15 -12 0 -21 6 -21 15 0 8 4 15 9 15 5 0 14 -7 21 -15z"/>
<path d="M2350 10829 c0 -24 23 -21 28 4 2 10 -3 17 -12 17 -10 0 -16 -9 -16
-21z"/>
<path d="M1567 10732 c-21 -23 -24 -139 -4 -166 13 -17 15 -17 35 9 30 38 58
134 45 154 -15 23 -56 25 -76 3z"/>
<path d="M2370 10727 c0 -11 -8 -17 -21 -17 -11 0 -27 -7 -35 -15 -21 -21 -35
-19 -41 5 -7 26 -15 25 -54 -7 -38 -33 -59 -79 -59 -133 0 -44 26 -80 59 -80
10 0 35 -13 56 -30 47 -37 99 -40 140 -8 26 20 27 25 22 82 -9 91 -67 268 -67
203z"/>
<path d="M1832 10543 c-18 -7 -43 -59 -58 -125 -8 -32 -34 -98 -59 -148 -25
-49 -45 -95 -45 -102 0 -16 95 78 122 120 11 18 17 39 14 47 -3 8 7 29 22 48
39 45 72 93 72 105 0 6 -10 12 -22 14 -15 2 -22 9 -20 20 3 19 -7 27 -26 21z"/>
<path d="M2044 10495 c-7 -29 -1 -41 15 -30 14 8 14 55 1 55 -5 0 -12 -11 -16
-25z"/>
<path d="M1985 10316 c-28 -13 -63 -37 -77 -55 -15 -17 -34 -31 -44 -31 -29 0
-81 -47 -103 -94 -12 -24 -40 -64 -61 -89 -63 -71 -79 -143 -41 -186 11 -13
32 -53 46 -89 32 -82 58 -113 208 -236 133 -111 155 -142 136 -188 -15 -36
-10 -40 67 -57 33 -8 59 -20 68 -33 18 -25 46 -18 46 11 0 47 55 36 76 -15 17
-40 24 -42 50 -13 18 20 18 21 0 34 -30 23 -12 42 86 89 96 46 143 86 173 146
10 19 28 49 41 67 16 21 24 45 24 71 0 22 7 58 15 81 8 23 21 106 30 184 8 78
18 154 21 168 8 37 -40 93 -73 84 -21 -5 -24 -3 -19 13 6 16 2 19 -20 14 -16
-3 -30 1 -35 9 -8 12 -12 11 -23 -3 -18 -25 -26 -22 -26 7 0 20 -5 25 -26 25
-14 0 -32 6 -39 14 -10 9 -54 16 -137 21 -101 6 -126 11 -141 26 -19 20 -106
49 -146 49 -14 0 -49 -11 -76 -24z m-75 -176 c0 -11 -4 -20 -10 -20 -5 0 -10
9 -10 20 0 11 5 20 10 20 6 0 10 -9 10 -20z m455 -369 c0 -13 -8 -29 -17 -35
-14 -8 -22 -6 -39 11 -30 30 -19 55 23 51 27 -2 33 -7 33 -27z"/>
<path d="M3296 10004 c-8 -21 -1 -28 19 -20 9 3 15 11 13 18 -7 19 -25 20 -32
2z"/>
<path d="M3603 10001 c-44 -28 -54 -68 -22 -94 49 -39 132 8 127 73 -3 32 -6
35 -38 38 -22 1 -47 -5 -67 -17z"/>
<path d="M3825 9859 c-33 -29 -34 -33 -20 -49 28 -30 -20 -44 -50 -14 -24 24
-66 1 -63 -35 2 -19 -2 -26 -17 -29 -102 -17 -125 -85 -42 -123 75 -33 96 -25
107 41 4 28 10 36 33 40 16 3 33 15 40 30 7 14 21 26 32 29 11 2 24 10 28 18
7 12 11 12 22 -4 7 -10 16 -16 18 -13 9 9 -10 92 -22 100 -7 3 -9 14 -5 23 10
28 -22 20 -61 -14z"/>
<path d="M3785 9581 c24 -28 59 -48 53 -31 -2 6 -19 21 -38 32 l-35 22 20 -23z"/>
<path d="M2542 9354 c-27 -19 -55 -71 -43 -78 5 -4 16 -3 25 0 10 4 18 0 22
-10 13 -34 56 -5 69 47 13 50 -28 73 -73 41z"/>
<path d="M2366 12414 c-17 -17 -21 -50 -7 -58 5 -3 19 2 31 12 17 13 21 24 16
40 -9 26 -19 28 -40 6z"/>
<path d="M4506 9414 c-4 -15 -4 -29 -1 -32 8 -8 25 19 25 41 0 26 -17 20 -24
-9z"/>
<path d="M3650 8519 c0 -24 23 -21 28 4 2 10 -3 17 -12 17 -10 0 -16 -9 -16
-21z"/>
<path d="M3809 8524 c-10 -12 -23 -14 -51 -10 -30 5 -38 3 -38 -9 0 -8 -11
-17 -25 -20 -14 -3 -36 -7 -50 -10 -21 -4 -128 -76 -122 -81 1 -1 25 2 52 7
60 11 75 -2 75 -66 0 -22 7 -51 17 -64 15 -23 15 -25 -2 -37 -17 -13 -17 -14
9 -14 16 0 41 11 58 25 16 14 38 25 49 25 10 0 37 16 59 36 40 36 51 68 28 77
-10 3 -8 9 5 24 21 24 22 64 2 103 -17 33 -45 39 -66 14z"/>
<path d="M5215 8520 c-18 -20 -18 -21 5 -12 13 5 26 14 28 20 6 19 -13 14 -33
-8z"/>
<path d="M5395 9230 c-8 -13 3 -50 16 -50 12 0 12 47 0 55 -5 3 -12 1 -16 -5z"/>
<path d="M5686 8901 c-7 -10 22 -37 30 -28 9 8 -3 37 -15 37 -5 0 -12 -4 -15
-9z"/>
<path d="M420 3628 c0 -29 7 -81 15 -116 14 -61 14 -65 -9 -120 -26 -63 -57
-188 -48 -196 13 -13 60 -4 77 14 10 11 24 20 32 20 8 0 21 17 30 38 19 45 24
241 7 263 -6 8 -17 31 -24 52 -12 39 -55 97 -71 97 -5 0 -9 -24 -9 -52z"/>
<path d="M3820 6970 c6 -11 15 -20 20 -20 6 0 10 9 10 20 0 13 -7 20 -20 20
-18 0 -19 -3 -10 -20z"/>
<path d="M4000 6878 c-35 -38 -22 -78 26 -78 21 0 35 45 24 75 -12 31 -23 31
-50 3z"/>
<path d="M4015 6740 c-4 -6 -3 -14 0 -20 9 -15 35 -12 35 4 0 17 -27 29 -35
16z"/>
<path d="M3970 6614 c0 -8 71 -36 78 -30 11 12 -22 36 -49 36 -16 0 -29 -2
-29 -6z"/>
<path d="M7800 6766 c0 -20 5 -36 10 -36 6 0 10 13 10 29 0 17 -4 33 -10 36
-6 4 -10 -8 -10 -29z"/>
<path d="M6230 6175 c-18 -19 -20 -25 -8 -25 15 0 48 30 48 43 0 14 -17 6 -40
-18z"/>
<path d="M7721 5738 c1 -13 5 -36 9 -53 6 -25 8 -27 15 -12 9 21 -2 87 -15 87
-6 0 -9 -10 -9 -22z"/>
<path d="M8400 3799 c0 -4 20 -49 44 -100 25 -52 57 -132 71 -179 15 -47 32
-98 40 -115 l14 -30 0 35 c1 47 -56 210 -101 290 -38 67 -67 110 -68 99z"/>
<path d="M8440 3610 c0 -24 21 -70 32 -70 11 0 10 21 -3 59 -12 35 -29 42 -29
11z"/>
<path d="M8483 3484 c-3 -8 -1 -20 6 -27 8 -8 11 -4 11 16 0 30 -7 35 -17 11z"/>
<path d="M6803 3433 c9 -2 25 -2 35 0 9 3 1 5 -18 5 -19 0 -27 -2 -17 -5z"/>
<path d="M8266 2294 c-37 -37 -5 -184 39 -184 25 0 48 67 40 114 -5 37 -38 86
-56 86 -4 0 -15 -7 -23 -16z"/>
<path d="M5070 1650 c0 -12 40 -33 48 -25 4 4 -2 13 -12 21 -23 16 -36 18 -36
4z"/>
<path d="M7233 1603 c9 -2 25 -2 35 0 9 3 1 5 -18 5 -19 0 -27 -2 -17 -5z"/>
<path d="M6410 1396 c0 -18 17 -29 30 -21 8 5 7 11 -1 21 -15 18 -29 18 -29 0z"/>
<path d="M4193 1033 c9 -2 23 -2 30 0 6 3 -1 5 -18 5 -16 0 -22 -2 -12 -5z"/>
<path d="M4930 1015 c-9 -11 -10 -19 -3 -26 7 -7 14 -5 23 6 9 11 10 19 3 26
-7 7 -14 5 -23 -6z"/>
<path d="M4835 990 c-8 -13 3 -30 20 -30 23 0 27 18 6 30 -13 7 -22 7 -26 0z"/>
<path d="M2122 1573 c5 -26 38 -29 38 -4 0 15 -6 21 -21 21 -14 0 -19 -5 -17
-17z"/>
<path d="M5432 9393 c2 -13 14 -19 43 -21 l40 -2 -24 20 c-29 25 -64 27 -59 3z"/>
<path d="M5350 9390 c-8 -5 -12 -12 -8 -15 9 -9 48 4 48 16 0 12 -21 11 -40
-1z"/>
<path d="M6683 8765 c-3 -9 -3 -19 1 -22 7 -7 36 16 36 28 0 15 -30 10 -37 -6z"/>
<path d="M6934 8291 c17 -17 34 -31 39 -31 14 0 -23 39 -48 52 -14 8 -12 2 9
-21z"/>
<path d="M7000 8280 c0 -5 13 -19 29 -31 30 -22 46 -55 31 -64 -4 -3 -10 2
-14 10 -3 8 -13 15 -21 15 -24 0 -15 -44 10 -48 11 -2 28 -11 38 -20 33 -29
87 -138 106 -213 10 -40 23 -75 28 -76 6 -2 19 19 31 47 19 45 38 61 55 44 9
-9 -4 -34 -18 -34 -26 0 -34 -60 -10 -80 13 -10 17 -8 28 18 10 24 14 27 25
16 7 -7 19 -11 27 -8 9 4 15 0 15 -10 0 -20 14 -21 30 -1 16 20 27 19 58 -5
14 -11 56 -30 94 -41 77 -24 95 -18 100 31 2 18 -4 28 -24 38 -16 7 -28 18
-28 24 0 6 -10 8 -24 4 -30 -7 -40 5 -63 74 -19 58 -37 73 -46 40 -8 -32 -37
-25 -37 10 0 17 -5 30 -11 30 -7 0 -34 21 -61 46 -36 33 -54 44 -68 39 -13 -4
-22 -1 -26 9 -3 9 -14 16 -24 16 -10 0 -23 7 -30 16 -8 8 -22 20 -33 26 -17 9
-19 8 -14 -11 9 -34 -11 -24 -77 39 -62 60 -76 69 -76 50z m325 -190 c19 -36
19 -40 1 -40 -15 0 -26 21 -26 51 0 27 7 24 25 -11z m120 -190 c4 -6 -5 -10
-20 -10 -15 0 -24 4 -20 10 3 6 12 10 20 10 8 0 17 -4 20 -10z"/>
<path d="M7544 7945 c22 -17 46 -20 46 -6 0 10 -25 21 -48 21 -15 -1 -14 -3 2
-15z"/>
<path d="M160 6100 c0 -24 15 -27 24 -4 9 22 8 24 -9 24 -8 0 -15 -9 -15 -20z"/>
<path d="M312 4411 c-8 -22 -7 -32 2 -40 18 -15 26 -3 26 36 0 41 -15 43 -28
4z"/>
</g>
</svg>
