<?xml version="1.0" standalone="no"?>
<svg version="1.0" xmlns="http://www.w3.org/2000/svg"
 width="1280.000000pt" height="845.000000pt" viewBox="0 0 1280.000000 845.000000"
 preserveAspectRatio="xMidYMid meet">
<g opacity="0.5" transform="translate(0.000000,845.000000) scale(0.100000,-0.100000)"
fill="#000000" stroke="none">
<path d="M7070 8443 c-203 -23 -659 -92 -752 -114 l-48 -11 0 -177 c0 -187 -3
-171 64 -389 14 -45 41 -162 61 -260 19 -97 42 -201 51 -231 15 -51 14 -55 -3
-73 -17 -17 -211 -88 -518 -190 -238 -78 -255 -89 -255 -158 0 -42 32 -187 55
-250 8 -24 22 -89 31 -145 30 -204 46 -226 200 -270 55 -15 128 -38 163 -51
81 -31 98 -30 239 7 142 37 242 48 259 28 20 -26 41 -103 108 -404 36 -165
115 -496 175 -735 143 -569 190 -830 208 -1160 6 -103 14 -154 26 -177 23 -45
58 -195 115 -498 50 -268 50 -279 6 -270 -103 22 -311 66 -357 75 -55 11 -138
59 -138 81 0 6 21 8 62 3 55 -6 61 -5 55 10 -4 10 -7 19 -7 21 0 2 -36 31 -80
65 -82 62 -106 91 -96 116 7 18 49 18 85 -1 16 -8 71 -53 122 -101 145 -133
166 -134 79 -4 -27 41 -50 82 -50 91 0 13 70 272 94 346 6 18 3 25 -16 32 -23
9 -78 65 -131 134 -15 20 -38 39 -51 43 -13 3 -30 20 -38 37 -9 18 -45 65 -82
106 -36 40 -66 77 -66 82 0 16 29 10 80 -16 72 -37 118 -81 151 -147 23 -45
38 -63 64 -74 42 -17 56 -18 78 -1 51 37 -8 487 -77 589 -49 74 -52 4 -7 -187
37 -159 48 -240 32 -249 -16 -10 -27 22 -61 172 -37 169 -59 216 -152 327
-101 123 -264 284 -293 291 -55 14 -60 -27 -10 -91 19 -25 54 -83 77 -128 38
-74 81 -141 231 -360 26 -38 47 -75 47 -83 0 -19 -11 -16 -160 46 -147 62
-189 73 -196 55 -10 -25 17 -59 169 -212 l150 -151 8 -137 c6 -88 6 -150 -1
-173 -9 -33 -7 -38 30 -79 37 -39 51 -73 32 -73 -5 0 -47 23 -93 51 -46 28
-96 53 -111 56 -44 9 -138 123 -102 123 4 0 48 -22 99 -50 101 -54 125 -60
125 -31 0 32 -97 89 -256 150 -120 46 -150 85 -103 132 28 28 79 22 144 -20
96 -61 116 -29 28 46 -122 103 -130 113 -137 175 -4 31 -13 61 -20 67 -19 16
-82 -20 -171 -99 -49 -44 -82 -67 -88 -61 -13 13 7 69 46 127 30 46 32 55 35
155 4 113 -9 186 -35 196 -26 10 -33 -18 -33 -153 l0 -131 -61 -56 -61 -56 7
-90 c6 -80 5 -92 -10 -97 -10 -4 -29 2 -47 16 -23 17 -38 20 -63 16 -40 -8
-54 8 -30 34 13 15 16 29 11 62 -3 24 -10 144 -15 268 -9 234 -16 281 -58 365
-33 65 -51 85 -78 85 -33 0 -43 -18 -60 -105 -22 -116 -41 -129 -106 -70 -61
55 -119 60 -119 11 0 -14 7 -59 17 -101 9 -41 13 -78 9 -82 -4 -4 -39 -9 -79
-11 -40 -2 -78 -9 -84 -14 -20 -17 -15 -54 12 -86 30 -36 31 -42 5 -42 -51 0
-132 44 -206 111 -74 67 -111 88 -133 74 -30 -18 1 -64 79 -115 19 -12 72 -61
117 -107 88 -92 87 -92 160 -62 32 13 34 12 78 -31 51 -50 101 -118 93 -126
-3 -3 -43 11 -89 30 -95 39 -198 61 -213 46 -6 -6 -3 -24 9 -50 10 -22 16 -42
14 -44 -2 -3 -22 0 -44 6 -28 8 -48 22 -67 49 -29 41 -64 62 -181 108 -41 17
-98 42 -126 56 -28 14 -74 37 -103 51 -63 32 -221 84 -254 84 -62 0 -50 -81
22 -155 25 -25 44 -51 42 -58 -3 -7 -19 -19 -37 -28 -42 -20 -54 -40 -42 -72
17 -45 73 -78 153 -90 70 -10 98 -21 98 -37 0 -10 -171 -19 -429 -22 l-215 -3
-32 52 c-56 86 -111 114 -157 78 -11 -7 -36 -16 -57 -20 -56 -10 -76 -34 -95
-119 -21 -95 -37 -110 -64 -64 -25 41 -39 58 -51 58 -12 0 -30 -66 -30 -111 0
-57 -21 -68 -153 -81 -92 -8 -123 -8 -147 2 -45 19 -164 179 -146 197 4 4 47
-14 96 -40 48 -26 95 -47 103 -47 27 0 30 19 9 58 -11 20 -34 64 -51 96 -31
59 -40 119 -20 131 15 10 84 -67 146 -162 53 -83 83 -103 97 -67 12 31 5 50
-40 127 -27 45 -43 82 -38 87 5 4 29 12 54 17 35 7 46 13 48 30 2 16 -7 26
-43 43 -58 28 -125 109 -125 151 0 35 61 101 131 142 76 45 148 57 372 65 172
7 210 11 224 24 26 27 -4 64 -64 76 -77 17 -321 35 -384 29 -104 -9 -206 -68
-312 -181 l-58 -61 8 65 c4 36 8 85 8 110 l0 45 -40 3 c-79 5 -144 -64 -215
-226 -44 -102 -48 -129 -23 -139 21 -8 58 33 112 126 69 117 71 113 41 -94
-11 -77 -20 -175 -20 -217 0 -61 -3 -78 -14 -78 -37 0 -132 111 -191 225 -20
38 -46 80 -57 92 -28 30 -68 31 -68 3 0 -31 45 -113 97 -177 47 -57 72 -109
73 -149 0 -27 -44 -34 -228 -34 l-134 0 -80 75 c-87 82 -196 143 -303 170
-139 35 -305 42 -357 14 -25 -13 -24 -78 1 -111 30 -38 216 -149 308 -184 137
-51 154 -78 65 -104 -28 -8 -57 -20 -63 -27 -25 -25 3 -33 109 -31 103 2 109
1 162 -29 50 -28 81 -37 118 -34 25 2 10 31 -38 72 -27 23 -50 48 -50 55 0 15
163 29 256 21 75 -6 126 -33 208 -110 40 -38 55 -58 50 -70 -3 -9 -14 -17 -24
-17 -17 0 -41 -24 -83 -84 -20 -29 -48 -34 -67 -11 -9 11 -9 22 0 51 17 51 8
131 -19 157 -36 36 -45 11 -26 -67 9 -37 14 -70 10 -74 -4 -4 -73 -9 -154 -12
-137 -5 -150 -7 -205 -35 l-58 -29 -49 27 c-56 31 -77 34 -86 12 -9 -24 -78
-55 -122 -55 -35 0 -43 4 -56 30 -17 33 -69 70 -97 70 -33 0 -31 -23 3 -51 78
-64 80 -68 69 -90 -6 -11 -37 -36 -68 -56 -31 -20 -75 -53 -98 -73 -66 -61
-79 -65 -102 -32 -10 15 -37 61 -58 102 -42 81 -136 185 -194 215 -19 10 -67
24 -105 30 -94 17 -169 50 -184 81 -6 14 -11 44 -11 67 0 81 -21 110 -48 67
-8 -14 -23 -20 -48 -20 -39 0 -74 -15 -74 -31 0 -6 10 -19 22 -30 36 -29 8
-41 -79 -33 l-72 6 6 -58 c8 -80 18 -97 116 -191 85 -82 139 -119 157 -108 17
11 11 45 -15 79 -14 18 -25 41 -25 51 0 28 80 12 157 -30 35 -19 73 -35 85
-35 19 0 20 1 4 22 -30 43 -38 70 -23 85 19 20 39 9 87 -48 23 -27 67 -67 98
-88 76 -52 104 -84 100 -112 -4 -34 -45 -49 -161 -61 -142 -14 -247 -3 -427
41 -85 22 -218 53 -294 71 -175 41 -190 52 -201 157 -5 55 -3 77 9 101 21 40
21 41 -10 52 -38 15 -92 2 -110 -26 -14 -21 -13 -27 15 -81 19 -36 33 -80 36
-115 8 -78 40 -111 120 -128 122 -25 136 -30 133 -47 -2 -9 -18 -21 -37 -28
-53 -17 -52 -33 6 -73 18 -13 58 -32 90 -43 66 -22 163 -85 163 -105 0 -14
-51 -2 -245 61 -183 59 -212 58 -207 -9 4 -50 14 -54 135 -58 112 -3 112 -3
239 -60 69 -31 156 -67 192 -80 l65 -23 24 23 c13 12 31 22 40 22 8 0 62 -23
119 -51 94 -46 108 -50 156 -46 28 3 77 17 108 31 48 22 55 28 44 41 -16 19
-64 32 -175 45 -93 11 -328 62 -378 82 -45 18 -26 33 48 36 51 2 91 -4 159
-24 147 -43 165 -46 202 -34 37 13 50 39 35 69 -13 23 -41 28 -216 35 -215 10
-342 39 -405 93 -22 19 -40 39 -40 44 0 14 56 11 135 -7 52 -11 166 -17 435
-23 295 -7 372 -12 403 -24 20 -9 37 -23 37 -31 0 -38 -100 -70 -180 -57 -25
4 -52 5 -58 3 -22 -7 7 -31 47 -38 20 -4 53 -21 74 -38 31 -25 49 -31 102 -34
42 -3 80 1 111 12 77 26 107 21 233 -41 l116 -58 -275 -3 c-155 -1 -278 -6
-284 -12 -19 -19 52 -32 219 -41 287 -14 385 -22 391 -30 7 -12 -64 -117 -87
-129 -10 -6 -65 -9 -121 -8 -90 3 -110 0 -160 -21 -51 -22 -62 -23 -96 -13
-86 26 -114 10 -104 -60 l5 -40 -87 46 c-132 70 -191 61 -203 -33 -10 -70 -22
-71 -126 -3 -50 33 -124 80 -164 105 -39 25 -90 62 -113 83 -29 26 -44 34 -52
26 -7 -7 -4 -19 11 -40 37 -52 21 -103 -21 -65 -11 10 -41 53 -66 95 -62 108
-107 150 -127 118 -3 -5 21 -62 53 -127 70 -139 79 -163 60 -163 -7 0 -53 62
-103 136 -101 154 -186 251 -192 221 -3 -10 25 -72 62 -138 37 -66 64 -123 61
-126 -3 -3 -59 27 -125 66 -94 58 -125 72 -151 69 -60 -6 -60 -27 2 -120 30
-45 68 -105 83 -133 16 -27 57 -80 92 -117 35 -37 63 -74 63 -83 0 -35 -80 -5
-175 65 -109 81 -165 89 -100 13 19 -23 35 -48 35 -57 0 -19 -53 -34 -101 -28
-29 3 -37 0 -41 -15 -7 -27 7 -60 33 -73 17 -10 40 -8 108 5 82 17 91 17 161
1 117 -26 208 -55 225 -72 20 -20 19 -63 -1 -71 -8 -3 -45 6 -82 20 -96 36
-111 38 -177 22 -33 -8 -86 -14 -117 -15 -51 0 -58 -2 -58 -20 0 -24 33 -59
57 -62 10 -1 72 -2 138 -3 118 0 121 -1 215 -41 115 -50 175 -69 258 -84 120
-21 129 9 20 70 -44 25 -63 42 -63 55 0 31 46 24 159 -25 168 -71 207 -64 126
24 -22 24 -40 49 -40 56 0 29 120 -14 235 -85 53 -33 81 -32 113 5 31 35 79
40 139 15 41 -17 69 -19 78 -5 12 20 -6 47 -46 69 -87 49 -176 155 -243 287
-44 88 -51 138 -19 142 28 4 89 -27 185 -94 125 -89 216 -117 248 -79 17 20
62 19 155 -5 42 -11 81 -17 86 -14 18 10 8 33 -23 58 -55 43 -4 32 111 -24
135 -66 171 -65 171 6 0 17 8 42 18 54 25 30 52 20 98 -36 20 -24 42 -44 50
-44 17 0 34 32 34 64 0 23 4 26 34 26 41 0 213 -35 277 -55 25 -9 56 -27 67
-40 14 -16 32 -25 52 -25 25 0 30 4 30 25 0 29 -59 99 -104 122 -17 9 -69 20
-116 25 -47 4 -100 13 -119 19 l-35 12 28 23 c35 30 102 32 208 5 113 -29 188
-71 243 -136 26 -30 56 -55 65 -55 70 0 67 45 -6 115 -33 31 -54 59 -51 67 3
8 23 20 46 28 47 15 74 40 69 66 -5 32 42 47 109 35 85 -16 139 -13 184 10 35
18 45 19 70 8 26 -10 37 -8 87 14 31 14 80 31 107 38 62 14 76 27 84 75 5 31
14 42 51 64 37 22 45 32 45 56 0 32 21 35 42 6 27 -36 56 -62 69 -62 8 0 22
17 31 37 27 57 50 65 184 60 64 -2 122 -7 128 -12 9 -5 4 -15 -18 -34 -16 -14
-31 -37 -33 -51 -3 -27 1 -26 -103 -13 l-50 6 19 -22 c22 -24 228 -131 300
-155 47 -16 50 -16 107 6 33 13 59 28 59 34 0 6 -25 42 -55 80 -30 38 -54 76
-52 84 3 19 93 33 144 22 35 -7 38 -11 44 -49 5 -40 23 -73 40 -73 4 0 26 18
48 40 48 49 75 51 126 10 47 -38 61 -38 101 1 l32 31 59 -17 c32 -9 129 -50
215 -92 86 -41 165 -73 175 -71 15 3 18 13 17 61 l-1 58 33 -47 c18 -25 41
-66 50 -90 12 -32 24 -46 47 -53 77 -27 90 -6 48 78 -37 72 -38 81 -8 81 25 0
54 -38 88 -115 31 -71 55 -95 98 -95 20 0 54 -7 76 -15 22 -8 64 -14 92 -15
57 0 74 14 89 75 4 17 13 43 21 59 14 26 16 27 31 12 12 -12 17 -37 17 -100 1
-81 12 -116 37 -116 6 0 26 14 46 31 20 18 69 48 109 67 67 31 80 34 136 29
34 -3 114 -22 177 -43 101 -33 130 -38 237 -42 79 -2 121 -8 117 -14 -4 -6
-54 -32 -113 -60 -117 -54 -135 -68 -193 -146 -21 -29 -43 -50 -49 -47 -5 4
-9 26 -9 51 0 24 -4 44 -9 44 -5 0 -59 45 -121 101 -103 93 -115 100 -144 95
-18 -3 -43 -20 -58 -38 -15 -18 -34 -40 -42 -49 -7 -9 -43 -26 -80 -39 -67
-22 -86 -46 -43 -54 12 -3 49 -7 83 -9 33 -3 78 -14 100 -25 67 -34 139 -106
164 -164 20 -47 21 -58 11 -96 -6 -23 -11 -52 -11 -64 0 -38 25 -1 50 74 42
131 77 140 92 22 13 -113 36 -122 78 -29 39 88 64 100 132 62 47 -26 50 -27
81 -11 47 24 97 75 97 99 0 25 43 69 82 84 24 9 30 7 52 -19 25 -30 50 -92 44
-110 -2 -5 -24 4 -50 21 -44 29 -78 33 -78 10 0 -5 20 -33 45 -62 25 -30 45
-63 45 -76 0 -21 -4 -23 -54 -23 -44 0 -60 -5 -91 -30 -21 -16 -38 -30 -39
-30 0 0 -30 9 -66 20 -93 28 -106 27 -134 -19 -28 -44 -62 -71 -89 -71 -26 0
-76 -31 -82 -51 -3 -9 -17 -28 -30 -43 -23 -25 -26 -26 -112 -20 l-88 7 -17
-36 c-19 -39 -29 -43 -116 -50 -42 -3 -59 -10 -78 -31 -14 -14 -37 -28 -52
-32 -15 -3 -33 -8 -40 -10 -27 -8 -5 -40 52 -74 32 -20 58 -40 57 -45 -2 -6
-35 -21 -74 -35 -49 -17 -85 -38 -117 -68 -25 -24 -55 -45 -68 -49 -40 -10
-96 5 -119 32 -41 47 -24 67 62 76 93 9 127 49 95 110 -6 11 -15 59 -21 107
-11 102 -26 128 -88 151 -31 11 -55 31 -85 71 -72 94 -106 97 -175 18 -23 -27
-39 -37 -50 -33 -39 16 -206 45 -316 55 -66 6 -124 15 -128 19 -5 5 24 72 64
149 85 164 90 199 47 294 -38 82 -62 93 -213 93 -104 0 -125 -3 -160 -22 -50
-27 -80 -58 -100 -105 -34 -83 -16 -137 90 -263 97 -117 105 -135 105 -253 0
-108 -12 -158 -40 -167 -31 -10 -300 84 -300 105 0 5 23 24 50 44 40 29 50 42
50 65 0 43 -28 70 -85 80 -27 5 -51 14 -53 20 -2 5 -13 25 -25 43 -28 42 -71
48 -110 18 -35 -27 -34 -38 5 -70 37 -32 34 -48 -16 -75 -39 -21 -36 -22 -100
29 -23 18 -52 30 -80 33 -39 5 -48 2 -72 -22 l-27 -27 7 -149 8 -150 -114 3
-113 3 -8 64 c-16 135 -80 248 -199 355 -103 93 -309 179 -373 156 -33 -12
-29 -42 19 -152 42 -98 66 -168 66 -196 0 -7 -16 -20 -35 -29 -21 -10 -38 -28
-44 -45 l-10 -29 -73 37 c-40 20 -101 54 -135 76 -76 48 -107 48 -111 1 -2
-23 -9 -33 -20 -34 -9 0 -61 -2 -114 -3 -54 -1 -101 -5 -104 -9 -26 -25 67
-51 264 -73 81 -9 158 -18 171 -21 30 -5 85 -61 112 -114 26 -52 14 -56 -89
-35 -110 22 -192 21 -246 -5 -69 -32 -71 -59 -5 -105 21 -14 39 -30 39 -34 0
-22 -116 -90 -153 -90 -31 0 -47 -18 -47 -53 0 -49 -21 -26 -88 94 -35 63 -89
148 -120 189 -63 86 -231 260 -250 260 -22 0 -12 -26 24 -61 82 -78 238 -297
265 -371 12 -36 12 -39 -15 -67 l-29 -30 23 -56 c30 -73 74 -133 108 -146 15
-6 44 -22 64 -36 36 -24 39 -25 70 -10 42 19 77 13 273 -48 81 -25 164 -48
186 -51 21 -4 44 -13 50 -20 19 -24 -16 -28 -86 -10 -35 9 -85 16 -110 16 -39
0 -51 -5 -82 -36 -33 -33 -40 -36 -82 -32 -25 3 -101 28 -169 57 -140 60 -197
66 -197 22 0 -21 10 -29 68 -52 84 -35 182 -99 182 -119 0 -12 -20 -17 -89
-22 -90 -8 -124 -21 -98 -37 7 -4 68 -16 134 -25 66 -9 155 -28 197 -40 42
-13 87 -26 99 -29 25 -6 52 0 52 12 0 4 -34 31 -76 60 -53 38 -73 56 -65 64
17 17 99 -7 238 -72 152 -70 176 -77 194 -55 19 23 -7 42 -173 125 -75 38
-140 73 -143 80 -4 6 -2 16 4 22 18 18 107 -6 286 -74 157 -60 252 -80 262
-53 7 20 -43 79 -107 127 -75 56 -85 70 -65 87 20 17 168 33 233 26 79 -9 110
-28 117 -74 26 -151 58 -194 181 -234 74 -24 79 -25 82 -8 7 42 -86 216 -139
258 -28 22 -39 52 -20 52 13 0 92 -64 196 -159 144 -132 150 -135 279 -142
136 -8 186 -27 304 -117 107 -81 142 -102 170 -102 20 0 22 4 17 23 -12 37
-74 95 -177 164 -124 83 -171 100 -310 114 -62 6 -120 15 -129 20 -9 5 -19 23
-23 42 -7 37 -67 99 -206 214 -105 88 -149 133 -129 133 20 0 158 -68 326
-159 147 -80 173 -86 308 -73 50 5 97 7 105 5 8 -2 23 -24 33 -48 29 -70 113
-181 170 -226 68 -54 122 -79 175 -79 101 0 108 44 27 177 -68 112 -69 123
-12 123 57 0 124 -19 240 -69 160 -68 187 -66 187 16 0 48 -16 88 -48 117 -28
24 -42 13 -42 -35 0 -52 -16 -57 -85 -25 -82 37 -306 188 -344 231 -29 34 -31
39 -18 58 8 12 31 27 50 32 53 15 59 26 58 100 -1 58 1 66 16 63 10 -2 37 -41
64 -91 25 -49 67 -110 93 -136 25 -25 46 -52 46 -58 0 -19 60 -83 78 -83 8 0
23 6 31 14 43 37 278 50 340 18 19 -9 39 -24 45 -34 15 -24 -10 -48 -49 -48
-60 0 -67 -38 -16 -84 24 -22 61 -17 139 19 58 27 64 43 36 97 -15 28 -14 31
6 53 l21 23 -31 35 c-17 20 -67 53 -114 76 -68 34 -101 44 -182 54 l-99 12 0
30 c0 69 114 68 271 -1 101 -45 182 -74 206 -74 11 0 31 9 45 20 51 40 170 12
216 -52 18 -23 18 -30 7 -58 -16 -40 -61 -77 -109 -90 -41 -11 -87 -52 -76
-69 8 -14 95 -14 130 -1 34 13 72 54 101 112 32 63 30 85 -12 138 -44 56 -105
98 -153 105 -91 14 -115 21 -125 38 -28 43 51 80 127 59 282 -81 667 -152 667
-125 0 35 -150 213 -179 213 -21 0 -22 -23 -2 -51 45 -60 16 -90 -69 -69 -25
6 -100 15 -166 20 -142 11 -174 17 -174 35 0 16 30 23 138 34 46 5 90 15 103
25 13 9 42 16 64 16 79 0 78 13 -8 94 -114 108 -98 116 110 55 147 -44 160
-28 57 70 -62 59 -65 64 -50 79 13 13 35 17 94 17 l77 0 5 45 c7 62 24 62 143
0 133 -67 155 -65 117 11 -16 30 -19 44 -11 52 19 19 42 -3 106 -99 75 -111
97 -118 106 -31 7 63 29 97 64 97 36 0 48 -24 42 -83 -4 -28 -9 -62 -13 -75
-10 -36 19 -27 60 18 19 22 52 65 73 95 40 61 37 74 -17 75 -14 0 -38 9 -55
20 -38 25 -84 25 -155 0 -72 -25 -77 -25 -94 9 -20 38 -13 44 105 81 72 23
109 41 159 80 122 95 143 110 156 110 24 0 25 -19 3 -49 -18 -25 -21 -38 -16
-79 5 -45 -1 -94 -18 -134 -13 -33 17 -19 71 32 46 44 58 50 94 50 34 0 48 -6
76 -34 56 -56 42 -85 -40 -86 -65 0 -110 -23 -179 -92 -51 -50 -68 -73 -65
-90 6 -44 39 -32 108 37 59 59 90 79 90 56 0 -5 -10 -16 -22 -25 -23 -15 -23
-16 -4 -31 26 -20 49 -19 96 5 38 20 70 62 70 95 0 22 13 19 77 -15 57 -31
103 -36 110 -13 2 6 -21 30 -52 53 -31 23 -61 53 -66 68 -6 15 -21 50 -35 77
-29 61 -29 65 -3 65 26 0 68 -29 141 -97 82 -77 107 -69 61 19 -16 33 -19 31
77 32 l75 1 5 35 c3 22 11 36 22 38 9 2 51 -28 98 -70 177 -159 173 -159 170
-24 -4 116 -2 136 10 136 14 0 34 -43 79 -174 22 -66 48 -127 57 -138 33 -35
73 -20 189 72 101 79 120 85 158 44 l24 -26 26 32 c15 17 27 35 27 39 0 4 -11
23 -25 41 -14 19 -31 52 -37 74 l-12 38 -55 -8 c-31 -4 -77 -6 -103 -5 -56 2
-202 43 -258 71 -22 11 -51 20 -65 20 -35 0 -85 -50 -85 -85 0 -42 -26 -41
-80 4 -68 58 -97 71 -153 71 -28 0 -73 10 -110 26 -106 44 -115 45 -204 28
-45 -9 -88 -14 -96 -11 -10 4 -19 35 -27 94 -30 227 -41 263 -94 313 -36 33
-140 41 -174 13 -34 -27 -22 -56 54 -143 100 -114 100 -146 -2 -136 -112 11
-103 -1 -151 212 -73 322 -141 671 -168 869 -35 252 -101 586 -185 935 -37
157 -87 368 -109 470 -22 102 -65 300 -96 440 -86 394 -103 474 -160 775 -29
154 -58 293 -64 309 -11 27 -14 28 -58 22 -26 -3 -142 -33 -258 -65 -230 -65
-388 -106 -450 -116 -87 -13 -116 22 -155 185 -12 52 -36 136 -52 185 -16 50
-30 102 -30 118 -2 62 44 82 377 168 311 80 388 105 411 130 31 34 26 172 -13
339 -59 249 -153 722 -160 795 -5 65 -4 74 16 94 11 11 34 21 49 21 15 0 46 9
67 20 64 33 199 71 274 77 l70 6 5 -34 c3 -19 7 -92 9 -164 3 -123 5 -133 34
-185 24 -44 46 -122 103 -380 40 -179 75 -337 78 -352 2 -15 13 -35 23 -44 18
-16 27 -17 97 -5 90 15 381 88 502 126 47 15 94 36 106 46 12 11 35 19 56 19
32 0 38 -4 46 -32 15 -49 19 -72 37 -193 9 -60 25 -146 37 -190 42 -168 41
-158 19 -176 -11 -9 -67 -28 -124 -42 -58 -15 -161 -44 -230 -66 -69 -22 -156
-45 -194 -52 -215 -36 -208 -30 -199 -150 15 -193 96 -635 196 -1064 98 -421
139 -611 170 -790 17 -99 51 -270 75 -380 40 -181 60 -285 126 -670 30 -171
59 -285 149 -575 43 -140 91 -297 106 -348 l28 -92 35 6 c20 3 69 17 109 30
40 13 79 24 86 24 8 0 52 -20 99 -45 47 -25 93 -45 101 -45 24 0 7 34 -85 177
-92 141 -101 163 -72 163 28 0 89 -43 151 -106 80 -82 107 -73 114 38 6 102
14 103 108 13 93 -88 110 -89 110 -4 0 26 4 50 10 54 5 3 34 -17 64 -44 86
-78 109 -77 199 6 88 82 133 89 283 43 140 -43 165 -46 188 -21 29 32 19 125
-22 191 -18 28 -32 60 -32 71 0 27 47 106 67 113 25 10 31 -2 59 -105 30 -114
42 -129 79 -105 14 9 34 14 44 11 19 -6 41 -45 41 -74 0 -47 48 -42 88 9 40
52 76 140 57 140 -3 0 -17 -7 -30 -16 -24 -15 -25 -15 -25 3 0 27 51 95 84
112 24 13 28 13 44 -2 13 -14 18 -43 23 -140 6 -154 15 -174 68 -160 28 7 35
38 27 131 l-7 77 32 -73 c33 -76 85 -142 113 -142 26 0 19 26 -29 96 -52 75
-52 80 -29 242 20 140 10 163 -34 75 -17 -32 -37 -65 -46 -72 -21 -17 -44 -8
-56 23 -13 35 -39 46 -107 46 -72 0 -88 9 -79 44 7 29 51 56 91 56 16 0 42 15
68 39 57 52 75 60 169 76 92 17 113 29 84 50 -53 39 -194 25 -305 -31 -37 -18
-94 -57 -126 -87 -33 -30 -70 -59 -83 -66 -26 -14 -27 -12 -37 58 -8 64 -33
111 -57 111 -29 0 -76 -36 -95 -73 -17 -34 -121 -147 -135 -147 -4 0 -8 45 -8
99 0 148 -25 190 -69 116 -15 -26 -26 -34 -43 -32 -20 2 -24 -4 -28 -37 -4
-35 -7 -37 -19 -23 -23 28 -49 20 -66 -19 -11 -26 -19 -34 -31 -30 -19 7 -62
-14 -93 -48 -28 -30 -57 -34 -63 -8 -8 29 9 62 32 62 12 0 42 20 69 45 49 46
108 140 93 149 -4 2 -29 0 -56 -6 -26 -5 -50 -8 -53 -5 -3 3 10 38 28 77 41
90 113 160 164 160 19 0 37 -4 40 -10 10 -16 42 -12 82 10 21 11 43 20 50 20
6 0 38 -22 69 -50 50 -44 62 -50 102 -50 24 0 72 7 106 16 77 19 222 88 230
109 3 10 -4 26 -19 41 -32 31 -94 33 -135 3 -32 -24 -24 -26 -174 36 -118 49
-172 47 -302 -13 -50 -23 -96 -42 -101 -42 -6 0 -14 11 -17 24 -11 43 -67 41
-81 -3 -10 -31 -34 -34 -45 -5 -6 14 -10 34 -10 45 0 31 -28 34 -53 7 -20 -22
-34 -26 -111 -30 -48 -3 -90 -9 -94 -12 -3 -4 -1 -16 6 -26 16 -26 15 -30 -8
-30 -10 0 -35 14 -54 30 -30 27 -37 29 -59 19 -15 -7 -39 -36 -58 -73 -18 -33
-44 -79 -59 -101 -46 -69 -62 -105 -71 -174 -5 -36 -21 -90 -34 -119 -31 -68
-32 -100 -4 -104 40 -6 44 -30 19 -106 -24 -76 -42 -102 -56 -80 -12 18 -7
379 6 468 12 81 53 189 109 281 42 69 59 82 68 50 3 -12 13 -21 24 -21 49 0
141 245 179 479 15 90 30 127 81 202 42 62 46 78 27 97 -19 19 -26 15 -47 -26
-29 -56 -48 -70 -69 -49 -14 15 -15 22 -3 59 20 63 18 98 -9 153 -43 90 -107
145 -168 145 -16 0 -51 12 -78 26 -142 75 -143 75 -205 43 -55 -27 -122 -97
-152 -155 l-24 -47 4 109 c2 60 6 128 9 152 6 47 2 44 114 85 25 9 60 30 78
47 36 33 47 36 136 44 66 6 109 30 114 65 5 33 -37 88 -84 110 -29 14 -45 31
-59 60 -24 55 -64 77 -169 96 -142 24 -180 21 -223 -19 -48 -44 -50 -84 -6
-147 54 -76 66 -176 26 -221 -11 -12 -13 -27 -8 -50 22 -105 15 -266 -12 -275
-5 -2 -21 22 -35 54 -35 80 -65 105 -130 110 -172 13 -215 -199 -72 -357 21
-23 50 -48 66 -56 24 -13 32 -13 56 0 47 24 67 90 36 120 -19 19 -49 7 -59
-24 -8 -26 -27 -25 -53 3 -42 44 -19 77 53 77 51 0 101 -24 118 -57 35 -66 55
-212 66 -474 6 -138 13 -204 23 -225 29 -57 -35 -175 -94 -174 -8 0 -6 4 5 11
23 14 22 73 -2 113 -10 17 -33 70 -50 118 -54 155 -104 258 -118 244 -3 -2 5
-57 17 -121 12 -64 20 -118 17 -121 -15 -16 -53 16 -118 97 -39 49 -80 94 -91
100 -20 11 -21 10 -14 -71 9 -101 11 -105 45 -120 16 -6 43 -27 62 -46 36 -37
39 -58 24 -164 -8 -56 6 -94 41 -112 16 -8 31 -28 39 -52 8 -21 27 -53 44 -70
23 -24 31 -41 31 -69 0 -40 -15 -50 -25 -16 -8 24 -133 159 -148 159 -6 0 -8
-32 -5 -90 3 -50 4 -89 2 -87 -6 5 -76 318 -118 528 -20 96 -44 200 -55 230
-22 64 -28 98 -41 231 -18 182 -117 627 -160 726 -12 27 -20 67 -20 100 0 53
-57 347 -154 797 -47 217 -46 229 5 259 37 22 69 32 185 56 50 10 119 30 155
43 35 13 123 41 194 62 197 57 203 60 216 109 42 152 -80 665 -166 704 -13 6
-108 25 -212 43 -233 39 -309 37 -466 -10 -59 -18 -114 -30 -122 -27 -21 8
-33 42 -65 194 -16 73 -47 189 -70 258 -22 69 -47 167 -55 217 -16 105 -46
201 -79 249 -23 35 -46 40 -126 31z m845 -985 c83 -13 118 -24 110 -37 -3 -5
-49 -19 -103 -31 -53 -12 -153 -35 -221 -52 -71 -17 -143 -28 -170 -26 -42 3
-46 5 -43 28 6 52 80 95 217 125 61 13 83 12 210 -7z m-1506 -482 c-13 -12
-373 -108 -424 -113 -60 -5 -115 8 -115 26 0 13 105 45 195 60 110 18 355 37
344 27z m2209 -1438 c9 -19 9 -34 2 -53 -14 -36 -32 -27 -50 24 -13 37 -13 43
0 51 21 13 33 8 48 -22z m158 -14 c-3 -9 -6 -17 -6 -20 0 -6 -82 -46 -86 -41
-3 2 12 17 33 33 21 15 40 32 41 36 7 15 24 8 18 -8z m-46 -164 c0 -30 -28
-50 -71 -50 l-40 0 46 40 c47 41 65 44 65 10z m-395 -350 c0 -19 -6 -26 -26
-28 -34 -4 -57 22 -39 44 8 8 25 14 39 12 20 -2 26 -9 26 -28z m496 -32 c18
-33 7 -252 -16 -306 -17 -43 -17 -43 5 -67 29 -31 76 -53 139 -65 28 -5 73
-21 100 -35 28 -14 63 -25 79 -25 29 0 52 -16 52 -36 0 -19 -50 -75 -76 -84
-15 -6 -45 -3 -91 11 -83 23 -131 24 -163 3 -14 -9 -57 -48 -96 -86 l-71 -70
-6 249 c-3 136 -11 268 -17 293 -26 113 -27 107 25 156 44 43 102 84 117 84 4
0 12 -10 19 -22z m228 -63 c56 -59 80 -120 65 -163 -6 -17 -18 -28 -32 -30
-37 -6 -52 15 -52 72 0 89 -43 133 -85 86 -22 -25 -22 -72 1 -129 17 -44 15
-57 -11 -48 -28 11 -55 70 -55 120 0 80 55 162 100 150 11 -3 41 -29 69 -58z
m-419 -318 c9 -56 -3 -279 -17 -322 -5 -16 -8 -11 -14 20 -11 60 -23 350 -15
371 12 30 35 -5 46 -69z m508 21 c18 -18 14 -28 -12 -28 -25 0 -51 22 -39 33
10 11 38 8 51 -5z m-1808 -178 c0 -16 -4 -30 -10 -30 -5 0 -10 14 -10 30 0 17
5 30 10 30 6 0 10 -13 10 -30z m-560 -120 c30 -60 8 -69 -31 -13 -52 72 -79
119 -79 134 1 19 87 -76 110 -121z m-1103 5 c62 -65 81 -100 69 -130 -10 -26
-29 -17 -85 43 -52 55 -95 128 -85 144 13 20 44 3 101 -57z m130 3 c-2 -13 -4
-3 -4 22 0 25 2 35 4 23 2 -13 2 -33 0 -45z m1443 -18 c0 -11 -4 -20 -10 -20
-5 0 -10 9 -10 20 0 11 5 20 10 20 6 0 10 -9 10 -20z m1738 -81 c109 -54 105
-90 -11 -109 -95 -15 -143 -36 -166 -74 -31 -51 -59 -158 -72 -273 -8 -75 -20
-128 -39 -173 -34 -80 -63 -198 -89 -361 -42 -264 -38 -337 24 -423 19 -27 32
-53 29 -58 -4 -5 -27 -9 -53 -8 -66 3 -71 2 -71 -19 0 -29 -25 -44 -57 -34
-36 12 -73 82 -73 140 0 55 17 93 74 168 44 57 46 63 46 126 0 57 4 72 32 114
24 36 33 62 36 105 4 52 -11 204 -24 248 -4 12 0 10 12 -5 9 -13 22 -23 30
-23 18 0 23 40 26 237 3 156 5 175 24 200 12 16 35 30 55 34 19 4 44 20 57 36
60 73 60 73 99 73 22 0 47 6 57 13 17 13 17 14 1 30 -9 9 -24 17 -34 17 -10 0
-32 5 -50 11 -25 9 -29 14 -20 25 20 24 91 17 157 -17z m-3407 -45 c37 -17 71
-41 89 -64 40 -50 81 -133 71 -143 -14 -14 -85 28 -153 89 -35 31 -81 68 -103
82 -59 38 -75 53 -68 65 10 16 99 0 164 -29z m1289 -9 c7 -9 10 -18 7 -21 -10
-11 -37 5 -37 21 0 19 14 19 30 0z m-2185 -80 c63 -11 127 -35 173 -67 24 -16
71 -42 105 -58 76 -34 101 -61 132 -136 l24 -59 150 -3 c83 -1 151 1 151 5 0
5 -14 28 -30 52 -40 58 -26 71 36 32 147 -90 344 -165 344 -132 0 18 -19 51
-57 97 -18 23 -33 46 -33 53 0 23 49 10 91 -25 23 -19 54 -41 69 -49 37 -19
90 -81 90 -105 0 -14 -9 -21 -37 -25 -75 -12 -83 -15 -89 -38 -3 -14 4 -50 17
-83 42 -115 69 -217 72 -273 l2 -56 -34 -3 c-65 -6 -90 14 -121 95 -7 18 -37
65 -66 105 -33 43 -54 81 -52 93 3 18 9 20 56 17 28 -2 52 1 52 6 0 22 -35 35
-129 46 -55 7 -104 15 -108 20 -12 11 26 35 66 41 70 12 82 16 78 28 -5 17
-65 21 -108 7 -32 -11 -47 -10 -107 9 -127 38 -154 23 -79 -45 37 -34 40 -39
21 -42 -12 -2 -56 11 -98 28 -83 32 -115 37 -187 25 -49 -8 -92 7 -136 48 -26
23 -22 37 11 37 46 0 58 41 31 108 -20 46 -53 82 -76 82 -13 0 -22 -13 -30
-40 -7 -22 -17 -40 -23 -40 -6 0 -70 59 -141 131 -113 114 -126 130 -100 126
17 -3 48 -9 70 -12z m-1342 -25 c25 -12 38 -40 18 -40 -13 0 -61 40 -61 51 0
6 3 9 8 7 4 -2 19 -10 35 -18z m-1161 -41 c29 -6 80 -24 113 -39 l60 -28 -66
-1 c-121 -2 -320 43 -304 69 8 13 131 13 197 -1z m6220 -39 l33 -29 -30 -1
c-35 0 -55 15 -55 42 0 26 15 22 52 -12z m-1114 -25 c31 -9 28 -21 -9 -34 -73
-25 -93 -9 -69 55 l11 27 22 -20 c12 -12 32 -24 45 -28z m1589 -12 c-3 -10 -5
-4 -5 12 0 17 2 24 5 18 2 -7 2 -21 0 -30z m1141 -43 c21 -13 32 -27 30 -38
-5 -25 -94 -21 -121 6 -46 47 25 72 91 32z m-7585 -55 c91 -16 111 -28 96 -57
-18 -34 -52 -42 -90 -23 -29 15 -91 58 -123 87 -14 12 27 9 117 -7z m6958 5
c6 0 21 -12 34 -26 33 -36 33 -78 0 -100 -51 -34 -197 -3 -213 44 -4 12 3 16
50 26 15 4 42 20 59 37 18 18 37 28 46 25 8 -3 19 -6 24 -6z m-2016 -192 c33
-157 75 -419 75 -465 0 -36 -17 -27 -25 14 -13 68 -35 111 -65 123 -38 16 -49
49 -24 67 17 12 19 27 17 112 -1 54 -9 149 -17 210 -18 129 -19 142 -5 119 5
-10 25 -91 44 -180z m-4392 83 c70 -49 203 -189 191 -201 -18 -18 -60 -1 -109
42 -52 46 -155 164 -155 179 0 17 31 9 73 -20z m979 -3 l43 -23 -70 -3 c-38
-2 -79 -1 -91 2 -24 6 -38 31 -28 48 10 16 97 2 146 -24z m2328 -6 c0 -4 -15
-23 -33 -40 l-33 -32 -45 32 c-43 31 -44 32 -19 39 35 10 130 11 130 1z m2886
-48 c30 -26 54 -50 54 -55 0 -5 -17 -16 -37 -25 -21 -8 -60 -25 -88 -38 -27
-13 -54 -21 -58 -19 -5 3 6 20 24 39 27 27 33 43 37 89 2 30 7 55 9 55 3 0 29
-21 59 -46z m-2752 -117 c61 -62 140 -139 176 -170 l65 -57 -41 -37 c-58 -54
-64 -69 -57 -151 6 -69 5 -72 -16 -72 -14 0 -29 12 -42 34 -19 32 -22 34 -82
34 -74 0 -217 36 -253 64 -16 13 -24 28 -22 42 3 19 9 21 67 21 55 0 65 3 71
20 6 17 18 21 95 25 l87 5 -71 90 c-77 96 -147 224 -138 249 15 37 51 15 161
-97z m461 43 c16 -32 21 -140 5 -140 -17 0 -31 39 -37 105 -7 72 6 86 32 35z
m-703 -33 c17 -33 -22 -15 -51 22 l-26 35 33 -20 c19 -10 38 -27 44 -37z
m-4995 2 c17 -6 37 -17 44 -26 11 -13 8 -20 -19 -44 -41 -37 -73 -37 -116 2
-37 32 -52 61 -41 79 7 12 77 6 132 -11z m4816 -1 c12 -6 42 -27 67 -47 49
-39 102 -64 166 -81 74 -18 118 -70 61 -70 -13 0 -32 -7 -44 -15 -18 -13 -28
-12 -92 5 -74 21 -131 26 -131 12 0 -5 9 -17 20 -27 39 -35 21 -65 -38 -65
-26 0 -25 -2 22 -47 48 -47 48 -47 24 -55 -14 -5 -36 -4 -51 1 -31 12 -50 68
-51 153 -1 45 3 61 22 80 29 32 28 38 -13 78 -39 37 -44 64 -17 79 22 13 29
13 55 -1z m-1040 -10 c12 -6 49 -39 82 -73 33 -34 82 -72 108 -85 44 -20 59
-22 140 -17 105 6 183 -4 262 -34 64 -24 125 -77 125 -108 0 -18 -6 -21 -37
-21 -43 0 -117 31 -150 62 -21 20 -24 20 -41 5 -33 -30 -161 -16 -309 34 -53
17 -72 31 -127 90 -65 70 -102 131 -91 149 8 13 12 13 38 -2z m287 -32 c73
-35 85 -59 31 -64 -50 -5 -114 16 -153 49 -32 28 -32 29 -14 44 24 18 51 12
136 -29z m-387 -48 c60 -63 59 -84 -3 -80 -127 7 -194 82 -112 127 38 20 60
11 115 -47z m570 31 c29 -15 67 -50 67 -62 0 -11 -95 -1 -122 14 -23 12 -23
35 0 48 22 13 29 13 55 0z m2984 -104 c46 -97 44 -162 -5 -136 -26 14 -48 64
-62 140 -21 118 9 117 67 -4z m985 77 c10 -10 9 -16 -5 -29 -12 -12 -39 -18
-104 -20 -124 -5 -129 -7 -197 -72 -75 -72 -99 -86 -115 -67 -9 11 -9 22 2 48
25 59 106 114 210 143 61 17 191 15 209 -3z m-4784 -4 c16 -16 15 -23 -4 -42
-20 -21 -84 -22 -84 -1 0 21 36 55 58 55 10 0 23 -5 30 -12z m-1389 -74 c68
-19 53 -34 -34 -34 -62 0 -125 23 -133 49 -4 11 7 12 54 7 33 -4 83 -14 113
-22z m6821 7 c23 -45 2 -141 -31 -141 -50 0 -115 56 -104 89 18 56 113 93 135
52z m-1311 -141 c6 -52 13 -125 16 -162 l6 -67 57 -3 c51 -3 58 -6 66 -29 7
-20 4 -37 -13 -72 -14 -28 -20 -55 -16 -67 15 -48 -38 -16 -142 84 -62 59 -61
54 -37 250 25 208 46 230 63 66z m556 40 c3 -11 2 -27 -3 -36 -9 -15 -11 -15
-22 5 -12 24 -7 51 9 51 5 0 12 -9 16 -20z m-102 -57 c9 -27 23 -75 32 -107 9
-32 30 -87 46 -121 30 -64 30 -95 -1 -95 -36 0 -79 79 -80 150 0 19 -9 49 -20
65 -14 21 -20 47 -20 86 0 85 20 95 43 22z m375 35 c16 -16 15 -38 -2 -38 -13
0 -26 20 -26 41 0 13 14 11 28 -3z m195 -86 c20 -20 37 -40 37 -45 0 -18 -92
0 -113 21 -17 18 -19 25 -9 46 14 32 33 27 85 -22z m407 18 c0 -33 -25 -52
-58 -43 -29 7 -28 27 4 52 37 29 54 27 54 -9z m-1813 -40 c28 -55 46 -146 34
-168 -7 -13 -11 -10 -24 14 -18 36 -44 112 -56 165 -8 34 -7 40 7 37 9 -2 26
-23 39 -48z m-698 -49 c0 -28 -2 -32 -8 -16 -4 11 -11 36 -14 55 -6 32 -6 34
8 16 8 -11 15 -36 14 -55z m1401 39 c15 -29 25 -203 12 -225 -9 -17 -12 -17
-40 11 -34 35 -52 87 -52 156 0 37 5 50 22 62 30 21 45 20 58 -4z m650 -76
c127 -50 213 -160 151 -194 -47 -25 -149 38 -171 105 -12 37 -35 55 -69 55
-18 0 -21 -6 -21 -45 0 -56 -18 -67 -114 -69 -66 -1 -71 1 -74 21 -3 17 6 27
36 42 21 11 44 27 52 36 12 14 6 15 -71 9 -79 -7 -83 -6 -70 10 18 21 46 37
86 47 50 14 215 3 265 -17z m-2240 -49 c0 -19 -4 -35 -10 -35 -5 0 -10 16 -10
35 0 19 5 35 10 35 6 0 10 -16 10 -35z m220 -87 c0 -9 -4 -20 -10 -23 -6 -4
-10 9 -10 32 0 28 3 34 10 23 5 -8 10 -23 10 -32z m-5190 14 c57 -9 45 -16
-59 -36 -95 -18 -187 -21 -196 -6 -10 16 13 38 43 43 45 7 164 6 212 -1z m23
-89 c4 -3 2 -12 -4 -20 -12 -14 -89 -18 -89 -5 0 20 78 41 93 25z m5217 -143
c15 -36 4 -53 -16 -26 -15 21 -20 71 -5 62 4 -3 14 -19 21 -36z m-3937 -7 c4
-3 3 -11 -4 -19 -13 -16 -144 -20 -154 -5 -16 27 117 47 158 24z m-403 -32 c0
-12 -26 -32 -33 -25 -9 10 4 34 19 34 8 0 14 -4 14 -9z m3220 -86 c0 -47 -14
-60 -25 -24 -8 25 2 69 15 69 6 0 10 -20 10 -45z m-170 25 c0 -5 -11 -10 -25
-10 -14 0 -25 5 -25 10 0 6 11 10 25 10 14 0 25 -4 25 -10z m1084 -5 c8 -23
-4 -45 -25 -45 -25 0 -35 26 -19 45 16 19 36 19 44 0z m-4194 -98 c0 -28 -100
-51 -115 -28 -3 5 5 17 17 25 28 20 98 22 98 3z m4330 -16 c16 -30 12 -73 -10
-106 -33 -50 -90 -84 -195 -117 -119 -37 -176 -64 -234 -112 -60 -51 -103 -49
-76 4 22 43 119 101 248 146 115 41 150 66 195 139 23 36 46 65 51 65 6 0 15
-9 21 -19z m-6807 -114 c52 -50 68 -70 58 -76 -7 -5 -23 -6 -35 -3 -29 8 -176
154 -176 175 0 17 4 16 41 -5 23 -12 73 -54 112 -91z m7273 88 c19 -29 24 -86
8 -92 -12 -4 -29 33 -38 85 -7 38 7 42 30 7z m-646 -35 c0 -20 -5 -30 -15 -30
-19 0 -40 43 -31 65 10 27 46 0 46 -35z m-5205 3 c27 -10 51 -26 53 -34 2 -14
-14 -17 -100 -22 -129 -7 -168 9 -168 70 0 14 12 15 83 10 45 -3 104 -13 132
-24z m243 -25 c17 -17 15 -48 -5 -70 -24 -26 -51 -23 -59 8 -13 52 31 95 64
62z m190 -25 c-2 -10 -10 -18 -18 -18 -8 0 -16 8 -18 18 -2 12 3 17 18 17 15
0 20 -5 18 -17z m-1382 -52 c15 -52 11 -65 -17 -51 -22 12 -62 84 -51 94 3 4
17 6 31 4 19 -2 27 -12 37 -47z m6429 -16 c7 -45 -21 -148 -55 -202 -21 -35
-40 -43 -40 -18 0 8 -20 36 -45 62 -25 25 -44 47 -42 48 1 2 21 12 44 23 47
24 71 51 98 111 21 47 31 41 40 -24z m-975 35 c22 -12 76 -98 67 -107 -9 -9
-68 29 -90 59 -11 14 -17 34 -14 42 7 19 12 19 37 6z m-5709 -43 c-8 -8 -11
-3 -11 19 1 25 2 27 11 11 8 -14 8 -22 0 -30z m4318 2 c33 -12 61 -52 61 -89
0 -28 -9 -25 -40 12 -23 27 -33 32 -65 30 -39 -3 -94 24 -79 38 21 20 80 24
123 9z m-3818 -105 c41 -37 93 -75 115 -85 49 -22 67 -41 62 -66 -9 -47 -116
-52 -181 -9 -59 40 -129 169 -114 210 12 30 45 16 118 -50z m6556 24 c36 -40
73 -102 73 -122 0 -32 -30 -56 -70 -56 -53 0 -64 16 -38 58 20 33 20 37 6 83
-21 63 -9 78 29 37z m-2864 -26 c39 -34 5 -76 -39 -47 -22 14 -32 53 -18 68 8
8 35 -2 57 -21z m-4184 -38 c12 -15 21 -38 21 -53 0 -14 9 -40 20 -58 23 -38
14 -48 -35 -39 -48 9 -65 38 -65 113 0 56 2 63 19 63 11 0 29 -12 40 -26z
m192 -9 c15 -12 42 -27 60 -34 111 -41 124 -61 41 -61 -68 0 -111 15 -149 52
-66 64 -24 102 48 43z m6619 -17 c0 -15 -87 -96 -124 -115 -19 -10 -32 -11
-38 -5 -18 18 -2 39 63 87 60 44 99 57 99 33z m604 -18 c37 -14 32 -33 -16
-74 -42 -37 -53 -37 -60 -1 -2 13 -17 24 -46 33 -23 8 -42 18 -42 23 0 25 114
38 164 19z m734 -154 c6 -68 -53 -206 -80 -190 -30 19 27 238 60 232 12 -2 18
-15 20 -42z m-3858 9 c0 -8 -4 -17 -10 -20 -6 -4 -10 5 -10 20 0 15 4 24 10
20 6 -3 10 -12 10 -20z m-1403 -35 c101 -67 195 -181 170 -206 -3 -3 -23 5
-44 17 -42 24 -73 21 -73 -8 0 -9 23 -38 51 -65 65 -60 64 -86 -1 -105 -25 -8
-63 -12 -85 -11 -47 4 -52 17 -54 123 -1 39 -12 117 -26 173 -34 139 -30 144
62 82z m983 -144 c0 -7 -7 -19 -15 -26 -20 -16 -38 -1 -29 23 7 20 44 23 44 3z
m-311 -49 c15 -23 2 -41 -25 -35 -14 2 -20 14 -22 41 -3 35 -2 37 16 26 10 -7
25 -21 31 -32z m1429 -9 c22 -22 12 -88 -14 -88 -24 0 -39 46 -26 75 13 28 22
31 40 13z m-1259 -47 c21 -21 44 -88 35 -103 -9 -14 -78 -9 -102 8 -28 19 -29
67 -2 94 25 25 45 25 69 1z m960 -7 c36 -30 38 -46 11 -108 -21 -46 -21 -46
-2 -88 11 -24 45 -77 76 -118 61 -81 68 -112 29 -137 -19 -13 -24 -11 -57 17
-42 37 -121 136 -160 200 -15 25 -38 60 -51 79 -29 39 -34 101 -10 101 9 0 15
-9 15 -25 0 -15 6 -25 14 -25 19 0 55 46 63 79 6 29 21 51 33 51 5 0 22 -12
39 -26z m446 -34 c11 -17 -5 -50 -24 -50 -28 0 -46 26 -31 45 14 17 46 20 55
5z m-1575 -24 c6 -8 10 -25 8 -38 -4 -33 -52 -33 -56 0 -7 47 21 69 48 38z
m346 -33 c8 -32 -18 -55 -56 -51 -34 4 -39 41 -8 62 34 24 57 20 64 -11z m524
-7 c0 -16 -18 -31 -27 -22 -8 8 5 36 17 36 5 0 10 -6 10 -14z m360 -2 c10 -11
11 -23 4 -42 -13 -36 -38 -35 -42 1 -6 52 13 72 38 41z m222 -38 c10 -15 10
-58 -1 -75 -5 -8 -28 -17 -52 -20 -23 -3 -45 -13 -49 -21 -20 -44 -29 -55 -42
-58 -32 -6 -29 32 9 108 28 56 44 77 63 81 29 8 62 1 72 -15z m679 -55 c20
-16 21 -21 10 -35 -13 -16 -74 -32 -101 -27 -21 4 -40 31 -40 58 0 21 4 23 54
23 38 0 61 -6 77 -19z m-2007 -24 c8 -12 8 -22 0 -34 -17 -27 -33 -26 -40 1
-12 50 15 73 40 33z m1511 -3 c0 -23 -48 -48 -76 -39 -30 10 -19 38 21 52 43
15 55 12 55 -13z m-1904 0 c85 -7 114 -18 89 -34 -8 -5 -24 -10 -35 -10 -10 0
-33 -14 -50 -30 l-32 -31 -119 11 c-192 18 -324 50 -324 80 0 5 24 11 53 14
28 3 68 8 87 10 38 4 211 -1 331 -10z m1143 1 c11 -8 29 -15 41 -15 12 0 30
-6 40 -14 17 -12 18 -17 6 -38 -14 -28 -60 -58 -87 -58 -27 0 -64 40 -64 70 0
25 25 70 38 70 4 0 16 -7 26 -15z m-455 -24 c33 -18 34 -19 13 -30 -44 -23
-132 -3 -132 30 0 16 7 19 43 19 23 -1 57 -9 76 -19z m-449 -16 c14 -17 5 -51
-17 -59 -24 -10 -57 26 -48 53 8 25 46 29 65 6z m-1013 -15 c35 -11 98 -24
140 -29 126 -17 176 -37 291 -123 108 -80 43 -96 -110 -27 -59 27 -98 39 -120
37 -55 -5 -40 -30 37 -61 168 -67 145 -128 -57 -147 -115 -11 -196 -3 -211 21
-22 35 0 69 67 99 35 15 67 33 70 39 8 12 -62 67 -168 133 -42 26 -76 54 -76
63 0 21 60 20 137 -5z m2488 -50 c0 -8 -8 -16 -17 -18 -13 -2 -18 3 -18 18 0
15 5 20 18 18 9 -2 17 -10 17 -18z m-691 -87 c23 -69 21 -82 -19 -99 -19 -7
-37 -14 -41 -14 -12 0 1 137 15 154 18 22 26 14 45 -41z m-1080 5 c114 -48
118 -68 14 -58 -76 8 -88 5 -88 -24 0 -12 -6 -31 -14 -42 -15 -19 -15 -19 -35
1 -12 12 -25 45 -32 80 -9 51 -9 61 5 71 20 14 74 4 150 -28z m256 19 c38 -19
37 -53 -1 -93 -38 -39 -65 -43 -75 -11 -4 12 -24 39 -46 59 -22 20 -37 42 -33
47 9 15 125 13 155 -2z m633 -6 c13 -10 14 -18 6 -32 -12 -23 -35 -24 -123 -2
-57 14 -83 15 -150 6 -102 -13 -184 -47 -192 -79 -11 -43 16 -151 47 -190 44
-55 37 -84 -12 -58 -30 15 -64 68 -54 83 16 27 -39 71 -88 71 -14 0 -31 7 -38
16 -12 15 -8 21 29 54 57 51 191 115 277 134 87 19 274 17 298 -3z m488 -2
c13 -25 4 -82 -15 -99 -28 -23 -76 30 -76 84 0 30 7 36 46 36 24 0 37 -6 45
-21z m-686 -89 c0 -10 -29 -23 -91 -41 -50 -14 -96 -29 -102 -33 -17 -10 -32
2 -25 20 6 15 67 50 113 65 41 13 105 6 105 -11z m208 -26 c14 -14 -8 -34 -51
-48 -102 -31 -172 -26 -118 9 40 27 155 53 169 39z m-64 -150 c40 -8 40 -30
-1 -47 -18 -8 -47 -26 -64 -40 -18 -15 -35 -27 -38 -27 -11 0 -47 82 -42 95 8
21 85 31 145 19z m-1155 -33 c16 -25 -83 -52 -202 -53 -49 -1 -87 3 -94 10
-12 12 -9 13 127 35 110 17 162 20 169 8z m1391 -131 c0 -9 -11 -16 -27 -18
-27 -3 -38 14 -21 32 12 12 48 2 48 -14z m32 -144 c38 -32 67 -97 59 -130 -10
-40 -48 -34 -95 13 -84 84 -50 190 36 117z"/>
<path d="M9404 6021 c-18 -11 -41 -40 -55 -68 -28 -58 -30 -149 -4 -258 8 -38
18 -141 22 -227 3 -86 10 -162 14 -170 6 -9 36 15 109 86 67 67 104 96 111 89
13 -13 -2 -52 -30 -77 -25 -23 -27 -39 -5 -57 30 -25 66 -112 99 -242 19 -72
41 -137 49 -145 12 -13 24 -13 73 -4 32 6 79 14 105 17 91 12 101 60 38 184
-22 43 -40 87 -40 98 0 45 -105 156 -159 168 -17 4 -40 19 -52 33 -11 15 -30
32 -42 39 -35 19 -101 16 -130 -7 -29 -23 -65 -26 -73 -6 -3 8 13 58 35 112
53 126 75 233 69 340 -2 47 -10 89 -17 98 -18 22 -79 20 -117 -3z m36 -110
c12 -24 13 -151 1 -170 -13 -20 -30 17 -42 90 -13 80 13 131 41 80z m312 -563
c9 -7 18 -32 21 -56 3 -25 22 -71 47 -112 51 -84 54 -104 20 -108 -55 -6 -129
76 -130 145 0 12 -9 45 -20 73 -11 28 -18 56 -15 61 9 13 59 11 77 -3z"/>
<path d="M9397 5189 c-53 -28 -83 -97 -104 -238 -8 -60 -13 -117 -10 -126 11
-26 54 -18 77 15 27 37 37 37 87 1 22 -16 54 -36 72 -45 29 -15 32 -15 38 -1
3 10 -6 28 -26 49 -41 43 -41 66 1 66 24 0 42 -10 70 -37 43 -42 56 -41 28 4
-28 46 -104 95 -159 101 -86 9 -91 34 -26 142 25 41 45 78 45 82 0 15 -55 7
-93 -13z"/>
<path d="M4870 5138 c-14 -8 -26 -23 -28 -35 -3 -24 -2 -25 149 -123 112 -73
181 -146 225 -236 38 -76 115 -174 139 -174 16 0 35 74 35 138 0 65 -59 185
-130 265 -52 58 -150 132 -205 156 -45 19 -155 25 -185 9z"/>
<path d="M1387 4949 c-123 -10 -110 -36 31 -63 46 -9 91 -20 102 -26 25 -14
63 -13 78 2 17 17 15 53 -3 68 -20 17 -124 26 -208 19z"/>
<path d="M1680 4881 c0 -17 77 -69 175 -116 101 -50 173 -72 200 -61 16 6 16
8 2 24 -9 10 -79 48 -155 86 -133 65 -222 92 -222 67z"/>
<path d="M4728 4794 c-19 -19 -3 -36 60 -68 37 -19 111 -49 163 -67 92 -32
139 -60 139 -85 0 -28 147 -157 203 -177 51 -19 -17 98 -102 174 -75 68 -170
130 -272 179 -81 39 -176 61 -191 44z"/>
<path d="M2060 4554 c0 -15 105 -114 121 -114 38 0 15 48 -43 90 -37 27 -78
40 -78 24z"/>
<path d="M9345 4411 c-42 -25 -115 -110 -115 -133 0 -29 23 -32 113 -14 l83
17 94 -31 c106 -34 147 -37 191 -15 53 28 85 105 60 144 -13 21 -27 6 -39 -42
-13 -51 -41 -80 -74 -75 -32 4 -36 48 -8 95 12 21 17 40 12 45 -13 13 -119 28
-207 28 -60 0 -87 -5 -110 -19z"/>
<path d="M2390 4402 c0 -10 16 -42 35 -72 19 -30 34 -59 32 -65 -2 -5 -35 -10
-72 -10 -108 0 -106 -4 75 -137 84 -61 158 -108 173 -108 18 0 4 43 -33 98
-51 76 -51 88 0 62 47 -24 46 -24 54 -4 9 23 -16 63 -81 130 -100 104 -183
152 -183 106z"/>
<path d="M1921 4376 c10 -11 151 -56 175 -56 39 0 36 17 -8 34 -40 17 -179 35
-167 22z"/>
<path d="M1463 4333 c9 -2 23 -2 30 0 6 3 -1 5 -18 5 -16 0 -22 -2 -12 -5z"/>
<path d="M3435 4227 c-19 -15 -19 -16 15 -30 19 -8 88 -19 152 -25 136 -13
182 -29 206 -73 57 -103 72 -120 135 -149 34 -16 84 -35 110 -42 55 -14 67 -6
67 48 0 49 24 50 92 4 86 -57 191 -80 204 -45 14 35 -83 177 -135 196 -14 6
-76 14 -137 18 -100 7 -119 11 -186 44 -94 46 -137 54 -339 62 -139 6 -167 5
-184 -8z"/>
<path d="M746 4181 c-15 -24 41 -76 161 -149 93 -56 129 -51 87 14 -35 52 -2
42 176 -56 69 -38 161 -99 205 -135 44 -36 98 -79 120 -96 84 -64 70 -91 -34
-66 -78 19 -131 22 -131 7 0 -17 62 -49 109 -56 25 -4 97 -26 160 -49 181 -67
221 -77 228 -59 8 20 -10 38 -110 111 -84 62 -116 96 -99 106 4 3 48 -4 97
-14 104 -22 152 -19 211 16 68 40 67 75 -5 95 -20 5 -121 10 -224 10 -210 0
-201 -2 -335 84 -153 99 -343 189 -434 206 -28 6 -59 17 -68 25 -18 16 -105
21 -114 6z"/>
<path d="M4899 4179 c-33 -21 107 -89 183 -89 37 0 39 2 27 17 -30 36 -184 89
-210 72z"/>
<path d="M2780 4032 c0 -34 6 -57 20 -75 46 -58 71 19 28 83 -35 52 -48 50
-48 -8z"/>
<path d="M3641 4051 c-21 -14 -4 -46 38 -69 45 -26 79 -28 88 -7 14 38 -88 99
-126 76z"/>
<path d="M10643 4018 c-28 -31 -43 -63 -57 -117 -9 -37 -17 -49 -43 -60 -18
-8 -33 -18 -33 -21 0 -4 25 -13 56 -20 47 -12 57 -11 64 1 10 16 45 145 55
202 7 44 -10 50 -42 15z"/>
<path d="M10775 3995 c-29 -38 -55 -112 -55 -158 0 -30 0 -30 20 -12 27 24 90
152 90 181 0 35 -25 30 -55 -11z"/>
<path d="M11412 3958 c-26 -29 -42 -70 -42 -112 0 -18 -11 -55 -25 -82 -31
-60 -31 -71 -2 -79 12 -4 36 -23 54 -43 26 -30 35 -34 45 -24 25 25 39 327 16
350 -16 16 -21 15 -46 -10z"/>
<path d="M10945 3934 c-44 -22 -75 -55 -75 -77 0 -17 5 -19 33 -14 46 7 124
45 131 64 15 39 -36 55 -89 27z"/>
<path d="M11170 3770 c-36 -27 -87 -57 -114 -67 -60 -22 -96 -54 -96 -88 0
-19 5 -25 23 -25 27 0 45 12 167 114 101 84 112 95 104 108 -9 13 -17 9 -84
-42z"/>
<path d="M12158 3793 c-25 -27 -88 -124 -88 -136 0 -4 17 -5 38 -4 l37 2 3
-70 c3 -68 2 -71 -29 -97 l-33 -28 17 -32 c10 -18 28 -48 42 -66 13 -19 27
-55 30 -80 4 -26 9 -55 12 -65 9 -33 45 -15 85 43 21 30 47 59 58 64 11 5 20
15 20 23 0 10 -18 13 -70 13 l-70 0 0 93 c1 50 7 128 15 172 29 158 29 151 6
174 -28 28 -42 27 -73 -6z"/>
<path d="M10941 3761 c-23 -23 -25 -30 -13 -47 19 -29 72 -18 72 15 0 10 -9
26 -19 35 -18 17 -20 17 -40 -3z"/>
<path d="M11577 3753 c-12 -11 -8 -111 4 -119 24 -14 37 49 23 104 -6 22 -15
27 -27 15z"/>
<path d="M11905 3716 c-31 -31 -43 -77 -56 -211 -6 -60 -12 -111 -13 -112 -1
-2 -21 46 -44 105 -44 113 -70 152 -102 152 -28 0 -33 -15 -39 -118 l-6 -94
-51 41 c-87 69 -136 74 -150 13 -17 -78 -13 -76 -210 -97 -226 -23 -218 -25
-251 38 -25 46 -32 52 -58 50 -21 -2 -43 -16 -72 -48 -23 -25 -48 -45 -55 -45
-7 0 -27 14 -44 31 -50 48 -62 39 -97 -76 -9 -27 -23 -70 -32 -94 -21 -57 -17
-154 6 -159 9 -1 54 33 102 78 48 44 91 80 96 80 5 0 24 -6 42 -14 19 -7 59
-17 89 -20 30 -4 62 -14 72 -22 9 -9 46 -19 84 -22 144 -15 62 -66 -107 -67
-78 0 -111 -4 -124 -15 -9 -8 -33 -47 -52 -87 -47 -99 -73 -97 -73 5 0 81 -30
96 -50 24 -14 -52 -12 -97 5 -140 30 -71 85 -104 114 -68 7 8 27 51 46 97 39
94 59 119 92 119 12 0 84 -32 159 -71 l137 -71 106 3 106 4 3 -47 c4 -67 20
-76 76 -43 30 18 56 25 78 23 29 -3 34 -8 42 -40 5 -21 15 -38 22 -38 25 0
125 53 139 74 23 33 17 96 -10 96 -6 0 -20 -9 -30 -20 -25 -28 -57 -25 -97 8
-34 28 -67 63 -68 72 0 3 14 11 31 17 30 12 31 14 25 52 -3 21 -9 46 -12 55
-5 12 10 8 59 -15 48 -22 77 -29 109 -27 53 4 68 28 68 110 0 31 4 60 10 63 5
3 29 -12 52 -33 54 -49 88 -68 89 -50 0 7 2 36 4 63 1 28 6 65 10 83 5 23 3
39 -9 57 -22 33 -35 32 -42 -5 -4 -17 -13 -30 -22 -30 -26 0 -9 97 31 176 19
38 38 80 42 93 7 23 7 23 -16 7 -36 -25 -47 -20 -59 27 -16 65 -38 107 -55
107 -9 0 -27 -11 -40 -24z m35 -193 c0 -42 -9 -63 -27 -63 -12 0 -13 9 -8 43
11 69 16 82 26 66 5 -8 9 -28 9 -46z m-155 -115 c16 -36 30 -86 33 -123 12
-151 -57 -139 -230 43 -61 62 -84 102 -60 102 16 0 69 -46 126 -107 32 -35 63
-63 69 -63 6 0 8 31 5 93 -3 50 -4 98 -1 105 10 27 32 9 58 -50z m-831 -103
c3 -8 3 -22 -1 -31 -5 -13 -9 -12 -29 7 -13 12 -24 26 -24 31 0 14 48 8 54 -7z
m289 1 c18 -7 43 -25 56 -39 22 -24 23 -27 6 -33 -10 -4 -26 -2 -36 4 -10 7
-45 12 -78 12 -72 0 -91 6 -91 31 0 38 80 52 143 25z m246 0 c37 -20 101 -92
101 -115 0 -27 -25 -45 -47 -32 -33 17 -133 133 -133 152 0 14 48 10 79 -5z
m-755 -18 c-9 -31 -24 -48 -40 -48 -18 0 -17 4 1 40 19 36 50 42 39 8z m543
-174 c3 -8 -2 -23 -11 -32 -15 -15 -17 -15 -32 0 -21 21 -11 48 16 48 11 0 23
-7 27 -16z m198 -105 c0 -15 -7 -25 -19 -27 -28 -6 -38 11 -20 36 19 28 39 24
39 -9z m-159 -4 c8 -21 -15 -47 -39 -43 -29 4 -46 36 -27 48 23 15 60 12 66
-5z"/>
<path d="M12370 3672 c-47 -46 -52 -67 -15 -58 31 8 31 1 5 -82 -24 -76 -25
-111 -5 -118 22 -9 194 33 246 59 30 15 44 28 44 42 0 17 -6 20 -45 17 -25 -2
-69 -10 -99 -18 -29 -8 -56 -13 -59 -10 -3 3 3 41 13 84 22 96 19 116 -18 120
-22 3 -37 -6 -67 -36z"/>
<path d="M1960 3670 c-11 -11 -17 -26 -14 -35 12 -31 136 -34 142 -3 9 49 -88
78 -128 38z"/>
<path d="M11152 3627 c-12 -12 -35 -52 -51 -87 -27 -59 -28 -66 -13 -77 9 -7
37 -13 64 -13 52 0 68 15 68 66 0 14 9 41 20 59 18 29 18 33 4 53 -20 29 -64
29 -92 -1z"/>
<path d="M2687 3622 c-23 -25 -21 -38 5 -56 35 -25 60 10 42 58 -8 21 -27 20
-47 -2z"/>
<path d="M740 3527 c0 -14 140 -154 187 -186 33 -22 63 -28 63 -11 0 14 -157
182 -184 197 -28 16 -66 16 -66 0z"/>
<path d="M12652 3398 c-7 -7 -12 -16 -12 -20 0 -12 28 -10 36 3 10 17 -10 31
-24 17z"/>
<path d="M93 3259 c1 -38 -5 -78 -13 -97 -19 -41 -5 -67 36 -67 23 0 32 7 46
35 10 19 32 47 50 63 36 30 125 67 163 67 24 0 42 16 31 27 -3 3 -58 9 -123
14 -65 4 -135 11 -155 15 l-37 6 2 -63z"/>
<path d="M7021 3311 c-23 -15 26 -34 71 -28 45 6 53 11 43 26 -7 13 -94 14
-114 2z"/>
<path d="M7105 3121 c-8 -15 3 -31 21 -31 9 0 14 7 12 17 -4 20 -24 28 -33 14z"/>
<path d="M465 3060 c-8 -12 17 -23 41 -18 10 1 19 9 22 16 5 15 -54 17 -63 2z"/>
<path d="M264 3027 c-9 -25 3 -37 72 -68 36 -15 84 -42 109 -59 24 -16 48 -30
54 -30 15 0 41 42 41 67 0 28 -26 45 -109 73 -91 30 -159 37 -167 17z"/>
<path d="M11922 2873 c-11 -21 -5 -43 11 -43 18 0 46 31 40 46 -7 20 -41 17
-51 -3z"/>
<path d="M12280 2860 c-55 -23 -79 -24 -116 -5 -31 16 -56 18 -91 9 -48 -13
-16 -43 44 -44 32 0 39 -20 13 -40 -38 -29 -17 -42 55 -35 57 7 65 5 82 -15
32 -38 47 -41 104 -21 73 25 212 95 229 116 12 14 12 18 -1 26 -17 11 -58 3
-117 -22 -60 -26 -73 -24 -105 16 -32 40 -36 41 -97 15z"/>
<path d="M10611 2778 c-27 -68 -64 -108 -99 -108 -30 0 -112 -37 -112 -51 0
-5 15 -9 34 -9 46 0 86 -16 86 -35 0 -22 -38 -43 -115 -60 -75 -18 -129 -45
-139 -72 -10 -26 12 -32 68 -17 58 16 115 18 135 5 14 -9 13 -24 -5 -103 -6
-25 -3 -28 19 -28 15 0 31 9 41 25 34 52 162 105 181 75 3 -5 9 -32 12 -60 3
-28 10 -53 15 -56 5 -3 40 13 78 36 39 24 77 40 85 36 11 -4 15 -20 15 -58 0
-70 16 -125 40 -138 12 -7 50 -8 100 -4 82 7 104 -3 60 -26 -11 -6 -20 -17
-20 -24 0 -47 81 -3 194 105 109 104 73 115 -138 44 -74 -25 -136 -45 -139
-45 -3 0 -13 7 -21 16 -24 23 -19 67 14 151 32 79 37 117 19 129 -7 4 -56 -17
-111 -45 -109 -57 -128 -57 -128 2 l0 30 -79 -7 c-65 -5 -82 -4 -95 10 -20 20
-20 16 8 110 30 102 38 151 28 194 l-8 35 -23 -57z"/>
<path d="M12685 2780 c-16 -11 -56 -25 -88 -31 -70 -14 -109 -41 -89 -61 9 -9
46 -13 126 -13 97 0 117 3 134 19 26 23 38 72 22 91 -17 21 -70 18 -105 -5z"/>
<path d="M9433 2755 c-23 -14 -50 -40 -61 -58 -19 -32 -37 -87 -27 -87 2 0 24
14 49 31 24 18 51 29 59 26 8 -3 18 -26 21 -51 8 -52 19 -64 38 -41 46 56 46
56 84 40 20 -8 62 -37 93 -63 81 -71 110 -87 123 -74 9 9 6 22 -10 51 -33 58
-24 121 17 121 27 0 51 -32 106 -143 28 -55 58 -105 68 -111 41 -26 187 97
229 192 23 51 17 90 -17 122 -33 31 -51 22 -129 -65 -37 -41 -73 -75 -80 -75
-7 0 -18 11 -24 25 -17 38 -89 111 -121 125 -26 10 -37 8 -93 -20 -75 -36 -78
-35 -199 36 -42 24 -78 44 -80 44 -2 0 -23 -11 -46 -25z m733 -140 c7 -29 -20
-79 -39 -72 -19 6 -20 46 -3 73 21 31 34 31 42 -1z"/>
<path d="M10833 2765 c-25 -18 -37 -73 -23 -110 10 -27 11 -27 30 -10 10 9 26
37 34 61 23 67 6 92 -41 59z"/>
<path d="M4374 2705 c-11 -45 -39 -55 -151 -55 l-103 0 6 -27 c26 -116 46
-161 103 -234 59 -76 74 -83 176 -87 111 -5 131 6 121 61 -4 23 -16 43 -30 52
-33 22 -122 31 -141 15 -35 -29 -105 18 -105 73 0 58 18 69 155 92 55 9 115
23 134 31 30 12 32 16 20 31 -17 20 -131 73 -159 73 -13 0 -22 -9 -26 -25z"/>
<path d="M11076 2689 c-14 -11 -24 -25 -21 -30 4 -5 36 -9 73 -9 37 -1 87 -6
112 -11 83 -19 108 -21 115 -10 4 7 1 19 -7 28 -44 53 -219 74 -272 32z"/>
<path d="M9288 2560 c-35 -27 -35 -40 -3 -40 27 0 39 17 33 45 -3 15 -6 14
-30 -5z"/>
<path d="M443 2524 c-9 -25 36 -65 72 -62 24 2 31 8 33 29 2 19 -3 28 -23 37
-36 17 -75 15 -82 -4z"/>
<path d="M8726 2504 c-19 -19 -21 -50 -3 -61 6 -4 42 -6 78 -4 46 2 76 -2 97
-13 41 -21 62 -20 62 3 0 58 -191 119 -234 75z"/>
<path d="M9180 2451 c-15 -29 -9 -76 10 -76 10 0 16 12 18 39 4 47 -11 67 -28
37z"/>
<path d="M9007 2443 c-11 -10 -8 -41 5 -49 13 -8 51 33 42 47 -6 11 -38 12
-47 2z"/>
<path d="M9387 2418 c-21 -6 -54 -25 -73 -44 -56 -52 -24 -73 51 -33 22 11 69
24 104 29 64 8 99 28 87 49 -9 13 -117 13 -169 -1z"/>
<path d="M8361 2401 c-24 -15 -4 -39 61 -72 59 -30 161 -69 180 -69 22 0 4 33
-33 60 -78 56 -182 97 -208 81z"/>
<path d="M12 2358 c-28 -28 3 -127 53 -166 63 -50 81 -13 36 73 -39 76 -72
110 -89 93z"/>
<path d="M153 2355 c-34 -24 -28 -42 25 -69 26 -13 58 -35 70 -49 31 -33 79
-54 94 -39 11 11 -45 113 -80 145 -28 26 -82 32 -109 12z"/>
<path d="M10576 2231 c-9 -14 12 -26 134 -75 63 -26 165 -72 226 -102 61 -30
114 -54 118 -54 37 0 -79 85 -224 163 -111 60 -238 94 -254 68z"/>
<path d="M2404 2195 c-4 -8 -4 -22 0 -30 8 -22 67 -55 97 -55 15 0 58 -16 95
-36 156 -82 181 -94 231 -104 76 -16 117 -10 121 17 2 13 -4 33 -12 45 -18 25
-21 84 -6 93 14 9 37 -11 66 -57 32 -51 69 -75 89 -58 8 7 15 20 15 29 0 33
-58 109 -102 134 -77 45 -84 44 -130 -7 -53 -59 -71 -59 -249 -1 -145 47 -206
56 -215 30z"/>
<path d="M6345 2188 c9 -27 59 -113 91 -155 16 -22 34 -33 50 -33 31 0 30 10
-7 79 -44 84 -86 131 -115 131 -21 0 -24 -3 -19 -22z"/>
<path d="M11507 2200 c-92 -23 -197 -105 -197 -153 0 -37 17 -34 65 13 24 24
65 49 100 62 54 20 76 22 230 21 94 -1 188 -3 210 -5 31 -2 40 1 43 15 3 12
-8 22 -35 34 -30 13 -74 18 -208 20 -93 1 -187 -2 -208 -7z"/>
<path d="M12366 2182 c-4 -6 4 -18 16 -26 32 -21 143 -50 162 -43 20 8 21 41
0 57 -20 17 -169 26 -178 12z"/>
<path d="M9698 2078 c-9 -21 18 -108 39 -129 22 -22 53 -16 53 10 0 21 -61
123 -76 128 -6 2 -14 -2 -16 -9z"/>
<path d="M6606 2065 c-10 -28 -7 -80 7 -99 12 -17 14 -17 27 -1 8 9 14 38 14
63 1 41 -2 47 -20 50 -13 2 -24 -4 -28 -13z"/>
<path d="M9894 2065 c-7 -18 38 -115 66 -140 16 -14 22 -15 35 -5 19 16 19 43
-1 83 -34 67 -86 99 -100 62z"/>
<path d="M6757 2025 c-22 -46 -22 -94 -1 -102 9 -3 20 0 25 8 11 18 12 129 1
129 -5 0 -16 -16 -25 -35z"/>
<path d="M12423 2014 c-27 -6 -47 -30 -40 -48 8 -21 112 -40 161 -30 49 11 57
41 15 61 -31 15 -103 24 -136 17z"/>
<path d="M2088 1993 c-25 -6 -23 -17 13 -58 38 -43 78 -65 118 -65 35 0 45 12
37 45 -11 41 -119 92 -168 78z"/>
<path d="M219 1967 c-51 -19 -100 -49 -112 -68 -14 -23 16 -64 86 -116 63 -45
96 -53 118 -27 10 13 29 15 88 12 52 -2 75 1 78 9 8 22 -42 59 -117 88 -87 32
-113 51 -87 61 31 11 220 -59 290 -109 19 -13 32 -16 39 -9 20 20 3 47 -36 60
-22 7 -73 34 -114 59 -65 41 -84 48 -136 50 -34 2 -77 -3 -97 -10z"/>
<path d="M11840 1957 c-37 -19 -31 -40 15 -49 84 -18 69 -43 -60 -103 -166
-78 -294 -98 -349 -54 -31 24 -46 18 -46 -21 0 -33 49 -80 82 -80 12 0 45 11
74 25 29 14 85 29 126 35 112 16 282 104 324 168 20 31 11 65 -21 80 -34 16
-113 15 -145 -1z"/>
<path d="M11340 1953 c-14 -2 -42 -9 -63 -14 -34 -9 -37 -12 -25 -26 7 -9 28
-22 46 -30 28 -12 40 -11 82 1 64 19 90 34 90 50 0 23 -59 31 -130 19z"/>
<path d="M10280 1910 c-25 -25 -18 -40 19 -40 37 0 59 24 41 45 -17 21 -36 19
-60 -5z"/>
<path d="M11585 1906 c-85 -39 -148 -106 -100 -106 26 0 93 38 135 77 64 57
50 69 -35 29z"/>
<path d="M12130 1832 c-120 -65 -147 -89 -123 -113 12 -12 241 101 272 134 24
27 21 47 -7 47 -9 -1 -73 -31 -142 -68z"/>
<path d="M853 1845 c-13 -35 73 -78 105 -53 18 15 15 46 -7 58 -30 16 -91 13
-98 -5z"/>
<path d="M10365 1841 c-45 -21 -79 -55 -90 -89 -6 -20 -69 -72 -87 -72 -4 0
-11 15 -16 33 -5 19 -18 37 -33 44 -67 33 -439 42 -533 13 -72 -22 -106 -79
-73 -124 12 -17 16 -15 56 18 23 19 59 40 79 46 53 14 187 13 200 -2 5 -7 13
-35 17 -61 4 -27 14 -51 22 -54 8 -3 35 18 69 56 63 69 96 79 116 36 14 -31
43 -39 114 -32 73 8 170 54 228 109 50 49 54 59 30 82 -20 21 -50 20 -99 -3z"/>
<path d="M9371 1804 c-12 -15 -21 -40 -21 -57 0 -30 0 -30 21 -11 22 20 49 66
49 84 0 19 -29 10 -49 -16z"/>
<path d="M2567 1793 c-14 -14 -6 -52 23 -107 47 -87 80 -246 52 -246 -5 0 -69
44 -143 98 -167 121 -245 159 -226 109 3 -7 47 -43 99 -80 115 -82 285 -237
373 -339 43 -51 74 -78 87 -78 18 0 20 4 14 32 -3 17 -17 56 -31 85 l-24 53
42 -2 c39 -3 42 -1 45 23 7 57 -126 288 -233 407 -45 49 -63 60 -78 45z"/>
<path d="M1250 1695 c-10 -13 -9 -19 6 -36 56 -62 201 -66 178 -5 -17 45 -156
75 -184 41z"/>
<path d="M1657 1704 c-12 -13 79 -159 174 -280 27 -33 66 -94 87 -135 41 -76
69 -101 130 -114 49 -10 42 16 -39 135 -39 57 -66 106 -61 108 6 2 35 -11 64
-27 66 -37 80 -38 150 -6 45 21 60 23 89 15 63 -17 102 -80 50 -80 -10 0 -26
-9 -36 -20 -11 -12 -31 -20 -52 -20 -25 0 -33 -4 -33 -18 0 -29 76 -178 95
-186 28 -10 97 -7 152 8 115 31 191 85 180 128 -9 35 -101 133 -139 148 -18 7
-55 30 -83 50 -83 61 -85 62 -204 54 -104 -6 -111 -6 -162 19 -30 15 -73 31
-97 37 -32 8 -64 32 -137 100 -90 84 -112 99 -128 84z m731 -438 c3 -20 0 -27
-10 -24 -7 3 -14 17 -16 32 -3 20 0 27 10 24 7 -3 14 -17 16 -32z"/>
<path d="M10519 1672 c-61 -16 -126 -48 -117 -58 8 -7 272 17 298 28 l25 10
-24 19 c-29 24 -92 24 -182 1z"/>
<path d="M11925 1631 c4 -7 36 -26 71 -42 35 -15 64 -31 64 -34 0 -3 -31 -2
-69 1 -113 11 -180 -11 -113 -37 41 -17 269 -23 319 -10 86 23 75 77 -21 107
-69 20 -262 32 -251 15z"/>
<path d="M1090 1591 c-12 -8 -16 -37 -18 -126 -4 -127 2 -145 47 -145 15 0 57
-18 94 -40 76 -46 90 -48 111 -18 21 29 8 49 -56 88 -56 34 -108 78 -108 92 0
21 68 3 159 -43 118 -60 137 -60 134 -4 -3 51 -26 70 -94 79 -74 10 -119 31
-119 55 0 38 -114 86 -150 62z"/>
<path d="M1550 1562 c0 -39 204 -325 245 -344 19 -8 28 -8 40 2 22 18 19 40
-12 85 -34 52 -188 230 -221 255 -31 25 -52 26 -52 2z"/>
<path d="M10768 1564 c-53 -28 -27 -51 47 -40 46 7 80 30 70 47 -9 14 -87 10
-117 -7z"/>
<path d="M3074 1545 c-9 -22 14 -45 46 -45 31 0 47 25 29 46 -15 19 -68 18
-75 -1z"/>
<path d="M11622 1548 c-7 -7 -12 -20 -12 -29 0 -28 -24 -39 -116 -55 -48 -8
-113 -26 -144 -39 -49 -21 -71 -24 -166 -22 -93 2 -114 -1 -138 -17 -25 -16
-27 -20 -13 -27 28 -16 157 -28 292 -29 136 0 132 -1 206 52 13 9 62 26 109
38 99 24 129 47 113 83 -12 25 -68 57 -100 57 -10 0 -24 -5 -31 -12z"/>
<path d="M10647 1524 c-14 -14 -6 -24 19 -24 16 0 24 5 22 13 -5 14 -31 21
-41 11z"/>
<path d="M10153 1479 c-23 -6 -47 -17 -54 -25 -19 -24 14 -44 70 -44 82 -1
174 -18 202 -40 17 -12 44 -20 66 -20 44 0 221 41 283 66 35 14 39 19 25 27
-20 11 -139 2 -243 -19 -40 -8 -77 -12 -82 -9 -6 3 -10 17 -10 30 0 14 -8 29
-19 35 -24 12 -180 11 -238 -1z"/>
<path d="M3164 1456 c-8 -22 3 -49 19 -43 6 2 12 14 12 27 0 27 -22 39 -31 16z"/>
<path d="M7857 1290 c-142 -26 -167 -57 -104 -127 38 -40 67 -40 67 0 0 59 36
56 211 -13 52 -21 113 -42 134 -46 l38 -7 -19 33 c-11 18 -50 66 -89 106 -80
85 -74 84 -238 54z"/>
<path d="M10763 1285 c-72 -16 -106 -32 -100 -48 2 -7 48 -30 103 -52 129 -53
156 -70 266 -171 50 -46 97 -84 104 -84 30 0 13 47 -39 113 -44 54 -26 62 61
25 75 -31 102 -31 102 0 0 46 -80 81 -235 102 -44 6 -84 15 -89 20 -5 5 -11
32 -14 59 l-5 51 -46 -1 c-25 0 -74 -7 -108 -14z"/>
<path d="M8111 1266 c-11 -13 -5 -19 41 -41 29 -14 71 -36 93 -50 46 -28 95
-33 95 -10 0 26 -46 61 -108 84 -87 32 -107 34 -121 17z"/>
<path d="M10536 1268 c-18 -10 -18 -11 -2 -24 14 -10 24 -10 42 -2 28 13 31
23 8 32 -21 8 -26 7 -48 -6z"/>
<path d="M7422 1261 c-8 -5 -12 -21 -10 -37 4 -36 36 -44 62 -15 17 19 17 20
-3 40 -23 23 -30 25 -49 12z"/>
<path d="M11113 1260 c-55 -23 -13 -51 84 -57 60 -4 83 -1 98 10 19 15 19 16
-19 32 -49 21 -133 28 -163 15z"/>
<path d="M8437 1184 c-13 -13 -7 -41 14 -68 30 -38 40 -32 37 22 -2 38 -7 48
-23 50 -12 2 -24 0 -28 -4z"/>
<path d="M8745 1158 c-6 -16 -9 -47 -7 -72 2 -16 4 -16 18 -5 22 18 46 68 39
79 -9 14 -45 12 -50 -2z"/>
<path d="M8952 1148 c-41 -45 -56 -123 -25 -135 12 -5 28 6 55 37 48 53 58 88
33 107 -26 18 -38 16 -63 -9z"/>
<path d="M10690 1036 c0 -20 58 -63 161 -116 103 -53 142 -65 137 -42 -7 35
-187 147 -270 167 -22 6 -28 4 -28 -9z"/>
<path d="M9512 1008 c-17 -17 -15 -63 7 -143 31 -117 33 -125 19 -125 -7 0
-49 32 -92 71 -99 89 -154 129 -177 129 -28 0 -34 -45 -15 -105 9 -28 16 -83
16 -121 0 -73 15 -110 68 -166 21 -23 34 -28 73 -28 86 0 100 47 39 135 -30
44 -37 65 -21 65 5 0 42 -30 82 -68 163 -150 179 -158 179 -94 0 20 -10 65
-22 99 -17 46 -20 65 -11 74 8 8 22 -5 53 -53 24 -34 50 -69 58 -75 25 -21 73
-15 109 13 45 34 95 54 137 54 42 0 56 18 30 37 -15 12 -36 13 -99 8 -44 -4
-100 -8 -124 -9 l-44 -1 -49 83 c-46 78 -152 203 -188 222 -11 6 -21 5 -28 -2z"/>
<path d="M7434 969 c-14 -16 -20 -40 -22 -98 -4 -68 17 -228 34 -277 17 -45
-40 24 -93 113 -70 119 -91 133 -137 87 -35 -36 -33 -68 10 -140 45 -74 69
-101 116 -125 48 -25 54 -24 85 7 25 25 26 25 39 6 7 -11 24 -22 37 -26 13 -3
28 -16 34 -28 9 -22 11 -21 23 16 27 83 -2 371 -47 459 -17 33 -52 36 -79 6z"/>
<path d="M8106 921 c-9 -13 37 -50 72 -57 41 -8 36 11 -11 44 -35 23 -53 27
-61 13z"/>
<path d="M7637 903 c-12 -12 -7 -98 8 -151 21 -68 102 -188 171 -251 59 -54
78 -61 88 -35 9 23 -14 55 -116 161 -48 50 -89 99 -89 110 -1 10 0 42 1 71 3
70 -34 125 -63 95z"/>
<path d="M4060 894 c0 -4 16 -28 35 -54 39 -53 74 -80 103 -80 27 0 35 39 16
68 -23 36 -154 91 -154 66z"/>
<path d="M10451 845 c-39 -35 -47 -38 -125 -45 -92 -9 -152 -32 -206 -78 -29
-25 -33 -34 -24 -49 22 -38 189 -72 198 -40 3 6 7 24 10 39 7 30 26 37 153 58
40 6 83 20 95 29 13 10 42 28 66 40 23 12 42 27 42 35 0 19 -47 37 -111 43
-54 5 -58 4 -98 -32z"/>
<path d="M6031 790 c1 -120 7 -135 49 -135 28 0 37 5 48 27 20 42 1 95 -53
148 l-45 44 1 -84z"/>
<path d="M2846 847 c-28 -20 -7 -48 62 -85 66 -35 107 -41 116 -15 9 23 -29
61 -89 89 -58 28 -65 28 -89 11z"/>
<path d="M8290 806 c0 -20 39 -46 68 -46 21 0 23 2 11 16 -12 14 -61 44 -74
44 -3 0 -5 -6 -5 -14z"/>
<path d="M8060 782 c0 -27 82 -106 138 -133 43 -21 46 -21 58 -4 20 27 2 50
-75 100 -84 55 -121 66 -121 37z"/>
<path d="M10758 794 c-28 -8 -21 -32 14 -50 59 -31 89 -35 125 -18 63 30 34
61 -64 69 -32 2 -66 2 -75 -1z"/>
<path d="M8840 750 c-19 -11 -45 -20 -57 -20 -67 0 -4 -59 94 -88 243 -74 336
-93 368 -75 14 8 6 17 -48 51 -88 55 -259 141 -294 147 -17 3 -41 -3 -63 -15z"/>
<path d="M6955 680 c-10 -16 13 -39 85 -85 83 -54 149 -87 162 -83 16 6 -75
91 -146 139 -59 39 -89 48 -101 29z"/>
<path d="M6182 628 c-7 -7 -12 -17 -12 -24 0 -21 41 -64 61 -64 11 0 35 -16
55 -35 20 -21 45 -35 59 -35 13 0 84 -14 157 -31 88 -20 145 -28 168 -24 100
18 119 17 206 -10 145 -45 192 -54 324 -65 68 -5 149 -15 180 -21 76 -14 165
-9 165 11 0 24 -68 49 -178 66 -142 22 -177 34 -386 135 -169 82 -211 99 -211
83 0 -11 23 -50 44 -72 l21 -24 -25 6 c-137 34 -160 35 -222 15 -68 -21 -152
-24 -227 -8 -40 8 -54 17 -71 44 -34 55 -82 79 -108 53z"/>
<path d="M2570 608 c-52 -15 -65 -28 -45 -47 13 -13 41 -16 173 -14 164 2 217
10 217 33 0 30 -47 40 -180 39 -71 0 -146 -5 -165 -11z"/>
<path d="M2990 585 c0 -29 6 -39 31 -54 51 -31 280 -66 354 -54 85 14 11 54
-199 109 -72 18 -143 34 -158 34 -25 0 -28 -3 -28 -35z"/>
<path d="M8503 609 c-70 -21 -23 -42 133 -60 78 -9 111 -9 129 -1 33 15 31 28
-7 48 -39 20 -205 29 -255 13z"/>
<path d="M7930 557 c0 -29 18 -47 47 -47 29 0 30 23 3 50 -27 27 -50 26 -50
-3z"/>
<path d="M4505 481 c-6 -11 25 -52 99 -129 72 -75 141 -128 179 -137 54 -14
31 29 -63 118 -117 112 -201 170 -215 148z"/>
<path d="M4730 475 c0 -27 27 -71 65 -104 40 -35 48 -37 65 -16 26 31 -59 135
-110 135 -11 0 -20 -7 -20 -15z"/>
<path d="M6090 442 c0 -27 36 -54 107 -80 32 -12 118 -57 192 -101 145 -87
206 -115 242 -109 30 4 40 45 12 54 -34 10 -158 73 -252 129 -98 57 -219 111
-271 121 -26 6 -30 3 -30 -14z"/>
<path d="M4210 410 c0 -12 29 -41 83 -81 45 -35 101 -80 124 -101 41 -37 64
-45 97 -32 43 16 -9 89 -113 158 -106 71 -191 96 -191 56z"/>
<path d="M5385 380 c-10 -16 21 -73 86 -156 35 -44 74 -94 85 -110 33 -44 39
-22 14 48 -51 143 -155 266 -185 218z"/>
<path d="M5681 360 c-23 -10 -23 -11 -5 -31 10 -11 52 -41 94 -66 152 -93 273
-193 256 -210 -3 -3 -43 -5 -89 -5 l-84 0 -46 45 c-26 25 -68 59 -94 76 -78
52 -83 40 -20 -45 24 -33 61 -74 82 -92 34 -30 42 -33 79 -28 23 3 105 7 184
7 109 1 142 5 142 15 0 18 -101 105 -197 171 -46 31 -81 58 -80 60 2 1 30 -2
63 -7 55 -9 104 -30 279 -124 76 -40 155 -58 155 -36 0 16 -190 201 -244 238
-36 25 -49 27 -140 28 -56 1 -148 4 -206 8 -64 4 -114 2 -129 -4z"/>
<path d="M3960 311 c0 -23 73 -107 111 -126 31 -16 96 -20 118 -6 22 14 3 48
-48 86 -87 63 -181 88 -181 46z"/>
<path d="M5124 305 c-6 -13 17 -41 94 -114 56 -53 108 -111 117 -128 25 -53
56 -67 127 -59 34 3 64 9 67 12 8 8 -45 105 -79 145 -28 31 -31 33 -43 17 -13
-17 -17 -16 -53 12 -167 127 -216 152 -230 115z"/>
<path d="M3831 219 c-18 -7 -21 -12 -12 -23 31 -37 150 -63 166 -36 9 15 -30
48 -72 59 -45 13 -50 13 -82 0z"/>
<path d="M4980 191 c-16 -30 -12 -59 10 -81 16 -16 33 -20 81 -20 94 0 123 25
77 67 -58 53 -148 71 -168 34z"/>
</g>
</svg>
