<?xml version="1.0" standalone="no"?>
<!DOCTYPE svg PUBLIC "-//W3C//DTD SVG 20010904//EN"
 "http://www.w3.org/TR/2001/REC-SVG-20010904/DTD/svg10.dtd">
<svg version="1.0" xmlns="http://www.w3.org/2000/svg"
 width="1280.000000pt" height="762.000000pt" viewBox="0 0 1280.000000 762.000000"
 preserveAspectRatio="xMidYMid meet">
<metadata>
Created by potrace 1.15, written by Peter Selinger 2001-2017
</metadata>
<g transform="translate(0.000000,762.000000) scale(0.100000,-0.100000)"
fill="#000000" stroke="none">
<path d="M1580 7604 c-121 -15 -229 -34 -320 -58 -30 -8 -107 -22 -170 -30
-164 -22 -188 -30 -240 -87 -25 -27 -51 -49 -57 -49 -21 0 -83 -61 -125 -123
-64 -94 -123 -229 -172 -395 -81 -270 -81 -279 -67 -727 6 -214 16 -433 22
-485 5 -52 13 -233 18 -402 4 -170 10 -311 14 -314 3 -4 13 -4 22 -1 11 5 15
21 15 59 0 99 23 133 34 51 15 -117 37 -462 31 -503 -7 -50 -33 -140 -45 -153
-15 -17 -30 60 -28 140 3 67 0 85 -14 100 -26 25 -37 7 -44 -68 -8 -84 12
-233 38 -286 19 -37 20 -53 15 -140 -23 -347 -21 -369 40 -385 23 -6 34 -17
42 -40 14 -38 8 -74 -31 -201 -34 -106 -33 -107 17 -176 23 -31 23 -35 10 -66
-24 -59 -54 -336 -56 -529 -1 -106 -8 -130 -39 -134 -51 -8 -68 -53 -31 -86
65 -59 93 -272 52 -393 -18 -53 -20 -75 -14 -172 l6 -111 47 0 c59 0 59 1 60
170 1 69 4 142 8 163 l7 38 40 -53 c54 -73 67 -117 67 -223 0 -115 -19 -169
-67 -185 -18 -6 -41 -20 -51 -31 -18 -20 -18 -21 14 -47 40 -34 42 -69 8 -179
-38 -123 -44 -150 -36 -163 13 -22 40 -2 60 43 24 54 38 115 55 246 8 63 19
107 27 112 52 30 53 32 58 161 3 68 8 118 12 112 12 -18 38 -135 38 -170 0
-43 32 -80 75 -88 62 -12 133 -138 143 -251 4 -55 2 -65 -17 -81 -44 -38 -20
-74 51 -74 l48 0 0 73 c0 158 -32 274 -95 348 -50 59 -75 106 -75 142 0 13
-11 55 -26 92 -27 75 -24 85 29 85 17 0 37 10 52 26 16 17 30 24 41 20 15 -6
16 -17 11 -89 -8 -94 -2 -107 49 -107 43 0 138 -71 187 -138 20 -29 44 -52 52
-52 18 0 30 -23 39 -72 4 -21 21 -57 39 -80 43 -57 75 -113 98 -170 10 -26 28
-57 40 -69 21 -21 22 -27 15 -151 -5 -112 -4 -129 10 -135 30 -11 53 31 97
180 25 82 48 151 52 155 3 4 11 0 16 -8 10 -14 7 -83 -7 -192 -6 -44 -5 -48
14 -48 32 0 39 24 47 148 4 61 12 112 17 112 26 0 31 -73 16 -234 -4 -39 16
-44 39 -10 23 35 25 191 4 304 -23 126 -1 358 32 347 18 -6 27 -55 33 -182 3
-66 10 -135 16 -153 11 -37 44 -50 78 -32 22 12 22 15 17 144 -3 72 -9 141
-12 154 -6 18 -4 22 14 22 11 0 21 -4 21 -9 0 -6 22 -35 49 -66 28 -31 70 -96
95 -145 25 -48 52 -93 61 -100 21 -18 43 -6 47 27 2 15 8 28 13 28 16 0 64
-105 75 -164 11 -61 24 -81 52 -81 24 0 48 54 48 110 0 22 4 40 8 40 5 0 19
-23 32 -50 l24 -51 105 3 c98 3 106 4 106 23 0 14 -8 21 -25 23 -38 6 -83 45
-110 95 -27 52 -22 82 12 72 24 -7 35 -18 152 -155 68 -79 69 -80 116 -80 33
0 55 -6 73 -21 29 -22 57 -100 57 -158 0 -86 49 -161 105 -161 31 0 45 20 59
87 9 47 16 59 41 73 30 16 53 62 54 107 2 60 41 77 41 17 0 -75 46 -101 76
-43 14 28 17 30 31 16 9 -8 19 -39 24 -67 14 -86 44 -102 94 -50 16 16 32 30
37 30 4 0 20 -18 35 -41 35 -53 61 -63 116 -44 63 22 84 19 130 -23 54 -50 75
-57 98 -36 26 24 23 52 -11 103 -42 61 -54 148 -23 158 17 6 72 -55 140 -155
54 -79 86 -104 112 -87 16 9 13 41 -5 76 -18 36 -16 39 22 42 28 2 29 1 34
-56 6 -64 26 -89 48 -60 6 9 12 25 12 35 0 32 18 20 56 -38 36 -54 115 -124
140 -124 19 0 52 47 64 89 6 24 6 49 -1 74 -11 42 -6 57 20 57 59 0 75 -109
28 -177 -33 -48 -34 -71 -3 -79 36 -9 61 10 84 64 22 51 47 80 59 68 4 -4 12
-21 18 -39 14 -46 54 -45 77 2 27 54 38 60 38 20 0 -22 -10 -48 -25 -69 -14
-19 -25 -44 -25 -57 0 -19 5 -23 28 -23 41 0 62 29 93 123 14 45 31 83 37 85
20 6 22 -35 7 -107 -18 -86 -19 -137 -4 -147 6 -4 40 22 77 60 66 66 66 66 53
98 -30 77 -30 140 1 159 62 40 154 -61 165 -181 8 -84 -5 -101 -70 -98 -50 3
-52 2 -55 -24 -4 -34 32 -105 56 -113 11 -3 42 -5 69 -4 33 1 58 -4 74 -14 51
-36 129 -9 176 62 13 19 22 35 20 37 -1 1 -24 -2 -50 -8 -59 -12 -71 -8 -97
34 -24 39 -25 64 -5 132 8 28 17 68 20 89 4 27 11 37 24 37 23 0 129 -112 137
-145 3 -14 1 -54 -5 -89 -9 -49 -8 -73 1 -102 14 -43 45 -56 67 -30 21 25 25
154 7 206 -18 54 -9 68 33 50 47 -19 89 -73 106 -138 27 -99 30 -107 47 -110
20 -4 38 45 38 107 0 55 14 84 30 61 5 -8 14 -40 20 -70 6 -30 19 -72 30 -92
11 -20 20 -44 20 -52 0 -30 20 -25 69 18 39 35 61 46 98 51 75 10 80 13 110
60 15 25 33 43 38 42 6 -2 12 -30 15 -63 8 -97 55 -80 89 33 21 72 40 78 90
30 20 -19 52 -44 71 -54 34 -19 35 -22 38 -87 2 -46 -2 -77 -13 -98 -31 -63
-11 -138 33 -124 31 10 47 47 67 151 10 50 24 97 32 106 10 12 40 18 113 24
77 5 102 10 109 23 8 14 13 11 38 -18 52 -62 74 -81 86 -77 20 6 20 46 -2 88
-23 43 -27 79 -10 79 63 0 101 -119 64 -207 -19 -44 -19 -67 -1 -82 35 -29 71
30 86 141 17 121 31 108 39 -39 6 -101 7 -108 28 -111 28 -4 53 41 53 95 0 56
10 83 30 83 26 0 68 -55 75 -98 4 -20 8 -43 10 -49 7 -21 48 -15 87 12 l37 25
-24 42 c-26 45 -31 68 -16 68 4 0 35 -32 67 -70 32 -39 69 -73 82 -77 36 -9
152 51 152 78 0 5 -23 34 -50 64 -53 58 -59 75 -35 95 31 26 120 -22 150 -81
9 -17 24 -29 35 -29 18 0 20 7 20 65 0 64 0 65 27 65 44 0 109 -38 161 -95 55
-60 82 -110 94 -175 9 -53 72 -120 111 -120 52 0 116 85 117 155 0 37 25 75
49 75 27 0 29 -7 19 -53 -5 -23 -6 -52 -3 -65 8 -32 36 -25 48 13 14 42 26 55
53 55 26 0 36 -16 54 -88 9 -36 15 -43 33 -40 12 2 34 22 50 46 16 23 33 42
38 42 5 0 16 -18 25 -40 18 -44 22 -46 50 -25 28 21 53 18 58 -7 14 -77 23
-102 38 -112 26 -16 38 3 44 70 8 91 9 91 59 45 28 -26 54 -41 70 -41 30 0 75
21 94 44 8 9 36 23 64 31 28 8 59 23 69 32 25 22 47 9 71 -41 23 -48 56 -61
105 -40 23 9 38 11 40 5 2 -6 12 -21 22 -33 16 -20 21 -21 44 -10 15 7 36 12
47 12 12 0 33 13 47 30 22 25 34 30 70 30 38 0 101 24 102 40 0 3 7 13 15 24
13 17 15 17 37 2 38 -27 64 -20 104 29 20 25 45 45 56 45 10 0 40 -19 66 -43
93 -86 120 -94 171 -51 38 32 53 23 71 -40 6 -24 25 -60 41 -79 52 -63 91 -55
137 27 27 47 38 57 72 66 51 14 70 44 77 120 5 54 10 64 44 94 85 78 243 74
271 -5 11 -31 47 -53 72 -43 7 3 27 22 44 43 26 33 56 49 187 105 86 36 160
66 165 66 5 0 24 -6 42 -14 18 -8 42 -17 53 -21 19 -6 18 -8 -7 -27 -16 -11
-28 -28 -28 -39 0 -50 70 -28 149 46 26 25 53 45 59 45 6 0 21 -15 33 -32 12
-18 29 -39 37 -46 46 -36 105 10 123 96 23 115 59 167 59 88 0 -41 30 -82 53
-73 25 9 42 193 24 262 -7 27 -3 36 26 70 l35 40 30 -66 c16 -37 35 -69 41
-73 6 -4 11 -29 11 -56 0 -56 11 -68 46 -49 13 7 26 10 29 7 3 -2 9 -29 15
-59 6 -30 24 -80 40 -112 35 -67 38 -97 10 -122 -25 -23 -46 -14 -64 29 -23
55 -69 70 -126 41 -48 -25 -74 -97 -54 -150 7 -18 55 -45 81 -45 51 0 376 156
420 202 78 81 67 191 -26 266 -69 55 -85 59 -129 29 -21 -15 -41 -27 -45 -27
-15 0 -6 73 18 147 40 126 33 152 -39 132 -29 -8 -42 -21 -66 -62 -48 -86 -51
-88 -46 -32 3 28 16 89 28 137 21 81 21 89 6 104 -25 25 -55 8 -96 -54 l-37
-55 -3 69 c-2 38 4 117 14 177 23 144 16 216 -26 271 -30 39 -60 85 -113 171
-14 22 -36 67 -50 100 -49 121 -169 288 -280 391 -70 65 -342 272 -451 343
-113 73 -300 146 -461 179 -27 6 -102 29 -166 51 -63 23 -149 45 -190 51 -41
5 -128 23 -194 40 -134 34 -310 53 -645 70 -263 13 -341 23 -442 55 -43 14
-130 32 -194 40 -139 18 -158 22 -205 46 -56 28 -147 48 -290 64 -140 15 -160
19 -247 54 -29 11 -85 23 -125 27 -39 3 -164 28 -277 55 -113 27 -325 69 -471
94 -207 34 -285 52 -345 76 -77 32 -85 33 -274 39 -151 5 -203 10 -232 23 -21
9 -51 17 -67 17 -17 0 -61 12 -98 26 -61 23 -77 25 -158 19 -81 -6 -99 -3
-185 23 -115 36 -216 49 -417 56 -157 6 -367 25 -558 52 -60 8 -193 21 -295
29 -102 7 -199 19 -215 25 -66 25 -205 50 -285 50 -47 0 -137 -7 -200 -16
-125 -17 -171 -14 -222 15 -18 11 -53 22 -78 26 -25 4 -61 16 -81 26 -60 30
-149 137 -223 269 -61 109 -69 131 -77 197 -6 52 -17 91 -39 130 -16 31 -30
66 -30 78 0 19 49 137 93 225 9 17 28 29 62 38 64 18 98 43 127 91 55 93 114
170 171 222 l61 56 4 74 c3 66 1 80 -25 129 -37 70 -106 120 -167 120 -51 0
-80 -19 -107 -72 -18 -35 -20 -55 -18 -137 l4 -96 -52 -28 c-47 -25 -54 -33
-69 -82 -10 -30 -22 -55 -27 -55 -6 0 -60 16 -121 37 -101 33 -122 36 -226 37
-109 1 -121 -1 -222 -37 -59 -21 -118 -37 -130 -35 -41 6 -50 82 -54 488 -1
201 -7 444 -13 540 -9 163 -12 182 -44 271 -20 52 -41 133 -47 180 -35 260
-35 260 -114 318 -29 22 -65 59 -79 83 -50 85 -189 197 -247 198 -8 0 -67 22
-130 49 -199 84 -253 91 -470 65z m455 -120 c57 -19 251 -117 279 -142 10 -9
36 -42 57 -73 24 -36 49 -61 68 -67 60 -21 103 -127 136 -334 8 -54 27 -128
41 -165 l27 -68 8 -485 c5 -267 13 -516 18 -555 15 -102 13 -230 -3 -268 -20
-48 -47 -68 -200 -152 -167 -91 -209 -120 -270 -181 -59 -59 -83 -105 -96
-190 -6 -37 -35 -126 -64 -198 -68 -168 -103 -277 -112 -348 -7 -63 -9 -64
-86 -74 -72 -9 -109 -31 -206 -118 -97 -89 -137 -113 -158 -95 -12 10 -11 16
11 45 14 18 25 39 25 47 0 8 11 31 25 51 14 20 25 43 25 51 0 28 -103 12 -122
-18 -4 -7 -8 -25 -8 -40 0 -15 -11 -49 -25 -75 -14 -26 -25 -56 -25 -68 0 -18
-7 -22 -57 -27 -102 -11 -102 -46 1 -84 89 -33 66 -53 -59 -53 l-70 0 -2 183
c-2 184 -26 524 -43 607 -5 25 -9 64 -10 86 0 26 -8 51 -21 68 -60 76 -72 245
-99 1356 -9 401 -17 480 -45 480 -19 0 -19 -45 -4 -513 11 -357 8 -457 -16
-457 -18 0 -23 37 -35 247 -10 183 -15 213 -31 213 -12 0 -11 -161 1 -545 19
-609 33 -802 70 -950 29 -120 39 -238 50 -595 6 -179 15 -374 21 -435 39 -415
37 -626 -5 -612 -6 2 -12 21 -13 43 -1 21 -7 104 -13 184 -6 80 -17 291 -24
468 -9 214 -18 328 -25 335 -21 21 -31 -14 -31 -115 0 -53 -4 -100 -10 -103
-5 -3 -19 15 -31 40 -12 25 -25 48 -30 50 -21 14 -33 -50 -40 -215 -8 -201 -7
-183 -18 -176 -4 3 -16 38 -26 77 -15 64 -16 83 -5 165 7 51 10 105 6 119 -20
78 -27 359 -9 341 2 -2 8 -30 13 -63 10 -74 36 -137 51 -127 9 5 9 46 3 158
-5 83 -9 216 -9 296 0 139 1 145 21 148 39 6 46 -20 56 -200 11 -198 17 -232
43 -237 17 -3 18 4 12 130 -9 182 -23 286 -46 328 -14 29 -20 70 -25 196 -4
88 -11 198 -16 245 -22 209 -70 1049 -70 1232 0 94 -5 118 -26 118 -34 0 -43
-87 -24 -250 5 -47 17 -222 25 -390 8 -168 24 -453 35 -633 26 -432 27 -413
-9 -431 -19 -10 -30 -26 -35 -47 -8 -42 -23 -59 -52 -59 -29 0 -40 25 -54 119
-12 82 -40 601 -40 731 0 54 -7 164 -15 246 -8 82 -19 226 -25 319 -7 94 -18
202 -25 241 -7 39 -11 90 -8 113 l6 41 -37 0 c-36 0 -36 0 -36 43 0 46 18 165
27 180 8 13 23 -14 23 -43 0 -14 6 -34 14 -45 8 -11 28 -70 46 -130 28 -97 34
-145 56 -415 34 -433 42 -561 54 -850 14 -350 21 -403 49 -386 25 16 2 713
-30 920 -11 72 -24 218 -29 325 -9 189 -18 264 -56 474 -17 91 -17 99 -1 132
21 44 34 44 43 0 7 -37 22 -55 28 -33 2 7 20 83 41 168 21 85 46 175 55 200
59 150 91 225 114 265 26 43 87 95 113 95 22 0 14 -35 -17 -76 -16 -21 -30
-43 -30 -49 0 -5 -29 -68 -64 -140 -66 -132 -146 -375 -146 -440 0 -29 23 -65
35 -53 3 2 18 56 34 119 30 120 87 282 127 361 13 26 24 54 24 62 0 20 30 29
37 11 7 -19 -4 -56 -53 -198 -39 -110 -39 -138 -3 -144 28 -5 40 15 55 88 17
77 32 115 70 164 12 17 31 53 41 80 61 159 220 310 377 356 39 12 84 30 100
42 20 14 59 24 135 33 58 6 117 16 130 21 27 11 87 2 166 -23z m-1030 -134 c3
-5 -7 -16 -22 -24 -15 -8 -44 -32 -64 -53 -44 -46 -123 -201 -144 -278 -19
-74 -70 -184 -112 -243 -18 -26 -33 -54 -33 -63 0 -19 -24 -42 -33 -32 -11 11
-8 85 7 138 36 133 285 529 349 555 30 12 45 12 52 0z m-234 -113 c-13 -25
-51 -53 -51 -38 0 14 52 73 58 66 3 -3 0 -15 -7 -28z m-58 -95 c-4 -9 -16 -30
-29 -47 -12 -16 -31 -49 -43 -72 -12 -24 -26 -43 -31 -43 -13 0 -13 4 4 44 23
55 86 147 96 141 5 -3 6 -13 3 -23z m-162 -1469 c8 -128 5 -237 -8 -273 -4
-11 -8 -8 -15 10 -12 30 -24 356 -14 395 14 57 29 5 37 -132z m3284 95 c66
-63 84 -108 61 -162 -29 -70 -86 -81 -152 -31 -41 31 -64 82 -64 140 0 38 5
52 29 76 16 16 39 29 50 29 11 0 45 -24 76 -52z m-2855 -274 c0 -23 -5 -46
-10 -49 -18 -11 -48 91 -35 122 12 32 45 -21 45 -73z m2736 18 c6 -4 16 -17
23 -29 23 -45 -47 -124 -83 -93 -23 18 -37 77 -26 106 7 19 17 24 42 24 18 0
38 -4 44 -8z m-383 -133 c54 -16 132 -34 174 -39 54 -6 81 -13 90 -26 17 -23
9 -33 -38 -40 -51 -9 -100 -63 -145 -160 -18 -41 -39 -74 -45 -74 -19 0 -79
72 -106 130 -35 74 -51 90 -85 90 -49 0 -68 -16 -68 -59 0 -51 36 -102 132
-191 52 -48 85 -88 102 -123 14 -29 41 -77 60 -106 20 -29 36 -57 36 -62 0 -5
-16 -27 -36 -49 -46 -51 -61 -51 -193 1 -199 77 -353 95 -717 85 -277 -8 -270
-10 -262 74 10 99 98 193 263 281 44 23 98 58 119 76 55 46 243 141 346 174
47 15 103 35 125 43 52 21 121 14 248 -25z m-2773 -156 c0 -30 -10 -54 -21
-47 -10 6 -12 77 -2 87 9 10 23 -13 23 -40z m417 -320 c-3 -10 -5 -4 -5 12 0
17 2 24 5 18 2 -7 2 -21 0 -30z m37 -127 c18 -55 21 -126 6 -126 -18 0 -32 43
-37 118 -6 86 4 88 31 8z m1881 -101 c322 -56 557 -203 581 -364 5 -34 16 -55
45 -84 22 -21 39 -47 39 -60 0 -35 -27 -66 -66 -73 -21 -4 -42 -16 -52 -31
-79 -116 -247 -241 -347 -258 -22 -4 -59 -18 -82 -31 -74 -42 -66 -104 12
-104 35 0 71 -22 62 -37 -4 -6 -39 -13 -78 -16 -64 -5 -81 -12 -154 -57 -45
-27 -88 -50 -94 -50 -27 0 -129 -60 -134 -80 -6 -23 -20 -20 -77 16 -19 12
-52 27 -72 34 -21 6 -38 15 -38 20 0 15 -63 30 -127 30 -98 0 -103 5 -103 102
0 70 -3 85 -22 105 -26 28 -20 37 16 23 36 -13 102 -13 129 1 12 7 52 35 90
63 76 58 93 91 83 164 -17 119 -106 232 -183 232 -30 0 -98 -31 -141 -63 -24
-19 7 -37 64 -37 59 0 79 -15 39 -30 -37 -14 -122 -97 -152 -147 -14 -24 -28
-43 -33 -43 -15 0 -29 26 -60 110 -23 63 -32 102 -32 150 0 76 10 106 46 139
15 14 26 35 26 50 0 56 22 102 71 151 54 54 74 61 82 30 7 -28 33 -25 76 9 56
44 71 49 182 66 120 18 136 27 97 59 -16 12 -28 26 -28 30 0 13 229 0 335 -19z
m583 -160 c32 -27 85 -135 80 -163 -6 -29 -22 -19 -50 33 -15 28 -53 74 -85
102 l-58 53 42 0 c30 0 50 -7 71 -25z m-2738 -102 c0 -41 -3 -54 -10 -43 -11
17 -13 61 -4 84 11 28 14 18 14 -41z m-76 -75 c11 -162 28 -729 22 -735 -13
-14 -17 12 -27 198 -5 107 -14 226 -19 264 -11 82 -13 339 -3 348 16 17 22 2
27 -75z m446 37 c0 -14 -4 -25 -10 -25 -11 0 -14 33 -3 43 11 11 13 8 13 -18z
m2767 -262 c3 -7 -8 -15 -24 -18 -15 -4 -58 -18 -96 -32 -90 -34 -147 -41
-147 -20 0 19 63 54 130 73 54 15 132 14 137 -3z m630 -48 c3 -9 4 -18 1 -20
-2 -2 -78 -16 -168 -31 -147 -25 -169 -31 -214 -62 -49 -33 -325 -162 -347
-162 -6 0 -9 10 -7 22 3 23 10 27 108 73 30 14 89 43 130 65 174 93 478 163
497 115z m-498 -20 c-20 -21 -287 -122 -366 -140 -34 -8 -71 -19 -83 -25 -12
-6 -33 -10 -48 -8 l-27 3 36 39 c33 37 41 40 107 47 38 4 88 17 110 28 57 29
200 70 247 70 35 1 38 -1 24 -14z m562 -65 c-13 -11 -34 -20 -48 -20 -13 0
-39 -11 -58 -25 -18 -14 -57 -34 -87 -45 -29 -10 -74 -30 -98 -44 -25 -14 -52
-26 -60 -26 -27 0 -124 -50 -176 -91 -57 -44 -73 -47 -98 -20 -29 32 -15 53
73 103 46 27 97 59 112 73 16 13 45 29 66 36 44 14 348 77 378 78 19 0 18 -1
-4 -19z m-3431 -40 c0 -21 -4 -41 -9 -44 -11 -7 -20 36 -13 69 7 37 22 20 22
-25z m1206 -5 c10 -16 14 -34 10 -50 -10 -38 -66 -35 -100 6 -31 37 -32 53 -6
79 19 19 22 19 50 5 16 -8 37 -27 46 -40z m2414 15 c0 -6 -8 -13 -17 -17 -10
-3 -56 -20 -103 -39 -76 -29 -124 -39 -170 -35 -20 2 26 41 49 41 9 1 34 8 56
16 101 40 185 55 185 34z m774 -16 c28 -11 17 -24 -19 -24 -37 0 -86 -18 -309
-112 -97 -40 -151 -70 -180 -96 -23 -22 -64 -52 -92 -67 -27 -15 -87 -52 -134
-82 -46 -29 -91 -52 -100 -51 -8 2 -19 18 -25 36 -6 20 -15 32 -27 32 -62 0
-413 -168 -512 -245 -32 -25 -71 -48 -85 -51 -112 -25 -243 -87 -308 -147 -43
-39 -173 -198 -218 -266 -11 -16 -68 -93 -127 -170 -70 -91 -121 -171 -148
-228 -61 -130 -64 -136 -78 -141 -7 -2 -19 12 -28 34 -15 36 -14 41 17 141 27
86 31 108 21 124 -19 29 -15 46 28 128 22 42 50 101 63 132 28 65 74 119 125
150 20 12 66 41 102 64 71 45 120 69 120 57 0 -4 -39 -50 -86 -102 -98 -108
-239 -287 -256 -325 -8 -19 -8 -29 0 -37 16 -16 60 -1 73 25 48 91 412 502
495 559 18 13 36 29 39 36 8 22 -11 45 -47 58 -18 6 -33 17 -33 25 0 8 29 29
65 48 36 18 108 57 160 86 104 58 137 69 160 55 25 -16 1 -38 -105 -97 -55
-30 -110 -64 -123 -76 -20 -19 -21 -23 -7 -36 13 -13 32 -6 172 66 87 44 174
86 193 93 19 7 51 25 70 40 59 46 90 57 250 90 103 21 174 41 212 61 117 59
505 194 598 207 36 5 66 10 67 11 1 0 8 -2 17 -5z m-359 -14 c-3 -5 -17 -10
-30 -10 -13 0 -36 -5 -51 -10 -33 -13 -46 -3 -20 16 23 16 111 20 101 4z m969
-39 c33 -13 5 -20 -120 -30 -65 -5 -132 -14 -147 -20 -42 -16 -62 -15 -47 3
31 38 253 71 314 47z m-4554 -10 c0 -5 -6 -14 -14 -20 -16 -13 -32 2 -21 19 8
12 35 13 35 1z m3265 -16 c-16 -14 -37 -25 -45 -25 -8 0 -33 -12 -55 -25 -45
-28 -65 -31 -65 -11 0 28 106 84 160 85 l35 0 -30 -24z m765 -14 c0 -7 -63
-27 -142 -45 -30 -7 -193 -113 -222 -145 -30 -33 -46 -27 -46 20 0 58 52 110
135 134 33 9 76 23 95 30 40 15 180 20 180 6z m820 -6 c0 -33 -100 -47 -136
-20 -29 22 -2 35 74 35 49 0 62 -3 62 -15z m-2775 -30 c0 -28 -59 -56 -109
-53 -48 4 -56 21 -21 44 55 36 130 41 130 9z m2076 -21 c23 -27 -2 -45 -146
-105 -101 -43 -150 -69 -179 -97 -47 -45 -149 -122 -161 -122 -5 0 -29 -17
-54 -38 -58 -49 -79 -60 -147 -78 -72 -19 -178 -73 -244 -125 -49 -39 -233
-129 -294 -145 -20 -5 -26 -2 -26 9 0 17 66 60 121 78 51 18 343 195 429 262
41 31 113 84 160 117 47 33 117 83 155 110 101 72 153 97 257 124 113 30 112
30 129 10z m439 7 c0 -4 -71 -32 -157 -60 -172 -57 -250 -98 -290 -149 -15
-20 -51 -46 -87 -63 -73 -34 -144 -82 -206 -139 -25 -23 -78 -61 -119 -85 -70
-42 -97 -54 -196 -85 -22 -7 -54 -22 -71 -34 -68 -45 -174 -137 -190 -165 -9
-16 -34 -39 -56 -51 -37 -21 -38 -21 -38 -1 0 82 -42 70 -159 -46 -103 -104
-202 -180 -220 -169 -13 8 -15 46 -2 46 4 0 69 58 144 129 134 128 138 130
290 205 84 42 158 76 164 76 10 0 119 68 213 133 25 17 72 49 105 71 33 22 98
72 145 112 98 83 100 84 216 125 48 18 115 51 149 74 67 46 102 60 185 74 73
12 180 13 180 2z m-1660 -26 c-18 -17 -180 -81 -232 -90 -52 -10 -51 14 1 43
38 22 173 59 221 61 21 1 22 -1 10 -14z m-3152 -30 c4 -3 -2 -13 -12 -21 -26
-18 -160 -20 -154 -1 10 29 141 47 166 22z m4936 7 c2 -4 -2 -21 -9 -38 -14
-34 -21 -37 -140 -54 -106 -15 -223 -72 -312 -151 -37 -33 -85 -69 -107 -80
-21 -11 -82 -51 -135 -89 -111 -79 -135 -90 -197 -90 -51 0 -51 13 -1 34 18 7
54 32 81 55 60 52 146 111 211 144 28 13 77 49 111 79 33 30 74 59 90 66 48
19 307 114 334 122 33 11 68 12 74 2z m565 -8 c12 -11 -13 -32 -44 -38 -78
-15 -429 -55 -437 -50 -14 9 -9 33 10 43 9 5 96 18 192 30 96 11 189 22 205
24 28 3 65 -1 74 -9z m-5177 -30 c17 -60 -17 -186 -62 -229 -37 -35 -41 -16
-9 45 14 26 26 76 32 131 10 92 23 110 39 53z m-602 -12 c0 -15 -4 -33 -9 -41
-12 -19 -25 22 -17 55 8 31 26 22 26 -14z m2440 -10 c0 -16 -44 -49 -155 -119
-162 -102 -323 -224 -475 -362 -74 -68 -151 -135 -170 -149 -19 -14 -65 -56
-101 -94 -49 -50 -72 -68 -92 -68 l-27 0 30 47 c31 49 39 83 18 83 -29 0 -93
-60 -128 -120 -17 -28 -21 -2 -5 29 29 57 1 66 -66 22 -45 -31 -57 -33 -42 -8
15 26 226 218 288 262 34 25 94 58 134 74 39 16 91 45 114 64 60 49 328 222
401 259 128 65 276 108 276 80z m1610 -18 c0 -28 -35 -94 -50 -94 -12 0 -30
34 -30 56 0 24 39 64 62 64 13 0 18 -8 18 -26z m2452 -2 c6 -6 8 -18 5 -26 -5
-13 -24 -16 -101 -16 -51 0 -129 -7 -172 -15 -84 -15 -230 -30 -409 -40 -168
-10 -272 -24 -365 -50 -130 -36 -150 -39 -150 -22 0 16 67 47 101 47 11 0 33
7 49 15 83 43 430 88 691 90 178 1 208 3 230 19 26 19 101 18 121 -2z m-3722
-22 c0 -5 -11 -17 -26 -26 -28 -19 -51 -7 -41 20 7 17 67 23 67 6z m80 -10 c0
-5 -12 -10 -26 -10 -14 0 -23 4 -19 10 3 6 15 10 26 10 10 0 19 -4 19 -10z
m3850 -31 c0 -12 -37 -12 -44 0 -7 11 14 20 32 13 6 -2 12 -8 12 -13z m-6519
-9 c25 -14 24 -26 -3 -44 -47 -29 -67 -29 -78 -2 -5 14 -7 33 -4 41 7 17 56
20 85 5z m2274 0 c13 -21 -101 -115 -173 -144 -122 -49 -150 -19 -40 42 40 22
98 57 128 76 58 37 75 42 85 26z m2650 -9 c3 -6 -3 -15 -14 -21 -32 -16 -152
-107 -188 -139 -34 -32 -143 -91 -168 -91 -8 0 -39 -24 -68 -53 -52 -52 -140
-107 -152 -95 -12 12 48 109 86 139 20 16 63 42 96 58 37 19 74 48 101 79 28
34 52 53 74 57 18 4 53 18 77 32 68 40 142 55 156 34z m-5499 -571 c5 -488 3
-533 -28 -502 -10 10 -13 116 -13 505 1 271 5 506 9 522 l9 30 9 -35 c5 -19
11 -253 14 -520z m6834 540 c32 -20 -10 -32 -141 -41 -261 -16 -292 -9 -111
27 115 23 228 30 252 14z m-1211 -19 c17 -11 -2 -22 -78 -45 -66 -19 -61 -19
-61 -1 0 31 106 67 139 46z m1956 -2 c11 -17 -4 -24 -25 -11 -15 9 -30 9 -65
0 -45 -12 -62 -8 -50 11 3 6 35 11 70 11 35 0 67 -5 70 -11z m-6866 -8 c8 -5
11 -16 8 -26 -5 -12 -17 -15 -54 -13 -51 3 -68 23 -31 37 30 12 59 13 77 2z
m6623 -18 c29 -29 19 -38 -62 -59 -104 -26 -236 -5 -254 41 -12 31 48 45 176
43 107 -3 120 -5 140 -25z m-3058 -29 c-21 -32 -120 -102 -201 -143 l-63 -31
0 25 c0 26 72 115 94 115 6 0 43 14 81 30 39 16 78 29 88 29 16 1 17 0 1 -25z
m-3836 -18 c3 -20 0 -27 -10 -24 -7 3 -14 17 -16 32 -3 20 0 27 10 24 7 -3 14
-17 16 -32z m5777 24 c6 -11 -51 -50 -74 -50 -7 0 -52 -17 -100 -39 -47 -21
-101 -41 -118 -44 -18 -4 -75 -25 -127 -47 -52 -22 -105 -40 -118 -40 -22 1
-21 3 11 30 106 90 500 233 526 190z m750 -35 c0 -12 -50 -19 -71 -11 -9 3
-12 11 -9 16 8 14 80 9 80 -5z m-5965 -18 c0 -17 -38 -53 -46 -44 -4 3 -4 18
0 32 7 26 46 37 46 12z m1035 -17 c18 -20 11 -25 -19 -14 -17 6 -23 34 -8 34
5 0 17 -9 27 -20z m1775 11 c0 -24 -192 -144 -265 -167 -53 -15 -77 -4 -52 24
26 29 158 101 234 128 76 27 83 28 83 15z m2648 0 c18 -11 -51 -40 -191 -81
-110 -33 -151 -34 -126 -4 7 8 26 21 43 28 38 15 179 53 221 59 17 2 32 5 35
5 3 1 11 -2 18 -7z m386 0 c3 -5 -6 -12 -20 -15 -30 -8 -53 2 -33 15 18 11 46
11 53 0z m-1140 -36 c-10 -9 -46 -34 -79 -57 -33 -23 -101 -72 -152 -110 -51
-38 -116 -77 -145 -87 -86 -30 -185 -83 -318 -173 -80 -53 -144 -89 -175 -97
-117 -30 -193 -57 -274 -98 -103 -53 -133 -53 -77 0 48 45 191 117 232 117 33
0 54 15 54 40 0 23 60 88 66 72 11 -25 35 -41 52 -35 9 4 58 33 109 65 51 32
109 66 130 75 21 10 64 35 95 55 31 21 61 38 67 38 5 0 42 22 83 48 194 129
321 192 342 171 6 -5 3 -15 -10 -24z m-5044 -4 c0 -21 -53 -71 -75 -71 -26 0
-28 45 -2 78 5 6 25 12 43 12 27 0 34 -4 34 -19z m4840 10 c0 -11 -141 -101
-228 -146 -32 -16 -72 -40 -88 -51 -16 -12 -69 -43 -119 -70 -49 -26 -103 -58
-118 -71 -57 -46 -107 -42 -82 7 17 34 56 63 106 79 20 6 69 32 110 58 95 59
379 203 402 203 9 0 17 -4 17 -9z m-1540 -11 c0 -18 -63 -81 -107 -107 -24
-14 -71 -34 -104 -44 -77 -24 -132 -56 -246 -142 -87 -65 -158 -101 -176 -90
-12 7 11 31 64 67 25 17 83 59 129 94 45 34 85 62 90 62 4 0 34 16 66 35 33
20 78 41 100 46 23 6 63 28 89 50 44 36 95 52 95 29z m2695 -10 c10 -16 -64
-56 -175 -95 -58 -21 -148 -57 -200 -82 -86 -40 -99 -43 -150 -37 -44 4 -65 1
-104 -16 -93 -40 -177 -37 -113 4 47 31 325 125 607 205 118 34 126 35 135 21z
m1070 0 c6 -10 -14 -16 -92 -25 -29 -3 -95 -21 -148 -40 -53 -19 -106 -35
-119 -35 -13 0 -95 -18 -182 -40 -86 -21 -161 -37 -164 -35 -4 3 -1 33 8 67
l15 63 91 0 c52 0 138 10 201 23 128 25 157 28 287 30 54 1 99 -2 103 -8z
m-715 -29 c0 -17 -44 -41 -75 -41 -16 0 -54 -11 -83 -25 -67 -31 -72 -31 -72
0 0 28 32 53 83 65 47 11 147 12 147 1z m-6931 -68 c-1 -49 -2 -54 -9 -29 -8
26 -3 86 6 86 2 0 4 -26 3 -57z m2469 35 c-6 -17 -47 -38 -78 -38 -14 0 -34
-7 -44 -15 -11 -8 -27 -15 -35 -15 -9 0 -40 -11 -68 -25 -57 -26 -73 -20 -48
19 21 32 78 58 138 64 26 3 50 9 53 13 9 15 86 11 82 -3z m260 -10 c-2 -15
-13 -24 -37 -31 -46 -12 -60 5 -25 32 36 28 66 28 62 -1z m272 14 c0 -11 -39
-47 -67 -61 -32 -17 -31 12 2 44 23 24 65 34 65 17z m4940 1 c0 -15 -35 -43
-54 -43 -27 0 -68 28 -61 41 7 10 115 13 115 2z m-7549 -53 c6 0 24 7 40 16
51 26 53 11 6 -45 -48 -56 -50 -65 -60 -215 -3 -52 -24 -58 -33 -10 -7 40 2
263 13 291 5 14 8 12 16 -10 5 -15 13 -27 18 -27z m7143 24 c9 -3 16 -12 16
-19 0 -18 -23 -25 -81 -25 -62 0 -63 15 -1 33 26 8 48 15 49 16 1 1 8 -2 17
-5z m-7426 -21 c5 -17 -26 -29 -40 -15 -6 6 -7 15 -3 22 9 14 37 9 43 -7z
m5780 5 c-3 -7 -72 -40 -154 -73 -82 -33 -187 -80 -234 -104 -108 -55 -364
-224 -464 -306 -45 -36 -134 -81 -143 -71 -3 3 5 19 18 35 113 137 147 181
158 208 15 36 27 43 146 84 104 35 161 67 217 117 37 33 48 37 117 43 45 4
119 21 181 43 110 37 165 45 158 24z m2266 -3 c-2 -18 -58 -39 -115 -43 -69
-5 -83 10 -37 38 25 16 47 20 93 18 33 -2 59 -7 59 -13z m429 -17 c40 -6 74
-13 77 -15 23 -20 -134 -31 -222 -17 -37 6 -51 27 -25 37 22 9 97 7 170 -5z
m864 -11 c28 -28 5 -37 -133 -52 -82 -9 -177 -28 -255 -50 -68 -20 -145 -39
-171 -42 -42 -5 -48 -3 -48 12 0 25 29 55 52 55 10 0 51 7 91 15 40 8 112 19
161 24 54 7 99 17 115 28 44 30 54 33 114 30 37 -2 63 -9 74 -20z m-8862 -27
c-16 -30 -48 -54 -58 -43 -14 13 34 73 59 73 13 0 12 -4 -1 -30z m2220 11
c-24 -24 -190 -132 -277 -181 -75 -42 -201 -166 -246 -242 -18 -31 -53 -102
-78 -159 -25 -57 -52 -111 -61 -121 -26 -29 -36 -7 -28 58 7 61 59 171 151
319 45 73 56 84 124 122 41 23 120 70 174 105 136 87 196 117 231 118 29 0 29
0 10 -19z m-255 -20 c0 -17 -104 -91 -129 -91 -21 0 -11 26 22 57 57 54 107
70 107 34z m6298 -5 c4 -17 0 -18 -33 -13 -43 7 -50 11 -40 27 12 19 69 8 73
-14z m-2394 -11 c-1 -11 -61 -44 -80 -45 -20 0 -24 28 -7 45 17 18 89 17 87 0z
m-5688 -30 c-7 -18 -26 -20 -26 -2 0 18 24 41 28 27 2 -6 1 -17 -2 -25z m3989
14 c4 -6 5 -13 2 -16 -3 -2 -93 -26 -200 -53 -106 -26 -212 -57 -235 -69 -42
-22 -92 -28 -92 -12 0 13 88 66 130 79 19 6 64 20 100 32 137 46 280 65 295
39z m2961 -21 c49 -23 44 -25 -166 -72 -63 -14 -132 -29 -152 -35 -21 -5 -38
-5 -38 -1 0 12 69 64 118 89 79 40 175 47 238 19z m-5444 -40 c-24 -22 -46
-37 -50 -33 -4 4 13 25 36 47 24 22 46 37 50 33 4 -4 -13 -25 -36 -47z m4823
36 c-11 -9 -74 -43 -140 -76 -66 -33 -150 -80 -187 -104 l-68 -44 0 29 c0 53
38 93 120 124 146 55 245 87 270 86 25 0 25 0 5 -15z m1143 -13 c25 -15 -161
-71 -237 -71 -42 0 -51 9 -28 29 20 16 146 43 232 49 11 1 26 -2 33 -7z m1607
-2 c170 -21 216 -56 67 -51 -157 5 -385 24 -411 33 -20 8 -23 12 -11 19 21 13
246 12 355 -1z m-8235 -14 c0 -19 -41 -37 -55 -23 -7 6 -3 14 9 24 26 18 46
18 46 -1z m5708 10 c-2 -3 -51 -28 -108 -55 -57 -28 -115 -59 -129 -69 -36
-26 -373 -212 -451 -250 -35 -17 -73 -40 -84 -50 -68 -61 -280 -186 -382 -225
-122 -46 -272 -192 -328 -318 -32 -72 -109 -175 -138 -183 -48 -15 -81 -61
-102 -144 -6 -24 -17 -47 -25 -49 -11 -4 -13 5 -8 43 12 87 40 135 223 385 63
85 155 175 249 242 55 40 245 142 285 153 14 4 47 24 75 44 27 20 71 50 97 66
26 17 84 55 130 86 46 31 98 61 115 67 18 6 61 31 95 56 121 86 389 205 462
206 16 0 27 -2 24 -5z m1982 -15 c-20 -13 -50 -13 -50 0 0 6 15 10 33 10 24 0
28 -3 17 -10z m-9292 -42 c-3 -47 -21 -55 -26 -12 -4 31 4 54 18 54 7 0 10
-17 8 -42z m3557 12 c-9 -10 -43 -32 -76 -49 -47 -26 -59 -29 -59 -16 0 17 78
76 113 86 32 8 41 0 22 -21z m5076 9 c103 -26 128 -37 108 -50 -21 -13 -68
-11 -123 6 -32 10 -92 15 -173 15 -120 0 -161 12 -88 26 19 3 38 10 41 15 10
17 149 9 235 -12z m-2741 -43 c0 -19 -24 -42 -63 -63 -18 -9 -46 -26 -62 -39
-17 -13 -65 -39 -105 -58 -41 -19 -102 -57 -135 -85 -56 -48 -85 -62 -85 -42
0 22 84 112 127 137 27 14 71 40 98 57 73 45 195 107 211 107 8 0 14 -6 14
-14z m725 4 c3 -6 -21 -27 -55 -48 -148 -90 -241 -155 -320 -224 -47 -41 -109
-93 -137 -115 -29 -23 -96 -81 -148 -130 -93 -85 -145 -123 -173 -123 -28 0
-5 35 45 70 53 36 112 89 149 131 11 13 42 41 68 62 46 38 47 40 32 63 -24 35
-20 45 37 102 40 39 71 59 129 81 42 16 112 48 157 71 72 36 162 67 198 69 6
1 15 -4 18 -9z m2960 0 c82 -12 135 -28 135 -41 0 -5 -55 -9 -124 -9 -67 0
-136 -4 -152 -10 -16 -5 -87 -16 -159 -24 -82 -9 -167 -26 -230 -46 -114 -36
-298 -58 -355 -43 l-35 10 30 15 c17 9 66 21 108 27 43 6 146 31 230 55 236
68 398 88 552 66z m-1325 -10 c0 -17 -35 -29 -136 -46 -54 -9 -131 -29 -171
-45 -64 -25 -248 -69 -292 -69 -9 0 -28 -6 -42 -14 -14 -7 -38 -16 -54 -20
-15 -4 -42 -18 -59 -31 -47 -36 -119 -65 -187 -76 -89 -14 -163 -45 -251 -105
-43 -29 -91 -60 -106 -68 -44 -23 -81 -66 -92 -107 -11 -40 -41 -69 -72 -69
-23 0 -49 40 -42 66 12 44 313 260 438 314 26 11 86 31 134 46 48 15 122 44
165 66 61 30 98 41 165 50 48 5 123 21 167 33 44 13 150 35 235 50 85 15 157
29 159 31 9 8 41 4 41 -6z m-1930 -10 c0 -12 -54 -40 -95 -51 -16 -4 -68 -23
-115 -43 -47 -20 -99 -36 -117 -36 -21 0 -54 -15 -97 -45 -100 -68 -206 -119
-220 -105 -14 14 29 51 94 81 55 24 101 48 161 82 56 33 324 126 362 127 15 0
27 -4 27 -10z m1270 -8 c0 -10 -186 -100 -340 -163 -69 -28 -155 -67 -192 -87
-64 -34 -94 -37 -73 -7 19 27 293 160 435 211 152 54 170 59 170 46z m-4480
-12 c0 -6 -11 -22 -25 -35 -13 -14 -29 -25 -35 -25 -19 0 -10 39 12 54 26 18
48 21 48 6z m1380 3 c-1 -10 -77 -63 -91 -63 -26 0 -499 -495 -499 -522 0 -5
-35 -63 -77 -131 -43 -67 -112 -186 -153 -266 -41 -79 -79 -144 -85 -145 -5
-1 -11 13 -13 31 -2 21 12 64 42 131 25 54 46 108 46 119 0 12 20 48 44 80 24
33 49 70 55 82 7 12 40 56 75 99 34 42 77 100 96 127 19 28 58 78 87 113 33
40 53 72 53 88 0 44 108 135 235 198 61 30 117 57 125 59 23 8 60 8 60 0z
m5566 -8 c176 -14 283 -33 328 -57 34 -18 -1 -26 -153 -33 -209 -11 -221 -10
-297 23 -38 17 -89 35 -114 42 -75 19 -80 21 -75 31 9 13 96 11 311 -6z
m-5418 -17 c-7 -20 -164 -106 -174 -95 -11 11 6 26 74 67 67 40 107 51 100 28z
m962 4 c0 -17 -155 -100 -166 -89 -15 15 10 40 68 67 62 30 98 38 98 22z
m1610 -2 c0 -5 -3 -10 -8 -10 -4 0 -31 -17 -59 -38 -62 -47 -232 -136 -241
-127 -9 9 23 33 83 60 28 13 68 35 90 51 50 34 118 74 128 74 4 0 7 -4 7 -10z
m1193 -17 c11 -10 -71 -54 -103 -55 -38 -1 -44 5 -36 37 6 23 10 25 70 25 34
0 66 -3 69 -7z m-5063 -23 c0 -5 -14 -17 -31 -26 -40 -20 -62 -4 -28 20 26 18
59 21 59 6z m310 2 c0 -4 -50 -57 -111 -117 -183 -182 -323 -372 -445 -607
-32 -60 -64 -112 -72 -115 -40 -16 -43 85 -6 160 15 29 68 111 119 182 112
158 121 173 106 188 -8 8 -41 -20 -122 -106 -62 -64 -115 -117 -120 -117 -20
0 -7 49 27 106 51 85 119 151 199 191 39 20 88 48 110 63 22 15 58 35 78 44
21 8 57 31 79 51 38 32 131 85 150 85 4 0 8 -3 8 -8z m4920 -20 c0 -28 -29
-49 -77 -57 -79 -13 -113 19 -50 48 49 23 59 25 95 26 25 1 32 -3 32 -17z
m999 1 c-40 -48 -215 -103 -234 -73 -3 6 -21 10 -38 10 -35 0 -66 15 -54 26 3
4 54 11 111 16 57 5 122 15 143 23 21 7 49 14 62 14 21 1 22 -1 10 -16z
m-5449 -8 c0 -25 -111 -97 -126 -82 -10 10 20 45 60 71 45 29 66 33 66 11z
m-170 -3 c0 -12 -41 -48 -62 -55 -32 -11 -20 22 15 43 35 22 47 25 47 12z
m5874 -6 c46 -19 53 -34 19 -41 -15 -3 -50 -13 -77 -21 -66 -19 -156 -19 -156
1 0 8 8 15 19 15 10 0 35 14 56 30 42 34 85 39 139 16z m-1608 -28 c14 -23
-29 -38 -110 -38 -117 0 -139 21 -44 39 65 13 146 13 154 -1z m2402 -44 c28
-19 52 -41 52 -50 0 -13 -8 -15 -52 -9 -79 10 -136 57 -109 89 17 21 41 14
109 -30z m-8678 -5 c0 -6 -20 -38 -45 -71 -25 -33 -45 -64 -45 -69 0 -5 -4 -9
-10 -9 -17 0 -11 51 11 86 30 49 89 90 89 63z m4540 -24 c-23 -27 -180 -129
-187 -121 -11 11 80 91 142 127 48 27 70 24 45 -6z m3778 14 c62 -24 -27 -43
-141 -30 -67 7 -106 25 -76 35 46 16 169 13 217 -5z m-4978 -2 c0 -26 -39 -49
-87 -54 -41 -3 -45 -2 -29 9 10 7 32 23 50 35 36 25 66 29 66 10z m735 3 c14
-23 -135 -150 -177 -150 -22 0 -22 3 -3 39 18 36 69 79 120 102 46 22 52 22
60 9z m1843 -2 c-3 -7 -27 -21 -54 -31 -27 -9 -67 -24 -90 -32 -23 -9 -72 -37
-110 -62 -68 -46 -230 -123 -259 -123 -8 0 -37 -14 -65 -31 -51 -31 -80 -33
-80 -4 0 35 22 55 78 71 129 35 183 57 224 88 68 52 163 96 252 116 100 23
109 23 104 8z m-4040 -20 c-2 -6 -19 -23 -38 -37 -35 -27 -33 -14 3 27 22 24
41 30 35 10z m1040 -30 c-36 -52 -187 -187 -235 -211 -30 -15 -67 -9 -55 9 4
6 32 27 63 47 69 43 73 49 74 112 l0 50 55 12 c30 6 70 12 88 12 l33 1 -23
-32z m4425 16 c53 -9 47 -31 -10 -40 -65 -10 -259 -11 -269 -1 -19 18 23 32
114 38 53 3 104 6 112 7 8 1 32 -1 53 -4z m-9036 -20 c5 -14 -22 -25 -42 -18
-8 4 -15 13 -15 21 0 17 51 14 57 -3z m8291 10 c34 -10 26 -32 -15 -43 -205
-54 -240 -59 -277 -45 -20 8 -21 38 -2 53 34 28 231 51 294 35z m-7130 -50 c1
-16 -8 -47 -21 -69 -26 -47 -57 -59 -57 -23 0 92 70 175 78 92z m3202 8 c0
-10 -135 -108 -204 -147 -26 -16 -68 -53 -92 -84 -72 -90 -171 -243 -183 -282
-24 -74 -80 -100 -129 -59 l-24 20 46 58 c25 32 53 81 61 108 16 55 61 123 97
148 13 9 64 45 114 81 95 66 273 165 299 165 8 0 15 -4 15 -8z m3543 -14 c8
-24 -13 -48 -43 -48 -34 0 -36 6 -14 38 16 24 50 30 57 10z m2129 2 c212 -18
427 -76 470 -127 18 -23 5 -23 -68 -3 -38 10 -113 26 -167 35 -54 8 -113 23
-130 33 -27 15 -61 17 -237 17 -146 0 -215 -4 -240 -13 -22 -8 -121 -17 -260
-23 -124 -5 -259 -16 -301 -24 -94 -18 -109 -19 -109 -2 0 18 43 37 83 37 18
0 38 5 43 10 6 6 64 13 130 16 65 3 150 12 188 21 127 29 398 40 598 23z
m-5061 -74 c-23 -30 -59 -69 -80 -87 -22 -17 -51 -48 -65 -69 -14 -21 -44 -47
-68 -59 -24 -11 -94 -59 -157 -106 -62 -47 -122 -85 -132 -85 -10 0 -21 10
-24 21 -13 40 26 71 190 155 141 71 163 86 196 130 49 66 171 182 176 167 3
-7 -14 -37 -36 -67z m180 45 c-15 -26 -69 -71 -88 -71 -14 0 -14 3 -1 23 16
23 74 67 90 67 5 0 4 -9 -1 -19z m-4147 -28 c-4 -21 -12 -49 -18 -63 -10 -24
-11 -23 -14 17 -3 43 11 83 29 83 6 0 7 -14 3 -37z m7496 22 c0 -20 -45 -37
-89 -33 -72 6 -33 46 47 47 31 1 42 -3 42 -14z m-7800 -14 c0 -11 -4 -23 -10
-26 -6 -4 -10 5 -10 19 0 14 5 26 10 26 6 0 10 -9 10 -19z m2010 12 c0 -12
-43 -53 -57 -53 -21 0 -15 17 15 39 28 21 42 26 42 14z m6010 -18 c22 -26 -4
-39 -85 -43 -84 -5 -95 6 -42 38 39 24 109 27 127 5z m-7890 -9 c0 -17 -26
-39 -40 -34 -6 2 -4 12 5 26 18 25 35 29 35 8z m6900 5 c0 -11 -48 -51 -61
-51 -17 0 -9 29 13 44 25 18 48 21 48 7z m-133 -18 c3 -7 -18 -19 -49 -30 -29
-10 -89 -36 -133 -59 -107 -55 -155 -72 -250 -88 -45 -7 -124 -32 -178 -55
-89 -38 -127 -45 -111 -20 10 16 215 115 299 144 44 15 105 40 135 55 47 24
118 47 195 64 35 7 88 1 92 -11z m-7602 -12 c0 -8 -8 -19 -17 -25 -22 -13 -44
5 -34 29 7 20 51 16 51 -4z m3675 8 c0 -6 -30 -50 -67 -96 -38 -47 -97 -129
-133 -181 -36 -53 -71 -97 -77 -100 -33 -10 7 100 63 175 13 18 26 46 28 62 5
42 28 75 78 109 62 42 108 55 108 31z m1700 1 c0 -22 -154 -119 -168 -106 -9
9 58 75 98 96 39 21 70 25 70 10z m-5500 -25 c0 -8 -9 -19 -19 -25 -28 -14
-38 6 -16 30 19 21 35 18 35 -5z m8270 -5 c0 -5 -13 -10 -30 -10 -16 0 -30 5
-30 10 0 6 14 10 30 10 17 0 30 -4 30 -10z m1845 -5 c66 -18 91 -33 76 -48 -5
-5 -92 -14 -193 -18 -207 -10 -341 -30 -398 -59 -46 -23 -97 -25 -124 -5 -12
9 -41 15 -71 15 -28 0 -60 6 -70 14 -18 13 -18 14 2 25 34 18 300 52 352 45
32 -4 74 0 132 15 46 11 93 22 104 24 46 10 135 6 190 -8z m-6101 -43 c-8 -20
-43 -80 -78 -132 -35 -52 -73 -113 -86 -136 -20 -36 -97 -100 -108 -89 -16 16
142 273 216 352 58 61 81 63 56 5z m2590 40 c3 -5 -7 -20 -22 -34 -30 -27
-157 -118 -166 -118 -16 0 99 140 122 149 35 12 59 13 66 3z m-5609 -89 c-10
-104 -24 -137 -24 -58 -1 57 14 135 25 135 3 0 2 -35 -1 -77z m905 56 c0 -6
-22 -57 -50 -112 -27 -56 -54 -124 -60 -152 -19 -85 -91 -304 -102 -311 -16
-10 -1 119 23 207 11 39 31 94 46 122 14 28 34 76 44 106 28 80 99 181 99 140z
m2920 -9 c-14 -26 -97 -89 -127 -96 -57 -15 -31 26 52 82 58 39 92 46 75 14z
m-4920 1 c0 -5 -6 -14 -14 -20 -16 -13 -32 2 -21 19 8 12 35 13 35 1z m-210
-60 c0 -28 -4 -52 -9 -55 -12 -8 -22 50 -15 80 10 41 24 26 24 -25z m3635 29
c7 -12 -30 -50 -50 -50 -21 0 -19 10 7 37 23 25 34 28 43 13z m4995 0 c0 -5
-8 -10 -17 -10 -10 0 -34 -10 -53 -22 -19 -11 -82 -38 -140 -58 -101 -36 -159
-59 -262 -103 -46 -20 -67 -19 -54 1 3 5 40 26 82 46 42 20 93 49 114 66 47
37 74 48 180 70 97 21 150 25 150 10z m-662 -12 c-6 -16 -55 -31 -76 -23 -16
6 -15 8 2 21 24 17 79 19 74 2z m-6008 -17 c0 -11 -4 -23 -10 -26 -6 -4 -10 5
-10 19 0 14 5 26 10 26 6 0 10 -9 10 -19z m8764 10 c49 -12 67 -28 46 -42 -24
-16 -168 -5 -188 15 -15 15 -15 18 -2 26 19 12 93 12 144 1z m486 -23 c25 -41
25 -48 0 -48 -23 0 -55 44 -46 65 9 24 25 18 46 -17z m-1842 8 c8 -5 10 -12 5
-17 -10 -10 -253 -34 -478 -49 -148 -9 -169 -15 -280 -70 -44 -22 -105 -44
-135 -50 -34 -6 -75 -24 -106 -45 -48 -33 -84 -45 -84 -27 0 5 37 33 83 62
102 68 216 107 447 156 96 20 189 40 205 45 39 10 326 7 343 -5z m-9043 -16
c0 -18 -33 -26 -47 -12 -6 6 -7 15 -3 22 10 16 50 8 50 -10z m4545 5 c0 -10
-84 -45 -107 -45 -27 0 -31 25 -5 39 18 11 112 15 112 6z m2400 -4 c0 -19 -84
-112 -147 -163 -122 -99 -143 -107 -143 -60 0 37 26 60 123 112 42 23 82 52
88 63 20 39 79 75 79 48z m980 -1 c0 -5 -6 -10 -13 -10 -55 0 -340 -184 -444
-287 -56 -57 -105 -85 -119 -70 -10 9 6 27 47 53 28 17 39 31 39 49 0 14 -6
25 -14 25 -16 0 -74 -38 -136 -90 -134 -111 -210 -146 -210 -97 0 30 35 61 85
75 41 12 125 67 125 82 0 19 93 63 138 66 76 6 100 14 145 48 55 42 224 132
265 141 17 3 34 11 37 16 8 12 55 12 55 -1z m2706 -1 c3 -6 2 -15 -3 -20 -12
-12 -63 5 -63 21 0 13 57 13 66 -1z m-5261 -62 c-76 -66 -123 -113 -158 -159
-32 -44 -82 -83 -117 -93 -17 -5 26 45 130 149 120 121 160 156 180 156 22 -1
19 -6 -35 -53z m-1935 37 c0 -4 -22 -37 -49 -73 -84 -113 -119 -132 -87 -47
18 46 94 126 121 126 8 0 15 -3 15 -6z m1810 -2 c0 -9 -25 -33 -49 -47 -10 -6
-12 -4 -6 6 22 38 55 63 55 41z m3999 -6 c15 -18 6 -23 -56 -32 -36 -4 -53 -3
-58 6 -20 32 89 57 114 26z m928 -2 c4 -13 -33 -31 -92 -44 -24 -5 -169 -21
-322 -35 -153 -13 -292 -27 -310 -30 -17 -3 -34 -2 -37 3 -17 28 159 61 624
115 60 7 133 2 137 -9z m-10287 -4 c0 -12 -35 -31 -44 -23 -8 9 14 33 30 33 8
0 14 -4 14 -10z m900 -5 c0 -21 -22 -65 -32 -65 -18 0 -20 31 -4 55 18 28 36
33 36 10z m4770 2 c0 -45 -173 -235 -276 -304 -84 -56 -131 -117 -168 -219
-35 -97 -63 -126 -53 -54 9 70 78 200 146 275 33 37 61 71 61 76 0 4 20 22 45
39 25 17 86 69 135 115 90 84 110 97 110 72z m-2996 -26 c3 -4 -3 -16 -14 -26
-26 -23 -52 -6 -30 20 14 17 36 20 44 6z m-2436 -29 c2 -12 -1 -22 -6 -22 -14
0 -43 36 -35 44 14 13 38 1 41 -22z m7372 18 c0 -5 -2 -10 -4 -10 -2 0 -31 -7
-63 -15 -32 -8 -104 -21 -159 -29 -65 -10 -140 -30 -209 -56 -69 -26 -111 -38
-118 -31 -11 11 -2 16 137 76 70 30 133 49 184 56 42 6 79 13 81 15 9 9 151 3
151 -6z m-2430 -93 c-52 -109 -95 -157 -143 -157 -52 0 -55 17 -9 56 22 19 50
54 62 79 22 45 104 120 121 110 4 -3 -9 -43 -31 -88z m5560 72 c37 -5 100 -27
147 -49 130 -63 185 -142 205 -296 11 -80 6 -140 -12 -129 -4 3 -11 18 -14 33
-28 146 -25 138 -71 171 -55 40 -96 91 -104 133 -13 62 -95 98 -246 107 -87 6
-112 19 -63 33 35 10 87 9 158 -3z m-331 -10 c63 -22 20 -46 -84 -48 -64 -1
-105 7 -105 19 0 9 96 38 131 39 14 1 40 -4 58 -10z m-10289 -8 c0 -13 -26
-32 -33 -24 -8 7 11 33 24 33 5 0 9 -4 9 -9z m9284 -17 c9 -8 16 -18 16 -21 0
-15 -35 -43 -52 -43 -11 0 -52 -13 -91 -29 -87 -34 -139 -44 -179 -36 -30 7
-32 13 -12 59 7 17 4 18 -27 12 -106 -23 -223 -37 -374 -46 -93 -5 -196 -17
-229 -25 -32 -9 -61 -14 -64 -11 -10 11 28 43 81 69 48 24 70 27 317 42 146 9
328 23 405 30 190 17 191 17 209 -1z m1720 10 c20 -8 21 -44 2 -44 -8 0 -28
11 -43 25 l-28 24 27 1 c14 0 33 -3 42 -6z m-7864 -45 c0 -12 -40 -99 -89
-193 -53 -103 -108 -225 -136 -306 -75 -216 -99 -233 -93 -64 l3 99 70 120
c39 66 90 158 112 205 58 119 133 197 133 139z m1680 -24 c0 -8 -10 -19 -22
-26 -30 -14 -108 -89 -201 -193 l-29 -31 6 38 c7 52 60 123 135 180 62 47 111
61 111 32z m1281 -4 c-17 -32 -111 -78 -132 -65 -28 17 67 84 119 84 19 0 21
-3 13 -19z m436 -6 c-16 -14 -33 -22 -39 -19 -14 9 27 44 51 44 12 -1 9 -7
-12 -25z m-4597 0 c0 -25 -28 -85 -39 -85 -16 0 -13 24 6 65 17 37 33 46 33
20z m630 -15 c0 -42 -20 -130 -37 -164 -25 -48 -38 -18 -24 55 22 112 61 182
61 109z m8038 16 c3 -4 1 -11 -5 -17 -11 -11 -83 13 -83 27 0 8 79 -1 88 -10z
m531 -161 c43 -107 61 -171 60 -220 l0 -30 -21 40 c-11 22 -33 76 -48 121 -15
45 -44 105 -64 134 -27 40 -36 62 -36 94 l1 41 34 -40 c19 -22 52 -85 74 -140z
m-3911 148 c-7 -39 -134 -91 -160 -65 -12 12 35 47 89 67 53 19 75 19 71 -2z
m692 7 c0 -22 -82 -121 -121 -147 -43 -29 -57 -26 -39 7 23 43 -5 44 -67 3
-32 -22 -85 -54 -118 -73 -33 -18 -79 -48 -102 -67 -50 -40 -121 -73 -140 -66
-18 7 9 38 51 60 16 9 52 33 80 55 28 22 62 44 75 50 14 5 53 29 88 54 63 45
241 131 276 133 9 1 17 -4 17 -9z m-7852 -23 c6 -29 -28 -59 -58 -52 -67 16
-50 79 19 73 25 -2 37 -8 39 -21z m3323 -60 c-16 -94 -40 -169 -52 -161 -18
11 17 200 44 232 18 22 20 -1 8 -71z m1081 51 c-15 -15 -26 -4 -18 18 5 13 9
15 18 6 9 -9 9 -15 0 -24z m-1293 -200 c-51 -106 -114 -253 -140 -327 -27 -73
-51 -136 -54 -140 -15 -14 -26 29 -22 84 5 65 31 127 67 160 30 27 45 59 65
135 22 87 76 197 127 262 70 88 57 36 -43 -174z m-2522 105 c3 -54 2 -64 -7
-50 -18 28 -26 146 -10 130 7 -6 14 -42 17 -80z m9393 76 c36 -7 72 -11 80
-10 8 1 71 4 140 7 180 8 312 -13 397 -64 51 -31 65 -44 75 -77 11 -34 18 -40
52 -47 22 -5 42 -10 44 -13 3 -2 -7 -18 -22 -35 -14 -17 -26 -40 -26 -50 0
-25 -20 -36 -31 -19 -5 8 -9 33 -9 57 0 45 -4 48 -46 32 -34 -13 -52 -2 -139
85 -66 66 -105 83 -105 46 0 -11 12 -33 26 -50 22 -27 24 -32 9 -37 -32 -13
-101 4 -157 38 -101 62 -293 91 -608 91 -225 0 -354 -11 -505 -44 -49 -10 -90
-19 -92 -19 -2 0 -3 6 -3 14 0 21 95 62 175 75 167 28 628 40 745 20z m-4582
-31 c-13 -18 -52 -65 -88 -103 -51 -56 -79 -100 -130 -203 -35 -73 -68 -132
-72 -132 -15 0 -8 45 16 95 33 72 157 254 217 319 57 63 95 78 57 24z m1167
13 c9 -15 -33 -49 -84 -68 -54 -21 -182 -25 -188 -6 -6 18 33 35 137 59 109
26 127 28 135 15z m-705 -30 c0 -23 -10 -36 -50 -65 -27 -20 -50 -42 -50 -50
0 -26 -47 -71 -99 -96 -28 -13 -54 -21 -57 -17 -24 24 50 119 129 167 28 18
62 45 75 61 30 38 52 38 52 0z m2785 19 c8 -12 -47 -40 -80 -40 -31 0 -33 23
-2 38 28 14 74 15 82 2z m-7185 -9 c0 -17 -12 -41 -21 -41 -10 0 -12 33 -2 43
9 10 23 9 23 -2z m900 -8 c0 -20 -46 -161 -59 -182 -5 -7 -14 -10 -20 -7 -27
17 0 139 41 183 26 27 38 29 38 6z m5804 9 c5 -8 -55 -61 -92 -81 -19 -10 -23
-9 -29 5 -7 20 46 70 81 77 12 2 24 5 28 6 4 0 9 -2 12 -7z m-4050 -45 c13
-36 -2 -62 -35 -62 -20 0 -25 6 -27 33 -6 61 43 84 62 29z m2096 13 c-18 -33
-75 -56 -64 -25 6 15 50 44 67 45 4 0 3 -9 -3 -20z m473 14 c13 -14 -14 -44
-40 -44 l-26 0 23 25 c24 26 32 29 43 19z m1291 -3 c14 -22 -117 -92 -137 -72
-15 15 9 40 58 62 44 20 71 24 79 10z m806 -20 c0 -23 -77 -55 -106 -44 -23 9
-16 23 19 38 36 16 87 20 87 6z m-7240 -13 c-1 -31 -57 -172 -69 -176 -10 -3
-12 0 -8 11 3 9 16 52 28 97 14 49 27 80 36 80 7 0 13 -6 13 -12z m6810 4 c0
-13 -126 -132 -139 -132 -17 0 -13 12 14 52 14 20 25 42 25 47 0 6 12 17 28
25 30 17 72 21 72 8z m618 -34 c2 -11 -17 -30 -59 -57 -68 -44 -87 -52 -200
-76 -56 -11 -85 -24 -110 -46 -35 -31 -46 -35 -119 -42 -104 -9 -199 -87 -225
-184 -20 -73 -43 -120 -63 -128 -34 -13 -30 6 40 175 42 101 46 106 97 137 49
29 84 40 194 58 25 4 54 20 80 44 48 43 78 61 104 61 10 0 56 18 103 40 92 43
152 50 158 18z m667 13 c11 -19 -41 -35 -125 -39 -88 -4 -151 6 -157 25 -2 6
6 13 19 16 46 9 257 7 263 -2z m-8418 -58 c-3 -10 -5 -2 -5 17 0 19 2 27 5 18
2 -10 2 -26 0 -35z m8093 27 c0 -5 -12 -10 -27 -10 -22 0 -25 2 -13 10 20 13
40 13 40 0z m760 0 c0 -5 -18 -10 -40 -10 -22 0 -40 5 -40 10 0 6 18 10 40 10
22 0 40 -4 40 -10z m-200 -10 c10 -6 12 -12 4 -20 -16 -16 -513 -110 -581
-110 -26 0 -33 4 -33 20 0 40 40 52 208 60 100 4 167 12 182 20 58 32 189 50
220 30z m-6190 -19 c0 -27 -50 -85 -62 -73 -13 13 -3 43 23 70 25 27 39 28 39
3z m4885 -16 c0 -30 -59 -56 -120 -53 -71 4 -67 27 10 55 73 27 110 26 110 -2z
m-4179 -21 c-26 -18 -46 -18 -46 1 0 19 41 37 55 23 7 -6 3 -14 -9 -24z m284
21 c0 -8 -9 -15 -20 -15 -11 0 -20 7 -20 15 0 8 9 15 20 15 11 0 20 -7 20 -15z
m4508 -27 c6 -66 -44 -139 -84 -124 -20 8 -17 43 7 95 25 57 38 73 58 69 11
-2 17 -16 19 -40z m-4373 -28 c-21 -59 -91 -189 -118 -217 -18 -20 -47 -31
-47 -19 0 17 76 168 115 227 51 80 76 84 50 9z m155 22 c0 -58 -62 -212 -120
-297 -15 -22 -30 -50 -34 -62 -11 -36 -29 -28 -22 10 3 17 8 64 12 102 5 53
13 79 34 110 15 22 39 63 54 92 36 72 76 95 76 45z m1216 -7 c-3 -8 -24 -28
-47 -45 -66 -47 -91 -38 -44 18 44 53 109 72 91 27z m-4416 -2 c0 -37 -19
-103 -29 -103 -20 0 -27 80 -11 111 16 29 40 24 40 -8z m4700 11 c0 -30 -21
-53 -81 -89 -33 -21 -81 -55 -105 -76 -49 -42 -64 -48 -64 -24 0 8 4 15 10 15
5 0 19 19 31 43 35 69 69 108 113 128 51 23 96 25 96 3z m1250 1 c0 -8 -14
-22 -31 -31 -26 -13 -33 -14 -40 -2 -20 31 -6 44 49 47 13 1 22 -5 22 -14z
m-5304 -31 c4 -16 -2 -49 -19 -92 -14 -37 -28 -80 -32 -96 -10 -46 -18 -22
-17 50 2 117 49 213 68 138z m7856 12 c74 -17 108 -40 108 -71 0 -34 -33 -41
-74 -15 -20 12 -73 27 -126 36 -51 8 -101 19 -112 25 -60 32 93 51 204 25z
m-3578 -5 c9 -15 -64 -71 -111 -86 -16 -4 -23 -2 -23 8 0 19 38 53 80 71 41
18 47 19 54 7z m3289 3 c11 -11 -6 -35 -36 -50 -24 -13 -48 -15 -121 -9 -99 7
-159 -2 -232 -37 -66 -30 -104 -72 -104 -113 0 -39 -11 -49 -45 -41 -17 4 -27
17 -34 42 -14 52 7 97 56 122 34 18 181 55 318 80 58 11 189 15 198 6z m-2043
-12 c0 -4 -7 -18 -16 -31 -12 -16 -19 -20 -27 -12 -7 7 -5 17 8 31 18 20 35
26 35 12z m1100 -6 c0 -50 -71 -176 -100 -176 -16 0 -12 21 15 74 14 27 25 55
25 61 0 14 37 55 50 55 6 0 10 -6 10 -14z m-5110 -16 c0 -10 -9 -24 -19 -30
-29 -15 -71 -13 -71 4 0 24 29 46 61 46 22 0 29 -5 29 -20z m6592 3 c10 -9 18
-30 18 -49 0 -38 -61 -160 -106 -212 -29 -33 -33 -35 -40 -19 -7 18 2 40 46
117 24 42 26 109 5 150 l-16 30 37 0 c21 0 46 -7 56 -17z m-2292 -28 c0 -2
-17 -13 -39 -24 -21 -11 -48 -36 -60 -56 -12 -20 -27 -35 -34 -32 -26 8 -17
39 21 77 32 32 47 40 76 40 20 0 36 -2 36 -5z m687 -12 c2 -6 -10 -26 -26 -45
-28 -30 -32 -31 -44 -16 -7 9 -24 18 -37 20 -30 4 -36 21 -14 42 19 20 115 19
121 -1z m-8383 -18 c29 -44 16 -81 -20 -57 -18 12 -36 52 -30 68 8 22 32 17
50 -11z m6436 13 c0 -16 -31 -48 -47 -48 -17 0 -17 10 3 38 16 23 44 30 44 10z
m-6543 -10 c6 -7 16 -30 22 -50 15 -45 63 -88 99 -89 48 -1 67 -15 82 -60 11
-32 22 -45 37 -47 17 -3 24 3 28 25 13 56 14 57 35 38 26 -23 36 -14 55 50 12
41 20 55 34 55 10 0 21 -6 24 -14 8 -21 -10 -80 -35 -111 -18 -23 -22 -44 -25
-114 -5 -115 -10 -136 -28 -121 -7 6 -17 24 -20 40 -3 16 -13 34 -21 41 -26
21 -36 -8 -29 -85 8 -89 -8 -79 -24 16 -18 100 -44 158 -72 158 -24 0 -24 -10
7 -122 19 -70 16 -90 -12 -67 -27 22 -114 207 -125 264 -5 29 -21 81 -34 114
-14 33 -25 67 -25 76 0 18 14 20 27 3z m9744 -19 c62 -6 116 -18 134 -28 27
-16 30 -22 30 -68 -1 -39 -8 -62 -35 -106 -19 -32 -38 -57 -42 -57 -14 0 -9
37 12 85 26 61 25 86 -4 118 -31 33 -70 43 -104 27 -49 -22 -83 -29 -207 -40
-92 -9 -129 -9 -145 0 -31 17 -9 38 48 45 26 4 74 15 107 26 33 10 70 16 81
14 12 -3 69 -10 125 -16z m-8693 -21 c-3 -35 -22 -48 -32 -22 -9 24 2 54 20
54 11 0 14 -9 12 -32z m644 -34 c-3 -79 -13 -100 -23 -49 -9 49 0 117 15 112
7 -3 10 -27 8 -63z m5508 52 c0 -15 -46 -56 -62 -56 -18 0 -20 31 -3 50 21 23
65 27 65 6z m-3363 -43 c-6 -37 -23 -63 -40 -63 -13 0 -3 76 13 95 19 23 33 6
27 -32z m5087 -30 c-6 -74 -23 -123 -44 -123 -5 0 -21 11 -36 23 -23 20 -28
34 -32 87 -6 75 7 90 75 90 l44 0 -7 -77z m-4824 43 c0 -28 -25 -54 -33 -34
-6 17 10 58 23 58 5 0 10 -11 10 -24z m1660 -16 c0 -33 -39 -66 -65 -56 -13 5
-14 10 -4 28 32 62 69 77 69 28z m3520 14 c0 -24 -57 -72 -98 -84 -80 -22 -92
-8 -35 39 67 55 133 78 133 45z m-5780 0 c0 -3 -21 -35 -47 -71 -98 -135 -117
-145 -89 -50 17 60 48 104 80 117 25 10 56 12 56 4z m1553 -33 c-1 -33 -27
-71 -39 -58 -4 3 -3 27 0 52 6 36 11 45 24 43 12 -3 17 -13 15 -37z m531 -43
c-18 -40 -34 -82 -34 -93 -1 -21 -22 -55 -35 -55 -10 0 2 84 21 142 15 46 58
93 75 83 4 -3 -8 -38 -27 -77z m2737 62 c-13 -11 -31 -20 -41 -20 -9 0 -29
-10 -44 -21 -27 -21 -44 -21 -31 0 10 17 97 60 120 60 19 0 19 -1 -4 -19z
m-771 -15 c0 -28 -72 -109 -92 -103 -17 6 -23 95 -7 114 7 8 30 14 55 14 40 0
44 -2 44 -25z m-4453 -21 c9 -25 -15 -90 -47 -124 -54 -57 -62 -13 -18 93 21
49 52 64 65 31z m3656 0 c-6 -15 -43 -34 -66 -34 -16 1 44 50 60 50 7 0 10 -7
6 -16z m527 1 c-7 -8 -16 -15 -21 -15 -5 0 -6 7 -3 15 4 8 13 15 21 15 13 0
13 -3 3 -15z m825 -44 c-8 -17 -36 -56 -62 -88 -46 -57 -47 -57 -54 -157 -8
-103 -26 -147 -63 -154 -35 -7 -11 201 34 294 21 42 152 162 158 144 2 -5 -4
-22 -13 -39z m565 39 c0 -5 -19 -24 -42 -41 -52 -37 -67 -19 -19 23 31 28 61
37 61 18z m-2670 -7 c-1 -25 -95 -107 -112 -97 -14 9 11 43 54 74 41 30 58 37
58 23z m-4670 -63 c0 -54 -13 -72 -30 -40 -10 19 -6 71 7 93 11 19 23 -8 23
-53z m8860 42 c0 -14 -35 -42 -52 -42 -22 0 -24 23 -3 43 13 14 55 13 55 -1z
m-7536 -10 c8 -13 -11 -35 -23 -28 -16 10 -14 36 3 36 8 0 17 -4 20 -8z m-426
-34 c-3 -34 -20 -42 -26 -13 -5 22 5 45 18 45 7 0 10 -14 8 -32z m3966 23 c9
-14 -71 -78 -121 -97 -93 -36 -67 37 31 86 44 21 81 26 90 11z m811 -30 c-3
-12 -13 -21 -21 -21 -17 0 -17 1 -4 36 13 33 36 19 25 -15z m356 8 c4 -13 7
-49 7 -79 0 -107 -23 -133 -65 -71 -29 44 -29 70 3 132 26 53 44 59 55 18z
m2379 22 c14 -4 26 -14 28 -23 5 -24 -64 -40 -173 -41 -95 -1 -138 13 -133 41
4 23 39 30 153 30 55 0 111 -3 125 -7z m-7940 -26 c0 -26 -14 -33 -25 -15 -9
14 1 40 15 40 5 0 10 -11 10 -25z m7573 13 c14 -11 14 -17 2 -45 -16 -38 -50
-62 -99 -70 -41 -6 -47 7 -22 55 22 43 46 60 97 71 3 0 13 -5 22 -11z m-3927
-12 c6 -17 -12 -56 -26 -56 -11 0 -14 53 -3 63 11 11 23 8 29 -7z m3304 2 c0
-36 -41 -77 -95 -97 -96 -36 -112 -24 -42 32 81 66 137 93 137 65z m-440 -16
c0 -25 -68 -122 -85 -122 -24 0 -17 42 15 93 31 49 70 65 70 29z m-3453 -26
c-4 -9 -13 -16 -22 -16 -18 0 -19 5 -4 32 13 24 35 9 26 -16z m2297 18 c9 -3
16 -10 16 -15 0 -15 -47 -40 -64 -33 -21 8 -21 41 2 47 27 7 29 7 46 1z m2021
-5 c14 -22 -91 -109 -132 -109 -18 0 -23 5 -23 24 0 37 41 71 105 87 43 10 43
10 50 -2z m-7255 -18 c0 -20 -17 -37 -27 -28 -7 8 7 47 18 47 5 0 9 -9 9 -19z
m4630 -40 c0 -49 -5 -65 -24 -87 l-23 -28 -8 24 c-4 14 -17 37 -28 52 -11 15
-18 30 -16 32 14 14 85 65 92 65 4 1 7 -26 7 -58z m1037 33 c8 -22 -16 -124
-29 -124 -23 0 -48 34 -48 66 0 23 7 38 26 53 32 25 43 26 51 5z m821 -19 c7
-14 20 -25 31 -25 38 0 29 -17 -47 -92 -103 -102 -142 -121 -142 -72 0 34 56
147 91 185 33 36 52 37 67 4z m1991 -51 c-17 -66 -37 -114 -49 -114 -13 0 -30
35 -30 62 0 13 17 45 36 72 44 59 61 51 43 -20z m-313 2 c-7 -28 -99 -171
-135 -209 -32 -34 -127 -90 -143 -85 -7 3 18 33 55 69 38 35 96 104 129 154
34 49 68 98 77 109 15 17 16 17 19 1 2 -9 1 -27 -2 -39z m-6904 9 c-2 -16 -11
-45 -20 -64 l-16 -36 -4 44 c-5 61 5 93 26 89 12 -3 16 -12 14 -33z m1919 4
c11 -37 10 -107 0 -114 -12 -7 -18 14 -27 89 -5 47 -4 58 7 54 7 -2 16 -15 20
-29z m-1287 5 c10 -26 7 -184 -5 -205 -19 -37 -29 -8 -29 91 0 98 5 130 20
130 4 0 11 -7 14 -16z m663 -25 c25 -72 7 -200 -29 -207 -23 -4 -33 34 -31
123 2 116 33 161 60 84z m4401 3 c4 -25 -51 -86 -71 -80 -25 9 -19 48 12 79
34 34 54 34 59 1z m803 8 l24 -20 -30 -25 c-51 -43 -126 -76 -142 -64 -20 18
-16 63 10 86 52 48 100 56 138 23z m-1555 -14 c9 -38 1 -61 -23 -64 -29 -4
-40 31 -19 63 21 32 34 32 42 1z m-6518 -26 c25 -37 24 -53 -2 -58 -25 -5 -56
27 -56 58 0 51 23 51 58 0z m4582 6 c0 -16 -18 -31 -27 -22 -8 8 5 36 17 36 5
0 10 -6 10 -14z m3241 -5 c-21 -39 -164 -181 -182 -181 -36 0 -21 38 29 74 26
19 66 55 88 80 42 47 85 65 65 27z m-4601 -36 c0 -19 -4 -35 -10 -35 -5 0 -10
16 -10 35 0 19 5 35 10 35 6 0 10 -16 10 -35z m1510 30 c0 -18 -33 -78 -37
-67 -6 16 16 72 28 72 5 0 9 -2 9 -5z m907 -21 c10 -14 33 -43 51 -65 45 -57
42 -116 -5 -90 -24 12 -93 130 -93 158 0 31 25 29 47 -3z m-1896 -101 c-16
-135 -21 -153 -37 -153 -22 0 -18 105 6 159 11 24 20 53 20 65 0 23 10 40 18
31 2 -2 -1 -48 -7 -102z m3319 98 c0 -5 -30 -31 -67 -59 -38 -28 -95 -74 -128
-102 -32 -27 -74 -57 -92 -65 -37 -18 -114 -17 -120 2 -2 6 21 24 51 39 30 15
79 48 108 73 71 63 109 89 155 106 44 16 93 19 93 6z m614 0 c4 -5 -17 -23
-44 -40 -28 -17 -60 -48 -72 -67 l-21 -36 -18 23 c-38 50 -29 91 25 115 35 15
122 19 130 5z m-3564 -51 c0 -30 -7 -47 -25 -65 -28 -29 -38 -31 -55 -10 -24
29 22 115 61 115 16 0 19 -7 19 -40z m-1461 -130 c1 -81 6 -115 21 -149 22
-47 19 -62 -7 -45 -49 31 -85 178 -65 270 6 31 17 63 24 72 11 13 14 11 19
-14 4 -16 7 -76 8 -134z m3268 114 c22 -34 10 -54 -32 -54 -58 0 -94 50 -60
84 20 20 70 3 92 -30z m303 7 c-11 -21 -40 -29 -40 -11 0 6 10 20 22 32 24 24
36 11 18 -21z m-5890 10 c13 -25 13 -101 0 -101 -14 0 -40 54 -40 83 0 40 22
50 40 18z m2080 -5 c0 -13 -7 -29 -15 -36 -12 -10 -15 -9 -15 8 0 27 10 52 21
52 5 0 9 -11 9 -24z m3700 -41 c8 -39 8 -60 0 -74 -11 -22 -52 -37 -69 -26
-15 9 -14 32 2 42 8 4 17 30 20 56 12 86 29 87 47 2z m1267 39 c5 -16 -89
-117 -144 -153 -31 -21 -59 -31 -84 -31 -69 0 -59 24 35 84 29 18 68 47 87 63
59 52 97 65 106 37z m-1977 -55 c0 -43 -14 -53 -24 -16 -7 28 3 69 15 61 5 -3
9 -23 9 -45z m-2342 15 c4 -26 -24 -56 -47 -52 -20 4 -27 44 -10 64 17 21 53
14 57 -12z m6032 0 c0 -29 -16 -64 -30 -64 -13 0 -13 46 0 71 15 27 30 24 30
-7z m-4565 -14 c0 -27 -22 -39 -31 -16 -8 22 3 49 19 43 6 -2 12 -14 12 -27z
m4035 -15 c-12 -13 -28 -34 -34 -46 -6 -12 -21 -29 -33 -37 -43 -27 -27 18 22
65 48 45 85 61 45 18z m-4317 -5 c-7 -27 -33 -48 -33 -27 0 26 11 47 25 47 8
0 11 -8 8 -20z m993 6 c3 -8 -2 -30 -11 -50 -30 -62 -73 -57 -61 8 9 47 59 76
72 42z m1229 -12 c0 -10 -8 -20 -17 -22 -18 -3 -26 27 -11 42 12 11 28 0 28
-20z m-879 -11 c4 -16 10 -30 14 -33 13 -10 50 -69 50 -79 0 -30 -32 -4 -69
55 -46 74 -49 84 -21 84 13 0 22 -9 26 -27z m-5546 -5 c30 -33 26 -50 -11 -46
-35 3 -56 26 -46 52 9 22 32 20 57 -6z m665 8 c29 -21 12 -48 -27 -44 -28 2
-34 8 -36 31 -3 23 0 27 20 27 13 0 33 -6 43 -14z m6733 -8 c-3 -25 -34 -36
-51 -19 -14 14 9 41 35 41 14 0 19 -6 16 -22z m-5704 6 c19 -7 22 -44 3 -44
-19 0 -36 20 -30 36 6 16 6 16 27 8z m7421 -31 c-18 -42 -35 -64 -35 -45 0 18
33 82 42 82 5 0 1 -17 -7 -37z m-7685 -8 c0 -7 7 -18 15 -25 17 -14 20 -50 5
-50 -15 0 -39 42 -47 81 -6 31 -5 33 10 20 9 -7 17 -19 17 -26z m6619 2 c-38
-33 -259 -155 -318 -175 -39 -14 -101 -16 -101 -4 0 13 62 68 95 85 17 8 55
25 85 37 30 12 91 37 135 56 44 18 94 34 110 33 l30 0 -36 -32z m-4790 -24 c6
-21 11 -58 11 -83 0 -42 -1 -43 -17 -27 -11 11 -18 38 -21 82 -5 73 11 89 27
28z m3710 13 c9 -11 6 -18 -14 -34 -29 -23 -79 -37 -95 -27 -19 12 -10 35 23
55 38 23 70 26 86 6z m-6749 -53 c0 -41 -3 -54 -10 -43 -13 20 -13 100 0 100
6 0 10 -26 10 -57z m1800 43 c0 -16 -18 -31 -27 -22 -8 8 5 36 17 36 5 0 10
-6 10 -14z m145 -20 c0 -37 -15 -42 -46 -17 -20 16 -22 21 -10 35 8 9 24 16
35 14 16 -2 21 -10 21 -32z m6565 9 c0 -15 -6 -25 -14 -25 -19 0 -28 14 -20
34 10 25 34 19 34 -9z m-3823 -1 c8 -21 -13 -42 -28 -27 -13 13 -5 43 11 43 6
0 13 -7 17 -16z m-2154 -31 c21 -20 37 -41 37 -46 0 -5 9 -22 21 -38 17 -24
18 -29 5 -29 -37 0 -136 116 -121 140 10 16 20 12 58 -27z m1537 17 c0 -11 -2
-20 -4 -20 -2 0 -11 -3 -20 -6 -19 -7 -22 16 -4 34 18 18 28 15 28 -8z m1570
5 c48 -17 169 -100 177 -122 11 -29 -14 -37 -49 -15 -18 11 -62 32 -98 46
-125 51 -181 106 -106 106 18 0 53 -7 76 -15z m1828 3 c-6 -18 -56 -41 -75
-34 -14 6 -14 9 2 26 20 22 79 28 73 8z m-4697 -73 c19 -51 14 -73 -15 -62
-17 7 -40 82 -32 104 10 25 27 9 47 -42z m-693 13 c-4 -27 -28 -36 -28 -10 0
20 8 32 22 32 5 0 8 -10 6 -22z m2147 -8 c0 -15 -6 -26 -16 -28 -19 -3 -31 21
-22 43 9 25 38 13 38 -15z m1760 5 c0 -13 -13 -26 -38 -38 -35 -18 -39 -18
-62 -3 -43 28 -3 67 65 63 28 -2 35 -6 35 -22z m2770 -62 c-63 -57 -75 -63
-75 -35 0 29 30 63 73 82 65 29 66 11 2 -47z m-1705 46 c0 -24 -23 -50 -60
-69 -63 -32 -108 -23 -82 16 27 42 142 85 142 53z m-2465 -22 c0 -26 -20 -25
-23 2 -3 16 1 22 10 19 7 -3 13 -12 13 -21z m594 -45 c14 -55 7 -78 -18 -63
-15 10 -27 91 -17 117 9 24 20 8 35 -54z m2158 52 c9 -25 -24 -44 -79 -44 -56
0 -61 12 -15 40 39 24 85 26 94 4z m-3380 -10 c8 -21 -13 -42 -28 -27 -13 13
-5 43 11 43 6 0 13 -7 17 -16z m2610 0 c4 -12 -55 -26 -70 -17 -4 3 -3 11 4
19 14 17 60 15 66 -2z m273 1 c0 -24 -35 -35 -111 -35 -65 0 -70 2 -58 16 20
24 48 33 112 33 44 1 57 -2 57 -14z m310 -10 c-13 -14 -33 -25 -44 -25 -19 1
-19 3 7 25 39 35 69 34 37 0z m-2083 -57 c-3 -22 -4 -21 -11 4 -5 16 -5 36 0
45 7 16 8 15 11 -4 3 -13 3 -33 0 -45z m-2093 -4 c41 -88 34 -102 -29 -61 -40
25 -53 57 -36 93 17 38 38 28 65 -32z m820 40 c9 -8 16 -25 16 -37 0 -13 16
-55 35 -95 30 -64 32 -72 16 -72 -50 0 -110 90 -111 166 0 56 14 68 44 38z
m1585 2 c8 -10 8 -16 -3 -25 -18 -15 -46 -3 -46 20 0 22 32 26 49 5z m-670
-75 l-1 -36 -18 40 c-20 42 -17 63 6 44 8 -6 14 -28 13 -48z m1515 44 c6 -15
-21 -35 -48 -35 -24 0 -31 22 -11 37 25 17 51 17 59 -2z m-4550 -26 c25 -29
34 -59 19 -59 -31 1 -84 90 -54 90 5 0 21 -14 35 -31z m4414 -26 c3 -19 -1
-23 -21 -23 -32 0 -57 28 -36 41 24 15 54 6 57 -18z m552 14 c46 -16 46 -41 1
-45 -37 -4 -118 15 -127 29 -18 29 59 39 126 16z m-4271 -36 c28 -21 23 -51
-8 -51 -21 0 -71 53 -71 75 0 17 42 4 79 -24z m1171 5 c6 -8 10 -25 8 -37 -3
-22 -3 -22 -36 5 -17 15 -30 32 -26 37 8 14 40 11 54 -5z m2009 -11 c21 -20 4
-35 -42 -35 -68 0 -128 43 -75 53 35 7 101 -3 117 -18z m1306 15 c8 -13 -54
-40 -90 -40 -29 0 -34 24 -7 39 22 13 89 14 97 1z m259 4 c9 -3 16 -12 16 -19
0 -18 -23 -25 -82 -25 -44 0 -49 2 -38 15 7 8 27 19 44 24 41 12 42 12 60 5z
m1164 -12 c5 -15 -23 -26 -45 -17 -17 6 -17 7 2 21 21 16 37 14 43 -4z m-2935
-7 c-4 -15 -36 -12 -41 3 -3 9 3 13 19 10 13 -1 23 -7 22 -13z m637 0 c7 -9
11 -18 8 -21 -10 -10 -77 -16 -102 -10 -27 7 -35 31 -13 39 28 12 95 6 107 -8z
m-4742 -52 c2 -24 -1 -43 -7 -43 -16 0 -41 42 -41 68 0 19 5 23 23 20 18 -2
23 -10 25 -45z m1600 25 c-3 -25 -34 -36 -51 -19 -14 14 9 41 35 41 14 0 19
-6 16 -22z m2953 12 c24 -14 25 -40 0 -40 -22 0 -45 25 -36 40 8 13 12 13 36
0z m734 -24 c19 -8 35 -20 35 -25 0 -16 -55 -41 -91 -41 -54 0 -116 49 -92 73
12 13 113 7 148 -7z m1413 -8 c-3 -7 -17 -20 -32 -28 -23 -13 -28 -13 -36 0
-13 21 7 40 42 40 19 0 28 -4 26 -12z m-243 -28 c-9 -15 -130 -74 -192 -94
-56 -19 -137 -26 -149 -14 -23 23 101 80 241 111 41 9 106 7 100 -3z m884 -9
c11 -7 7 -14 -20 -30 -25 -15 -51 -21 -96 -21 -70 0 -93 6 -93 25 0 13 26 19
120 28 67 7 75 7 89 -2z m-5334 -15 c49 -21 44 -36 -14 -36 -49 0 -79 18 -66
40 9 14 39 13 80 -4z m3593 2 c19 -19 14 -26 -25 -37 -54 -15 -103 -14 -103 3
0 17 56 45 91 46 14 0 30 -5 37 -12z m377 -12 c0 -36 -207 -96 -260 -76 -25 9
-27 13 -14 25 8 8 35 19 59 24 25 6 70 19 100 30 67 25 115 24 115 -3z m-1551
-15 c8 -13 -16 -30 -51 -37 -35 -7 -51 9 -33 31 14 16 75 20 84 6z m-384 -15
c0 -8 -4 -17 -9 -21 -12 -7 -24 12 -16 25 9 15 25 12 25 -4z m958 -1 c44 -9
31 -25 -21 -25 -52 0 -80 15 -57 30 8 5 22 8 30 6 8 -3 30 -7 48 -11z m-153
-42 c87 -27 100 -63 23 -63 -53 0 -113 18 -133 40 -15 16 -14 19 1 34 10 11
24 14 38 10 11 -3 44 -13 71 -21z m1933 15 c-5 -16 -48 -24 -48 -10 0 11 17
20 38 21 8 1 12 -5 10 -11z m152 -3 c-7 -8 -24 -15 -38 -15 -40 0 -8 22 42 29
5 0 3 -6 -4 -14z m-5290 -76 c0 -33 -4 -59 -9 -59 -12 0 -35 106 -27 127 5 12
9 13 21 3 10 -8 15 -31 15 -71z m-109 40 c7 -14 8 -24 1 -31 -15 -15 -32 0
-32 28 0 30 15 31 31 3z m804 -9 c17 -11 47 -25 67 -30 41 -12 71 -36 63 -51
-19 -29 -138 8 -169 53 -34 48 -13 62 39 28z m1143 8 c-5 -15 -68 -24 -68 -10
0 15 13 22 43 22 18 0 27 -4 25 -12z m-303 -33 c0 -15 -8 -21 -32 -23 -27 -3
-33 0 -33 17 0 21 15 31 45 28 13 -1 20 -9 20 -22z m2848 -6 c20 -17 37 -35
37 -40 0 -6 -21 -9 -47 -7 -42 3 -48 6 -51 26 -4 27 4 52 15 52 5 0 25 -14 46
-31z m-790 -16 c12 -11 -14 -33 -39 -33 -30 0 -31 18 -1 30 28 11 32 12 40 3z
m-379 -69 c27 -11 51 -25 54 -33 4 -12 -12 -13 -99 -8 -149 9 -203 29 -171 61
12 14 164 -1 216 -20z m-1040 -30 c9 -24 7 -64 -4 -64 -10 0 -40 52 -40 70 0
16 37 12 44 -6z m697 -9 c0 -5 -9 -11 -21 -13 -20 -3 -27 8 -13 22 10 9 34 3
34 -9z m1574 -93 c-1 -56 -25 -96 -46 -75 -16 16 -16 97 0 117 27 33 46 15 46
-42z m-225 12 c0 -11 -8 -14 -27 -12 -39 4 -42 28 -4 28 21 0 31 -5 31 -16z
m-1965 -53 c7 -25 -20 -81 -40 -81 -19 0 -29 58 -16 93 9 24 14 26 30 17 11
-5 22 -19 26 -29z m1456 14 c0 -5 -9 -11 -21 -13 -20 -3 -27 8 -13 22 10 9 34
3 34 -9z"/>
<path d="M2232 6704 c-38 -26 -62 -87 -62 -154 0 -115 41 -158 125 -130 47 16
49 50 3 68 l-33 13 22 17 c25 20 17 56 -16 67 -35 11 -45 41 -21 65 11 11 26
20 34 20 7 0 19 7 27 16 26 32 -38 47 -79 18z"/>
<path d="M2421 6698 c-5 -13 -12 -73 -15 -135 l-8 -111 54 -12 c101 -22 143
17 142 134 0 39 -3 88 -8 109 l-7 37 -75 0 c-68 0 -75 -2 -83 -22z m100 -75
c7 -20 7 -39 -1 -65 -11 -39 -33 -50 -44 -22 -8 21 -8 99 1 107 14 15 34 6 44
-20z"/>
<path d="M1946 6671 c-25 -27 -36 -77 -36 -163 0 -56 4 -81 16 -92 23 -24 31
-20 38 19 8 40 19 43 61 15 38 -25 95 -27 95 -3 0 9 -10 27 -22 40 -16 17 -23
40 -27 97 -4 40 -12 81 -20 90 -19 23 -83 21 -105 -3z m68 -72 c-8 -14 -34
-11 -34 4 0 8 3 17 7 20 9 9 34 -13 27 -24z"/>
<path d="M1733 6665 c-34 -24 -56 -95 -51 -161 4 -49 10 -62 37 -86 43 -38
103 -40 127 -3 22 33 5 55 -43 55 -44 0 -86 39 -81 77 2 19 14 32 42 47 53 28
67 53 42 72 -25 18 -46 18 -73 -1z"/>
<path d="M1211 6614 c-32 -41 -28 -100 10 -158 18 -27 28 -51 23 -56 -5 -5
-27 -10 -48 -12 -23 -2 -43 -10 -50 -20 -18 -29 8 -43 76 -43 54 1 63 4 85 30
22 25 25 36 20 79 -4 43 -10 55 -42 83 -36 31 -40 53 -9 53 23 0 28 29 9 50
-25 27 -50 25 -74 -6z"/>
<path d="M1486 6608 c-34 -54 -61 -208 -36 -208 5 0 24 16 42 35 l32 36 19
-38 c26 -51 46 -73 69 -73 25 0 23 32 -8 132 -41 129 -83 170 -118 116z m50
-49 c10 -17 -13 -36 -27 -22 -12 12 -4 33 11 33 5 0 12 -5 16 -11z"/>
<path d="M860 6416 c-22 -60 -7 -256 21 -256 16 0 21 49 17 155 -4 112 -19
151 -38 101z"/>
<path d="M2290 6233 c-22 -37 -23 -37 -31 -15 -10 25 -7 25 -118 12 -114 -13
-123 -16 -119 -47 5 -40 30 -50 74 -30 28 14 44 16 68 8 17 -5 63 -12 103 -16
l72 -6 6 44 c7 44 -6 87 -24 87 -5 0 -19 -17 -31 -37z"/>
<path d="M1680 6213 c-19 -7 -60 -44 -60 -54 0 -11 65 -49 83 -49 9 0 19 10
23 22 6 20 9 19 45 -20 43 -47 60 -51 90 -21 14 14 19 30 17 56 -2 29 -9 39
-38 54 -34 18 -124 25 -160 12z"/>
<path d="M2550 5986 c-10 -25 -21 -46 -23 -46 -1 0 -20 9 -41 19 -21 11 -44
17 -52 14 -19 -7 -18 -39 2 -47 25 -10 52 -86 59 -169 6 -62 11 -80 27 -88 15
-8 24 -7 40 7 17 16 19 26 13 75 -5 39 -2 79 10 126 30 123 5 201 -35 109z"/>
<path d="M2319 5952 c-30 -27 -32 -32 -36 -119 -8 -123 0 -163 32 -163 21 0
25 5 25 29 0 39 19 50 41 23 38 -48 53 -7 23 63 -11 27 -14 52 -9 86 8 57 1
85 -25 99 -15 8 -26 5 -51 -18z m37 -53 c10 -17 -13 -36 -27 -22 -12 12 -4 33
11 33 5 0 12 -5 16 -11z"/>
<path d="M2128 5913 c-46 -53 -58 -154 -23 -193 53 -59 105 -42 125 40 15 62
8 124 -16 151 -21 24 -66 25 -86 2z m57 -52 c7 -22 -19 -91 -34 -91 -16 0 -24
65 -12 89 15 26 38 27 46 2z"/>
<path d="M1927 5892 c-9 -10 -17 -21 -17 -25 0 -3 -4 -17 -10 -32 l-10 -25
-20 20 c-12 12 -31 20 -43 18 -19 -3 -23 -12 -30 -72 -9 -74 -2 -140 14 -131
5 4 9 17 9 30 0 30 19 80 27 71 3 -3 9 -23 12 -43 5 -29 12 -39 27 -41 33 -5
54 24 54 74 0 49 16 59 26 17 20 -96 54 -114 54 -30 -1 68 -14 124 -37 156
-25 33 -36 35 -56 13z"/>
<path d="M1648 5859 c-24 -14 -38 -72 -37 -159 1 -105 4 -110 59 -96 50 12 68
43 31 53 -29 7 -27 44 3 72 l24 23 -31 28 -32 29 28 10 c32 12 35 26 8 41 -24
12 -31 12 -53 -1z"/>
<path d="M1320 5834 c-11 -28 -13 -195 -4 -232 10 -35 28 -20 38 31 6 36 13
47 27 47 13 0 21 -12 29 -40 13 -49 27 -58 41 -26 21 46 53 39 61 -14 2 -17 9
-25 23 -25 23 0 23 3 7 130 -12 96 -19 115 -41 115 -22 0 -41 -40 -41 -86 0
-22 -6 -37 -15 -40 -21 -9 -45 14 -45 43 0 29 -46 123 -60 123 -6 0 -15 -12
-20 -26z"/>
<path d="M2300 5410 c-26 -26 -18 -40 25 -40 41 0 71 25 54 46 -17 20 -56 17
-79 -6z"/>
<path d="M1960 5331 c0 -10 6 -24 14 -30 18 -15 78 -11 83 5 7 20 -27 44 -63
44 -27 0 -34 -4 -34 -19z"/>
<path d="M1845 5325 c-5 -2 -22 -6 -37 -9 -47 -11 -31 -26 25 -26 59 0 72 6
56 27 -11 13 -23 15 -44 8z"/>
<path d="M1712 5288 c-7 -7 -12 -16 -12 -20 0 -12 28 -10 36 3 10 17 -10 31
-24 17z"/>
<path d="M1375 5266 c-16 -7 -39 -23 -49 -35 -18 -19 -18 -23 -5 -37 14 -13
24 -12 95 11 103 33 115 41 90 60 -24 18 -91 19 -131 1z"/>
<path d="M2023 5145 c-48 -21 -40 -31 20 -25 37 4 52 9 52 20 0 20 -33 23 -72
5z"/>
<path d="M1596 5085 c-54 -15 -82 -37 -71 -55 15 -24 145 10 167 43 18 29 -17
33 -96 12z"/>
<path d="M1349 5031 l-24 -21 24 -20 c45 -38 106 -19 99 32 -4 32 -64 38 -99
9z"/>
<path d="M1721 4925 c-36 -8 -71 -21 -79 -29 -13 -13 -12 -16 11 -21 15 -4 79
-6 142 -4 92 3 118 8 132 21 13 14 15 20 5 30 -18 18 -137 20 -211 3z"/>
<path d="M1472 4834 c-28 -19 -20 -34 19 -34 33 0 51 26 28 41 -19 12 -21 11
-47 -7z"/>
<path d="M1620 4665 c-25 -13 -71 -29 -102 -36 -125 -25 -109 -69 22 -59 19 1
62 16 94 32 57 29 64 30 145 24 124 -9 151 18 49 49 -77 22 -154 19 -208 -10z"/>
<path d="M2819 4337 c-18 -12 -48 -42 -66 -67 -17 -25 -46 -62 -63 -82 -67
-79 -63 -151 11 -230 27 -29 60 -66 75 -82 24 -27 29 -28 80 -23 31 3 72 14
92 25 38 20 80 67 69 78 -4 4 -39 1 -77 -6 -67 -13 -72 -12 -98 7 -24 18 -27
27 -27 78 1 52 4 60 34 87 45 40 83 33 133 -24 21 -24 47 -53 58 -66 17 -19
24 -21 35 -12 49 40 -36 193 -113 205 -84 14 -102 41 -62 92 11 14 17 29 14
34 -10 17 -61 9 -95 -14z"/>
<path d="M2627 3775 c-22 -22 -22 -28 7 -62 39 -45 131 -96 161 -89 37 10 52
48 31 81 -42 64 -163 107 -199 70z"/>
<path d="M2478 3743 c-41 -44 -49 -66 -38 -104 6 -19 10 -46 10 -61 0 -57 41
-44 89 28 68 103 16 219 -61 137z"/>
<path d="M1136 1762 c-9 -15 13 -77 73 -205 68 -144 91 -168 160 -166 27 1 60
-5 79 -15 19 -10 40 -15 48 -12 25 10 16 45 -16 61 -37 19 -95 95 -153 199
-53 97 -73 110 -63 40 l6 -48 -31 30 c-17 16 -40 49 -52 73 -22 45 -40 60 -51
43z"/>
<path d="M776 1618 c-2 -7 -8 -43 -14 -80 -5 -37 -17 -81 -26 -99 -20 -41 -21
-89 -2 -89 24 0 54 48 66 105 14 67 10 167 -7 173 -7 2 -15 -2 -17 -10z"/>
<path d="M310 1470 c-37 -34 -37 -36 -5 -210 17 -92 13 -175 -11 -222 -8 -14
-33 -39 -56 -55 -53 -35 -71 -83 -43 -113 10 -11 31 -20 46 -20 83 0 150 215
148 470 -2 184 -15 209 -79 150z"/>
<path d="M74 1394 c-8 -20 -18 -78 -21 -128 -4 -68 -12 -102 -29 -136 -28 -52
-31 -92 -9 -110 26 -22 61 3 94 67 24 48 30 55 36 38 19 -58 48 -71 66 -31 12
26 1 152 -21 227 -15 52 -52 103 -78 107 -18 3 -26 -4 -38 -34z"/>
<path d="M2250 1386 c-5 -14 -12 -55 -16 -91 -6 -55 -4 -66 10 -71 25 -9 38 8
46 61 13 87 -16 162 -40 101z"/>
<path d="M2100 1315 c-16 -49 -18 -191 -2 -207 10 -10 16 -9 30 5 13 13 18 38
20 100 5 119 -23 178 -48 102z"/>
<path d="M452 1214 c-5 -11 -15 -82 -21 -159 -7 -77 -14 -149 -16 -161 -3 -11
2 -29 10 -40 15 -19 15 -18 34 3 42 50 56 322 19 359 -15 15 -17 15 -26 -2z"/>
<path d="M2292 1128 c-6 -8 -18 -69 -26 -136 -13 -109 -19 -129 -51 -180 -41
-67 -45 -104 -13 -126 33 -23 72 -20 106 9 39 33 58 83 67 178 4 42 11 77 15
77 11 0 66 -108 85 -168 13 -40 23 -54 41 -58 27 -7 54 10 54 35 0 23 -44 115
-74 154 -13 17 -31 54 -38 81 -13 42 -20 52 -48 61 -22 7 -38 22 -49 45 -17
37 -50 50 -69 28z"/>
<path d="M984 1119 c-3 -6 -3 -37 0 -69 9 -77 -7 -173 -45 -260 -36 -85 -36
-116 1 -112 40 4 93 53 123 113 57 112 45 255 -24 314 -34 28 -44 30 -55 14z"/>
<path d="M617 1096 c-7 -17 7 -68 60 -226 31 -92 42 -116 59 -118 48 -7 85
180 51 260 -27 65 -154 127 -170 84z"/>
<path d="M1221 1073 c-18 -63 -14 -223 7 -263 34 -70 112 -74 167 -9 30 37 25
49 -44 111 -58 50 -81 89 -81 139 0 33 -14 59 -32 59 -4 0 -12 -17 -17 -37z
m87 -205 c19 -19 14 -38 -10 -38 -32 0 -52 15 -45 34 7 19 38 21 55 4z"/>
<path d="M2587 1024 c-4 -4 -7 -19 -6 -33 1 -38 52 -173 69 -183 33 -21 215
74 215 111 0 8 -8 19 -17 25 -14 8 -30 4 -73 -18 -76 -38 -98 -32 -133 41 -26
56 -41 71 -55 57z"/>
<path d="M3404 963 c-3 -10 -17 -40 -31 -67 -23 -43 -25 -57 -21 -125 5 -80
33 -153 63 -165 32 -12 64 -6 91 17 33 28 27 42 -34 87 -46 33 -72 80 -72 129
0 48 15 44 59 -14 23 -31 59 -67 80 -81 60 -39 94 -40 189 -5 46 17 96 31 111
31 37 0 59 24 41 45 -17 20 -59 19 -159 -5 -83 -20 -83 -20 -115 -1 -35 22
-88 77 -130 134 -29 39 -63 49 -72 20z"/>
<path d="M1843 868 c-5 -7 -24 -48 -42 -91 -40 -98 -34 -112 47 -104 77 8 85
18 79 96 -4 55 -9 69 -32 88 -30 26 -39 28 -52 11z"/>
<path d="M3181 798 c-5 -13 -25 -39 -45 -57 -20 -19 -36 -41 -36 -49 0 -21 65
-82 88 -82 11 0 25 6 31 14 15 18 24 124 13 161 -11 38 -39 45 -51 13z"/>
<path d="M4333 740 c-29 -12 -46 -45 -34 -67 27 -50 93 -83 167 -83 24 0 46
-4 49 -10 16 -25 92 -3 129 39 26 29 48 26 68 -9 31 -54 58 -35 58 40 0 86
-73 110 -157 51 l-44 -31 -35 26 c-28 22 -42 26 -73 21 -25 -3 -44 0 -52 8
-20 19 -51 25 -76 15z"/>
<path d="M11650 689 c-89 -36 -142 -157 -84 -195 32 -21 137 -22 187 0 46 19
57 62 32 124 -29 71 -75 95 -135 71z"/>
<path d="M3962 548 c-17 -17 -15 -76 4 -131 40 -118 161 -150 429 -113 222 30
245 41 245 111 0 33 -6 48 -27 70 -25 24 -34 27 -78 23 -28 -2 -81 -18 -118
-35 -56 -27 -68 -29 -78 -17 -6 7 -26 23 -44 34 -31 19 -34 19 -80 4 l-47 -17
-79 42 c-83 43 -107 49 -127 29z"/>
<path d="M683 543 c-19 -7 -16 -61 7 -121 12 -31 20 -76 20 -111 0 -44 4 -60
16 -65 23 -9 49 9 74 50 28 44 24 73 -23 177 -36 78 -50 88 -94 70z"/>
<path d="M830 531 c0 -10 9 -39 21 -65 11 -25 26 -78 34 -117 20 -107 53 -126
95 -57 28 46 25 77 -12 133 -67 101 -138 155 -138 106z"/>
<path d="M6016 524 c-20 -20 -20 -53 0 -82 19 -27 85 -62 117 -62 15 0 39 -14
60 -37 37 -38 60 -45 192 -59 40 -4 57 -1 83 16 51 32 41 65 -30 89 -21 8 -30
21 -42 65 -23 78 -48 76 -109 -8 -20 -27 -47 -14 -47 22 0 38 -22 55 -62 49
-18 -2 -53 2 -78 9 -57 18 -65 17 -84 -2z"/>
<path d="M8206 368 c-20 -28 -20 -59 -2 -103 24 -58 66 -40 66 27 0 40 -24 98
-40 98 -5 0 -16 -10 -24 -22z"/>
<path d="M8050 291 c-14 -34 -6 -84 17 -106 19 -20 67 -19 87 1 9 8 16 30 16
48 0 78 -93 121 -120 57z"/>
<path d="M9986 303 c-4 -5 -14 -23 -21 -40 -18 -42 -28 -42 -40 -1 -20 66 -75
38 -75 -38 0 -54 21 -109 48 -123 35 -18 65 -12 121 23 29 19 65 40 81 46 52
22 48 53 -15 109 -34 30 -82 41 -99 24z"/>
<path d="M9687 277 c-12 -12 -37 -44 -54 -70 -38 -55 -65 -61 -88 -18 -33 64
-95 43 -95 -33 0 -84 57 -149 132 -150 39 -1 44 2 62 35 19 35 23 37 84 42 35
3 69 10 74 15 8 8 3 28 -15 70 -15 33 -27 70 -27 84 0 49 -37 62 -73 25z"/>
</g>
</svg>
