<?xml version="1.0" standalone="no"?>
<svg version="1.0" xmlns="http://www.w3.org/2000/svg"
 width="1280.000000pt" height="872.000000pt" viewBox="0 0 1280.000000 872.000000"
 preserveAspectRatio="xMidYMid meet">
<g transform="translate(0.000000,872.000000) scale(0.100000,-0.100000)"
fill="#000000" stroke="none">
<path d="M10266 8368 c-26 -194 -49 -354 -50 -355 0 -1 -37 3 -81 8 -376 43
-1010 109 -1019 106 -12 -4 -108 -529 -98 -538 4 -3 255 -32 557 -64 303 -32
553 -61 557 -65 4 -3 -28 -264 -72 -580 -219 -1591 -251 -1816 -253 -1825 -2
-5 -11 15 -21 45 -23 74 -78 154 -124 184 -46 30 -174 67 -193 55 -16 -10 -19
-6 79 -83 82 -65 115 -118 138 -225 18 -86 18 -133 0 -74 -30 94 -89 153 -184
185 -62 20 -98 23 -107 8 -9 -15 12 -38 56 -61 63 -31 94 -75 120 -161 l8 -28
-37 19 c-58 29 -102 33 -187 16 -128 -24 -127 -44 3 -65 91 -15 114 -24 170
-68 42 -33 122 -130 122 -147 0 -5 -15 5 -32 22 -44 41 -89 63 -146 70 -58 7
-156 -12 -178 -35 -16 -15 -15 -17 12 -29 16 -7 52 -12 79 -13 28 0 59 -6 71
-13 32 -18 78 -57 73 -61 -2 -2 -94 -27 -204 -56 -424 -109 -852 -233 -1276
-368 l-245 -78 -42 78 -43 77 -122 -64 -122 -64 -230 440 c-126 241 -232 439
-235 439 -3 0 -77 -38 -165 -84 -88 -46 -163 -81 -166 -77 -4 3 -152 284 -329
623 l-322 617 -125 -66 c-70 -37 -128 -62 -133 -57 -11 12 -190 354 -190 364
0 4 10 15 21 26 42 38 113 147 137 213 18 48 25 91 27 155 l3 90 86 46 c47 26
88 49 92 52 6 6 -16 52 -72 154 l-34 61 -95 -49 -94 -49 -43 33 c-104 79 -250
116 -387 97 -40 -6 -74 -9 -76 -7 -1 2 -26 49 -54 105 -28 56 -55 104 -61 108
-6 3 -64 -22 -130 -56 l-119 -63 60 -113 61 -114 -54 -57 c-92 -100 -138 -217
-138 -352 l0 -75 -95 -48 -96 -47 52 -98 c29 -53 56 -101 61 -107 5 -6 44 10
101 40 l92 48 50 -38 c98 -74 189 -99 346 -94 l111 4 94 -179 c52 -99 93 -184
91 -189 -1 -5 -56 -37 -122 -71 -65 -33 -118 -65 -117 -71 1 -5 146 -286 323
-624 249 -476 318 -616 308 -622 -8 -5 -63 -34 -124 -65 -60 -31 -129 -67
-151 -81 l-42 -23 130 -248 c72 -136 145 -277 164 -314 l34 -68 -47 31 c-81
51 -131 61 -225 44 -45 -8 -88 -21 -96 -29 -19 -19 -17 -20 101 -40 49 -9 104
-25 122 -36 40 -25 131 -123 159 -172 19 -32 19 -32 -23 9 -44 44 -129 83
-180 83 -49 0 -140 -22 -153 -37 -20 -24 17 -43 83 -43 44 0 65 -6 95 -26 44
-29 94 -74 94 -84 0 -4 -168 -91 -372 -193 -205 -102 -467 -238 -583 -303
-115 -64 -227 -127 -248 -138 l-38 -21 -32 35 c-22 24 -37 53 -46 93 -7 31
-15 57 -18 57 -3 0 -12 -8 -19 -17 -21 -28 -16 -85 11 -139 14 -27 25 -50 25
-52 0 -2 -14 5 -31 15 -53 30 -69 67 -69 161 0 74 -2 83 -17 80 -14 -2 -19
-15 -21 -53 -3 -46 -18 -8 -202 515 -110 311 -211 597 -225 636 l-26 71 -57
-13 c-82 -20 -189 -18 -232 4 -20 10 -45 36 -60 61 -68 118 -229 123 -515 17
-234 -87 -376 -181 -411 -272 -15 -39 -16 -52 -5 -94 15 -58 3 -89 -53 -138
-34 -29 -150 -102 -164 -102 -4 0 -13 -4 -20 -9 -13 -8 13 -85 360 -1091 109
-316 152 -441 199 -580 28 -80 59 -169 70 -198 10 -29 19 -60 18 -70 -1 -9
-60 -71 -133 -138 -202 -186 -444 -454 -571 -634 -21 -30 -41 -59 -45 -63 -4
-4 -28 29 -55 73 -52 89 -148 200 -172 200 -18 0 -16 -9 21 -95 64 -150 12
-215 -178 -223 -94 -4 -98 -4 -92 15 16 51 36 166 42 243 7 89 -6 181 -33 233
-27 52 -38 27 -45 -104 -3 -68 -14 -151 -22 -183 -25 -90 -83 -191 -150 -260
-60 -63 -148 -126 -173 -126 -46 0 43 199 134 299 l55 61 -32 0 c-71 0 -286
-124 -360 -207 -22 -25 -40 -43 -40 -40 0 4 13 66 30 139 42 190 53 295 48
440 -4 120 -7 131 -39 195 -33 67 -93 123 -110 106 -5 -5 3 -32 16 -60 53
-110 54 -307 4 -543 -46 -212 -142 -438 -232 -548 -82 -100 -190 -163 -252
-148 -19 5 -32 20 -47 53 -18 42 -20 60 -15 167 7 144 32 251 85 356 20 41 39
79 41 83 9 23 -53 -24 -127 -96 -80 -78 -82 -80 -82 -51 0 49 28 140 64 211
39 76 64 107 119 147 20 15 37 31 37 36 0 29 -132 -56 -265 -170 -76 -66 -94
-95 -95 -154 0 -39 0 -39 -21 -20 -68 62 -64 143 12 249 18 25 30 48 26 51
-11 11 -79 -29 -134 -79 -126 -116 -213 -265 -264 -452 -23 -84 -18 -293 10
-400 13 -49 30 -104 39 -122 l16 -33 6358 0 6358 0 0 2560 0 2560 -22 -4 c-13
-3 -97 -8 -188 -11 -480 -18 -988 -82 -1667 -210 -102 -20 -188 -33 -191 -31
-7 8 78 46 102 46 11 0 48 5 83 11 60 10 63 12 49 28 -16 18 -116 41 -175 41
-17 0 -53 -9 -81 -19 -60 -23 -62 -18 -19 68 25 49 39 66 72 82 125 63 86 108
-49 58 -75 -28 -136 -90 -163 -167 l-21 -57 6 55 c8 73 39 169 67 211 12 19
58 61 101 94 68 52 75 61 58 68 -25 11 -143 -24 -195 -59 -21 -14 -47 -39 -57
-57 -11 -18 -20 -27 -20 -22 0 6 34 253 75 550 41 297 107 776 146 1065 40
289 74 527 75 529 2 2 244 -22 539 -54 294 -32 536 -57 538 -54 7 9 96 533 91
538 -2 3 -35 8 -72 12 -605 65 -1017 111 -1018 112 -1 1 20 155 46 342 26 187
46 342 44 343 -1 2 -146 24 -321 48 -175 24 -318 44 -318 44 -1 0 -22 -159
-49 -352z"/>
</g>
</svg>
