<?xml version="1.0" standalone="no"?>
<svg version="1.0" xmlns="http://www.w3.org/2000/svg"
 width="1280.000000pt" height="1280.000000pt" viewBox="0 0 1280.000000 1280.000000"
 preserveAspectRatio="xMidYMid meet">
<g transform="translate(0.000000,1280.000000) scale(0.100000,-0.100000)"
fill="#000000" stroke="none">
<path d="M6247 12467 l-139 -242 -35 -559 -35 -559 36 -166 c22 -100 36 -192
36 -231 -1 -88 -57 -960 -62 -965 -2 -3 -62 203 -133 458 -70 254 -136 483
-145 508 -14 38 -16 72 -13 200 l4 154 -151 539 c-83 297 -154 544 -158 551
-13 22 -366 415 -372 415 -4 0 -45 -120 -92 -267 l-85 -268 83 -555 82 -555
75 -165 75 -165 74 -502 c40 -277 71 -499 67 -495 -4 4 -112 207 -239 452
-128 245 -238 452 -245 460 -6 8 -27 87 -45 175 l-33 159 -258 494 -258 495
-228 167 c-125 93 -229 167 -231 165 -1 -1 -15 -129 -30 -283 l-28 -280 196
-524 195 -524 107 -146 107 -145 176 -473 c97 -260 175 -474 173 -476 -2 -1
-145 169 -318 379 -173 209 -326 392 -340 407 -14 14 -53 91 -88 170 l-63 145
-355 430 -356 430 -256 116 c-172 78 -258 112 -260 103 -2 -7 11 -134 28 -283
l31 -270 301 -473 301 -473 134 -119 134 -119 257 -406 c142 -223 267 -419
277 -436 19 -30 19 -30 0 -14 -106 86 -795 628 -809 636 -10 6 -62 70 -115
144 l-96 133 -436 346 -436 345 -271 59 c-150 33 -274 57 -276 55 -3 -3 34
-124 81 -269 l87 -265 392 -400 393 -400 153 -87 153 -87 220 -223 c121 -123
285 -290 365 -371 l145 -149 -462 231 c-255 127 -470 231 -478 231 -8 0 -71
52 -140 115 l-126 114 -497 247 -497 247 -289 5 -290 5 20 -34 c11 -19 76
-130 144 -248 l125 -214 470 -312 470 -311 169 -53 169 -54 423 -281 c233
-154 422 -282 420 -283 -3 -3 -129 29 -723 182 -138 36 -261 65 -272 65 -11 0
-84 38 -163 84 l-143 84 -541 139 -541 140 -271 -56 c-149 -31 -273 -59 -277
-62 -6 -6 341 -394 373 -416 9 -7 246 -102 526 -213 l508 -201 183 -18 183
-19 475 -188 c262 -104 475 -190 473 -191 -1 -1 -99 2 -217 7 -465 21 -697 30
-769 31 -61 1 -103 10 -227 50 l-151 49 -219 10 c-120 5 -330 14 -468 20 -137
5 -290 12 -340 15 l-90 6 -255 -112 c-140 -61 -258 -114 -262 -118 -4 -3 81
-69 189 -146 108 -77 211 -151 229 -164 39 -28 -3 -19 634 -126 l505 -85 178
20 178 21 482 -81 c265 -45 492 -84 505 -88 15 -5 -155 -37 -475 -90 -274 -46
-509 -88 -523 -93 -17 -6 -79 -3 -185 10 l-160 18 -551 -93 -551 -93 -199
-142 c-110 -78 -214 -153 -232 -167 l-33 -25 262 -114 261 -114 561 24 562 25
168 55 169 56 241 11 c133 6 334 15 447 20 112 6 234 10 270 10 l65 0 -480
-191 c-263 -104 -484 -194 -490 -199 -5 -4 -84 -15 -175 -24 l-165 -17 -520
-206 -520 -206 -185 -204 c-102 -112 -186 -207 -188 -211 -1 -4 123 -33 275
-64 l278 -57 538 138 538 139 117 68 c228 132 149 105 677 239 187 48 380 98
429 111 49 13 85 20 80 15 -5 -5 -200 -136 -434 -291 -234 -155 -427 -286
-430 -290 -3 -5 -77 -32 -165 -60 l-160 -52 -463 -307 -462 -307 -144 -245
-143 -244 283 -3 283 -2 508 255 508 254 125 116 c141 130 136 127 770 437
l285 139 -175 -178 c-96 -98 -270 -274 -385 -392 -208 -212 -211 -215 -339
-287 l-129 -73 -391 -400 -391 -399 -88 -267 c-49 -146 -87 -268 -85 -269 1
-2 127 24 278 57 l275 60 435 344 c357 283 443 356 479 406 183 254 147 219
562 548 464 369 427 341 396 293 -13 -22 -140 -220 -281 -442 -141 -222 -256
-407 -256 -412 0 -5 -57 -60 -127 -124 l-128 -114 -297 -469 -296 -468 -31
-279 c-17 -154 -30 -281 -28 -282 2 -2 119 49 261 113 l257 117 355 431 356
430 72 165 73 166 323 392 c178 215 325 390 327 389 1 -2 -78 -220 -177 -486
-99 -265 -180 -488 -180 -494 -1 -7 -44 -72 -98 -144 l-97 -133 -194 -521
-194 -522 27 -281 c16 -155 29 -282 30 -284 2 -1 106 74 232 167 l229 169 255
488 255 488 40 186 41 185 233 448 c129 246 235 446 237 444 2 -2 -30 -231
-71 -510 -41 -278 -75 -513 -75 -523 0 -9 -29 -81 -65 -161 l-65 -144 -80
-537 c-44 -295 -80 -546 -80 -557 -1 -26 163 -545 172 -545 3 0 77 80 164 178
86 97 170 191 185 207 24 26 49 106 178 570 l151 540 0 185 0 186 135 483 c74
266 137 486 140 489 3 3 5 -10 5 -29 0 -61 60 -983 65 -1006 3 -12 -11 -94
-30 -182 l-35 -159 35 -558 35 -557 138 -243 c75 -134 140 -243 143 -244 4 0
70 111 147 247 l140 248 34 555 34 555 -39 170 c-40 179 -42 221 -22 465 3 30
14 208 26 395 11 187 22 341 23 342 1 2 65 -221 141 -495 76 -273 142 -501
146 -506 5 -6 9 -88 9 -184 l0 -173 126 -452 c69 -249 136 -487 148 -531 l22
-79 189 -213 c104 -117 190 -212 191 -211 1 1 41 123 88 271 l86 270 -81 550
-81 551 -75 165 -75 165 -74 495 c-40 272 -74 502 -74 510 0 8 108 -192 240
-444 133 -253 245 -465 250 -471 5 -6 25 -83 43 -172 l34 -160 252 -484 c139
-266 260 -492 269 -501 10 -10 114 -89 232 -176 172 -127 216 -156 222 -143 4
9 18 136 32 282 l25 266 -195 523 c-106 288 -198 528 -202 534 -5 6 -53 71
-107 145 l-99 134 -177 476 c-98 261 -177 477 -175 478 2 2 139 -162 306 -364
167 -203 320 -386 340 -408 26 -27 58 -87 101 -185 l63 -144 190 -231 c104
-126 265 -320 356 -430 l166 -200 259 -118 c142 -64 259 -116 260 -115 1 2
-13 130 -30 285 l-32 282 -299 471 -299 470 -137 123 -138 122 -269 425 c-148
234 -268 426 -266 428 1 2 178 -136 391 -305 214 -170 402 -318 417 -329 16
-11 72 -80 125 -153 l97 -132 432 -342 433 -342 270 -59 c149 -32 273 -56 276
-53 3 3 -34 125 -83 271 l-88 265 -384 393 -385 393 -164 95 -163 95 -356 363
c-195 199 -352 362 -350 362 3 0 211 -101 463 -225 251 -124 461 -225 466
-225 5 0 65 -50 131 -111 l122 -111 500 -250 500 -251 288 -5 c158 -2 287 -2
287 2 0 7 -268 465 -283 485 -6 7 -219 151 -472 319 l-460 305 -152 48 c-83
26 -166 55 -185 63 -39 17 -867 565 -855 566 8 0 504 -126 865 -221 62 -16
122 -29 133 -29 12 0 86 -38 165 -85 l144 -84 357 -92 c197 -50 441 -113 542
-139 l184 -47 253 52 c139 29 264 55 278 59 25 6 18 16 -168 219 l-194 212
-515 203 -516 203 -183 19 -183 18 -460 182 c-253 100 -467 186 -475 191 -9 6
20 7 80 4 52 -3 210 -10 350 -15 140 -5 296 -12 345 -15 50 -3 134 -6 189 -6
90 -1 110 -5 245 -50 l146 -49 215 -10 c118 -5 328 -14 465 -20 138 -5 291
-12 340 -16 l90 -6 255 112 c140 61 258 115 262 118 4 4 -97 82 -225 173
l-232 166 -550 91 -550 92 -178 -20 -177 -21 -478 81 c-262 44 -490 83 -507
87 -21 4 130 34 480 93 281 48 517 90 525 94 8 3 87 -3 175 -13 l160 -18 553
93 554 93 228 163 c126 90 229 165 229 168 1 3 -116 56 -260 119 l-260 113
-242 -11 c-133 -6 -357 -15 -497 -21 -382 -15 -367 -13 -547 -74 l-162 -54
-233 -11 c-560 -26 -745 -33 -768 -30 -17 3 110 57 380 163 223 87 446 176
495 197 80 34 107 40 245 54 l155 16 521 205 520 206 187 205 c103 113 187
208 187 212 0 4 -124 33 -275 64 l-276 56 -212 -54 c-117 -30 -360 -93 -541
-140 l-328 -84 -155 -91 c-112 -66 -175 -97 -226 -110 -40 -10 -259 -67 -487
-125 -228 -59 -418 -109 -422 -112 -5 -2 -8 -1 -7 4 0 4 201 141 446 303 l445
295 151 50 152 51 460 305 460 306 142 244 143 244 -279 3 -280 2 -503 -248
-504 -249 -134 -122 -134 -123 -458 -229 c-252 -126 -458 -226 -458 -222 0 4
105 113 233 243 128 129 293 298 367 375 128 133 142 144 275 222 l140 82 391
398 391 399 87 262 c48 144 86 266 84 270 -2 5 -127 -18 -278 -52 l-275 -61
-435 -345 -435 -346 -106 -147 -107 -148 -397 -315 c-218 -174 -398 -314 -400
-312 -2 2 116 190 262 418 145 228 271 429 278 445 7 17 67 77 133 135 l119
105 302 474 302 474 30 269 c16 149 29 276 27 283 -2 10 -82 -22 -260 -103
l-257 -117 -355 -430 -354 -429 -72 -165 -72 -165 -325 -393 c-178 -216 -326
-393 -328 -393 -3 0 0 12 6 28 68 174 349 939 349 949 0 7 44 73 98 145 l98
133 196 525 195 525 -28 279 c-15 153 -29 280 -31 282 -2 1 -106 -73 -231
-165 l-228 -167 -259 -496 -258 -495 -36 -177 -36 -176 -237 -454 c-131 -250
-239 -454 -240 -453 -1 2 32 227 72 502 41 275 75 511 75 526 0 14 30 90 66
170 l66 144 83 555 82 555 -84 265 c-46 146 -86 267 -89 269 -3 3 -13 -4 -23
-15 -50 -51 -361 -405 -361 -409 0 -3 -68 -249 -151 -547 l-152 -543 7 -161 7
-162 -91 -328 c-174 -620 -188 -669 -193 -654 -3 8 -17 224 -32 480 -15 256
-30 486 -34 512 -6 37 -1 81 27 207 l35 161 -35 557 -36 558 -138 243 c-76
133 -141 242 -144 242 -3 0 -67 -109 -143 -243z m483 -3063 l0 -125 -27 3
c-16 2 -27 8 -27 13 3 24 49 235 51 235 2 0 3 -57 3 -126z m-621 -115 c-16
-10 -40 -8 -40 4 1 4 1 58 2 120 l1 112 26 -113 c22 -97 23 -115 11 -123z
m-600 -71 l20 -48 -25 -6 c-14 -4 -27 -4 -29 -2 -3 2 -14 49 -25 104 -11 54
-23 108 -25 119 -5 22 52 -93 84 -167z m1839 44 c-23 -114 -30 -126 -67 -103
-11 7 -4 30 34 115 26 59 49 105 51 103 2 -2 -6 -54 -18 -115z m-1173 -198
l19 -97 -23 -18 c-15 -12 -39 -19 -67 -19 l-44 0 0 108 c0 60 3 112 7 115 3 4
25 7 48 7 l41 0 19 -96z m533 90 c21 -6 22 -11 22 -118 l0 -112 -55 6 c-30 3
-60 11 -65 16 -7 7 -3 43 12 112 23 109 25 112 86 96z m-1804 -129 c61 -82 65
-91 49 -103 -9 -7 -22 -11 -28 -9 -5 2 -32 53 -58 113 -54 123 -54 123 37 -1z
m3020 -19 c-26 -58 -52 -106 -59 -106 -6 0 -18 6 -27 13 -14 11 -8 23 55 109
40 53 73 95 75 93 1 -1 -18 -50 -44 -109z m-2307 -26 l31 -70 -26 -6 c-15 -3
-40 -10 -56 -15 -16 -5 -31 -7 -34 -5 -4 4 -31 121 -32 138 0 7 48 26 71 27
10 1 26 -24 46 -69z m1666 -33 c-9 -40 -17 -73 -18 -75 -2 -3 -85 22 -113 34
-1 0 12 33 29 71 l31 71 43 -14 42 -15 -14 -72z m-2168 -208 c37 -50 63 -95
58 -99 -4 -4 -29 -19 -54 -34 -56 -32 -55 -33 -108 90 l-38 89 36 22 c20 12
37 23 38 23 0 0 31 -41 68 -91z m2704 32 c0 -3 -17 -44 -38 -91 -43 -98 -59
-107 -129 -67 l-42 24 68 90 67 91 38 -21 c20 -11 37 -23 36 -26z m-3429 -112
c81 -76 84 -80 66 -94 -11 -8 -22 -15 -25 -15 -3 0 -36 43 -73 95 -37 52 -64
95 -60 95 4 -1 45 -37 92 -81z m4113 69 c-6 -7 -40 -55 -78 -106 -65 -90 -68
-92 -86 -76 -11 10 -18 21 -17 26 3 8 180 167 187 168 2 0 -1 -6 -6 -12z
m-3850 -302 l69 -63 -15 -34 c-8 -19 -26 -44 -39 -57 l-25 -23 -60 83 c-84
118 -80 108 -47 135 16 12 34 23 39 22 6 0 41 -28 78 -63z m3601 25 l28 -29
-64 -90 -65 -90 -41 36 c-23 20 -42 44 -44 54 -2 10 26 42 72 82 41 36 77 66
80 66 4 0 19 -13 34 -29z m-4204 -331 c-6 -10 -13 -21 -18 -24 -4 -2 -48 34
-97 80 l-90 84 107 -61 c95 -53 107 -63 98 -79z m4833 66 c-32 -29 -73 -66
-92 -82 -32 -27 -34 -27 -47 -9 -8 10 -14 21 -14 25 0 6 190 119 203 119 5 1
-18 -23 -50 -53z m-4637 -152 l64 -36 -37 -44 c-21 -24 -40 -44 -43 -44 -3 1
-29 22 -57 48 l-53 47 26 33 c14 17 28 32 31 32 2 0 34 -16 69 -36z m4414 -45
c0 -8 -102 -99 -110 -98 -11 1 -72 93 -64 96 5 2 34 19 64 38 l55 33 28 -31
c15 -17 27 -34 27 -38z m-5012 -340 c56 -18 102 -35 102 -39 0 -3 -6 -15 -14
-25 -13 -18 -18 -16 -115 39 -89 51 -126 77 -88 63 6 -3 58 -20 115 -38z
m5597 8 c-11 -7 -58 -35 -103 -62 -68 -39 -86 -45 -93 -34 -9 15 -11 24 -6 36
2 8 182 70 207 72 10 1 8 -3 -5 -12z m-5157 -152 c7 -7 -35 -99 -50 -109 -9
-5 -43 9 -103 44 -50 29 -92 54 -94 56 -2 2 4 21 13 42 l18 39 106 -33 c58
-19 108 -36 110 -39z m4837 25 c8 -16 15 -35 15 -42 -1 -18 -167 -111 -186
-104 -14 5 -53 79 -54 102 0 8 164 68 202 73 4 1 14 -12 23 -29z m-5407 -487
c23 -4 32 -11 32 -24 0 -11 -6 -22 -12 -24 -7 -3 -60 11 -118 30 l-105 35 85
-5 c47 -3 100 -8 118 -12z m5951 3 c-5 -5 -223 -76 -232 -76 -4 0 -7 13 -7 29
l0 29 98 9 c123 13 146 14 141 9z m-5666 -31 c66 -7 68 -7 83 -43 17 -41 11
-107 -9 -99 -7 2 -57 19 -112 37 -55 18 -101 33 -102 34 -1 1 3 21 9 44 10 39
13 43 37 38 14 -3 56 -8 94 -11z m5301 -27 c15 -58 12 -62 -95 -97 -67 -22
-104 -30 -111 -23 -12 12 -16 107 -6 118 8 7 103 20 169 23 30 1 38 -3 43 -21z
m-5350 -575 c-3 -32 -8 -59 -9 -61 -1 -2 -32 0 -69 4 l-66 7 0 43 0 43 43 5
c38 5 77 11 100 15 5 0 5 -25 1 -56z m5409 20 c4 -2 7 -22 7 -43 0 -39 0 -39
-47 -45 -27 -3 -60 -9 -75 -11 l-28 -6 0 62 0 62 68 -7 c37 -4 70 -9 75 -12z
m-5686 -49 c-3 -3 -55 1 -116 7 -61 7 -109 14 -107 16 2 2 53 10 112 16 l109
12 3 -23 c2 -13 1 -26 -1 -28z m5991 20 c40 -4 71 -9 69 -11 -3 -2 -44 -8 -93
-13 -49 -5 -104 -12 -121 -15 -32 -6 -33 -4 -33 26 l0 32 53 -6 c28 -4 85 -10
125 -13z m-5573 -508 c8 -52 0 -83 -23 -90 -9 -2 -58 -8 -108 -11 l-91 -7 -7
37 c-4 20 -4 40 -1 44 9 9 186 69 207 70 12 1 18 -10 23 -43z m5105 0 c114
-35 114 -35 105 -85 -6 -39 -9 -42 -33 -37 -15 3 -62 8 -104 12 -65 5 -78 10
-84 26 -9 29 6 120 20 115 6 -2 49 -16 96 -31z m-5460 -80 c0 -8 2 -21 6 -29
4 -11 -11 -16 -73 -21 -43 -3 -98 -9 -123 -11 -36 -4 -23 3 65 34 128 46 125
45 125 27z m5910 -69 c16 -8 -135 0 -187 10 -26 4 -33 10 -33 27 0 13 3 25 6
28 5 5 166 -44 214 -65z m-5421 -362 c37 -25 68 -70 53 -79 -12 -7 -202 -66
-212 -66 -6 0 -18 16 -27 36 -15 31 -16 37 -3 44 8 5 44 27 80 49 36 21 66 40
68 40 1 1 20 -10 41 -24z m4828 -31 c43 -25 80 -48 82 -50 2 -2 -4 -21 -13
-43 l-18 -39 -107 35 c-58 20 -107 37 -109 38 -1 1 4 18 12 37 13 31 49 66 68
67 4 1 42 -20 85 -45z m-5123 -156 c-4 -7 -195 -68 -211 -68 -4 0 37 27 92 59
98 58 100 59 112 38 6 -12 9 -25 7 -29z m5429 -23 c53 -32 97 -59 97 -60 0 -3
-223 65 -228 70 -5 5 21 54 27 51 3 -2 50 -29 104 -61z m-4910 -327 c15 -20
27 -39 27 -41 0 -7 -107 -67 -119 -67 -5 0 -20 14 -32 32 l-23 31 55 48 c30
26 56 45 60 41 3 -4 17 -24 32 -44z m4379 -25 l28 -29 -23 -32 c-12 -17 -25
-32 -29 -32 -6 0 -107 56 -116 65 -2 2 11 23 29 48 l32 46 26 -19 c14 -10 38
-31 53 -47z m-4604 -125 c26 -26 24 -28 -114 -102 l-69 -38 80 76 c44 42 82
76 86 76 3 0 10 -5 17 -12z m4857 -107 c33 -30 56 -52 50 -49 -5 3 -56 31
-112 62 l-103 58 18 23 17 23 35 -31 c19 -16 62 -55 95 -86z m-4183 -123 c2
-22 -9 -38 -70 -92 -40 -36 -76 -66 -80 -66 -5 0 -20 12 -34 28 l-27 27 71 99
71 98 33 -33 c18 -19 34 -46 36 -61z m3512 -20 l66 -91 -32 -28 c-37 -31 -31
-33 -128 54 -49 44 -52 49 -46 82 6 30 45 75 66 75 5 0 38 -41 74 -92z m-3829
-294 c-96 -88 -116 -98 -69 -32 22 29 53 72 69 95 l30 42 20 -20 20 -20 -70
-65z m3991 69 c132 -182 132 -185 1 -69 -63 56 -66 60 -50 78 21 24 26 23 49
-9z m-3233 -44 c12 -7 23 -13 25 -14 2 -2 -29 -46 -68 -99 l-71 -96 -29 15
c-16 8 -31 19 -35 25 -3 5 11 48 31 95 l36 85 45 0 c24 0 54 -5 66 -11z m2631
-79 c21 -50 37 -92 35 -93 -26 -18 -60 -37 -67 -37 -7 0 -106 130 -135 176
-11 19 39 43 88 44 l41 0 38 -90z m-2181 -224 c16 -4 27 -10 25 -14 -2 -4 -14
-33 -27 -65 -14 -31 -28 -57 -33 -57 -5 0 -24 6 -42 14 l-33 14 15 70 15 71
26 -13 c14 -7 39 -16 54 -20z m1675 -27 c18 -76 16 -86 -19 -98 -18 -6 -35
-11 -39 -11 -8 0 -64 120 -58 124 3 4 90 34 99 35 3 1 11 -22 17 -50z m-2333
27 c17 -12 14 -18 -45 -97 -93 -124 -93 -124 -35 6 15 33 31 70 36 83 10 26
18 27 44 8z m2978 -93 c25 -59 45 -108 44 -110 -3 -2 -111 144 -130 175 -8 12
15 41 34 42 3 0 26 -48 52 -107z m-1760 59 l24 -27 -20 -92 -20 -93 -43 0 -44
0 0 123 0 123 39 -4 c26 -3 47 -13 64 -30z m567 -92 l0 -120 -44 0 -45 0 -16
78 c-9 42 -19 84 -21 92 -8 23 55 69 94 70 l32 0 0 -120z m-1218 -142 c-6 -24
-86 -198 -89 -194 -3 3 33 182 42 213 6 18 51 -1 47 -19z m1833 -85 c23 -105
25 -141 6 -92 -5 13 -25 59 -45 103 -20 43 -36 80 -36 83 0 5 44 21 48 18 2
-2 14 -52 27 -112z m-1228 -27 c3 -2 -48 -221 -53 -225 -2 -2 -4 51 -4 118 l0
121 28 -6 c15 -4 28 -7 29 -8z m613 -118 c0 -67 -2 -119 -4 -117 -3 3 -14 50
-26 104 -12 55 -24 108 -26 118 -4 13 1 17 25 17 l31 0 0 -122z"/>
</g>
</svg>
