<?xml version="1.0" standalone="no"?>
<svg version="1.0" xmlns="http://www.w3.org/2000/svg"
 width="1280.000000pt" height="1280.000000pt" viewBox="0 0 1280.000000 1280.000000"
 preserveAspectRatio="xMidYMid meet">
<g transform="translate(0.000000,1280.000000) scale(0.100000,-0.100000)"
fill="#000000" stroke="none">
<path d="M6331 12682 c-57 -31 -71 -70 -71 -199 l0 -113 -102 0 c-125 0 -162
-10 -215 -55 -107 -91 -96 -264 23 -344 33 -23 34 -26 16 -32 -23 -9 -52 -47
-52 -69 0 -8 6 -27 14 -42 13 -24 11 -30 -14 -68 -30 -46 -52 -97 -70 -170
l-12 -44 -36 68 c-19 37 -55 90 -79 116 -25 28 -39 51 -33 55 15 9 12 68 -5
92 -8 12 -28 24 -43 28 l-29 6 33 34 c42 45 57 93 52 165 -7 96 -64 164 -163
192 -33 9 -58 7 -144 -10 -58 -12 -106 -20 -108 -18 -3 2 -16 53 -29 112 -19
83 -31 115 -51 136 -71 74 -186 50 -223 -47 -10 -24 -7 -51 11 -142 13 -62 21
-115 18 -117 -3 -3 -47 -14 -99 -26 -119 -26 -171 -56 -207 -118 -68 -115 -11
-269 114 -313 l31 -10 -24 -24 c-29 -29 -31 -74 -6 -106 18 -22 18 -24 -1 -73
-10 -28 -22 -90 -26 -138 l-6 -88 -46 58 c-25 31 -69 73 -98 92 -42 29 -51 39
-47 59 5 33 -12 79 -34 91 -10 6 -30 10 -44 10 l-25 0 24 46 c66 124 2 277
-131 314 -57 16 -106 8 -200 -35 -42 -19 -82 -35 -88 -35 -6 0 -32 46 -57 103
-52 117 -83 147 -153 147 -67 0 -118 -44 -131 -112 -6 -30 1 -55 39 -144 26
-59 45 -108 44 -109 -2 -2 -51 -25 -109 -53 -118 -57 -150 -89 -170 -177 -27
-118 58 -239 176 -252 l44 -6 -19 -25 c-26 -33 -25 -73 3 -102 20 -22 22 -34
22 -140 1 -63 5 -128 10 -145 8 -29 7 -29 -46 18 -29 26 -82 59 -116 74 -56
24 -63 31 -63 56 0 17 -10 38 -26 53 -20 21 -33 25 -64 22 l-38 -3 16 30 c21
41 20 131 -3 175 -41 82 -103 120 -195 120 -70 0 -96 -11 -193 -83 -38 -27
-72 -46 -76 -41 -4 5 -30 41 -58 79 -73 101 -94 117 -150 122 -61 5 -108 -22
-130 -74 -25 -61 -13 -102 61 -203 l66 -90 -90 -66 c-74 -54 -94 -74 -116
-120 -71 -145 26 -306 186 -308 56 -1 57 -2 44 -21 -28 -39 -7 -97 42 -115 21
-8 24 -16 24 -57 0 -51 17 -124 43 -185 9 -21 15 -38 13 -38 -2 0 -27 13 -57
30 -30 16 -87 37 -126 46 -60 13 -73 19 -73 35 0 48 -73 84 -119 60 -16 -9
-17 -5 -13 43 5 66 -11 117 -51 163 -59 68 -162 92 -245 58 -21 -9 -70 -50
-113 -96 l-76 -81 -79 72 c-44 39 -89 76 -102 81 -103 41 -209 -52 -180 -158
10 -37 17 -44 121 -141 66 -61 67 -48 -22 -147 -85 -94 -105 -157 -80 -250 17
-62 93 -130 161 -144 36 -8 64 -8 88 -1 47 14 46 15 42 -27 -3 -30 1 -43 20
-60 13 -11 32 -23 42 -25 15 -2 27 -24 47 -81 15 -42 43 -100 63 -127 20 -28
33 -50 28 -50 -4 0 -29 7 -57 16 -27 8 -86 17 -129 19 -69 3 -81 6 -87 23 -10
25 -47 52 -74 52 -11 0 -30 -7 -42 -15 -20 -14 -21 -13 -27 34 -19 142 -174
231 -301 172 -51 -24 -91 -68 -144 -159 -41 -70 -44 -73 -64 -59 -89 57 -181
99 -218 99 -100 -2 -162 -114 -110 -199 13 -20 54 -52 115 -88 53 -31 96 -59
96 -62 0 -3 -23 -46 -52 -96 -76 -133 -77 -221 -5 -304 61 -70 168 -93 252
-54 l40 18 1 -35 c1 -42 32 -72 75 -72 24 0 32 -7 54 -50 14 -27 51 -78 84
-112 l59 -63 -77 3 c-44 2 -102 -2 -138 -11 -35 -8 -63 -11 -63 -6 0 18 -45
49 -71 49 -14 0 -38 -9 -51 -20 l-25 -19 -12 40 c-26 86 -112 149 -203 149
-115 -1 -179 -58 -228 -204 -17 -53 -34 -96 -37 -96 -3 0 -49 14 -102 31 -124
40 -171 37 -218 -15 -27 -30 -33 -44 -33 -82 0 -91 27 -114 200 -169 30 -10
59 -21 63 -25 5 -4 -5 -51 -22 -104 -34 -105 -37 -139 -20 -197 43 -143 239
-198 346 -97 23 21 23 21 23 1 0 -11 9 -32 21 -47 16 -21 29 -26 62 -26 38 0
46 -5 84 -49 23 -27 70 -67 104 -89 l62 -41 -39 -6 c-79 -12 -128 -27 -174
-50 -47 -24 -48 -24 -65 -5 -27 30 -88 27 -114 -6 l-20 -25 -15 29 c-9 17 -34
46 -57 65 -95 82 -241 62 -314 -43 -22 -32 -30 -60 -41 -147 -8 -58 -16 -109
-19 -111 -2 -3 -52 0 -110 7 -91 9 -111 9 -145 -5 -73 -30 -103 -122 -60 -191
27 -45 60 -59 179 -72 58 -6 107 -13 109 -16 3 -2 0 -51 -7 -107 -11 -105 -8
-136 22 -194 64 -124 259 -144 348 -36 l24 28 20 -31 c19 -27 26 -30 76 -30
45 0 62 -5 92 -28 33 -25 129 -73 182 -92 16 -5 10 -10 -30 -24 -65 -23 -89
-36 -148 -79 -36 -26 -51 -32 -60 -23 -6 6 -28 11 -49 11 -30 0 -42 -6 -60
-30 l-22 -30 -35 34 c-87 85 -208 86 -297 4 -62 -57 -79 -116 -64 -229 15
-126 22 -116 -74 -124 -127 -10 -157 -20 -193 -59 -28 -31 -33 -43 -33 -87 0
-46 4 -55 39 -90 38 -38 40 -39 107 -38 38 0 96 4 129 8 33 5 61 8 62 7 1 -1
7 -48 13 -106 13 -111 26 -147 69 -193 86 -93 239 -89 319 9 18 21 32 44 32
51 0 20 10 16 32 -12 23 -29 71 -34 106 -10 19 14 24 14 45 1 36 -24 129 -54
192 -61 l56 -7 -50 -29 c-28 -16 -76 -55 -107 -86 -52 -53 -59 -57 -96 -54
-44 3 -88 -27 -88 -61 0 -19 -15 -24 -25 -8 -15 25 -86 50 -140 50 -118 0
-215 -94 -215 -209 0 -32 30 -148 57 -217 3 -8 -30 -23 -98 -45 -116 -38 -154
-64 -170 -119 -15 -49 -7 -81 32 -125 46 -51 79 -54 209 -14 61 18 111 31 113
28 3 -2 19 -49 37 -104 28 -84 40 -107 76 -142 61 -59 132 -76 218 -52 50 14
121 85 137 137 11 39 12 39 30 21 26 -26 72 -24 105 4 26 22 29 23 78 10 30
-8 87 -13 137 -11 l87 3 -57 -60 c-31 -33 -67 -82 -81 -108 -22 -41 -29 -47
-56 -47 -44 0 -84 -34 -84 -71 0 -33 -5 -34 -40 -14 -37 21 -133 19 -179 -4
-48 -25 -95 -79 -111 -126 -22 -68 -9 -132 47 -230 l51 -89 -99 -58 c-112 -66
-134 -92 -133 -158 1 -79 53 -130 131 -130 28 0 65 15 137 56 77 43 101 52
108 42 4 -7 26 -44 48 -83 47 -85 91 -129 149 -150 87 -30 156 -13 223 55 36
38 49 60 59 104 10 48 14 54 30 46 32 -17 60 -11 92 22 28 28 38 31 82 29 47
-2 166 18 209 35 17 7 16 3 -6 -27 -34 -45 -73 -124 -87 -177 -10 -35 -16 -42
-37 -42 -14 0 -36 -12 -51 -26 -20 -20 -24 -32 -20 -59 l5 -33 -35 10 c-89 24
-193 -25 -237 -113 -50 -101 -31 -178 73 -292 34 -38 61 -72 59 -76 -2 -4 -37
-38 -78 -75 -90 -82 -99 -97 -100 -158 0 -85 73 -141 163 -124 21 4 62 33 116
81 l85 76 85 -89 c88 -90 126 -112 196 -112 117 0 215 99 215 218 l0 52 39 0
c31 0 44 6 60 26 12 15 21 32 21 38 0 6 30 17 68 24 37 7 97 28 135 46 37 19
67 33 67 31 0 -1 -7 -16 -16 -34 -24 -49 -44 -130 -44 -183 0 -40 -3 -48 -18
-48 -44 0 -84 -70 -62 -109 10 -19 8 -21 -21 -21 -87 0 -175 -58 -204 -135
-24 -62 -17 -151 16 -199 13 -19 61 -63 106 -96 l82 -61 -66 -90 c-74 -102
-88 -151 -59 -208 34 -65 129 -92 188 -53 16 10 56 56 89 103 34 46 63 85 64
87 2 2 37 -22 79 -53 102 -75 135 -88 212 -83 71 4 123 34 163 94 29 41 40
134 23 183 -10 28 -9 31 8 31 46 0 90 41 90 84 0 8 33 29 73 49 39 19 92 50
117 70 24 20 45 35 46 34 1 -1 -2 -27 -8 -57 -6 -30 -7 -88 -4 -129 6 -72 6
-73 -25 -102 -26 -24 -30 -35 -27 -62 3 -17 8 -40 13 -50 5 -13 2 -17 -14 -17
-61 0 -148 -77 -170 -149 -36 -123 23 -219 176 -286 48 -21 89 -40 91 -41 2
-1 -18 -48 -43 -104 -48 -110 -54 -144 -30 -190 25 -49 62 -70 121 -70 74 0
100 25 154 147 23 54 44 100 45 101 2 2 48 -16 102 -39 123 -55 183 -58 256
-16 111 66 138 187 69 320 -2 4 3 7 11 7 8 0 26 9 41 21 20 16 26 29 26 59 0
33 5 42 28 54 41 21 115 89 148 137 l29 42 6 -84 c3 -46 14 -108 23 -137 18
-53 18 -54 -3 -76 -28 -29 -28 -86 -1 -111 20 -18 20 -18 -18 -35 -112 -50
-154 -192 -88 -304 34 -59 91 -92 193 -112 45 -9 86 -20 93 -24 9 -6 7 -33
-11 -118 -21 -100 -21 -113 -8 -148 29 -77 125 -108 197 -64 40 25 54 56 78
178 11 53 23 92 30 92 7 0 56 -9 110 -20 112 -23 160 -18 225 25 48 31 89 113
89 174 0 51 -27 118 -59 150 l-21 21 30 15 c32 17 46 51 36 91 -6 21 2 35 43
80 27 31 63 83 79 117 30 60 31 61 37 32 15 -66 29 -103 61 -163 32 -58 33
-65 19 -85 -28 -40 -15 -89 28 -114 17 -9 15 -12 -17 -37 -65 -49 -93 -132
-75 -218 9 -40 21 -61 58 -97 57 -58 100 -71 225 -71 l96 0 0 -117 c0 -98 3
-123 19 -149 20 -32 74 -64 110 -64 37 0 87 27 110 58 19 27 21 43 21 151 l0
121 103 0 c150 0 209 23 261 103 56 87 43 191 -33 267 l-46 45 23 22 c24 24
28 59 11 96 -9 20 -5 31 22 75 18 29 42 87 54 130 l23 77 15 -37 c19 -45 64
-112 105 -156 27 -29 29 -35 19 -62 -15 -40 0 -79 40 -100 l32 -17 -24 -23
c-26 -24 -55 -98 -55 -139 0 -93 76 -189 168 -211 45 -10 64 -9 152 10 56 12
103 20 104 19 2 -2 13 -51 26 -108 12 -57 29 -115 37 -128 22 -34 65 -53 117
-53 36 0 52 6 80 31 49 42 54 79 27 207 -12 57 -21 106 -19 108 2 2 51 13 107
25 79 17 114 30 145 53 129 98 110 292 -37 367 -34 18 -36 21 -22 35 27 28 29
63 6 95 l-22 30 21 62 c11 34 24 97 27 140 5 60 8 74 16 60 14 -27 97 -111
142 -145 35 -26 39 -33 36 -64 -3 -43 29 -84 66 -84 28 0 28 2 3 -51 -58 -129
27 -284 167 -305 47 -7 102 8 214 59 l56 26 38 -87 c47 -110 59 -128 98 -152
88 -54 198 11 196 117 0 22 -18 77 -43 133 l-43 95 111 55 c89 44 116 63 139
96 34 48 46 132 27 188 -23 69 -112 146 -170 146 -23 0 -23 0 -10 34 11 30 -2
74 -27 93 -13 10 -17 35 -17 140 -1 71 -6 137 -11 148 -5 12 10 3 40 -23 27
-24 82 -59 122 -78 41 -20 73 -41 72 -47 -6 -52 25 -87 77 -87 31 0 35 -3 29
-17 -4 -10 -10 -39 -12 -64 -13 -123 85 -229 211 -229 71 0 92 9 181 75 41 30
77 55 80 55 2 0 35 -41 71 -91 85 -116 140 -142 214 -104 48 25 70 62 70 119
0 48 -5 59 -65 141 -36 49 -65 92 -65 95 0 3 38 34 85 68 89 64 118 100 136
167 34 124 -80 265 -216 265 -30 0 -31 2 -27 36 3 27 -1 41 -19 60 -12 13 -28
24 -36 24 -8 0 -13 12 -13 33 0 50 -26 160 -49 207 -11 23 -17 40 -13 38 86
-45 151 -71 201 -80 54 -10 61 -14 61 -35 0 -13 10 -33 21 -44 17 -17 30 -20
63 -17 l41 5 0 -57 c1 -150 163 -254 300 -191 22 10 72 52 113 96 l72 77 66
-58 c100 -90 123 -104 169 -104 99 0 165 104 120 189 -8 16 -50 61 -95 101
l-80 73 71 80 c88 99 102 131 97 214 -5 76 -42 136 -106 171 -44 25 -116 33
-165 19 -26 -7 -28 -6 -22 12 10 31 -21 79 -56 89 -28 7 -34 15 -50 67 -10 33
-36 89 -58 125 -21 36 -38 66 -37 68 2 1 23 -5 47 -14 24 -8 83 -18 132 -21
48 -3 87 -10 87 -15 0 -5 11 -20 25 -33 28 -29 70 -32 103 -9 21 15 22 14 22
-18 0 -49 39 -118 87 -155 75 -56 185 -55 260 3 18 14 53 60 77 102 25 42 48
83 53 91 6 10 30 1 104 -43 76 -44 105 -56 139 -56 79 0 135 57 133 135 -2 60
-27 90 -120 144 -49 28 -94 54 -101 59 -10 7 -1 29 37 94 63 106 77 164 57
231 -19 64 -56 111 -109 136 -52 25 -132 28 -184 6 -45 -19 -43 -19 -43 5 0
30 -44 70 -77 70 -24 0 -33 9 -61 60 -18 33 -55 82 -83 110 l-50 50 86 0 c47
0 106 5 131 11 43 11 47 10 73 -15 33 -32 82 -35 111 -6 26 26 26 25 33 -7 9
-45 62 -109 109 -132 62 -30 130 -28 197 5 64 32 90 70 127 186 16 49 33 88
39 88 6 0 51 -14 100 -30 103 -35 148 -37 191 -11 32 19 64 74 64 109 0 30
-19 74 -42 99 -12 13 -67 38 -130 59 -66 22 -108 41 -105 48 68 186 74 271 23
345 -66 94 -207 119 -301 53 -38 -27 -45 -29 -45 -14 0 32 -44 64 -83 61 -31
-3 -40 2 -84 51 -26 29 -73 70 -104 90 l-56 36 70 12 c39 7 97 24 129 39 54
24 60 25 76 9 38 -33 132 -8 132 35 0 6 15 -10 33 -37 43 -64 101 -94 179 -94
90 0 152 39 193 119 9 18 22 78 28 132 12 114 -2 106 150 89 69 -8 94 -7 120
4 73 30 102 108 68 179 -29 59 -59 73 -186 87 -60 6 -110 12 -111 13 -1 1 3
54 9 118 10 116 10 117 -16 172 -66 135 -243 165 -345 58 l-36 -38 -24 29
c-25 29 -71 38 -101 19 -11 -7 -25 -1 -48 20 -39 33 -120 77 -178 95 -33 10
-37 13 -20 19 83 29 127 51 172 85 51 38 53 39 83 24 40 -20 80 -7 100 32 8
16 16 31 18 33 1 3 9 -5 18 -17 8 -12 36 -34 62 -49 37 -22 59 -28 108 -28 87
0 148 38 188 118 29 58 29 59 20 169 -6 73 -6 112 1 114 6 2 54 8 108 14 54 6
111 17 126 25 83 43 92 163 15 221 -29 22 -43 26 -96 25 -35 -1 -92 -5 -126
-10 -44 -5 -65 -4 -67 3 -2 6 -8 55 -14 109 -12 116 -36 167 -99 211 -59 42
-150 48 -217 16 -41 -20 -96 -77 -108 -113 -2 -7 -12 -3 -27 11 -28 26 -76 29
-100 7 -15 -14 -23 -13 -74 11 -31 14 -92 33 -136 41 l-79 16 57 37 c31 20 79
60 105 89 41 44 51 50 68 41 38 -21 93 12 104 61 l6 28 41 -27 c36 -24 51 -27
119 -27 71 0 81 3 120 31 91 66 111 165 64 305 -14 41 -24 80 -23 87 2 8 41
26 88 41 47 15 100 35 117 44 84 44 84 176 0 227 -44 27 -77 25 -185 -11 -51
-17 -98 -29 -105 -26 -7 2 -25 44 -40 93 -38 118 -64 156 -128 188 -70 34
-128 34 -198 0 -57 -29 -111 -97 -111 -141 0 -27 -7 -28 -34 -8 -29 22 -60 18
-93 -9 -28 -24 -30 -24 -83 -10 -34 9 -87 14 -140 12 l-85 -3 51 51 c29 28 66
76 84 107 29 51 35 57 65 57 49 0 80 29 80 77 l0 39 35 -19 c56 -29 157 -20
212 19 74 52 110 144 87 227 -6 23 -31 76 -55 118 -24 42 -44 79 -44 82 0 3
39 28 88 56 109 62 133 87 139 144 14 121 -103 186 -217 121 -25 -14 -68 -39
-97 -55 l-52 -30 -42 73 c-64 111 -87 138 -143 164 -56 26 -99 30 -157 13 -81
-25 -149 -113 -149 -193 0 -32 -3 -37 -17 -31 -37 15 -49 16 -76 6 -15 -6 -32
-21 -38 -33 -9 -21 -17 -23 -97 -25 -48 -1 -109 -8 -137 -17 -27 -8 -50 -14
-51 -13 -2 1 12 25 31 52 19 28 44 83 57 122 21 67 25 73 51 73 15 0 37 10 48
21 17 17 20 30 16 65 -4 43 -4 44 22 36 46 -12 115 -6 156 15 78 41 115 102
115 193 0 75 -14 104 -97 196 l-64 72 82 73 c108 97 127 143 92 216 -21 44
-67 73 -116 73 -51 0 -68 -10 -161 -93 l-79 -71 -19 25 c-58 73 -144 149 -184
165 -94 36 -209 -6 -261 -93 -22 -38 -27 -59 -27 -113 0 -64 -1 -66 -23 -62
-42 8 -74 -7 -88 -41 -12 -30 -20 -34 -87 -50 -40 -9 -99 -30 -131 -47 -47
-23 -57 -26 -52 -12 22 52 45 137 51 191 5 48 10 61 24 61 47 0 77 82 45 127
-15 21 -14 22 18 16 112 -18 237 97 237 218 0 76 -44 139 -145 211 -41 29 -75
56 -75 61 0 4 26 42 57 84 94 127 100 188 26 253 -33 29 -41 32 -89 28 -64 -5
-76 -15 -156 -126 l-60 -83 -51 38 c-140 100 -134 97 -206 101 -54 3 -76 0
-108 -16 -101 -52 -149 -171 -108 -269 8 -19 15 -36 15 -37 0 -1 -16 -2 -36
-2 -42 0 -74 -31 -74 -70 0 -18 -8 -27 -27 -35 -64 -24 -120 -55 -170 -96 -52
-43 -53 -43 -46 -16 5 15 8 79 8 141 0 98 2 113 18 118 24 8 49 60 41 87 -3
12 -15 32 -26 43 l-19 21 46 5 c93 11 166 90 173 189 9 120 -41 186 -187 249
-45 19 -81 38 -81 43 0 5 18 50 40 99 61 139 51 211 -36 249 -36 16 -51 18
-81 10 -61 -17 -77 -35 -123 -138 -24 -54 -46 -101 -50 -106 -4 -4 -47 10 -96
32 -114 51 -158 58 -221 37 -140 -47 -195 -209 -111 -328 16 -23 17 -28 4 -28
-48 0 -95 -55 -83 -99 3 -13 -5 -24 -27 -37 -42 -25 -113 -91 -146 -136 l-27
-37 -6 77 c-3 42 -15 102 -25 132 l-20 56 24 28 c32 36 30 71 -4 105 l-28 28
52 27 c75 39 107 90 112 176 4 73 -9 112 -57 163 -37 41 -69 55 -171 76 -50
10 -93 20 -95 23 -2 2 5 44 16 93 30 138 27 170 -20 216 -35 35 -44 39 -90 39
-44 0 -56 -5 -87 -33 -32 -29 -38 -44 -61 -142 -13 -60 -26 -111 -28 -113 -2
-2 -51 6 -110 18 -93 19 -113 20 -158 9 -102 -24 -182 -145 -162 -241 10 -44
38 -99 64 -122 26 -24 27 -36 3 -36 -38 0 -69 -59 -54 -101 8 -21 2 -32 -42
-80 -28 -30 -65 -83 -81 -117 l-29 -61 -18 72 c-10 39 -33 97 -52 127 -29 50
-32 59 -20 75 31 42 4 125 -41 125 -8 0 -15 5 -15 10 0 6 4 10 10 10 20 0 84
66 101 105 43 94 5 215 -85 270 -46 28 -57 30 -163 33 l-113 4 0 106 c0 123
-14 162 -69 199 -41 28 -85 29 -130 5z m-239 -754 c-9 -9 -15 -9 -24 0 -9 9
-7 12 12 12 19 0 21 -3 12 -12z m628 -2 c-6 -8 -18 -12 -26 -9 -23 9 -16 23
12 23 22 0 24 -2 14 -14z m-1152 -52 c-9 -10 -21 -13 -29 -8 -9 5 -8 9 7 15
31 12 39 10 22 -7z m1677 -4 c-3 -5 -10 -10 -16 -10 -5 0 -9 5 -9 10 0 6 7 10
16 10 8 0 12 -4 9 -10z m-2295 -124 c0 -11 -19 -15 -25 -6 -3 5 1 10 9 10 9 0
16 -2 16 -4z m2915 -6 c-3 -5 -12 -10 -20 -10 -8 0 -17 5 -20 10 -4 6 5 10 20
10 15 0 24 -4 20 -10z m-3411 -155 c-4 -8 -16 -15 -28 -15 -20 1 -20 1 4 15
31 18 30 18 24 0z m3901 -5 c3 -5 2 -10 -4 -10 -5 0 -13 5 -16 10 -3 6 -2 10
4 10 5 0 13 -4 16 -10z m-4480 -250 c-3 -5 -12 -10 -18 -10 -7 0 -6 4 3 10 19
12 23 12 15 0z m5056 0 c5 0 9 -4 9 -10 0 -16 -26 -12 -41 7 -12 15 -12 16 4
10 10 -4 23 -7 28 -7z m-5511 -265 c0 -8 -7 -15 -16 -15 -14 0 -14 3 -4 15 7
8 14 15 16 15 2 0 4 -7 4 -15z m5965 -5 c3 -5 2 -10 -4 -10 -5 0 -13 5 -16 10
-3 6 -2 10 4 10 5 0 13 -4 16 -10z m-2560 -76 c55 -21 122 -15 163 14 l29 21
34 -35 c19 -19 59 -51 89 -71 30 -20 56 -37 58 -39 5 -3 -19 -119 -27 -132 -4
-7 -33 -5 -93 7 -98 20 -124 15 -146 -31 -14 -31 -3 -72 25 -86 10 -5 55 -18
101 -27 45 -10 82 -19 82 -21 0 -2 -5 -26 -11 -54 -9 -40 -14 -50 -27 -46 -67
21 -164 35 -186 26 -45 -17 -59 -71 -28 -109 12 -16 43 -28 107 -42 49 -11 90
-21 92 -22 1 -1 -7 -41 -17 -87 -10 -47 -26 -120 -35 -162 -15 -68 -20 -78
-39 -78 -64 -1 -179 -89 -215 -166 -12 -24 -27 -79 -35 -122 l-13 -77 -4 110
c-4 88 -9 118 -27 152 -32 61 -75 106 -127 134 l-45 24 0 167 0 168 92 0 c80
0 95 3 115 22 29 27 30 71 3 98 -17 17 -33 20 -115 20 l-95 0 0 55 0 55 90 0
c83 0 93 2 115 25 14 13 25 36 25 50 0 14 -11 37 -25 50 -22 23 -32 25 -115
25 l-91 0 3 76 3 75 56 23 c30 12 75 36 99 53 l44 30 23 -28 c13 -15 44 -35
68 -45z m-726 33 c27 -19 75 -42 106 -52 l55 -19 0 -73 0 -73 -91 0 c-50 0
-99 -5 -109 -10 -50 -27 -49 -100 0 -125 19 -10 59 -15 115 -15 l86 0 -3 -52
-3 -53 -97 -3 c-91 -3 -98 -4 -118 -29 -26 -34 -25 -59 5 -88 22 -23 32 -25
120 -25 l95 0 0 -164 0 -163 -57 -34 c-105 -62 -152 -154 -154 -298 l-1 -76
-13 67 c-18 89 -44 145 -90 192 -38 38 -125 86 -157 86 -10 0 -20 10 -23 23
-41 171 -63 302 -53 308 7 5 44 14 83 21 84 15 118 41 113 90 -2 20 -13 38
-30 51 -26 20 -28 20 -113 2 -51 -11 -89 -15 -94 -9 -5 5 -12 28 -16 51 -6 39
-5 43 17 48 13 3 52 12 88 20 91 20 124 67 85 122 -22 31 -51 34 -143 14 -59
-13 -85 -15 -88 -7 -2 6 -10 39 -17 73 l-14 62 46 30 c25 16 66 50 90 74 l43
45 35 -24 c71 -48 152 -43 211 11 20 19 38 35 39 35 1 0 24 -15 52 -33z m-855
-186 l80 -16 13 -60 c7 -33 12 -65 13 -71 0 -5 -39 -18 -87 -27 -70 -13 -93
-22 -110 -42 -30 -34 -29 -60 2 -90 29 -29 45 -30 147 -8 43 9 80 14 83 11 3
-2 6 -26 7 -53 l3 -48 -85 -19 c-46 -10 -92 -26 -102 -35 -38 -34 -10 -123 40
-123 9 0 54 8 99 17 45 9 84 15 87 12 2 -2 19 -73 37 -157 l33 -153 -47 -43
c-69 -63 -102 -141 -101 -236 1 -41 9 -97 18 -125 23 -75 14 -64 -23 25 -52
128 -142 202 -264 216 l-54 6 -67 151 c-36 83 -65 151 -64 152 2 1 38 17 81
35 92 40 117 72 97 120 -6 16 -24 34 -40 40 -25 10 -38 7 -111 -24 -45 -20
-84 -36 -86 -36 -6 0 -45 91 -41 95 2 2 35 18 73 35 39 17 78 39 87 47 28 25
23 78 -8 102 -35 28 -42 27 -136 -14 -44 -20 -82 -34 -83 -33 -7 9 -55 122
-55 129 0 5 18 27 39 49 22 23 53 63 71 90 30 47 32 48 58 34 38 -20 120 -18
162 4 19 11 46 35 59 54 l23 36 36 -15 c20 -8 72 -22 116 -32z m2456 39 c0 -5
15 -26 32 -46 54 -61 123 -79 193 -50 l33 14 28 -41 c15 -23 49 -64 75 -92
l47 -50 -28 -62 c-16 -35 -33 -63 -38 -63 -5 0 -39 14 -75 30 -108 49 -167 34
-167 -40 0 -34 30 -60 110 -94 36 -16 68 -31 71 -35 4 -3 -3 -27 -15 -53 l-21
-46 -75 34 c-84 37 -115 41 -148 18 -25 -17 -30 -69 -9 -97 6 -9 47 -32 90
-51 42 -20 77 -39 77 -43 0 -5 -28 -72 -62 -150 l-62 -141 -56 -7 c-120 -14
-223 -95 -269 -214 -13 -34 -26 -60 -28 -58 -2 2 4 35 13 73 21 90 13 160 -28
236 -17 32 -48 72 -68 88 l-38 30 33 156 c18 85 36 158 39 161 3 3 37 -2 77
-11 91 -20 112 -20 137 2 33 27 37 65 10 96 -17 19 -41 30 -98 41 -41 8 -80
17 -86 19 -15 6 4 106 20 106 6 -1 38 -7 71 -15 83 -20 115 -19 142 7 28 26
29 57 4 90 -15 19 -39 29 -105 43 -51 10 -86 23 -86 30 0 13 22 128 25 133 1
1 30 7 63 12 33 6 80 19 104 29 49 22 68 25 68 11z m-4798 -182 c-7 -7 -12 -8
-12 -2 0 14 12 26 19 19 2 -3 -1 -11 -7 -17z m6994 -5 c-8 -8 -36 5 -36 17 0
7 6 7 21 0 11 -7 18 -14 15 -17z m-5552 -183 c91 0 92 0 103 -27 6 -16 18 -45
27 -66 l16 -37 -77 -36 c-43 -19 -85 -42 -95 -51 -28 -25 -23 -77 8 -102 35
-27 39 -27 133 14 43 19 83 35 88 35 8 0 48 -89 42 -94 -2 -2 -38 -18 -79 -36
-84 -36 -110 -59 -110 -100 0 -31 39 -70 71 -70 9 0 54 17 100 37 45 21 84 33
86 28 2 -6 32 -73 67 -150 l63 -140 -24 -29 c-54 -65 -68 -105 -68 -201 0 -83
3 -96 37 -167 20 -43 35 -78 33 -78 -1 0 -14 19 -28 43 -46 76 -98 129 -161
159 -53 25 -71 28 -139 27 l-78 -2 -94 129 c-52 71 -95 132 -95 136 0 3 30 27
66 53 71 51 90 79 80 119 -8 33 -49 60 -78 53 -13 -4 -51 -27 -85 -52 -35 -25
-67 -45 -71 -45 -10 0 -67 79 -61 84 2 1 31 22 64 46 33 23 66 50 73 58 18 24
15 69 -8 92 -33 33 -69 25 -149 -31 -40 -28 -73 -50 -74 -48 -2 2 -22 30 -45
61 l-41 56 35 59 c19 32 42 79 51 104 l16 45 38 -10 c73 -19 174 36 201 110
11 32 16 35 42 30 15 -3 70 -6 120 -6z m4261 -27 c33 -79 86 -113 173 -113
l59 0 18 -47 c10 -27 33 -72 52 -101 l33 -53 -41 -60 c-37 -52 -44 -58 -60
-47 -83 61 -144 98 -161 98 -25 0 -68 -44 -68 -70 0 -35 17 -56 85 -104 36
-26 65 -53 65 -59 0 -7 -13 -28 -29 -47 l-28 -34 -70 52 c-83 61 -120 67 -153
25 -39 -50 -20 -81 112 -178 l27 -20 -94 -130 -95 -130 -63 3 c-126 7 -219
-40 -294 -147 -66 -95 -69 -95 -26 -6 62 131 58 241 -12 345 l-35 52 66 148
66 149 57 -26 c119 -54 173 -54 187 2 14 56 -1 74 -95 117 l-89 40 20 47 c11
25 22 47 23 49 1 1 37 -13 80 -33 43 -19 87 -35 99 -35 54 0 90 62 61 106 -8
13 -51 40 -95 60 -44 20 -80 40 -80 43 0 3 12 34 27 68 l27 62 96 4 c52 1 105
4 117 5 18 2 26 -7 38 -35z m-6096 -144 c-19 -12 -24 -2 -8 17 9 11 14 13 17
4 3 -7 -2 -16 -9 -21z m7777 -6 c-7 -7 -26 7 -26 19 0 6 6 6 15 -2 9 -7 13
-15 11 -17z m-6612 -381 c21 -29 37 -54 35 -55 -2 -2 -39 -29 -81 -60 -71 -53
-78 -60 -78 -92 0 -43 29 -75 68 -75 18 0 54 20 102 55 l75 55 23 -28 c47 -56
47 -57 -22 -106 -87 -62 -96 -72 -96 -111 0 -25 7 -39 27 -55 36 -28 60 -21
145 41 37 27 71 49 75 48 5 0 50 -58 100 -129 l93 -128 -25 -50 c-57 -113 -41
-219 51 -348 l56 -79 -65 63 c-36 34 -87 72 -113 83 -66 30 -151 36 -214 15
-28 -9 -56 -13 -63 -9 -7 4 -59 49 -117 102 -58 52 -109 98 -114 102 -4 4 19
39 53 78 36 42 61 81 61 94 0 50 -58 90 -99 68 -10 -6 -45 -37 -77 -70 l-59
-61 -39 36 -38 36 34 37 c92 97 105 129 71 169 -10 12 -31 24 -46 28 -26 6
-36 -1 -99 -65 l-70 -72 -46 42 c-26 23 -51 45 -56 50 -4 4 1 32 13 63 11 31
24 81 27 111 l7 55 41 0 c80 0 159 70 172 150 l6 37 77 6 c42 3 94 12 116 20
22 8 43 12 46 8 3 -3 23 -30 43 -59z m5533 47 c15 -6 64 -14 108 -17 l80 -7 5
-40 c11 -81 72 -142 152 -152 48 -7 58 -16 58 -55 0 -15 12 -60 26 -100 l27
-73 -54 -47 -54 -48 -66 70 c-54 57 -71 70 -97 70 -36 0 -72 -39 -72 -77 0
-13 18 -43 42 -71 23 -26 51 -58 63 -70 l20 -24 -40 -34 -40 -34 -65 70 c-74
79 -103 88 -145 45 -39 -38 -32 -67 35 -141 33 -36 60 -69 60 -73 0 -4 -54
-55 -119 -114 l-119 -107 -44 16 c-24 9 -73 16 -109 16 -85 1 -152 -29 -239
-108 l-64 -59 43 55 c106 133 122 236 61 386 -13 29 -11 33 79 157 51 70 97
127 102 127 5 0 39 -22 77 -50 38 -27 79 -50 91 -50 53 0 89 48 71 95 -5 13
-41 47 -80 75 -38 29 -70 54 -70 58 0 8 52 82 57 82 3 0 37 -23 76 -52 77 -56
113 -64 147 -33 25 23 27 79 2 103 -10 9 -44 35 -75 57 -31 22 -57 44 -57 48
0 15 75 116 87 117 6 0 24 -5 40 -11z m-7107 -109 c0 -5 -5 -10 -11 -10 -5 0
-7 5 -4 10 3 6 8 10 11 10 2 0 4 -4 4 -10z m8600 -5 c10 -12 10 -15 -4 -15 -9
0 -16 7 -16 15 0 8 2 15 4 15 2 0 9 -7 16 -15z m-4605 -324 c3 -10 28 -40 55
-65 29 -27 45 -48 37 -50 -6 -3 -47 -7 -89 -10 -43 -3 -97 -9 -120 -12 l-43
-7 32 34 c18 19 41 55 53 82 17 37 26 47 45 47 14 0 26 -7 30 -19z m665 -28
c12 -27 35 -63 53 -82 l32 -34 -42 7 c-24 3 -83 9 -133 13 -49 3 -90 6 -90 7
0 11 130 135 142 135 11 1 24 -16 38 -46z m-4972 -75 c-2 -6 -10 -14 -16 -16
-7 -2 -10 2 -6 12 7 18 28 22 22 4z m9222 -8 c0 -5 -2 -10 -4 -10 -3 0 -8 5
-11 10 -3 6 -1 10 4 10 6 0 11 -4 11 -10z m-5544 -31 c16 -17 48 -41 71 -53
l43 -21 -124 -41 -125 -41 24 46 c12 25 26 65 30 88 6 38 12 45 46 52 3 0 18
-13 35 -30z m1928 -21 c4 -22 18 -62 32 -90 15 -30 20 -48 12 -45 -7 3 -64 22
-126 43 l-114 36 54 30 c29 16 64 39 77 52 33 33 57 24 65 -26z m-1132 -142
c2 -91 6 -118 21 -133 9 -11 17 -23 17 -26 0 -4 -26 -7 -57 -7 -55 0 -175 -12
-272 -26 -41 -6 -43 -6 -32 14 15 28 13 83 -4 162 -22 102 -26 96 68 109 129
17 139 18 199 20 l56 1 4 -114z m468 98 c74 -8 136 -17 138 -19 2 -2 -5 -48
-17 -102 -16 -75 -19 -106 -11 -133 5 -18 8 -35 6 -37 -2 -2 -59 3 -127 12
-68 8 -147 15 -176 15 -29 0 -53 1 -53 3 0 1 9 20 20 42 16 31 20 59 20 137
l0 98 33 0 c17 0 93 -7 167 -16z m-3731 -40 l51 -45 -65 -75 c-75 -85 -83
-118 -39 -153 43 -34 66 -27 128 37 30 32 62 66 69 76 13 18 16 17 55 -19 l42
-37 -65 -71 c-75 -83 -85 -120 -39 -156 44 -34 63 -27 141 54 l72 74 118 -106
c65 -58 120 -107 121 -109 2 -1 -1 -19 -8 -39 -6 -19 -12 -65 -11 -101 0 -88
31 -152 107 -227 l59 -57 -83 42 c-75 39 -90 42 -156 42 -63 0 -83 -4 -136
-31 l-61 -32 -140 80 c-76 45 -139 83 -139 86 0 3 18 38 40 78 47 84 49 107
15 140 -49 50 -89 29 -149 -79 l-37 -66 -39 20 c-21 11 -42 24 -45 30 -4 6 12
42 34 81 23 39 41 81 41 94 0 36 -32 68 -68 68 -41 0 -55 -13 -103 -95 -22
-37 -43 -68 -47 -68 -4 1 -32 16 -62 34 l-55 32 0 116 0 115 41 11 c83 22 134
89 134 174 l0 43 63 18 c35 10 81 29 103 42 21 13 44 24 50 24 7 1 35 -20 63
-45z m7005 -24 l60 -17 -2 -40 c-6 -82 48 -160 127 -184 l38 -11 -1 -67 c-1
-36 2 -88 6 -116 l8 -50 -59 -32 c-33 -18 -62 -33 -65 -33 -3 0 -23 31 -46 70
-59 101 -93 119 -144 79 -36 -28 -33 -59 14 -145 22 -40 40 -77 40 -82 0 -7
-15 -16 -81 -50 -4 -1 -27 33 -52 76 -46 79 -60 92 -100 92 -29 0 -67 -39 -67
-68 0 -14 18 -57 40 -95 23 -39 39 -75 37 -81 -3 -6 -66 -46 -141 -89 l-136
-78 -28 19 c-101 72 -242 67 -367 -12 -73 -47 -84 -52 -45 -20 84 69 111 99
140 156 24 50 30 74 30 127 0 36 -4 81 -9 99 -10 32 -9 33 112 143 l122 110
65 -71 c54 -59 70 -71 98 -72 43 -1 72 26 72 68 0 27 -12 47 -60 100 -33 36
-60 70 -60 74 0 5 17 22 38 39 l39 30 62 -69 c57 -64 66 -70 101 -70 29 0 43
6 54 22 29 42 20 71 -44 142 -33 37 -60 70 -60 74 0 4 23 28 52 53 l53 47 49
-26 c27 -14 76 -33 110 -42z m-4332 -100 c22 -104 35 -137 61 -155 18 -13 17
-14 -24 -25 -24 -6 -103 -31 -176 -56 -73 -24 -134 -44 -135 -44 -2 0 -2 19 0
43 3 30 -4 60 -23 102 -15 33 -33 74 -41 92 l-14 32 153 50 c83 28 158 49 166
48 10 -1 21 -32 33 -87z m1641 35 c81 -26 147 -51 147 -56 0 -4 -17 -45 -37
-91 -26 -58 -37 -97 -37 -129 l0 -45 -105 38 c-58 20 -136 45 -173 55 -38 10
-68 21 -68 25 0 4 4 8 9 8 20 0 50 69 66 150 19 96 21 100 38 96 7 -2 78 -25
160 -51z m-2447 -67 c21 -12 57 -27 81 -33 l45 -11 -79 -46 c-43 -25 -95 -55
-115 -67 l-36 -22 14 47 c8 26 14 69 14 95 0 43 7 55 32 58 4 1 24 -9 44 -21z
m3108 16 c12 -5 16 -21 16 -63 1 -31 7 -73 14 -94 8 -21 11 -37 7 -35 -42 20
-220 125 -221 131 0 4 12 7 28 7 15 0 52 14 82 30 30 16 56 29 57 29 1 1 8 -2
17 -5z m-2858 -199 c21 -48 49 -93 70 -113 20 -19 34 -35 32 -35 -106 -56
-168 -90 -231 -129 -43 -26 -80 -48 -83 -48 -2 0 -4 14 -4 31 0 37 -9 54 -73
143 l-50 68 24 19 c45 35 254 149 267 147 7 -2 29 -39 48 -83z m2806 -32 l88
-54 -22 -32 c-12 -18 -40 -55 -61 -84 -24 -32 -41 -67 -44 -92 l-5 -39 -70 45
c-39 24 -111 66 -160 93 l-90 48 31 18 c30 18 51 53 102 171 l19 44 62 -32
c34 -17 101 -56 150 -86z m-1582 -232 l0 -309 -72 -7 c-40 -3 -108 -11 -151
-17 -43 -6 -79 -9 -81 -7 -4 5 -126 581 -126 595 0 16 235 49 378 53 l52 1 0
-309z m405 283 c66 -9 123 -19 127 -23 9 -8 -109 -581 -122 -595 -4 -4 -48 -3
-97 3 -48 6 -114 13 -145 17 l-58 5 0 311 0 310 88 -6 c48 -4 141 -14 207 -22z
m-877 -341 c35 -164 62 -301 62 -305 0 -5 -8 -8 -17 -8 -10 0 -76 -20 -146
-43 -126 -43 -129 -43 -137 -23 -4 12 -60 138 -124 280 -64 143 -113 262 -109
266 24 21 349 128 394 130 12 0 28 -61 77 -297z m1230 267 c84 -25 290 -96
299 -104 6 -5 -247 -561 -254 -561 -4 0 -70 20 -145 45 -96 31 -138 50 -138
60 0 8 27 141 60 295 33 154 60 283 60 287 0 11 3 11 118 -22z m-5637 -13
c-10 -9 -11 -8 -5 6 3 10 9 15 12 12 3 -3 0 -11 -7 -18z m9869 -8 c0 -5 -7 -6
-15 -3 -8 4 -15 13 -15 21 0 13 3 13 15 3 8 -7 15 -16 15 -21z m-7017 -111
c12 -6 52 -14 88 -17 l65 -6 -98 -88 -98 -88 -1 68 c0 37 -4 77 -9 88 -5 13
-3 26 8 38 18 20 17 20 45 5z m4200 -38 c-1 -19 -2 -63 -3 -97 -2 -47 -5 -61
-15 -55 -7 4 -50 42 -96 85 l-84 77 35 1 c19 0 55 6 80 14 71 20 85 16 83 -25z
m-3095 -254 c67 -151 122 -278 122 -282 0 -5 -18 -17 -40 -27 -21 -10 -80 -43
-130 -73 -51 -31 -96 -52 -100 -47 -24 27 -350 484 -350 491 0 17 334 211 365
212 6 0 66 -123 133 -274z m2181 223 c135 -73 272 -162 267 -175 -5 -12 -332
-464 -349 -481 -10 -10 -21 -7 -52 14 -22 15 -81 50 -131 78 l-91 51 125 282
c69 155 127 282 130 282 3 0 48 -23 101 -51z m-2977 -69 c36 -50 71 -86 93
-98 l37 -18 -39 -29 c-21 -16 -84 -71 -139 -122 l-102 -92 -6 34 c-5 26 -25
51 -86 107 l-80 72 27 29 c47 50 217 197 228 196 6 0 36 -36 67 -79z m3696 3
c42 -38 96 -87 121 -110 l46 -42 -82 -78 c-60 -57 -84 -87 -89 -111 l-7 -33
-81 79 c-44 43 -105 98 -133 122 -29 24 -53 46 -53 49 0 3 15 13 33 21 18 9
57 48 91 93 32 42 63 77 69 77 5 0 44 -30 85 -67z m-5846 -105 c29 -17 55 -33
57 -34 2 -2 -17 -39 -43 -82 -25 -43 -46 -91 -46 -105 0 -37 33 -67 73 -67 39
0 51 12 97 95 50 90 47 88 89 63 20 -11 40 -24 44 -28 5 -5 -12 -43 -37 -86
-25 -43 -46 -90 -46 -103 0 -34 37 -71 72 -71 36 0 57 21 104 109 22 39 41 71
44 71 3 0 66 -35 140 -78 l135 -78 6 -79 c3 -44 13 -96 21 -116 24 -55 83
-115 157 -160 36 -22 59 -38 51 -35 -112 39 -156 48 -206 43 -63 -6 -147 -43
-187 -81 -15 -14 -34 -26 -40 -26 -7 0 -78 22 -157 49 -97 32 -145 53 -144 62
1 8 12 48 25 91 21 72 22 78 6 102 -22 33 -63 43 -96 25 -19 -11 -32 -34 -51
-91 -14 -42 -28 -80 -32 -84 -11 -10 -98 17 -98 30 0 6 12 46 26 88 22 68 24
81 12 105 -18 38 -61 52 -96 32 -21 -11 -34 -35 -57 -100 l-30 -85 -70 21 -70
21 -7 71 c-4 39 -14 89 -22 112 l-14 42 32 13 c38 16 93 77 102 112 4 14 4 51
2 82 l-5 57 47 23 c27 12 68 40 92 62 23 21 49 39 55 40 7 0 36 -14 65 -32z
m7955 -14 c27 -20 71 -48 100 -62 47 -23 50 -27 42 -49 -30 -78 7 -180 79
-221 l40 -22 -14 -47 c-8 -26 -17 -77 -20 -114 l-7 -66 -56 -18 c-31 -10 -61
-20 -67 -22 -7 -3 -23 29 -39 79 -15 46 -36 91 -47 101 -30 26 -73 22 -97 -9
-27 -34 -26 -45 4 -134 14 -40 25 -76 25 -80 0 -3 -22 -13 -50 -22 l-49 -16
-27 82 c-14 44 -35 89 -46 99 -42 36 -118 7 -118 -45 0 -13 12 -58 25 -102 14
-43 24 -80 23 -81 -7 -5 -297 -95 -306 -95 -5 0 -27 16 -48 35 -78 72 -206 94
-319 55 -32 -11 -60 -19 -62 -17 -2 2 20 16 48 32 112 61 167 146 178 273 l6
74 138 80 c77 44 140 78 141 76 2 -2 22 -37 46 -80 56 -100 98 -121 145 -73
35 34 31 59 -20 149 -25 43 -44 80 -43 81 2 1 22 14 45 28 47 30 43 33 98 -66
50 -91 93 -111 142 -65 33 31 29 61 -23 152 -26 44 -43 81 -38 83 5 2 32 17
59 33 28 16 53 30 57 30 4 0 29 -16 55 -36z m-5413 -290 l179 -247 -44 -36
c-24 -19 -76 -66 -114 -103 l-70 -67 -228 205 c-125 112 -227 208 -227 213 0
20 292 281 315 281 6 0 91 -111 189 -246z m3013 190 c37 -30 110 -96 161 -146
l93 -92 -23 -22 c-13 -13 -115 -106 -227 -207 l-205 -184 -113 101 c-68 60
-111 106 -108 114 4 11 347 490 352 491 1 1 32 -24 70 -55z m-6776 -17 c-8 -8
-11 -7 -11 4 0 20 13 34 18 19 3 -7 -1 -17 -7 -23z m10289 3 c0 -5 -2 -10 -4
-10 -3 0 -8 5 -11 10 -3 6 -1 10 4 10 6 0 11 -4 11 -10z m-7597 -214 l-78
-107 -6 48 c-4 27 -14 64 -23 82 -10 19 -15 43 -12 57 6 22 9 23 69 18 34 -3
76 -1 92 4 17 5 31 8 33 7 2 -2 -32 -51 -75 -109z m5010 79 c6 -11 2 -32 -12
-65 -12 -27 -21 -58 -21 -69 0 -56 -13 -49 -79 42 -37 51 -70 97 -73 102 -4 6
27 9 85 8 72 -1 92 -5 100 -18z m-4757 -50 c43 -36 91 -69 113 -76 l39 -12
-50 -61 c-27 -33 -75 -98 -106 -144 l-56 -83 -18 23 c-10 13 -18 26 -18 29 0
3 -40 29 -90 58 -49 30 -90 58 -90 63 0 19 184 268 197 268 3 0 39 -29 79 -65z
m4512 8 c21 -27 67 -88 101 -137 l61 -90 -77 -44 c-84 -48 -133 -88 -133 -109
0 -22 -15 -15 -32 15 -9 15 -55 79 -102 142 -46 63 -82 118 -80 122 3 4 16 8
30 8 16 0 50 24 101 69 43 39 81 70 85 70 3 1 24 -20 46 -46z m-4015 -347
c108 -98 197 -180 197 -183 0 -3 -17 -26 -38 -52 -21 -25 -60 -77 -87 -116
-27 -38 -50 -72 -51 -74 -4 -5 -534 302 -534 310 0 12 116 180 184 264 l68 87
32 -30 c17 -16 120 -109 229 -206z m3721 147 c77 -97 197 -277 188 -284 -4 -4
-110 -66 -237 -139 -126 -73 -244 -141 -261 -151 l-32 -19 -32 51 c-18 28 -59
85 -91 126 l-58 75 227 204 c125 112 230 204 234 204 4 0 32 -30 62 -67z
m3322 -231 c-9 -8 -26 10 -26 26 1 15 2 15 15 -2 8 -11 13 -21 11 -24z m-7871
-68 c49 -29 96 -49 122 -52 24 -2 43 -6 43 -7 0 -1 -24 -53 -53 -116 -30 -63
-62 -135 -72 -161 l-18 -48 -34 30 c-22 19 -65 39 -123 57 -50 14 -90 32 -90
39 0 24 128 304 139 304 4 0 42 -21 86 -46z m-185 31 c0 -3 -15 -36 -34 -73
-18 -37 -41 -89 -51 -116 l-19 -48 -19 48 c-10 27 -30 64 -43 82 -35 45 -25
72 24 73 20 0 57 8 82 19 50 20 60 22 60 15z m5373 -92 c47 -101 87 -198 87
-211 0 -5 -42 -21 -92 -38 -55 -17 -106 -40 -124 -57 l-32 -27 -23 57 c-12 32
-44 105 -71 162 -26 57 -48 105 -48 107 0 2 17 4 38 4 27 0 61 14 122 50 47
27 88 50 91 50 3 0 27 -44 52 -97z m97 72 c23 -8 60 -15 81 -15 59 0 68 -28
29 -85 -17 -25 -37 -62 -44 -83 l-14 -37 -13 30 c-7 17 -30 68 -51 114 -21 46
-38 85 -38 87 0 6 5 5 50 -11z m-7032 -66 c34 -11 62 -24 62 -28 0 -4 -11 -41
-25 -81 -31 -90 -31 -117 -3 -147 26 -28 71 -30 97 -4 11 11 31 58 45 105 15
47 28 86 30 86 15 0 96 -34 96 -41 0 -4 -11 -43 -25 -86 -14 -43 -25 -86 -25
-96 0 -26 45 -67 75 -67 38 0 60 30 91 124 16 47 31 86 34 86 3 0 73 -22 155
-50 l150 -49 7 -43 c20 -132 98 -218 241 -263 l70 -22 -95 5 c-134 7 -183 -11
-267 -96 l-64 -65 -116 12 c-64 6 -136 14 -160 18 l-43 6 7 92 c6 86 5 95 -14
114 -27 27 -82 28 -105 3 -13 -15 -34 -120 -36 -179 0 -14 -48 -17 -88 -7 -18
5 -22 12 -18 33 3 14 8 54 11 88 6 57 5 64 -19 88 -31 31 -70 32 -100 2 -19
-19 -25 -38 -31 -109 l-7 -86 -31 3 c-137 17 -125 12 -132 54 -3 21 -21 68
-39 103 l-33 66 34 26 c18 15 40 41 49 59 22 42 22 128 -1 163 l-17 27 54 48
c30 26 67 66 82 88 16 23 32 41 35 41 4 0 35 -9 69 -21z m8635 -11 c21 -32 66
-78 110 -114 l37 -31 -21 -48 c-34 -77 -9 -176 56 -219 l24 -16 -24 -42 c-13
-24 -31 -70 -40 -103 -10 -33 -20 -63 -24 -66 -3 -4 -36 -9 -73 -12 l-66 -6
-6 37 c-3 20 -8 61 -12 91 -4 32 -14 61 -25 72 -25 25 -74 24 -100 -2 -20 -20
-21 -28 -14 -120 l7 -99 -46 0 c-25 0 -49 -1 -53 -2 -5 -2 -11 33 -16 77 -4
44 -11 90 -17 103 -14 32 -55 46 -88 30 -42 -20 -49 -47 -40 -139 5 -45 7 -84
4 -87 -3 -3 -78 -13 -167 -22 l-160 -16 -14 25 c-22 42 -86 98 -140 123 -41
19 -66 22 -145 22 l-95 -1 60 21 c84 29 117 49 155 92 39 45 67 104 76 162 l7
42 155 50 c85 28 156 49 157 48 2 -2 15 -43 31 -93 24 -75 34 -92 57 -103 37
-18 78 -4 95 32 12 24 11 37 -12 111 -14 46 -26 87 -26 93 0 9 90 46 95 39 1
-1 16 -42 32 -92 23 -70 36 -93 56 -105 33 -19 76 -5 96 32 14 24 13 34 -14
117 -16 50 -27 92 -24 94 4 5 120 45 130 46 4 1 14 -9 22 -21z m-6346 -155
l252 -145 -33 -67 c-18 -36 -46 -97 -61 -136 -16 -38 -30 -72 -31 -74 -2 -2
-135 40 -298 93 l-294 96 33 83 c46 113 101 233 126 274 15 24 26 32 38 28 9
-3 129 -72 268 -152z m4333 -12 c66 -147 101 -239 92 -244 -4 -3 -29 -11 -57
-20 -27 -9 -154 -50 -282 -91 -128 -42 -236 -76 -242 -76 -5 0 -12 12 -16 27
-3 14 -29 78 -57 140 -28 63 -49 115 -47 117 2 2 121 71 264 154 l260 150 17
-21 c10 -12 40 -73 68 -136z m-7788 -203 c-9 -9 -12 -7 -12 12 0 19 3 21 12
12 9 -9 9 -15 0 -24z m10888 2 c0 -5 -2 -10 -4 -10 -3 0 -8 5 -11 10 -3 6 -1
10 4 10 6 0 11 -4 11 -10z m-8171 -126 c54 -16 97 -24 118 -21 18 3 33 3 33
-1 0 -4 -11 -52 -24 -107 -14 -55 -30 -130 -36 -167 l-12 -66 -32 19 c-20 12
-70 23 -135 30 l-103 12 6 45 c7 52 56 274 63 285 3 4 12 6 21 3 10 -3 55 -17
101 -32z m5571 -11 c17 -62 62 -294 58 -298 -2 -3 -49 -9 -104 -16 -60 -7
-112 -18 -131 -30 -33 -18 -33 -18 -37 4 -3 12 -17 81 -32 152 -14 72 -30 139
-34 151 -8 20 -6 21 38 17 34 -3 70 4 132 26 47 16 88 30 92 30 4 1 12 -16 18
-36z m-5804 -99 c-14 -60 -26 -118 -28 -129 -3 -17 -7 -14 -22 15 -10 19 -38
53 -61 75 -35 33 -41 44 -34 63 5 14 17 22 32 22 12 0 47 15 77 33 30 19 56
33 57 32 2 -1 -8 -51 -21 -111z m782 17 c246 -80 282 -94 277 -110 -13 -42
-55 -238 -55 -258 0 -13 -6 -23 -12 -23 -25 0 -603 62 -607 66 -5 5 28 190 50
279 30 120 40 147 53 142 6 -2 138 -46 294 -96z m5216 29 c61 -20 73 -49 31
-76 -15 -10 -42 -40 -60 -67 -32 -47 -34 -48 -39 -26 -16 70 -46 214 -46 222
0 4 14 -2 32 -14 17 -13 55 -30 82 -39z m-549 -2 c16 -54 58 -258 69 -335 l6
-42 -42 -6 c-83 -11 -520 -55 -547 -55 -27 0 -27 1 -54 133 -14 72 -29 140
-32 149 -5 14 39 31 282 111 158 52 291 95 295 96 4 1 14 -23 23 -51z m712
-14 c-3 -3 -12 -4 -19 -1 -8 3 -5 6 6 6 11 1 17 -2 13 -5z m-7605 -334 c29 0
30 -1 24 -37 -19 -128 -18 -167 4 -190 13 -15 32 -23 55 -23 53 0 71 32 80
141 l7 91 51 -6 c28 -4 53 -9 55 -11 2 -1 -1 -42 -6 -91 -11 -94 -5 -126 27
-143 31 -17 60 -13 85 13 20 19 25 38 31 110 5 58 12 89 21 93 18 7 305 -24
314 -34 4 -4 13 -25 20 -46 6 -20 34 -61 61 -91 63 -69 126 -97 239 -104 l85
-6 -98 -13 c-148 -19 -223 -67 -281 -182 l-25 -48 -118 -12 c-65 -7 -139 -15
-164 -18 l-47 -5 -7 83 c-4 46 -13 94 -20 105 -28 44 -107 37 -125 -10 -6 -16
-6 -56 0 -108 5 -45 9 -83 7 -84 -1 -1 -25 -4 -54 -6 l-52 -5 -6 66 c-3 36 -9
79 -13 96 -15 59 -94 72 -128 20 -13 -20 -14 -38 -7 -109 l9 -86 -31 -4 c-16
-3 -50 -8 -75 -11 l-45 -5 -28 54 c-16 30 -44 73 -64 95 l-35 41 31 35 c52 59
54 146 5 216 l-26 39 31 36 c18 20 47 65 64 101 l32 65 44 -6 c24 -3 57 -6 73
-6z m8940 -52 c14 -29 42 -75 62 -101 l36 -48 -24 -32 c-55 -73 -51 -187 8
-236 13 -11 9 -20 -27 -69 -23 -32 -51 -77 -62 -101 l-19 -43 -44 6 c-25 3
-58 6 -74 6 l-29 0 7 99 c6 92 5 100 -15 120 -12 12 -34 21 -51 21 -46 0 -67
-28 -74 -101 -14 -129 -10 -124 -79 -112 l-39 6 7 97 7 97 -27 22 c-35 27 -57
27 -90 -1 -21 -19 -27 -36 -36 -108 -5 -46 -12 -86 -14 -89 -4 -3 -166 11
-277 26 -46 5 -49 8 -71 57 -53 115 -140 170 -292 185 -57 5 -73 9 -44 10 69
2 159 21 202 42 55 29 112 92 137 153 l23 53 159 17 c88 9 162 15 164 13 2 -1
8 -43 13 -92 9 -78 14 -93 36 -112 33 -29 55 -29 90 -1 l27 21 -7 104 -7 103
29 0 c15 0 38 3 50 6 24 7 27 -4 38 -117 7 -76 29 -109 73 -109 15 0 38 7 51
16 22 16 23 21 20 123 l-4 106 55 6 c30 3 62 6 70 7 10 1 26 -18 42 -50z m972
-47 c-8 -9 -22 12 -17 26 6 15 7 14 13 -3 4 -10 6 -21 4 -23z m-7760 -46 c131
-14 247 -25 257 -25 18 0 19 -9 19 -155 0 -85 -1 -155 -2 -156 -18 -5 -605
-65 -610 -62 -10 5 -11 394 -2 418 6 13 15 15 53 10 25 -3 153 -17 285 -30z
m4832 -72 c6 -84 -1 -341 -11 -351 -4 -4 -407 35 -565 54 l-46 6 1 154 c0 85
2 154 5 155 3 0 138 15 300 33 162 19 298 34 302 35 3 0 9 -38 14 -86z m-5331
50 c28 2 57 6 65 10 13 6 15 -16 15 -173 0 -99 -2 -180 -5 -180 -4 0 -12 6
-19 13 -8 8 -36 11 -89 8 -42 -2 -97 -4 -122 -5 l-45 -1 -3 120 c-2 66 0 143
3 171 l6 50 72 -8 c40 -5 95 -8 122 -5z m5555 -13 c41 5 87 9 103 10 l27 0 0
-171 0 -170 -118 7 c-83 5 -125 3 -140 -5 l-22 -12 0 179 0 180 38 -13 c27
-10 57 -11 112 -5z m-5833 -161 l0 -130 -41 39 c-23 22 -56 47 -73 56 -49 25
-44 55 13 85 25 14 55 37 67 52 12 15 25 28 28 28 3 1 6 -58 6 -130z m6140 45
c29 -19 53 -41 53 -50 0 -8 -14 -23 -32 -32 -17 -9 -51 -34 -75 -56 l-43 -39
0 133 0 133 22 -28 c12 -15 45 -43 75 -61z m-8617 -304 c0 -5 -4 -10 -10 -10
-5 0 -10 5 -10 10 0 6 5 10 10 10 6 0 10 -4 10 -10z m3544 -2 c2 -7 13 -65 26
-128 12 -63 25 -125 27 -137 4 -19 -2 -24 -43 -36 -27 -8 -148 -47 -269 -87
-121 -40 -232 -76 -247 -80 l-27 -8 -30 126 c-33 136 -58 289 -49 298 7 6 500
61 566 63 26 1 44 -4 46 -11z m4226 -43 c140 -14 265 -28 276 -30 l22 -5 -19
-102 c-27 -154 -71 -318 -85 -318 -12 0 -520 163 -561 180 -19 8 -21 13 -14
33 5 14 19 71 31 128 11 57 23 114 26 127 4 19 9 22 37 18 18 -3 147 -17 287
-31z m-4901 -144 c6 -43 22 -121 35 -173 l23 -96 -38 5 c-33 5 -139 -21 -223
-53 -9 -4 -17 10 -26 43 -18 72 -59 287 -56 291 2 1 48 8 102 13 62 7 110 18
129 29 17 10 33 19 36 19 3 1 11 -34 18 -78z m5431 19 c58 -6 106 -13 108 -15
4 -4 -42 -240 -58 -297 -6 -21 -14 -38 -19 -38 -4 0 -47 14 -97 31 -65 22
-100 29 -130 25 l-42 -5 13 43 c7 24 23 92 34 152 12 60 24 119 27 132 l4 22
28 -19 c19 -14 57 -23 132 -31z m-6395 -118 c65 -100 171 -149 304 -139 l76 6
-75 -26 c-61 -21 -85 -37 -131 -82 -54 -55 -89 -123 -89 -176 0 -18 -21 -27
-161 -74 -88 -29 -161 -51 -163 -49 -1 1 -13 38 -26 81 -13 42 -32 85 -42 94
-24 22 -73 21 -98 -2 -25 -23 -25 -56 0 -135 11 -34 20 -68 20 -75 0 -11 -89
-50 -95 -42 -1 1 -14 39 -29 84 -15 45 -33 86 -39 91 -47 39 -117 7 -117 -52
0 -18 9 -59 20 -91 11 -32 20 -64 20 -71 0 -6 -30 -21 -67 -33 l-68 -20 -55
58 c-30 32 -68 66 -84 77 l-28 20 21 35 c41 67 18 180 -45 226 l-26 19 26 52
c14 28 33 79 40 113 8 33 16 62 18 64 2 2 34 4 73 6 l70 4 11 -90 c13 -107 19
-123 49 -131 38 -9 67 -1 87 26 17 24 18 33 8 119 -7 51 -10 94 -8 96 1 2 26
5 53 6 l50 3 11 -84 c6 -47 14 -95 18 -106 10 -31 60 -50 92 -36 40 19 48 49
36 149 -6 48 -9 90 -7 92 2 2 73 11 157 21 84 10 155 18 158 18 3 1 19 -20 35
-46z m658 -185 l8 -27 -40 28 c-22 16 -60 35 -85 42 -60 17 -64 38 -14 87 22
21 49 54 61 73 l21 34 21 -104 c12 -58 25 -117 28 -133z m5994 132 c55 -57 53
-80 -10 -96 -23 -7 -59 -23 -80 -37 -47 -32 -48 -32 -37 2 5 15 16 65 25 112
24 119 23 118 42 89 9 -13 36 -45 60 -70z m739 66 c76 -9 140 -17 142 -19 2
-2 -1 -43 -6 -92 -11 -99 -4 -127 37 -144 35 -14 78 1 91 32 6 13 13 59 17
103 l8 80 50 0 50 0 -3 -102 c-4 -92 -2 -103 17 -122 12 -12 34 -21 51 -21 45
0 67 29 75 97 3 32 8 75 11 95 l6 38 41 -6 c111 -14 102 -9 121 -75 9 -33 28
-83 42 -110 l24 -49 -36 -32 c-63 -56 -82 -138 -46 -208 l17 -34 -84 -84 -83
-83 -64 21 c-35 12 -64 27 -64 33 0 7 12 47 26 89 22 68 24 81 12 105 -18 38
-61 52 -96 32 -21 -11 -34 -34 -56 -99 -16 -47 -30 -86 -32 -88 -5 -8 -87 23
-91 35 -3 7 4 41 16 75 29 85 28 121 -5 147 -57 45 -93 19 -130 -91 -14 -46
-28 -84 -29 -86 -7 -9 -301 91 -312 106 -7 9 -13 26 -13 40 0 40 -48 128 -91
167 -45 40 -82 59 -174 86 l-60 19 50 -7 c177 -22 296 21 365 132 25 41 19 40
206 20z m-5631 -187 c15 -40 43 -103 61 -139 l33 -66 -263 -151 c-144 -84
-267 -152 -273 -152 -17 0 -173 347 -173 385 0 9 536 192 571 194 11 1 25 -22
44 -71z m3985 -48 c157 -51 286 -93 288 -95 10 -9 -156 -377 -176 -389 -6 -4
-130 62 -276 146 l-264 153 33 65 c29 58 71 155 88 203 4 10 10 16 14 14 5 -3
136 -46 293 -97z m3300 -114 c0 -3 -4 -8 -10 -11 -5 -3 -10 -1 -10 4 0 6 5 11
10 11 6 0 10 -2 10 -4z m-7920 -131 c23 -54 55 -125 71 -157 16 -31 29 -60 29
-63 0 -3 -16 -5 -35 -5 -24 0 -64 -16 -123 -50 -48 -27 -91 -50 -95 -50 -11 0
-137 283 -137 308 0 4 45 22 99 40 60 20 109 42 123 57 12 13 24 23 25 21 1
-1 21 -46 43 -101z m5120 10 c51 -16 94 -34 96 -40 5 -13 -11 -55 -78 -197
-28 -60 -54 -108 -58 -108 -4 0 -47 22 -96 50 -56 31 -101 50 -121 50 -18 0
-33 2 -33 5 0 3 15 36 33 73 19 37 51 108 71 158 l37 91 28 -26 c17 -16 66
-38 121 -56z m-4312 -55 c12 -22 51 -78 86 -124 l64 -84 -226 -204 c-124 -112
-229 -204 -233 -206 -16 -7 -254 328 -247 349 3 9 515 309 528 309 3 0 15 -18
28 -40z m3595 -136 c138 -80 256 -150 261 -155 6 -5 -16 -47 -57 -106 -64 -95
-179 -244 -189 -247 -7 -1 -458 404 -458 411 0 3 22 33 49 67 26 33 65 87 86
119 21 31 42 57 47 57 4 0 122 -66 261 -146z m-4663 -111 l19 -41 -37 15 c-20
9 -62 19 -92 22 -47 5 -55 9 -58 28 -2 12 10 40 27 64 17 23 31 46 31 50 0 4
5 20 11 36 11 30 2 47 99 -174z m5555 157 c4 -17 21 -51 39 -78 43 -63 38 -78
-28 -86 -29 -3 -69 -13 -89 -21 -20 -8 -38 -15 -41 -15 -2 0 10 30 28 68 18
37 41 88 52 114 10 27 22 48 26 48 3 0 9 -14 13 -30z m-6214 -144 c27 -24 70
-51 96 -60 64 -22 158 -20 228 4 32 11 60 19 62 17 1 -2 -25 -19 -58 -38 -112
-62 -171 -157 -173 -275 l0 -52 -144 -83 c-115 -66 -146 -80 -153 -68 -4 8
-25 43 -46 78 -27 46 -46 67 -65 72 -34 9 -69 -9 -86 -44 -15 -30 -14 -32 47
-138 l32 -57 -46 -27 c-26 -15 -48 -25 -49 -23 -1 1 -21 36 -45 76 -23 40 -53
78 -66 84 -36 16 -74 2 -90 -34 -15 -37 -11 -53 41 -140 19 -33 34 -62 32 -63
-2 -2 -31 -19 -66 -40 l-62 -36 -43 34 c-23 19 -66 47 -95 61 -42 21 -52 31
-47 44 19 45 16 107 -7 152 -20 39 -65 81 -99 92 -7 2 -5 25 5 65 9 33 16 88
16 121 0 54 2 60 23 66 12 3 43 12 69 20 l47 15 31 -95 c20 -58 39 -98 50
-104 27 -15 62 -12 88 6 29 20 29 61 -3 154 -14 40 -25 76 -25 80 0 3 23 13
51 22 37 12 51 13 54 5 3 -7 16 -49 30 -94 27 -87 41 -103 93 -103 29 0 54 20
65 52 3 9 -7 58 -23 108 -19 64 -25 93 -17 96 62 23 275 93 286 93 7 1 35 -19
62 -43z m6968 -12 c81 -25 149 -49 154 -53 4 -4 -4 -40 -18 -81 -14 -40 -25
-86 -25 -102 0 -53 60 -85 110 -58 11 6 29 43 45 92 15 46 31 87 35 91 7 8
100 -13 100 -23 0 -4 -11 -40 -25 -80 -14 -40 -25 -86 -25 -101 0 -52 61 -85
110 -59 11 6 30 46 50 104 l31 94 67 -22 66 -23 13 -89 c7 -49 17 -102 23
-118 6 -16 9 -30 8 -30 -99 -34 -160 -140 -130 -225 11 -30 10 -32 -37 -55
-26 -14 -70 -42 -97 -64 l-51 -40 -56 32 c-31 18 -60 35 -63 38 -3 4 13 39 37
78 25 43 42 84 42 102 0 61 -79 91 -120 46 -11 -13 -35 -50 -53 -83 -18 -33
-35 -62 -36 -64 -2 -2 -24 9 -49 23 l-45 27 46 86 c46 84 47 85 31 118 -19 40
-65 55 -100 32 -12 -8 -40 -46 -62 -86 -22 -39 -43 -71 -47 -71 -3 0 -68 36
-144 79 l-137 79 -2 66 c-4 120 -64 211 -182 276 -24 13 -42 25 -40 26 2 2 32
-6 67 -17 120 -38 248 -10 324 70 17 17 32 31 35 31 3 0 70 -21 150 -46z
m-4905 -150 l106 -100 -177 -247 c-98 -135 -181 -246 -185 -247 -12 0 -179
144 -253 219 -60 62 -67 73 -55 85 115 107 444 396 449 394 5 -2 56 -48 115
-104z m2989 -138 c114 -103 207 -191 207 -195 0 -17 -301 -281 -319 -281 -11
0 -353 470 -357 490 -2 9 28 40 71 75 42 33 92 77 112 97 36 37 37 37 57 20
12 -11 114 -103 229 -206z m-6983 200 c0 -3 -4 -8 -10 -11 -5 -3 -10 -1 -10 4
0 6 5 11 10 11 6 0 10 -2 10 -4z m3211 -243 l49 -61 -37 -13 c-21 -6 -60 -33
-88 -58 -27 -25 -62 -56 -76 -69 l-27 -24 -59 79 c-107 141 -144 200 -130 210
7 5 49 31 95 57 53 31 88 59 98 77 l15 29 56 -82 c30 -46 78 -111 104 -145z
m4492 103 c48 -28 88 -55 89 -60 1 -8 -127 -190 -175 -249 l-23 -28 -75 67
c-41 36 -91 73 -111 82 l-37 17 62 81 c35 44 80 108 102 141 l39 60 20 -30
c12 -18 59 -53 109 -81z m-3396 -156 c65 -38 124 -73 131 -77 9 -6 -16 -73
-104 -268 -64 -143 -120 -271 -125 -283 l-9 -24 -88 48 c-142 76 -283 168
-280 181 3 14 347 493 354 493 2 0 57 -31 121 -70z m2288 -186 c94 -130 174
-242 178 -250 6 -10 -12 -26 -65 -60 -111 -72 -298 -168 -308 -158 -10 12
-252 556 -248 559 2 1 39 21 83 43 44 23 100 55 125 71 25 16 50 30 55 30 6 0
87 -106 180 -235z m-3710 81 l60 -80 -92 0 c-111 0 -123 10 -92 74 10 22 22
62 26 88 6 47 6 47 22 23 9 -13 43 -60 76 -105z m4990 -25 c23 -45 9 -55 -83
-56 -42 0 -86 -4 -97 -9 -15 -7 -12 1 14 36 18 24 54 74 79 110 l47 66 12 -58
c6 -31 19 -71 28 -89z m-3182 -47 c78 -26 143 -47 144 -47 3 -2 -126 -598
-130 -602 -12 -12 -407 123 -407 139 0 12 242 557 247 557 3 0 68 -21 146 -47z
m1486 -243 c68 -154 122 -283 118 -286 -12 -13 -192 -75 -295 -103 -100 -27
-112 -28 -116 -13 -11 36 -126 586 -123 588 2 2 41 15 88 28 46 14 109 34 139
45 30 11 57 20 60 20 3 1 61 -125 129 -279z m-2581 70 l63 -54 -31 -12 c-18
-8 -53 -45 -92 -98 -34 -48 -66 -86 -70 -86 -10 0 -148 122 -207 184 l-45 45
87 83 c63 60 87 90 87 107 0 22 8 16 73 -45 39 -38 100 -94 135 -124z m3683
88 c12 -10 46 -41 76 -68 l56 -51 -29 -30 c-37 -39 -220 -199 -227 -199 -3 0
-34 38 -68 86 -34 47 -76 92 -93 101 l-30 16 25 19 c63 50 229 204 229 213 1
6 10 -8 20 -30 11 -22 30 -48 41 -57z m-4606 29 c-46 -25 -127 -114 -152 -166
-24 -48 -28 -67 -26 -131 1 -41 3 -84 5 -96 2 -16 -25 -47 -115 -127 -65 -59
-120 -107 -124 -107 -3 0 -33 29 -66 66 -54 59 -63 65 -95 62 -44 -4 -78 -44
-68 -82 3 -14 32 -52 63 -86 l56 -61 -33 -34 c-19 -19 -38 -35 -42 -35 -5 0
-36 29 -70 66 -55 59 -65 65 -96 62 -43 -4 -78 -44 -69 -80 4 -12 32 -51 63
-86 l57 -63 -29 -30 c-16 -17 -41 -40 -57 -51 l-27 -19 -55 25 c-30 15 -76 31
-104 38 l-49 11 0 52 c1 82 -47 149 -125 174 l-34 12 -7 97 c-3 53 -7 108 -8
121 -3 20 7 30 52 57 30 18 58 33 61 34 4 0 27 -36 53 -80 28 -48 57 -85 72
-92 34 -16 75 0 93 36 15 32 9 48 -58 162 l-30 51 48 26 47 26 38 -67 c52 -91
73 -112 111 -112 39 0 68 30 68 68 0 15 -18 60 -41 99 -23 39 -42 76 -42 81 0
16 279 172 286 160 4 -5 34 -23 68 -39 50 -24 74 -29 133 -29 64 0 80 4 150
40 43 23 84 47 92 55 8 8 17 12 20 9 3 -3 -3 -10 -14 -17z m5386 -57 c99 -51
219 -49 301 5 21 14 43 25 49 25 18 0 279 -153 279 -163 0 -5 -19 -40 -42 -79
-48 -80 -53 -122 -19 -150 52 -41 93 -17 151 87 l42 76 36 -22 c21 -12 41 -26
46 -30 4 -4 -13 -46 -39 -93 -43 -79 -46 -89 -35 -116 15 -36 62 -57 95 -42
14 6 44 45 70 92 26 44 48 80 50 80 2 0 31 -16 64 -36 l61 -37 -7 -51 c-5 -28
-7 -81 -6 -117 l1 -67 -43 -12 c-81 -23 -146 -117 -131 -190 4 -25 1 -27 -43
-39 -27 -7 -77 -26 -111 -42 l-63 -29 -48 45 c-27 25 -50 47 -51 50 -2 2 20
30 48 62 69 79 79 98 64 133 -13 32 -53 53 -84 45 -11 -4 -49 -37 -83 -73
l-62 -67 -37 37 -37 37 49 56 c74 85 80 97 65 132 -14 35 -54 57 -85 47 -11
-3 -48 -36 -82 -72 l-61 -66 -122 109 c-117 105 -121 110 -114 139 4 17 8 63
8 101 -1 110 -38 172 -160 274 -38 33 -39 33 -5 12 19 -12 60 -35 91 -51z
m-2888 15 l77 -7 0 -309 0 -309 -37 0 c-83 1 -371 36 -391 49 -10 6 8 99 103
537 l16 70 77 -12 c42 -7 112 -16 155 -19z m517 -127 c17 -84 47 -220 65 -303
17 -82 31 -151 30 -152 -5 -8 -216 -34 -317 -39 l-118 -7 0 310 0 310 98 8
c53 4 117 11 142 15 25 4 50 8 56 9 6 0 25 -63 44 -151z m4770 86 c0 -8 -5
-12 -10 -9 -6 4 -8 11 -5 16 9 14 15 11 15 -7z m-7102 -296 c17 -15 32 -28 32
-30 0 -2 -25 -4 -55 -5 -30 -1 -70 -9 -89 -17 -31 -13 -36 -13 -50 3 -13 14
-14 24 -5 56 6 22 9 63 7 92 l-5 53 66 -63 c36 -34 81 -74 99 -89z m4075 97
c-3 -24 0 -65 6 -91 10 -40 10 -50 -3 -62 -12 -13 -19 -13 -46 -2 -18 7 -59
16 -91 19 l-60 6 98 87 c54 48 99 87 99 88 1 0 -1 -20 -3 -45z m-3523 -61 c36
-22 100 -60 143 -84 l77 -42 -26 -21 c-24 -19 -39 -46 -95 -175 l-19 -44 -78
42 c-134 72 -222 131 -215 144 3 6 27 40 53 76 59 82 70 102 70 135 0 18 4 24
13 19 6 -5 41 -27 77 -50z m2959 -104 c29 -39 54 -77 57 -85 3 -8 -24 -31 -78
-62 -142 -85 -198 -115 -209 -111 -5 2 -28 44 -50 93 -22 50 -51 100 -65 112
-13 12 -24 24 -24 27 0 2 43 27 96 55 53 29 119 67 147 86 l51 35 12 -40 c6
-21 35 -71 63 -110z m-3763 -92 c-20 -23 -50 -69 -66 -102 -40 -78 -42 -175
-6 -252 l23 -50 -94 -130 c-51 -71 -97 -130 -101 -132 -4 -1 -39 20 -77 48
-38 27 -79 50 -91 50 -31 0 -74 -37 -74 -65 0 -40 10 -54 81 -105 38 -28 69
-53 69 -57 0 -3 -12 -22 -27 -42 -14 -20 -28 -37 -29 -39 -1 -2 -34 19 -72 47
-78 57 -118 65 -153 30 -34 -34 -22 -76 36 -123 28 -23 61 -48 75 -57 l25 -16
-39 -57 c-21 -31 -42 -59 -47 -61 -4 -3 -33 2 -65 10 -32 8 -82 15 -111 15
-51 0 -53 1 -53 27 0 43 -39 112 -78 138 -20 14 -57 28 -83 31 l-46 6 -11 63
c-7 34 -22 85 -33 113 l-21 52 48 44 c27 25 52 45 56 46 4 0 29 -23 55 -52 26
-28 56 -60 66 -70 21 -23 74 -23 99 -1 11 10 18 30 18 51 0 29 -11 48 -61 104
l-62 70 37 36 37 37 69 -72 c76 -80 111 -92 150 -53 36 36 26 72 -40 148 -33
39 -60 74 -59 78 0 5 53 55 116 112 82 74 120 102 131 97 149 -58 266 -34 382
77 30 29 57 52 59 51 2 -1 -13 -21 -33 -45z m4573 -99 c65 -25 175 -23 226 4
l31 15 94 -85 c52 -46 108 -97 124 -113 l29 -29 -61 -66 c-51 -54 -62 -72 -62
-100 0 -43 29 -75 67 -75 22 0 44 16 94 70 37 39 71 70 76 70 5 0 24 -15 42
-33 l32 -34 -60 -66 c-32 -36 -62 -74 -66 -86 -7 -24 17 -76 40 -85 41 -15 61
-4 126 65 75 80 76 80 141 12 l36 -38 -23 -75 c-13 -41 -27 -92 -30 -112 -5
-33 -9 -38 -33 -38 -93 0 -182 -77 -182 -158 0 -29 0 -29 -72 -35 -40 -3 -92
-12 -116 -20 l-42 -15 -46 60 c-25 32 -45 61 -43 63 2 2 35 26 74 54 68 50 83
68 84 104 1 26 -44 67 -72 67 -20 0 -86 -41 -163 -101 -7 -6 -22 7 -42 35
l-32 44 75 56 c79 59 95 88 74 128 -28 53 -76 52 -150 -3 -91 -68 -77 -73
-177 64 -49 67 -92 127 -95 133 -3 6 4 31 16 55 29 59 35 161 13 227 -10 28
-40 81 -69 119 l-51 68 68 -62 c45 -41 87 -70 125 -84z m-3281 57 c34 -14 104
-37 155 -52 50 -14 94 -28 95 -29 2 -2 -6 -16 -17 -32 -12 -16 -30 -73 -43
-130 -21 -101 -22 -102 -47 -97 -64 15 -301 98 -301 105 0 4 18 49 40 99 22
50 40 106 40 125 0 19 4 35 8 35 5 0 36 -11 70 -24z m1931 -108 c12 -27 30
-68 40 -93 l20 -44 -154 -51 c-84 -27 -160 -50 -168 -50 -9 0 -19 29 -33 97
-11 58 -28 111 -41 130 -16 24 -19 35 -10 37 6 2 80 26 162 52 l150 49 7 -40
c3 -22 15 -61 27 -87z m-2479 -31 l74 -41 -39 -8 c-22 -5 -63 -20 -92 -35 -69
-34 -79 -25 -85 70 -3 40 -9 81 -13 91 -7 16 -2 15 36 -8 24 -15 78 -46 119
-69z m3074 28 c-8 -33 -12 -74 -9 -92 5 -28 3 -33 -18 -38 -15 -4 -37 1 -60
15 -21 12 -57 27 -82 34 l-45 11 93 52 c50 28 101 58 112 66 11 9 21 15 22 14
1 -1 -5 -29 -13 -62z m-1884 -35 c178 -17 174 -16 155 -43 -11 -16 -15 -49
-15 -134 l0 -113 -48 0 c-48 0 -293 28 -299 34 -2 2 6 48 18 102 12 56 19 115
16 137 -5 38 -5 39 21 34 15 -3 83 -11 152 -17z m718 -13 c-8 -27 -6 -56 12
-136 12 -56 20 -104 18 -106 -8 -8 -138 -25 -240 -31 l-108 -7 0 112 c0 63 -5
121 -11 133 -15 29 2 37 76 39 33 0 101 6 150 13 50 7 95 14 102 15 8 1 8 -8
1 -32z m-2105 -233 c-34 -72 -38 -87 -37 -159 0 -84 20 -142 67 -192 l20 -23
-42 -97 c-24 -54 -55 -124 -69 -155 l-27 -57 -74 34 c-90 43 -122 44 -150 9
-43 -54 -16 -95 92 -142 l75 -34 -20 -46 c-11 -26 -22 -48 -23 -50 -1 -1 -37
13 -80 33 -43 19 -85 35 -95 35 -30 0 -70 -39 -70 -69 0 -42 23 -65 97 -96 37
-15 72 -32 77 -36 5 -4 -4 -36 -19 -72 l-29 -65 -100 -4 c-56 -3 -109 -8 -118
-13 -13 -5 -18 -3 -18 11 0 33 -48 99 -89 122 -32 18 -54 23 -97 21 l-56 -3
-24 60 c-13 32 -38 79 -55 103 l-30 44 37 54 c20 29 40 56 44 58 5 3 35 -15
67 -39 101 -74 128 -81 164 -45 14 14 19 30 17 57 -3 33 -11 43 -81 95 l-77
59 31 43 31 43 76 -54 c80 -58 120 -68 154 -37 21 19 24 72 6 95 -7 9 -42 37
-78 63 -36 26 -66 48 -68 50 -2 2 39 61 91 131 l94 129 76 -4 c112 -5 167 16
242 93 33 34 69 78 80 98 35 66 26 33 -12 -48z m732 21 c61 -20 112 -38 114
-40 2 -2 -13 -10 -32 -18 -19 -8 -53 -32 -75 -52 -35 -31 -44 -35 -61 -25 -14
7 -21 21 -21 39 0 15 -13 54 -29 85 -15 31 -23 55 -17 52 6 -3 61 -21 121 -41z
m1965 -6 c-12 -22 -24 -59 -28 -81 -10 -58 -34 -70 -69 -36 -16 15 -53 41 -83
57 -37 20 -48 31 -35 32 11 0 63 16 115 34 125 43 125 43 100 -6z m671 -49
c63 -80 188 -129 284 -111 l45 8 91 -124 c49 -69 92 -130 95 -137 3 -7 -26
-34 -65 -62 -39 -27 -75 -61 -81 -75 -20 -47 16 -99 68 -99 11 0 55 25 97 55
43 31 78 55 79 53 1 -2 14 -20 29 -40 15 -20 27 -39 27 -42 0 -3 -33 -30 -74
-60 -84 -62 -100 -93 -68 -135 33 -45 76 -40 157 19 38 27 72 50 75 50 3 0 25
-27 48 -59 l41 -59 -20 -25 c-18 -23 -68 -126 -82 -169 -5 -14 -11 -15 -39 -7
-71 20 -164 -25 -198 -97 -22 -45 -24 -46 -59 -40 -20 3 -72 6 -116 6 -79 0
-81 1 -92 28 -6 15 -18 44 -27 65 l-17 38 86 39 c91 42 113 67 101 114 -4 15
-20 33 -37 42 -30 15 -34 15 -120 -22 -49 -20 -91 -35 -92 -33 -10 14 -39 90
-36 93 2 2 40 20 84 40 43 20 83 42 87 49 13 20 9 75 -7 91 -30 30 -55 29
-142 -9 -47 -20 -87 -35 -89 -33 -2 2 -32 69 -67 148 l-64 144 33 49 c44 64
68 146 61 208 -3 27 -19 81 -36 121 -16 40 -22 62 -13 48 9 -13 33 -45 53 -70z
m-2036 -75 c33 -3 79 -8 103 -11 l43 -5 -39 -29 c-22 -15 -49 -44 -61 -64 -30
-47 -64 -49 -80 -5 -6 17 -27 54 -47 81 l-35 50 28 -6 c15 -3 55 -8 88 -11z
m741 -31 c-19 -25 -40 -61 -46 -80 -16 -48 -49 -46 -84 5 -15 21 -43 50 -63
64 l-36 25 44 6 c47 6 185 22 207 25 7 0 -3 -20 -22 -45z m4204 6 c0 -5 -2
-10 -4 -10 -3 0 -8 5 -11 10 -3 6 -1 10 4 10 6 0 11 -4 11 -10z m-5634 -128
c-36 -138 -14 -244 70 -330 l53 -55 -31 -151 c-17 -83 -34 -155 -38 -159 -4
-5 -48 0 -98 9 l-92 18 -25 -24 c-15 -14 -25 -35 -25 -51 0 -47 28 -67 115
-85 44 -9 83 -19 87 -22 8 -8 -11 -102 -20 -102 -4 0 -44 8 -90 17 -75 16 -86
16 -110 2 -21 -11 -28 -23 -30 -55 -4 -54 16 -70 114 -90 43 -9 82 -19 85 -22
4 -4 -1 -38 -10 -77 l-16 -70 -52 -7 c-28 -4 -71 -15 -95 -23 -77 -29 -75 -29
-93 4 -18 36 -76 76 -122 86 -29 6 -70 -1 -115 -20 -12 -5 -21 2 -34 27 -9 18
-43 60 -75 94 l-58 60 29 63 c34 71 24 70 142 20 74 -31 77 -32 103 -15 33 22
45 53 33 88 -9 26 -33 41 -145 89 l-42 18 20 50 21 49 47 -20 c140 -62 174
-64 201 -12 25 46 4 74 -87 119 -45 22 -85 43 -89 47 -4 4 22 72 56 152 l64
144 60 6 c129 13 221 88 272 220 16 41 30 73 32 71 2 -1 -4 -30 -12 -63z
m2032 43 c-3 -3 -9 2 -12 12 -6 14 -5 15 5 6 7 -7 10 -15 7 -18z m100 -178
c50 -52 124 -88 193 -94 55 -5 59 -7 73 -42 8 -20 37 -87 65 -149 l51 -113
-85 -39 c-85 -40 -105 -59 -105 -104 0 -26 41 -66 67 -66 8 0 51 16 94 35 44
19 82 35 84 35 6 0 31 -49 39 -76 6 -18 -4 -25 -78 -58 -82 -37 -106 -60 -106
-102 0 -22 46 -64 71 -64 12 0 57 16 101 36 44 20 81 34 82 32 1 -1 15 -31 30
-66 l27 -63 -51 -56 c-28 -30 -60 -73 -70 -94 l-20 -38 -35 14 c-43 19 -106
19 -148 1 -30 -12 -80 -60 -89 -85 -1 -5 -34 1 -73 15 -38 13 -86 24 -105 24
-19 0 -40 4 -47 8 -15 10 -38 131 -27 142 5 4 45 15 89 24 57 11 85 22 98 38
25 30 18 76 -15 101 -26 19 -29 20 -110 3 -46 -9 -88 -16 -94 -16 -10 0 -37
91 -29 99 2 2 44 12 92 21 94 20 123 40 123 87 0 28 -41 73 -67 73 -10 0 -55
-9 -100 -19 l-82 -19 -12 57 c-6 31 -21 102 -34 159 l-22 103 57 57 c87 87
106 174 75 337 -4 18 6 4 25 -35 17 -36 48 -82 68 -103z m-1451 31 c-3 -7 -5
-2 -5 12 0 14 2 19 5 13 2 -7 2 -19 0 -25z m731 -173 c34 -67 144 -155 194
-155 7 0 19 -4 26 -9 19 -12 84 -321 69 -326 -7 -2 -48 -12 -91 -22 -61 -14
-84 -24 -98 -44 -24 -32 -16 -73 20 -97 23 -15 30 -15 107 1 45 9 87 17 93 17
11 0 35 -87 28 -99 -3 -4 -40 -14 -81 -21 -92 -16 -125 -38 -125 -85 0 -66 41
-83 145 -60 41 10 81 15 88 12 12 -4 45 -135 36 -140 -57 -34 -127 -88 -149
-116 l-30 -35 -22 21 c-58 54 -166 51 -231 -7 l-33 -29 -45 30 c-24 16 -72 39
-107 51 l-63 23 3 70 3 70 95 3 c80 2 98 6 117 24 28 26 30 68 4 99 -18 22
-28 24 -118 26 l-98 2 -3 50 -3 49 99 4 c81 2 104 7 121 22 31 28 28 79 -5
105 -23 18 -41 21 -120 21 l-94 0 0 163 0 164 41 18 c56 26 116 87 145 148 20
44 24 68 25 157 l0 105 18 -85 c10 -47 28 -104 39 -125z m-713 -32 c26 -67 71
-121 130 -154 l55 -31 0 -164 0 -164 -89 0 c-106 0 -117 -3 -137 -42 -12 -24
-13 -36 -4 -58 16 -39 49 -50 146 -50 l85 0 -3 -51 -3 -50 -92 -2 c-80 -2 -95
-5 -114 -24 -30 -30 -30 -80 0 -105 19 -15 41 -18 118 -18 l94 0 -3 -76 -3
-75 -60 -24 c-33 -14 -78 -38 -101 -53 l-40 -29 -36 33 c-51 46 -106 61 -166
45 -26 -7 -55 -19 -64 -28 -17 -15 -22 -12 -70 33 -29 28 -71 60 -93 74 -22
13 -41 24 -43 25 -2 2 4 35 13 74 15 64 19 71 38 66 170 -39 194 -39 216 4 33
61 1 97 -114 122 -49 11 -90 21 -91 22 -2 1 2 24 8 50 11 55 12 55 123 30 74
-16 77 -16 103 4 39 29 42 83 6 112 -15 11 -33 21 -41 21 -8 0 -45 7 -82 15
l-68 16 23 102 c12 56 27 128 34 159 l11 57 54 16 c108 31 184 114 213 232
l17 72 7 -72 c4 -40 15 -91 23 -114z m15 -2033 c0 -5 -4 -10 -10 -10 -5 0 -10
5 -10 10 0 6 5 10 10 10 6 0 10 -4 10 -10z"/>
</g>
</svg>
