<?xml version="1.0" standalone="no"?>
<svg version="1.0" xmlns="http://www.w3.org/2000/svg"
 width="1280.000000pt" height="852.000000pt" viewBox="0 0 1280.000000 852.000000"
 preserveAspectRatio="xMidYMid meet">
<g transform="translate(0.000000,852.000000) scale(0.100000,-0.100000)"
fill="#000000" stroke="none">
<path d="M0 4260 l0 -4260 6400 0 6400 0 0 4260 0 4260 -6400 0 -6400 0 0
-4260z m6652 2740 c177 -23 359 -77 570 -169 84 -37 125 -50 143 -45 39 10
246 -117 346 -211 26 -25 54 -45 62 -45 8 0 20 -7 27 -15 7 -8 9 -15 5 -15
-16 0 20 -32 49 -44 45 -19 88 -73 121 -152 16 -38 32 -71 36 -74 3 -3 12 -23
18 -45 7 -22 16 -49 21 -60 23 -51 39 -112 34 -131 -4 -14 2 -33 15 -51 14
-20 20 -44 21 -83 0 -73 -8 -137 -20 -160 -6 -10 -10 -34 -10 -54 0 -19 -5
-38 -11 -41 -5 -4 -9 -17 -8 -28 0 -12 1 -33 0 -47 l-2 -25 -29 33 c-16 17
-32 32 -35 32 -3 0 -2 -18 1 -40 4 -25 3 -40 -4 -40 -6 0 -12 6 -15 13 -7 20
-48 -35 -43 -60 2 -13 -1 -23 -7 -23 -5 0 -7 -13 -4 -29 4 -21 2 -31 -9 -35
-11 -4 -14 -14 -9 -35 4 -19 -1 -41 -15 -69 -16 -30 -20 -50 -15 -72 4 -19 3
-30 -4 -30 -6 0 -11 -4 -11 -9 0 -16 -130 -141 -157 -152 -19 -7 -30 -6 -42 4
-26 22 -49 9 -90 -51 -61 -91 -68 -110 -74 -217 -6 -87 -4 -106 14 -145 11
-24 24 -47 29 -50 17 -11 16 -60 -3 -60 -7 0 -18 -9 -25 -20 -11 -18 -10 -20
12 -20 42 0 166 -197 166 -266 0 -28 3 -35 15 -30 13 5 14 2 4 -15 -26 -50 19
-125 49 -80 11 16 18 18 40 10 16 -6 35 -6 54 0 27 10 28 9 28 -22 0 -42 -8
-52 -66 -90 -40 -26 -51 -40 -59 -73 -9 -36 -12 -40 -24 -27 -21 23 -24 9 -11
-67 11 -64 10 -73 -6 -91 -9 -10 -28 -19 -41 -19 -14 0 -23 -6 -23 -15 0 -9
-14 -24 -30 -33 -17 -9 -33 -27 -36 -39 -4 -13 -10 -23 -15 -23 -5 0 -9 -12
-9 -26 0 -16 -5 -24 -12 -21 -7 2 -12 10 -10 17 2 8 -3 10 -15 5 -10 -4 -38
-13 -61 -20 l-44 -14 7 26 c5 23 4 24 -10 10 -19 -20 -19 -36 0 -43 8 -4 15
-10 15 -15 0 -14 -27 -10 -44 6 -8 8 -22 12 -31 9 -11 -5 -13 -9 -5 -14 16
-10 1 -40 -22 -40 -11 0 -27 -4 -37 -10 -13 -6 -24 -5 -37 4 -13 10 -26 11
-44 4 -20 -6 -39 -4 -71 8 -50 18 -131 39 -203 51 -49 8 -54 12 -76 67 -9 23
-13 27 -20 16 -7 -12 -14 -11 -39 8 -29 21 -31 21 -31 4 0 -10 16 -34 35 -52
28 -27 35 -40 30 -59 -6 -23 17 -61 37 -61 18 0 98 -74 98 -91 0 -9 9 -24 20
-34 24 -22 17 -37 -15 -29 -12 3 -26 1 -29 -5 -4 -6 -2 -11 3 -11 18 0 12 -20
-6 -27 -10 -4 -34 -17 -55 -31 -34 -22 -38 -23 -67 -7 -17 8 -31 11 -31 6 0
-6 -7 -8 -15 -5 -10 4 -15 0 -15 -13 0 -11 -9 -29 -20 -41 -24 -26 -25 -33 -4
-25 13 5 15 2 9 -15 -3 -12 -2 -22 3 -22 10 0 19 -48 28 -158 l6 -63 31 24
c61 45 77 43 94 -14 10 -35 8 -39 -29 -83 -22 -25 -46 -46 -54 -46 -8 0 -30
-15 -48 -32 -44 -45 -117 -78 -271 -127 l-130 -42 -227 10 c-201 9 -237 13
-313 37 -76 24 -116 50 -99 67 3 2 -15 2 -40 0 -69 -8 -92 1 -110 47 -9 22
-20 40 -26 40 -26 0 -38 62 -49 241 -6 102 -9 199 -6 215 8 40 -25 90 -73 112
-20 10 -38 24 -40 31 -1 7 -26 35 -55 61 -44 41 -50 51 -41 67 12 18 21 19
102 7 57 -8 76 8 69 57 -3 21 0 42 6 48 8 8 6 11 -6 11 -9 0 -17 5 -17 10 0 6
-11 10 -24 10 -13 0 -26 7 -30 15 -4 12 -11 12 -47 -4 -36 -17 -46 -17 -73 -6
-17 7 -32 20 -34 29 -2 9 -10 16 -19 16 -9 0 -13 6 -10 14 4 10 -9 23 -36 39
-23 14 -62 43 -87 64 -25 22 -70 56 -100 75 -77 50 -127 103 -112 121 7 8 9
17 6 20 -4 3 -8 23 -10 44 -2 21 -7 68 -12 106 -4 37 -5 73 0 80 4 6 8 26 8
42 0 17 7 43 15 58 13 26 13 31 -3 53 -9 13 -27 24 -40 24 -12 0 -25 7 -28 15
-11 28 36 139 130 310 100 181 108 203 126 335 7 47 13 94 15 105 1 11 6 33
10 48 6 24 2 34 -26 63 -18 19 -28 34 -22 34 6 0 14 -6 16 -12 4 -8 6 -9 6 -2
1 6 -5 16 -11 21 -20 15 -113 34 -130 28 -11 -4 -24 4 -39 24 -13 17 -30 31
-38 31 -11 0 -12 3 -4 11 8 8 6 20 -5 42 -9 18 -18 59 -20 92 -3 33 -10 63
-16 67 -6 4 -12 31 -12 60 -1 29 -4 75 -7 103 -3 27 -2 43 2 36 17 -27 21 22
10 105 -10 72 -10 93 5 156 10 40 25 84 33 96 8 13 12 26 9 29 -3 3 3 18 13
32 24 34 76 133 76 146 1 15 27 50 87 117 38 43 71 68 114 88 71 32 207 121
226 148 22 31 119 90 209 127 113 46 304 91 465 109 132 15 283 47 252 54 -9
2 -43 -2 -75 -9 -32 -7 -83 -14 -113 -16 -75 -5 -46 12 63 37 101 24 245 21
479 -10z m-1397 -349 c-33 -32 -131 -89 -139 -80 -13 12 14 33 79 64 53 25 76
31 60 16z m-1995 -489 c105 -21 305 -64 370 -81 52 -13 202 -85 227 -110 12
-11 29 -21 37 -21 8 0 35 -13 59 -30 25 -16 49 -30 55 -30 5 0 21 -17 36 -38
14 -21 42 -53 61 -72 39 -37 43 -50 19 -50 -14 0 -15 -7 -10 -41 3 -22 15 -66
26 -97 11 -32 20 -69 20 -82 0 -59 18 -136 35 -150 7 -6 23 -43 36 -83 14 -44
34 -82 50 -97 41 -38 60 -84 62 -155 2 -53 6 -68 28 -92 36 -38 59 -86 59
-121 0 -23 -6 -32 -30 -42 -31 -13 -50 -37 -50 -63 0 -20 29 -30 46 -16 11 9
14 6 14 -14 0 -14 -4 -28 -9 -31 -5 -3 -12 -21 -15 -41 -9 -47 -53 -145 -66
-145 -5 0 -10 -20 -10 -44 0 -38 -4 -48 -30 -66 -16 -12 -30 -26 -30 -33 0
-22 46 -77 85 -102 23 -14 68 -53 102 -88 68 -69 82 -108 59 -161 -8 -17 -16
-39 -19 -48 -3 -9 -15 -22 -26 -28 -19 -10 -21 -8 -21 23 0 23 10 47 30 72 30
38 35 65 15 72 -22 7 -46 -24 -52 -66 -3 -23 -11 -45 -18 -47 -6 -3 -10 -17
-8 -32 3 -15 -2 -45 -9 -66 l-13 -40 -80 -13 c-44 -8 -91 -12 -105 -9 -15 2
-32 -2 -44 -12 -15 -14 -51 -18 -225 -22 -186 -5 -211 -8 -253 -28 -46 -22
-138 -104 -138 -123 0 -5 11 -14 24 -19 18 -6 27 -20 31 -44 8 -39 1 -56 -21
-56 -19 0 -18 -10 3 -25 12 -9 16 -25 15 -52 -2 -22 2 -50 7 -64 8 -21 10 -22
16 -7 6 16 9 16 26 -6 10 -13 19 -27 19 -31 0 -4 11 -18 24 -30 26 -24 43 -83
32 -111 -4 -12 -13 -14 -32 -10 -17 5 -33 0 -51 -14 -14 -11 -39 -20 -56 -20
-16 0 -51 -8 -77 -17 -42 -15 -54 -15 -102 -4 -88 21 -350 10 -465 -20 -95
-25 -114 -40 -93 -78 4 -9 11 -42 15 -73 4 -32 11 -58 15 -58 9 0 20 61 20
118 0 78 71 112 107 52 10 -17 30 -37 45 -45 27 -13 28 -13 28 16 0 22 9 34
40 55 47 31 66 27 86 -21 8 -19 18 -35 24 -35 5 0 14 -17 19 -37 14 -49 14
-56 -1 -47 -7 5 -9 2 -5 -8 7 -19 -12 -48 -33 -52 -8 -2 -23 -6 -33 -11 -10
-4 -33 -5 -52 -2 -23 4 -38 1 -46 -9 -15 -19 -175 -20 -182 -1 -3 8 -9 7 -19
-6 -16 -22 -74 -36 -144 -37 -58 0 -64 7 -64 88 0 45 17 85 58 140 37 49 6 40
-42 -13 -33 -36 -46 -43 -65 -38 -20 5 -22 4 -13 -13 14 -26 21 -131 10 -142
-6 -6 -3 -15 6 -24 14 -14 13 -17 -2 -30 -20 -17 -104 -41 -147 -42 -21 -1
-32 5 -41 22 -18 37 -22 36 -34 -8 l-11 -42 -60 4 c-39 2 -59 -1 -59 -8 0 -16
-40 -25 -61 -14 -12 7 -21 5 -29 -5 -11 -13 -15 -11 -32 10 -18 23 -18 26 -3
55 13 25 19 29 35 20 15 -8 22 -4 39 23 11 18 30 42 42 53 20 18 21 18 34 1
11 -16 14 -14 25 15 20 49 40 68 72 68 21 0 28 -5 28 -20 0 -26 16 -26 30 0
16 29 4 40 -40 40 -26 0 -45 7 -57 19 -42 45 -107 46 -84 2 7 -12 9 -26 6 -31
-3 -5 -1 -18 5 -29 14 -26 5 -30 -76 -33 -65 -2 -70 -1 -81 23 -7 14 -19 65
-28 113 -19 111 -48 207 -80 264 -14 25 -25 59 -25 78 0 18 -5 36 -10 39 -16
10 -50 -5 -50 -22 0 -24 -95 -11 -161 22 -49 25 -60 27 -139 23 -47 -3 -131
-18 -188 -33 -56 -15 -105 -25 -109 -22 -3 4 -11 51 -16 104 -8 78 -7 119 6
203 22 137 23 466 2 506 -8 15 -11 41 -8 63 10 72 66 269 108 382 60 162 64
191 29 270 -17 41 -27 80 -27 109 1 84 14 205 25 233 7 19 7 31 -1 40 -21 27
40 205 105 304 58 88 228 258 319 318 174 116 452 229 715 290 99 23 118 25
345 21 191 -3 261 -8 345 -24z m6792 -14 c120 -24 218 -46 218 -50 0 -5 -9 -8
-19 -8 -11 0 -22 -4 -25 -8 -3 -5 34 -14 82 -20 93 -13 231 -55 297 -91 22
-12 51 -28 65 -36 14 -7 41 -20 60 -29 19 -8 54 -28 76 -44 64 -47 233 -211
275 -269 54 -72 137 -269 145 -343 11 -101 16 -133 30 -193 20 -83 9 -121 -37
-131 -25 -5 -29 -10 -29 -41 0 -19 11 -65 25 -102 15 -38 25 -81 23 -98 -1
-16 3 -41 9 -55 5 -14 16 -41 23 -60 6 -19 22 -64 35 -100 28 -79 34 -141 40
-363 2 -92 9 -210 16 -261 13 -97 2 -224 -22 -252 -14 -17 -100 7 -196 56 -43
22 -95 45 -116 51 -26 7 -37 15 -34 24 8 19 -4 27 -20 14 -8 -7 -30 -9 -54 -6
-68 9 -155 -32 -205 -99 l-28 -36 28 -23 c24 -19 25 -23 11 -29 -9 -3 -21 -4
-26 0 -5 3 -9 -7 -9 -22 0 -15 -6 -35 -14 -43 -18 -22 -34 -91 -43 -191 -5
-65 -9 -78 -14 -55 -7 29 -7 29 -14 7 -10 -31 -38 -24 -45 10 -4 20 -23 39
-74 73 -38 25 -77 45 -86 45 -10 0 -37 7 -60 15 -50 18 -57 14 -42 -19 10 -23
14 -24 48 -15 20 6 47 8 61 4 20 -5 24 -10 19 -29 -6 -25 26 -92 42 -89 6 1
15 -10 20 -26 5 -15 24 -44 41 -63 58 -67 81 -158 40 -158 -15 0 -19 5 -15 15
4 10 -3 19 -18 25 -14 5 -26 19 -28 32 -2 15 -10 23 -23 23 -15 0 -21 8 -23
33 -3 32 -4 32 -56 32 -39 0 -57 5 -70 19 -15 17 -71 33 -121 36 -11 1 -38 6
-60 12 -91 26 -134 35 -144 28 -6 -3 -20 -3 -31 0 -16 5 -20 15 -20 48 0 23
-3 53 -7 67 -7 24 -8 23 -19 -15 -11 -34 -13 -36 -15 -15 -1 14 -5 0 -8 -30
l-6 -55 -39 3 c-22 2 -71 12 -110 22 -52 14 -75 16 -89 8 -13 -6 -40 -8 -71
-3 -28 4 -80 7 -116 6 -36 -1 -78 3 -94 8 -21 9 -32 8 -49 -4 -25 -18 -60 -19
-89 -4 -16 9 -23 8 -29 -2 -28 -49 -36 -54 -63 -40 -32 18 -35 57 -5 95 23 30
45 33 70 10 16 -14 20 -12 56 26 l39 42 38 -18 38 -19 31 35 31 34 -94 12
c-77 10 -97 16 -112 34 l-18 22 0 -30 c0 -29 -2 -31 -52 -37 -72 -9 -133 12
-132 43 0 15 -4 21 -13 18 -16 -7 -17 17 -1 60 9 25 8 54 -6 140 -16 107 -16
109 4 136 11 15 20 32 20 38 0 5 20 15 45 22 44 12 61 28 28 28 -9 0 -13 3
-10 6 3 4 -4 15 -18 26 -13 10 -25 28 -27 41 -4 26 -39 35 -60 14 -12 -13 -17
-12 -37 4 -13 11 -35 19 -50 19 -36 0 -101 19 -101 29 0 5 -10 9 -22 9 -13 -1
-45 5 -73 11 -109 25 -178 30 -220 17 -64 -22 -163 -30 -180 -16 -23 19 -18
68 13 108 15 20 30 39 35 40 4 2 7 15 7 28 0 16 8 28 25 36 17 7 38 39 66 97
23 47 53 103 67 124 19 29 22 41 14 49 -7 7 -12 23 -12 36 0 17 -4 22 -14 19
-23 -9 -27 5 -9 26 17 19 17 19 -3 13 -14 -4 -26 -1 -34 9 -17 20 -7 108 19
167 19 44 106 178 185 283 97 130 118 164 127 204 8 38 7 43 -21 69 -27 27
-28 30 -13 45 16 16 16 18 -2 32 -11 8 -15 15 -9 15 13 0 10 71 -4 96 -6 10
-25 23 -43 29 -30 10 -33 16 -36 56 -2 24 -8 46 -13 47 -20 7 -9 29 32 63 76
62 98 87 92 104 -7 18 2 27 97 90 91 59 132 79 247 120 181 64 345 92 557 94
128 2 158 -2 357 -41z m-1467 -598 c-3 -5 -11 -10 -16 -10 -6 0 -7 5 -4 10 3
6 11 10 16 10 6 0 7 -4 4 -10z m-525 -69 c0 -12 -9 -21 -26 -25 l-26 -7 21
-18 c16 -14 19 -25 14 -54 -5 -34 -37 -76 -48 -65 -3 3 2 19 12 37 12 20 14
34 8 39 -16 11 -17 82 -1 82 7 0 19 7 26 15 16 20 20 19 20 -4z m-86 -218 c-2
-32 -3 -70 -3 -85 -1 -21 -6 -28 -20 -28 -17 0 -19 7 -17 63 2 54 20 107 36
107 3 0 5 -26 4 -57z m79 25 c-6 -31 -23 -38 -23 -10 0 16 20 46 26 39 1 -1 0
-14 -3 -29z m-383 -308 c0 -5 -2 -10 -4 -10 -3 0 -8 5 -11 10 -3 6 -1 10 4 10
6 0 11 -4 11 -10z m282 -77 c-6 -10 -21 -28 -35 -41 -41 -38 -42 -6 -1 33 38
37 53 40 36 8z m3333 -26 c4 -12 1 -35 -5 -51 -5 -15 -7 -33 -3 -39 3 -7 3 -9
-2 -5 -4 4 -14 0 -21 -10 -22 -31 -25 -6 -5 46 11 29 18 58 15 67 -4 8 -1 15
5 15 6 0 13 -10 16 -23z m-3445 -47 c0 -5 -5 -10 -11 -10 -5 0 -7 5 -4 10 3 6
8 10 11 10 2 0 4 -4 4 -10z m-96 -231 c-3 -5 -10 -7 -15 -3 -5 3 -7 10 -3 15
3 5 10 7 15 3 5 -3 7 -10 3 -15z m-69 -30 c11 -17 -1 -21 -15 -4 -8 9 -8 15
-2 15 6 0 14 -5 17 -11z m836 -26 c-8 -15 -10 -15 -11 -2 0 17 10 32 18 25 2
-3 -1 -13 -7 -23z m-3756 -294 c8 -23 1 -34 -14 -24 -13 8 -15 45 -2 45 5 0
13 -9 16 -21z m192 -535 c-3 -3 -12 -4 -19 -1 -8 3 -5 6 6 6 11 1 17 -2 13 -5z
m94 -105 l20 -20 -28 3 c-17 2 -29 10 -31 21 -5 23 13 22 39 -4z m2097 -197
c2 -6 -11 -25 -30 -42 -22 -20 -34 -26 -37 -18 -2 7 -10 17 -17 21 -23 13 -16
36 14 43 15 3 32 7 37 9 15 5 28 0 33 -13z m1950 -94 c26 -26 1 -108 -33 -108
-33 0 -45 62 -19 98 17 25 34 28 52 10z m-117 -101 c-8 -8 -11 -4 -11 14 0 33
14 47 18 19 2 -12 -1 -27 -7 -33z m-5280 -176 c13 -10 30 -16 36 -14 15 5 33
-36 33 -73 0 -31 -18 -31 -25 -1 l-6 24 -30 -28 c-17 -15 -40 -31 -52 -35 -12
-4 -35 -17 -50 -30 -30 -25 -66 -31 -83 -14 -6 6 -21 6 -42 -2 -42 -16 -64 -3
-74 43 -9 38 -1 106 13 114 5 4 21 -5 36 -19 34 -32 36 -32 48 -3 6 13 21 23
37 25 21 3 32 -4 52 -35 l26 -38 0 30 c0 34 24 75 44 75 7 0 24 -8 37 -19z
m-370 -31 c13 -22 26 -40 29 -40 11 0 30 -49 30 -74 0 -27 -17 -36 -65 -36
-31 0 -35 4 -44 38 -15 54 -16 73 -7 115 11 48 29 47 57 -3z m3599 -324 c0 -3
-4 -8 -10 -11 -5 -3 -10 -1 -10 4 0 6 5 11 10 11 6 0 10 -2 10 -4z m-99 -73
c-8 -15 -10 -15 -11 -2 0 17 10 32 18 25 2 -3 -1 -13 -7 -23z m-57 -38 c3 -8
1 -15 -4 -15 -6 0 -10 -13 -10 -29 0 -31 -22 -57 -40 -46 -13 8 -13 61 0 86
13 23 45 25 54 4z m-120 -31 c3 -9 6 -33 6 -54 0 -29 -4 -37 -16 -36 -9 0 -19
-5 -22 -13 -3 -10 0 -12 12 -8 25 10 19 -9 -11 -33 -15 -11 -36 -20 -47 -18
-17 2 -22 11 -24 47 -5 64 4 89 41 111 39 24 53 25 61 4z m-951 -51 c6 -30 -9
-67 -23 -58 -12 7 -23 62 -15 75 12 19 33 10 38 -17z m343 17 c42 -17 53 -39
54 -111 0 -91 -11 -104 -84 -95 -32 3 -73 13 -93 21 -34 14 -35 17 -28 52 11
61 43 113 78 128 39 17 39 17 73 5z m-186 -15 c25 -31 2 -135 -30 -135 -15 0
-80 67 -80 82 0 9 9 27 21 42 23 30 69 35 89 11z m462 -12 c14 -13 18 -31 18
-89 l0 -73 -92 -3 c-55 -2 -96 1 -100 7 -4 6 -8 31 -8 57 0 39 6 54 31 83 28
31 36 35 82 35 33 0 57 -6 69 -17z m189 -5 c4 -6 10 -32 14 -57 6 -39 4 -48
-14 -62 -23 -19 -113 -35 -132 -24 -20 13 -4 114 23 142 20 21 29 24 63 18 22
-3 43 -11 46 -17z"/>
<path d="M7482 6451 c-10 -6 -11 -17 -5 -42 8 -29 15 -35 46 -40 20 -3 43 -12
52 -19 13 -11 15 -10 9 3 -3 8 -11 18 -19 21 -7 2 -23 23 -36 45 -24 44 -27
45 -47 32z"/>
<path d="M7580 6320 c0 -5 5 -10 11 -10 5 0 7 5 4 10 -3 6 -8 10 -11 10 -2 0
-4 -4 -4 -10z"/>
<path d="M6303 6036 c-18 -18 -33 -41 -33 -50 0 -9 -11 -28 -25 -42 -18 -18
-25 -36 -25 -62 0 -36 2 -38 47 -51 35 -11 48 -11 51 -3 9 28 20 9 11 -20 -9
-34 -2 -98 11 -98 13 0 29 53 27 85 -2 17 -11 44 -20 62 -20 37 -21 63 -6 116
9 32 14 37 36 35 38 -4 39 19 1 42 -18 11 -35 20 -38 20 -3 0 -20 -15 -37 -34z"/>
<path d="M8065 6020 c-3 -5 -1 -10 4 -10 6 0 11 5 11 10 0 6 -2 10 -4 10 -3 0
-8 -4 -11 -10z"/>
<path d="M6412 5955 c-10 -12 -10 -19 4 -40 23 -36 36 -31 32 12 -3 40 -16 50
-36 28z"/>
<path d="M7610 5961 c0 -6 5 -13 10 -16 6 -3 10 1 10 9 0 9 -4 16 -10 16 -5 0
-10 -4 -10 -9z"/>
<path d="M7895 5890 c3 -5 11 -10 16 -10 6 0 7 5 4 10 -3 6 -11 10 -16 10 -6
0 -7 -4 -4 -10z"/>
<path d="M7783 5853 c-21 -8 -15 -44 7 -50 11 -3 20 -10 20 -17 0 -6 4 -5 9 3
10 15 0 64 -15 67 -5 1 -15 0 -21 -3z"/>
<path d="M8035 5837 c-4 -10 -5 -21 -1 -24 10 -10 18 4 13 24 -4 17 -4 17 -12
0z"/>
<path d="M6390 5774 c0 -8 5 -12 10 -9 6 3 10 10 10 16 0 5 -4 9 -10 9 -5 0
-10 -7 -10 -16z"/>
<path d="M7950 5641 c0 -6 5 -13 10 -16 6 -3 10 1 10 9 0 9 -4 16 -10 16 -5 0
-10 -4 -10 -9z"/>
<path d="M7960 5580 c0 -5 5 -10 10 -10 6 0 10 5 10 10 0 6 -4 10 -10 10 -5 0
-10 -4 -10 -10z"/>
<path d="M5682 5464 c4 -21 22 -23 26 -1 2 10 -3 17 -13 17 -10 0 -15 -6 -13
-16z"/>
<path d="M6323 5435 c-22 -24 -15 -32 27 -31 l40 1 -25 22 c-28 27 -26 26 -42
8z"/>
<path d="M5660 5420 c0 -6 7 -13 15 -17 24 -9 27 1 5 15 -13 8 -20 8 -20 2z"/>
<path d="M7265 5420 c-3 -6 1 -7 9 -4 18 7 21 14 7 14 -6 0 -13 -4 -16 -10z"/>
<path d="M5773 5384 c-1 -28 1 -34 10 -25 6 6 19 11 28 11 9 0 23 7 30 16 12
15 11 16 -7 10 -14 -4 -26 -1 -34 9 -19 23 -25 18 -27 -21z"/>
<path d="M5405 5383 c-16 -16 -16 -17 1 -30 26 -19 41 -16 47 9 11 40 -18 52
-48 21z"/>
<path d="M5822 5351 c-20 -27 -24 -29 -52 -18 -16 6 -30 17 -30 24 0 15 -36
18 -45 3 -3 -5 -2 -10 3 -10 18 0 23 -32 7 -44 -15 -10 -13 -15 9 -39 14 -16
26 -32 26 -37 0 -16 33 -80 42 -80 4 0 8 -9 8 -19 0 -11 15 -28 35 -40 19 -11
35 -15 35 -9 0 11 70 -38 83 -59 20 -33 61 4 50 46 -4 17 -2 21 16 18 12 -2
26 -8 32 -14 6 -6 18 -9 25 -6 7 3 20 -2 29 -10 19 -20 19 -27 -1 -27 -8 0
-12 -4 -9 -10 3 -5 15 -10 26 -10 10 0 19 -6 19 -13 0 -8 9 -22 21 -33 21 -19
21 -19 18 1 -2 11 0 26 5 33 11 19 -2 62 -19 62 -8 0 -19 -8 -24 -17 -9 -15
-10 -15 -11 -2 0 21 19 39 36 32 10 -4 14 5 14 33 -1 29 -3 35 -10 23 -11 -19
-60 -14 -73 7 -4 8 -14 14 -22 14 -8 0 -19 8 -24 18 -7 14 -18 18 -40 14 -22
-3 -31 0 -31 9 0 8 -15 31 -34 51 -35 38 -37 55 -4 37 10 -5 23 -7 29 -4 15
10 -9 35 -27 28 -10 -4 -12 0 -8 11 4 11 -2 19 -18 25 -13 5 -30 16 -37 25
-18 22 -24 20 -49 -13z m218 -221 c0 -5 -5 -10 -11 -10 -5 0 -7 5 -4 10 3 6 8
10 11 10 2 0 4 -4 4 -10z m76 -28 c9 -5 9 -10 0 -18 -10 -9 -16 -7 -24 7 -10
15 -9 19 0 19 7 0 18 -4 24 -8z m-176 -28 c0 -8 -5 -12 -10 -9 -6 4 -8 11 -5
16 9 14 15 11 15 -7z"/>
<path d="M6088 5333 c7 -3 16 -2 19 1 4 3 -2 6 -13 5 -11 0 -14 -3 -6 -6z"/>
<path d="M5997 5290 c-4 -15 0 -20 14 -20 23 0 24 7 5 25 -12 12 -15 11 -19
-5z"/>
<path d="M6188 5263 c7 -3 16 -2 19 1 4 3 -2 6 -13 5 -11 0 -14 -3 -6 -6z"/>
<path d="M7643 5253 c-7 -3 -13 -10 -13 -15 0 -6 3 -8 7 -5 3 4 12 2 19 -4 7
-6 14 -6 18 -1 8 13 -15 31 -31 25z"/>
<path d="M6278 5233 c7 -3 16 -2 19 1 4 3 -2 6 -13 5 -11 0 -14 -3 -6 -6z"/>
<path d="M6164 5194 c-10 -8 -14 -13 -7 -9 8 3 15 -4 19 -20 7 -28 19 -33 28
-9 4 10 15 14 33 12 37 -4 41 -34 9 -73 -18 -21 -25 -25 -26 -14 0 9 -7 22
-15 29 -13 11 -15 8 -15 -13 0 -37 32 -53 55 -27 26 29 33 24 21 -14 -7 -22
-13 -30 -18 -23 -5 7 -8 -1 -8 -19 0 -17 3 -34 7 -38 11 -11 12 -38 2 -58 -10
-19 3 -23 59 -18 22 1 32 -23 12 -35 -5 -3 -7 -12 -3 -20 3 -8 1 -15 -4 -15
-8 0 -12 -16 -13 -52 0 -7 3 -28 6 -45 6 -34 18 -43 27 -20 3 7 6 5 6 -5 1
-10 8 -18 16 -18 9 0 21 -11 27 -25 6 -14 14 -25 18 -25 4 0 10 -9 13 -20 6
-22 -18 -41 -40 -33 -7 3 -13 -3 -13 -12 0 -12 -5 -15 -16 -11 -9 4 -23 1 -30
-5 -20 -17 -47 -3 -39 20 9 30 -30 48 -55 26 -20 -18 -70 -14 -70 6 0 6 -16
25 -36 44 l-35 34 20 20 c21 21 28 43 14 39 -5 -1 -22 11 -39 28 -25 23 -30
34 -22 47 12 22 2 37 -25 37 -17 0 -19 2 -7 10 21 13 8 21 -45 25 -54 3 -60 8
-73 55 -7 24 -10 28 -11 13 -1 -25 -21 -42 -21 -18 0 9 -6 15 -12 12 -18 -6
-50 12 -43 24 8 12 -1 11 -24 -3 -22 -13 -51 3 -51 28 0 8 -7 14 -16 14 -8 0
-12 -4 -9 -10 14 -22 -18 -8 -47 20 -16 17 -40 30 -52 30 -12 0 -28 6 -35 13
-11 10 -14 10 -18 0 -9 -25 -23 -13 -24 20 -1 30 -1 30 -8 7 -7 -24 -8 -24
-15 -4 -7 24 -39 64 -50 64 -4 0 -4 -4 -1 -10 3 -6 -1 -7 -10 -4 -12 5 -13 10
-6 17 14 14 14 37 1 37 -5 0 -10 -7 -10 -16 0 -11 -6 -13 -19 -9 -23 7 -41
-19 -41 -59 0 -14 -4 -26 -10 -26 -14 0 -13 -33 2 -66 10 -22 10 -28 0 -32 -7
-2 -22 -14 -33 -26 -17 -17 -19 -29 -14 -66 4 -26 14 -51 25 -60 23 -18 38
-70 20 -70 -6 0 -8 5 -5 10 3 6 2 10 -3 10 -17 0 -21 -13 -11 -31 8 -15 6 -19
-9 -19 -40 0 -82 -22 -88 -46 -3 -13 -13 -24 -20 -24 -8 0 -17 -6 -20 -14 -3
-8 -19 -16 -35 -20 -19 -4 -33 -14 -39 -31 -5 -14 -24 -34 -41 -44 -39 -24
-69 -68 -69 -101 0 -14 -7 -36 -16 -48 -12 -18 -13 -26 -4 -37 7 -8 9 -27 6
-42 -20 -92 -3 -223 46 -355 15 -41 121 -136 185 -165 51 -24 71 -27 158 -27
115 0 186 18 261 66 27 17 81 43 119 58 64 24 73 30 103 80 42 71 52 106 59
210 3 47 10 91 16 98 5 6 31 12 58 12 33 0 49 4 49 13 0 24 60 85 90 92 49 11
140 -13 172 -45 15 -16 28 -37 28 -48 0 -31 31 -49 82 -50 81 0 97 -14 98 -80
0 -18 -5 -23 -22 -20 -32 4 -45 -46 -29 -120 6 -31 14 -70 16 -87 4 -36 84
-115 116 -115 12 0 32 -11 44 -24 28 -30 106 -57 113 -38 5 17 15 15 41 -7 13
-11 20 -24 17 -30 -20 -32 238 -32 374 -1 84 20 99 27 143 69 27 25 58 66 69
91 34 78 55 330 32 387 -11 27 -11 37 2 60 12 25 12 29 -3 41 -9 6 -26 12 -37
12 -25 0 -126 56 -126 70 0 6 5 10 10 10 6 0 10 5 10 10 0 6 -10 10 -23 10
-13 0 -33 9 -45 21 -12 11 -27 17 -32 14 -5 -3 -23 18 -39 46 -24 42 -28 57
-19 72 9 17 8 19 -6 14 -10 -4 -16 -1 -16 8 0 8 -5 15 -11 15 -8 0 -7 6 2 17
12 15 12 16 -3 10 -12 -4 -19 0 -24 15 -10 31 -26 46 -46 40 -10 -2 -20 2 -24
11 -3 9 -19 19 -34 22 -17 4 -32 15 -35 26 -6 16 -12 19 -36 14 -19 -4 -43 -1
-65 10 -24 11 -45 14 -62 9 -34 -9 -30 -10 -134 12 -49 10 -88 22 -88 27 0 5
-12 6 -26 3 -21 -6 -25 -4 -21 8 7 19 3 20 -24 6 -25 -14 -44 -3 -28 16 11 13
5 19 -15 15 -14 -3 -26 23 -14 30 6 4 8 15 3 25 -5 13 -9 15 -12 7 -3 -7 -9
-13 -14 -13 -6 0 -7 5 -4 10 3 6 1 10 -5 10 -7 0 -9 -8 -5 -20 4 -14 2 -20 -8
-20 -23 0 -31 33 -11 47 14 10 15 16 6 25 -17 17 -15 48 3 48 8 0 14 -3 13 -7
-2 -5 2 -9 7 -11 6 -1 12 7 13 19 3 14 0 19 -8 14 -6 -4 -28 4 -48 17 -45 30
-96 48 -133 48 -16 0 -29 5 -29 10 0 15 -24 12 -46 -6z m-685 -122 c-11 -2
-19 -8 -19 -14 0 -6 -3 -8 -6 -5 -4 4 1 19 11 34 17 25 19 26 25 8 5 -15 2
-21 -11 -23z m-43 -6 c6 -16 -14 -61 -23 -52 -3 3 0 12 6 20 16 20 4 39 -20
33 -11 -3 -17 -1 -13 4 8 14 44 11 50 -5z m1139 -1096 c3 -5 2 -10 -4 -10 -5
0 -13 5 -16 10 -3 6 -2 10 4 10 5 0 13 -4 16 -10z m62 -52 c24 -22 30 -38 14
-38 -5 0 -19 14 -31 30 -25 35 -16 39 17 8z"/>
<path d="M6121 5184 c0 -11 3 -14 6 -6 3 7 2 16 -1 19 -3 4 -6 -2 -5 -13z"/>
<path d="M6960 5041 c0 -6 -7 -8 -15 -5 -8 4 -15 1 -15 -5 0 -6 5 -11 10 -11
6 0 6 -7 -1 -19 -16 -24 -5 -51 21 -51 18 0 20 6 18 45 -1 25 -5 48 -10 51 -4
3 -8 1 -8 -5z"/>
<path d="M6100 4835 c13 -14 25 -23 27 -21 8 8 -22 46 -36 46 -10 0 -7 -8 9
-25z"/>
<path d="M6135 4850 c3 -5 11 -10 16 -10 6 0 7 5 4 10 -3 6 -11 10 -16 10 -6
0 -7 -4 -4 -10z"/>
<path d="M6287 4853 c-4 -3 -7 -11 -7 -17 0 -6 5 -5 12 2 6 6 9 14 7 17 -3 3
-9 2 -12 -2z"/>
<path d="M6260 4810 c0 -5 5 -10 11 -10 5 0 7 5 4 10 -3 6 -8 10 -11 10 -2 0
-4 -4 -4 -10z"/>
<path d="M6130 4755 c0 -8 5 -15 10 -15 6 0 10 7 10 15 0 8 -4 15 -10 15 -5 0
-10 -7 -10 -15z"/>
<path d="M7380 4755 c0 -8 2 -15 4 -15 2 0 6 7 10 15 3 8 1 15 -4 15 -6 0 -10
-7 -10 -15z"/>
<path d="M6257 4746 c-9 -24 -10 -23 15 -22 12 0 23 7 26 15 3 10 0 12 -11 8
-9 -3 -17 -1 -20 6 -2 6 -6 3 -10 -7z"/>
<path d="M7470 4440 c0 -5 5 -10 10 -10 6 0 10 5 10 10 0 6 -4 10 -10 10 -5 0
-10 -4 -10 -10z"/>
<path d="M4901 4146 c-19 -22 22 -60 49 -46 30 16 35 32 15 47 -24 17 -50 17
-64 -1z"/>
<path d="M7657 4112 c-34 -21 -41 -41 -22 -62 8 -9 15 -24 15 -33 0 -20 11
-22 28 -5 15 15 16 32 1 22 -6 -3 -4 8 5 24 29 57 18 81 -27 54z"/>
<path d="M5946 3863 c-19 -38 -37 -129 -29 -148 9 -26 23 3 23 51 0 23 7 60
15 83 16 47 12 54 -9 14z"/>
<path d="M7471 3753 c-10 -26 -10 -27 4 -9 8 11 15 23 15 28 0 15 -7 8 -19
-19z"/>
<path d="M6391 3750 c-1 -27 14 -58 24 -48 3 3 -1 21 -9 39 -13 31 -14 32 -15
9z"/>
<path d="M5753 3698 c-6 -7 -20 -34 -32 -60 -13 -27 -25 -48 -27 -48 -3 0 -16
7 -29 16 -52 34 -166 51 -185 29 -29 -35 -4 -45 150 -62 40 -4 61 -12 77 -29
12 -14 28 -21 37 -18 45 17 78 -54 35 -77 -18 -9 -29 -7 -59 10 -33 18 -39 19
-58 6 -29 -21 -38 -89 -18 -137 14 -34 15 -38 1 -38 -8 0 -15 -4 -15 -10 0 -5
8 -10 18 -10 18 0 52 -32 52 -49 0 -14 29 -41 43 -41 7 0 12 17 12 45 0 52 21
85 23 34 0 -17 8 -39 17 -48 8 -9 25 -29 37 -44 13 -18 27 -27 39 -24 14 4 17
-1 16 -21 -2 -23 4 -29 43 -42 25 -8 55 -21 67 -28 14 -8 24 -9 28 -2 3 5 28
10 56 10 27 0 49 4 49 10 0 5 10 14 21 21 17 8 29 8 58 -4 20 -9 48 -18 64
-21 30 -7 146 18 189 40 14 8 34 14 43 14 12 0 15 5 10 20 -8 26 -2 25 31 -5
31 -29 43 -25 78 28 28 41 32 57 15 57 -5 0 -19 20 -30 45 -21 48 -16 70 23
94 23 14 38 6 38 -21 0 -14 5 -18 16 -14 9 3 22 6 30 6 8 0 14 8 14 18 0 10 5
23 11 29 8 8 7 24 -5 59 -9 26 -16 57 -16 70 0 26 -31 40 -111 49 -51 6 -57 4
-62 -14 -3 -14 1 -22 14 -26 26 -9 79 -60 79 -78 0 -10 -8 -13 -25 -9 -15 2
-25 0 -25 -7 0 -7 -4 -9 -10 -6 -5 3 -10 -1 -10 -9 0 -9 -3 -16 -6 -16 -10 0
-94 94 -94 105 0 6 -9 18 -21 28 -12 11 -18 25 -15 35 5 14 -9 27 -58 55 -35
21 -73 46 -84 56 -40 34 -242 37 -242 4 0 -10 -7 -14 -20 -10 -11 3 -20 1 -20
-4 0 -5 -18 -9 -40 -9 -34 0 -42 -4 -50 -25 -12 -31 -35 -41 -55 -25 -13 10
-19 10 -33 -4 -10 -9 -26 -16 -35 -16 -17 0 -23 35 -19 103 2 29 -9 35 -25 15z
m-2 -348 c10 -6 19 -20 19 -30 0 -35 -28 -20 -43 23 -7 20 -3 21 24 7z"/>
<path d="M7400 3686 c-52 -25 -87 -47 -147 -92 -36 -27 -41 -34 -28 -44 9 -8
28 -9 54 -5 21 3 55 2 75 -3 21 -6 36 -7 36 -1 0 5 -9 9 -19 9 -11 0 -23 5
-26 10 -3 6 -1 10 4 10 6 0 11 7 11 15 0 8 20 37 45 65 25 28 45 53 45 55 0 6
3 7 -50 -19z"/>
<path d="M5650 3250 c0 -5 5 -10 11 -10 5 0 7 5 4 10 -3 6 -8 10 -11 10 -2 0
-4 -4 -4 -10z"/>
<path d="M6697 3213 c-4 -3 -7 -11 -7 -17 0 -6 5 -5 12 2 6 6 9 14 7 17 -3 3
-9 2 -12 -2z"/>
<path d="M6690 3150 c-8 -5 -11 -12 -8 -16 10 -9 38 3 38 16 0 12 -10 13 -30
0z"/>
<path d="M6537 3063 c-14 -13 -6 -23 19 -23 22 0 25 2 14 15 -14 16 -23 19
-33 8z"/>
<path d="M5997 3009 c-7 -26 3 -88 15 -95 6 -4 17 1 25 9 23 22 9 107 -16 107
-10 0 -21 -9 -24 -21z"/>
<path d="M6760 2740 c0 -5 9 -10 20 -10 11 0 20 5 20 10 0 6 -9 10 -20 10 -11
0 -20 -4 -20 -10z"/>
<path d="M6114 2685 c-4 -8 -10 -13 -14 -10 -5 3 -6 -4 -3 -15 3 -11 8 -20 12
-20 13 0 31 24 31 42 0 22 -18 24 -26 3z"/>
<path d="M4220 5100 c0 -5 5 -10 10 -10 6 0 10 5 10 10 0 6 -4 10 -10 10 -5 0
-10 -4 -10 -10z"/>
<path d="M4187 4980 c-24 -56 -21 -68 8 -40 15 14 25 35 25 52 0 39 -12 35
-33 -12z"/>
<path d="M2998 4983 c-9 -2 -19 -15 -22 -29 -7 -25 -16 -164 -20 -289 -1 -33
-8 -72 -15 -87 -11 -21 -11 -36 -2 -72 14 -55 14 -143 1 -151 -18 -11 14 -46
60 -67 25 -11 68 -31 95 -44 119 -56 187 -55 445 7 295 71 300 74 300 198 0
98 -15 191 -42 265 l-22 59 22 18 c29 23 28 39 -3 39 -14 0 -25 -5 -25 -11 0
-21 -60 0 -149 50 -108 62 -220 97 -351 111 -101 10 -239 12 -272 3z"/>
<path d="M3936 4886 c-32 -29 -33 -43 -4 -52 16 -5 27 0 44 20 13 14 27 26 32
26 5 0 15 7 22 15 11 13 7 15 -28 15 -29 0 -48 -7 -66 -24z"/>
<path d="M4320 4855 c0 -8 5 -15 10 -15 6 0 10 7 10 15 0 8 -4 15 -10 15 -5 0
-10 -7 -10 -15z"/>
<path d="M2105 4815 c-5 -1 -55 -13 -110 -26 -55 -12 -107 -28 -115 -34 -8 -7
-49 -29 -90 -51 -61 -31 -97 -60 -198 -163 -159 -162 -187 -217 -153 -298 30
-73 41 -125 43 -204 1 -55 -3 -75 -15 -83 -14 -11 -13 -14 4 -36 10 -14 19
-30 19 -37 0 -18 62 -28 170 -28 87 0 101 3 161 32 82 41 166 104 298 227 101
94 124 110 101 66 -6 -11 -8 -30 -5 -41 4 -12 1 -27 -8 -37 -20 -23 -38 -90
-26 -98 5 -3 9 -2 9 2 0 4 7 -1 15 -12 17 -23 19 -58 4 -85 -8 -16 -13 -18
-25 -8 -9 7 -14 8 -14 1 0 -6 5 -14 10 -17 6 -3 10 -17 10 -30 0 -13 5 -25 11
-27 20 -7 23 -92 4 -132 l-18 -37 42 -35 c22 -20 41 -44 41 -53 0 -10 9 -28
20 -41 11 -13 20 -29 20 -36 0 -7 12 -12 29 -12 15 1 39 -6 51 -15 23 -16 23
-16 -18 -23 -49 -8 -54 -20 -12 -29 17 -4 30 -11 30 -15 0 -5 -20 -21 -44 -35
-43 -25 -44 -27 -28 -46 17 -19 17 -19 25 4 8 25 44 47 77 47 11 0 20 7 20 15
0 8 21 28 48 46 26 18 62 46 80 63 31 29 37 31 90 27 175 -13 228 7 275 101
24 47 29 68 29 135 0 138 -47 226 -205 389 -98 102 -143 128 -245 140 -34 3
-62 10 -62 14 0 4 -28 -7 -62 -26 -35 -18 -70 -34 -79 -34 -19 0 -31 23 -23
45 11 27 -4 16 -26 -21 -28 -44 -35 -39 -15 10 11 26 16 69 16 135 l0 98 45
44 c25 24 55 62 66 84 11 22 34 55 51 72 38 41 28 54 -21 28 -28 -15 -44 -35
-67 -83 -19 -40 -35 -61 -45 -59 -8 1 -31 32 -50 68 -43 81 -76 123 -85 109
-9 -15 -25 -2 -25 20 0 20 -9 29 -25 25z m315 -1419 c0 -3 -4 -8 -10 -11 -5
-3 -10 -1 -10 4 0 6 5 11 10 11 6 0 10 -2 10 -4z"/>
<path d="M4028 4793 c-10 -2 -18 -9 -18 -15 0 -12 71 -108 80 -108 3 0 23 15
44 34 l40 33 -60 28 c-73 36 -66 33 -86 28z"/>
<path d="M2586 4759 c3 -5 13 -9 23 -9 10 0 35 -11 55 -25 20 -13 36 -20 36
-15 0 5 -11 17 -25 26 -28 18 -98 36 -89 23z"/>
<path d="M2720 4663 c0 -5 9 -18 20 -28 11 -10 20 -14 20 -8 0 5 -9 18 -20 28
-11 10 -20 14 -20 8z"/>
<path d="M4120 4616 c0 -9 5 -16 10 -16 6 0 10 4 10 9 0 6 -4 13 -10 16 -5 3
-10 -1 -10 -9z"/>
<path d="M2278 4484 c-5 -4 -8 -16 -8 -28 0 -14 3 -17 11 -9 6 6 9 19 7 28 -1
9 -6 13 -10 9z"/>
<path d="M2856 4472 c-7 -12 5 -52 15 -52 5 0 9 14 9 30 0 28 -13 40 -24 22z"/>
<path d="M4260 4410 c0 -5 5 -10 10 -10 6 0 10 5 10 10 0 6 -4 10 -10 10 -5 0
-10 -4 -10 -10z"/>
<path d="M3740 4180 c0 -5 5 -10 10 -10 6 0 10 5 10 10 0 6 -4 10 -10 10 -5 0
-10 -4 -10 -10z"/>
<path d="M3410 3963 c0 -7 7 -28 17 -47 16 -34 33 -40 33 -11 0 17 -49 75 -50
58z"/>
<path d="M3745 3780 c-3 -5 -1 -10 4 -10 6 0 11 5 11 10 0 6 -2 10 -4 10 -3 0
-8 -4 -11 -10z"/>
<path d="M1768 3695 c-23 -13 -28 -22 -28 -55 l0 -40 51 0 c48 0 51 1 66 37
10 25 12 42 6 53 -13 21 -62 23 -95 5z"/>
<path d="M2291 3434 c0 -11 3 -14 6 -6 3 7 2 16 -1 19 -3 4 -6 -2 -5 -13z"/>
<path d="M2482 3284 c-39 -20 -47 -31 -32 -48 15 -19 26 -13 46 26 18 36 17
39 -14 22z"/>
<path d="M3040 2944 c0 -12 21 -44 29 -44 5 0 6 11 3 25 -2 14 -11 25 -18 25
-8 0 -14 -3 -14 -6z"/>
<path d="M2500 2825 c-10 -13 -9 -15 9 -15 12 0 21 6 21 15 0 8 -4 15 -9 15
-5 0 -14 -7 -21 -15z"/>
<path d="M8915 5420 c-3 -5 1 -10 9 -10 8 0 18 5 21 10 3 6 -1 10 -9 10 -8 0
-18 -4 -21 -10z"/>
<path d="M9254 5229 c-187 -24 -461 -171 -480 -257 -3 -15 -12 -45 -19 -67
-58 -177 -59 -213 -11 -261 19 -19 41 -34 51 -34 9 0 40 -11 69 -24 30 -14 93
-37 142 -52 79 -24 99 -26 184 -21 101 6 154 21 283 82 50 23 81 44 86 58 5
12 23 60 41 107 17 47 45 104 61 128 l30 42 -25 0 c-24 0 -26 3 -26 44 0 23
-3 71 -6 105 -6 56 -11 67 -53 111 l-47 50 -110 -1 c-60 -1 -137 -5 -170 -10z"/>
<path d="M10494 5050 c-23 -15 -41 -42 -65 -98 -18 -42 -40 -88 -49 -102 -9
-14 -21 -38 -28 -54 -11 -24 -15 -26 -29 -15 -14 12 -15 11 -7 -11 4 -14 8
-59 9 -100 0 -69 3 -79 34 -125 43 -62 145 -163 207 -204 76 -50 141 -69 300
-86 82 -8 169 -20 193 -25 57 -14 68 -3 70 63 1 66 9 296 10 320 1 11 9 17 25
17 27 0 41 14 31 30 -3 6 -15 5 -30 -2 -22 -10 -29 -8 -51 13 -15 13 -35 43
-46 66 -19 44 -135 143 -245 208 -66 41 -257 125 -281 125 -9 0 -31 -9 -48
-20z"/>
<path d="M9885 5039 c-45 -23 -81 -64 -65 -74 6 -3 34 16 63 44 28 28 50 51
47 51 -3 0 -23 -10 -45 -21z"/>
<path d="M9667 4824 c-3 -11 -8 -31 -11 -46 -4 -16 -11 -28 -16 -28 -5 0 -7
-7 -4 -15 4 -10 -3 -18 -20 -25 -24 -9 -35 -38 -20 -53 10 -10 52 23 74 58 21
34 26 90 11 114 -7 11 -10 10 -14 -5z"/>
<path d="M9995 4671 c-99 -44 -148 -78 -188 -129 -28 -37 -46 -52 -72 -56 -32
-6 -37 -14 -78 -99 -90 -191 -87 -180 -87 -284 0 -53 6 -112 13 -132 25 -73
164 -165 179 -120 2 7 21 14 42 16 21 2 56 13 77 23 21 11 48 20 60 20 29 0
116 -56 155 -99 35 -39 64 -38 64 3 0 21 6 26 34 32 49 9 111 85 136 166 44
145 48 177 30 258 -9 41 -23 91 -32 110 -10 19 -28 76 -42 125 -36 125 -63
149 -221 190 -5 2 -37 -9 -70 -24z m226 -554 c-13 -13 -26 -3 -16 12 3 6 11 8
17 5 6 -4 6 -10 -1 -17z"/>
<path d="M8556 4594 c-4 -10 -1 -14 6 -12 15 5 23 28 10 28 -5 0 -13 -7 -16
-16z"/>
<path d="M8780 4500 c0 -5 5 -10 11 -10 5 0 7 5 4 10 -3 6 -8 10 -11 10 -2 0
-4 -4 -4 -10z"/>
<path d="M8820 4485 c14 -16 40 -20 40 -6 0 9 -24 21 -42 21 -6 0 -6 -6 2 -15z"/>
<path d="M8830 4400 c0 -5 5 -10 11 -10 5 0 7 5 4 10 -3 6 -8 10 -11 10 -2 0
-4 -4 -4 -10z"/>
<path d="M9493 4389 l-28 -19 31 0 c16 0 38 6 49 13 17 13 17 14 -3 19 -11 3
-33 -3 -49 -13z"/>
<path d="M9620 4390 c0 -5 5 -10 10 -10 6 0 10 5 10 10 0 6 -4 10 -10 10 -5 0
-10 -4 -10 -10z"/>
<path d="M9122 4320 c-46 -33 -51 -46 -24 -66 28 -22 49 -16 78 22 21 27 25
40 18 52 -17 25 -28 24 -72 -8z"/>
<path d="M10740 4018 c0 -42 13 -63 34 -55 20 8 20 36 0 65 -22 31 -34 27 -34
-10z"/>
<path d="M9160 3910 c12 -8 12 -10 -3 -16 -24 -9 -21 -24 5 -24 12 0 30 -7 40
-17 23 -21 31 -13 19 19 -7 18 -6 29 2 39 7 7 0 5 -15 -4 -22 -14 -27 -14 -32
-2 -3 8 -11 15 -18 15 -9 0 -9 -3 2 -10z"/>
<path d="M9622 3839 c2 -6 8 -10 13 -10 5 0 11 4 13 10 2 6 -4 11 -13 11 -9 0
-15 -5 -13 -11z"/>
<path d="M9156 3798 c-19 -27 -20 -48 -3 -72 12 -16 14 -16 31 2 19 22 19 83
-1 89 -6 2 -18 -6 -27 -19z"/>
<path d="M10572 3730 c0 -14 2 -19 5 -12 2 6 2 18 0 25 -3 6 -5 1 -5 -13z"/>
<path d="M10606 3654 c-4 -9 -4 -19 -2 -21 8 -8 26 8 26 23 0 19 -16 18 -24
-2z"/>
<path d="M10310 3620 c0 -5 7 -10 15 -10 8 0 18 0 22 -1 4 0 9 4 11 10 2 6 -8
11 -22 11 -14 0 -26 -4 -26 -10z"/>
<path d="M9237 3597 c-11 -29 -9 -53 4 -40 6 6 9 21 7 34 -3 21 -4 22 -11 6z"/>
<path d="M9776 3541 c-17 -18 -17 -21 -3 -27 27 -10 52 0 52 21 0 27 -27 30
-49 6z"/>
<path d="M10170 3314 c0 -8 -4 -12 -10 -9 -6 4 -10 -6 -10 -23 0 -21 6 -31 20
-35 26 -7 32 5 24 48 -6 35 -24 49 -24 19z"/>
<path d="M10322 3273 c6 -27 15 -52 20 -58 7 -7 8 -3 5 10 -3 11 -9 37 -13 58
-3 20 -10 37 -14 37 -4 0 -3 -21 2 -47z"/>
<path d="M10300 3276 c0 -8 4 -17 9 -20 5 -4 7 3 4 14 -6 23 -13 26 -13 6z"/>
</g>
</svg>
