<?xml version="1.0" standalone="no"?>
<svg version="1.0" xmlns="http://www.w3.org/2000/svg"
 width="1280.000000pt" height="1273.000000pt" viewBox="0 0 1280.000000 1273.000000"
 preserveAspectRatio="xMidYMid meet">
<g transform="translate(0.000000,1273.000000) scale(0.100000,-0.100000)"
fill="#000000" stroke="none">
<path d="M6412 12719 c-65 -19 -90 -111 -57 -204 8 -22 15 -52 15 -66 0 -15
12 -37 30 -54 33 -31 38 -56 16 -77 -10 -11 -11 -19 -4 -33 8 -13 7 -16 -1
-11 -7 4 -19 2 -27 -5 -12 -10 -17 -8 -29 7 -13 16 -16 17 -24 4 -8 -11 -27
-14 -80 -12 -45 1 -72 -2 -77 -10 -5 -8 -2 -9 10 -5 26 10 38 -2 20 -20 -13
-14 -17 -14 -30 -1 -13 13 -27 12 -117 -9 -56 -13 -148 -26 -204 -30 -57 -3
-103 -9 -103 -12 0 -3 -33 -7 -73 -8 -39 -2 -103 -7 -142 -13 -38 -6 -88 -12
-110 -14 -22 -2 -53 -8 -70 -11 -62 -15 -280 -88 -290 -96 -15 -14 2 -11 125
26 62 19 116 33 118 30 2 -2 -8 -20 -22 -41 -38 -57 -20 -56 29 1 24 28 52 51
62 53 101 17 275 24 342 15 45 -7 77 -8 79 -2 6 15 121 46 220 59 75 10 97 10
116 0 13 -7 30 -10 37 -8 21 7 91 -63 86 -84 -3 -10 -1 -18 4 -18 5 0 9 5 9
11 0 5 5 7 11 3 8 -4 7 -9 -2 -14 -10 -7 -10 -12 0 -23 8 -10 9 -17 1 -22 -5
-3 -10 0 -10 8 0 8 -6 17 -14 20 -11 4 -13 -3 -10 -36 2 -22 8 -45 13 -50 6
-6 5 -17 -2 -29 -9 -14 -9 -20 0 -26 6 -4 11 -21 11 -37 -2 -87 0 -93 30 -86
28 6 83 60 95 93 7 19 47 44 47 30 0 -5 -10 -17 -22 -25 -19 -13 -20 -16 -5
-16 21 -1 23 -19 2 -27 -19 -8 -19 -24 0 -24 23 0 6 -30 -19 -31 -20 -1 -20
-1 2 -7 29 -9 31 -24 3 -38 -22 -12 -18 -26 5 -17 8 3 14 1 14 -3 0 -14 -14
-31 -30 -37 -10 -4 -8 -6 7 -6 16 -1 21 -6 17 -16 -8 -20 -21 -19 -46 5 -47
44 -106 9 -94 -55 4 -19 16 -41 26 -48 21 -12 28 -47 10 -47 -6 0 -15 -12 -20
-26 -9 -22 -13 -24 -25 -14 -23 19 -39 -32 -21 -68 24 -47 36 -153 35 -302 -2
-183 0 -221 10 -350 l8 -105 3 80 3 80 9 -80 c5 -44 6 -134 3 -200 -4 -66 -6
-140 -5 -164 0 -24 -5 -51 -13 -60 -15 -18 -47 -99 -47 -119 0 -7 5 -10 10 -7
6 3 10 0 11 -7 0 -7 4 -4 9 7 8 18 9 18 10 -5 l2 -25 8 25 8 25 1 -25 2 -25
15 25 c15 24 15 24 10 2 -3 -15 0 -22 7 -19 15 5 27 243 16 302 -15 75 -10
327 7 404 14 63 15 74 2 89 -8 9 -18 26 -22 37 -13 35 -36 409 -28 440 11 38
25 38 32 0 3 -18 15 -34 29 -42 21 -10 29 -9 53 8 15 11 28 25 28 30 0 5 12
-5 28 -21 36 -41 70 -31 87 26 l12 39 13 -28 c11 -23 11 -50 1 -155 -26 -267
-31 -296 -52 -325 -17 -23 -19 -35 -12 -75 11 -68 9 -378 -3 -437 -15 -68 -4
-280 15 -297 11 -11 13 -8 7 17 l-6 30 15 -25 c16 -24 16 -23 11 30 -3 37 -2
47 4 30 4 -14 9 -38 10 -55 2 -30 2 -30 10 -5 7 21 8 22 10 5 1 -11 4 -15 7
-7 2 6 9 10 14 6 17 -10 9 29 -20 90 -29 63 -45 119 -30 110 5 -3 8 10 7 28
-1 18 1 85 4 148 3 63 3 93 -2 65 l-7 -50 -1 55 c0 30 3 78 8 105 l7 50 3 -55
3 -55 8 70 c16 127 19 168 23 345 4 176 14 246 43 307 20 43 11 87 -17 78 -15
-5 -22 0 -29 18 -5 14 -16 27 -23 29 -9 3 -5 12 12 29 43 41 51 71 29 108 -22
36 -41 39 -87 11 -39 -24 -38 -24 -46 -4 -4 12 -2 15 9 11 8 -4 17 -2 20 3 4
6 0 10 -8 10 -8 0 -18 7 -21 16 -9 22 -8 23 14 17 11 -3 20 0 20 6 0 6 -6 11
-14 11 -7 0 -19 7 -26 15 -10 13 -9 15 8 15 12 0 24 5 27 10 3 6 -3 10 -13 10
-11 0 -22 7 -26 15 -3 9 0 15 9 15 19 0 19 16 0 24 -21 8 -19 26 3 26 14 0 15
2 2 10 -8 5 -15 23 -15 40 -1 32 9 40 19 15 3 -8 0 -15 -6 -15 -6 0 1 -11 16
-25 14 -13 26 -28 26 -32 0 -18 71 -83 90 -83 12 0 19 4 16 8 -3 4 -1 26 4 48
6 24 5 40 0 42 -5 2 -2 15 8 29 13 20 14 27 4 31 -9 3 -10 7 -2 17 16 20 22
89 10 121 -10 25 -8 31 12 47 13 10 31 24 40 32 10 8 25 12 33 9 8 -4 22 -1
30 6 29 24 273 -22 328 -61 19 -14 32 -17 40 -11 16 13 320 6 346 -8 11 -5 28
-10 38 -10 10 0 39 -23 65 -52 52 -59 71 -62 32 -4 -14 21 -24 39 -22 41 3 4
136 -36 201 -61 20 -7 37 -10 37 -5 0 8 -96 46 -226 90 -60 20 -180 41 -354
62 -47 6 -92 13 -100 16 -8 3 -31 5 -51 4 -67 -4 -315 49 -358 77 -17 10 -45
14 -87 13 -44 -1 -66 2 -77 13 -13 14 -16 14 -27 1 -9 -11 -16 -12 -26 -4 -7
6 -19 7 -25 3 -8 -4 -9 -3 -5 5 4 6 2 26 -5 44 -11 31 -10 34 25 69 21 21 36
46 36 60 0 12 7 41 15 63 19 55 19 135 -1 164 -32 45 -114 62 -192 40z m153
-469 c3 -5 -1 -10 -9 -10 -8 0 -18 5 -21 10 -3 6 1 10 9 10 8 0 18 -4 21 -10z
m211 -11 c9 -16 -18 -30 -33 -17 -7 6 -13 14 -13 19 0 13 38 11 46 -2z m-359
-15 c-3 -3 -12 -4 -19 -1 -8 3 -5 6 6 6 11 1 17 -2 13 -5z m140 0 c-3 -3 -12
-4 -19 -1 -8 3 -5 6 6 6 11 1 17 -2 13 -5z m-167 -34 c0 -5 -4 -10 -10 -10 -5
0 -10 5 -10 10 0 6 5 10 10 10 6 0 10 -4 10 -10z m180 -9 c0 -19 -29 -33 -47
-22 -16 9 -14 10 10 11 16 0 26 4 22 10 -3 6 -1 10 4 10 6 0 11 -4 11 -9z
m-142 -18 c-10 -2 -26 -2 -35 0 -10 3 -2 5 17 5 19 0 27 -2 18 -5z m12 -30 c0
-5 -17 -9 -38 -10 -27 -2 -33 0 -22 7 18 11 60 13 60 3z m120 -3 c20 -7 17 -8
-17 -7 -22 1 -39 5 -36 10 5 9 20 8 53 -3z m-154 -46 c-38 -14 -61 -11 -51 7
4 5 25 9 48 8 l42 0 -39 -15z m174 6 c8 -5 11 -12 8 -16 -10 -9 -58 4 -58 16
0 13 30 13 50 0z m90 -20 c0 -5 -2 -10 -4 -10 -3 0 -8 5 -11 10 -3 6 -1 10 4
10 6 0 11 -4 11 -10z m-320 -18 c8 1 26 0 40 -1 24 -3 24 -3 -7 -17 -34 -14
-68 -9 -56 9 4 6 0 8 -10 4 -9 -3 -19 -2 -21 2 -9 14 6 21 23 11 9 -4 23 -8
31 -8z m300 -2 c0 -5 -6 -10 -14 -10 -8 0 -18 5 -21 10 -3 6 3 10 14 10 12 0
21 -4 21 -10z m-46 -6 c9 -3 16 -10 16 -15 0 -14 -42 -10 -70 6 l-25 14 32 1
c17 0 38 -3 47 -6z m66 -22 c-8 -3 -20 -12 -26 -20 -6 -9 -16 -12 -23 -7 -15
9 38 46 54 37 5 -3 2 -8 -5 -10z m-353 -18 c-9 -9 -28 6 -21 18 4 6 10 6 17
-1 6 -6 8 -13 4 -17z m59 -13 c-9 -8 -22 -11 -32 -7 -22 8 -6 22 26 22 17 0
18 -2 6 -15z m229 -1 c11 -17 -25 -18 -46 -1 l-23 18 32 -5 c18 -2 34 -8 37
-12z m75 -9 c-10 -20 -30 -29 -30 -14 0 8 34 41 38 38 2 -2 -1 -13 -8 -24z
m-393 -7 c-9 -9 -28 6 -21 18 4 6 10 6 17 -1 6 -6 8 -13 4 -17z m129 11 c-11
-8 -25 -15 -30 -15 -6 0 -2 7 8 15 11 8 25 15 30 15 6 0 2 -7 -8 -15z m-91
-25 c-3 -5 -10 -10 -16 -10 -5 0 -9 5 -9 10 0 6 7 10 16 10 8 0 12 -4 9 -10z
m312 -16 c-9 -9 -28 6 -21 18 4 6 10 6 17 -1 6 -6 8 -13 4 -17z m-252 6 c-3
-5 -15 -10 -26 -10 -11 0 -17 5 -14 10 3 6 15 10 26 10 11 0 17 -4 14 -10z
m189 4 c17 -6 22 -24 8 -24 -5 0 -17 7 -28 15 -19 15 -8 20 20 9z m-279 -24
c-3 -5 -10 -10 -16 -10 -5 0 -9 5 -9 10 0 6 7 10 16 10 8 0 12 -4 9 -10z m100
-20 c-10 -11 -27 -20 -37 -20 -24 0 -14 18 16 30 34 14 40 11 21 -10z m190
-10 c3 -6 -1 -10 -9 -10 -8 0 -20 9 -26 21 -11 19 -10 20 9 10 11 -6 23 -16
26 -21z m75 20 c0 -5 -2 -10 -4 -10 -3 0 -8 5 -11 10 -3 6 -1 10 4 10 6 0 11
-4 11 -10z m-330 -15 c-7 -8 -16 -12 -21 -9 -13 8 -1 24 18 24 13 0 13 -3 3
-15z m298 -4 c3 -8 -1 -12 -9 -9 -7 2 -15 10 -17 17 -3 8 1 12 9 9 7 -2 15
-10 17 -17z m-336 -33 c-7 -7 -12 -8 -12 -2 0 14 12 26 19 19 2 -3 -1 -11 -7
-17z m368 -9 c0 -5 -4 -9 -10 -9 -5 0 -10 7 -10 16 0 8 5 12 10 9 6 -3 10 -10
10 -16z m-312 -1 c-5 -15 -48 -24 -48 -10 0 14 12 22 33 22 10 0 17 -5 15 -12z
m280 -6 c2 -7 -1 -12 -6 -12 -18 0 -42 12 -42 21 0 13 43 4 48 -9z m-303 -32
c-3 -5 -15 -10 -26 -10 -10 0 -19 5 -19 10 0 6 12 10 26 10 14 0 23 -4 19 -10z
m325 -10 c0 -13 -11 -13 -30 0 -12 8 -11 10 8 10 12 0 22 -4 22 -10z m-225
-277 c13 -16 25 -34 25 -40 0 -15 20 -18 20 -4 0 12 49 71 60 71 10 0 19 -46
11 -57 -3 -5 -22 -18 -41 -29 l-35 -21 -40 23 c-31 17 -41 29 -43 53 -4 39 11
40 43 4z m6 -86 c-1 -4 -1 -11 -1 -17 0 -5 -11 -10 -25 -10 -18 0 -25 5 -25
18 0 10 3 21 6 25 7 7 46 -6 45 -16z m109 -7 c0 -21 -33 -29 -45 -10 -9 15 4
30 26 30 12 0 19 -7 19 -20z m37 -947 c-2 -16 -4 -5 -4 22 0 28 2 40 4 28 2
-13 2 -35 0 -50z m-260 -270 c-3 -10 -5 -4 -5 12 0 17 2 24 5 18 2 -7 2 -21 0
-30z m20 0 c-3 -10 -5 -4 -5 12 0 17 2 24 5 18 2 -7 2 -21 0 -30z m220 0 c-3
-10 -5 -4 -5 12 0 17 2 24 5 18 2 -7 2 -21 0 -30z"/>
<path d="M3482 12034 c-57 -28 -92 -69 -92 -106 1 -36 34 -101 72 -139 19 -19
40 -44 47 -56 6 -13 29 -28 52 -35 28 -8 44 -20 50 -36 5 -14 7 -27 5 -30 -3
-2 -1 -14 5 -25 8 -14 8 -18 0 -13 -6 4 -14 0 -17 -8 -4 -11 -14 -14 -29 -10
-17 4 -24 0 -28 -15 -3 -13 -25 -29 -60 -45 -30 -13 -58 -29 -62 -36 -6 -9 -3
-9 15 0 26 14 33 9 24 -14 -4 -11 -15 -16 -29 -14 -15 2 -41 -14 -81 -48 -80
-69 -213 -164 -230 -164 -8 0 -22 -8 -32 -17 -10 -10 -63 -48 -117 -85 -55
-36 -127 -85 -160 -108 -69 -48 -281 -257 -271 -267 3 -3 44 32 91 78 47 46
89 85 94 87 4 1 7 -21 5 -50 -4 -53 -4 -53 11 -23 8 17 14 42 15 57 0 16 13
40 33 61 40 42 245 160 311 178 32 9 51 21 56 35 20 51 233 211 269 201 11 -3
25 1 31 8 17 21 97 -3 121 -37 11 -15 16 -28 10 -28 -5 0 0 -18 11 -40 12 -22
28 -40 35 -40 8 0 11 -4 8 -10 -7 -11 7 -41 21 -43 5 -1 8 -8 8 -14 -1 -7 1
-13 5 -13 4 0 17 -18 30 -40 12 -22 25 -40 27 -40 3 0 3 4 -1 9 -3 5 3 12 14
16 24 7 30 23 38 97 3 32 12 63 19 69 18 15 19 -11 2 -30 -11 -11 -9 -12 10
-6 24 7 28 -1 12 -25 -7 -11 -4 -16 12 -20 20 -5 20 -7 5 -22 -24 -23 -21 -29
8 -22 22 5 24 3 18 -12 -3 -11 -11 -22 -17 -26 -6 -4 -7 -10 -3 -14 3 -4 13
-1 22 6 22 19 26 8 10 -24 -14 -27 -14 -28 4 -23 11 3 22 -1 25 -8 7 -19 -13
-24 -45 -11 -38 14 -79 -14 -79 -54 0 -30 35 -64 75 -71 17 -4 20 -12 20 -49
-1 -37 -4 -44 -18 -42 -35 6 -17 -40 41 -103 62 -68 176 -258 200 -333 8 -26
23 -56 32 -67 22 -25 210 -335 240 -395 13 -24 32 -57 43 -71 12 -17 18 -36
14 -51 -7 -31 6 -119 17 -117 5 0 13 -5 17 -13 7 -10 9 -8 10 7 l0 20 9 -20
c7 -15 9 -16 9 -4 1 9 -6 33 -15 54 -8 20 -13 39 -11 42 3 2 13 -16 22 -42 19
-49 37 -70 28 -33 -5 23 -5 23 10 3 34 -42 18 18 -28 109 -25 49 -45 93 -45
97 0 5 -18 32 -40 61 -56 74 -167 294 -181 357 -6 29 -20 61 -31 70 -69 58
-117 126 -245 350 -29 50 -43 101 -28 101 3 0 17 -12 29 -27 21 -24 27 -26 52
-18 19 7 31 20 37 41 9 30 10 31 43 21 28 -9 37 -7 55 8 19 18 20 29 4 68 -12
28 20 21 40 -9 20 -30 104 -232 141 -339 16 -43 22 -79 19 -96 -7 -29 9 -61
54 -109 31 -33 145 -269 167 -345 9 -33 20 -62 24 -65 7 -4 29 -44 82 -144 25
-49 44 -61 63 -43 8 9 11 18 6 21 -5 4 -11 1 -13 -6 -2 -6 -14 5 -27 25 -26
42 -20 68 10 41 10 -9 19 -13 19 -9 0 5 12 -2 27 -16 14 -13 23 -18 19 -11 -4
7 -2 12 5 12 7 0 -7 20 -31 45 -24 25 -49 45 -56 45 -6 0 -24 17 -40 37 -15
20 -22 33 -16 29 17 -10 15 -4 -12 45 -14 24 -55 118 -91 209 -36 91 -71 176
-77 190 -7 14 -13 32 -13 40 -1 8 -18 40 -37 70 -49 77 -128 262 -140 329 -6
31 -12 66 -14 78 -2 12 -12 29 -21 38 -16 16 -18 16 -30 -1 -13 -18 -15 -18
-24 -1 -6 9 -19 17 -29 17 -21 0 -27 29 -10 46 5 5 7 27 3 47 -12 77 -89 84
-119 11 -12 -29 -18 -34 -27 -24 -9 10 -9 14 1 17 6 3 12 9 12 15 0 6 -6 8
-14 5 -8 -3 -20 0 -26 8 -8 10 -7 16 6 23 13 7 10 10 -17 16 -31 6 -32 8 -16
20 21 16 22 30 1 22 -22 -9 -37 3 -24 19 8 9 5 14 -11 18 -19 5 -20 8 -9 21
10 14 9 16 -8 16 -12 0 -24 5 -27 10 -12 19 39 10 100 -19 60 -29 112 -32 101
-7 -3 6 -10 28 -17 49 -7 20 -16 37 -22 37 -5 0 -7 7 -3 15 7 19 -3 47 -15 39
-5 -3 -8 5 -6 17 1 12 -4 24 -11 26 -7 3 -10 -1 -6 -11 4 -11 1 -16 -10 -16
-13 0 -14 4 -4 25 6 13 14 22 19 20 13 -9 -20 52 -36 65 -19 16 -19 31 2 80
11 24 24 40 35 40 9 0 19 9 23 19 11 35 256 109 322 96 18 -3 33 -2 33 4 0 25
273 161 325 161 13 0 26 4 30 9 6 10 58 -2 78 -17 7 -5 25 -12 41 -16 25 -6
28 -5 17 7 -6 8 -25 20 -41 27 -17 7 -30 15 -30 19 0 7 181 41 217 41 12 0 25
5 28 10 3 6 2 10 -2 10 -29 0 -245 -32 -277 -41 -22 -6 -46 -12 -55 -14 -27
-6 -243 -82 -293 -103 -25 -11 -49 -18 -52 -15 -3 3 -20 -4 -39 -16 -53 -32
-161 -67 -328 -105 -15 -3 -29 -15 -32 -25 -3 -14 -11 -18 -26 -14 -24 6 -29
23 -7 23 8 0 18 5 21 10 12 19 -22 10 -61 -17 -21 -14 -55 -27 -74 -28 -21 -2
-36 -8 -38 -17 -3 -17 -52 -13 -52 4 0 5 -4 7 -10 3 -5 -3 -15 6 -23 21 -12
23 -12 31 1 57 12 25 13 38 2 86 -30 136 -54 184 -102 200 -45 16 -58 14 -116
-15z m288 -394 c-20 -13 -33 -13 -25 0 3 6 14 10 23 10 15 0 15 -2 2 -10z m0
-25 c-7 -9 -15 -13 -19 -10 -3 3 1 10 9 15 21 14 24 12 10 -5z m40 -25 c0 -5
-5 -10 -11 -10 -5 0 -7 5 -4 10 3 6 8 10 11 10 2 0 4 -4 4 -10z m-175 -20 c-3
-5 2 -10 11 -10 10 0 15 -3 11 -6 -9 -9 -48 6 -42 17 4 5 11 9 16 9 6 0 7 -4
4 -10z m170 -10 c-3 -5 -13 -10 -21 -10 -8 0 -12 5 -9 10 3 6 13 10 21 10 8 0
12 -4 9 -10z m30 -29 c-6 -4 -23 -11 -40 -15 -28 -6 -29 -5 -11 9 21 16 67 22
51 6z m-182 -23 c4 -10 7 -10 18 0 18 17 34 15 19 -3 -15 -18 -60 -16 -60 2 0
17 17 17 23 1z m222 -7 c-7 -12 -55 -20 -60 -11 -3 5 7 13 22 18 29 10 47 6
38 -7z m70 9 c3 -6 -1 -13 -10 -16 -19 -8 -30 0 -20 15 8 14 22 14 30 1z m30
-10 c3 -5 1 -10 -4 -10 -6 0 -11 5 -11 10 0 6 2 10 4 10 3 0 8 -4 11 -10z
m-273 -30 c-12 -11 -27 -20 -34 -20 -7 0 -2 9 12 20 33 26 50 26 22 0z m218
-5 c-7 -8 -28 -15 -49 -15 -34 1 -35 2 -17 15 11 8 33 15 49 15 25 0 28 -2 17
-15z m40 0 c0 -8 -7 -15 -15 -15 -9 0 -12 6 -9 15 4 8 10 15 15 15 5 0 9 -7 9
-15z m-252 -37 c-6 -16 -36 -34 -44 -25 -9 9 15 37 33 37 8 0 13 -5 11 -12z
m220 0 c-3 -7 -18 -14 -34 -16 -28 -2 -28 -2 -10 13 24 18 49 20 44 3z m43
-21 c-13 -13 -26 -3 -16 12 3 6 11 8 17 5 6 -4 6 -10 -1 -17z m44 -7 c3 -5 -1
-10 -9 -10 -9 0 -16 5 -16 10 0 6 4 10 9 10 6 0 13 -4 16 -10z m-300 -24 c-15
-23 -43 -41 -52 -33 -8 9 9 35 30 45 34 17 39 14 22 -12z m220 4 c-3 -5 -15
-10 -26 -10 -11 0 -17 5 -14 10 3 6 15 10 26 10 11 0 17 -4 14 -10z m58 -6
c11 -11 -3 -24 -18 -18 -8 4 -12 10 -9 15 6 11 18 12 27 3z m-348 -23 c-3 -6
-11 -8 -17 -5 -6 4 -5 9 3 15 16 10 23 4 14 -10z m115 -16 c-10 -13 -15 -13
-21 -3 -6 9 -10 8 -15 -5 -6 -18 -34 -24 -34 -7 0 13 38 32 50 25 5 -3 12 0
15 6 4 5 9 8 12 5 3 -3 0 -13 -7 -21z m130 4 c0 -4 -7 -6 -15 -3 -8 4 -15 10
-15 15 0 4 7 6 15 3 8 -4 15 -10 15 -15z m63 11 c8 0 8 -3 1 -10 -12 -12 -44
-3 -44 12 0 6 7 7 16 4 9 -3 21 -6 27 -6z m85 -8 c2 -7 -2 -10 -12 -6 -9 3
-16 11 -16 16 0 13 23 5 28 -10z m-413 -11 c3 -5 1 -12 -5 -16 -5 -3 -10 1
-10 9 0 18 6 21 15 7z m50 -11 c-3 -5 -13 -10 -21 -10 -8 0 -14 5 -14 10 0 6
9 10 21 10 11 0 17 -4 14 -10z m360 -6 c26 -17 25 -34 -2 -34 -10 0 -13 6 -9
16 5 12 2 15 -10 10 -9 -4 -26 -3 -38 0 -21 7 -21 7 -1 15 29 11 33 11 60 -7z
m-285 -24 c-6 -11 -15 -20 -20 -20 -16 0 -11 18 8 29 24 14 24 14 12 -9z m-95
-10 c-3 -5 -10 -10 -16 -10 -5 0 -9 5 -9 10 0 6 7 10 16 10 8 0 12 -4 9 -10z
m45 1 c0 -12 -20 -25 -27 -18 -7 7 6 27 18 27 5 0 9 -4 9 -9z m66 -39 c-24
-24 -31 -6 -10 25 16 24 19 26 22 9 2 -10 -3 -25 -12 -34z m-86 -8 c0 -8 -5
-12 -10 -9 -6 4 -8 11 -5 16 9 14 15 11 15 -7z m44 1 c-6 -16 -24 -21 -24 -7
0 11 11 22 21 22 5 0 6 -7 3 -15z m36 -45 c-6 -11 -17 -20 -25 -20 -19 0 -19
5 1 24 22 23 37 20 24 -4z m-53 -12 c-3 -8 -6 -5 -6 6 -1 11 2 17 5 13 3 -3 4
-12 1 -19z m53 -28 c0 -13 -28 -25 -38 -16 -3 4 0 11 8 16 20 13 30 12 30 0z
m332 -155 c10 -22 8 -30 -10 -55 -12 -16 -22 -33 -22 -37 0 -11 -92 -3 -107 9
-7 6 -13 19 -13 29 0 16 5 18 28 13 15 -4 34 -13 43 -20 23 -21 26 -18 33 36
8 56 29 67 48 25z m38 -85 c0 -24 -25 -33 -41 -13 -11 13 -10 17 5 29 22 16
36 10 36 -16z m-100 -50 c0 -11 -2 -20 -4 -20 -2 0 -11 -3 -19 -6 -15 -5 -31
21 -21 37 11 18 44 10 44 -11z m511 -618 c22 -52 37 -97 35 -99 -4 -5 -96 210
-96 223 1 16 21 -26 61 -124z m-257 -107 c79 -134 110 -191 99 -180 -12 12
-156 250 -172 285 -12 24 -12 24 4 5 9 -11 40 -60 69 -110z m325 -60 c0 -5 -6
1 -14 15 -8 14 -14 30 -14 35 0 6 6 -1 14 -15 8 -14 14 -29 14 -35z m-89 -339
c0 -12 -5 -7 -19 24 -11 24 -11 24 3 6 9 -11 16 -24 16 -30z"/>
<path d="M7884 11992 c3 -5 59 -19 126 -32 66 -13 120 -26 120 -29 0 -4 -16
-15 -35 -25 -19 -11 -35 -22 -35 -26 0 -12 54 1 72 17 29 26 109 7 242 -58 67
-32 136 -72 154 -88 24 -23 39 -30 56 -25 53 13 310 -72 321 -107 6 -17 11
-20 32 -18 4 0 15 -23 26 -51 17 -47 18 -53 3 -69 -9 -10 -13 -21 -9 -25 5 -4
1 -6 -7 -4 -10 2 -15 -5 -16 -22 0 -15 -5 -24 -13 -22 -8 2 -11 -7 -9 -25 2
-18 -2 -27 -10 -26 -11 3 -17 -17 -13 -41 1 -5 -2 -12 -6 -15 -5 -3 -16 -24
-24 -47 -15 -39 -15 -42 3 -53 16 -10 29 -9 66 5 26 10 54 23 63 31 8 7 26 13
40 12 l24 0 -25 -12 c-35 -15 -36 -17 -21 -26 10 -7 9 -10 -8 -16 -23 -7 -29
-25 -8 -25 8 0 7 -4 -3 -10 -8 -5 -23 -7 -32 -4 -22 7 -24 -12 -2 -20 23 -9 7
-26 -24 -26 l-27 -1 24 -13 c22 -12 22 -14 5 -21 -11 -5 -26 -7 -34 -6 -12 1
-11 -2 3 -12 15 -13 15 -16 3 -27 -13 -10 -18 -6 -30 24 -20 48 -55 64 -89 42
-26 -18 -41 -78 -24 -95 14 -14 4 -44 -17 -47 -10 -1 -22 -8 -27 -15 -6 -10
-11 -10 -24 1 -15 13 -20 11 -36 -9 -11 -13 -19 -36 -19 -51 0 -58 -115 -322
-174 -399 -14 -19 -26 -39 -26 -45 0 -5 -9 -28 -19 -50 -11 -23 -45 -99 -76
-171 -31 -71 -72 -159 -90 -195 -17 -36 -37 -78 -43 -93 -7 -15 -20 -30 -29
-34 -28 -10 -63 -45 -56 -56 3 -6 1 -7 -4 -4 -6 4 -18 -2 -28 -13 -11 -13 -14
-20 -6 -20 7 0 9 -5 5 -12 -4 -7 7 0 24 16 18 17 32 26 32 22 0 -5 8 -2 17 5
9 8 4 -5 -12 -29 -15 -23 -30 -40 -33 -37 -3 2 1 11 8 20 7 9 11 18 8 21 -3 2
-12 -6 -21 -20 -15 -22 -15 -25 1 -31 11 -4 21 0 29 12 7 10 19 27 28 38 20
25 9 0 -18 -38 -10 -16 -17 -31 -13 -34 9 -9 36 17 52 51 8 17 32 61 54 99 21
37 44 84 51 105 28 89 171 353 197 364 21 8 49 64 42 83 -9 25 10 81 84 250
65 148 102 215 117 215 7 0 8 -14 4 -38 -5 -31 -2 -41 15 -57 17 -15 26 -17
54 -8 32 10 35 9 41 -16 14 -57 60 -70 90 -25 24 37 41 17 22 -27 -16 -38
-175 -284 -220 -341 -16 -20 -39 -38 -51 -40 -17 -2 -27 -21 -52 -94 -32 -96
-130 -270 -195 -349 -22 -26 -39 -51 -39 -56 0 -4 -17 -45 -39 -91 -21 -46
-41 -90 -44 -100 -9 -26 6 -31 21 -6 13 22 13 22 8 -7 -4 -23 0 -18 18 19 19
42 24 46 28 28 4 -12 2 -20 -2 -17 -4 3 -13 -8 -18 -24 -8 -23 -7 -31 3 -35 8
-3 17 -1 20 5 4 5 10 7 15 4 12 -7 20 32 20 101 0 42 5 69 18 85 9 13 26 40
36 59 10 19 75 121 144 225 69 105 142 224 163 266 56 115 145 248 206 307 54
53 67 91 29 84 -15 -3 -17 1 -12 22 3 13 2 27 -4 31 -16 10 1 35 24 35 12 0
34 11 49 25 50 47 26 108 -42 105 -55 -3 -61 -1 -55 14 3 8 15 12 27 10 12 -2
16 -2 10 2 -7 3 -13 17 -13 32 0 20 3 23 12 14 7 -7 17 -12 22 -12 6 0 5 5 -2
12 -7 7 -12 19 -12 29 0 12 7 15 28 12 23 -4 24 -3 10 7 -22 14 -24 45 -3 36
12 -4 14 0 9 21 -6 22 -4 25 9 20 14 -5 15 -1 11 26 -6 30 -5 31 9 12 8 -11
18 -49 22 -84 5 -42 14 -70 27 -83 20 -20 20 -20 35 4 9 12 26 34 37 47 13 15
15 21 6 17 -8 -4 -3 2 12 14 16 12 25 27 21 35 -3 9 1 15 11 15 10 0 16 8 16
22 0 12 3 18 7 15 3 -4 12 1 19 11 16 20 18 36 4 27 -5 -3 -10 -1 -10 4 0 6 5
11 10 11 6 0 15 11 19 24 7 17 20 25 52 30 25 4 46 3 53 -4 5 -5 24 -10 41
-10 19 -1 50 -15 84 -40 70 -50 181 -159 181 -176 0 -8 7 -14 15 -14 8 0 23
-4 33 -9 9 -5 35 -16 57 -26 63 -27 217 -126 248 -159 28 -30 30 -38 42 -108
9 -59 27 -46 21 15 l-6 52 117 -116 c65 -64 154 -145 197 -180 l79 -64 -54 -5
c-66 -6 -51 -20 25 -24 66 -4 85 -19 185 -151 69 -91 111 -162 111 -189 0 -8
14 -19 30 -25 67 -23 240 -201 240 -246 0 -11 5 -26 11 -32 7 -7 9 -29 4 -62
-6 -42 -10 -51 -27 -51 -10 0 -17 -4 -13 -9 3 -5 1 -12 -5 -16 -5 -3 -10 -1
-10 5 0 6 -17 -1 -39 -17 -23 -16 -36 -33 -33 -41 2 -8 -1 -13 -9 -12 -30 5
-41 0 -35 -15 3 -9 0 -15 -10 -15 -8 0 -29 -13 -47 -30 -18 -16 -36 -30 -41
-30 -5 0 3 -11 18 -25 24 -22 36 -25 101 -25 45 0 77 -5 81 -11 5 -8 -1 -10
-20 -7 -21 4 -26 2 -21 -9 4 -12 -1 -14 -21 -10 -21 4 -25 1 -21 -14 4 -14 0
-19 -13 -19 -10 0 -20 6 -23 13 -2 6 -8 9 -12 5 -4 -4 -2 -14 5 -23 10 -13 9
-15 -8 -15 -12 0 -24 5 -27 10 -3 6 -11 10 -17 10 -6 0 -3 -11 6 -25 16 -24
16 -25 -4 -22 -11 2 -23 6 -26 10 -15 14 -24 6 -15 -12 8 -14 7 -20 -4 -25
-16 -6 -18 2 -15 46 2 44 -16 68 -53 68 -25 0 -39 -7 -56 -30 -12 -17 -21 -36
-20 -43 4 -29 -3 -34 -46 -34 -34 0 -45 4 -41 14 4 9 -3 13 -19 13 -18 0 -36
-15 -66 -56 -45 -59 -253 -223 -322 -254 -20 -9 -45 -24 -55 -33 -33 -31 -98
-84 -217 -177 -133 -103 -155 -122 -110 -96 l30 17 -24 -20 c-12 -12 -27 -18
-32 -16 -12 8 -60 -25 -53 -36 3 -5 2 -8 -3 -7 -4 1 -17 -3 -28 -9 -11 -5 -40
-13 -65 -17 -71 -10 -115 -27 -99 -37 9 -6 10 -9 2 -9 -6 0 -11 -9 -10 -19 1
-18 4 -18 32 -7 16 8 29 17 28 22 -1 5 9 10 22 10 12 1 22 -3 21 -10 -3 -19
-17 -36 -29 -36 -7 0 -3 7 7 15 11 8 17 15 13 15 -15 0 -89 -41 -84 -47 3 -2
16 1 29 7 22 11 22 11 -2 -9 -23 -19 -23 -21 -6 -21 19 0 38 11 144 81 23 16
45 29 48 29 3 0 34 25 67 56 69 62 291 214 314 214 25 0 93 40 93 55 0 23 57
82 149 153 47 36 100 78 118 93 18 15 52 40 77 54 54 31 83 24 40 -10 -25 -20
-27 -26 -19 -51 7 -20 21 -31 45 -39 33 -9 35 -12 30 -40 -11 -52 32 -81 80
-55 30 16 32 -5 2 -33 -27 -26 -98 -67 -291 -169 -69 -36 -102 -48 -121 -44
-22 4 -37 -5 -86 -52 -75 -71 -182 -143 -299 -202 -49 -25 -116 -66 -149 -90
-32 -25 -73 -55 -91 -67 -30 -20 -53 -53 -37 -53 4 0 24 14 45 31 20 17 37 25
37 19 0 -6 6 -8 13 -4 6 4 -6 -12 -28 -35 -38 -41 -39 -43 -21 -57 17 -12 22
-12 39 4 11 9 32 40 48 68 27 47 69 96 69 81 0 -4 24 8 53 27 69 44 263 153
357 202 41 21 95 55 120 75 60 50 265 167 315 180 79 21 88 24 99 43 8 14 8
20 -1 23 -15 5 -18 33 -4 33 5 0 11 10 13 23 2 17 9 22 28 20 14 -1 41 0 62 3
73 11 72 103 -2 119 -35 8 -46 20 -25 29 8 3 17 1 20 -4 4 -6 11 -10 18 -10 8
0 8 3 -1 12 -8 8 -8 17 0 31 10 20 11 20 25 -4 13 -22 14 -22 10 -3 -6 31 8
53 25 36 16 -16 33 -16 20 1 -15 17 1 39 22 31 9 -3 16 -3 15 2 -5 27 1 36 16
24 13 -10 15 -9 15 8 0 12 5 24 10 27 16 10 11 -36 -10 -95 -22 -60 -24 -78
-11 -98 6 -11 16 -9 47 8 21 12 42 27 45 32 3 5 10 8 15 7 28 -5 43 2 37 17
-5 13 -2 15 16 9 15 -4 23 -2 27 10 4 9 13 14 21 10 9 -3 28 9 47 30 31 34 33
34 71 23 22 -6 43 -11 48 -10 4 1 7 -5 7 -13 0 -9 12 -21 26 -27 40 -19 155
-276 140 -315 -3 -8 12 -33 37 -59 46 -47 167 -248 167 -276 0 -9 5 -20 10
-23 15 -9 12 -47 -6 -90 -21 -51 -14 -81 9 -38 9 18 17 39 17 48 0 41 18 4 50
-101 19 -64 39 -118 43 -121 9 -5 3 23 -24 122 -11 39 -27 94 -35 124 -8 29
-18 59 -22 65 -3 6 -7 13 -8 16 -3 14 -108 226 -133 269 -16 27 -27 52 -24 54
3 3 -6 21 -20 39 -34 45 -77 135 -117 241 -23 63 -40 92 -55 99 -16 7 -21 16
-17 31 5 20 5 20 24 -2 10 -13 18 -18 18 -11 0 17 -40 80 -51 80 -10 0 -25 48
-21 68 2 6 -7 12 -18 12 -13 0 -20 5 -17 13 2 6 0 23 -5 36 -7 21 -7 22 7 11
12 -10 15 -10 15 2 0 8 8 22 18 31 15 14 23 15 49 5 26 -10 42 -8 98 10 160
53 206 104 175 196 -16 49 -91 116 -131 116 -45 0 -103 -36 -139 -86 -17 -24
-40 -48 -50 -54 -12 -6 -21 -26 -25 -54 -7 -47 -30 -66 -75 -61 -14 1 -33 3
-44 4 -15 1 -16 4 -6 16 14 17 11 23 -21 39 -12 6 -27 20 -33 31 -22 40 -58
86 -63 81 -3 -3 0 -12 7 -21 15 -19 9 -28 -14 -19 -9 3 -16 14 -16 24 0 10
-53 71 -118 137 -65 65 -124 133 -131 151 -7 17 -19 32 -25 33 -6 0 -37 32
-69 72 -53 67 -230 253 -273 287 -11 8 -50 38 -89 65 -38 28 -83 66 -99 85
-82 93 -226 235 -273 268 -28 20 -96 68 -150 107 -54 38 -106 78 -115 87 -10
10 -23 18 -29 18 -18 0 -126 81 -207 154 -58 53 -77 65 -96 60 -18 -4 -25 -1
-29 15 -5 22 16 30 28 11 3 -5 12 -10 18 -10 20 1 -42 49 -71 56 -33 8 -62 32
-62 52 0 10 -7 13 -21 9 -12 -3 -22 0 -25 8 -3 8 -13 11 -22 8 -13 -4 -13 -2
2 9 10 8 16 20 12 26 -14 22 15 60 51 65 39 7 115 80 160 155 44 73 17 142
-72 183 -45 21 -96 24 -125 9 -27 -14 -67 -87 -75 -135 -4 -22 -11 -53 -17
-68 -8 -20 -8 -39 1 -67 10 -33 9 -44 -4 -64 -11 -16 -22 -23 -32 -19 -11 4
-14 2 -9 -5 4 -7 1 -12 -8 -12 -8 0 -22 -3 -31 -6 -12 -5 -16 -2 -13 12 2 14
-4 19 -29 21 -17 1 -52 16 -76 33 -48 32 -88 42 -48 11 l24 -18 -23 -6 c-16
-4 -24 -1 -27 14 -3 11 -17 22 -32 24 -67 14 -309 98 -330 115 -12 11 -27 18
-31 15 -4 -3 -34 7 -66 21 -52 23 -252 100 -279 108 -61 17 -104 26 -180 39
-156 27 -167 29 -161 19z m1293 -442 c-1 -21 -12 -26 -22 -10 -3 6 0 10 7 10
9 0 9 3 -2 10 -13 8 -13 10 2 10 11 0 16 -7 15 -20z m-42 -40 c3 -5 2 -10 -4
-10 -5 0 -13 5 -16 10 -3 6 -2 10 4 10 5 0 13 -4 16 -10z m180 -20 c3 -5 2
-10 -4 -10 -5 0 -13 5 -16 10 -3 6 -2 10 4 10 5 0 13 -4 16 -10z m-161 -9 c4
-5 -1 -8 -9 -7 -21 3 -31 16 -12 16 9 0 18 -4 21 -9z m141 -11 c3 -6 -1 -7 -9
-4 -18 7 -21 14 -7 14 6 0 13 -4 16 -10z m-155 -27 c13 -14 13 -15 0 -7 -8 5
-21 9 -29 11 -7 1 -19 7 -25 13 -8 9 -5 11 14 5 14 -4 32 -14 40 -22z m-170
-13 c0 -5 -5 -10 -11 -10 -5 0 -7 5 -4 10 3 6 8 10 11 10 2 0 4 -4 4 -10z m45
0 c3 -5 -1 -10 -9 -10 -8 0 -18 5 -21 10 -3 6 1 10 9 10 8 0 18 -4 21 -10z
m96 -9 l24 -20 -42 11 c-24 6 -43 14 -43 19 0 16 37 9 61 -10z m167 6 c6 3 12
1 12 -4 0 -15 -48 -13 -54 2 -4 12 -2 13 12 7 9 -5 23 -7 30 -5z m-282 -45
c-9 -9 -37 8 -31 18 5 8 11 7 21 -1 8 -6 12 -14 10 -17z m68 13 c19 -14 18
-15 -11 -15 -17 0 -36 7 -43 15 -10 13 -9 15 11 15 13 0 33 -7 43 -15z m183
-10 c36 -32 26 -32 -17 0 -19 14 -29 25 -23 25 7 0 25 -11 40 -25z m-300 -11
c-9 -9 -28 6 -21 18 4 6 10 6 17 -1 6 -6 8 -13 4 -17z m87 -19 c19 -14 19 -15
-6 -15 -27 0 -43 12 -31 24 9 9 16 7 37 -9z m214 -7 c6 -6 12 -14 12 -19 0
-17 -23 -9 -47 17 l-23 25 22 -6 c13 -4 29 -12 36 -17z m-278 -3 c0 -8 -4 -15
-9 -15 -13 0 -22 16 -14 24 11 11 23 6 23 -9z m-40 -15 c0 -5 -4 -10 -10 -10
-5 0 -10 5 -10 10 0 6 5 10 10 10 6 0 10 -4 10 -10z m143 -7 c-7 -2 -21 -2
-30 0 -10 3 -4 5 12 5 17 0 24 -2 18 -5z m-58 -13 c3 -5 -3 -10 -14 -10 -12 0
-21 5 -21 10 0 6 6 10 14 10 8 0 18 -4 21 -10z m208 -1 c36 -19 49 -49 23 -49
-8 0 -24 14 -36 30 -23 33 -21 36 13 19z m-269 -8 c3 -5 -1 -11 -9 -15 -15 -6
-29 7 -18 18 9 9 21 8 27 -3z m-44 -21 c0 -5 -7 -10 -16 -10 -8 0 -12 5 -9 10
3 6 10 10 16 10 5 0 9 -4 9 -10z m388 -9 c3 -8 -1 -12 -9 -9 -7 2 -15 10 -17
17 -3 8 1 12 9 9 7 -2 15 -10 17 -17z m32 9 c0 -5 -4 -10 -10 -10 -5 0 -10 5
-10 10 0 6 5 10 10 10 6 0 10 -4 10 -10z m-310 -10 c-20 -13 -57 -13 -65 0 -4
6 11 10 37 10 31 0 39 -3 28 -10z m210 -36 c0 -18 -28 -7 -40 17 -15 28 -12
31 15 13 14 -9 25 -22 25 -30z m-291 17 c19 -13 -4 -24 -32 -15 -19 6 -20 5
-8 -10 12 -14 11 -16 -6 -16 -31 0 -36 13 -11 32 26 20 37 22 57 9z m188 -33
c-3 -7 -5 -2 -5 12 0 14 2 19 5 13 2 -7 2 -19 0 -25z m147 11 c-6 -11 -24 -2
-24 11 0 5 7 7 15 4 8 -4 12 -10 9 -15z m36 11 c0 -5 -4 -10 -10 -10 -5 0 -10
5 -10 10 0 6 5 10 10 10 6 0 10 -4 10 -10z m-122 -22 c14 -14 16 -28 2 -28 -5
0 -14 9 -20 20 -12 22 -1 27 18 8z m-23 -38 c9 -18 11 -30 5 -30 -9 0 -30 40
-30 56 0 12 11 1 25 -26z m81 3 c-7 -7 -26 7 -26 19 0 6 6 6 15 -2 9 -7 13
-15 11 -17z m44 19 c0 -13 -12 -22 -22 -16 -10 6 -1 24 13 24 5 0 9 -4 9 -8z
m-80 -47 c0 -8 -4 -15 -10 -15 -5 0 -10 7 -10 15 0 8 5 15 10 15 6 0 10 -7 10
-15z m40 -5 c0 -5 -4 -10 -10 -10 -5 0 -10 5 -10 10 0 6 5 10 10 10 6 0 10 -4
10 -10z m-60 -47 c0 -7 -4 -13 -8 -13 -12 0 -32 23 -32 37 0 11 4 11 20 1 11
-7 20 -18 20 -25z m30 2 c0 -8 -4 -15 -10 -15 -5 0 -10 7 -10 15 0 8 5 15 10
15 6 0 10 -7 10 -15z m-32 -44 c3 -8 -1 -12 -9 -9 -7 2 -15 10 -17 17 -3 8 1
12 9 9 7 -2 15 -10 17 -17z m-334 -127 c3 -9 6 -31 6 -50 0 -19 1 -34 3 -34 1
0 20 9 42 20 46 23 65 25 65 7 0 -28 -26 -45 -72 -49 -27 -2 -48 0 -48 5 0 4
-10 21 -22 37 -18 25 -20 33 -10 55 13 29 27 32 36 9z m-34 -80 c11 -12 11
-18 -1 -30 -20 -19 -53 3 -43 29 8 21 27 22 44 1z m104 -53 c3 -4 0 -16 -7
-25 -11 -14 -15 -15 -31 -3 -11 8 -16 19 -12 25 8 14 42 16 50 3z m-525 -518
c-37 -87 -122 -263 -125 -260 -3 3 103 244 127 289 19 36 18 17 -2 -29z m265
-125 c-25 -44 -147 -228 -151 -228 -5 0 18 39 94 158 29 45 55 82 58 82 4 0 3
-6 -1 -12z m-161 -253 c-3 -9 -8 -14 -10 -11 -3 3 -2 9 2 15 9 16 15 13 8 -4z
m-132 -212 c-12 -20 -14 -14 -5 12 4 9 9 14 11 11 3 -2 0 -13 -6 -23z m2944
-24 c11 -17 -1 -21 -15 -4 -8 9 -8 15 -2 15 6 0 14 -5 17 -11z m-66 -31 c-1
-13 2 -32 6 -43 7 -16 4 -16 -14 5 -12 13 -18 26 -12 28 5 2 7 10 4 18 -3 8 0
14 6 14 6 0 10 -10 10 -22z m51 1 c0 -6 -4 -7 -10 -4 -5 3 -10 11 -10 16 0 6
5 7 10 4 6 -3 10 -11 10 -16z m-230 7 c0 -3 -4 -8 -10 -11 -5 -3 -10 -1 -10 4
0 6 5 11 10 11 6 0 10 -2 10 -4z m30 -16 c9 -16 8 -18 -5 -14 -8 4 -15 12 -15
20 0 20 7 17 20 -6z m-70 -21 c0 -5 -7 -9 -15 -9 -15 0 -20 12 -9 23 8 8 24
-1 24 -14z m40 -4 c0 -8 -4 -15 -9 -15 -13 0 -22 16 -14 24 11 11 23 6 23 -9z
m144 -10 c23 -36 20 -40 -9 -9 -27 29 -29 34 -16 34 5 0 16 -11 25 -25z m-83
-26 c6 -11 9 -23 6 -25 -6 -6 -57 43 -57 56 0 16 37 -6 51 -31z m48 12 c29
-41 26 -46 -9 -14 -30 26 -38 43 -21 43 5 0 19 -13 30 -29z m-189 -1 c0 -5 -7
-10 -16 -10 -8 0 -12 5 -9 10 3 6 10 10 16 10 5 0 9 -4 9 -10z m40 -10 c0 -5
-4 -10 -9 -10 -6 0 -13 5 -16 10 -3 6 1 10 9 10 9 0 16 -4 16 -10z m368 -28
c2 -15 0 -23 -4 -20 -4 4 -8 19 -10 34 -3 34 9 21 14 -14z m-313 8 c10 -11 15
-20 11 -20 -14 0 -46 21 -46 30 0 16 16 11 35 -10z m-145 -10 c0 -5 -4 -10
-10 -10 -5 0 -10 5 -10 10 0 6 5 10 10 10 6 0 10 -4 10 -10z m55 0 c3 -5 -3
-10 -14 -10 -12 0 -21 5 -21 10 0 6 6 10 14 10 8 0 18 -4 21 -10z m381 -17
c-7 -7 -26 7 -26 19 0 6 6 6 15 -2 9 -7 13 -15 11 -17z m-322 -9 c4 -12 2 -12
-14 -4 -11 6 -20 15 -20 20 0 14 28 1 34 -16z m-150 -10 c4 -9 4 -19 2 -21 -8
-8 -26 8 -26 23 0 19 16 18 24 -2z m50 0 c8 -21 3 -26 -17 -18 -24 9 -30 34
-8 34 10 0 22 -7 25 -16z m146 6 c8 -5 12 -11 9 -14 -3 -3 -14 1 -25 9 -21 16
-8 20 16 5z m238 -13 c6 3 12 0 12 -5 0 -19 -45 -7 -48 13 -2 18 -1 18 10 4 7
-9 19 -14 26 -12z m-315 -1 c24 -18 21 -24 -8 -19 -32 7 -56 33 -29 33 11 0
27 -7 37 -14z m266 -12 c14 -31 9 -41 -9 -19 -7 8 -9 15 -5 15 4 0 2 7 -5 15
-7 8 -8 15 -3 15 5 0 15 -12 22 -26z m-20 -40 c12 -27 7 -45 -8 -28 -14 14
-23 54 -13 54 5 0 14 -12 21 -26z m-19 -66 c0 -10 -5 -18 -10 -18 -12 0 -30
42 -30 68 1 24 39 -26 40 -50z m-139 5 c-12 -20 -14 -14 -5 12 4 9 9 14 11 11
3 -2 0 -13 -6 -23z m99 -31 c0 -26 -25 -5 -28 24 -2 28 -2 28 13 10 8 -11 15
-26 15 -34z m-50 -10 c0 -7 -4 -10 -10 -7 -5 3 -10 16 -10 28 0 18 2 19 10 7
5 -8 10 -21 10 -28z m128 2 c-10 -10 -28 6 -28 24 0 15 1 15 17 -1 9 -9 14
-19 11 -23z m-166 -26 c-4 -17 -6 -18 -13 -5 -11 19 0 55 11 37 4 -7 5 -21 2
-32z m193 32 c3 -5 1 -10 -4 -10 -6 0 -11 5 -11 10 0 6 2 10 4 10 3 0 8 -4 11
-10z m-65 -22 c0 -13 -23 -5 -28 10 -2 7 2 10 12 6 9 -3 16 -11 16 -16z m-50
-24 c0 -8 -4 -12 -10 -9 -5 3 -10 13 -10 21 0 8 5 12 10 9 6 -3 10 -13 10 -21z
m80 16 c0 -5 -4 -10 -10 -10 -5 0 -10 5 -10 10 0 6 5 10 10 10 6 0 10 -4 10
-10z m-134 -47 c-11 -11 -17 4 -9 23 7 18 8 18 11 1 2 -10 1 -21 -2 -24z m-36
-15 c0 -24 -17 -23 -25 2 -8 26 4 48 16 29 5 -8 9 -22 9 -31z m130 32 c0 -5
-4 -10 -10 -10 -5 0 -10 5 -10 10 0 6 5 10 10 10 6 0 10 -4 10 -10z m-506 -37
c-4 -16 -13 -38 -20 -50 -18 -29 -18 -32 6 -26 30 8 90 -6 90 -21 0 -7 -11
-18 -24 -25 -19 -11 -28 -10 -54 3 -38 20 -52 44 -52 90 0 23 6 39 18 45 31
19 43 13 36 -16z m456 17 c0 -5 -4 -10 -10 -10 -5 0 -10 5 -10 10 0 6 5 10 10
10 6 0 10 -4 10 -10z m-50 -24 c0 -3 -4 -8 -10 -11 -5 -3 -10 -1 -10 4 0 6 5
11 10 11 6 0 10 -2 10 -4z m-50 -27 c0 -5 -4 -9 -10 -9 -5 0 -10 7 -10 16 0 8
5 12 10 9 6 -3 10 -10 10 -16z m-427 -11 c6 -20 -6 -37 -26 -38 -11 0 -20 28
-13 45 8 22 33 18 39 -7z m66 -92 c9 -10 8 -16 -4 -26 -13 -11 -19 -11 -32 2
-16 17 -10 38 11 38 8 0 19 -6 25 -14z m-664 -194 c-55 -49 -238 -184 -215
-159 25 26 204 166 215 167 6 0 6 -3 0 -8z m145 -256 c0 -3 -39 -27 -87 -54
-118 -66 -133 -74 -133 -68 0 4 210 126 218 126 1 0 2 -2 2 -4z m-655 -76 c-3
-5 -12 -10 -18 -10 -7 0 -6 4 3 10 19 12 23 12 15 0z m425 -55 c0 -2 -10 -9
-22 -15 -22 -11 -22 -10 -4 4 21 17 26 19 26 11z m-220 -178 c0 -2 -12 -14
-27 -28 l-28 -24 24 28 c23 25 31 32 31 24z"/>
<path d="M2474 10725 c-27 -19 -60 -43 -74 -52 -65 -45 -137 -109 -218 -195
-142 -149 -172 -184 -165 -192 4 -4 0 -4 -9 -1 -12 5 -22 -4 -37 -33 -11 -22
-72 -89 -136 -149 -74 -70 -115 -117 -115 -130 0 -12 -8 -23 -20 -26 -22 -6
-27 12 -8 31 9 9 9 12 1 12 -12 0 -53 -52 -53 -67 0 -18 -48 -55 -61 -48 -8 6
-11 1 -7 -18 4 -19 0 -27 -15 -31 -10 -2 -16 -9 -13 -15 4 -5 2 -13 -4 -16 -6
-4 -10 -3 -9 2 4 21 -2 32 -14 27 -23 -8 -57 28 -59 64 -2 21 -13 43 -35 64
-18 18 -33 35 -33 40 0 9 -37 46 -75 76 -55 44 -131 22 -179 -51 -70 -109 -32
-173 144 -238 19 -7 58 -12 86 -11 39 2 55 -2 68 -17 11 -12 15 -25 10 -33 -6
-10 -5 -11 7 -1 13 10 14 7 11 -22 -3 -25 -9 -35 -22 -35 -12 0 -17 -8 -18
-24 0 -14 -16 -44 -36 -67 -20 -24 -36 -50 -36 -58 1 -13 2 -13 11 2 13 22 29
22 29 -1 0 -11 -10 -23 -22 -29 -15 -7 -30 -30 -42 -64 -23 -68 -102 -231
-126 -261 -34 -44 -230 -428 -230 -452 0 -8 -6 -30 -14 -48 -14 -33 -40 -117
-52 -173 -14 -62 13 -8 45 90 18 55 35 107 38 115 3 10 13 -3 28 -35 l23 -50
1 37 c1 20 -4 40 -10 44 -7 4 -9 24 -6 57 5 38 22 74 76 161 39 61 88 129 109
151 28 29 40 51 44 81 11 83 112 282 148 291 10 3 20 13 23 22 2 11 22 21 53
28 47 11 50 11 67 -12 26 -35 81 -66 103 -58 13 5 16 3 11 -9 -7 -18 15 -30
38 -22 9 4 15 0 15 -7 0 -8 20 -24 44 -36 l43 -22 12 25 c11 26 -1 96 -21 119
-12 14 -10 67 2 60 6 -4 8 -15 5 -26 -4 -11 -2 -19 4 -19 6 0 11 5 11 10 0 6
5 10 10 10 6 0 10 -12 10 -26 0 -22 2 -24 15 -14 12 10 16 9 21 -3 3 -9 3 -21
-1 -27 -3 -5 -2 -10 4 -10 5 0 13 5 17 11 10 17 25 -12 18 -36 -5 -20 -5 -20
11 0 14 17 17 18 25 5 5 -8 7 -24 4 -35 -5 -19 -4 -19 9 -2 12 14 16 15 26 4
13 -16 5 -27 -20 -27 -10 0 -31 -11 -46 -24 -27 -24 -27 -26 -13 -52 17 -31
78 -57 97 -42 20 16 43 1 43 -26 0 -13 6 -26 13 -29 8 -3 6 -9 -8 -20 -19 -15
-19 -17 -4 -32 9 -10 46 -27 82 -39 81 -27 262 -136 332 -198 29 -27 59 -48
66 -48 7 0 20 -6 28 -13 9 -8 77 -49 151 -92 74 -43 162 -97 195 -119 33 -23
73 -48 89 -56 16 -8 33 -26 39 -40 17 -40 67 -110 78 -110 6 0 7 6 3 13 -5 9
-4 9 6 0 10 -9 17 -7 32 7 23 21 19 31 -25 61 l-32 22 35 -39 c19 -21 25 -31
14 -21 -12 10 -26 17 -32 15 -5 -2 -9 0 -8 3 0 3 -5 13 -12 21 -10 13 -10 17
4 22 10 4 30 -5 52 -24 20 -16 38 -28 40 -26 5 6 -17 46 -26 46 -7 0 -71 45
-142 100 -14 11 -50 32 -81 48 -102 53 -232 145 -307 217 -55 53 -79 69 -97
67 -28 -4 -90 26 -260 129 -124 74 -185 122 -173 135 4 3 15 1 26 -5 52 -28
94 1 82 54 -8 33 -7 35 26 41 53 10 69 50 33 83 -30 28 -16 45 22 26 33 -17
267 -211 313 -260 16 -16 32 -41 36 -55 5 -19 28 -36 96 -70 98 -49 218 -136
302 -217 30 -29 55 -53 58 -53 2 0 41 -24 86 -54 88 -56 128 -74 128 -57 0 5
-8 12 -17 15 -10 4 -29 15 -43 27 -25 20 -25 20 15 -1 59 -30 67 -24 11 9 -40
24 -45 29 -23 28 14 -1 23 -5 21 -8 -2 -3 8 -11 22 -18 30 -13 37 -14 30 -2
-4 5 0 12 6 15 7 3 2 3 -12 0 -24 -6 -24 -5 -6 9 19 14 19 15 -2 26 -11 6 -48
14 -80 17 -49 5 -67 13 -98 41 -21 18 -44 31 -51 29 -12 -5 -264 192 -280 217
-9 15 7 3 150 -115 64 -54 121 -98 125 -98 8 1 -2 10 -149 132 -57 47 -117 98
-134 113 -16 14 -41 36 -55 48 -14 12 -49 37 -79 55 -110 66 -245 182 -302
260 -38 50 -79 70 -79 38 0 -9 -13 -13 -39 -13 -40 0 -55 13 -46 40 6 16 -34
63 -61 71 -14 4 -30 0 -45 -13 -18 -15 -23 -27 -22 -61 1 -28 -2 -40 -10 -37
-7 2 -11 11 -9 20 2 14 -3 15 -30 10 -30 -6 -32 -5 -19 11 8 9 10 20 6 24 -4
4 -10 1 -12 -5 -5 -13 -43 -19 -43 -7 0 3 5 14 10 25 7 13 7 19 0 19 -5 0 -10
-4 -10 -10 0 -5 -9 -10 -20 -10 -13 0 -18 5 -14 15 5 11 0 14 -17 13 -19 -2
-23 1 -21 16 3 16 1 18 -10 9 -8 -7 -19 -8 -27 -4 -20 13 14 22 94 27 45 3 74
10 81 19 6 8 15 11 20 7 4 -4 -20 22 -53 57 -34 34 -66 60 -72 56 -6 -3 -11 1
-11 10 0 8 -10 20 -22 25 -13 5 -19 9 -14 9 17 2 -40 39 -64 43 -22 3 -26 9
-30 57 -4 38 -2 55 7 58 7 3 13 16 13 29 0 43 187 229 243 241 15 3 27 11 27
18 0 25 52 109 124 198 79 97 128 138 167 138 13 1 39 3 58 6 26 3 31 7 20 14
-8 5 -27 9 -44 8 -16 0 -34 -1 -38 0 -8 1 126 110 176 144 12 8 19 17 16 21
-3 3 -27 -10 -55 -29z m-894 -920 c-7 -9 -15 -13 -17 -11 -7 7 7 26 19 26 6 0
6 -6 -2 -15z m210 -5 c0 -5 -4 -10 -10 -10 -5 0 -10 5 -10 10 0 6 5 10 10 10
6 0 10 -4 10 -10z m-197 -15 c-3 -9 -8 -14 -10 -11 -3 3 -2 9 2 15 9 16 15 13
8 -4z m47 -45 c-18 -11 -27 -3 -13 11 6 6 9 19 7 28 -3 9 1 6 8 -7 9 -19 9
-25 -2 -32z m160 31 c0 -12 -20 -25 -27 -18 -7 7 6 27 18 27 5 0 9 -4 9 -9z
m30 5 c0 -3 -4 -8 -10 -11 -5 -3 -10 -1 -10 4 0 6 5 11 10 11 6 0 10 -2 10 -4z
m-145 -37 c-3 -8 -15 -20 -26 -27 -17 -11 -20 -11 -14 0 23 39 52 59 40 27z
m185 6 c0 -8 -4 -15 -10 -15 -5 0 -10 7 -10 15 0 8 5 15 10 15 6 0 10 -7 10
-15z m-40 -10 c0 -8 -4 -15 -10 -15 -5 0 -10 7 -10 15 0 8 5 15 10 15 6 0 10
-7 10 -15z m-106 -16 c-10 -11 -27 -25 -38 -31 -17 -9 -17 -7 3 21 12 17 30
31 38 31 14 0 13 -3 -3 -21z m67 2 c-11 -20 -60 -55 -67 -48 -3 2 9 18 25 36
33 35 58 43 42 12z m114 -11 c3 -5 1 -10 -4 -10 -6 0 -11 5 -11 10 0 6 2 10 4
10 3 0 8 -4 11 -10z m-35 -10 c0 -5 -7 -10 -16 -10 -8 0 -12 5 -9 10 3 6 10
10 16 10 5 0 9 -4 9 -10z m75 0 c3 -5 1 -10 -4 -10 -6 0 -11 5 -11 10 0 6 2
10 4 10 3 0 8 -4 11 -10z m-125 -10 c0 -9 -32 -30 -46 -30 -4 0 1 9 11 20 19
21 35 26 35 10z m-330 -10 c0 -5 -5 -10 -11 -10 -5 0 -7 5 -4 10 3 6 8 10 11
10 2 0 4 -4 4 -10z m30 -4 c0 -3 -4 -8 -10 -11 -5 -3 -10 -1 -10 4 0 6 5 11
10 11 6 0 10 -2 10 -4z m390 -5 c0 -5 -7 -12 -16 -15 -24 -9 -28 -7 -14 9 14
17 30 20 30 6z m50 -7 c0 -2 -7 -4 -15 -4 -8 0 -15 4 -15 10 0 5 7 7 15 4 8
-4 15 -8 15 -10z m-390 -24 c-7 -12 -18 -19 -26 -16 -8 3 -14 1 -14 -5 0 -6
-5 -7 -10 -4 -14 9 -1 28 14 22 7 -3 18 4 25 15 16 26 26 16 11 -12z m275 10
c-10 -11 -23 -20 -28 -20 -6 0 -2 9 8 20 10 11 23 20 28 20 6 0 2 -9 -8 -20z
m-241 -18 c-6 -4 -14 -16 -17 -26 -4 -10 -10 -16 -14 -13 -3 4 2 18 11 33 10
14 20 23 24 19 4 -3 2 -9 -4 -13z m181 8 c-3 -5 -12 -10 -18 -10 -7 0 -6 4 3
10 19 12 23 12 15 0z m170 1 c6 -10 -25 -31 -46 -31 -8 0 -5 7 6 20 20 22 31
25 40 11z m-65 -11 c0 -11 -48 -25 -57 -16 -3 3 5 10 18 15 32 13 39 13 39 1z
m100 1 c0 -12 -20 -25 -27 -18 -7 7 6 27 18 27 5 0 9 -4 9 -9z m-362 -38 c-6
-16 -18 -35 -25 -43 -21 -23 -17 16 5 45 23 33 34 31 20 -2z m195 0 c-7 -2
-19 -2 -25 0 -7 3 -2 5 12 5 14 0 19 -2 13 -5z m-169 -50 c-9 -35 -13 -43 -25
-43 -13 0 -11 27 3 50 18 29 29 25 22 -7z m58 -8 c-2 -14 -6 -25 -8 -25 -2 0
-4 11 -4 25 0 14 4 25 9 25 4 0 6 -11 3 -25z m-26 -30 c-4 -14 -11 -25 -16
-25 -13 0 -13 16 1 42 14 26 23 16 15 -17z m-90 -22 c-10 -10 -19 5 -10 18 6
11 8 11 12 0 2 -7 1 -15 -2 -18z m129 -2 c-7 -23 -25 -29 -25 -8 0 14 21 39
28 33 2 -3 1 -14 -3 -25z m34 -33 c-15 -28 -24 -9 -14 30 6 23 8 24 16 9 7
-11 6 -24 -2 -39z m-119 27 c0 -8 -7 -15 -16 -15 -14 0 -14 3 -4 15 7 8 14 15
16 15 2 0 4 -7 4 -15z m-40 -15 c0 -5 -4 -10 -10 -10 -5 0 -10 5 -10 10 0 6 5
10 10 10 6 0 10 -4 10 -10z m90 -8 c0 -13 -12 -22 -22 -16 -10 6 -1 24 13 24
5 0 9 -4 9 -8z m-40 -22 c0 -5 -7 -10 -15 -10 -8 0 -15 5 -15 10 0 6 7 10 15
10 8 0 15 -4 15 -10z m80 -5 c0 -8 -4 -15 -10 -15 -5 0 -10 7 -10 15 0 8 5 15
10 15 6 0 10 -7 10 -15z m46 -42 c-5 -11 -10 -13 -17 -6 -7 7 -7 17 3 32 10
18 14 19 16 6 2 -9 1 -23 -2 -32z m-86 21 c0 -8 -5 -12 -10 -9 -6 4 -8 11 -5
16 9 14 15 11 15 -7z m483 -22 c11 -12 14 -29 10 -58 -4 -35 -11 -44 -39 -58
-43 -20 -68 -20 -84 -1 -18 22 -6 29 50 29 l49 0 -13 25 c-7 14 -16 38 -20 54
-5 22 -3 27 12 27 11 0 26 -8 35 -18z m-433 -8 c0 -8 -4 -12 -10 -9 -5 3 -10
10 -10 16 0 5 5 9 10 9 6 0 10 -7 10 -16z m51 -27 c-16 -16 -26 0 -10 19 9 11
15 12 17 4 2 -6 -1 -17 -7 -23z m446 -8 c16 -16 5 -39 -18 -39 -12 0 -19 7
-19 18 0 31 17 41 37 21z m-60 -95 c3 -8 -1 -23 -10 -31 -13 -14 -19 -14 -32
-3 -14 12 -14 15 1 31 21 23 33 24 41 3z m641 -576 c50 -33 92 -62 92 -65 0
-3 -12 3 -27 12 -14 10 -82 51 -150 92 -68 41 -123 77 -123 80 0 7 101 -51
208 -119z"/>
<path d="M6303 10585 c0 -38 2 -53 4 -32 2 20 2 52 0 70 -2 17 -4 1 -4 -38z"/>
<path d="M4700 9874 c0 -7 9 -22 20 -35 12 -15 19 -19 20 -10 0 11 5 9 22 -5
l21 -19 -18 29 c-12 18 -21 24 -23 16 -3 -9 -11 -5 -23 11 -10 13 -19 19 -19
13z"/>
<path d="M867 8408 c-60 -103 -113 -235 -159 -393 -27 -93 -50 -182 -51 -197
-1 -15 -7 -30 -14 -32 -6 -3 -9 -13 -7 -24 7 -25 -20 -125 -68 -254 -29 -79
-37 -111 -30 -124 7 -12 6 -22 -3 -31 -21 -20 -28 -15 -20 15 5 19 3 24 -5 16
-6 -6 -13 -35 -17 -65 -3 -30 -13 -67 -22 -82 -13 -23 -13 -29 -2 -36 9 -6 10
-10 2 -16 -7 -4 -9 -16 -5 -28 6 -20 6 -21 -12 -3 -11 12 -19 15 -22 7 -2 -6
-16 -11 -32 -11 -21 0 -33 8 -49 34 -12 19 -33 37 -48 41 -15 3 -48 16 -73 27
-25 12 -67 23 -95 26 -41 3 -55 0 -79 -19 -35 -28 -56 -75 -56 -128 0 -57 15
-88 52 -112 30 -18 43 -20 137 -14 90 5 108 9 136 31 35 27 85 25 85 -2 0 -11
5 -12 18 -5 14 7 17 5 17 -17 0 -15 -6 -33 -15 -39 -13 -11 -13 -14 0 -22 12
-8 12 -20 3 -77 -7 -37 -9 -73 -5 -78 4 -6 9 3 12 19 6 29 6 30 18 8 10 -18 9
-24 -4 -37 -11 -11 -13 -23 -7 -38 4 -13 8 -203 8 -423 1 -394 2 -402 28 -529
26 -123 32 -145 41 -135 2 2 -6 61 -19 132 -12 70 -19 127 -17 127 2 0 20 -14
39 -31 19 -16 37 -28 40 -25 7 7 -30 55 -42 56 -5 0 -17 13 -27 29 -13 24 -15
52 -12 160 2 72 9 150 15 173 6 24 12 50 13 58 2 8 6 22 10 31 4 8 -1 32 -9
54 -11 25 -19 83 -22 166 -5 109 -3 132 11 153 9 14 16 31 16 39 0 7 15 28 34
46 25 25 40 32 53 26 10 -4 32 -11 49 -15 27 -6 34 -4 45 16 6 13 16 21 21 18
13 -8 9 -24 -7 -24 -8 0 -15 -4 -15 -10 0 -14 23 -13 38 2 9 9 12 9 12 0 0
-16 37 -15 44 1 5 10 7 10 12 0 3 -8 26 -13 59 -13 52 0 53 0 51 29 -1 21 -18
45 -60 86 -32 31 -55 59 -51 63 3 4 13 -2 21 -13 12 -16 17 -17 23 -7 7 11 11
11 23 -2 11 -11 18 -12 26 -4 8 8 13 8 16 -3 14 -43 15 -44 21 -21 9 27 25 29
32 2 7 -27 23 -26 23 1 0 18 2 19 15 9 8 -7 15 -19 15 -26 0 -8 5 -14 10 -14
6 0 10 7 10 15 0 15 12 20 23 9 4 -4 -7 -22 -23 -41 -35 -40 -37 -56 -9 -84
17 -17 28 -20 57 -14 21 3 42 13 48 21 13 16 44 19 44 4 0 -6 12 -15 26 -20
22 -9 24 -13 14 -26 -19 -22 2 -38 42 -34 95 10 377 2 438 -13 36 -8 79 -16
95 -16 77 0 434 -23 465 -30 20 -4 50 -6 67 -4 21 4 37 -1 50 -14 35 -34 102
-65 125 -57 21 6 21 7 2 21 -18 15 -18 15 4 8 29 -8 29 3 0 15 l-23 9 24 0
c24 1 24 1 5 16 -18 14 -18 14 4 8 13 -3 22 -1 22 6 0 6 -1 11 -2 11 -2 0 -57
9 -123 20 -66 11 -155 20 -197 20 -98 0 -296 26 -351 46 -23 8 -50 17 -60 19
-9 2 -22 7 -27 10 -6 4 -23 -1 -37 -11 -24 -15 -46 -16 -217 -10 -211 8 -286
19 -286 43 0 11 6 14 21 10 52 -14 82 37 49 82 l-19 28 25 24 c40 37 28 75
-29 93 -30 9 -9 26 32 26 21 0 116 -18 212 -41 96 -23 184 -43 197 -46 13 -3
30 -16 39 -29 14 -23 19 -23 106 -18 102 6 279 -20 385 -55 32 -11 67 -20 78
-20 10 1 65 -2 120 -6 69 -4 104 -3 109 4 4 7 -12 12 -47 13 l-53 1 55 7 55 7
-55 3 -55 4 48 3 c26 2 47 8 47 14 0 5 -6 9 -12 9 -10 0 -10 2 0 9 11 6 11 10
0 19 -14 11 -113 -9 -132 -28 -12 -12 -89 -14 -82 -1 3 4 -20 11 -51 15 -73 8
-422 85 -445 97 -10 5 -42 9 -72 9 -56 0 -235 31 -317 54 -25 8 -68 26 -97 41
-39 20 -55 24 -69 17 -10 -6 -18 -16 -18 -24 0 -7 -3 -13 -6 -13 -4 0 -16 -8
-28 -19 -17 -15 -23 -16 -36 -6 -8 7 -15 18 -15 24 0 14 -47 36 -75 36 -46 0
-70 -57 -40 -96 19 -25 19 -44 0 -44 -8 0 -12 6 -9 14 3 8 1 17 -5 21 -6 3
-11 0 -11 -8 0 -8 -7 -18 -16 -21 -24 -9 -26 -8 -19 14 4 11 2 20 -4 20 -6 0
-11 -7 -11 -15 0 -14 -10 -18 -27 -12 -5 1 -7 7 -5 14 1 6 -2 14 -8 18 -5 3
-10 -3 -10 -14 0 -23 -25 -29 -33 -8 -4 10 -7 10 -18 0 -18 -17 -29 -16 -29 3
0 14 -1 14 -16 0 -22 -23 -38 -20 -21 4 7 11 38 33 68 48 30 16 59 40 66 53
12 23 10 25 -35 39 -30 10 -49 12 -54 6 -4 -6 -10 -3 -14 7 -4 11 -15 17 -28
16 -11 -1 -29 1 -38 5 -9 4 -21 5 -27 2 -5 -3 -11 0 -13 6 -3 9 -22 12 -56 11
-52 -2 -52 -2 -73 40 -25 49 -32 105 -19 163 17 75 70 211 93 235 18 19 21 33
19 84 -3 63 40 301 58 319 6 6 10 16 10 24 0 17 37 52 55 52 6 0 22 11 35 25
28 30 22 31 -30 5 -22 -11 -40 -16 -40 -11 0 6 23 58 50 117 52 111 61 146 17
72z m-183 -1159 c-3 -5 -10 -7 -15 -3 -5 3 -7 10 -3 15 3 5 10 7 15 3 5 -3 7
-10 3 -15z m52 -6 c16 -21 18 -43 4 -43 -5 0 -10 8 -10 18 0 10 -5 23 -12 30
-7 7 -8 12 -4 12 5 0 15 -8 22 -17z m46 2 c0 -5 -5 -11 -11 -13 -6 -2 -11 4
-11 13 0 9 5 15 11 13 6 -2 11 -8 11 -13z m-72 -14 c0 -5 -6 -14 -14 -20 -12
-10 -14 -9 -11 6 2 10 4 19 4 21 2 6 21 1 21 -7z m130 -1 c0 -5 -7 -10 -16
-10 -8 0 -12 5 -9 10 3 6 10 10 16 10 5 0 9 -4 9 -10z m-40 -25 c0 -8 -4 -15
-10 -15 -5 0 -10 7 -10 15 0 8 5 15 10 15 6 0 10 -7 10 -15z m90 11 c0 -3 -4
-8 -10 -11 -5 -3 -10 -1 -10 4 0 6 5 11 10 11 6 0 10 -2 10 -4z m-170 -28 c0
-13 -10 -34 -21 -48 l-20 -25 7 35 c10 52 34 79 34 38z m121 -11 c-16 -16 -26
0 -10 19 9 11 15 12 17 4 2 -6 -1 -17 -7 -23z m99 24 c0 -6 -4 -13 -10 -16 -5
-3 -10 1 -10 9 0 9 5 16 10 16 6 0 10 -4 10 -9z m-30 -9 c0 -15 -28 -47 -35
-40 -8 8 13 48 25 48 6 0 10 -4 10 -8z m-164 -50 c-20 -20 -22 -1 -4 31 11 20
12 21 16 3 2 -10 -3 -26 -12 -34z m-238 26 c15 -15 16 -28 2 -28 -5 0 -10 8
-10 18 0 14 -2 15 -10 2 -8 -13 -10 -12 -10 3 0 20 11 22 28 5z m52 2 c0 -5
-2 -10 -4 -10 -3 0 -8 5 -11 10 -3 6 -1 10 4 10 6 0 11 -4 11 -10z m51 -33
c-13 -13 -15 1 -4 30 7 17 8 17 11 -1 2 -10 -1 -23 -7 -29z m59 36 c-1 -5 -7
-19 -15 -33 l-14 -25 -1 26 c0 14 3 29 7 32 9 9 23 9 23 0z m-99 -46 c-13 -13
-15 1 -4 30 7 17 8 17 11 -1 2 -10 -1 -23 -7 -29z m227 18 c-6 -14 -15 -25
-20 -25 -5 0 -7 3 -5 8 2 4 7 15 10 25 4 9 11 17 16 17 7 0 6 -9 -1 -25z m52
6 c0 -13 -29 -35 -37 -28 -7 8 15 37 28 37 5 0 9 -4 9 -9z m-240 -41 c0 -5 -2
-10 -4 -10 -3 0 -8 5 -11 10 -3 6 -1 10 4 10 6 0 11 -4 11 -10z m200 -14 c0
-2 -7 -7 -16 -10 -8 -3 -12 -2 -9 4 6 10 25 14 25 6z m439 -68 l18 -43 -26
-38 c-21 -30 -31 -37 -55 -35 -45 4 -42 23 8 48 l46 22 -35 32 c-43 41 -44 56
-5 56 27 0 33 -6 49 -42z m59 9 c4 -22 -27 -35 -39 -16 -5 8 -9 20 -9 27 0 20
44 10 48 -11z m-748 -24 c0 -20 -3 -24 -11 -16 -7 7 -9 19 -6 27 10 24 17 19
17 -11z m37 -3 c1 -16 -2 -32 -7 -35 -6 -4 -10 9 -10 29 0 43 14 48 17 6z
m1460 8 c57 -12 101 -23 99 -26 -5 -4 -207 36 -214 43 -9 9 10 6 115 -17z
m-1590 -10 c-3 -8 -6 -5 -6 6 -1 11 2 17 5 13 3 -3 4 -12 1 -19z m33 12 c0 -5
-5 -10 -11 -10 -5 0 -7 5 -4 10 3 6 8 10 11 10 2 0 4 -4 4 -10z m140 -45 c0
-13 -4 -26 -9 -29 -11 -7 -22 31 -14 50 8 20 23 7 23 -21z m100 7 c0 -15 -2
-15 -10 -2 -13 20 -13 33 0 25 6 -3 10 -14 10 -23z m-200 2 c0 -8 -4 -12 -10
-9 -5 3 -10 10 -10 16 0 5 5 9 10 9 6 0 10 -7 10 -16z m141 -10 c5 -15 7 -36
3 -47 -6 -19 -8 -19 -19 -4 -10 14 -9 77 1 77 3 0 9 -12 15 -26z m1516 10 c-3
-3 -12 -4 -19 -1 -8 3 -5 6 6 6 11 1 17 -2 13 -5z m-1467 -46 c0 -10 -4 -18
-10 -18 -5 0 -10 15 -10 33 0 24 3 28 10 17 5 -8 10 -23 10 -32z m90 -7 c-1
-25 -1 -25 -15 -7 -8 11 -15 29 -15 39 0 16 3 17 15 7 8 -7 15 -24 15 -39z
m1433 42 c-7 -2 -19 -2 -25 0 -7 3 -2 5 12 5 14 0 19 -2 13 -5z m-1480 -41
c-5 -12 -7 -12 -15 2 -11 20 1 44 12 25 5 -6 6 -19 3 -27z m519 12 c12 -11 -5
-44 -23 -44 -19 0 -27 29 -12 43 8 8 28 9 35 1z m-592 -58 c-14 -14 -22 -2
-14 18 5 14 9 15 15 4 4 -7 4 -17 -1 -22z m165 -5 c-10 -16 -25 -3 -25 22 0
20 1 20 16 5 9 -9 13 -21 9 -27z m-205 20 c0 -6 -4 -13 -10 -16 -5 -3 -10 1
-10 9 0 9 5 16 10 16 6 0 10 -4 10 -9z m94 -12 c-3 -5 -10 -7 -15 -3 -5 3 -7
10 -3 15 3 5 10 7 15 3 5 -3 7 -10 3 -15z m54 2 c3 -8 -1 -12 -9 -9 -7 2 -15
10 -17 17 -3 8 1 12 9 9 7 -2 15 -10 17 -17z m92 -27 c0 -8 -7 -14 -15 -14
-17 0 -18 2 -9 24 7 18 24 12 24 -10z m-225 6 c3 -5 1 -10 -4 -10 -6 0 -11 5
-11 10 0 6 2 10 4 10 3 0 8 -4 11 -10z m105 -10 c0 -5 -4 -10 -10 -10 -5 0
-10 5 -10 10 0 6 5 10 10 10 6 0 10 -4 10 -10z m60 0 c0 -5 -4 -10 -10 -10 -5
0 -10 5 -10 10 0 6 5 10 10 10 6 0 10 -4 10 -10z m1279 -126 c9 -8 -165 -3
-204 6 -26 6 1 7 80 3 66 -3 122 -7 124 -9z m74 -11 c-13 -2 -33 -2 -45 0 -13
2 -3 4 22 4 25 0 35 -2 23 -4z m294 -19 c-3 -3 -12 -4 -19 -1 -8 3 -5 6 6 6
11 1 17 -2 13 -5z m-22 -14 c19 -8 19 -9 -2 -9 -12 -1 -25 4 -28 9 -7 12 2 12
30 0z"/>
<path d="M9704 8358 l-29 -31 32 22 c35 23 50 41 35 41 -4 0 -21 -14 -38 -32z"/>
<path d="M11930 8293 c0 -3 11 -29 24 -57 13 -28 33 -73 44 -101 11 -27 23
-58 27 -68 7 -17 5 -17 -35 3 -23 12 -45 19 -48 15 -8 -7 37 -44 54 -45 14 0
56 -45 48 -52 -3 -4 1 -17 9 -30 19 -29 49 -210 51 -303 1 -47 6 -78 18 -95
46 -68 108 -291 88 -315 -7 -8 -9 -22 -6 -32 8 -28 -46 -99 -72 -96 -12 2 -22
-3 -22 -10 0 -8 -3 -8 -9 2 -10 16 -83 9 -89 -8 -2 -6 -17 -8 -33 -4 -19 3
-29 1 -29 -6 0 -7 -6 -11 -12 -10 -7 1 -34 -1 -59 -5 -42 -7 -45 -10 -41 -32
4 -24 69 -75 110 -88 25 -8 38 -36 17 -36 -8 0 -15 5 -15 10 0 6 -4 10 -10 10
-5 0 -9 -3 -9 -7 4 -22 -3 -24 -21 -8 -18 16 -20 16 -20 2 0 -24 -21 -21 -27
3 -3 11 -9 20 -14 20 -5 0 -9 -9 -9 -20 0 -27 -16 -25 -32 3 l-12 22 -6 -24
c-5 -22 -7 -23 -22 -8 -21 21 -28 21 -28 2 0 -8 -7 -15 -15 -15 -19 0 -19 2 6
44 51 86 -42 130 -113 53 -26 -29 -30 -30 -41 -16 -7 9 -21 18 -32 20 -12 3
-20 12 -20 24 0 28 -31 31 -74 7 -20 -11 -56 -25 -80 -32 -80 -21 -265 -50
-326 -51 -33 0 -107 -11 -165 -25 -62 -14 -85 -22 -56 -19 77 8 48 -4 -63 -25
-126 -25 -176 -24 -66 0 104 23 78 25 -38 3 -66 -13 -84 -19 -66 -24 13 -3
-12 -6 -56 -7 -44 0 -93 -3 -108 -7 -16 -4 -38 -3 -50 3 -60 29 -145 43 -132
22 3 -5 0 -10 -7 -11 -7 0 -4 -4 7 -9 l20 -9 -20 -2 c-11 -1 5 -5 35 -9 l55
-7 -60 -2 c-47 -2 -55 -4 -37 -11 12 -5 22 -12 22 -16 0 -3 -7 -4 -15 -1 -8 4
-17 2 -20 -2 -2 -5 4 -11 15 -14 24 -6 260 16 276 26 6 4 69 16 140 28 97 16
157 20 241 16 100 -3 114 -2 129 15 24 25 85 42 294 79 163 30 182 31 196 17
14 -14 13 -16 -15 -21 -21 -4 -35 -16 -43 -33 -11 -24 -9 -29 18 -54 31 -27
31 -27 13 -51 -35 -46 -19 -89 33 -89 15 0 28 -5 28 -10 0 -22 -57 -29 -263
-32 -197 -3 -217 -1 -235 15 -15 14 -27 17 -44 11 -26 -9 -25 -8 -97 -28 -67
-19 -296 -40 -364 -33 -48 4 -240 -22 -279 -38 -28 -11 -21 -26 10 -20 l27 6
-30 -16 -30 -15 29 5 c15 3 42 8 60 10 30 5 30 4 -4 -6 -19 -6 -44 -15 -55
-19 l-20 -9 20 0 c16 -1 17 -3 6 -10 -12 -8 -10 -11 10 -16 25 -6 119 37 119
55 0 4 18 12 40 18 28 7 38 7 33 -1 -4 -6 2 -8 18 -4 13 4 110 9 214 12 279 8
353 13 425 24 87 14 303 14 350 0 21 -7 50 -9 64 -5 22 5 25 11 20 31 -5 19
-2 25 10 25 9 0 19 7 22 15 8 19 34 19 48 0 18 -25 83 -31 106 -10 27 24 25
47 -6 84 -14 17 -23 35 -19 41 10 16 25 12 26 -7 0 -14 2 -15 6 -3 6 16 23 30
37 30 4 0 6 -7 3 -15 -4 -8 -2 -17 3 -20 6 -4 10 3 10 14 0 27 23 32 37 7 l12
-21 1 21 c0 12 7 24 15 28 9 3 15 0 15 -9 0 -8 5 -15 10 -15 6 0 10 7 10 15 0
18 30 20 30 3 0 -7 5 -5 11 5 5 9 14 17 19 17 22 0 7 -25 -44 -72 -34 -31 -55
-59 -58 -76 -4 -27 -2 -28 42 -27 25 0 51 4 58 8 7 5 12 4 12 -2 0 -15 33 -14
48 1 9 9 12 9 12 0 0 -7 9 -12 20 -12 11 0 20 4 20 10 0 5 -5 9 -11 7 -6 -1
-14 4 -16 11 -7 20 16 14 29 -8 7 -11 23 -20 36 -20 15 0 21 4 16 11 -4 7 -1
10 7 7 8 -3 22 -1 32 4 13 7 25 1 52 -25 19 -19 35 -41 35 -49 0 -8 7 -30 16
-48 13 -26 15 -49 10 -119 -9 -114 -25 -198 -42 -212 -8 -7 -10 -17 -5 -27 24
-48 33 -106 36 -243 4 -165 3 -169 -57 -229 -34 -34 -38 -62 -5 -34 12 10 28
25 34 33 24 28 25 2 3 -108 -27 -142 -20 -169 9 -36 12 55 26 118 31 140 18
76 20 111 21 392 0 165 6 323 13 380 11 82 11 101 0 114 -12 13 -12 18 1 35
14 18 14 18 15 -10 0 -20 3 -27 10 -20 7 7 6 29 -1 69 -8 46 -8 64 3 83 10 20
10 26 1 29 -33 11 7 67 52 76 17 3 32 -4 51 -24 23 -24 36 -29 75 -29 26 0 50
-4 53 -8 2 -4 32 -7 66 -6 93 2 140 45 140 129 0 51 -37 126 -70 143 -32 17
-108 9 -163 -17 -23 -11 -53 -22 -67 -25 -14 -3 -34 -19 -45 -36 -15 -23 -28
-30 -52 -30 -17 0 -33 5 -35 11 -3 8 -11 5 -22 -7 -18 -18 -18 -17 -12 3 4 12
2 24 -4 28 -8 5 -8 11 0 20 9 11 8 20 -4 37 -10 14 -16 44 -16 80 0 31 -4 60
-10 63 -6 4 -10 -6 -10 -22 0 -26 -1 -26 -17 -10 -15 14 -15 21 -5 37 9 16 8
28 -8 65 -34 80 -80 251 -80 299 0 25 -4 46 -10 46 -5 0 -10 8 -10 17 0 16
-67 302 -78 333 -3 8 -6 20 -8 27 -2 13 -19 50 -88 196 -41 86 -56 111 -56 90z
m122 -1192 c-8 -4 -13 -12 -12 -17 1 -5 -3 -10 -9 -12 -6 -2 -11 0 -11 5 0 12
22 33 35 33 5 0 4 -4 -3 -9z m38 -11 c0 -5 -4 -10 -10 -10 -5 0 -10 5 -10 10
0 6 5 10 10 10 6 0 10 -4 10 -10z m50 6 c0 -3 -4 -8 -10 -11 -5 -3 -10 -1 -10
4 0 6 5 11 10 11 6 0 10 -2 10 -4z m-150 -26 c0 -5 -4 -10 -10 -10 -5 0 -10 5
-10 10 0 6 5 10 10 10 6 0 10 -4 10 -10z m126 -15 c1 -8 -2 -13 -7 -9 -5 3 -9
12 -9 21 0 19 13 9 16 -12z m-181 5 c3 -5 -1 -10 -9 -10 -9 0 -16 5 -16 10 0
6 4 10 9 10 6 0 13 -4 16 -10z m145 1 c0 -12 -20 -25 -27 -18 -7 7 6 27 18 27
5 0 9 -4 9 -9z m-200 -27 c0 -14 -4 -23 -10 -19 -5 3 -10 15 -10 26 0 10 5 19
10 19 6 0 10 -12 10 -26z m141 13 c-1 -12 -15 -9 -19 4 -3 6 1 10 8 8 6 -3 11
-8 11 -12z m-41 -19 c0 -13 -23 -5 -28 10 -2 7 2 10 12 6 9 -3 16 -11 16 -16z
m-54 -15 c2 -13 2 -23 0 -23 -9 0 -36 32 -36 41 0 21 33 3 36 -18z m178 15 c3
-7 7 -26 10 -43 l6 -30 -20 24 c-21 25 -27 61 -10 61 6 0 12 -6 14 -12z m-39
-38 c7 -22 6 -23 -9 -11 -9 7 -16 23 -16 34 0 26 15 12 25 -23z m93 -6 c4 -33
-11 -24 -23 15 -5 17 -4 22 6 19 8 -3 15 -18 17 -34z m97 27 c3 -5 1 -12 -4
-15 -5 -3 -11 1 -15 9 -6 16 9 21 19 6z m-265 -52 c0 -13 -6 -11 -24 7 -9 8
-16 23 -16 32 1 14 5 12 20 -7 11 -13 20 -27 20 -32z m27 36 c9 -25 -4 -29
-17 -6 -7 15 -7 21 0 21 6 0 13 -7 17 -15z m182 -28 c0 -27 -2 -29 -9 -12 -12
28 -12 57 0 50 6 -3 10 -21 9 -38z m121 26 c0 -14 -2 -15 -9 -5 -6 11 -10 10
-15 -4 -3 -9 -9 -14 -13 -11 -7 8 15 37 28 37 5 0 9 -8 9 -17z m-80 -33 c0
-13 -1 -13 -10 0 -5 8 -10 22 -10 30 0 13 1 13 10 0 5 -8 10 -22 10 -30z
m-180 -18 c0 -15 -2 -15 -10 -2 -13 20 -13 33 0 25 6 -3 10 -14 10 -23z m-435
-22 c3 -6 -10 -25 -29 -44 -39 -36 -44 -46 -22 -46 23 0 70 -45 62 -58 -15
-25 -55 -13 -80 24 -23 34 -24 38 -9 79 10 31 21 45 36 48 12 2 25 5 29 6 4 0
10 -4 13 -9z m-97 -27 c-3 -30 -25 -42 -34 -19 -9 22 2 46 21 46 12 0 15 -8
13 -27z m815 -41 c-5 -22 -23 -31 -23 -12 0 10 23 40 27 36 1 -1 0 -12 -4 -24z
m-93 -9 c-1 -24 -2 -26 -11 -10 -5 9 -7 22 -4 27 10 17 15 11 15 -17z m58 -4
c-3 -8 -7 -3 -11 10 -4 17 -3 21 5 13 5 -5 8 -16 6 -23z m-278 12 c0 -5 -7
-12 -16 -15 -14 -5 -15 -4 -4 9 14 17 20 19 20 6z m150 -30 c0 -29 -14 -49
-23 -34 -8 12 4 63 14 63 5 0 9 -13 9 -29z m27 -8 c-3 -10 -5 -4 -5 12 0 17 2
24 5 18 2 -7 2 -21 0 -30z m-74 -43 c-3 -11 -9 -20 -13 -20 -15 0 -19 30 -8
62 l12 33 7 -27 c4 -15 5 -37 2 -48z m-1820 43 c-7 -2 -19 -2 -25 0 -7 3 -2 5
12 5 14 0 19 -2 13 -5z m1718 -46 c-13 -13 -15 11 -4 40 7 16 8 15 11 -6 2
-13 -1 -28 -7 -34z m50 0 c-18 -18 -25 1 -11 30 l14 28 4 -24 c2 -13 -1 -28
-7 -34z m-83 18 c-6 -14 -15 -25 -20 -25 -5 0 -7 3 -5 8 2 4 7 15 10 25 4 9
11 17 16 17 7 0 6 -9 -1 -25z m-454 -2 c7 -17 -11 -35 -29 -30 -5 2 -11 13
-13 25 -3 16 2 22 16 22 11 0 23 -8 26 -17z m411 -33 c-2 -26 -25 -52 -25 -28
0 22 11 48 19 48 4 0 7 -9 6 -20z m191 -27 c-11 -11 -19 6 -11 24 8 17 8 17
12 0 3 -10 2 -21 -1 -24z m-136 18 c0 -12 -20 -25 -27 -18 -7 7 6 27 18 27 5
0 9 -4 9 -9z m44 -12 c-3 -5 -10 -7 -15 -3 -5 3 -7 10 -3 15 3 5 10 7 15 3 5
-3 7 -10 3 -15z m53 -5 c-9 -9 -28 6 -21 18 4 6 10 6 17 -1 6 -6 8 -13 4 -17z
m-187 -20 c0 -8 -4 -14 -10 -14 -5 0 -10 9 -10 21 0 11 5 17 10 14 6 -3 10
-13 10 -21z m260 12 c0 -3 -4 -8 -10 -11 -5 -3 -10 -1 -10 4 0 6 5 11 10 11 6
0 10 -2 10 -4z m-215 -16 c-3 -5 -11 -10 -16 -10 -6 0 -7 5 -4 10 3 6 11 10
16 10 6 0 7 -4 4 -10z m65 0 c0 -5 -4 -10 -10 -10 -5 0 -10 5 -10 10 0 6 5 10
10 10 6 0 10 -4 10 -10z m100 0 c0 -5 -4 -10 -10 -10 -5 0 -10 5 -10 10 0 6 5
10 10 10 6 0 10 -4 10 -10z m-1302 -87 c-32 -2 -84 -2 -115 0 -32 2 -6 3 57 3
63 0 89 -1 58 -3z m-230 -10 c-10 -2 -26 -2 -35 0 -10 3 -2 5 17 5 19 0 27 -2
18 -5z m-255 -10 c-7 -2 -19 -2 -25 0 -7 3 -2 5 12 5 14 0 19 -2 13 -5z"/>
<path d="M514 5494 c4 -87 9 -170 11 -184 9 -48 45 -212 61 -273 9 -34 16 -73
16 -87 0 -13 6 -34 13 -45 17 -26 41 -136 56 -258 9 -74 16 -101 29 -109 10
-7 15 -19 12 -30 -6 -26 -19 -22 -30 10 -10 25 -10 25 -11 4 -1 -12 8 -41 20
-64 14 -28 19 -52 16 -75 -4 -24 -2 -33 9 -33 8 0 14 -10 14 -25 0 -16 -6 -25
-16 -25 -8 0 -13 -4 -9 -9 3 -6 -4 -15 -16 -21 -16 -9 -29 -8 -58 4 -54 21
-192 10 -253 -20 -78 -40 -79 -153 0 -236 42 -45 119 -33 201 30 20 15 45 32
56 37 11 6 28 27 37 48 17 34 59 59 75 44 3 -4 14 -2 24 4 14 7 17 6 13 -4 -3
-8 2 -17 12 -21 13 -5 14 -9 5 -20 -9 -11 -7 -20 14 -40 14 -14 25 -32 25 -40
0 -24 31 -96 41 -96 6 0 5 8 -1 19 -16 32 -13 43 10 29 14 -9 19 -20 16 -34
-4 -15 10 -45 43 -95 63 -94 131 -224 131 -249 0 -10 6 -23 14 -27 8 -4 15
-12 15 -16 0 -4 34 -73 75 -153 42 -80 76 -150 76 -155 0 -5 5 -9 10 -9 6 0
10 -5 10 -11 0 -11 98 -141 159 -211 61 -70 43 -32 -32 68 -41 55 -74 100 -72
102 1 1 23 -2 48 -7 26 -4 47 -5 47 -1 0 9 -46 30 -66 30 -19 0 -64 30 -64 43
0 5 -6 15 -14 21 -17 13 -105 215 -118 271 -5 22 -9 49 -9 61 0 12 -13 30 -30
43 -61 45 -173 245 -162 289 3 14 1 27 -6 31 -17 11 24 101 49 108 11 3 20 10
20 17 0 7 3 7 8 -1 4 -7 17 -10 30 -6 12 3 19 10 15 16 -4 6 0 8 10 4 9 -3 22
-1 29 6 7 7 19 12 26 13 28 2 32 5 32 19 0 9 6 15 13 13 6 -1 31 7 54 18 39
18 41 21 29 43 -13 23 -71 50 -111 51 -35 1 -74 40 -40 40 8 0 15 -4 15 -10 0
-5 5 -10 11 -10 6 0 9 7 5 15 -7 18 15 20 32 3 9 -9 12 -8 12 5 0 22 26 22 40
0 10 -15 11 -14 7 10 -5 31 0 33 32 11 22 -16 23 -16 16 5 -5 17 -2 21 14 21
12 0 21 -7 21 -15 0 -8 5 -15 11 -15 6 0 8 9 4 20 -5 14 -2 20 9 20 19 0 20
-9 6 -44 -25 -66 45 -107 98 -58 15 14 27 32 27 41 0 9 8 16 18 15 75 -3 78
-4 75 -21 -5 -31 39 -28 77 6 19 16 54 41 77 54 62 36 228 105 294 122 32 8
89 30 128 49 137 66 334 154 382 171 27 9 55 21 62 27 8 7 49 11 104 9 61 -1
88 1 83 8 -3 6 0 11 7 12 7 1 2 5 -12 9 -16 5 -19 8 -8 9 9 1 19 5 22 10 3 4
-7 6 -22 4 -25 -3 -26 -3 -4 6 31 14 28 24 -5 17 l-28 -5 29 13 c18 8 24 16
17 20 -14 9 -231 -64 -293 -99 -106 -59 -296 -125 -400 -140 -33 -4 -51 -12
-58 -26 -16 -28 -78 -65 -225 -132 -167 -76 -222 -94 -236 -80 -8 8 -3 15 18
25 19 9 29 22 31 41 3 22 -3 31 -32 48 -35 21 -35 21 -20 51 14 27 14 32 -1
55 -15 22 -21 24 -56 18 -32 -6 -38 -4 -33 8 8 21 51 37 234 88 112 31 175 43
225 44 42 0 80 6 96 15 90 51 136 72 229 103 58 19 132 40 165 46 33 7 69 16
80 21 82 37 165 70 173 70 13 0 36 29 29 36 -3 3 -23 -4 -46 -15 -22 -12 -44
-21 -48 -21 -4 1 14 12 40 26 27 14 47 28 44 30 -3 3 -23 -4 -46 -16 -23 -11
-41 -18 -41 -15 0 2 18 14 40 25 44 22 53 35 18 25 -22 -7 -22 -6 -4 7 17 14
18 15 1 21 -21 9 -65 -22 -101 -68 -23 -30 -94 -79 -79 -54 8 13 -1 11 -33 -5
-15 -7 -89 -30 -164 -51 -76 -21 -136 -40 -134 -43 2 -2 39 6 81 18 42 12 79
19 83 16 3 -3 2 -6 -1 -6 -4 0 -44 -11 -89 -24 -46 -13 -96 -26 -113 -29 l-30
-6 30 14 c39 18 24 18 -50 -1 -105 -27 -119 -31 -175 -57 -92 -41 -269 -88
-357 -94 -57 -4 -87 -11 -95 -21 -10 -12 -10 -16 0 -19 17 -6 15 -30 -3 -37
-8 -3 -15 -12 -15 -21 0 -17 -35 -21 -45 -5 -11 17 -80 12 -98 -8 -29 -32 -22
-70 18 -93 38 -23 43 -34 20 -43 -9 -3 -15 0 -15 9 0 8 -5 15 -11 15 -6 0 -9
-6 -6 -14 3 -8 -1 -20 -8 -26 -12 -10 -17 -8 -24 11 l-10 24 0 -27 c-1 -35
-18 -45 -37 -22 -13 16 -15 16 -10 2 2 -9 -2 -22 -10 -28 -10 -9 -14 -9 -14
-1 0 19 -18 12 -25 -10 -7 -19 -7 -20 -21 -2 -12 16 -13 16 -14 2 0 -21 -30
-48 -30 -28 -1 9 -5 8 -15 -5 -8 -11 -15 -15 -15 -9 0 14 25 34 33 26 4 -3 7
3 7 14 0 11 9 28 20 38 11 10 20 24 20 30 0 7 7 18 15 25 8 7 15 28 15 46 0
32 -1 33 -26 24 -14 -6 -36 -10 -50 -10 -13 0 -24 -5 -24 -10 0 -6 -11 -8 -25
-4 -17 4 -27 1 -31 -9 -3 -9 -13 -13 -26 -9 -11 3 -24 -1 -29 -9 -6 -10 -9
-10 -9 -2 0 16 -46 0 -73 -25 -17 -15 -21 -15 -63 7 -24 13 -44 28 -44 34 0 6
-9 20 -20 31 -37 41 -80 279 -59 334 8 21 7 29 -5 38 -9 6 -16 16 -16 23 0 6
-7 23 -16 36 -19 29 -72 200 -84 273 -9 51 2 112 20 112 9 0 32 61 26 68 -3 2
-17 -15 -33 -39 l-28 -43 -7 45 c-3 24 -7 81 -7 126 -1 51 -5 85 -13 89 -8 5
-10 -32 -4 -152z m1891 -524 c-27 -12 -43 -12 -25 0 8 5 22 9 30 9 10 0 8 -3
-5 -9z m-48 -16 c-3 -3 -12 -4 -19 -1 -8 3 -5 6 6 6 11 1 17 -2 13 -5z m370
-120 c-3 -3 -12 -4 -19 -1 -8 3 -5 6 6 6 11 1 17 -2 13 -5z m6 -21 c-7 -2 -19
-2 -25 0 -7 3 -2 5 12 5 14 0 19 -2 13 -5z m-263 -93 c-8 -5 -19 -10 -25 -10
-5 0 -3 5 5 10 8 5 20 10 25 10 6 0 3 -5 -5 -10z m-60 -25 c-46 -26 -211 -97
-216 -92 -3 2 46 27 108 55 109 49 160 67 108 37z m-870 -130 c-12 -14 -15
-14 -32 2 -18 16 -18 18 -2 30 15 11 21 11 33 -1 12 -12 12 -18 1 -31z m-44
-13 c27 -24 30 -32 26 -70 -3 -31 -11 -47 -28 -58 -49 -33 -50 9 -1 64 11 12
19 22 16 23 -102 19 -134 60 -54 68 6 0 24 -12 41 -27z m-356 -4 c0 -19 -2
-20 -10 -8 -13 19 -13 30 0 30 6 0 10 -10 10 -22z m-50 2 c0 -5 -5 -10 -11
-10 -5 0 -7 5 -4 10 3 6 8 10 11 10 2 0 4 -4 4 -10z m-56 -21 c-3 -5 -10 -7
-15 -3 -5 3 -7 10 -3 15 3 5 10 7 15 3 5 -3 7 -10 3 -15z m81 -26 c-7 -27 -7
-28 -16 -5 -10 27 -1 58 14 43 5 -5 6 -22 2 -38z m-134 24 c-1 -12 -15 -9 -19
4 -3 6 1 10 8 8 6 -3 11 -8 11 -12z m82 -22 c-5 -13 -23 -22 -23 -11 0 15 14
35 21 31 4 -3 6 -12 2 -20z m-133 5 c0 -5 -4 -10 -10 -10 -5 0 -10 5 -10 10 0
6 5 10 10 10 6 0 10 -4 10 -10z m81 -13 c-1 -12 -15 -9 -19 4 -3 6 1 10 8 8 6
-3 11 -8 11 -12z m-121 -7 c0 -5 -4 -10 -10 -10 -5 0 -10 5 -10 10 0 6 5 10
10 10 6 0 10 -4 10 -10z m78 -9 c3 -8 -1 -12 -9 -9 -7 2 -15 10 -17 17 -3 8 1
12 9 9 7 -2 15 -10 17 -17z m615 0 c6 -24 0 -31 -25 -31 -13 0 -18 7 -18 25 0
31 35 35 43 6z m-663 -12 c0 -11 -4 -17 -10 -14 -5 3 -10 13 -10 21 0 8 5 14
10 14 6 0 10 -9 10 -21z m151 -26 c-9 -16 -10 -16 -11 -1 0 9 3 25 7 35 7 16
8 17 11 1 2 -10 -1 -25 -7 -35z m-111 -29 c0 -19 -4 -34 -9 -34 -10 0 -21 35
-21 69 0 20 2 21 15 11 8 -7 15 -28 15 -46z m40 26 c0 -10 -4 -21 -9 -24 -10
-7 -23 33 -15 46 8 13 24 -1 24 -22z m40 3 c0 -22 -2 -25 -10 -13 -13 20 -13
40 0 40 6 0 10 -12 10 -27z m-124 -48 c4 -14 3 -29 0 -33 -9 -8 -26 18 -26 41
0 26 19 20 26 -8z m-34 -45 c6 -37 -8 -27 -18 14 -4 19 -3 27 3 23 6 -4 13
-20 15 -37z m-62 10 c0 -5 -4 -10 -10 -10 -5 0 -10 5 -10 10 0 6 5 10 10 10 6
0 10 -4 10 -10z m30 -26 c0 -8 -4 -12 -10 -9 -5 3 -10 13 -10 21 0 8 5 12 10
9 6 -3 10 -13 10 -21z m-98 -36 c-6 -6 -7 0 -4 19 5 21 7 23 10 9 2 -10 0 -22
-6 -28z m38 21 c0 -6 -4 -7 -10 -4 -5 3 -10 11 -10 16 0 6 5 7 10 4 6 -3 10
-11 10 -16z m270 -34 c6 -8 9 -19 6 -24 -4 -5 -2 -12 4 -16 13 -8 13 -35 0
-35 -14 0 -30 44 -18 49 5 1 2 12 -8 22 -9 10 -12 19 -7 19 6 0 16 -7 23 -15z
m91 -6 c11 -11 18 -23 16 -26 -8 -8 -44 15 -51 32 -8 22 10 19 35 -6z m-43
-11 c14 -14 16 -28 2 -28 -5 0 -14 9 -20 20 -12 22 -1 27 18 8z m-128 -64 c0
-16 -2 -16 -14 -4 -7 8 -17 28 -21 45 l-7 30 21 -27 c12 -14 21 -34 21 -44z
m238 43 c5 -24 -15 -21 -28 4 -10 18 -9 20 7 17 10 -2 19 -11 21 -21z m34 -19
c-8 -8 -12 -9 -12 -1 0 6 -3 20 -6 30 -7 17 -6 17 12 1 14 -14 16 -20 6 -30z
m-321 -10 c5 -10 6 -18 1 -18 -5 0 -14 11 -20 25 -22 49 -11 44 19 -7z m109
-22 c0 -20 0 -20 -19 -1 -10 11 -22 31 -26 45 l-7 25 26 -24 c14 -14 26 -34
26 -45z m-152 3 c-5 -3 -9 -9 -9 -13 2 -11 -13 -8 -17 3 -2 6 1 11 7 11 7 0 9
11 6 28 l-6 27 15 -25 c9 -16 11 -27 4 -31z m280 22 c3 -8 -1 -12 -9 -9 -7 2
-15 10 -17 17 -3 8 1 12 9 9 7 -2 15 -10 17 -17z m-48 -22 c0 -5 -4 -9 -10 -9
-5 0 -10 7 -10 16 0 8 5 12 10 9 6 -3 10 -10 10 -16z m90 11 c0 -5 -4 -10 -10
-10 -5 0 -10 5 -10 10 0 6 5 10 10 10 6 0 10 -4 10 -10z m-383 -25 c-7 -17
-27 -21 -27 -4 0 5 5 7 10 4 6 -3 10 2 10 11 0 10 3 15 6 11 4 -3 4 -13 1 -22z
m243 -6 c0 -11 -4 -17 -10 -14 -5 3 -10 13 -10 21 0 8 5 14 10 14 6 0 10 -9
10 -21z m85 11 c3 -5 1 -10 -4 -10 -6 0 -11 5 -11 10 0 6 2 10 4 10 3 0 8 -4
11 -10z m-125 -31 c0 -5 -4 -9 -10 -9 -5 0 -10 7 -10 16 0 8 5 12 10 9 6 -3
10 -10 10 -16z m80 0 c0 -5 -4 -9 -10 -9 -5 0 -10 7 -10 16 0 8 5 12 10 9 6
-3 10 -10 10 -16z m-50 -19 c0 -5 -2 -10 -4 -10 -3 0 -8 5 -11 10 -3 6 -1 10
4 10 6 0 11 -4 11 -10z m-40 -10 c0 -5 -4 -10 -10 -10 -5 0 -10 5 -10 10 0 6
5 10 10 10 6 0 10 -4 10 -10z"/>
<path d="M12228 5470 c-4 -14 -8 -46 -8 -71 0 -25 -3 -74 -6 -108 l-7 -61 -33
37 c-37 42 -49 25 -14 -19 28 -36 42 -76 29 -84 -6 -3 -8 -13 -4 -22 7 -19
-71 -257 -96 -293 -10 -14 -16 -29 -12 -32 3 -4 -2 -9 -11 -13 -14 -5 -16 -15
-11 -49 13 -81 -38 -316 -70 -329 -8 -3 -15 -13 -15 -23 -1 -25 -87 -68 -105
-53 -8 7 -19 9 -25 5 -6 -4 -9 -1 -8 5 2 7 -7 16 -19 21 -16 6 -23 5 -23 -4 0
-7 -7 -4 -15 6 -9 13 -20 17 -36 12 -13 -4 -19 -3 -15 3 3 5 -3 12 -14 15 -10
3 -21 0 -24 -7 -3 -8 -7 -8 -13 0 -4 7 -24 16 -43 22 -19 5 -42 13 -50 16 -11
5 -16 -2 -17 -24 -2 -29 20 -78 59 -129 23 -31 25 -59 3 -41 -9 7 -14 19 -11
27 3 7 1 13 -4 13 -6 0 -10 -4 -10 -10 0 -19 -21 -10 -29 13 -8 20 -10 21 -16
4 -6 -15 -10 -16 -16 -5 -5 7 -6 21 -3 31 3 9 1 17 -5 17 -5 0 -13 -9 -16 -21
-5 -16 -9 -18 -21 -8 -8 7 -12 20 -9 30 4 11 2 19 -4 19 -6 0 -11 -7 -11 -16
0 -9 -6 -14 -12 -11 -7 2 -13 14 -12 26 1 24 -11 28 -23 6 -6 -9 -13 -11 -23
-5 -10 6 -5 13 23 30 47 28 57 63 28 94 -24 26 -78 29 -104 7 -18 -14 -37 -7
-37 15 0 8 -7 17 -15 20 -18 7 -20 31 -2 37 9 3 8 9 -4 21 -11 12 -37 18 -86
21 -79 5 -291 68 -383 115 -30 16 -75 34 -100 40 -25 7 -72 21 -104 31 -82 26
-93 23 -21 -6 33 -13 56 -24 50 -24 -15 -1 -268 80 -263 84 2 3 33 -4 69 -15
35 -11 69 -20 74 -19 11 0 -233 85 -285 99 -21 5 -47 24 -68 49 -30 37 -64 58
-46 29 4 -7 3 -8 -5 -4 -6 4 -9 11 -6 16 8 13 -21 31 -40 24 -16 -6 -15 -9 6
-26 l24 -19 -23 11 c-13 6 -26 9 -29 7 -3 -3 13 -15 36 -27 23 -11 41 -23 41
-25 0 -3 -18 4 -41 15 -23 12 -43 19 -46 16 -3 -2 13 -14 36 -26 55 -28 52
-34 -5 -9 -25 12 -48 19 -50 16 -10 -9 36 -35 116 -66 47 -18 89 -37 94 -42 6
-5 20 -9 33 -9 55 0 355 -112 398 -148 44 -37 84 -53 105 -42 14 8 37 6 87 -5
82 -19 303 -88 356 -112 47 -20 50 -44 4 -36 -24 4 -37 0 -51 -16 -17 -19 -18
-33 -1 -73 5 -12 -1 -21 -23 -32 -16 -8 -32 -23 -36 -31 -8 -22 9 -52 35 -60
28 -9 18 -31 -14 -27 -28 3 -321 142 -378 179 -20 13 -41 34 -47 47 -8 19 -21
25 -63 31 -94 13 -282 86 -391 152 -32 19 -65 36 -75 38 -24 5 -109 34 -151
51 -38 16 -72 18 -72 5 0 -5 8 -12 18 -14 12 -3 10 -5 -8 -7 -19 -1 -12 -7 30
-21 47 -16 50 -18 17 -13 -21 3 -46 8 -55 10 -13 4 -13 2 3 -11 20 -17 20 -17
-3 -10 -22 6 -23 5 -12 -15 12 -22 16 -23 101 -17 70 5 91 4 103 -8 8 -8 21
-15 28 -15 8 0 122 -53 254 -118 131 -65 264 -127 294 -137 103 -34 298 -134
335 -170 42 -42 90 -53 90 -20 0 15 6 19 22 17 12 -2 24 2 27 7 9 15 36 2 36
-17 0 -24 50 -72 75 -72 49 0 68 39 51 103 -7 22 -5 27 9 27 12 0 15 -5 10
-20 -4 -11 -2 -20 4 -20 6 0 11 4 11 9 0 5 9 11 20 14 17 4 19 1 14 -21 -5
-25 -4 -25 9 -9 21 26 46 22 39 -5 -5 -22 -4 -22 15 -5 26 23 33 22 34 -5 0
-13 3 -17 6 -10 2 6 13 12 24 12 12 0 16 -5 13 -15 -4 -8 -1 -15 5 -15 6 0 11
5 11 10 0 6 7 10 17 10 15 0 15 -1 0 -18 -9 -10 -43 -24 -76 -31 -37 -8 -67
-22 -79 -36 l-19 -22 46 -23 c25 -13 52 -23 60 -21 7 1 10 -2 7 -8 -4 -5 2
-15 13 -20 14 -8 20 -8 24 2 2 7 8 3 16 -11 13 -25 70 -52 110 -52 24 0 29 -6
43 -50 9 -27 12 -52 7 -55 -4 -3 -8 -21 -7 -39 2 -44 -80 -184 -149 -254 -30
-30 -50 -58 -47 -66 3 -8 1 -17 -5 -21 -6 -3 -11 -17 -11 -31 0 -30 -95 -240
-121 -270 -11 -11 -19 -24 -19 -29 0 -14 -34 -34 -57 -35 -28 0 -73 -20 -73
-33 0 -5 11 -6 25 -3 14 3 37 9 51 12 25 6 23 2 -26 -62 -30 -38 -74 -95 -99
-126 -25 -31 -71 -98 -101 -147 -30 -50 -58 -90 -62 -91 -5 0 -8 15 -8 33 0
41 -19 74 -21 37 -1 -14 -1 -43 0 -66 2 -27 -3 -45 -13 -53 -9 -8 -16 -19 -16
-26 0 -23 -252 -245 -278 -245 -5 0 -12 -13 -15 -28 -13 -64 -174 -262 -214
-262 -13 0 -26 -7 -29 -15 -5 -11 -21 -15 -59 -15 -47 0 -55 3 -61 23 -11 38
-33 56 -65 52 -21 -3 -29 0 -29 11 0 11 6 13 22 8 20 -6 21 -5 9 10 -8 9 -16
14 -19 11 -3 -3 -10 5 -17 18 -7 13 -18 21 -29 19 -14 -3 -17 1 -13 12 4 9 3
16 -2 16 -4 0 -21 13 -36 29 -28 27 -29 28 -48 10 -18 -16 -19 -27 -14 -98 4
-44 2 -83 -2 -86 -14 -8 -21 21 -8 35 9 10 7 11 -12 5 -22 -7 -23 -5 -17 20 6
23 4 26 -14 20 -23 -7 -28 13 -8 33 15 15 3 16 -23 2 -16 -9 -19 -7 -19 9 0
11 5 23 10 26 6 3 10 11 10 17 0 6 -8 4 -18 -5 -10 -10 -21 -17 -24 -17 -9 0
-6 35 5 48 6 8 6 12 -1 12 -6 0 -14 -5 -18 -11 -4 -8 -9 -7 -15 2 -12 20 -1
29 35 29 45 0 73 31 60 67 -11 32 -60 61 -91 55 -13 -2 -23 0 -24 4 0 5 -2 26
-4 47 -3 27 0 37 10 37 8 0 15 6 15 13 0 22 -23 44 -65 63 -46 21 -235 206
-286 279 -19 28 -93 107 -166 177 -72 69 -157 155 -189 190 -32 34 -69 72 -83
84 -13 11 -24 29 -25 40 -3 30 -18 76 -34 108 l-14 30 -13 -24 c-12 -22 -13
-22 -23 -4 -6 10 -12 14 -12 9 0 -6 11 -27 25 -47 35 -52 31 -60 -5 -10 -33
46 -48 55 -29 20 12 -23 12 -23 -10 -4 -18 17 -21 17 -21 3 0 -9 32 -53 70
-98 39 -44 70 -84 70 -88 0 -4 20 -22 44 -39 53 -38 223 -227 251 -279 51 -94
59 -103 87 -103 21 0 58 -30 178 -147 138 -134 190 -196 176 -210 -3 -3 -17 4
-31 15 -41 33 -85 10 -85 -44 0 -32 -1 -33 -30 -27 -22 4 -36 0 -50 -12 -24
-22 -25 -38 -4 -69 10 -17 12 -26 4 -31 -15 -9 -72 53 -160 175 -110 152 -139
201 -140 235 -1 24 -10 37 -48 65 -26 19 -64 53 -85 75 -52 54 -175 212 -194
249 -21 41 -183 206 -202 206 -10 0 -1 -15 24 -42 l40 -42 -38 32 c-53 45 -59
40 -12 -10 l40 -41 -47 37 c-27 21 -49 34 -49 30 -8 -52 -6 -55 42 -80 27 -13
53 -24 60 -24 6 0 24 -11 41 -25 16 -14 27 -25 23 -25 -3 0 18 -30 47 -67 68
-86 172 -228 231 -316 26 -38 58 -78 71 -88 27 -21 140 -162 195 -243 19 -26
42 -71 52 -99 10 -28 24 -54 31 -59 20 -12 38 -9 38 7 0 17 16 20 25 5 3 -5
18 -10 32 -10 22 0 25 -3 20 -27 -14 -67 43 -130 92 -104 11 7 23 24 27 39 3
15 9 35 13 46 6 17 8 17 20 2 9 -11 10 -16 2 -16 -6 0 -11 -5 -11 -10 0 -6 6
-10 13 -9 6 1 21 1 32 0 19 -2 19 -2 3 -15 -25 -19 -22 -23 12 -18 29 4 41
-10 20 -23 -5 -3 -10 -11 -10 -17 0 -7 5 -6 15 2 17 14 36 5 28 -15 -3 -10 2
-15 17 -15 16 0 20 -4 15 -19 -5 -15 -2 -18 13 -14 11 2 23 -1 27 -8 6 -9 -6
-10 -54 -5 -35 4 -73 11 -86 16 -15 6 -29 4 -42 -5 -11 -8 -24 -11 -28 -7 -5
4 4 -9 18 -29 15 -20 27 -41 27 -47 0 -7 7 -12 15 -12 9 0 15 -6 14 -12 -3
-27 2 -38 16 -38 8 0 15 -7 15 -15 0 -9 7 -18 16 -22 9 -3 12 -9 7 -12 -5 -3
3 -17 16 -31 13 -14 21 -19 17 -12 -4 6 -2 12 3 12 6 0 11 -6 11 -14 0 -8 7
-17 16 -20 13 -5 15 -14 9 -44 -4 -20 -8 -43 -9 -51 -2 -7 -10 -17 -19 -23 -9
-5 -17 -15 -17 -23 0 -33 -240 -175 -296 -175 -13 0 -24 -4 -24 -8 0 -26 -189
-186 -283 -240 -38 -22 -87 -29 -101 -15 -11 11 -76 12 -76 2 0 -4 17 -11 38
-15 20 -4 42 -9 49 -13 10 -5 -81 -51 -191 -96 -69 -29 -29 -28 46 0 136 52
236 103 384 200 82 54 159 101 171 106 13 5 23 13 23 18 0 15 106 85 219 145
70 37 97 57 99 72 2 15 10 22 28 22 30 0 31 -11 2 -31 -14 -9 -17 -16 -9 -16
7 -1 34 19 59 44 27 27 54 45 69 45 16 0 23 6 23 20 0 14 7 20 21 20 12 0 17
4 14 11 -4 6 -13 8 -20 5 -7 -2 -16 2 -19 11 -7 17 1 33 16 33 6 0 5 -7 -3
-17 -12 -15 -12 -16 4 -10 9 3 17 2 17 -4 0 -6 5 -7 10 -4 6 4 10 3 9 -2 -3
-19 2 -33 13 -33 27 0 47 -31 41 -67 -4 -25 0 -48 14 -77 12 -22 27 -54 34
-70 8 -17 30 -47 50 -68 31 -33 42 -38 80 -38 53 0 107 32 138 83 26 43 27 83
2 123 -19 31 -80 84 -96 84 -5 0 -21 11 -35 25 -17 16 -40 26 -68 29 -45 4
-80 35 -66 58 5 7 2 9 -8 6 -12 -5 -13 -1 -4 28 9 28 14 32 33 28 18 -5 23 -2
23 13 0 20 9 31 73 84 21 17 35 34 32 37 -3 3 -14 -3 -25 -13 -20 -18 -20 -17
-20 8 0 21 5 27 23 27 17 0 37 21 81 82 33 45 96 120 142 167 108 114 188 202
254 281 30 36 61 71 68 79 7 7 22 29 33 50 44 81 130 218 151 241 75 83 197
237 219 278 14 26 53 97 87 158 34 61 62 116 62 122 0 5 7 12 15 16 8 3 15 11
15 18 0 26 59 135 123 231 51 74 66 104 61 121 -4 18 -1 25 15 29 24 6 28 -11
9 -32 -11 -11 -10 -13 2 -9 8 2 23 29 33 59 10 30 27 62 38 71 13 11 18 24 14
37 -3 12 0 21 10 24 9 4 12 13 9 24 -3 11 0 9 8 -5 10 -15 17 -19 24 -12 19
19 61 -5 69 -38 6 -30 58 -76 148 -131 46 -28 105 -31 143 -7 36 24 64 90 64
153 0 47 -3 54 -32 76 -44 32 -59 37 -156 48 -68 8 -88 7 -112 -6 -23 -12 -34
-13 -55 -3 -14 6 -25 18 -25 25 0 8 -4 11 -10 8 -5 -3 -10 0 -10 9 0 8 -3 21
-6 29 -3 9 2 16 14 19 15 4 18 12 15 35 -3 19 3 42 16 64 12 19 21 45 20 59
l0 25 -10 -25 c-10 -23 -11 -24 -21 -7 -8 15 -5 23 11 38 13 12 21 32 21 51 0
56 51 282 71 314 13 22 16 35 9 39 -7 4 -8 11 -1 18 5 7 23 71 40 142 18 72
36 146 41 165 16 62 31 233 28 310 -2 52 -5 67 -10 50z m-2198 -740 c18 -12 2
-12 -25 0 -13 6 -15 9 -5 9 8 0 22 -4 30 -9z m376 -175 c64 -30 115 -58 112
-61 -3 -3 -59 22 -124 55 -66 33 -116 60 -112 60 3 1 59 -24 124 -54z m808
-91 c20 -8 20 -28 1 -44 -21 -17 -39 1 -30 29 7 23 7 23 29 15z m87 -34 c10
-6 19 -14 19 -18 0 -10 -59 -32 -84 -32 -15 0 -13 -6 10 -46 30 -50 23 -70
-16 -51 -20 10 -26 21 -28 58 -3 41 0 49 28 73 35 29 43 31 71 16z m319 -34
c15 -29 5 -71 -10 -46 -5 8 -7 24 -3 35 5 17 4 18 -11 6 -14 -12 -16 -11 -16
8 0 28 24 27 40 -3z m35 4 c3 -5 2 -10 -4 -10 -5 0 -13 5 -16 10 -3 6 -2 10 4
10 5 0 13 -4 16 -10z m55 -20 c0 -5 -2 -10 -4 -10 -3 0 -8 5 -11 10 -3 6 -1
10 4 10 6 0 11 -4 11 -10z m58 -11 c-2 -6 -8 -10 -13 -10 -5 0 -11 4 -13 10
-2 6 4 11 13 11 9 0 15 -5 13 -11z m-88 -15 c0 -8 -4 -12 -10 -9 -5 3 -10 10
-10 16 0 5 5 9 10 9 6 0 10 -7 10 -16z m-500 -20 c0 -33 -33 -30 -38 4 -3 17
2 22 17 22 16 0 21 -6 21 -26z m550 11 c0 -8 -4 -15 -10 -15 -5 0 -10 7 -10
15 0 8 5 15 10 15 6 0 10 -7 10 -15z m80 5 c0 -5 -2 -10 -4 -10 -3 0 -8 5 -11
10 -3 6 -1 10 4 10 6 0 11 -4 11 -10z m-31 -26 c-14 -18 -24 -11 -15 11 3 9
11 13 16 10 8 -5 7 -11 -1 -21z m-119 -27 c0 -24 -3 -28 -10 -17 -13 20 -13
63 0 55 6 -3 10 -21 10 -38z m152 11 c-7 -7 -12 -8 -12 -2 0 14 12 26 19 19 2
-3 -1 -11 -7 -17z m-112 -8 c0 -11 -4 -20 -10 -20 -5 0 -10 9 -10 20 0 11 5
20 10 20 6 0 10 -9 10 -20z m50 -2 c0 -7 -4 -19 -9 -26 -7 -11 -10 -10 -15 3
-3 9 -4 21 0 26 8 13 24 11 24 -3z m37 -46 c-8 -17 -13 -19 -19 -10 -11 19
-10 42 4 56 18 18 28 -16 15 -46z m-68 -15 c0 -21 -1 -21 -9 -2 -12 28 -12 37
0 30 6 -3 10 -16 9 -28z m97 -34 l-15 -28 4 38 c5 47 19 71 23 40 2 -12 -4
-34 -12 -50z m38 -7 c-3 -14 -10 -26 -15 -26 -5 0 -6 7 -4 15 3 8 7 22 10 31
9 27 17 9 9 -20z m66 3 c0 -5 -4 -9 -10 -9 -5 0 -10 7 -10 16 0 8 5 12 10 9 6
-3 10 -10 10 -16z m-45 -37 c-10 -10 -16 -12 -13 -7 3 6 8 19 13 30 5 14 9 16
12 7 3 -8 -3 -21 -12 -30z m-235 8 c0 -5 -8 -10 -17 -10 -15 0 -16 2 -3 10 19
12 20 12 20 0z m327 -12 c-3 -8 -6 -5 -6 6 -1 11 2 17 5 13 3 -3 4 -12 1 -19z
m-17 8 c0 -3 -4 -8 -10 -11 -5 -3 -10 -1 -10 4 0 6 5 11 10 11 6 0 10 -2 10
-4z m-350 -36 c-8 -6 -23 -15 -33 -21 -17 -9 -17 -8 -7 10 6 12 21 21 33 21
18 0 19 -2 7 -10z m75 -16 c-2 -26 -30 -62 -40 -52 -3 3 4 17 16 31 11 15 18
27 14 27 -3 0 -3 5 0 10 10 16 13 12 10 -16z m-142 -4 c-3 -12 -14 -20 -26
-20 -19 0 -20 1 -2 20 10 11 21 20 26 20 4 0 5 -9 2 -20z m95 0 c-13 -20 -28
-27 -28 -12 0 10 22 32 32 32 5 0 3 -9 -4 -20z m-148 -15 c0 -8 -4 -15 -10
-15 -5 0 -10 7 -10 15 0 8 5 15 10 15 6 0 10 -7 10 -15z m238 -15 c-5 -17 -14
-32 -18 -35 -4 -3 -6 -14 -3 -24 3 -10 -1 -22 -8 -26 -9 -6 -11 -2 -7 13 4 12
2 22 -3 22 -16 0 -10 26 12 54 27 35 40 33 27 -4z m-143 1 c-3 -6 -14 -11 -23
-11 -15 1 -15 2 2 15 21 16 32 13 21 -4z m185 -20 c-12 -23 -30 -28 -30 -9 0
16 34 52 38 39 2 -5 -2 -19 -8 -30z m44 9 c-10 -16 -20 -27 -23 -25 -6 7 21
55 31 55 5 0 1 -13 -8 -30z m36 -10 c-7 -14 -7 -20 0 -20 5 0 10 -4 10 -10 0
-18 -18 -11 -25 10 -7 22 0 40 16 40 6 0 6 -8 -1 -20z m-313 4 c-3 -3 -12 -4
-19 -1 -8 3 -5 6 6 6 11 1 17 -2 13 -5z m93 -3 c0 -12 -20 -25 -27 -18 -7 7 6
27 18 27 5 0 9 -4 9 -9z m-45 -21 c3 -5 -1 -10 -9 -10 -9 0 -16 5 -16 10 0 6
4 10 9 10 6 0 13 -4 16 -10z m81 -27 c-11 -11 -19 6 -11 24 8 17 8 17 12 0 3
-10 2 -21 -1 -24z m244 28 c0 -6 -4 -13 -10 -16 -5 -3 -10 1 -10 9 0 9 5 16
10 16 6 0 10 -4 10 -9z m12 -23 c-7 -7 -12 -8 -12 -2 0 14 12 26 19 19 2 -3
-1 -11 -7 -17z m-296 -15 c-10 -10 -19 5 -10 18 6 11 8 11 12 0 2 -7 1 -15 -2
-18z m54 -13 c0 -5 -4 -10 -10 -10 -5 0 -10 5 -10 10 0 6 5 10 10 10 6 0 10
-4 10 -10z m40 -10 c0 -5 -5 -10 -11 -10 -5 0 -7 5 -4 10 3 6 8 10 11 10 2 0
4 -4 4 -10z m-2659 -617 c13 -16 12 -17 -3 -4 -10 7 -18 15 -18 17 0 8 8 3 21
-13z m289 -288 c69 -69 122 -125 120 -125 -3 0 -61 56 -130 125 -69 69 -122
125 -120 125 3 0 61 -56 130 -125z m-230 -150 c98 -129 127 -170 112 -161 -10
6 -171 221 -201 269 -22 36 5 3 89 -108z m709 -498 c13 -16 -4 -37 -31 -37
-21 0 -25 35 -5 43 20 9 24 8 36 -6z m53 -64 c10 -9 18 -20 18 -26 0 -10 -64
-5 -92 7 -15 7 -16 2 -11 -48 5 -47 3 -56 -10 -56 -9 0 -24 11 -32 24 -14 21
-14 27 0 64 11 27 24 42 38 45 46 9 71 6 89 -10z m-143 -6 c8 -10 7 -19 -3
-32 -12 -16 -16 -17 -30 -6 -12 10 -13 18 -5 32 12 22 22 24 38 6z m411 -145
c0 -4 -5 -13 -12 -20 -9 -9 -8 -12 5 -12 24 0 21 -27 -4 -41 -20 -10 -21 -9
-15 15 4 16 2 26 -4 26 -7 0 -7 6 0 20 11 20 30 28 30 12z m34 -37 c3 -8 1
-15 -4 -15 -6 0 -10 7 -10 15 0 8 2 15 4 15 2 0 6 -7 10 -15z m6 -49 c0 -8 -4
-18 -10 -21 -5 -3 -10 3 -10 14 0 12 5 21 10 21 6 0 10 -6 10 -14z m40 4 c0
-5 -4 -10 -10 -10 -5 0 -10 5 -10 10 0 6 5 10 10 10 6 0 10 -4 10 -10z m-75
-25 c-3 -8 -7 -23 -10 -32 -4 -11 -9 -13 -16 -6 -8 8 -8 17 0 32 13 24 33 29
26 6z m75 -14 c0 -6 -4 -13 -10 -16 -5 -3 -10 1 -10 9 0 9 5 16 10 16 6 0 10
-4 10 -9z m-50 -32 c-7 -11 -14 -18 -17 -15 -8 8 5 36 17 36 7 0 7 -6 0 -21z
m120 1 c0 -5 -5 -10 -11 -10 -5 0 -7 5 -4 10 3 6 8 10 11 10 2 0 4 -4 4 -10z
m-30 -10 c0 -5 -7 -10 -15 -10 -8 0 -15 5 -15 10 0 6 7 10 15 10 8 0 15 -4 15
-10z m-46 -14 c-5 -13 -36 -31 -41 -24 -1 2 -9 -6 -17 -17 -9 -11 -16 -15 -16
-9 0 5 7 19 15 30 11 15 15 16 15 4 1 -9 5 -6 10 8 5 12 16 22 24 22 9 0 13
-6 10 -14z m36 -21 c0 -20 -35 -50 -60 -51 -11 -1 -17 3 -14 8 3 4 10 6 15 3
5 -4 13 5 18 18 8 21 17 30 39 36 1 1 2 -6 2 -14z m30 0 c-7 -9 -15 -13 -17
-11 -7 7 7 26 19 26 6 0 6 -6 -2 -15z m-390 -24 c0 -14 -18 -23 -31 -15 -8 4
-7 9 2 15 18 11 29 11 29 0z m48 -13 c-5 -16 -48 -24 -48 -10 0 11 17 20 38
21 8 1 12 -5 10 -11z m122 -7 c0 -5 -9 -7 -20 -4 -11 3 -20 7 -20 9 0 2 9 4
20 4 11 0 20 -4 20 -9z m-55 -11 c-3 -5 -17 -10 -31 -10 -14 0 -22 4 -19 10 3
6 17 10 31 10 14 0 22 -4 19 -10z m256 -9 c-6 -10 -21 -26 -35 -35 l-25 -16
20 35 c22 37 59 52 40 16z m-356 -11 c3 -5 2 -10 -4 -10 -5 0 -13 5 -16 10 -3
6 -2 10 4 10 5 0 13 -4 16 -10z m55 -10 c0 -5 -9 -10 -21 -10 -11 0 -17 5 -14
10 3 6 13 10 21 10 8 0 14 -4 14 -10z m65 0 c-3 -5 -16 -10 -28 -10 -18 0 -19
2 -7 10 20 13 43 13 35 0z m245 -19 c-11 -21 -29 -36 -36 -29 -4 5 33 48 42
48 2 0 0 -9 -6 -19z m-220 -21 c-30 -23 -52 -26 -44 -6 5 13 23 20 59 24 6 1
-1 -7 -15 -18z m-110 0 c0 -5 -4 -10 -10 -10 -5 0 -10 5 -10 10 0 6 5 10 10
10 6 0 10 -4 10 -10z m40 -5 c0 -8 -4 -15 -10 -15 -5 0 -10 7 -10 15 0 8 5 15
10 15 6 0 10 -7 10 -15z m300 -20 c-7 -8 -17 -15 -23 -15 -5 0 -2 9 8 20 21
23 35 19 15 -5z m32 3 c-7 -7 -12 -8 -12 -2 0 14 12 26 19 19 2 -3 -1 -11 -7
-17z m-232 -13 c-19 -14 -40 -25 -47 -25 -21 0 -3 28 25 39 48 17 57 12 22
-14z m-110 -10 c0 -8 -4 -15 -9 -15 -13 0 -22 16 -14 24 11 11 23 6 23 -9z
m40 0 c0 -8 -7 -15 -15 -15 -9 0 -12 6 -9 15 4 8 10 15 15 15 5 0 9 -7 9 -15z
m117 -10 c-30 -27 -47 -32 -47 -15 0 6 15 17 33 25 44 20 46 18 14 -10z m53
-5 c0 -5 -15 -17 -32 -25 l-33 -16 30 25 c34 29 35 30 35 16z m162 -4 c6 4 9
1 6 -6 -2 -8 -10 -16 -18 -18 -7 -3 -10 0 -6 7 4 6 0 11 -11 11 -15 0 -16 2
-3 10 10 6 16 6 18 0 2 -6 8 -7 14 -4z m-305 -23 c-9 -9 -19 -14 -23 -11 -10
10 6 28 24 28 15 0 15 -1 -1 -17z m-37 3 c0 -3 -4 -8 -10 -11 -5 -3 -10 -1
-10 4 0 6 5 11 10 11 6 0 10 -2 10 -4z m186 -21 c-21 -16 -32 -13 -21 4 3 6
14 11 23 11 15 -1 15 -2 -2 -15z m-156 -15 c0 -5 -4 -10 -10 -10 -5 0 -10 5
-10 10 0 6 5 10 10 10 6 0 10 -4 10 -10z m150 -14 c0 -3 -4 -8 -10 -11 -5 -3
-10 -1 -10 4 0 6 5 11 10 11 6 0 10 -2 10 -4z"/>
<path d="M3601 3516 c-12 -16 -31 -76 -31 -100 0 -12 -11 -33 -24 -48 -14 -14
-23 -29 -20 -32 2 -3 1 -4 -3 -1 -3 3 -59 -46 -122 -107 -107 -105 -242 -229
-266 -246 -6 -4 -23 -25 -40 -47 -73 -100 -275 -285 -311 -285 -19 0 -54 -36
-54 -55 0 -8 7 -15 15 -15 13 0 15 -7 9 -37 -7 -41 -21 -56 -43 -48 -24 9 -70
-19 -81 -48 -17 -49 9 -77 71 -77 20 0 29 -5 29 -16 0 -10 -6 -13 -18 -10 -16
5 -18 2 -14 -26 5 -32 4 -33 -15 -16 -22 20 -44 25 -25 6 13 -13 16 -48 4 -48
-4 0 -13 5 -20 12 -6 6 -15 8 -19 3 -5 -4 -2 -10 5 -12 6 -3 12 -14 12 -25 0
-15 -5 -18 -19 -13 -16 5 -18 2 -14 -15 5 -17 2 -21 -13 -18 -15 2 -18 -2 -16
-21 3 -16 0 -21 -9 -16 -8 6 -10 31 -6 87 4 59 2 82 -8 92 -8 8 -11 17 -7 21
4 5 -22 -14 -58 -42 -36 -27 -65 -56 -65 -64 0 -8 -5 -14 -12 -14 -23 0 -73
-46 -88 -81 -14 -35 -16 -36 -62 -32 -30 2 -53 9 -61 20 -7 9 -22 18 -34 20
-43 6 -198 213 -198 266 0 14 -6 22 -17 22 -19 0 -18 -1 -154 129 -126 121
-151 164 -142 239 7 66 -11 70 -23 6 l-9 -47 -31 49 c-17 27 -46 75 -64 107
-17 31 -36 57 -42 57 -10 0 57 -129 93 -182 11 -14 19 -29 19 -34 0 -4 11 -22
25 -40 14 -18 25 -37 25 -43 0 -6 4 -11 8 -11 4 0 40 -39 80 -87 39 -49 89
-107 112 -131 22 -24 40 -47 40 -52 0 -5 11 -17 25 -26 29 -19 115 -124 178
-219 26 -38 52 -71 57 -71 6 -1 16 -2 23 -3 7 0 13 -10 14 -21 2 -24 -5 -25
-29 -3 -10 9 -18 11 -18 6 0 -6 17 -25 38 -42 62 -53 72 -64 70 -80 -2 -11 4
-15 20 -14 16 2 22 -2 22 -18 0 -12 4 -17 11 -14 6 4 8 14 4 22 -5 13 -3 14
10 3 12 -10 13 -15 4 -20 -8 -6 -8 -9 2 -13 11 -5 11 -6 -1 -6 -30 2 -39 -1
-35 -13 9 -25 -28 -55 -65 -52 -25 2 -46 -6 -74 -27 -22 -16 -45 -29 -50 -29
-6 0 -32 -22 -58 -49 -40 -41 -48 -55 -48 -86 0 -21 9 -53 21 -71 25 -42 100
-87 141 -86 46 1 93 44 127 116 17 35 35 67 41 71 6 4 10 27 9 51 -3 46 23 89
48 80 7 -3 13 -2 13 3 0 4 11 6 25 3 16 -3 25 -11 25 -23 0 -12 7 -19 20 -19
12 0 42 -20 68 -45 46 -45 82 -63 47 -25 -18 19 -17 20 4 20 14 0 25 -7 28
-20 3 -11 33 -35 71 -55 107 -59 228 -143 246 -170 9 -14 20 -24 25 -22 5 1
49 -26 97 -60 169 -118 189 -132 269 -173 95 -50 245 -113 252 -107 4 5 -203
107 -218 107 -17 0 -9 20 9 20 9 1 31 7 47 15 29 14 27 15 -35 9 -81 -6 -103
4 -230 107 -95 77 -142 124 -153 154 -4 8 -19 15 -34 15 -60 0 -268 133 -285
182 -6 15 -16 28 -23 28 -17 0 -28 103 -11 109 6 2 30 23 53 47 30 31 41 49
36 61 -3 10 -3 15 2 11 12 -11 35 11 28 28 -3 8 1 14 8 14 8 1 27 19 42 41 27
39 27 42 10 55 -19 15 -101 10 -136 -8 -22 -11 -66 0 -47 12 7 5 19 6 27 3 7
-3 13 0 13 6 0 6 -6 11 -12 11 -7 0 -5 5 5 11 9 5 22 7 28 3 8 -4 9 1 4 15 -7
24 13 29 33 9 9 -9 12 -8 12 4 0 9 -5 20 -11 24 -19 11 13 24 33 13 12 -7 18
-6 18 1 0 6 -7 13 -17 17 -14 5 -13 8 5 14 12 5 30 6 40 2 13 -5 14 -3 5 7
-13 14 -6 43 8 34 5 -3 9 -14 9 -24 0 -30 21 -69 40 -75 25 -8 70 15 70 36 0
10 4 21 10 24 5 3 9 21 7 38 -2 27 1 32 20 32 11 0 25 3 29 8 11 10 36 9 29
-2 -3 -5 -1 -12 4 -15 13 -8 61 32 61 51 0 39 153 246 251 339 30 28 70 73 89
100 64 90 211 279 248 319 21 21 42 48 47 59 6 10 17 22 25 26 138 63 160 85
120 122 -19 17 -21 17 -57 -14 l-38 -32 40 42 c23 25 33 42 25 42 -17 0 -176
-162 -199 -202 -51 -87 -201 -250 -316 -342 -23 -19 -34 -34 -30 -45 7 -22
-33 -83 -157 -242 -96 -123 -141 -169 -154 -156 -3 3 2 19 12 36 16 28 17 31
0 56 -15 22 -23 26 -52 22 -33 -5 -34 -4 -34 29 0 27 -5 37 -26 46 -22 10 -31
9 -56 -5 -17 -10 -33 -15 -36 -12 -12 12 27 58 136 161 158 148 204 184 235
184 22 0 33 12 67 70 43 74 182 227 265 293 57 44 195 213 195 236 -1 14 -3
13 -14 -1 -19 -25 -29 -22 -16 5 9 18 7 17 -14 -6 -30 -32 -35 -56 -8 -36 14
11 15 11 5 -1 -12 -13 -43 -23 -43 -14 0 3 11 22 25 42 28 40 34 67 9 36 -11
-13 -14 -14 -11 -3 6 18 -19 22 -32 5z m256 -214 c-10 -10 -14 -22 -10 -27 5
-4 2 -5 -5 -1 -7 4 -21 2 -30 -5 -9 -7 -4 1 12 19 17 18 34 32 39 32 6 0 3 -8
-6 -18z m-422 -73 c-33 -33 -91 -88 -130 -121 -38 -33 -14 -5 55 61 132 128
176 163 75 60z m197 -166 c-21 -27 -71 -90 -111 -140 -77 -98 -105 -125 -49
-47 44 62 187 234 194 234 3 0 -12 -21 -34 -47z m-742 -538 c13 -16 6 -35 -14
-35 -22 0 -37 25 -24 38 16 16 23 15 38 -3z m-2 -53 c13 -4 23 -11 24 -17 0
-5 4 -20 9 -33 17 -46 4 -82 -29 -82 -12 0 -14 11 -9 55 5 51 4 54 -13 45 -20
-11 -90 -14 -90 -4 0 3 5 14 10 25 11 20 50 24 98 11z m89 -28 c9 -23 -13 -40
-32 -24 -8 7 -15 19 -15 26 0 19 39 18 47 -2z m-427 -141 c0 -13 -3 -13 -15
-3 -8 7 -12 16 -9 21 8 13 24 1 24 -18z m-80 -23 c0 -5 -5 -10 -11 -10 -5 0
-7 5 -4 10 3 6 8 10 11 10 2 0 4 -4 4 -10z m30 0 c0 -5 -5 -10 -11 -10 -5 0
-7 5 -4 10 3 6 8 10 11 10 2 0 4 -4 4 -10z m50 -38 c0 -12 -3 -12 -15 -2 -8 7
-15 22 -15 34 1 21 1 21 15 2 8 -11 15 -26 15 -34z m-90 -2 c0 -5 -4 -10 -10
-10 -5 0 -10 5 -10 10 0 6 5 10 10 10 6 0 10 -4 10 -10z m40 -11 c0 -11 -4
-17 -10 -14 -5 3 -10 13 -10 21 0 8 5 14 10 14 6 0 10 -9 10 -21z m-80 -19 c0
-5 -12 -10 -27 -9 -25 0 -26 1 -8 9 27 12 35 12 35 0z m120 -21 c0 -10 -4 -19
-10 -19 -5 0 -10 12 -10 26 0 14 4 23 10 19 6 -3 10 -15 10 -26z m-80 11 c0
-5 -4 -10 -10 -10 -5 0 -10 5 -10 10 0 6 5 10 10 10 6 0 10 -4 10 -10z m51
-39 c11 -27 -6 -19 -22 11 -8 16 -8 19 2 16 6 -2 16 -14 20 -27z m-131 9 c0
-5 -2 -10 -4 -10 -3 0 -8 5 -11 10 -3 6 -1 10 4 10 6 0 11 -4 11 -10z m48 -9
c3 -8 -1 -12 -9 -9 -7 2 -15 10 -17 17 -3 8 1 12 9 9 7 -2 15 -10 17 -17z m42
-10 c17 -33 11 -48 -10 -22 -11 13 -20 27 -20 32 0 16 19 9 30 -10z m77 -23
c-3 -7 -5 -2 -5 12 0 14 2 19 5 13 2 -7 2 -19 0 -25z m-200 0 c-3 -8 -6 -5 -6
6 -1 11 2 17 5 13 3 -3 4 -12 1 -19z m46 3 c3 -14 1 -18 -9 -14 -8 3 -14 11
-14 19 0 21 17 17 23 -5z m52 -21 c20 -39 19 -43 -9 -25 -28 18 -41 55 -20 55
7 0 20 -13 29 -30z m350 -21 c12 -19 -5 -23 -22 -6 -16 16 -16 17 -1 17 9 0
20 -5 23 -11z m-41 -5 c9 -3 16 -10 16 -15 0 -15 -37 -10 -50 6 -10 12 -10 15
3 15 8 0 22 -3 31 -6z m-326 -29 c13 -29 6 -32 -20 -8 -21 19 -23 33 -5 33 8
0 19 -11 25 -25z m268 9 c18 -15 17 -15 -16 -10 -43 8 -64 26 -29 26 14 0 34
-7 45 -16z m74 -24 c0 -5 -7 -10 -16 -10 -8 0 -12 5 -9 10 3 6 10 10 16 10 5
0 9 -4 9 -10z m-340 -56 c0 -4 -11 3 -25 16 -14 13 -25 28 -25 34 0 6 11 -1
25 -16 14 -15 25 -30 25 -34z m180 46 c13 -9 13 -10 0 -10 -8 0 -22 5 -30 10
-13 9 -13 10 0 10 8 0 22 -5 30 -10z m55 0 c3 -5 -1 -10 -9 -10 -8 0 -18 5
-21 10 -3 6 1 10 9 10 8 0 18 -4 21 -10z m65 0 c0 -5 -6 -10 -14 -10 -8 0 -18
5 -21 10 -3 6 3 10 14 10 12 0 21 -4 21 -10z m-90 -35 c17 -20 -7 -20 -34 0
-19 15 -19 15 1 15 11 0 26 -7 33 -15z m-248 -18 c10 -21 10 -21 -7 -7 -10 8
-27 14 -38 12 -10 -2 -17 0 -14 5 11 18 47 11 59 -10z m303 13 c3 -5 -1 -10
-9 -10 -9 0 -16 5 -16 10 0 6 4 10 9 10 6 0 13 -4 16 -10z m40 0 c-3 -5 -10
-10 -16 -10 -5 0 -9 5 -9 10 0 6 7 10 16 10 8 0 12 -4 9 -10z m-114 -36 c9
-11 7 -14 -12 -14 -14 0 -32 11 -42 25 l-17 24 29 -10 c17 -6 35 -17 42 -25z
m-78 -4 c29 -14 36 -30 14 -30 -8 0 -24 12 -38 27 -13 14 -19 24 -14 22 6 -3
22 -11 38 -19z m117 -5 c0 -8 -4 -15 -10 -15 -5 0 -10 7 -10 15 0 8 5 15 10
15 6 0 10 -7 10 -15z m41 2 c-1 -12 -15 -9 -19 4 -3 6 1 10 8 8 6 -3 11 -8 11
-12z m-356 -7 c3 -5 2 -10 -4 -10 -5 0 -13 5 -16 10 -3 6 -2 10 4 10 5 0 13
-4 16 -10z m180 -30 c12 -19 -12 -10 -31 11 -19 22 -19 22 3 10 12 -6 25 -16
28 -21z m111 -8 c-4 -3 -14 2 -24 12 -16 18 -16 18 6 6 13 -6 21 -14 18 -18z
m-146 -15 c0 -4 -9 -3 -20 3 -11 6 -20 15 -20 20 0 6 9 5 20 -2 11 -7 20 -16
20 -21z m180 23 c0 -5 -4 -10 -10 -10 -5 0 -10 5 -10 10 0 6 5 10 10 10 6 0
10 -4 10 -10z m-180 -50 c0 -5 -4 -10 -10 -10 -5 0 -10 5 -10 10 0 6 5 10 10
10 6 0 10 -4 10 -10z m-50 -36 c0 -2 -7 -4 -15 -4 -8 0 -15 4 -15 10 0 5 7 7
15 4 8 -4 15 -8 15 -10z"/>
<path d="M5231 2562 c0 -7 -5 -10 -11 -7 -13 8 -13 -33 2 -111 8 -45 8 -71 1
-86 -17 -38 -83 -252 -79 -256 3 -2 12 21 22 52 10 31 19 54 22 52 2 -3 -13
-55 -33 -116 -20 -61 -39 -109 -42 -106 -3 3 0 19 6 37 6 18 9 34 7 36 -3 4
-13 -20 -57 -147 -6 -19 -16 -43 -21 -53 -5 -11 -13 -43 -18 -73 -17 -102 -92
-314 -133 -375 -41 -62 -45 -94 -12 -94 14 0 20 -7 21 -25 1 -13 7 -26 13 -28
17 -6 -6 -42 -27 -42 -10 0 -26 -14 -36 -31 -36 -60 8 -113 75 -90 42 14 49
14 49 -3 0 -9 -8 -13 -22 -9 -21 4 -22 3 -5 -10 25 -21 22 -46 -5 -40 -23 6
-23 5 2 -18 l25 -24 -28 -3 c-28 -3 -38 -22 -12 -22 21 0 19 -30 -2 -31 -11 0
-13 -3 -5 -6 6 -2 12 -13 12 -24 0 -12 -5 -16 -15 -13 -19 8 -19 -3 0 -23 9
-8 14 -18 11 -21 -8 -7 -46 28 -46 43 0 29 -43 107 -63 114 -19 7 -23 3 -35
-28 -7 -20 -14 -44 -15 -54 -1 -10 -8 -22 -16 -26 -8 -5 -11 -16 -6 -30 4 -12
2 -21 -4 -21 -12 0 -26 -24 -35 -65 -7 -29 -7 -29 12 -12 13 12 22 15 27 8 3
-6 1 -11 -5 -11 -19 0 -42 -29 -36 -45 4 -11 -9 -22 -44 -39 -27 -13 -52 -21
-55 -17 -4 3 -28 6 -54 6 -38 0 -71 11 -153 52 -57 29 -116 64 -131 79 -22 22
-39 28 -85 31 -58 4 -250 62 -310 94 -37 19 -61 46 -62 69 0 8 -9 26 -20 40
-15 20 -20 21 -20 8 0 -9 5 -29 12 -43 6 -14 9 -27 6 -30 -3 -3 -48 20 -99 53
-52 32 -100 61 -106 66 -7 4 -13 3 -13 -2 0 -8 33 -31 215 -147 28 -17 68 -39
90 -48 22 -9 100 -40 173 -70 72 -30 132 -52 132 -49 0 3 6 -1 13 -10 6 -9 31
-18 55 -21 24 -3 103 -35 180 -73 75 -38 139 -68 142 -67 3 1 12 4 20 7 9 4
20 -2 28 -15 13 -20 12 -21 -19 -14 -21 5 -29 4 -25 -4 4 -5 23 -13 44 -16 71
-12 82 -15 101 -37 16 -16 23 -19 34 -9 11 9 17 8 26 -3 7 -8 20 -13 29 -10 9
3 6 -2 -8 -10 -14 -8 -19 -15 -12 -16 13 0 16 -39 4 -55 -4 -5 -20 -17 -37
-27 -16 -9 -38 -33 -49 -55 -10 -21 -21 -40 -25 -43 -12 -9 -51 -108 -51 -130
0 -69 72 -120 168 -120 64 0 76 8 106 67 24 48 22 201 -3 245 -19 34 -14 78 9
78 5 0 10 6 10 14 0 7 11 16 25 18 17 4 25 1 25 -9 0 -10 8 -12 35 -7 23 4 49
1 75 -10 22 -9 50 -16 63 -15 19 0 19 2 -6 11 -26 9 -27 11 -10 23 15 12 21
11 38 -4 17 -15 45 -19 165 -24 85 -3 164 -12 190 -20 25 -8 62 -15 83 -16 22
0 64 -5 95 -10 187 -32 513 -38 576 -10 14 6 -27 7 -114 4 l-135 -6 40 41 c21
22 36 40 31 40 -14 0 -50 -23 -66 -42 -11 -14 -31 -21 -65 -24 -53 -4 -303 41
-320 57 -5 5 -18 9 -28 9 -11 0 -25 8 -32 17 -11 15 -15 15 -29 4 -13 -11 -49
-13 -162 -9 -128 5 -149 8 -174 27 -16 11 -35 21 -42 21 -7 0 -26 19 -42 42
-25 34 -27 44 -17 60 11 18 10 19 -11 13 -22 -7 -22 -7 -3 8 11 8 23 13 26 11
10 -6 21 64 14 86 -4 12 -2 20 6 20 7 0 9 10 6 30 -4 17 -3 30 2 30 4 0 8 16
9 36 1 20 4 44 7 54 4 14 0 16 -26 12 -34 -5 -79 -32 -117 -70 -26 -26 -63
-32 -42 -7 7 8 16 13 20 10 5 -3 11 -1 15 5 3 5 -1 10 -9 10 -24 0 -19 19 7
29 20 8 20 10 4 16 -25 10 -3 35 25 27 14 -3 19 -1 14 6 -4 7 -14 12 -22 12
-24 0 -11 24 17 31 l24 7 -23 7 c-18 6 -20 10 -11 21 6 8 21 14 32 14 20 0 20
1 3 13 -11 8 -17 20 -14 27 3 10 8 9 19 -4 53 -64 74 -71 109 -34 16 17 19 29
14 57 -4 20 -13 41 -20 49 -16 15 -8 42 12 42 8 0 17 7 20 15 4 10 14 13 29 9
33 -8 39 9 36 101 -2 86 36 306 66 374 15 37 76 367 70 384 -2 6 -11 -37 -21
-94 -11 -57 -21 -99 -23 -92 -3 7 6 65 18 130 17 89 24 112 30 93 4 -14 7 -18
8 -9 1 9 3 32 6 50 4 29 3 30 -4 9 -7 -21 -9 -21 -9 -5 -1 26 16 66 18 45 1
-8 6 -1 10 15 5 17 12 41 16 54 5 16 4 22 -4 18 -5 -4 -2 11 9 33 11 22 23 40
28 40 9 0 71 91 71 104 0 4 -5 4 -12 0 -8 -5 -9 -2 -5 10 4 10 3 15 -3 11 -6
-3 -10 0 -10 7 -1 8 -7 5 -16 -7 -8 -11 -13 -28 -10 -38 2 -9 0 -15 -4 -12 -5
3 -12 -4 -15 -16 -4 -11 -9 -19 -11 -17 -2 2 5 28 16 56 22 56 19 68 -4 25 -8
-16 -15 -22 -16 -15 0 7 5 22 10 33 8 13 7 19 0 19 -12 0 -33 -46 -49 -105 -5
-22 -17 -65 -25 -95 -8 -30 -20 -93 -26 -140 -17 -123 -56 -264 -96 -348 -31
-64 -33 -75 -21 -92 16 -23 10 -84 -29 -300 -25 -141 -44 -200 -64 -200 -5 0
-8 17 -7 37 2 30 -2 39 -25 52 -25 14 -29 14 -56 -6 l-29 -21 -16 34 c-22 45
-60 47 -85 4 -9 -16 -21 -28 -27 -26 -18 6 -5 63 50 218 69 197 91 245 115
253 11 4 20 12 20 18 2 124 52 337 110 464 16 36 29 68 28 71 -2 7 18 106 32
159 4 18 6 43 2 55 -5 21 -6 21 -13 2 -4 -10 -8 -31 -8 -46 -1 -15 -4 -29 -8
-31 -5 -3 -7 18 -6 46 l1 52 -7 -47 c-10 -67 -21 -71 -16 -7 4 36 2 47 -3 34
l-9 -20 -5 20 c-3 11 -6 14 -7 7z m-31 -329 c-11 -17 -11 -17 -6 0 3 10 6 24
7 30 0 9 2 9 5 0 3 -7 0 -20 -6 -30z m-150 -923 c0 -15 -7 -20 -25 -20 -24 0
-34 18 -18 33 15 15 43 7 43 -13z m108 -28 c4 -23 -12 -29 -37 -13 -19 12 -6
43 16 39 10 -2 19 -13 21 -26z m-20 -86 c-5 -47 -25 -42 -44 12 l-18 50 -35
-29 c-43 -35 -61 -37 -61 -5 0 29 14 41 60 54 32 8 38 6 68 -22 25 -23 32 -38
30 -60z m-299 -220 c10 -12 8 -13 -8 -9 -12 3 -21 9 -21 14 0 14 16 11 29 -5z
m21 -41 c7 -9 11 -17 9 -19 -7 -7 -49 13 -49 24 0 15 26 12 40 -5z m-50 -5 c0
-5 -4 -10 -10 -10 -5 0 -10 5 -10 10 0 6 5 10 10 10 6 0 10 -4 10 -10z m352
-42 c-5 -5 -17 -6 -26 -2 -13 5 -14 9 -5 14 16 11 43 0 31 -12z m-328 -4 c4
-10 1 -14 -6 -12 -15 5 -23 28 -10 28 5 0 13 -7 16 -16z m-44 -4 c0 -5 -4 -10
-10 -10 -5 0 -10 5 -10 10 0 6 5 10 10 10 6 0 10 -4 10 -10z m90 -9 c13 -25
13 -34 0 -26 -16 10 -32 45 -21 45 6 0 15 -9 21 -19z m251 -6 c0 -13 -41 -19
-41 -7 0 11 20 22 33 18 5 -1 8 -6 8 -11z m-316 -25 c3 -5 -1 -10 -9 -10 -8 0
-18 5 -21 10 -3 6 1 10 9 10 8 0 18 -4 21 -10z m56 -6 c12 -14 11 -16 -5 -13
-11 2 -21 10 -24 17 -5 17 13 15 29 -4z m48 2 c7 -8 8 -17 3 -20 -6 -3 -12 3
-15 14 -6 24 -4 25 12 6z m241 6 c0 -13 -12 -22 -22 -16 -10 6 -1 24 13 24 5
0 9 -4 9 -8z m-393 -14 c-2 -7 -10 -12 -16 -10 -6 1 -11 -3 -11 -10 0 -6 -3
-8 -6 -5 -8 8 14 37 28 37 5 0 8 -6 5 -12z m323 3 c0 -11 -25 -21 -53 -21 -22
1 -22 1 -3 15 22 17 56 20 56 6z m35 -21 c-3 -5 -13 -10 -21 -10 -8 0 -12 5
-9 10 3 6 13 10 21 10 8 0 12 -4 9 -10z m-271 -19 c17 -19 17 -19 -3 -14 -11
3 -26 11 -32 19 -19 23 15 18 35 -5z m-54 -1 c0 -5 -6 -10 -14 -10 -8 0 -18 5
-21 10 -3 6 3 10 14 10 12 0 21 -4 21 -10z m91 -7 c13 -16 12 -17 -3 -4 -17
13 -22 21 -14 21 2 0 10 -8 17 -17z m184 -3 c-3 -5 -12 -10 -20 -10 -8 0 -17
5 -20 10 -4 6 5 10 20 10 15 0 24 -4 20 -10z m75 0 c0 -5 -4 -10 -10 -10 -5 0
-10 5 -10 10 0 6 5 10 10 10 6 0 10 -4 10 -10z m-302 -29 c30 -26 28 -31 -10
-19 -42 13 -80 11 -89 -4 -5 -7 -11 -9 -15 -6 -10 11 25 41 41 34 8 -3 15 -1
15 4 0 16 33 11 58 -9z m263 6 c-1 -12 -15 -9 -19 4 -3 6 1 10 8 8 6 -3 11 -8
11 -12z m-98 -4 c-7 -2 -19 -2 -25 0 -7 3 -2 5 12 5 14 0 19 -2 13 -5z m61
-12 c8 -12 -14 -19 -37 -13 -15 4 -16 7 -5 13 17 11 35 11 42 0z m73 -31 c3
-24 3 -24 -11 -5 -18 24 -20 38 -4 33 6 -2 13 -15 15 -28z m-289 -28 c-22 -4
-60 16 -53 28 4 6 20 3 38 -7 24 -13 28 -18 15 -21z m255 17 c10 -11 16 -23
14 -26 -6 -6 -47 28 -47 39 0 14 15 8 33 -13z m-43 -4 c11 -13 8 -15 -18 -15
-17 0 -39 3 -49 7 -16 6 -15 8 7 14 39 11 47 10 60 -6z m-219 -40 c25 -10 29
-14 13 -15 -11 0 -29 7 -40 15 -25 19 -15 19 27 0z m249 5 c0 -13 -11 -13 -30
0 -12 8 -11 10 8 10 12 0 22 -4 22 -10z m-65 -10 c8 -12 -42 -12 -70 0 -16 7
-11 9 22 9 23 1 45 -3 48 -9z m-175 -46 c0 -4 -7 -3 -16 0 -9 4 -23 1 -30 -5
-17 -14 -18 -3 -1 15 11 13 47 5 47 -10z m126 8 c-16 -2 -32 0 -37 5 -5 5 7 7
29 4 34 -5 35 -6 8 -9z m-6 -32 c0 -13 -20 -13 -40 0 -12 8 -9 10 13 10 15 0
27 -4 27 -10z m-159 -27 c-18 -4 -21 -7 -10 -13 7 -5 10 -12 6 -16 -10 -11
-31 12 -23 25 4 6 17 10 29 10 20 -2 20 -2 -2 -6z m179 3 c0 -11 -19 -15 -25
-6 -3 5 1 10 9 10 9 0 16 -2 16 -4z m-33 -62 c-3 -3 -12 -4 -19 -1 -8 3 -5 6
6 6 11 1 17 -2 13 -5z"/>
<path d="M7353 2498 c12 -85 46 -225 72 -293 40 -105 75 -260 80 -355 5 -73 8
-87 29 -105 27 -23 50 -78 111 -273 44 -140 55 -202 36 -202 -6 0 -16 12 -23
28 -20 41 -70 43 -94 4 l-17 -30 -31 19 c-29 17 -34 17 -54 3 -15 -11 -22 -25
-22 -50 0 -41 -16 -45 -31 -6 -12 30 -43 215 -59 359 -9 77 -9 96 4 115 13 21
12 29 -15 88 -17 36 -41 110 -54 165 -23 95 -48 253 -44 271 3 9 -8 48 -39
149 -25 83 -34 105 -43 105 -5 0 -7 -12 -4 -27 l6 -28 -16 25 -15 25 5 -30 c5
-28 5 -29 -6 -7 -15 29 -27 28 -41 -3 -8 -19 -8 -28 2 -40 7 -8 16 -12 21 -9
5 3 6 -1 3 -9 -3 -8 9 -28 26 -45 23 -24 34 -46 41 -89 41 -236 49 -269 45
-203 l-4 65 13 -65 c8 -36 16 -92 19 -125 l5 -60 -13 60 c-8 33 -14 53 -15 45
-3 -35 31 -250 49 -310 35 -119 62 -308 56 -385 -5 -55 -3 -75 9 -90 12 -17
16 -18 24 -5 8 12 14 10 35 -13 29 -32 33 -52 11 -61 -22 -8 -20 -79 3 -99 30
-27 67 -21 96 16 22 26 28 29 36 17 7 -11 4 -17 -10 -22 -11 -4 -20 -10 -20
-14 0 -3 6 -4 14 -1 14 5 36 -10 36 -25 0 -4 -7 -8 -15 -8 -8 0 -15 -4 -15
-10 0 -5 6 -7 13 -4 8 3 19 -2 26 -10 10 -12 8 -16 -8 -21 -12 -3 -21 -11 -21
-16 0 -6 9 -8 19 -4 23 7 39 -14 20 -26 -11 -7 -10 -11 6 -23 11 -9 14 -16 8
-16 -18 0 -16 -20 1 -20 8 0 16 -7 20 -15 3 -8 0 -15 -6 -15 -6 0 -5 -7 3 -18
13 -15 12 -16 -3 -3 -10 7 -15 17 -12 22 3 5 1 9 -4 9 -6 0 -35 20 -65 45 -32
26 -66 45 -80 45 -23 0 -24 -2 -17 -42 5 -24 6 -46 4 -50 -3 -5 -1 -8 5 -8 6
0 8 -12 5 -30 -4 -20 -2 -30 5 -30 8 0 10 -8 6 -20 -4 -12 -1 -28 7 -37 11
-14 11 -16 -3 -11 -14 6 -16 2 -9 -20 4 -15 13 -26 19 -24 7 1 10 -2 6 -8 -4
-6 -1 -17 5 -25 10 -12 6 -23 -21 -59 -21 -27 -39 -41 -48 -38 -8 3 -19 -2
-26 -12 -24 -32 -266 -50 -331 -25 -19 7 -35 7 -49 0 -80 -38 -284 -76 -373
-69 -39 4 -59 11 -71 25 -16 20 -52 43 -67 43 -5 0 10 -18 31 -40 l40 -41 -75
6 c-41 3 -99 8 -127 10 -29 3 -53 1 -53 -4 0 -17 314 -41 390 -29 37 5 177 20
315 33 17 1 57 8 90 14 33 6 116 11 183 11 116 0 125 1 143 23 10 12 18 16 19
10 0 -7 7 -13 16 -13 8 0 12 -4 9 -10 -3 -5 -16 -10 -28 -10 -17 0 -19 -2 -8
-9 8 -5 26 -4 45 2 17 6 53 11 79 12 27 0 52 6 56 13 9 15 51 4 51 -14 0 -8 4
-14 10 -14 21 0 22 -49 1 -79 -18 -25 -22 -44 -22 -125 0 -70 4 -105 17 -132
36 -76 154 -85 234 -18 26 23 30 32 30 77 0 36 -8 66 -25 97 -13 25 -31 61
-40 81 -10 22 -30 44 -51 55 -39 21 -43 46 -18 100 15 32 34 45 34 24 0 -16
18 -12 38 8 11 11 41 21 72 25 29 4 58 12 64 18 8 9 4 10 -16 5 -16 -3 -28 -2
-28 3 0 16 26 30 47 25 12 -4 49 9 94 31 97 50 242 105 273 105 13 0 26 4 28
8 2 4 48 24 103 44 205 74 230 83 235 88 3 3 19 11 35 18 48 21 255 152 255
162 0 5 -50 -21 -111 -57 -101 -60 -138 -73 -112 -41 6 7 14 29 17 48 l7 35
-20 -25 c-11 -14 -21 -32 -21 -41 0 -19 -40 -73 -48 -65 -3 4 -12 0 -21 -8
-24 -21 -249 -84 -311 -87 -43 -3 -62 -9 -88 -31 -68 -58 -249 -133 -298 -123
-18 3 -35 1 -39 -4 -10 -17 -100 43 -98 65 5 33 -17 107 -35 121 -9 7 -12 13
-5 13 17 0 3 40 -14 40 -9 0 -13 6 -10 15 4 8 -1 34 -9 59 -15 43 -17 44 -40
34 -24 -11 -64 -77 -64 -104 0 -6 -9 -22 -20 -35 -16 -20 -19 -21 -20 -6 0 9
5 17 10 17 6 0 10 5 10 10 0 6 -7 10 -15 10 -12 0 -13 4 -5 19 14 27 13 31 -7
24 -13 -5 -15 -2 -10 11 4 10 7 20 7 22 0 2 8 5 18 5 9 1 4 4 -13 8 l-30 6 22
22 22 22 -27 3 -27 3 23 23 c21 21 21 22 2 22 -11 0 -20 7 -20 15 0 19 12 19
48 -2 62 -36 113 29 70 88 -11 15 -29 30 -39 32 -20 5 -26 32 -9 42 6 3 10 17
10 31 0 21 4 24 20 19 17 -5 20 -2 20 23 0 16 -9 41 -20 55 -11 14 -29 46 -40
73 -32 73 -90 282 -90 321 0 19 -6 49 -14 66 -16 37 -119 361 -136 427 -6 25
-18 67 -27 93 -12 36 -13 54 -5 70 17 36 24 108 11 123 -14 17 -33 19 -23 2 5
-8 2 -8 -10 1 -16 13 -17 11 -12 -40 l5 -54 -11 55 c-11 51 -12 53 -19 25 l-7
-30 -1 28 c0 15 -6 27 -12 27 -8 0 -10 -14 -6 -42z m34 -50 c-3 -7 -5 -2 -5
12 0 14 2 19 5 13 2 -7 2 -19 0 -25z m-273 -4 c3 -8 2 -12 -4 -9 -6 3 -10 10
-10 16 0 14 7 11 14 -7z m66 -49 c0 -5 -5 -3 -10 5 -5 8 -10 20 -10 25 0 6 5
3 10 -5 5 -8 10 -19 10 -25z m-20 -10 c0 -5 -5 -3 -10 5 -5 8 -10 20 -10 25 0
6 5 3 10 -5 5 -8 10 -19 10 -25z m307 -187 c-3 -8 -6 -5 -6 6 -1 11 2 17 5 13
3 -3 4 -12 1 -19z m78 -240 c4 -18 5 -30 1 -27 -7 7 -76 230 -75 244 1 13 65
-174 74 -217z m-328 190 c-3 -8 -6 -5 -6 6 -1 11 2 17 5 13 3 -3 4 -12 1 -19z
m413 -873 c0 -18 -5 -25 -19 -25 -11 0 -23 5 -26 10 -11 18 3 40 25 40 15 0
20 -7 20 -25z m-110 -20 c0 -19 -36 -39 -45 -25 -11 18 3 40 25 40 11 0 20 -7
20 -15z m122 -31 c11 -7 10 -64 -1 -64 -5 0 -26 15 -46 34 l-36 34 -5 -27 c-7
-36 -38 -76 -53 -67 -23 15 -12 64 20 89 28 21 36 23 72 15 22 -5 44 -11 49
-14z m166 -289 c-2 -5 -11 -11 -22 -12 -16 -3 -17 -1 -6 12 14 16 34 16 28 0z
m-4 -39 c-5 -12 -44 -31 -44 -21 0 17 16 35 31 35 12 0 16 -5 13 -14z m22 -23
c-10 -10 -19 5 -10 18 6 11 8 11 12 0 2 -7 1 -15 -2 -18z m-336 -13 c0 -5 -7
-10 -15 -10 -8 0 -15 5 -15 10 0 6 7 10 15 10 8 0 15 -4 15 -10z m280 -25 c-7
-9 -21 -20 -31 -25 -14 -8 -16 -6 -12 9 3 10 14 23 26 29 28 12 34 7 17 -13z
m41 2 c-13 -13 -26 -3 -16 12 3 6 11 8 17 5 6 -4 6 -10 -1 -17z m-277 -6 c10
-15 -33 -20 -45 -5 -9 11 -7 14 14 14 14 0 28 -4 31 -9z m316 -1 c0 -5 -4 -10
-10 -10 -5 0 -10 5 -10 10 0 6 5 10 10 10 6 0 10 -4 10 -10z m-365 -19 c3 -5
1 -12 -4 -15 -5 -3 -11 1 -15 9 -6 16 9 21 19 6z m295 -16 c-7 -8 -19 -15 -27
-15 -13 0 -13 3 -3 15 7 8 19 15 27 15 13 0 13 -3 3 -15z m51 -8 c-13 -13 -26
-3 -16 12 3 6 11 8 17 5 6 -4 6 -10 -1 -17z m-250 -3 c12 -15 11 -16 -11 -9
-35 10 -49 25 -23 25 11 0 27 -7 34 -16z m-60 -7 c-1 -12 -15 -9 -19 4 -3 6 1
10 8 8 6 -3 11 -8 11 -12z m358 -1 c10 -12 8 -13 -8 -9 -12 3 -21 9 -21 14 0
14 16 11 29 -5z m-76 -26 c-4 -4 -19 -11 -33 -14 l-25 -7 24 20 c21 19 54 19
34 1z m-313 0 c0 -5 -4 -10 -10 -10 -5 0 -10 5 -10 10 0 6 5 10 10 10 6 0 10
-4 10 -10z m100 0 c11 -7 7 -10 -17 -10 -18 0 -33 5 -33 10 0 13 30 13 50 0z
m150 -5 c-7 -8 -17 -15 -22 -15 -6 0 -5 7 2 15 7 8 17 15 22 15 6 0 5 -7 -2
-15z m140 -17 c0 -4 -4 -8 -10 -8 -5 0 -10 5 -10 11 0 5 -4 7 -10 4 -13 -8
-32 4 -25 15 7 11 55 -9 55 -22z m-356 -9 c-3 -5 -10 -7 -15 -3 -5 3 -7 10 -3
15 3 5 10 7 15 3 5 -3 7 -10 3 -15z m296 -14 c-16 -19 -68 -24 -75 -8 -2 8 0
11 5 8 6 -3 19 1 31 9 25 17 55 11 39 -9z m-220 -6 c0 -5 -13 -9 -30 -9 -30 0
-41 15 -17 23 17 5 47 -3 47 -14z m294 -3 c-3 -9 -10 -16 -15 -16 -5 0 -4 9 3
20 14 22 21 20 12 -4z m-403 -9 c-13 -13 -26 -3 -16 12 3 6 11 8 17 5 6 -4 6
-10 -1 -17z m375 16 c-10 -11 -37 -12 -30 -2 3 5 12 9 21 9 9 0 13 -3 9 -7z
m-331 -34 c-4 -5 -13 -9 -21 -9 -8 0 -12 -4 -9 -10 9 -14 46 -12 43 2 -4 15
26 22 60 13 l27 -8 -35 -9 c-19 -5 -45 -14 -58 -20 -18 -10 -25 -9 -31 1 -5 7
-11 12 -15 12 -11 -2 -7 13 9 32 15 18 41 14 30 -4z m275 -13 c-8 -7 -31 -16
-50 -20 l-35 -6 30 20 c36 24 79 29 55 6z m-177 -49 c-26 -11 -65 -1 -45 12 8
4 25 6 40 3 26 -5 26 -5 5 -15z m157 3 c-8 -5 -24 -9 -35 -9 l-20 0 20 9 c11
5 27 9 35 9 13 1 13 0 0 -9z m-270 -10 c0 -5 -4 -10 -10 -10 -5 0 -10 5 -10
10 0 6 5 10 10 10 6 0 10 -4 10 -10z m148 -21 c-7 -5 -26 -9 -43 -9 -22 0 -26
3 -16 9 8 5 28 9 44 9 19 -1 24 -4 15 -9z m136 -5 c21 -8 21 -24 0 -24 -8 0
-12 5 -9 10 4 7 -3 9 -22 5 -21 -5 -24 -4 -13 4 18 12 23 13 44 5z m-141 -31
c-13 -2 -23 -11 -23 -19 0 -8 -4 -14 -10 -14 -12 0 -12 3 -4 24 4 10 17 15 33
15 23 -2 24 -2 4 -6z m142 -33 c-3 -5 -1 -10 5 -10 6 0 8 -4 5 -10 -3 -5 -11
-10 -17 -10 -6 0 -8 3 -5 7 4 3 2 12 -4 20 -9 10 -8 13 5 13 10 0 14 -4 11
-10z m-135 -30 c-8 -5 -17 -7 -19 -4 -3 3 1 9 9 14 8 5 17 7 19 4 3 -3 -1 -9
-9 -14z m26 -37 c0 -1 -14 1 -31 4 -25 5 -26 7 -10 13 15 5 49 -8 41 -17z"/>
</g>
</svg>
