<?xml version="1.0" standalone="no"?>
<svg version="1.0" xmlns="http://www.w3.org/2000/svg"
 width="1171.000000pt" height="1280.000000pt" viewBox="0 0 1171.000000 1280.000000"
 preserveAspectRatio="xMidYMid meet">
<g transform="translate(0.000000,1280.000000) scale(0.100000,-0.100000)"
fill="#000000" stroke="none">
<path d="M5823 12789 c-7 -7 -13 -28 -13 -46 0 -21 -7 -39 -21 -50 -12 -10
-42 -39 -68 -64 -25 -25 -56 -51 -68 -58 -15 -7 -23 -21 -23 -36 0 -14 -4 -25
-10 -25 -5 0 -10 -15 -10 -32 0 -18 -7 -55 -15 -82 -9 -29 -15 -89 -15 -146 0
-149 -30 -169 -96 -64 -18 27 -46 64 -63 82 -27 29 -36 33 -73 30 -34 -2 -45
-8 -57 -30 -14 -24 -14 -34 2 -93 18 -66 18 -67 -4 -111 -26 -54 -22 -83 21
-150 27 -44 30 -55 30 -135 0 -86 0 -86 38 -130 54 -61 62 -80 62 -143 0 -30
5 -58 10 -61 6 -3 10 -21 10 -39 0 -19 7 -39 15 -46 19 -16 21 -77 3 -63 -7 6
-31 16 -53 23 -48 15 -85 46 -85 72 0 15 -8 18 -53 18 -29 0 -109 11 -178 24
-68 13 -140 27 -160 30 -21 4 -43 13 -50 22 -10 12 -26 14 -78 8 -65 -6 -67
-5 -111 30 -49 39 -77 45 -82 19 -2 -9 -21 -26 -43 -37 -52 -27 -57 -57 -17
-100 16 -17 33 -41 36 -52 9 -29 -10 -74 -30 -74 -9 0 -83 -23 -166 -50 -265
-89 -380 -103 -471 -59 l-47 23 0 93 0 92 35 7 c43 8 85 39 85 63 0 24 -41 41
-115 48 -72 7 -347 -31 -381 -53 -12 -7 -31 -10 -43 -7 -17 4 -24 0 -27 -15
-4 -12 -17 -22 -36 -26 -34 -7 -151 9 -180 25 -18 9 -17 11 6 42 34 46 38 76
21 157 -22 104 -19 136 15 191 40 65 46 94 26 124 -19 29 -50 32 -138 11 -32
-8 -67 -12 -78 -9 -15 4 -20 0 -20 -16 0 -34 -43 -71 -84 -71 -28 0 -41 8 -76
48 -23 26 -60 77 -82 115 -22 37 -44 70 -49 73 -5 3 -9 17 -9 32 0 24 -6 29
-43 40 -48 15 -147 87 -174 128 -13 21 -17 47 -15 135 1 122 -3 127 -65 89
-45 -27 -58 -81 -44 -177 18 -118 15 -141 -20 -181 -24 -26 -30 -42 -27 -64 4
-28 -1 -34 -62 -73 -76 -49 -87 -66 -59 -91 20 -18 39 -72 39 -111 0 -18 -6
-23 -26 -23 -19 0 -28 -8 -39 -33 -8 -19 -21 -39 -29 -46 -20 -17 -65 -6 -107
25 -18 13 -40 24 -49 24 -26 0 -59 -37 -66 -74 -8 -47 1 -83 52 -209 25 -59
47 -128 51 -153 7 -51 25 -64 92 -64 46 0 61 -14 61 -57 0 -70 -43 -133 -77
-114 -14 7 -31 4 -64 -10 -24 -11 -70 -26 -101 -34 l-57 -13 -10 52 c-5 28
-23 137 -40 241 -17 105 -45 276 -62 380 -28 168 -31 211 -30 366 2 156 0 178
-16 198 -10 12 -27 22 -38 23 -11 1 -103 -18 -204 -43 l-183 -44 6 -165 c9
-209 23 -687 32 -1029 5 -180 4 -262 -3 -258 -12 8 -38 -19 -47 -50 -4 -12 0
-38 8 -57 l15 -36 -43 0 c-35 0 -45 4 -49 20 -3 11 -17 25 -32 32 -34 15 -60
0 -60 -36 1 -23 -3 -26 -35 -27 -19 0 -78 -4 -130 -8 -94 -7 -95 -7 -130 21
-19 15 -38 28 -41 28 -4 0 -16 -14 -27 -31 l-19 -31 -72 104 -73 103 7 155 c4
115 9 158 20 166 11 8 11 22 -1 87 -12 65 -13 88 -2 135 8 39 12 131 10 287
-1 127 -2 245 -2 263 0 19 -4 31 -10 27 -5 -3 -12 6 -16 20 -10 40 -48 31 -52
-13 -4 -45 -48 -62 -159 -62 -76 0 -84 -2 -79 -17 2 -10 8 -52 11 -94 l7 -77
-70 -138 c-38 -77 -72 -147 -76 -156 -3 -11 -15 -18 -31 -18 -14 0 -25 -4 -25
-9 0 -4 -12 -26 -26 -47 -25 -36 -26 -42 -15 -87 14 -62 14 -106 -2 -135 -10
-17 -11 -40 -4 -92 10 -74 6 -97 -18 -106 -31 -12 -60 57 -34 83 6 6 9 21 7
34 -4 29 -48 38 -67 15 -20 -24 -24 -133 -8 -196 14 -48 14 -58 0 -84 -19 -37
-12 -136 13 -188 16 -34 19 -36 68 -34 l51 1 5 -75 c4 -55 13 -89 32 -126 40
-76 52 -214 38 -447 -5 -100 -10 -259 -10 -354 0 -160 1 -172 19 -178 11 -3
31 -15 46 -27 24 -19 26 -25 20 -72 -4 -40 0 -66 20 -121 40 -108 45 -140 45
-286 0 -96 4 -148 15 -179 20 -56 19 -109 -2 -132 -15 -17 -15 -21 0 -54 21
-43 21 -67 1 -120 -14 -38 -14 -44 0 -72 20 -39 20 -68 1 -122 -19 -53 -19
-49 9 -60 13 -5 38 -33 56 -64 17 -31 40 -60 49 -66 10 -5 21 -22 24 -38 3
-17 21 -40 41 -56 20 -15 36 -35 36 -46 0 -53 67 -66 100 -20 30 42 60 40 60
-4 0 -26 -9 -42 -42 -75 l-42 -40 -2 -112 c-1 -76 3 -123 12 -145 8 -19 14
-69 14 -117 0 -65 6 -100 27 -158 25 -69 27 -86 28 -254 l1 -180 37 -75 c29
-58 36 -82 32 -107 -5 -26 -3 -33 10 -33 9 0 29 -13 45 -29 l29 -29 0 -173 0
-174 30 -25 c29 -24 31 -28 25 -76 -7 -55 -7 -55 62 -109 l31 -24 -4 -93 -5
-93 31 -29 c28 -27 31 -35 31 -92 0 -62 0 -62 37 -81 52 -25 66 -69 50 -155
-13 -70 -15 -175 -5 -198 6 -11 -9 -27 -52 -58 -50 -36 -60 -49 -60 -73 0 -19
-5 -29 -15 -29 -10 0 -15 -11 -15 -35 0 -31 -6 -40 -47 -68 -93 -65 -105 -77
-98 -108 6 -25 3 -30 -29 -43 -41 -17 -43 -25 -17 -57 19 -23 19 -24 -15 -63
-47 -55 -44 -81 16 -161 27 -36 49 -71 47 -78 -1 -8 8 -11 26 -9 32 3 60 -24
113 -113 l36 -59 -18 -53 c-17 -51 -17 -55 -1 -81 10 -15 37 -65 61 -113 25
-47 51 -91 60 -98 9 -8 16 -28 16 -46 0 -19 13 -51 33 -81 24 -37 32 -59 31
-91 0 -24 3 -43 7 -43 22 0 67 -53 74 -87 4 -21 20 -52 36 -71 16 -18 29 -37
29 -41 0 -5 12 -22 28 -39 15 -16 38 -57 51 -91 25 -64 83 -141 106 -141 8 0
27 -16 42 -36 47 -59 299 -308 332 -327 l31 -18 0 45 c0 54 21 81 50 66 30
-16 40 -44 40 -113 l0 -64 45 -18 c25 -9 53 -28 62 -41 8 -13 25 -24 38 -24
12 0 43 -11 69 -25 50 -26 95 -32 126 -15 15 8 23 5 40 -19 11 -16 48 -43 82
-60 49 -25 74 -31 127 -31 48 0 82 -7 126 -26 87 -37 173 -64 205 -64 18 0 33
-8 44 -24 8 -13 28 -27 44 -31 26 -5 30 -11 35 -51 6 -57 27 -80 88 -94 43
-10 50 -16 57 -43 5 -21 24 -43 53 -64 81 -58 97 -77 92 -106 -3 -15 -22 -40
-43 -57 -47 -37 -55 -66 -33 -116 14 -31 17 -66 15 -167 -1 -94 2 -138 13
-164 19 -44 19 -90 0 -123 -21 -38 -18 -54 20 -104 19 -26 35 -57 35 -70 0
-17 7 -26 24 -30 13 -3 48 -36 78 -74 30 -37 71 -76 91 -87 24 -13 41 -31 48
-52 18 -55 107 -167 140 -176 16 -4 36 -19 45 -32 19 -29 55 -32 94 -10 14 8
33 14 44 15 18 0 120 -85 219 -184 50 -50 97 -133 97 -173 0 -15 11 -27 35
-39 24 -11 53 -42 87 -90 43 -63 57 -76 92 -86 22 -6 50 -19 61 -29 11 -9 34
-24 51 -32 30 -16 31 -15 53 14 12 16 52 49 89 73 l67 43 18 93 c20 107 48
178 83 211 27 26 35 22 62 -32 16 -33 19 -34 74 -34 52 0 60 -3 87 -33 16 -17
36 -32 43 -32 22 1 54 23 83 58 15 17 33 32 41 32 11 0 14 18 14 78 0 42 7
102 15 132 8 30 15 91 15 134 0 59 4 84 16 97 15 17 15 24 -1 88 -22 90 -18
115 18 119 33 4 36 30 10 93 -16 40 -15 42 3 56 21 15 61 10 83 -12 8 -8 16
-39 19 -69 4 -51 7 -56 29 -56 40 0 81 -27 88 -59 6 -30 34 -60 74 -81 18 -9
22 -17 18 -39 -5 -22 1 -34 28 -60 36 -33 52 -82 41 -124 -3 -14 1 -32 9 -43
8 -11 11 -29 8 -42 -4 -18 2 -30 27 -51 30 -25 33 -31 31 -82 l-1 -56 108
-110 c59 -61 123 -118 142 -128 69 -36 199 -20 239 29 10 12 32 16 78 16 62 0
64 1 74 30 9 24 20 33 60 44 43 13 53 13 84 0 19 -7 63 -14 98 -14 l65 0 16
-66 c32 -126 84 -194 170 -219 99 -30 104 -27 166 87 30 56 59 114 63 130 4
15 12 28 18 28 5 0 30 42 54 94 48 100 106 166 148 166 38 1 67 24 110 91 l42
64 80 3 80 3 28 40 c15 22 39 44 53 49 15 6 39 23 54 38 74 71 95 82 159 82
57 0 64 3 118 45 32 24 87 66 122 92 43 32 74 65 93 99 28 50 28 51 11 93 -16
41 -16 46 1 94 14 38 20 101 27 247 11 263 15 299 33 319 9 10 16 24 16 32 0
8 18 24 39 36 22 13 61 51 87 85 61 81 172 196 251 259 60 48 64 50 85 35 34
-24 45 -20 67 28 l19 45 84 0 c78 0 88 2 171 44 87 45 88 45 134 31 123 -37
278 7 433 123 48 36 51 40 45 74 -6 32 -2 42 34 83 36 42 41 53 42 99 2 83 10
102 45 101 16 0 36 -4 45 -8 14 -6 15 3 11 76 -3 60 2 113 17 187 11 57 21
132 21 166 0 55 3 64 30 90 18 17 35 48 42 72 6 26 24 56 46 77 27 27 37 46
43 87 10 65 36 94 146 161 45 28 93 63 107 79 19 21 35 29 60 29 28 0 36 5 46
30 10 25 18 30 46 30 29 0 35 4 40 28 13 58 15 61 47 64 28 3 32 6 29 29 -2
19 4 33 22 47 35 27 44 57 39 127 l-5 60 -42 -3 c-49 -4 -57 3 -81 73 -20 62
-31 75 -61 75 -22 0 -24 -4 -24 -44 0 -30 11 -68 35 -117 40 -83 41 -89 20
-129 -21 -41 -61 -40 -100 0 -16 17 -39 30 -51 30 -22 0 -64 -34 -64 -52 0
-11 -38 -10 -45 2 -3 5 -10 37 -16 69 -5 33 -25 93 -44 133 -25 50 -35 84 -33
108 3 30 0 35 -20 38 -13 2 -33 20 -48 42 -14 21 -36 41 -49 44 -15 4 -28 20
-39 46 -25 62 -22 70 23 70 58 0 67 -6 107 -71 37 -61 58 -79 94 -79 18 0 19
-3 9 -21 -8 -17 -7 -33 6 -74 13 -44 19 -52 36 -48 15 4 23 -3 34 -31 12 -29
21 -37 38 -34 19 3 21 8 18 38 -4 43 -13 61 -68 131 -23 30 -43 65 -43 77 0
12 -10 42 -22 67 -21 42 -21 46 -5 62 15 16 19 16 50 1 25 -12 43 -34 70 -85
20 -38 45 -77 55 -86 18 -16 21 -16 66 9 56 31 56 31 106 -63 36 -70 73 -101
97 -82 20 17 36 118 31 195 -6 88 -29 121 -118 165 -301 151 -331 507 -86
1000 35 69 80 151 100 182 20 32 36 66 36 76 0 10 14 49 31 85 26 55 50 163
59 263 0 1 14 19 32 39 30 34 31 38 19 67 -32 79 -20 140 32 162 28 12 30 16
32 72 2 41 11 80 30 119 30 66 46 184 26 207 -6 8 -36 20 -67 27 -31 8 -67 22
-80 33 -21 16 -24 24 -18 55 4 20 17 61 29 91 21 51 22 57 7 90 -21 49 -20
175 1 224 18 43 47 50 47 12 0 -15 9 -31 25 -41 39 -25 40 -53 5 -160 -38
-119 -38 -181 2 -221 l26 -25 17 53 c41 123 94 193 157 206 28 6 29 7 21 42
-4 20 -8 81 -8 136 0 85 4 107 23 143 13 24 22 45 20 45 -42 21 -43 23 -43
106 0 44 3 81 7 81 4 0 10 11 14 24 3 14 12 27 19 30 8 3 22 20 31 38 21 41
31 48 71 48 l33 0 -6 73 c-6 71 -6 72 25 101 34 33 38 53 16 95 -10 20 -12 44
-8 80 4 36 1 64 -12 97 -15 40 -16 51 -4 88 9 28 13 103 13 231 1 197 2 201
48 267 10 14 10 24 -1 50 -7 18 -16 48 -18 66 -5 30 -4 32 27 32 47 0 67 15
102 76 17 31 41 60 54 66 20 9 21 14 12 31 -10 19 -9 36 8 193 3 29 -30 90
-94 174 -17 22 -19 38 -14 133 5 114 16 128 29 37 7 -46 12 -56 30 -58 15 -2
27 5 39 23 15 23 17 53 15 257 -2 203 0 232 15 249 15 17 15 23 -2 91 -18 67
-19 110 -16 541 l4 469 -23 -4 c-43 -6 -61 -57 -66 -186 -4 -94 -12 -142 -40
-244 -31 -112 -38 -128 -57 -129 -14 0 -32 -17 -54 -52 -33 -51 -33 -52 -18
-91 17 -42 12 -55 -26 -84 -10 -7 -18 -20 -18 -29 0 -8 -44 -84 -97 -169 l-98
-153 -5 645 -5 644 -29 15 c-41 21 -61 19 -74 -10 -17 -37 -15 -162 3 -223 15
-49 15 -54 -5 -91 -11 -22 -24 -42 -30 -46 -5 -3 -10 -15 -10 -25 0 -10 -77
-184 -171 -387 -94 -202 -180 -388 -191 -411 l-20 -44 -33 54 c-18 29 -36 71
-40 93 -4 22 -11 48 -16 57 -11 20 -49 24 -66 7 -7 -7 -19 2 -41 31 -27 38
-30 47 -25 94 5 48 3 55 -18 70 -30 21 -57 21 -61 -1 -2 -11 -29 19 -79 87
-70 96 -75 107 -63 125 19 27 17 95 -4 121 -23 30 -56 46 -69 33 -6 -6 -21 84
-43 248 -27 212 -33 286 -31 417 1 87 -1 183 -5 213 -6 53 -7 54 -33 48 -29
-7 -61 -39 -61 -62 0 -8 -14 -28 -30 -43 -24 -22 -30 -36 -30 -68 0 -33 6 -45
30 -64 l30 -24 -40 -199 c-22 -110 -42 -206 -45 -212 -7 -21 -35 -2 -35 23 0
40 -25 88 -69 134 l-41 43 -24 -22 c-24 -22 -79 -40 -124 -41 -16 0 -26 8 -32
28 -6 15 -15 36 -20 47 -5 11 -11 34 -12 50 -2 22 -9 31 -24 33 -31 4 -43 41
-37 111 l6 62 -32 12 c-24 9 -34 21 -43 52 -6 22 -19 48 -27 59 -49 57 -141
104 -141 71 0 -8 -4 -15 -10 -15 -5 0 -24 -10 -42 -22 -19 -13 -81 -48 -140
-78 -103 -53 -107 -54 -126 -37 -14 13 -32 17 -63 15 -43 -3 -44 -3 -47 -43
-4 -51 -38 -125 -57 -125 -10 0 -15 -10 -15 -33 0 -19 -8 -44 -19 -56 -24 -27
-36 -147 -26 -263 8 -99 39 -285 58 -350 l15 -47 -38 -6 c-44 -7 -88 9 -144
53 -41 34 -61 39 -176 45 -48 3 -93 13 -125 27 -33 15 -82 25 -143 29 -51 4
-97 12 -103 18 -7 7 -18 3 -34 -13 -12 -12 -39 -26 -59 -29 -58 -11 -54 -59
10 -127 l45 -48 -43 -51 c-46 -54 -111 -99 -146 -99 -33 0 -52 -11 -52 -31 0
-11 -9 -20 -22 -23 -168 -36 -175 -35 -180 9 -4 32 -2 35 23 35 19 0 30 6 34
20 10 32 -3 55 -44 78 -21 12 -41 29 -45 37 -4 12 -26 15 -106 15 l-100 0 0
94 0 95 33 22 c73 50 76 87 12 142 -37 31 -46 35 -51 23 -5 -13 -26 -16 -126
-16 l-119 0 -30 -32 c-20 -23 -37 -32 -53 -30 -13 2 -51 -11 -85 -27 -33 -17
-74 -31 -91 -31 -16 0 -63 -9 -104 -20 -41 -12 -87 -20 -102 -18 -22 2 -29 -2
-35 -25 -4 -16 -13 -35 -20 -43 -11 -14 -109 -48 -116 -40 -3 2 9 23 26 47 17
23 31 47 31 54 0 6 18 36 40 65 l40 54 1 115 c1 64 4 163 8 221 9 153 0 221
-35 266 -50 63 -57 75 -59 97 -1 18 -9 23 -44 25 -34 3 -50 -3 -83 -27 -61
-45 -75 -42 -74 17 1 31 -5 56 -17 72 -10 14 -28 39 -41 57 -12 17 -30 67 -40
112 -16 73 -23 87 -67 135 -27 30 -49 58 -47 63 5 20 -15 50 -47 71 -36 23
-49 43 -59 94 -7 31 -25 43 -76 53 -23 4 -39 2 -47 -6z m41 -155 c3 -9 6 -36
6 -61 0 -45 0 -45 -22 -31 -26 17 -34 57 -18 88 13 24 26 26 34 4z m156 -176
l-1 -43 -19 35 c-24 45 -24 50 0 50 17 0 20 -7 20 -42z m122 -255 c19 -21 23
-34 18 -53 -6 -23 -8 -22 -32 28 -29 58 -25 66 14 25z m-3624 -120 c-12 -27
-44 -73 -50 -73 -10 0 3 43 20 63 15 17 37 24 30 10z m7168 -473 c43 -17 22
-21 -27 -6 -27 9 -36 14 -22 15 12 1 34 -4 49 -9z m-3225 -57 c-9 -16 -10 -15
-11 8 0 14 3 29 8 33 12 12 14 -22 3 -41z m-1641 -153 c0 -5 -4 -10 -10 -10
-5 0 -10 5 -10 10 0 6 5 10 10 10 6 0 10 -4 10 -10z m3629 -246 c8 -7 13 -15
10 -17 -3 -3 -90 5 -254 24 -35 5 149 14 190 10 22 -2 46 -10 54 -17z m-8325
-406 c23 -32 29 -79 16 -112 -10 -27 -12 -28 -26 -14 -12 11 -44 133 -44 166
0 9 41 -22 54 -40z m10971 -2413 c-16 -8 -39 -14 -50 -14 -11 0 -2 6 20 14 52
17 68 17 30 0z m-155 -120 c0 -39 -33 -65 -81 -65 l-42 0 25 33 c44 56 98 74
98 32z m-9476 -128 c4 -35 4 -76 1 -90 -7 -27 -8 -27 -96 -27 -86 0 -89 1 -89
23 1 29 32 98 53 116 19 15 84 40 108 41 13 0 18 -14 23 -63z m-295 27 c6 -15
14 -46 18 -70 5 -42 5 -44 -20 -44 -21 0 -28 6 -33 28 -19 84 -21 87 -43 90
-32 5 -68 -22 -76 -58 -8 -35 -31 -39 -89 -15 -30 13 -36 20 -36 45 0 42 22
49 156 49 110 1 111 1 123 -25z m-460 0 c-22 -27 -87 -54 -129 -54 -37 0 -40
2 -40 28 0 16 3 32 7 35 3 4 44 7 91 7 76 0 83 -2 71 -16z m9402 -73 c0 -20 0
-80 -1 -134 -1 -68 3 -112 15 -148 16 -47 16 -55 1 -109 -15 -54 -15 -60 1
-88 17 -30 17 -32 -4 -75 -22 -45 -59 -68 -70 -42 -2 8 -3 146 -1 307 3 211 8
303 18 327 12 32 14 33 27 16 7 -11 13 -35 14 -54z m-9311 0 c5 -11 10 -31 10
-45 0 -24 -4 -26 -40 -26 -27 0 -43 -5 -46 -15 -9 -24 -24 -18 -24 10 0 27 54
95 76 95 7 0 18 -9 24 -19z m10138 -8 c-3 -27 -6 -28 -60 -31 -33 -2 -58 1
-58 7 0 20 53 51 87 51 32 0 34 -2 31 -27z m-10040 -240 c-2 -23 -8 -28 -32
-28 -25 0 -29 4 -30 28 -2 24 2 27 32 27 30 0 33 -2 30 -27z m9350 -185 c7 -7
12 -24 12 -38 0 -30 -17 -50 -42 -50 -15 0 -18 9 -18 50 0 41 3 50 18 50 10 0
23 -5 30 -12z m-9440 -50 c3 -25 0 -28 -27 -28 -28 0 -31 3 -31 31 0 27 3 30
28 27 21 -2 28 -9 30 -30z m161 -110 c6 -17 11 -45 11 -63 0 -22 9 -40 30 -60
37 -36 39 -68 5 -83 -60 -27 -95 -8 -114 63 -11 42 -15 177 -5 188 14 14 63
-16 73 -45z m9199 -68 l32 0 0 -145 c0 -107 -4 -155 -15 -182 -14 -34 -16 -35
-37 -21 -37 25 -44 61 -26 131 12 46 13 64 5 69 -18 11 -31 10 -52 -6 -16 -11
-21 -31 -25 -100 -6 -88 -20 -120 -41 -99 -7 7 -14 36 -16 65 -3 29 -11 67
-19 85 -18 39 -18 52 0 59 8 3 17 17 21 31 3 14 24 51 47 83 39 56 41 57 67
44 14 -8 41 -14 59 -14z m559 -25 c17 -8 39 -25 49 -39 17 -27 25 -99 12 -112
-4 -4 -27 1 -51 10 -82 31 -97 17 -97 -89 0 -63 -11 -105 -29 -105 -18 0 -31
55 -31 130 l0 80 36 0 36 0 -7 75 -7 76 28 -7 c16 -4 43 -12 61 -19z m-9569
-112 c5 -10 7 -44 5 -75 -5 -51 -8 -58 -27 -58 -12 0 -38 -11 -58 -25 -20 -14
-42 -25 -47 -25 -16 0 -14 -6 28 -68 63 -93 98 -179 121 -297 14 -69 24 -85
54 -85 46 0 59 -40 29 -91 -22 -38 -37 -37 -79 5 -31 31 -34 39 -34 95 0 74
-16 115 -66 171 -26 29 -40 54 -43 83 -7 50 -43 75 -120 84 -63 7 -65 22 -8
60 38 26 43 34 52 85 6 32 15 62 20 67 6 6 39 15 73 19 71 10 75 12 75 47 0
29 12 33 25 8z m-295 -87 c10 -8 22 -28 27 -45 7 -25 6 -31 -7 -31 -23 0 -74
33 -68 45 3 5 8 18 11 28 7 20 13 21 37 3z m1855 2 c7 -7 12 -27 12 -45 l0
-32 -30 17 c-22 12 -30 24 -30 45 0 29 25 38 48 15z m8056 -100 c10 -14 16
-44 16 -75 0 -53 0 -53 -27 -47 -42 10 -46 17 -38 83 8 66 22 78 49 39z m180
6 c10 -26 7 -69 -10 -140 -16 -71 -29 -102 -50 -119 -6 -5 -15 -28 -19 -49
-14 -85 -48 -138 -76 -120 -13 8 -11 135 2 175 7 19 27 55 45 82 30 41 34 55
34 110 0 35 3 67 7 70 13 13 61 7 67 -9z m-8297 -46 c5 -7 15 -32 22 -55 22
-78 81 -84 81 -9 0 59 8 76 35 76 47 0 47 -60 1 -95 -31 -24 -35 -33 -41 -91
-8 -70 -25 -97 -59 -92 -15 2 -22 12 -26 38 -3 19 -13 49 -22 65 -9 17 -25 48
-37 70 -12 21 -21 54 -21 72 0 30 3 33 29 33 16 0 33 -6 38 -12z m7655 -23
c-6 -34 12 -53 64 -66 56 -14 68 -29 48 -57 -30 -44 -98 -19 -107 39 -5 32
-38 32 -52 -1 -6 -14 -9 -55 -7 -92 4 -67 4 -68 33 -68 18 0 42 12 64 32 30
26 38 29 46 17 18 -28 9 -49 -26 -63 -30 -13 -35 -20 -35 -48 0 -52 -11 -78
-30 -78 -19 0 -23 8 -35 69 -4 18 -23 51 -44 74 -36 40 -36 41 -36 128 0 79 2
90 24 113 18 19 35 26 61 26 34 0 37 -2 32 -25z m-8762 -45 c11 -6 22 -26 26
-45 6 -32 9 -35 43 -35 46 0 59 -9 70 -48 l10 -32 -88 0 -88 0 -16 43 c-23 60
-30 95 -23 112 6 17 39 20 66 5z m8568 1 c17 -11 18 -33 3 -116 -16 -86 -22
-99 -50 -103 -20 -3 -21 -9 -21 -113 0 -119 -9 -141 -64 -155 -24 -6 -25 -11
-28 -77 -3 -70 -4 -72 -30 -75 -28 -3 -28 -3 -28 55 0 83 17 133 58 175 35 37
36 39 34 112 l-3 75 33 3 33 3 -4 77 c-5 117 20 169 67 139z m437 -48 c-1 -22
-7 -29 -28 -31 -24 -3 -27 0 -27 27 0 27 3 31 28 31 24 0 28 -4 27 -27z m145
-115 c0 -58 0 -58 -30 -58 -30 0 -30 1 -30 53 0 30 2 56 4 58 2 2 16 4 30 4
25 0 26 -2 26 -57z m-155 -20 c15 -13 28 -38 31 -58 6 -33 4 -36 -28 -45 -29
-9 -35 -17 -53 -72 -11 -34 -23 -65 -27 -68 -10 -11 -68 34 -68 52 0 9 23 40
51 70 48 50 51 57 45 92 -9 57 6 65 49 29z m-654 -29 c42 -42 3 -164 -52 -164
-23 0 -24 2 -23 71 2 107 29 139 75 93z m-8447 -19 c28 -34 46 -87 46 -137 0
-28 -3 -33 -25 -33 -29 0 -51 29 -60 83 -8 40 -17 44 -55 22 -14 -8 -35 -14
-47 -15 -19 0 -23 5 -23 29 0 23 6 31 33 40 17 7 43 18 57 26 37 20 46 18 74
-15z m284 -50 c13 -6 30 -9 38 -6 11 4 14 -5 14 -40 0 -74 -41 -71 -81 8 -13
25 -26 38 -39 38 -23 0 -24 4 -9 32 11 20 11 20 32 0 12 -11 32 -25 45 -32z
m-718 0 c0 -27 -3 -30 -30 -30 -25 0 -30 4 -30 23 0 30 7 37 37 37 19 0 23 -5
23 -30z m9190 -22 c0 -60 -16 -128 -30 -128 -16 0 -49 75 -56 129 l-7 51 47 0
46 0 0 -52z m-9258 -75 c22 -20 23 -56 2 -77 -17 -18 -17 -18 -36 -11 -9 4
-13 18 -10 43 6 67 13 74 44 45z m3211 -13 c3 -11 3 -38 0 -60 -6 -40 -6 -40
-49 -40 -50 0 -52 4 -27 73 14 40 21 47 44 47 18 0 28 -6 32 -20z m6475 8 c7
-7 12 -27 12 -45 0 -32 -1 -33 -41 -33 -35 0 -40 2 -34 18 4 9 10 29 13 45 5
29 29 36 50 15z m241 -17 c11 -7 9 -14 -12 -35 -14 -14 -35 -26 -45 -26 -16 0
-20 -9 -24 -47 -7 -72 -65 -200 -109 -243 -32 -31 -40 -46 -48 -101 -15 -89
-59 -118 -89 -57 -17 36 4 87 62 148 37 39 45 56 60 125 22 97 67 197 103 224
27 22 78 27 102 12z m-2838 -58 c22 -69 -37 -153 -107 -153 -30 0 -34 3 -34
25 0 17 15 40 45 69 37 36 45 51 45 80 0 34 1 35 20 24 11 -7 25 -28 31 -45z
m1769 7 c18 -18 20 -31 18 -88 -3 -63 -4 -67 -29 -70 -23 -3 -25 0 -26 35 0
21 -4 62 -8 91 -6 44 -5 52 9 52 9 0 25 -9 36 -20z m606 -35 c11 -43 -19 -87
-47 -69 -14 8 -11 92 4 97 20 7 37 -4 43 -28z m-8855 -48 c5 -21 9 -59 7 -85
-3 -39 -7 -47 -25 -50 -27 -4 -53 32 -53 73 0 17 7 56 16 85 15 51 17 53 30
35 8 -11 19 -37 25 -58z m143 58 c3 -9 3 -36 -1 -60 -7 -53 7 -75 48 -75 31 0
49 23 49 62 0 13 6 32 13 43 13 17 15 17 30 -6 23 -33 21 -47 -13 -99 -56 -85
-50 -132 35 -260 69 -103 83 -145 66 -201 -9 -29 -17 -39 -29 -37 -13 2 -18
17 -22 65 -3 34 -8 65 -12 69 -4 4 -22 7 -40 8 l-33 1 -1 55 c-1 77 -2 80 -23
80 -28 0 -42 23 -51 90 -6 40 -20 78 -41 113 -24 38 -34 67 -37 110 l-4 57 30
0 c17 0 32 -6 36 -15z m2090 -48 c12 -18 0 -48 -19 -49 -16 0 -44 44 -52 82
l-6 35 33 -26 c19 -14 39 -33 44 -42z m-2657 -50 l6 -37 -47 0 c-53 0 -57 11
-30 81 l17 41 24 -24 c13 -13 26 -41 30 -61z m9133 23 l0 -60 -30 0 -30 0 0
60 0 60 30 0 30 0 0 -60z m-8927 -14 c-7 -59 0 -83 40 -142 36 -53 54 -95 59
-134 2 -19 15 -31 48 -46 60 -29 70 -40 70 -74 0 -38 -18 -39 -88 -4 -105 52
-178 175 -226 384 l-14 60 58 0 58 0 -5 -44z m9060 -42 c22 -8 7 -52 -37 -109
-19 -25 -36 -51 -38 -57 -6 -18 -29 1 -44 38 -19 45 -18 94 1 94 8 0 32 9 52
20 41 22 45 23 66 14z m-6449 -26 c-4 -13 -24 -39 -45 -59 -22 -20 -39 -43
-39 -52 0 -14 -4 -15 -26 -5 -25 12 -26 15 -21 65 3 29 8 57 12 63 3 5 33 10
66 10 58 0 60 -1 53 -22z m5806 -38 c0 -63 0 -64 -65 -118 -22 -18 -30 -20
-36 -10 -12 18 -12 17 16 107 25 77 27 81 55 81 30 0 30 0 30 -60z m800 41 c0
-10 -12 -36 -27 -57 -16 -24 -28 -58 -31 -86 -3 -33 -9 -48 -19 -48 -30 0 -53
22 -63 60 -14 51 -4 90 22 90 11 0 32 14 46 30 30 34 72 41 72 11z m-8624 -56
c23 -35 6 -75 -31 -75 -23 0 -25 4 -25 43 0 24 3 47 7 50 13 14 33 6 49 -18z
m2314 -30 c0 -37 -3 -45 -19 -45 -27 0 -59 30 -67 63 -6 26 -5 27 40 27 l46 0
0 -45z m150 0 l0 -45 -45 0 c-50 0 -52 4 -28 55 13 28 22 35 45 35 27 0 28 -2
28 -45z m2895 29 c9 -9 15 -28 13 -43 -6 -48 -78 -36 -78 13 0 42 36 59 65 30z
m2615 -14 c0 -17 -7 -45 -16 -61 -14 -29 -17 -30 -37 -16 -46 30 -24 107 30
107 19 0 23 -5 23 -30z m130 10 c15 -15 20 -33 20 -73 0 -53 20 -96 72 -153
18 -20 18 -23 3 -38 -25 -24 -35 -20 -86 35 -41 44 -49 60 -58 115 -10 56 -8
102 6 127 7 12 22 8 43 -13z m-6530 -35 c9 -27 17 -35 36 -35 23 0 24 -3 24
-60 0 -44 -4 -60 -14 -60 -20 0 -35 22 -42 61 -4 19 -20 48 -37 66 -32 34 -31
63 2 63 13 0 23 -11 31 -35z m-1886 -20 c17 -18 31 -78 21 -94 -9 -16 -43 -13
-52 3 -10 18 -4 106 7 106 5 0 15 -7 24 -15z m3144 -71 c38 -43 22 -74 -33
-60 -29 7 -50 37 -60 83 l-7 33 39 -16 c21 -8 48 -26 61 -40z m2666 37 c17
-18 25 -85 13 -98 -3 -3 -18 -1 -34 4 -35 12 -51 52 -35 88 14 30 33 32 56 6z
m-5282 -95 l3 -78 45 -17 c49 -18 61 -42 37 -75 -20 -27 -53 -12 -77 33 -36
71 -67 62 -72 -19 -3 -51 -5 -55 -28 -55 -22 0 -25 4 -22 32 4 36 -18 83 -59
131 -16 18 -32 44 -35 57 -7 29 18 75 41 75 12 0 15 -16 15 -75 l0 -75 30 0
c34 0 45 16 54 82 7 47 40 88 58 70 4 -4 8 -42 10 -86z m-1092 39 c14 -8 37
-14 53 -15 15 0 27 -6 27 -12 0 -23 -35 -98 -45 -98 -32 0 -95 83 -95 125 0
19 27 19 60 0z m6744 -7 c21 -116 26 -147 26 -166 0 -23 -27 -42 -59 -42 -19
0 -21 6 -21 63 0 53 8 103 25 155 7 20 24 14 29 -10z m525 -9 c15 -43 14 -69
-4 -89 -13 -15 -13 -20 2 -51 12 -23 17 -60 17 -119 1 -81 -18 -180 -34 -180
-21 0 -33 65 -27 150 7 97 -5 156 -42 208 -29 41 -26 60 9 80 16 9 30 20 30
25 0 4 9 7 19 7 12 0 23 -11 30 -31z m1491 11 c6 -12 8 -51 4 -103 -6 -80 -8
-85 -36 -102 -29 -17 -61 -72 -52 -87 3 -5 1 -8 -5 -8 -20 0 -46 53 -45 91 1
26 18 69 54 134 29 52 57 95 61 95 5 0 13 -9 19 -20z m448 -67 c-3 -54 -4 -56
-30 -57 -27 -2 -28 -1 -28 56 0 58 0 58 30 58 l31 0 -3 -57z m-1778 -28 c0
-54 0 -55 -30 -55 -30 0 -30 1 -30 55 0 54 0 55 30 55 30 0 30 -1 30 -55z
m-6790 -10 c11 -25 27 -48 35 -51 19 -8 45 -56 45 -83 0 -13 15 -30 39 -45 37
-24 39 -28 34 -63 -4 -33 0 -46 33 -88 21 -28 44 -67 51 -89 8 -21 24 -52 37
-70 13 -17 34 -51 46 -75 12 -24 30 -45 40 -48 19 -5 30 -31 30 -70 0 -27 72
-90 115 -101 30 -8 30 -9 33 -80 2 -62 1 -72 -14 -72 -36 0 -144 138 -144 183
0 8 -11 19 -25 25 -20 9 -25 19 -25 50 0 47 -14 62 -57 62 -33 0 -33 0 -33 50
0 61 -18 76 -105 85 -32 3 -61 8 -63 10 -3 2 1 19 8 36 8 18 14 60 14 94 1 70
-16 99 -63 110 -24 5 -26 9 -27 63 -1 39 -10 76 -27 116 -15 32 -27 67 -27 77
0 36 31 19 50 -26z m3502 23 c31 -15 36 -33 12 -42 -28 -11 -51 -6 -69 14 -15
16 -16 22 -5 35 7 9 18 14 24 11 6 -2 23 -10 38 -18z m4766 -40 c2 -46 0 -58
-12 -58 -22 0 -46 40 -46 76 0 37 7 46 35 42 17 -3 20 -11 23 -60z m445 29
c-3 -12 -18 -39 -34 -59 -16 -20 -34 -48 -40 -62 -12 -26 -29 -35 -29 -16 0 6
-9 19 -21 31 -25 25 -16 36 31 41 27 2 35 8 36 23 3 49 5 56 27 64 29 11 36 6
30 -22z m-9139 10 c30 -22 16 -52 -26 -55 -30 -3 -38 1 -43 18 -13 41 31 64
69 37z m5642 -32 c31 -47 0 -147 -40 -132 -13 5 -16 22 -16 82 0 68 2 75 20
75 11 0 27 -11 36 -25z m-3128 -7 c3 -13 25 -60 49 -105 43 -82 52 -116 34
-128 -6 -3 -18 6 -28 21 -36 52 -53 64 -88 64 -34 0 -35 2 -35 36 0 48 31 134
48 134 8 0 16 -10 20 -22z m-510 -30 c3 -25 0 -28 -27 -28 -28 0 -31 3 -31 31
0 27 3 30 28 27 21 -2 28 -9 30 -30z m142 -30 c0 -58 0 -58 -30 -58 -30 0 -30
1 -30 53 0 62 1 63 35 63 24 0 25 -3 25 -58z m1623 51 c31 -16 37 -28 37 -71
l0 -38 -45 0 -45 0 0 53 c0 70 9 79 53 56z m2007 -9 c18 -18 20 -33 20 -134 0
-75 5 -128 15 -156 20 -56 19 -90 -2 -105 -16 -12 -14 -17 27 -62 l45 -48 3
-183 c3 -192 -8 -289 -34 -299 -24 -9 -28 4 -26 74 2 50 -1 70 -14 84 -16 17
-16 23 -1 75 15 53 10 104 -10 104 -30 1 -33 17 -18 79 27 103 5 146 -73 139
-46 -4 -62 -31 -62 -110 0 -58 -4 -65 -27 -50 -25 16 -33 68 -32 203 1 139 1
139 24 139 26 0 30 -9 40 -87 4 -29 12 -56 18 -60 5 -3 23 8 39 26 l29 32 -1
147 c-1 208 -1 212 10 212 6 0 19 -9 30 -20z m3514 -2 c15 -25 -4 -72 -32 -76
-20 -3 -22 1 -22 48 0 47 2 51 21 48 12 -2 27 -11 33 -20z m-2980 -10 c24 -33
20 -75 -9 -104 -35 -35 -60 -28 -59 16 2 46 26 110 41 110 6 0 19 -10 27 -22z
m-3555 -23 c21 -20 18 -96 -5 -135 -27 -47 -49 -59 -70 -38 -14 14 -15 23 -6
61 9 33 9 52 0 75 -9 24 -9 34 2 47 15 18 55 13 79 -10z m3435 -28 c16 -84
-30 -140 -161 -195 -63 -27 -63 -27 -63 -2 0 15 9 22 30 27 33 6 50 28 50 63
0 12 14 34 31 49 28 26 31 32 24 71 l-7 41 44 -3 c43 -3 43 -3 52 -51z m-3894
23 c26 -26 26 -82 -1 -179 -26 -93 -26 -93 -49 -81 -29 16 -33 46 -15 127 9
41 15 93 13 114 -3 32 0 39 14 39 10 0 27 -9 38 -20z m735 -17 c40 -19 45 -43
20 -113 -8 -23 -15 -57 -15 -76 0 -18 -4 -36 -10 -39 -5 -3 -38 -7 -72 -9 -35
-1 -70 -6 -79 -10 -21 -9 -42 40 -43 97 -1 54 23 60 65 18 36 -36 37 -36 61
-14 14 12 18 31 18 83 0 58 5 80 16 80 2 0 19 -8 39 -17z m-2826 -26 c6 -8 14
-28 17 -45 8 -41 33 -48 83 -22 22 11 45 20 51 20 25 0 6 -42 -43 -94 -55 -59
-87 -72 -87 -35 0 14 -10 24 -30 32 -30 11 -30 12 -30 84 0 55 3 73 14 73 7 0
19 -6 25 -13z m831 -38 c20 -38 27 -43 63 -40 15 2 17 -7 17 -72 0 -51 -4 -76
-12 -79 -22 -8 -38 3 -38 24 0 12 -21 40 -50 66 -55 50 -65 87 -34 130 19 27
28 22 54 -29z m7600 -2 c0 -55 -20 -97 -46 -97 -9 0 -14 -10 -14 -29 0 -37
-31 -61 -77 -61 -18 0 -33 1 -33 3 0 1 7 20 14 42 12 35 19 40 47 43 36 4 51
18 45 42 -22 79 -10 110 40 110 22 0 24 -4 24 -53z m-8587 20 c8 -12 18 -37
21 -55 l8 -32 -46 0 c-25 0 -46 3 -46 6 0 15 35 104 41 104 4 0 13 -10 22 -23z
m6867 -17 c6 -11 8 -47 4 -90 -6 -64 -9 -70 -30 -70 -30 0 -37 26 -29 111 6
58 10 69 26 69 10 0 23 -9 29 -20z m440 -20 c16 -29 12 -77 -6 -84 -29 -11
-44 13 -44 71 0 50 1 53 20 43 11 -6 24 -19 30 -30z m1877 25 c7 -20 -25 -105
-40 -105 -19 0 -47 33 -47 57 0 46 72 86 87 48z m-8507 -86 c0 -40 16 -53 55
-43 29 7 38 -7 39 -65 1 -40 4 -46 24 -49 36 -5 56 -45 48 -99 -8 -64 -19 -71
-51 -37 -27 30 -165 300 -165 325 0 8 6 21 12 27 18 18 38 -12 38 -59z m156
44 c13 -62 14 -63 50 -63 l34 0 0 -65 c0 -74 10 -85 79 -85 37 0 41 -2 41 -25
0 -16 -11 -32 -30 -47 -16 -12 -30 -28 -30 -35 0 -17 -24 -17 -38 0 -5 6 -13
31 -17 54 -5 32 -13 46 -33 55 -18 9 -31 29 -44 68 -10 31 -33 70 -53 90 -49
51 -47 80 6 80 23 0 30 -5 35 -27z m6332 -3 c25 -49 -5 -139 -43 -127 -5 2
-11 38 -13 81 -3 76 -2 77 20 74 12 -2 28 -14 36 -28z m1747 1 c58 -22 75 -42
56 -65 -19 -23 -38 -20 -73 10 -33 27 -66 29 -79 4 -4 -8 -12 -34 -18 -57 -10
-36 -16 -43 -36 -43 -24 0 -25 3 -25 60 l0 60 48 24 c57 30 64 31 127 7z
m-8835 -106 c0 -26 8 -39 45 -69 56 -47 67 -81 34 -107 -54 -42 -108 -11 -130
74 -13 55 -7 136 12 148 20 12 39 -10 39 -46z m7831 17 c12 -30 -13 -75 -39
-70 -21 4 -30 87 -11 99 18 11 39 -1 50 -29z m-7527 1 c3 -16 2 -43 -2 -61 -7
-31 -8 -32 -29 -17 -23 16 -40 75 -28 94 3 6 17 11 30 11 18 0 25 -7 29 -27z
m1366 13 c0 -7 -9 -25 -21 -40 -16 -21 -29 -26 -64 -26 -65 0 -85 42 -32 68
34 16 117 15 117 -2z m380 2 c0 -7 -7 -53 -15 -103 -8 -49 -15 -125 -15 -167
0 -62 -3 -78 -15 -78 -8 0 -22 -17 -30 -37 -27 -65 -68 -73 -91 -18 -9 23 -21
35 -34 35 -25 0 -39 28 -30 60 10 39 37 37 54 -5 13 -31 20 -36 42 -33 20 2
33 14 47 42 19 36 20 45 9 121 -7 44 -12 107 -12 138 l0 57 45 0 c29 0 45 -4
45 -12z m1064 -3 c41 -17 44 -27 16 -55 -13 -13 -33 -20 -60 -20 l-40 0 0 45
c0 41 2 45 24 45 13 0 40 -7 60 -15z m334 -17 c3 -25 0 -28 -27 -28 -28 0 -31
3 -31 31 0 27 3 30 28 27 21 -2 28 -9 30 -30z m3192 -54 c13 -39 9 -121 -11
-199 l-12 -46 -24 23 c-23 21 -24 28 -19 83 3 33 9 90 12 127 6 61 8 66 25 58
9 -6 23 -26 29 -46z m-4776 20 c21 -20 20 -58 0 -79 -24 -24 -39 -13 -42 29
-5 63 10 82 42 50z m4186 -39 l0 -45 -45 0 c-25 0 -45 2 -45 5 0 3 8 23 17 45
15 33 23 40 45 40 26 0 28 -3 28 -45z m2528 4 c12 -31 22 -42 44 -46 42 -8 50
-31 27 -82 -18 -42 -20 -43 -38 -27 -10 9 -21 29 -24 44 -18 85 -69 79 -77 -9
-7 -74 -14 -83 -49 -64 -26 13 -41 33 -41 54 0 4 20 38 45 75 25 38 45 75 45
82 0 8 11 14 26 14 21 0 29 -8 42 -41z m-5958 -19 c0 -27 -3 -30 -30 -30 -27
0 -30 3 -30 30 0 27 3 30 30 30 27 0 30 -3 30 -30z m4836 9 c23 -26 26 -108 5
-156 -16 -38 -24 -40 -51 -13 -17 17 -20 33 -20 105 0 83 1 85 23 85 13 0 32
-9 43 -21z m-4340 -23 c3 -7 4 -35 2 -62 l-3 -49 -27 27 c-20 19 -28 37 -28
63 0 31 3 35 25 35 14 0 28 -6 31 -14z m3363 -12 c12 -15 21 -41 21 -61 0 -32
-2 -34 -27 -31 -27 3 -28 6 -31 61 -3 63 6 71 37 31z m-6243 -31 c3 -16 20
-39 36 -54 20 -17 29 -32 26 -47 l-3 -23 -44 23 c-57 29 -86 67 -77 102 9 38
53 37 62 -1z m8574 -15 c0 -52 -15 -83 -75 -152 -66 -78 -93 -154 -64 -183 9
-9 21 -7 50 8 65 33 89 23 89 -36 0 -34 -30 -46 -95 -39 -45 6 -55 10 -55 26
0 13 -9 20 -30 25 -16 3 -30 12 -30 19 0 7 -20 36 -45 64 -37 41 -45 58 -45
89 0 65 47 66 80 1 23 -45 46 -57 60 -30 7 14 6 23 -6 35 -23 22 -11 43 30 50
45 9 52 19 58 82 6 60 21 83 54 83 22 0 24 -4 24 -42z m-5301 -44 c-3 -65 -13
-73 -70 -54 -45 15 -55 25 -41 43 5 7 12 24 16 40 6 24 11 27 52 27 l45 0 -2
-56z m2822 35 c22 -22 20 -59 -4 -87 -17 -21 -37 13 -37 65 0 48 10 53 41 22z
m524 -9 c28 -16 58 -30 68 -30 29 0 19 -27 -30 -82 -53 -61 -68 -72 -89 -64
-11 4 -14 28 -14 106 0 55 3 100 8 100 4 0 30 -14 57 -30z m2076 20 c10 -6 19
-17 19 -25 0 -15 -26 -45 -40 -45 -13 0 -22 37 -15 60 7 23 10 24 36 10z
m-6320 -51 c11 -37 10 -89 -1 -89 -18 0 -50 39 -50 61 0 28 19 61 33 56 6 -2
14 -14 18 -28z m379 -5 c29 -86 -13 -291 -57 -282 -9 2 -24 15 -32 29 -12 22
-12 33 8 96 25 82 20 106 -30 127 l-30 12 21 27 c17 22 30 27 65 27 41 0 44
-2 55 -36z m-2536 -27 c15 -41 -3 -81 -37 -85 -33 -4 -36 16 -11 78 18 45 34
47 48 7z m1228 22 c28 -15 48 -70 48 -134 0 -46 -3 -55 -18 -55 -31 0 -70 52
-86 115 -9 32 -16 65 -16 72 0 16 44 17 72 2z m4351 -6 c15 -17 20 -49 18
-104 -1 -23 -4 -25 -31 -21 -43 6 -54 32 -40 93 13 52 27 60 53 32z m147 -2
c5 -11 10 -28 10 -39 0 -11 7 -25 15 -32 8 -7 15 -17 15 -23 0 -20 -49 37 -65
76 -13 32 -13 37 0 37 8 0 19 -9 25 -19z m-3030 -26 c17 -9 30 -23 30 -32 0
-20 -59 -123 -70 -123 -17 0 -40 44 -40 76 0 44 19 94 36 94 8 0 28 -7 44 -15z
m4149 -57 c-1 -51 4 -86 16 -116 16 -40 17 -47 2 -76 -8 -18 -12 -39 -7 -47 4
-8 11 -31 14 -52 4 -21 14 -41 22 -44 11 -4 8 -16 -17 -60 -17 -29 -31 -69
-32 -88 -1 -39 -7 -43 -29 -17 -35 39 -39 82 -29 303 9 218 18 269 46 269 13
0 16 -13 14 -72z m-7111 15 c-2 -22 -9 -29 -30 -31 -25 -3 -28 0 -28 27 0 28
3 31 31 31 27 0 30 -3 27 -27z m661 11 c13 -9 29 -32 37 -50 16 -37 19 -134 5
-134 -5 0 -30 19 -57 43 -44 40 -47 47 -52 100 -4 55 -4 57 20 57 13 0 34 -7
47 -16z m1969 -6 c-2 -15 -13 -24 -37 -30 -41 -11 -45 -8 -30 26 9 19 20 26
41 26 25 0 29 -4 26 -22z m3059 14 c33 -21 33 -105 1 -126 -30 -18 -40 4 -32
73 7 62 10 67 31 53z m-2602 -36 c13 -9 20 -30 23 -70 4 -51 3 -56 -16 -56
-27 0 -62 45 -62 81 0 57 18 72 55 45z m5139 -2 c7 -19 8 -64 1 -64 -3 0 -17
7 -30 16 -34 22 -34 64 -1 64 13 0 27 -7 30 -16z m-1944 -49 c4 -30 10 -41 25
-43 34 -6 36 -16 14 -79 l-20 -61 26 -98 c17 -68 27 -137 31 -219 2 -66 7
-139 9 -162 4 -40 3 -43 -20 -43 -20 0 -26 7 -34 38 -5 20 -11 51 -13 67 -2
20 -11 33 -25 40 -13 5 -23 15 -23 22 0 22 21 68 42 90 l21 22 -47 46 c-52 52
-57 80 -31 155 8 23 15 67 15 97 0 48 -2 54 -26 63 -14 6 -39 10 -55 10 -17 0
-39 5 -50 10 -21 12 -26 49 -6 54 6 2 32 10 57 19 25 9 59 15 75 14 27 -2 30
-6 35 -42z m984 20 c29 -30 32 -115 4 -167 -13 -26 -26 -22 -48 15 -13 20 -20
50 -20 80 0 77 28 108 64 72z m1464 -10 c40 -6 42 -8 42 -41 0 -38 -24 -104
-38 -104 -32 0 -82 85 -82 140 0 26 3 29 18 22 9 -6 36 -13 60 -17z m-8528
-22 c0 -34 -8 -46 -37 -62 -27 -14 -73 -14 -73 0 0 38 47 89 82 89 24 0 28 -4
28 -27z m138 15 c6 -7 13 -31 17 -53 12 -74 15 -82 35 -91 13 -6 17 -13 11
-23 -7 -11 -15 -10 -44 8 -19 11 -42 21 -51 21 -13 0 -16 12 -16 68 0 38 3 72
7 75 10 11 30 8 41 -5z m2929 -18 c36 -22 61 -82 35 -88 -29 -7 -63 10 -82 41
-39 63 -16 86 47 47z m2138 1 c19 -22 22 -63 15 -251 -6 -150 0 -163 74 -154
57 7 70 -1 71 -41 0 -13 12 -25 33 -34 43 -19 45 -57 4 -66 -39 -8 -78 9 -129
55 -33 31 -51 40 -78 40 -29 0 -36 4 -42 28 -11 36 -10 267 0 365 9 82 19 93
52 58z m1270 -41 c19 -36 19 -90 1 -135 -12 -27 -12 -49 -4 -106 5 -40 7 -87
3 -106 -5 -30 -36 -63 -60 -63 -6 0 -10 76 -10 220 l0 220 27 0 c20 0 32 -8
43 -30z m-6897 -7 c46 -19 48 -27 21 -95 -14 -35 -61 -55 -94 -40 -29 13 -31
38 -13 107 14 51 22 53 86 28z m7176 -9 c3 -9 6 -54 6 -100 0 -67 -3 -84 -14
-84 -40 0 -62 114 -34 175 13 28 33 33 42 9z m1330 -10 c8 -3 22 -28 31 -54
19 -58 36 -74 70 -68 30 6 32 -9 10 -52 -12 -23 -23 -30 -44 -30 -25 0 -28 3
-24 24 5 26 -15 51 -71 89 -19 13 -26 27 -26 51 0 45 14 55 54 40z m-8336 -13
c9 -5 32 -29 51 -54 18 -25 50 -53 70 -64 20 -10 38 -19 40 -20 2 -2 -4 -12
-14 -23 -27 -30 -63 -25 -101 15 -27 29 -84 130 -84 149 0 9 19 7 38 -3z
m6560 -3 c20 -20 14 -48 -17 -79 -46 -46 -114 -35 -95 15 3 8 23 22 45 30 21
9 39 23 39 31 0 18 12 19 28 3z m-4579 -49 l51 -22 0 -93 c0 -94 -13 -144 -36
-144 -19 0 -28 43 -21 103 9 76 1 84 -67 67 -68 -16 -91 -4 -82 44 14 68 63
83 155 45z m3781 -10 c7 -11 9 -31 6 -44 -6 -22 36 -251 54 -301 6 -14 10 -45
10 -69 0 -34 -5 -47 -22 -59 -12 -9 -25 -16 -29 -16 -4 0 -9 42 -11 93 -4 66
-14 120 -38 192 -31 97 -42 187 -27 213 13 19 45 14 57 -9z m191 11 c10 -6 19
-20 19 -30 0 -17 -7 -20 -45 -20 -40 0 -45 2 -45 23 0 13 3 27 7 30 10 10 42
8 64 -3z m-2941 -64 c0 -87 -36 -131 -72 -87 -10 13 -18 36 -18 53 0 34 39 78
70 78 17 0 20 -6 20 -44z m-458 -3 c50 -52 68 -93 68 -152 0 -44 -4 -55 -29
-77 -19 -16 -32 -40 -36 -64 -8 -47 -14 -52 -90 -76 -38 -11 -75 -32 -100 -55
-40 -37 -41 -37 -68 -21 -55 34 -20 102 53 102 33 0 40 3 40 19 0 11 -15 31
-32 45 l-33 25 18 30 c17 28 17 34 2 93 -12 46 -14 68 -6 85 14 30 36 29 57
-2 13 -20 15 -39 9 -100 -14 -149 17 -174 105 -85 28 27 50 55 50 62 0 8 -16
38 -35 68 -33 53 -42 90 -29 124 9 23 16 20 56 -21z m-312 -13 c0 -27 -3 -30
-30 -30 -27 0 -30 3 -30 30 0 27 3 30 30 30 27 0 30 -3 30 -30z m535 -10 c27
-42 52 -60 73 -52 30 10 5 -34 -26 -49 -19 -8 -37 -21 -42 -29 -7 -11 -13 -11
-34 3 -25 17 -40 54 -52 130 -6 36 -6 37 25 37 25 0 35 -7 56 -40z m494 -15
c31 -83 25 -165 -10 -153 -10 3 -14 22 -14 59 l0 54 -40 0 -40 0 -3 -57 c-3
-62 -10 -68 -56 -47 -38 18 -38 33 3 97 22 33 42 69 46 81 5 17 14 21 50 21
l44 0 20 -55z m2915 40 c12 -33 -4 -45 -65 -45 -57 0 -59 1 -49 21 20 36 102
54 114 24z m-4476 -45 c26 -16 32 -26 32 -54 0 -26 -5 -36 -20 -41 -28 -9 -40
2 -40 35 0 38 -9 60 -25 60 -8 0 -17 5 -20 10 -11 17 39 11 73 -10z m-1772
-41 c28 -7 54 -23 70 -42 23 -27 26 -38 22 -89 -2 -32 -7 -60 -10 -63 -14 -15
-94 19 -126 52 l-33 36 -33 -32 c-23 -22 -41 -32 -57 -29 -21 3 -24 9 -24 43
0 36 4 42 42 63 26 14 45 33 49 48 7 28 29 30 100 13z m1938 -11 c18 -25 21
-94 6 -132 -7 -19 -17 -26 -35 -26 -23 0 -25 2 -14 22 7 14 10 46 6 90 -5 54
-3 68 8 68 8 0 21 -10 29 -22z m5449 -19 c46 -49 35 -124 -23 -154 -49 -25
-54 -21 -45 38 10 69 10 96 0 131 -7 26 -6 28 16 21 13 -3 36 -20 52 -36z
m1402 16 c43 -42 28 -137 -19 -119 -25 10 -36 38 -36 93 0 59 16 66 55 26z
m-4816 -31 c12 -11 13 -22 3 -64 -7 -29 -12 -67 -12 -86 0 -33 -2 -35 -27 -32
-34 4 -40 26 -35 134 l4 74 26 -6 c15 -4 33 -13 41 -20z m2076 -134 c-10 -128
-10 -155 0 -249 7 -66 6 -75 -10 -87 -11 -8 -29 -14 -40 -14 -20 0 -23 7 -28
70 -3 38 -4 84 -2 102 2 18 12 102 21 187 l17 154 25 -29 c24 -28 25 -31 17
-134z m875 121 c9 -22 9 -34 0 -51 -23 -42 -50 0 -36 56 8 32 21 30 36 -5z
m-6611 -44 c7 -19 9 -41 5 -50 -5 -14 0 -17 24 -17 23 0 36 8 52 31 30 41 73
38 78 -5 6 -54 -6 -74 -66 -108 -37 -22 -62 -45 -72 -66 -8 -18 -21 -31 -30
-29 -8 1 -34 28 -58 60 l-44 57 31 49 c22 34 31 60 31 90 0 38 2 41 19 31 11
-5 24 -25 30 -43z m5886 43 c44 -17 75 -58 75 -101 0 -34 -3 -39 -23 -39 -14
0 -40 18 -67 45 -27 28 -53 45 -67 45 -21 0 -22 3 -13 21 10 17 40 36 62 38 4
1 18 -3 33 -9z m-3148 -42 c16 -15 23 -33 23 -60 l0 -38 -45 0 c-41 0 -45 2
-45 25 0 24 29 95 39 95 2 0 15 -10 28 -22z m4025 -34 c4 -27 10 -66 14 -87 6
-36 -6 -67 -27 -67 -20 0 -49 42 -49 71 0 47 30 141 43 136 7 -2 15 -26 19
-53z m-4244 -39 c3 -63 21 -95 52 -95 26 0 42 -25 38 -62 -3 -30 -7 -34 -47
-43 l-43 -9 4 -47 c4 -34 15 -61 42 -98 20 -27 40 -65 43 -84 4 -28 1 -35 -19
-44 -28 -12 -58 -1 -58 22 0 8 -6 15 -14 15 -23 0 -66 -59 -72 -101 l-7 -39
-74 0 c-43 0 -89 -6 -110 -15 -57 -24 -83 -18 -178 40 -50 30 -96 55 -102 55
-17 0 -16 15 1 30 11 8 38 9 93 5 l78 -7 17 -39 c18 -42 45 -51 72 -24 18 18
31 76 23 105 -3 11 -1 20 4 20 5 0 9 -4 9 -8 0 -14 48 -32 86 -32 42 0 80 23
100 61 21 42 17 57 -20 73 -23 10 -35 22 -38 38 -5 37 -42 35 -95 -6 -67 -52
-79 -48 -73 24 8 92 111 142 178 85 48 -40 58 -17 54 127 l-3 119 28 -3 c27
-3 28 -6 31 -63z m4769 35 c17 -37 6 -67 -29 -79 -26 -9 -29 -14 -23 -39 5
-25 0 -34 -34 -65 -22 -20 -57 -47 -78 -61 -45 -30 -123 -59 -123 -46 0 32 33
77 119 160 72 69 101 104 106 128 5 27 11 33 28 30 12 -2 27 -14 34 -28z m983
-45 c0 -40 -2 -45 -23 -45 -34 0 -56 20 -63 58 l-6 32 46 0 46 0 0 -45z
m-5372 -17 c20 -20 15 -76 -8 -88 -30 -16 -40 -4 -40 44 0 56 19 73 48 44z
m-3488 -28 c0 -27 -3 -30 -30 -30 -27 0 -30 3 -30 30 0 27 3 30 30 30 27 0 30
-3 30 -30z m199 6 c16 -28 8 -46 -20 -46 -19 0 -25 23 -13 54 9 22 19 20 33
-8z m4131 -29 c0 -38 -29 -67 -95 -97 -69 -31 -76 -38 -85 -90 l-6 -35 -27 27
c-22 22 -27 36 -27 76 0 48 1 50 32 56 17 3 47 19 67 34 54 42 73 51 109 52
27 0 32 -4 32 -23z m-1930 -23 c0 -34 -33 -74 -62 -74 -26 0 -28 2 -28 45 l0
45 45 0 c35 0 45 -4 45 -16z m110 -24 c19 -36 12 -50 -25 -50 -49 0 -64 37
-33 77 12 16 43 1 58 -27z m838 -29 c2 -14 -2 -21 -13 -21 -11 0 -15 -6 -11
-17 15 -50 22 -101 16 -123 -8 -35 -49 -34 -69 2 -14 23 -13 34 3 105 25 113
22 108 49 90 12 -8 23 -24 25 -36z m274 22 c20 -18 23 -54 7 -84 -17 -34 -39
-5 -39 52 0 53 4 57 32 32z m3458 -43 l0 -60 -56 0 c-50 0 -55 2 -48 18 4 9 9
36 12 60 l4 42 44 0 44 0 0 -60z m-4858 15 c16 -36 -4 -78 -35 -73 -17 2 -23
11 -25 36 -2 19 -1 40 2 48 9 23 45 16 58 -11z m4316 13 c7 -7 12 -40 12 -80
0 -65 -1 -68 -24 -68 -15 0 -33 11 -46 27 -27 34 -22 89 11 116 25 20 31 21
47 5z m374 -45 c21 -19 25 -92 6 -111 -18 -18 -46 -14 -58 7 -12 23 7 121 23
121 6 0 19 -7 29 -17z m-4518 -76 c29 -21 16 -51 -22 -55 -24 -2 -32 1 -32 12
0 9 -7 16 -15 16 -35 0 0 39 36 40 8 0 23 -6 33 -13z m1902 -79 c6 -33 4 -36
-35 -51 -23 -10 -57 -17 -76 -17 -30 0 -35 3 -35 24 0 28 13 39 62 55 20 7 42
19 49 27 16 19 28 6 35 -38z m-1792 0 c9 -12 16 -37 16 -56 0 -30 -2 -33 -27
-30 -28 3 -44 25 -57 81 -6 25 -4 27 23 27 20 0 35 -8 45 -22z m286 4 c0 -50
-74 -87 -125 -64 -25 12 -42 52 -30 71 3 6 39 11 81 11 64 0 74 -2 74 -18z
m834 3 c17 -18 29 -70 24 -106 -2 -19 -8 -23 -28 -21 -46 6 -53 23 -40 86 12
59 19 66 44 41z m3131 3 c29 -13 31 -20 9 -53 -10 -15 -26 -25 -40 -25 -22 0
-24 4 -24 45 0 49 9 54 55 33z m-3405 -103 c0 -54 0 -55 -30 -55 -30 0 -30 1
-30 55 0 54 0 55 30 55 30 0 30 -1 30 -55z m790 -2 c16 -16 33 -42 36 -59 5
-26 2 -32 -21 -42 -14 -7 -42 -12 -61 -12 -29 0 -34 3 -30 18 3 9 -3 34 -14
55 -30 56 -27 67 20 67 29 0 48 -7 70 -27z m-3930 -594 c0 -56 -2 -60 -20 -55
-11 3 -30 9 -42 12 -60 17 -79 75 -30 92 15 6 42 11 60 11 l32 1 0 -61z m-6
-185 c17 -43 -1 -84 -36 -84 -15 0 -18 9 -18 50 0 46 2 50 24 50 13 0 27 -7
30 -16z m230 -395 c15 -12 42 -44 60 -73 31 -49 36 -52 68 -48 31 3 41 -2 86
-45 28 -26 74 -68 102 -92 82 -72 58 -103 -52 -66 -34 12 -49 24 -61 49 -15
33 -18 34 -57 29 -46 -6 -60 4 -60 44 0 15 -25 47 -70 91 -58 56 -70 74 -70
100 0 38 16 41 54 11z m606 -424 c0 -52 -1 -55 -25 -55 -28 0 -50 28 -59 78
l-5 32 44 0 45 0 0 -55z m7610 -24 c0 -15 -7 -35 -15 -45 -8 -11 -15 -32 -15
-47 0 -23 -3 -26 -25 -21 -18 3 -42 -7 -83 -34 l-57 -39 -120 4 c-66 3 -147 4
-180 3 -33 0 -134 -3 -224 -5 -150 -4 -165 -3 -182 14 -11 11 -19 26 -19 34 0
26 38 54 81 61 23 4 51 16 61 26 19 19 68 19 68 0 0 -24 43 -52 80 -52 22 0
40 -5 40 -10 0 -7 13 -9 33 -5 18 4 89 1 157 -5 68 -6 145 -8 171 -5 42 6 48
10 51 33 2 20 12 28 45 39 38 13 57 34 52 59 -4 21 3 25 41 22 36 -2 40 -5 40
-27z m-6867 -162 c37 -40 39 -106 3 -115 -32 -8 -60 8 -86 51 -12 19 -26 35
-31 35 -17 0 -9 21 16 46 31 31 57 26 98 -17z m677 -139 c0 -27 -3 -30 -30
-30 -27 0 -30 3 -30 30 0 27 3 30 30 30 27 0 30 -3 30 -30z m-271 -131 c36
-13 36 -25 0 -51 -60 -44 -119 -28 -119 33 0 28 2 29 44 29 23 0 57 -5 75 -11z
m481 -19 c0 -27 -3 -30 -30 -30 -27 0 -30 3 -30 30 0 27 3 30 30 30 27 0 30
-3 30 -30z m-158 -46 c57 -19 87 -50 95 -99 l6 -38 -39 9 c-21 4 -59 8 -84 9
-43 0 -44 -1 -55 -40 -11 -38 -12 -39 -24 -17 -7 13 -11 57 -10 107 l2 85 31
0 c18 0 53 -7 78 -16z m296 -159 c24 -52 5 -134 -33 -149 -36 -14 -73 -6 -78
16 -8 29 16 83 47 103 14 9 28 25 31 36 9 26 20 24 33 -6z m-538 -22 c-5 -16
-12 -41 -17 -58 -9 -32 -48 -53 -77 -42 -23 9 -22 83 2 90 9 3 35 13 57 21 22
8 41 15 42 16 1 0 -2 -12 -7 -27z m340 -138 c0 -8 7 -15 15 -15 14 0 14 -3 1
-29 -8 -15 -26 -35 -40 -44 -31 -21 -96 -31 -116 -18 -12 8 -12 13 4 30 11 12
27 21 36 21 23 0 40 20 40 47 0 19 5 23 30 23 20 0 30 -5 30 -15z m125 -40
c28 -27 33 -80 14 -118 -15 -28 -28 -37 -56 -37 -22 0 -23 3 -23 90 0 84 1 90
20 90 12 0 32 -11 45 -25z m-377 -124 c7 -4 19 -26 27 -47 10 -31 18 -40 42
-42 33 -4 95 -66 86 -88 -3 -7 5 -31 17 -51 26 -45 28 -97 5 -123 -16 -17 -16
-26 -6 -77 19 -98 11 -126 -41 -139 l-28 -6 0 196 c0 186 -1 196 -19 196 -10
0 -29 -9 -42 -19 -23 -19 -24 -24 -25 -175 0 -162 -7 -192 -38 -166 -9 6 -20
29 -26 49 -13 47 -13 148 1 156 7 5 8 58 3 167 -6 132 -5 161 7 169 17 11 21
11 37 0z m550 -63 c3 -25 0 -28 -27 -28 -28 0 -31 3 -31 31 0 27 3 30 28 27
21 -2 28 -9 30 -30z m-128 -68 c10 -5 34 -33 55 -61 29 -41 34 -54 23 -61 -46
-30 -158 52 -158 117 0 17 50 21 80 5z m-28 -267 l-4 -73 36 -21 35 -21 -35
-51 c-35 -51 -36 -54 -30 -122 4 -48 13 -79 28 -100 12 -16 31 -42 41 -57 23
-30 25 -109 5 -185 -12 -48 -23 -52 -62 -22 -33 26 -53 96 -61 214 -3 50 -15
154 -27 232 -19 123 -20 148 -9 197 14 63 34 88 65 84 20 -3 21 -8 18 -75z
m1598 -31 c27 -22 18 -52 -16 -52 -24 0 -64 31 -64 49 0 24 51 26 80 3z m-447
-40 c32 -32 37 -42 37 -83 0 -43 2 -48 30 -58 25 -8 30 -15 30 -44 0 -19 7
-40 15 -47 18 -15 20 -63 4 -92 -9 -17 -6 -25 16 -48 27 -29 28 -29 11 -70
-20 -50 -20 -90 -1 -137 8 -19 15 -49 15 -65 0 -64 -80 -169 -143 -186 -37
-11 -48 -1 -93 82 -21 38 -28 68 -32 125 -6 90 -23 110 -67 77 -13 -9 -21 -31
-25 -66 l-5 -51 -22 21 c-38 35 -24 99 34 162 21 22 24 32 18 67 -3 22 -15 56
-25 77 -19 36 -19 37 -1 73 25 48 44 148 40 205 -3 37 -1 46 11 46 22 0 40 20
40 43 0 32 67 13 113 -31z m1028 3 l45 -16 11 -97 c7 -61 21 -123 37 -164 16
-40 31 -104 37 -160 11 -93 27 -149 54 -178 12 -14 10 -31 -15 -129 -18 -69
-31 -146 -32 -195 -3 -76 -5 -81 -26 -84 -36 -5 -88 34 -106 78 -19 49 -20 77
-2 110 24 46 -26 106 -80 95 -72 -14 -84 -14 -84 1 0 9 -20 35 -45 60 -25 24
-45 47 -45 51 0 18 32 53 49 53 26 0 41 -20 41 -57 0 -41 21 -44 71 -10 85 57
106 193 37 236 -19 12 -23 11 -35 -5 -7 -10 -13 -37 -13 -60 0 -24 -5 -46 -10
-49 -17 -10 -40 15 -40 42 0 23 -3 25 -47 21 -45 -3 -48 -2 -49 22 0 38 -12
50 -47 50 -41 0 -77 25 -77 53 0 18 11 25 53 40 30 9 57 17 60 17 4 0 7 -16 7
-35 0 -26 6 -39 25 -51 32 -21 51 -13 59 26 l6 32 62 -2 c87 -3 88 -3 88 24 0
27 -42 66 -70 66 -15 0 -17 5 -10 36 5 20 6 59 3 88 -5 56 9 106 30 106 7 0
34 -7 58 -15z m452 -37 c15 -15 29 -50 40 -104 17 -79 46 -134 70 -134 17 0
23 -296 6 -316 -9 -11 -9 -21 0 -40 6 -14 11 -34 11 -44 0 -17 7 -20 46 -20
41 0 45 -2 42 -22 -2 -18 -13 -25 -48 -34 -37 -9 -46 -16 -58 -45 -17 -40 -28
-49 -64 -49 -22 0 -32 8 -48 40 -21 41 -46 61 -68 53 -8 -3 -27 -34 -42 -68
-29 -66 -55 -89 -93 -83 -36 5 -28 40 11 52 28 8 32 13 32 44 0 19 7 61 15 94
9 33 13 68 10 78 -3 10 -1 27 6 37 9 15 7 27 -8 59 -39 77 -37 130 8 164 19
15 19 16 -10 56 -17 23 -49 53 -71 69 -22 15 -40 34 -40 41 0 7 26 31 58 51
50 34 57 43 60 76 2 22 8 37 16 37 8 0 19 7 26 15 19 22 67 18 93 -7z m-2815
-160 c7 -7 12 -40 12 -77 0 -37 7 -98 15 -138 16 -76 9 -118 -20 -129 -25 -10
-42 13 -48 67 -4 34 -16 64 -37 92 -36 49 -42 107 -10 107 23 0 40 28 40 64 0
28 26 36 48 14z m616 -430 c12 -17 16 -48 16 -120 l0 -97 -28 10 c-41 14 -53
42 -59 140 l-6 89 31 0 c21 0 36 -7 46 -22z m2190 -291 c9 -15 7 -22 -13 -38
-25 -20 -76 -26 -86 -9 -10 17 4 46 28 58 30 15 58 11 71 -11z m-2129 -43 c8
-4 29 -26 46 -50 22 -33 38 -45 64 -50 61 -11 81 -67 30 -80 -37 -9 -65 5
-127 64 -48 46 -58 61 -58 89 0 34 10 40 45 27z"/>
</g>
</svg>
