<?xml version="1.0" standalone="no"?>
<!DOCTYPE svg PUBLIC "-//W3C//DTD SVG 20010904//EN"
 "http://www.w3.org/TR/2001/REC-SVG-20010904/DTD/svg10.dtd">
<svg version="1.0" xmlns="http://www.w3.org/2000/svg"
 width="918.000000pt" height="1280.000000pt" viewBox="0 0 918.000000 1280.000000"
 preserveAspectRatio="xMidYMid meet">
<metadata>
Created by potrace 1.15, written by Peter Selinger 2001-2017
</metadata>
<g transform="translate(0.000000,1280.000000) scale(0.100000,-0.100000)"
fill="#000000" stroke="none">
<path d="M4545 12789 c-66 -5 -167 -16 -225 -24 -58 -8 -141 -20 -185 -26
-131 -18 -505 -89 -580 -111 -167 -48 -491 -193 -645 -288 -53 -33 -114 -66
-136 -74 -43 -15 -180 -98 -289 -174 -38 -28 -95 -62 -125 -77 -111 -56 -243
-155 -227 -171 9 -9 111 49 305 175 95 62 206 128 247 147 40 19 104 58 141
88 47 37 89 61 138 78 39 12 93 38 121 56 27 18 61 35 75 39 14 3 70 26 125
50 93 41 191 78 325 123 30 10 177 36 325 59 149 23 342 53 430 68 277 45 279
45 480 33 104 -6 235 -17 290 -25 160 -23 339 -45 358 -45 9 0 57 -15 105 -34
48 -18 110 -37 137 -41 66 -9 363 -109 445 -150 36 -18 99 -47 140 -64 41 -17
109 -53 150 -81 75 -50 94 -58 104 -42 14 23 -264 190 -379 228 -44 15 -98 35
-119 45 -22 11 -45 19 -51 19 -7 0 -46 16 -87 35 -41 19 -104 41 -139 49 -35
8 -104 26 -154 41 -49 14 -126 30 -170 34 -44 5 -127 14 -185 21 -116 12 -202
25 -270 39 -54 12 -307 12 -475 0z"/>
<path d="M4673 12560 c-49 -10 -83 -27 -83 -40 0 -29 159 -24 226 6 51 24 51
24 34 34 -18 12 -119 11 -177 0z"/>
<path d="M4233 12523 c-13 -2 -23 -9 -23 -15 0 -12 59 -3 74 12 10 10 -8 11
-51 3z"/>
<path d="M3792 12490 c-10 -10 -35 -26 -56 -35 -28 -12 -36 -19 -28 -27 12
-12 98 7 171 38 34 15 35 16 17 30 -28 20 -82 18 -104 -6z"/>
<path d="M5506 12473 c-12 -12 -5 -23 14 -23 11 0 20 4 20 9 0 11 -26 22 -34
14z"/>
<path d="M5720 12443 c0 -11 46 -42 70 -48 14 -3 39 -1 55 4 l30 9 -35 15
c-36 15 -120 29 -120 20z"/>
<path d="M3551 12410 c-18 -4 -41 -16 -50 -25 -15 -16 -13 -17 29 -10 75 11
121 25 115 35 -7 12 -46 11 -94 0z"/>
<path d="M3385 12360 c-3 -5 3 -10 14 -10 11 0 23 5 26 10 3 6 -3 10 -14 10
-11 0 -23 -4 -26 -10z"/>
<path d="M3293 12340 c-31 -13 -29 -30 3 -30 29 0 64 16 64 30 0 12 -37 12
-67 0z"/>
<path d="M6215 12250 c3 -5 11 -10 16 -10 6 0 7 5 4 10 -3 6 -11 10 -16 10 -6
0 -7 -4 -4 -10z"/>
<path d="M6269 12229 c-25 -15 29 -57 94 -73 22 -5 27 -3 27 12 0 11 -9 27
-19 36 -24 21 -84 36 -102 25z"/>
<path d="M6701 12203 c1 -16 249 -183 272 -183 15 0 -14 30 -53 56 -19 13 -56
38 -81 56 -26 18 -57 40 -70 49 -29 21 -69 33 -68 22z"/>
<path d="M2665 12040 c-11 -17 5 -32 21 -19 7 6 11 15 8 20 -7 12 -21 11 -29
-1z"/>
<path d="M7022 11988 c4 -15 79 -54 122 -64 47 -11 27 16 -35 47 -58 30 -93
37 -87 17z"/>
<path d="M7380 11762 c0 -22 166 -142 197 -142 33 0 3 34 -80 89 -54 37 -117
65 -117 53z"/>
<path d="M1910 11699 c0 -5 5 -7 10 -4 6 3 10 8 10 11 0 2 -4 4 -10 4 -5 0
-10 -5 -10 -11z"/>
<path d="M1865 11671 c-6 -11 9 -23 19 -14 9 9 7 23 -3 23 -6 0 -12 -4 -16 -9z"/>
<path d="M7610 11581 c0 -12 5 -21 10 -21 6 0 10 6 10 14 0 8 -4 18 -10 21 -5
3 -10 -3 -10 -14z"/>
<path d="M1707 11563 c-4 -3 -7 -11 -7 -17 0 -6 5 -5 12 2 6 6 9 14 7 17 -3 3
-9 2 -12 -2z"/>
<path d="M1628 11501 c-18 -17 -28 -31 -23 -31 16 0 71 47 63 55 -3 3 -21 -7
-40 -24z"/>
<path d="M7680 11502 c0 -13 23 -32 39 -32 11 0 10 4 -4 20 -19 21 -35 26 -35
12z"/>
<path d="M1920 11451 c-41 -27 -84 -59 -95 -71 l-20 -23 25 13 c53 27 190 112
196 121 14 24 -38 4 -106 -40z"/>
<path d="M1390 11336 c-47 -34 -104 -83 -127 -107 -23 -24 -88 -84 -144 -134
-57 -49 -120 -107 -141 -128 -82 -82 -174 -242 -329 -574 -129 -278 -166 -374
-179 -465 -6 -40 -21 -111 -34 -158 -36 -126 -66 -253 -86 -360 -66 -355 -174
-787 -263 -1050 -82 -242 -80 -226 -85 -550 -4 -288 6 -510 29 -624 6 -28 26
-100 44 -161 19 -60 46 -153 60 -205 15 -52 42 -129 60 -171 100 -222 140
-721 69 -861 -8 -15 -36 -56 -63 -91 -58 -78 -102 -167 -109 -222 -4 -37 1
-47 53 -115 65 -86 99 -149 145 -272 26 -70 43 -98 85 -142 59 -61 68 -82 89
-216 9 -52 27 -138 41 -190 42 -158 63 -259 80 -390 37 -301 87 -495 155 -608
22 -36 49 -90 60 -120 11 -30 43 -96 70 -146 68 -128 143 -396 159 -576 5 -52
18 -131 30 -176 34 -131 49 -213 61 -324 6 -58 18 -130 26 -161 11 -45 14
-140 14 -446 0 -326 3 -398 16 -448 9 -33 20 -78 26 -100 13 -55 89 -175 159
-250 73 -77 139 -109 274 -130 190 -29 230 -38 300 -65 39 -15 104 -41 145
-56 41 -16 98 -43 126 -60 115 -69 464 -244 545 -272 47 -17 138 -42 201 -56
111 -25 187 -33 523 -56 97 -6 183 -18 245 -34 219 -57 254 -59 943 -63 420
-3 637 -1 637 6 0 17 -57 51 -166 101 -110 50 -144 73 -144 98 0 37 185 -30
308 -112 38 -25 81 -50 96 -56 69 -26 473 -4 741 40 99 16 210 35 246 41 90
14 252 87 444 198 88 51 214 119 280 151 l120 58 145 5 c128 4 157 8 245 37
109 35 175 74 247 147 43 43 48 54 57 113 5 36 14 77 21 91 9 20 8 41 -4 100
-8 41 -20 118 -26 170 -6 51 -18 138 -26 193 -18 110 -16 129 36 363 16 73 39
194 50 270 12 76 30 176 40 223 11 47 24 139 30 205 6 66 24 206 40 310 16
105 35 253 41 330 7 82 17 149 25 162 8 12 33 31 56 41 82 37 202 135 264 219
138 182 198 310 254 535 34 136 36 142 95 208 53 60 75 124 111 325 14 77 34
179 44 226 11 48 20 106 20 130 0 24 5 79 12 121 13 86 8 115 -38 264 l-25 82
26 38 c15 22 45 75 67 119 l41 80 -9 280 c-13 440 -4 823 25 985 5 30 19 170
31 310 11 140 30 350 41 465 23 229 21 327 -6 470 -24 123 -66 244 -76 219
-11 -28 -10 -74 1 -74 6 0 10 -14 10 -31 0 -45 -22 -32 -42 27 -26 75 -23 124
8 149 l25 20 -16 73 c-17 74 -28 88 -41 50 -6 -21 -7 -21 -35 10 -36 40 -37
62 -4 62 36 0 40 32 16 132 -12 47 -21 105 -21 128 0 23 -7 97 -15 164 -8 66
-19 173 -24 236 -6 63 -20 144 -31 178 -11 35 -25 105 -30 155 -13 117 -59
298 -109 429 -21 57 -44 121 -51 143 -7 22 -18 51 -26 65 -7 14 -34 70 -59
125 -62 135 -71 152 -119 213 -23 29 -59 77 -81 106 -78 104 -128 157 -139
146 -6 -6 -4 -15 6 -27 9 -10 31 -55 48 -100 22 -55 39 -85 52 -89 11 -3 33
-27 49 -54 16 -26 40 -55 53 -63 14 -10 28 -33 35 -61 6 -25 15 -48 21 -51 5
-3 10 -15 10 -26 0 -10 11 -29 25 -41 33 -29 33 -71 0 -100 l-25 -21 39 -42
c30 -33 42 -56 51 -101 7 -33 25 -93 41 -134 25 -66 27 -76 14 -90 -21 -23
-18 -49 10 -95 28 -45 32 -102 11 -143 -14 -28 -11 -78 5 -88 5 -3 18 5 29 18
l19 23 1 -22 c0 -12 -4 -25 -10 -28 -15 -9 -12 -116 5 -148 13 -25 12 -31 -5
-60 -11 -18 -20 -39 -20 -48 0 -10 -18 -41 -40 -70 -50 -66 -55 -86 -36 -124
9 -17 16 -36 16 -42 0 -20 26 -15 55 10 21 17 28 35 35 87 4 36 15 92 23 125
8 33 18 73 22 89 6 28 6 28 27 10 19 -18 20 -26 13 -116 -6 -85 -4 -102 14
-144 25 -55 27 -118 6 -167 -8 -20 -15 -57 -15 -82 0 -25 -7 -62 -16 -83 -14
-34 -14 -44 2 -119 l17 -82 -31 -35 c-17 -20 -34 -51 -38 -70 -12 -67 -54 -73
-54 -8 0 20 -4 43 -9 51 -6 9 -9 -56 -8 -166 2 -198 -2 -213 -55 -213 -29 0
-30 1 -22 33 10 34 8 356 -2 396 -4 20 -7 22 -15 10 -8 -12 -13 -10 -28 9 -11
12 -21 28 -24 35 -10 27 -22 -8 -22 -66 0 -56 2 -61 24 -67 33 -7 38 -28 9
-32 -19 -2 -24 -11 -30 -53 -14 -106 -9 -184 14 -233 20 -42 23 -66 26 -239 3
-128 7 -193 14 -193 16 0 76 48 94 75 15 22 14 30 -6 97 -35 119 -22 161 46
144 30 -8 31 -28 3 -66 l-22 -29 22 -41 c16 -31 21 -58 21 -113 0 -91 -6 -101
-48 -85 -44 17 -48 9 -57 -115 -6 -92 -9 -103 -34 -126 -55 -51 -63 -99 -36
-201 20 -73 22 -404 3 -398 -22 7 -37 52 -54 159 -9 57 -24 118 -34 135 -16
29 -18 58 -17 290 l1 259 -43 82 c-24 45 -48 80 -53 77 -11 -7 -10 -86 3 -158
10 -53 9 -66 -5 -94 -17 -33 -36 -35 -36 -4 0 9 -7 30 -15 45 -12 24 -13 40
-3 97 7 38 9 73 5 77 -9 8 -83 -72 -92 -99 -4 -10 5 -34 20 -57 30 -45 30 -78
0 -73 -25 4 -45 30 -45 57 0 12 -11 32 -25 45 -40 38 -50 17 -50 -110 0 -90 3
-112 17 -126 16 -16 18 -16 28 10 5 15 10 37 10 49 0 12 5 29 10 37 8 12 10
11 10 -8 0 -13 9 -35 19 -50 15 -20 21 -47 23 -106 3 -73 1 -81 -18 -91 -38
-19 -50 -34 -63 -75 -6 -22 -16 -40 -20 -40 -5 0 -16 41 -25 90 -9 50 -25 113
-36 141 -11 27 -20 57 -20 65 0 53 -137 209 -219 251 -20 10 -65 36 -100 57
-35 22 -86 46 -114 53 -27 7 -55 20 -61 29 -9 11 -48 21 -134 33 -96 14 -127
22 -145 39 -24 23 -74 28 -127 13 -23 -6 -25 -12 -25 -61 0 -52 -1 -55 -26
-58 -19 -2 -33 4 -48 24 -29 37 -26 53 14 70 19 8 35 18 35 22 0 4 -37 24 -82
46 -76 36 -85 38 -148 33 -36 -3 -93 -15 -126 -28 -95 -35 -164 -44 -231 -31
-147 30 -237 42 -324 45 l-94 2 -3 -40 c-4 -51 -17 -58 -58 -30 -32 22 -117
40 -145 31 -8 -2 -26 -7 -41 -10 -17 -4 -34 -18 -43 -35 -28 -54 -83 -49 -70
7 4 17 1 22 -14 22 -33 0 -75 -20 -108 -52 -28 -27 -38 -30 -84 -29 -47 1 -54
-2 -84 -35 -39 -42 -91 -60 -207 -70 -80 -6 -84 -8 -120 -46 -57 -58 -52 -68
35 -68 73 0 105 -10 93 -28 -3 -5 -22 -13 -41 -16 -25 -5 -39 -15 -51 -37 -8
-17 -29 -36 -45 -43 -17 -7 -36 -24 -43 -37 -8 -17 -27 -28 -61 -37 -45 -12
-55 -20 -94 -78 -45 -65 -81 -88 -104 -65 -16 16 11 66 72 133 33 37 51 65 51
81 0 31 8 37 67 45 96 14 37 51 -63 39 -54 -6 -73 -20 -56 -40 9 -11 5 -20
-18 -42 -16 -15 -37 -50 -45 -76 -12 -35 -26 -54 -55 -73 -45 -30 -57 -31 -84
-11 -38 29 -108 16 -178 -31 -20 -14 -58 -28 -85 -32 l-48 -7 -3 -70 c-2 -68
11 -116 33 -119 6 0 13 30 16 67 6 68 16 87 49 87 9 0 23 8 32 18 37 37 55 52
66 52 6 0 32 -18 57 -40 25 -22 55 -40 66 -40 29 0 33 -25 10 -57 -19 -26 -20
-38 -14 -170 5 -130 8 -143 24 -143 11 0 19 4 19 9 0 4 18 20 41 35 47 31 48
52 4 76 -27 15 -30 22 -33 76 -2 49 1 63 18 82 25 27 44 24 48 -6 2 -12 16
-31 32 -42 34 -25 49 -90 31 -142 -11 -30 -9 -35 18 -62 l30 -29 5 24 c3 13 8
41 11 62 3 20 9 37 14 37 4 0 23 -12 42 -26 19 -14 50 -34 71 -45 36 -18 36
-19 42 -96 23 -298 22 -289 84 -448 71 -180 113 -251 211 -358 70 -77 73 -82
67 -118 -7 -45 3 -53 77 -62 26 -4 82 -23 125 -43 115 -54 231 -95 287 -103
42 -5 51 -10 53 -29 2 -14 19 -33 44 -48 44 -28 44 -30 13 -113 -20 -56 -8
-73 34 -48 16 9 38 17 48 17 10 0 29 7 41 16 40 28 85 34 190 28 l103 -7 75
-67 c42 -37 89 -70 104 -74 22 -4 31 -13 38 -37 14 -55 51 -73 150 -77 64 -3
84 -1 76 7 -6 6 -34 14 -62 18 -29 3 -60 11 -69 18 -16 12 -16 14 0 38 23 35
21 47 -5 47 -36 0 -119 43 -171 88 -27 23 -55 42 -63 42 -16 0 -19 36 -4 45 6
3 10 13 10 21 0 19 -66 19 -104 -1 -43 -23 -65 -19 -84 15 -9 17 -28 33 -42
36 -111 26 -114 28 -84 87 51 100 150 139 194 77 12 -17 35 -37 52 -46 28 -14
30 -19 24 -55 -7 -43 -9 -42 88 -54 27 -4 81 -18 119 -33 66 -24 74 -25 152
-14 164 22 254 62 265 117 4 17 14 44 23 62 22 42 21 50 -4 58 -19 6 -21 13
-16 52 4 42 4 43 -14 27 -18 -16 -20 -15 -37 6 -17 21 -21 22 -55 11 -61 -20
-82 16 -27 47 24 14 34 32 55 95 30 95 47 121 86 138 17 6 42 29 55 51 29 45
53 48 76 9 19 -34 81 -58 122 -47 21 5 29 17 46 75 23 78 42 102 68 83 10 -7
33 -20 52 -29 53 -26 70 -44 70 -73 0 -57 12 -91 36 -101 20 -7 24 -15 24 -51
0 -44 -36 -122 -55 -120 -14 2 -19 42 -6 55 14 14 14 27 1 27 -12 0 -40 -53
-40 -77 0 -10 -9 -35 -19 -56 -10 -20 -21 -47 -25 -60 -3 -13 -15 -36 -27 -51
-21 -26 -121 -96 -138 -96 -18 0 -113 -54 -118 -67 -10 -26 6 -26 36 0 42 35
85 43 117 22 13 -8 29 -13 34 -10 17 11 128 164 135 187 10 33 42 66 104 105
48 32 57 44 98 131 45 96 55 138 40 178 -5 15 0 29 18 49 25 30 35 52 53 120
6 22 17 58 25 80 8 22 22 85 31 140 15 85 21 103 44 123 57 49 86 62 142 62
38 0 64 6 85 20 45 30 61 25 85 -22 11 -24 27 -54 34 -68 18 -31 4 -196 -21
-243 -15 -30 -15 -32 11 -52 32 -25 32 -31 4 -117 -21 -67 -22 -69 -4 -99 21
-35 14 -49 -15 -31 -17 11 -21 9 -29 -13 -6 -15 -10 -33 -10 -41 0 -7 -9 -37
-20 -66 -11 -29 -20 -64 -20 -78 -1 -14 -9 -43 -20 -65 -11 -22 -19 -48 -20
-57 0 -23 -20 -34 -32 -17 -13 20 -2 88 32 204 39 134 80 305 80 335 0 14 4
31 8 38 8 12 -20 197 -32 209 -12 13 -19 -9 -22 -69 -1 -35 -11 -88 -22 -118
-12 -34 -22 -97 -26 -165 -9 -150 -22 -215 -62 -317 -26 -68 -34 -102 -34
-152 0 -69 14 -95 25 -46 6 30 21 47 32 37 6 -6 24 -120 24 -152 0 -11 -5 -41
-13 -67 l-13 -48 -48 0 c-41 0 -49 -3 -57 -25 -10 -26 -35 -34 -42 -13 -8 22
-48 -81 -46 -119 0 -21 -3 -48 -7 -60 -6 -19 -4 -23 14 -23 15 0 26 11 38 38
10 20 18 39 20 41 1 2 14 -6 29 -18 30 -24 106 -29 124 -9 5 7 19 24 30 38 17
22 19 23 20 6 0 -10 -14 -34 -31 -54 -17 -20 -38 -50 -45 -69 -8 -18 -19 -33
-24 -33 -6 0 -10 -11 -10 -25 0 -36 -25 -80 -57 -103 -48 -33 -149 -65 -188
-59 -30 5 -37 2 -55 -23 -14 -20 -32 -30 -63 -35 -66 -11 -84 -36 -51 -69 27
-28 61 -20 79 19 23 47 41 61 60 45 20 -17 19 -81 -2 -118 -17 -29 -17 -31 1
-51 10 -11 34 -26 52 -33 42 -15 50 -37 29 -78 -24 -46 -42 -48 -75 -9 -16 19
-29 30 -30 25 0 -4 -9 2 -19 15 l-19 24 -46 -43 c-45 -41 -48 -42 -96 -36 -37
5 -50 3 -50 -6 0 -20 68 -79 98 -86 67 -14 75 -21 68 -67 -3 -23 -8 -51 -12
-63 -3 -14 3 -31 19 -50 13 -16 27 -41 31 -56 5 -21 13 -28 30 -28 13 0 34 -8
47 -19 23 -18 23 -18 5 -64 -9 -25 -23 -51 -31 -57 -8 -6 -19 -28 -26 -48 -8
-25 -44 -69 -112 -136 l-100 -98 -18 23 c-14 18 -21 21 -38 13 -37 -17 -149
-108 -160 -131 -13 -28 -70 -58 -83 -45 -19 19 -3 47 39 67 51 25 85 56 109
100 22 41 15 52 -25 36 -24 -10 -34 -10 -59 3 -39 20 -51 4 -16 -21 l26 -19
-30 -32 c-32 -34 -86 -44 -110 -20 -9 9 -16 7 -32 -7 -24 -22 -26 -35 -5 -35
21 0 30 -27 15 -45 -18 -22 -50 -19 -50 5 0 30 -28 24 -71 -15 -70 -63 -83
-34 -18 41 23 27 37 50 31 52 -20 6 -83 -31 -97 -57 -15 -29 -78 -88 -147
-138 -70 -49 -78 -76 -94 -313 -7 -114 -18 -220 -24 -236 -25 -65 -66 -81
-114 -43 -22 17 -26 28 -25 72 0 29 10 91 23 140 l22 87 -23 22 c-13 12 -29
39 -35 61 -9 30 -17 39 -40 44 -21 4 -35 17 -50 47 l-22 41 -8 -50 c-13 -77 0
-270 23 -327 10 -27 22 -79 25 -116 5 -59 4 -70 -15 -90 -16 -16 -33 -22 -66
-22 -30 0 -47 -5 -53 -16 -19 -34 -33 -4 -26 59 6 62 5 62 -26 79 l-31 18 6
67 c9 84 -6 147 -40 169 -14 9 -25 26 -25 39 0 25 -20 45 -68 69 -30 16 -33
16 -39 0 -3 -9 -1 -44 5 -78 17 -91 34 -354 27 -408 -8 -53 -26 -76 -44 -54
-6 7 -22 51 -36 97 -14 45 -34 101 -45 124 -11 23 -20 51 -20 64 0 27 -16 60
-41 83 -17 17 -17 19 1 60 25 56 25 82 -3 171 -28 88 -86 178 -132 207 -33 21
-45 44 -45 93 0 20 -5 27 -19 27 -30 0 -54 -64 -55 -145 0 -81 20 -128 65
-153 34 -20 38 -48 9 -57 -11 -4 -28 -17 -36 -30 -13 -20 -14 -30 -4 -59 13
-40 62 -86 91 -86 21 0 20 3 45 -145 32 -186 29 -215 -17 -215 -10 0 -30 -16
-45 -35 -48 -63 -86 -39 -91 56 -4 87 -28 120 -61 87 -15 -15 -16 -74 -2 -83
27 -17 -1 -98 -43 -124 -17 -11 -24 -10 -46 7 -35 26 -37 49 -10 139 22 73 22
82 11 227 -8 109 -8 179 -1 251 10 94 10 104 -13 165 -22 63 -24 65 -61 68
-72 6 -176 -79 -212 -172 -15 -39 -17 -65 -12 -159 4 -62 14 -141 22 -177 29
-117 29 -133 3 -157 -27 -25 -257 -123 -290 -123 -11 0 -40 -10 -64 -22 l-44
-21 -61 63 c-68 70 -69 79 -33 171 14 37 16 56 8 95 -8 42 -13 49 -34 52 -14
2 -31 11 -38 20 -11 15 -14 15 -23 2 -14 -22 -4 -100 22 -159 17 -41 19 -54 9
-66 -14 -17 -66 -19 -143 -6 -71 12 -134 -4 -195 -47 -97 -68 -96 -68 -127
-48 -38 25 -72 106 -89 216 -14 84 -19 98 -45 120 -16 14 -52 44 -80 68 -40
34 -55 41 -76 36 -38 -9 -121 -88 -145 -139 -29 -60 -21 -79 27 -72 33 6 41 3
68 -27 19 -21 48 -39 75 -46 75 -20 90 -28 90 -50 0 -25 -41 -27 -139 -5 -57
13 -84 14 -162 5 -52 -7 -131 -15 -176 -19 -55 -5 -88 -13 -101 -24 -10 -9
-26 -17 -35 -17 -22 0 -32 19 -13 26 9 3 16 10 16 15 0 16 -37 9 -112 -20 -40
-16 -92 -32 -115 -36 -49 -8 -59 -17 -38 -35 11 -9 64 -12 188 -12 183 1 321
14 401 37 32 10 94 15 175 15 l126 -1 20 -31 c49 -77 89 -87 363 -87 191 -1
194 -1 260 -30 113 -49 144 -54 295 -46 115 5 146 4 188 -10 40 -14 59 -15 97
-7 133 30 187 23 260 -29 l44 -32 146 5 c142 5 152 7 286 52 77 25 158 49 180
53 23 3 73 19 113 35 40 16 90 28 115 28 48 0 65 10 91 52 16 26 19 27 86 21
65 -5 71 -4 95 20 26 26 26 29 26 169 0 214 23 263 175 367 88 61 167 101 199
101 33 0 147 36 222 70 50 22 63 34 73 61 8 25 14 30 23 21 8 -8 8 -18 1 -34
-6 -14 -6 -36 0 -59 8 -33 4 -47 -47 -150 -30 -63 -80 -157 -112 -209 -55 -94
-192 -375 -272 -560 -44 -101 -122 -297 -122 -305 0 -3 15 -5 34 -5 23 0 38 7
48 22 10 14 20 19 31 15 16 -6 16 -9 1 -44 -9 -21 -20 -56 -25 -78 -17 -88
-94 -225 -125 -225 -11 0 -1 49 16 78 11 18 20 41 20 52 0 11 9 43 20 72 11
29 20 56 20 61 0 12 -55 8 -72 -6 -27 -21 -98 -123 -98 -140 0 -19 15 -23 25
-7 3 6 17 10 31 10 18 0 24 -5 24 -23 0 -27 -26 -67 -44 -67 -18 0 -46 -33
-46 -53 0 -9 5 -17 11 -17 18 0 89 -64 89 -81 0 -40 -40 -31 -119 27 -39 28
-55 27 -59 -4 -5 -34 -28 -44 -104 -46 l-73 -1 -8 65 c-9 73 -23 90 -73 90
-25 0 -39 8 -58 33 -42 55 -66 118 -66 176 l0 55 33 -32 c18 -18 38 -32 44
-32 14 0 63 39 63 50 0 5 -20 18 -45 29 -33 14 -45 26 -45 41 0 30 36 40 122
33 54 -4 77 -2 83 7 4 7 2 16 -6 20 -22 14 -178 39 -287 46 -95 6 -104 9 -112
29 -12 31 -28 35 -136 35 -88 0 -97 -2 -120 -25 -31 -31 -61 -97 -70 -153 -6
-38 -4 -46 22 -73 26 -28 27 -32 15 -62 -7 -17 -19 -53 -28 -79 -9 -27 -19
-48 -23 -48 -3 0 -19 14 -36 31 -59 63 -104 72 -170 37 l-42 -22 -54 37 c-67
47 -111 55 -178 33 l-51 -17 -21 26 c-37 47 -73 58 -168 52 -67 -4 -106 -13
-175 -42 -144 -58 -215 -119 -215 -186 0 -22 -7 -32 -30 -44 -16 -9 -30 -20
-30 -24 0 -17 53 -73 77 -82 21 -8 23 -13 18 -43 -6 -31 -4 -34 23 -44 22 -8
39 -27 63 -74 27 -50 39 -64 60 -66 14 -2 31 4 39 12 23 28 100 15 100 -16 0
-4 -22 -8 -49 -8 -42 0 -51 -4 -66 -26 -16 -25 -21 -26 -74 -21 -60 7 -74 2
-84 -26 -8 -22 8 -57 26 -57 7 0 39 13 72 30 38 18 76 29 103 30 l42 0 0 -105
c0 -102 -1 -105 -30 -138 -16 -19 -30 -42 -30 -52 0 -9 -12 -39 -27 -67 -27
-48 -28 -49 -9 -64 16 -11 41 -13 126 -8 l106 7 9 -39 c14 -57 44 -54 65 6 18
52 54 75 100 65 36 -8 38 -21 6 -54 -14 -16 -28 -50 -36 -89 -13 -63 -13 -63
15 -92 l28 -30 -13 -72 c-7 -40 -17 -79 -22 -85 -15 -19 -69 -30 -196 -43 -62
-6 -123 -16 -136 -22 -20 -8 -31 -7 -58 10 -31 18 -36 19 -83 5 -100 -28 -95
-29 -95 5 0 24 -6 32 -32 43 -18 8 -55 13 -83 12 -141 -4 -291 -16 -302 -25
-7 -6 -13 -23 -13 -39 0 -35 -21 -56 -70 -69 -47 -13 -58 -27 -36 -48 14 -14
21 -13 80 11 l65 27 67 -21 c55 -17 65 -23 61 -39 -7 -28 17 -44 55 -35 18 4
58 8 88 10 30 1 73 8 95 14 22 6 108 11 190 11 104 1 162 5 190 15 53 19 136
19 161 0 19 -15 19 -15 -5 -35 -13 -11 -34 -20 -47 -20 -25 0 -87 -49 -105
-82 -8 -14 -7 -28 2 -49 14 -35 10 -42 -21 -31 -12 4 -52 5 -88 0 -81 -9 -106
-4 -98 23 3 10 9 28 12 38 5 17 0 21 -33 27 -21 4 -55 15 -75 25 -44 22 -77
24 -103 6 -22 -17 -22 -17 83 -57 45 -17 82 -35 82 -39 0 -10 -85 -21 -162
-21 -49 0 -61 -4 -98 -35 -43 -36 -97 -47 -130 -25 -13 9 -13 11 0 20 8 5 23
10 32 10 28 0 29 16 2 29 -32 14 -141 15 -150 0 -10 -16 55 -79 104 -101 24
-11 57 -19 75 -18 86 5 33 -17 -62 -26 -56 -5 -69 -10 -77 -28 -10 -23 -31
-26 -280 -44 -134 -10 -158 -17 -129 -39 14 -10 62 -13 187 -13 103 0 168 -4
168 -10 0 -16 -35 -19 -257 -22 -116 -2 -215 -7 -220 -11 -16 -16 31 -37 84
-37 29 0 53 -4 53 -10 0 -11 -180 -14 -219 -3 -23 6 -23 7 15 39 33 28 37 35
24 44 -21 15 -80 4 -152 -26 -33 -14 -72 -24 -86 -22 -34 4 -42 28 -9 28 38 0
50 22 32 56 -33 63 1 131 37 74 15 -24 58 -27 58 -4 0 19 -57 43 -121 51 -54
6 -86 24 -75 41 8 13 116 16 215 6 l61 -7 0 -38 c0 -28 4 -39 15 -39 8 0 15
-5 15 -11 0 -7 -12 -9 -35 -5 -21 4 -35 3 -35 -3 0 -19 48 -42 82 -39 33 3 33
4 30 48 -2 25 -10 49 -18 53 -24 13 -16 27 16 27 18 0 33 -6 36 -15 4 -10 20
-15 50 -15 46 0 54 -9 29 -30 -22 -18 -18 -30 8 -30 15 0 37 15 60 40 41 46
48 47 86 19 50 -37 131 -44 185 -16 17 8 15 11 -20 24 -21 8 -64 22 -94 32
-41 13 -56 22 -58 38 -4 28 33 53 78 53 19 0 41 4 48 9 19 12 -34 21 -117 21
-62 0 -68 2 -93 32 -27 32 -28 33 -34 10 -4 -13 -26 -34 -53 -49 -25 -14 -56
-36 -69 -47 -22 -20 -39 -21 -240 -26 -207 -5 -219 -6 -259 -29 -35 -20 -43
-30 -43 -53 0 -16 9 -42 21 -57 26 -35 18 -68 -19 -82 -38 -15 -192 -1 -192
17 0 23 40 51 81 58 70 11 43 33 -58 50 -38 5 -43 4 -43 -13 0 -26 -19 -39
-76 -52 -124 -27 -121 -28 -104 33 9 33 16 39 53 48 23 6 62 18 86 25 25 8 58
15 75 16 17 0 39 4 49 8 18 7 18 8 1 21 -22 19 -222 20 -276 1 l-38 -13 6 -52
c6 -50 5 -53 -17 -59 -46 -13 -64 -7 -104 37 -35 38 -47 44 -95 49 -45 5 -60
12 -80 37 -14 17 -29 30 -35 30 -5 0 -30 16 -54 35 -24 19 -54 35 -67 35 -12
0 -51 13 -86 30 -34 16 -71 30 -81 30 -23 0 -33 26 -17 45 6 8 9 19 5 25 -10
16 -65 42 -78 36 -7 -2 -1 -8 12 -12 21 -6 22 -11 17 -47 -9 -54 -21 -67 -62
-67 -42 0 -44 17 -4 31 17 6 30 15 30 20 0 14 -64 39 -97 39 l-27 0 22 -16
c27 -19 30 -54 3 -54 -10 0 -50 10 -87 22 -46 14 -100 22 -160 23 -50 1 -100
7 -111 14 -12 6 -32 30 -45 53 -20 37 -29 43 -67 50 -24 4 -67 23 -95 43 -41
28 -69 38 -139 49 -49 8 -94 20 -101 26 -8 6 -16 34 -18 64 -3 35 -12 63 -26
81 -18 22 -21 36 -16 64 9 47 10 48 32 21 40 -49 56 14 26 106 -9 29 -19 119
-24 224 -6 102 -16 195 -25 224 -8 27 -15 68 -15 90 0 23 -7 68 -15 101 -8 33
-14 77 -15 98 0 23 -11 57 -26 82 -28 49 -29 98 -3 103 13 2 18 -8 23 -42 6
-36 13 -48 39 -64 28 -16 35 -30 55 -103 29 -108 33 -114 61 -100 31 17 47
-21 32 -77 -15 -53 -28 -61 -43 -25 -11 28 -12 28 -16 5 -5 -30 16 -82 34 -82
24 0 36 -37 20 -62 -8 -13 -17 -37 -21 -55 -5 -27 -2 -37 22 -60 29 -30 53
-85 83 -195 31 -112 66 -168 105 -168 35 0 36 22 4 76 -16 27 -29 59 -29 72 0
12 -12 50 -26 85 -34 85 -41 147 -19 180 11 17 16 41 14 71 -2 37 1 50 19 66
26 25 27 33 7 54 -31 30 -65 -6 -65 -69 0 -39 -25 -59 -41 -34 -12 17 -3 145
15 211 15 61 27 73 54 59 41 -22 119 -9 83 14 -6 3 -9 28 -9 55 1 37 -4 56
-23 82 -23 30 -39 63 -98 193 -10 22 -27 60 -38 85 -12 25 -26 73 -33 105 -7
33 -16 68 -21 77 -13 23 -42 23 -63 -1 -16 -18 -16 -22 13 -79 16 -32 41 -72
54 -88 17 -20 26 -46 30 -85 6 -65 39 -134 96 -203 50 -59 52 -76 8 -76 -20 0
-39 -8 -50 -20 -9 -11 -28 -20 -41 -20 -14 0 -30 -8 -36 -17 -8 -13 -9 2 -4
56 7 70 6 73 -13 67 -25 -8 -38 8 -48 59 -3 21 -13 52 -21 67 -8 16 -14 57
-14 99 0 53 -4 77 -16 90 -22 24 -29 95 -15 158 8 37 8 64 0 99 -34 149 -51
208 -79 269 l-31 68 -15 -33 c-23 -54 -39 -35 -39 46 0 43 -5 76 -13 83 -15
16 -16 95 -1 155 11 41 9 51 -19 117 -37 89 -52 166 -52 272 0 80 -1 83 -34
117 -52 54 -63 140 -18 146 31 5 46 -10 60 -55 6 -21 27 -55 47 -76 42 -44 50
-62 65 -149 7 -34 20 -83 30 -108 10 -25 38 -108 63 -185 73 -221 85 -254 137
-360 26 -55 51 -116 55 -135 4 -19 20 -78 35 -130 21 -69 28 -113 27 -160 -2
-54 3 -75 27 -123 29 -57 56 -75 56 -37 0 27 13 25 52 -9 59 -51 178 -97 209
-80 28 15 24 39 -7 39 -32 0 -64 17 -64 34 0 7 9 25 20 39 25 31 27 99 4 152
-16 38 -16 120 0 120 17 0 49 -54 57 -97 4 -24 12 -61 18 -83 6 -22 11 -65 11
-96 0 -33 6 -63 15 -75 8 -10 15 -28 15 -39 0 -29 28 -65 50 -65 35 0 52 88
25 127 -9 12 -27 52 -40 88 -14 36 -31 76 -39 88 -8 12 -16 50 -19 84 -3 36
-16 86 -31 119 -14 31 -26 69 -26 85 0 15 -5 40 -10 55 -15 38 -30 19 -38 -46
-12 -92 -64 -93 -78 -2 -4 29 -2 64 7 96 8 31 13 90 11 150 -2 86 -6 107 -31
160 -43 89 -142 402 -144 453 -3 74 29 78 121 15 116 -81 104 -77 202 -59 48
9 96 17 108 17 23 0 143 -63 161 -84 13 -15 -7 -102 -44 -186 -34 -79 -38 -96
-24 -122 29 -55 45 -47 115 60 31 48 68 100 83 115 23 26 26 35 24 99 -2 78
-17 105 -61 110 -33 4 -53 48 -32 72 28 35 110 8 110 -36 0 -18 24 -41 33 -31
10 10 8 62 -3 83 -12 23 -69 42 -129 44 -42 1 -46 3 -51 30 -8 45 -27 43 -40
-3 -12 -44 -20 -50 -40 -27 -6 8 -31 22 -54 31 -31 12 -47 26 -57 48 -14 32
-43 52 -91 62 -16 3 -28 12 -28 20 0 24 -19 27 -50 9 -29 -18 -30 -18 -72 12
-68 48 -71 50 -63 25 14 -45 -38 -70 -55 -27 -11 30 -29 41 -42 28 -6 -6 -5
-17 4 -31 11 -18 11 -23 -2 -31 -8 -5 -22 -10 -32 -10 -9 0 -25 -16 -37 -35
-17 -29 -26 -35 -55 -35 -42 0 -112 26 -119 44 -9 23 7 35 67 50 33 9 61 18
64 21 12 11 -26 36 -73 48 -53 13 -80 41 -55 57 8 5 53 10 100 10 47 0 103 3
125 7 36 6 38 7 15 14 -14 4 -52 7 -85 8 -72 1 -121 14 -155 41 -21 16 -23 22
-13 39 10 16 9 21 -8 33 -15 9 -23 28 -26 61 -5 39 -10 50 -29 57 -16 6 -24
18 -26 42 -3 32 -5 33 -43 32 -22 -1 -52 -5 -67 -9 -26 -7 -28 -5 -28 26 0 20
8 42 21 55 21 22 21 25 6 62 -14 35 -14 42 -1 58 14 18 15 18 33 -3 10 -13 31
-27 46 -33 31 -12 25 -30 -11 -30 -14 0 -24 -6 -24 -14 0 -21 40 -66 59 -66
26 0 51 32 51 64 0 20 6 29 20 33 30 8 19 27 -17 31 -39 4 -67 33 -58 61 3 11
19 30 36 41 65 47 13 49 -85 4 -66 -31 -143 -32 -180 -3 -14 11 -51 54 -82 95
-31 42 -90 109 -130 149 -82 82 -91 105 -43 105 24 0 30 4 27 18 -3 13 -14 17
-48 17 -39 0 -47 4 -66 33 -12 18 -36 66 -54 108 -27 66 -30 82 -24 133 8 71
-5 101 -44 101 -15 0 -33 4 -40 9 -25 15 -28 141 -4 141 4 0 16 -26 27 -57 14
-39 26 -59 39 -61 17 -4 18 1 13 64 -4 38 -10 92 -13 121 -9 76 0 103 35 103
26 0 30 4 36 40 4 22 11 40 16 40 16 0 22 -53 10 -87 -10 -28 -10 -47 0 -98 9
-49 10 -70 1 -89 -17 -39 -27 -126 -13 -126 6 0 13 12 16 28 3 15 10 41 16 57
6 17 14 51 18 77 4 26 11 51 15 55 15 15 37 -31 33 -67 -3 -24 2 -46 17 -70
18 -29 21 -49 19 -121 l-2 -85 35 -19 c20 -10 42 -32 50 -48 14 -25 14 -31 -1
-53 -19 -29 -11 -48 40 -93 42 -36 56 -38 73 -11 11 18 19 20 62 14 30 -4 50
-3 50 3 0 16 -35 43 -55 43 -27 0 -98 79 -114 127 -12 36 -12 44 4 70 16 28
16 34 2 94 -9 35 -18 79 -22 96 -8 42 -21 49 -46 27 -29 -26 -34 -10 -10 29
25 41 26 65 5 95 -14 21 -15 35 -4 123 15 120 7 206 -27 302 -21 58 -26 97
-30 197 -6 145 4 186 40 175 64 -20 67 -19 67 12 0 52 -49 97 -64 58 -11 -30
-34 -14 -56 39 -12 30 -33 62 -46 71 -28 18 -31 40 -7 49 12 5 30 -7 63 -43
43 -47 62 -57 120 -63 24 -3 25 -7 28 -70 2 -37 -2 -77 -8 -88 -11 -21 3 -30
15 -10 21 34 53 -57 79 -220 8 -52 20 -96 27 -99 35 -11 70 -60 85 -116 20
-79 89 -209 140 -262 31 -33 48 -43 72 -43 l32 0 -30 42 c-16 22 -30 45 -30
50 0 25 47 0 119 -62 85 -73 117 -88 102 -47 -4 12 -19 28 -33 34 -40 20 -102
93 -89 106 7 7 15 6 25 -3 9 -7 23 -10 31 -6 14 5 14 9 0 42 -8 20 -29 52 -46
71 -17 19 -39 54 -49 77 -29 67 -69 169 -75 197 -8 31 14 52 47 47 20 -3 24
-11 29 -55 7 -56 37 -119 54 -112 16 7 7 61 -21 116 -32 65 -45 173 -21 173
23 0 29 -14 41 -104 12 -81 12 -81 43 -84 28 -3 36 2 59 37 15 23 34 41 44 41
28 0 52 -36 58 -87 3 -31 15 -62 33 -87 16 -22 29 -45 29 -52 0 -7 18 -25 39
-41 46 -34 121 -130 121 -155 0 -9 -23 -43 -50 -74 -47 -54 -54 -68 -62 -119
-3 -15 -11 -20 -36 -20 -31 0 -55 -19 -49 -39 2 -5 25 -16 51 -24 30 -10 65
-32 92 -59 43 -41 46 -43 107 -43 84 0 177 16 262 45 89 30 204 54 303 61 42
4 88 13 100 21 23 14 25 29 6 76 -8 23 29 54 78 67 104 26 298 94 358 124 36
19 86 41 112 51 49 18 73 39 92 78 6 12 31 32 56 45 56 27 71 47 64 81 -4 20
1 35 19 57 30 35 87 70 87 54 0 -14 -92 -166 -168 -275 -86 -125 -125 -160
-242 -220 -205 -104 -226 -114 -315 -155 -49 -23 -99 -50 -110 -60 -15 -14
-48 -22 -125 -30 -57 -6 -108 -14 -112 -16 -4 -3 -55 -9 -112 -13 -80 -7 -114
-14 -147 -32 l-42 -24 44 -3 c24 -2 78 3 119 12 150 30 297 56 320 56 13 0 42
9 64 20 112 53 261 63 268 17 2 -13 13 -23 28 -27 15 -4 26 -15 30 -30 9 -38
25 -34 68 15 27 31 44 62 52 98 18 76 36 106 68 113 47 10 66 24 89 63 12 22
61 72 109 113 47 40 119 105 158 143 40 39 88 84 108 100 35 29 91 143 128
260 21 66 80 164 115 191 44 33 50 52 25 79 -11 12 -20 29 -20 38 0 9 -9 31
-19 49 -11 18 -27 68 -35 110 -15 75 -15 80 5 137 25 75 27 113 6 145 -22 34
-21 42 8 71 31 32 71 33 81 3 11 -35 8 -122 -5 -145 -6 -12 -11 -32 -11 -44 0
-35 25 -6 50 59 25 63 51 92 84 92 12 0 30 6 40 13 23 17 11 45 -30 71 -25 17
-27 17 -49 -4 -31 -29 -62 -19 -81 26 -8 19 -18 34 -22 34 -4 0 -36 -27 -70
-60 l-64 -59 18 -30 c14 -24 16 -38 8 -68 -18 -75 -67 -29 -81 77 -2 19 -6 46
-9 59 l-5 24 -29 -31 c-16 -18 -35 -32 -43 -32 -17 0 -67 62 -97 120 -12 25
-32 58 -42 73 -20 27 -20 29 -2 42 25 19 26 19 65 -8 19 -12 39 -37 44 -54 12
-37 52 -83 72 -83 7 0 13 10 13 22 0 12 10 32 21 45 21 22 21 23 3 28 -38 12
-49 23 -68 61 -10 21 -24 46 -31 54 -8 8 -17 28 -20 43 -4 16 -21 38 -37 50
-17 12 -41 45 -55 72 -46 90 -82 132 -129 150 -23 9 -46 25 -49 35 -7 24 -71
80 -90 80 -8 0 -19 8 -24 18 -10 15 -13 15 -32 -10 -38 -50 -79 -25 -79 49 0
14 -8 47 -17 74 -21 57 -29 59 -120 28 -48 -16 -64 -26 -73 -49 -15 -37 -46
-65 -95 -86 -33 -14 -85 -19 -290 -24 -225 -6 -255 -5 -299 11 -43 16 -51 16
-70 4 -14 -10 -47 -15 -104 -15 -60 0 -97 -5 -130 -19 -69 -29 -156 -48 -255
-56 -100 -8 -149 -33 -192 -98 -17 -24 -37 -39 -62 -46 -20 -6 -49 -22 -64
-37 -17 -16 -46 -30 -75 -35 -28 -5 -52 -16 -58 -26 -14 -25 -53 -63 -66 -63
-17 0 -12 25 30 132 41 106 48 138 30 138 -17 0 -60 -51 -60 -70 0 -10 -12
-33 -28 -53 -15 -19 -32 -43 -38 -53 -13 -22 -34 -10 -34 20 0 13 -7 29 -16
37 -10 8 -14 23 -12 41 5 34 -11 36 -40 5 -27 -29 -28 -66 -2 -149 27 -87 26
-101 -15 -137 -46 -40 -55 -39 -55 4 0 24 -6 37 -20 45 -15 8 -19 17 -14 32 4
15 0 26 -15 38 -21 15 -22 18 -7 60 8 25 19 78 26 119 12 86 52 176 109 247
21 27 46 66 54 86 9 21 29 55 45 75 16 21 34 52 39 68 6 18 21 36 39 44 32 15
84 60 84 73 0 4 -13 8 -30 8 -23 0 -30 4 -30 20 0 22 14 37 78 81 23 16 42 33
42 38 0 4 -14 12 -30 17 l-30 9 35 49 c28 40 35 59 35 98 0 49 13 61 38 36 17
-17 27 0 41 73 7 31 23 84 36 118 25 62 32 111 16 111 -20 0 -71 -84 -71 -118
l0 -35 -35 39 c-19 21 -35 39 -35 40 0 19 29 55 60 74 35 22 80 82 80 108 0 6
-21 12 -47 14 l-48 3 37 38 c20 20 43 37 52 37 9 0 16 6 16 14 0 9 -18 16 -54
20 -33 5 -57 13 -60 22 -9 23 -50 16 -77 -12 l-24 -26 29 -23 30 -24 -21 -68
c-12 -37 -27 -93 -34 -123 -9 -42 -21 -64 -51 -92 -21 -21 -43 -38 -49 -38
-15 0 -29 47 -29 100 0 56 -15 104 -30 95 -5 -3 -10 -21 -10 -38 0 -45 -11
-78 -23 -74 -6 2 -16 25 -22 52 -5 27 -15 50 -21 52 -22 7 -64 -38 -64 -69 l0
-31 25 23 25 24 -5 -30 c-57 -311 -55 -298 -38 -316 13 -14 15 -33 10 -95 -7
-97 -13 -113 -43 -113 -19 0 -26 7 -31 31 -7 38 -28 47 -53 24 -11 -10 -26
-15 -35 -11 -18 6 -10 28 26 75 21 26 25 66 9 76 -16 10 -12 22 9 28 18 4 20
17 23 143 2 77 -2 175 -8 219 -16 109 -22 653 -7 680 6 11 25 72 43 135 17 63
40 131 50 150 35 68 49 116 43 157 -4 34 -2 43 18 57 13 9 40 16 61 16 41 0
48 -13 27 -51 -8 -16 -7 -25 5 -37 8 -10 19 -29 25 -45 6 -16 18 -27 30 -27
10 0 32 -7 47 -15 36 -18 98 -19 113 -2 6 8 15 44 20 80 5 37 19 82 30 101 23
36 27 61 11 71 -6 3 -19 -14 -30 -39 -22 -51 -104 -136 -132 -136 -11 0 -23
11 -29 28 -17 41 -28 65 -38 82 -18 31 -41 116 -41 153 0 50 25 101 55 115 33
15 41 53 19 91 -17 29 -17 30 13 88 19 36 48 70 74 90 61 45 65 49 149 149 41
49 102 117 134 152 58 61 68 90 21 62 -13 -8 -98 -86 -190 -174 -194 -186
-298 -319 -316 -408 -6 -29 -17 -63 -25 -74 -18 -30 -134 -104 -161 -104 -23
0 -32 -23 -13 -35 12 -8 13 -35 1 -35 -5 0 -11 10 -14 21 -6 21 -21 22 -71 3
-28 -11 -30 24 -2 57 14 17 26 39 26 49 0 11 31 65 69 122 38 57 72 119 76
138 4 19 25 57 46 84 27 34 39 58 39 81 0 43 47 102 169 215 260 240 338 320
314 320 -4 0 -46 -29 -93 -64z m-368 -1061 c0 -5 -5 -11 -11 -13 -6 -2 -11 4
-11 13 0 9 5 15 11 13 6 -2 11 -8 11 -13z m-102 -28 c0 -7 -13 -19 -29 -28
-29 -17 -41 -60 -41 -149 0 -20 -13 -63 -29 -96 -49 -99 -77 -259 -97 -534 -3
-52 -13 -115 -21 -139 -9 -27 -12 -58 -8 -80 18 -102 17 -161 -9 -263 -14 -57
-28 -124 -32 -150 -3 -26 -12 -53 -20 -59 -9 -7 -14 -32 -14 -70 0 -48 4 -60
21 -73 19 -13 21 -21 16 -71 -7 -69 -23 -93 -45 -71 -13 13 -14 21 -3 54 12
35 11 43 -9 83 -23 44 -23 44 -16 385 7 303 6 343 -8 357 -9 9 -16 26 -16 38
0 21 1 21 18 6 10 -10 24 -17 30 -17 35 0 70 134 50 191 -9 25 -7 38 6 66 l16
34 -35 41 c-38 45 -53 95 -36 126 6 11 31 29 56 41 50 23 50 23 33 50 -9 15
-9 25 0 46 24 53 5 151 -26 131 -6 -3 -20 -32 -32 -64 -26 -68 -36 -82 -61
-82 -24 0 -25 30 -3 72 27 52 104 128 130 128 13 0 24 -5 24 -11 0 -7 18 9 41
35 22 25 45 46 50 46 6 0 26 11 46 25 36 24 53 25 53 2z m-430 -657 c0 -5 -4
-10 -10 -10 -5 0 -10 5 -10 10 0 6 5 10 10 10 6 0 10 -4 10 -10z m-35 -120
c-5 -15 -10 -19 -17 -12 -5 5 -7 20 -3 32 5 15 10 19 17 12 5 -5 7 -20 3 -32z
m-15 -252 c-5 -18 -11 -42 -14 -53 -3 -11 -7 -33 -11 -48 -3 -15 -10 -25 -15
-22 -16 10 -11 67 10 113 23 50 42 56 30 10z m46 -196 c-13 -12 -18 9 -10 45
l8 38 4 -39 c2 -21 1 -41 -2 -44z m0 -206 c3 -8 -5 -36 -17 -63 l-23 -48 -4
39 c-2 22 -1 50 2 63 7 25 33 31 42 9z m519 -7 c14 -44 -12 -136 -32 -115 -8
8 -6 113 2 126 10 16 23 11 30 -11z m265 7 c0 -16 -18 -31 -27 -22 -8 8 5 36
17 36 5 0 10 -6 10 -14z m-540 -64 c0 -28 -25 -56 -44 -49 -19 7 -21 38 -4 55
18 18 48 15 48 -6z m430 -98 c0 -35 -24 -64 -41 -47 -6 6 -13 36 -16 68 l-6
58 31 -23 c24 -18 32 -31 32 -56z m-665 -106 c24 -28 25 -33 11 -46 -14 -14
-17 -14 -36 3 -20 18 -28 75 -11 75 5 0 21 -14 36 -32z m-122 -126 l-18 -27
-3 30 c-3 19 2 33 15 43 15 11 18 11 21 -3 2 -9 -5 -28 -15 -43z m600 -12 c-7
-88 -28 -108 -39 -35 -8 54 0 78 23 73 14 -3 17 -12 16 -38z m-251 8 c-7 -7
-12 -8 -12 -2 0 14 12 26 19 19 2 -3 -1 -11 -7 -17z m-236 -13 c4 -9 -5 -33
-19 -54 -39 -59 -43 -87 -18 -121 28 -39 27 -47 -14 -104 -42 -60 -45 -93 -8
-122 33 -26 26 -50 -19 -62 -25 -6 -36 -16 -45 -43 -14 -40 -17 -148 -4 -167
11 -18 21 17 21 74 0 22 6 49 14 60 14 19 15 19 23 -1 14 -34 9 -623 -5 -637
-19 -19 -28 3 -35 85 -3 40 -15 98 -26 129 -12 32 -21 76 -21 98 0 22 -7 51
-15 64 -9 13 -18 52 -21 87 -8 84 12 303 31 339 8 16 19 60 25 97 17 122 50
250 71 272 23 25 57 28 65 6z m349 -56 c7 -22 -18 -59 -42 -59 -16 0 -17 33
-3 61 14 25 37 24 45 -2z m8113 -8 c3 -16 -1 -22 -10 -19 -7 3 -15 15 -16 27
-3 16 1 22 10 19 7 -3 15 -15 16 -27z m-8258 -130 c0 -63 -6 -91 -21 -91 -10
0 -12 110 -3 134 13 34 24 14 24 -43z m8271 -32 c8 -16 8 -52 -1 -141 -12
-132 -17 -151 -34 -145 -11 4 -12 238 -1 285 7 28 21 28 36 1z m-8781 -15 c0
-8 -4 -12 -10 -9 -5 3 -10 10 -10 16 0 5 5 9 10 9 6 0 10 -7 10 -16z m8925
-69 c0 -38 -2 -40 -32 -43 -34 -3 -76 13 -71 28 5 16 73 59 88 57 11 -2 15
-14 15 -42z m-8421 -21 c21 -21 20 -34 -3 -34 -26 0 -44 23 -29 38 15 15 13
15 32 -4z m-162 -76 c-15 -15 -26 -4 -18 18 5 13 9 15 18 6 9 -9 9 -15 0 -24z
m2456 -22 c-4 -25 -36 -34 -44 -12 -8 21 13 46 32 39 8 -3 14 -15 12 -27z
m4002 10 c33 -13 33 -14 11 -26 -13 -6 -56 -14 -96 -17 -114 -9 -137 11 -49
42 50 18 94 18 134 1z m2050 -69 c0 -7 -6 -21 -13 -32 -18 -24 -32 -3 -17 25
12 23 30 27 30 7z m-8845 -37 c-3 -5 -10 -10 -16 -10 -5 0 -9 5 -9 10 0 6 7
10 16 10 8 0 12 -4 9 -10z m5739 -13 c8 -14 8 -20 -4 -27 -22 -14 -35 -7 -38
24 -3 22 0 27 14 24 9 -1 22 -11 28 -21z m776 13 c0 -5 -9 -10 -20 -10 -11 0
-20 5 -20 10 0 6 9 10 20 10 11 0 20 -4 20 -10z m2170 -20 c0 -22 -16 -35 -25
-20 -9 14 4 52 16 45 5 -4 9 -15 9 -25z m-5710 2 c0 -10 -22 -32 -32 -32 -4 0
-8 9 -8 20 0 13 7 20 20 20 11 0 20 -4 20 -8z m5790 -21 c0 -4 16 -29 35 -54
l36 -46 -21 -21 c-11 -11 -24 -20 -30 -20 -5 0 -10 -35 -12 -77 -3 -76 -19
-107 -32 -61 -8 31 -8 273 1 281 9 10 23 9 23 -2z m-8346 -10 c9 -14 -4 -41
-19 -41 -18 0 -28 17 -21 35 6 17 32 20 40 6z m-403 -74 c13 -28 -9 -102 -31
-102 -19 0 -24 26 -15 81 7 49 29 59 46 21z m5187 -9 c-2 -18 -10 -23 -30 -23
-35 0 -38 16 -7 32 34 18 41 16 37 -9z m-4892 -35 c13 -82 10 -276 -4 -301 -7
-12 -17 -20 -23 -17 -18 12 -7 365 12 365 4 0 11 -21 15 -47z m4954 -53 c0 -5
-9 -14 -20 -20 -23 -13 -66 -77 -75 -113 -4 -14 -26 -48 -51 -77 -36 -43 -42
-56 -37 -80 3 -17 1 -36 -5 -42 -5 -7 -13 -32 -17 -56 -8 -50 -28 -62 -103
-62 -91 0 -118 20 -60 44 28 12 29 14 11 20 -12 4 -26 13 -33 21 -12 14 -3 18
93 39 42 10 32 21 -25 32 -86 15 -64 42 61 74 39 10 43 14 38 36 -3 18 0 27
12 31 58 18 76 32 121 94 33 45 57 69 70 69 11 0 20 -4 20 -10z m-5260 -202
c0 -73 -11 -106 -24 -72 -8 21 -8 159 1 167 14 15 23 -21 23 -95z m377 76 c-9
-9 -28 6 -21 18 4 6 10 6 17 -1 6 -6 8 -13 4 -17z m2663 -53 c0 -5 -7 -14 -15
-21 -12 -10 -15 -10 -15 2 0 8 3 18 7 21 9 10 23 9 23 -2z m2707 -27 c3 -8 0
-27 -6 -41 -9 -21 -14 -23 -26 -13 -15 13 -20 51 -8 63 12 12 33 7 40 -9z
m-5367 -68 c0 -8 -4 -17 -9 -21 -12 -7 -24 12 -16 25 9 15 25 12 25 -4z m6940
4 c0 -5 -7 -10 -16 -10 -8 0 -12 5 -9 10 3 6 10 10 16 10 5 0 9 -4 9 -10z
m-5799 -45 c-20 -53 -41 -79 -41 -51 0 20 16 53 38 79 22 25 22 22 3 -28z
m-1221 -11 c0 -21 -4 -33 -10 -29 -5 3 -10 19 -10 36 0 16 5 29 10 29 6 0 10
-16 10 -36z m1004 -56 c-3 -21 -10 -40 -15 -44 -10 -6 -12 96 -2 122 11 29 25
-33 17 -78z m102 60 c-4 -13 -11 -70 -16 -128 -5 -58 -9 -106 -9 -107 -1 -2
-5 -3 -11 -3 -16 0 -12 150 5 208 9 29 21 52 27 52 6 0 8 -9 4 -22z m6152 3
c3 -8 -1 -12 -9 -9 -7 2 -15 10 -17 17 -3 8 1 12 9 9 7 -2 15 -10 17 -17z
m-5708 -27 c0 -13 -4 -24 -10 -24 -5 0 -10 14 -10 31 0 17 4 28 10 24 6 -3 10
-17 10 -31z m5859 -39 c13 -53 14 -102 2 -109 -14 -9 -28 16 -35 64 -4 25 -14
55 -21 67 -13 20 -13 23 2 32 25 13 39 -1 52 -54z m1016 38 c3 -10 9 -47 12
-83 4 -50 1 -70 -11 -85 -21 -27 -30 -12 -45 76 -8 49 -8 76 -1 89 13 25 36
26 45 3z m-1129 -28 c7 -29 1 -41 -15 -30 -14 8 -14 55 -1 55 5 0 12 -11 16
-25z m-7603 -1 c9 -9 -4 -35 -14 -28 -5 3 -9 12 -9 20 0 14 12 19 23 8z m2047
-28 c-13 -13 -35 7 -25 24 5 8 11 8 21 -1 10 -8 12 -15 4 -23z m-267 -21 c-3
-44 -12 -60 -25 -47 -14 14 -1 85 15 79 7 -2 11 -17 10 -32z m6055 2 c2 -10
-3 -17 -12 -17 -10 0 -16 9 -16 21 0 24 23 21 28 -4z m-6726 -42 c-11 -21 -25
-4 -16 20 4 10 10 13 16 7 7 -7 7 -16 0 -27z m868 -5 c0 -11 -4 -20 -10 -20
-5 0 -10 9 -10 20 0 11 5 20 10 20 6 0 10 -9 10 -20z m5439 -2 c5 -13 7 -25 5
-27 -7 -7 -34 21 -34 35 0 22 20 16 29 -8z m-369 -4 c0 -9 -5 -14 -12 -12 -18
6 -21 28 -4 28 9 0 16 -7 16 -16z m-6887 -25 c6 -24 -1 -49 -14 -49 -5 0 -9
16 -9 35 0 38 14 47 23 14z m80 -60 c1 -24 -2 -45 -8 -47 -6 -1 -11 23 -13 55
-2 43 0 55 8 47 6 -6 12 -31 13 -55z m1237 22 c0 -50 -12 -94 -21 -79 -17 26
-6 124 12 112 5 -3 9 -18 9 -33z m6484 24 c11 -30 -34 -95 -66 -95 -15 0 -8
32 14 71 23 41 42 50 52 24z m-6883 -32 c-10 -17 -10 -16 -11 3 0 23 13 41 18
25 2 -6 -1 -18 -7 -28z m3909 28 c0 -6 -4 -13 -10 -16 -5 -3 -10 1 -10 9 0 9
5 16 10 16 6 0 10 -4 10 -9z m2190 -47 c6 -14 10 -38 10 -54 0 -16 7 -56 16
-89 16 -65 16 -157 -1 -154 -5 1 -12 24 -15 50 -3 26 -12 58 -19 71 -17 32
-28 202 -12 202 6 0 16 -12 21 -26z m-5483 -6 c-3 -8 -6 -5 -6 6 -1 11 2 17 5
13 3 -3 4 -12 1 -19z m5293 -4 c0 -31 -23 -28 -28 4 -2 15 2 22 12 22 11 0 16
-9 16 -26z m-230 8 c0 -13 -12 -22 -22 -16 -10 6 -1 24 13 24 5 0 9 -4 9 -8z
m695 -28 c7 -39 3 -50 -14 -39 -13 8 -15 75 -2 75 5 0 12 -16 16 -36z m293
-21 c3 -35 -21 -103 -37 -103 -14 0 -14 80 -1 115 13 34 34 27 38 -12z m-372
-19 c-5 -13 -10 -14 -18 -6 -6 6 -8 18 -4 28 5 13 10 14 18 6 6 -6 8 -18 4
-28z m-5806 16 c0 -5 -4 -10 -10 -10 -5 0 -10 5 -10 10 0 6 5 10 10 10 6 0 10
-4 10 -10z m5040 -61 c0 -15 -4 -31 -10 -34 -16 -10 -33 40 -25 72 6 27 7 27
21 9 8 -11 14 -32 14 -47z m-5520 5 c0 -19 -4 -34 -10 -34 -13 0 -24 45 -16
66 10 25 26 6 26 -32z m6010 -6 c0 -38 -3 -49 -10 -38 -13 20 -13 90 0 90 6 0
10 -24 10 -52z m-3560 4 c0 -34 -14 -57 -29 -48 -14 9 -14 59 1 74 16 16 28 5
28 -26z m4035 -17 c7 -58 -1 -88 -16 -64 -11 18 -12 119 0 119 5 0 12 -25 16
-55z m-6004 -15 c4 -14 7 -39 8 -57 1 -27 -3 -32 -28 -38 -16 -3 -32 -13 -35
-21 -3 -8 -13 -14 -22 -14 -22 0 -15 47 16 114 25 52 49 58 61 16z m-171 -37
c0 -51 -24 -36 -28 17 -3 39 -2 42 12 31 9 -8 16 -29 16 -48z m5430 30 c0 -20
-3 -24 -11 -16 -7 7 -9 19 -6 27 10 24 17 19 17 -11z m-5104 -8 c-23 -35 -98
-29 -84 7 4 8 23 13 51 13 44 0 45 -1 33 -20z m7144 0 c0 -8 -4 -15 -10 -15
-5 0 -10 7 -10 15 0 8 5 15 10 15 6 0 10 -7 10 -15z m-1840 -4 c0 -6 -4 -13
-10 -16 -5 -3 -10 1 -10 9 0 9 5 16 10 16 6 0 10 -4 10 -9z m469 -70 c9 -42 9
-56 -1 -62 -7 -4 -15 -6 -19 -3 -14 8 -21 64 -14 106 9 49 17 38 34 -41z
m-6489 14 c0 -26 -14 -33 -25 -15 -9 14 1 40 15 40 5 0 10 -11 10 -25z m5946
-45 c6 -49 6 -49 43 -47 31 2 36 -1 39 -22 5 -34 -7 -91 -19 -91 -6 0 -16 14
-22 30 -12 32 -26 37 -45 18 -18 -18 -25 -3 -30 62 -8 107 21 150 34 50z
m-6248 24 c12 -4 29 -19 37 -35 17 -32 20 -85 6 -94 -10 -6 -61 54 -61 72 0 5
-18 17 -41 26 -23 9 -38 21 -34 27 7 11 57 13 93 4z m6717 -45 c7 -31 -9 -64
-26 -53 -10 6 -12 77 -3 87 11 11 22 -2 29 -34z m1086 -15 c13 -59 11 -110 -6
-124 -18 -15 -17 -15 -48 30 -23 34 -23 36 -6 75 9 22 19 49 23 59 9 26 25 9
37 -40z m264 6 c10 -11 24 -20 32 -20 7 0 13 -7 13 -15 0 -19 -23 -19 -60 0
-18 9 -30 24 -30 35 0 26 22 26 45 0z m-6721 -50 c6 -35 -3 -90 -15 -90 -14 0
-22 47 -15 85 8 43 21 45 30 5z m-704 -21 c0 -10 -4 -19 -9 -19 -12 0 -23 29
-15 41 8 14 24 0 24 -22z m398 -23 c5 -41 -15 -56 -27 -23 -12 30 -4 60 13 54
6 -2 12 -16 14 -31z m6012 -1 c0 -14 -4 -25 -10 -25 -5 0 -10 11 -10 25 0 14
5 25 10 25 6 0 10 -11 10 -25z m-225 -16 c8 -24 -16 -55 -34 -45 -15 9 -14 39
1 54 17 17 26 15 33 -9z m-3987 -11 c-4 -27 -28 -36 -28 -10 0 20 8 32 22 32
5 0 8 -10 6 -22z m2792 8 c0 -11 -19 -15 -25 -6 -3 5 1 10 9 10 9 0 16 -2 16
-4z m180 -33 c0 -20 -3 -24 -11 -16 -7 7 -9 19 -6 27 10 24 17 19 17 -11z
m940 6 c0 -5 -4 -9 -10 -9 -5 0 -10 7 -10 16 0 8 5 12 10 9 6 -3 10 -10 10
-16z m925 0 c4 -11 4 -23 1 -26 -10 -10 -35 18 -29 33 8 20 21 17 28 -7z
m-7847 -6 c18 -35 21 -122 7 -178 -23 -86 -20 -137 10 -171 30 -35 40 -79 31
-142 -5 -35 -1 -55 15 -90 15 -30 23 -70 27 -132 9 -160 -21 -217 -44 -83 -6
39 -20 95 -30 125 -57 171 -82 301 -83 425 -1 85 1 94 25 123 27 31 27 39 8
114 -5 20 -2 26 10 26 8 0 19 -8 24 -17z m-338 -29 c0 -21 -4 -25 -22 -22 -17
2 -22 9 -20 23 8 42 42 41 42 -1z m6558 -11 c-4 -33 -24 -41 -33 -14 -8 25 1
41 21 41 11 0 14 -8 12 -27z m620 2 c7 -14 12 -32 12 -40 0 -18 27 -20 32 -3
6 18 38 1 38 -20 0 -25 -23 -44 -44 -36 -9 3 -23 0 -32 -7 -20 -16 -30 -2 -38
56 -11 67 10 99 32 50z m380 1 c8 -40 -27 -104 -49 -91 -14 9 -11 53 7 86 16
32 37 34 42 5z m-892 -13 c-10 -10 -19 5 -10 18 6 11 8 11 12 0 2 -7 1 -15 -2
-18z m90 -121 c-6 -71 -14 -91 -27 -71 -13 21 -11 167 3 192 11 21 12 20 21
-18 5 -22 6 -68 3 -103z m1848 130 c11 -18 -23 -183 -44 -209 -13 -16 -20 -41
-20 -67 0 -35 5 -46 31 -65 41 -31 38 -70 -8 -90 -49 -22 -39 -51 17 -51 37 0
52 -70 55 -255 1 -93 -2 -178 -7 -187 -5 -10 -17 -18 -28 -18 -10 0 -22 -4
-25 -10 -10 -16 -41 -11 -59 9 -49 55 -87 750 -48 886 6 22 16 31 38 36 16 3
39 11 49 17 24 14 42 15 49 4z m-2105 -75 c-9 -31 -41 -67 -61 -67 -13 0 -2
61 19 110 l14 35 19 -23 c15 -18 17 -29 9 -55z m495 57 c22 -21 20 -73 -3
-108 -18 -28 -19 -28 -30 -8 -15 28 -14 105 1 120 15 15 13 15 32 -4z m-91
-52 c-3 -12 -9 -19 -14 -16 -11 6 -12 48 -2 58 11 11 23 -18 16 -42z m-5323
-18 c0 -24 -4 -34 -12 -32 -15 5 -22 42 -14 64 10 25 26 5 26 -32z m5517 -18
c-4 -9 -11 -16 -17 -16 -11 0 -14 33 -3 43 11 11 26 -10 20 -27z m-479 -14
c14 -19 16 -88 2 -97 -6 -4 -10 8 -10 29 0 48 -17 54 -52 18 -24 -24 -32 -41
-37 -88 -7 -70 -31 -87 -31 -22 0 50 25 155 42 175 14 17 68 8 86 -15z m-4929
-39 c-1 -62 -6 -56 -11 15 -2 23 0 42 4 42 5 0 7 -26 7 -57z m-391 15 c7 -7
12 -21 12 -32 0 -12 14 -59 30 -106 17 -46 30 -88 30 -94 0 -5 -15 7 -34 26
-51 52 -99 218 -63 218 7 0 18 -5 25 -12z m1932 2 c0 -16 -81 -100 -91 -94 -8
5 13 41 50 87 15 19 41 23 41 7z m3030 -17 c-1 -33 -16 -102 -25 -111 -13 -13
-25 25 -20 62 10 69 45 107 45 49z m645 17 c3 -5 -12 -29 -33 -52 -21 -24 -43
-52 -48 -63 -7 -15 -9 -8 -12 34 -2 40 1 58 14 72 18 20 69 26 79 9z m-5741
-51 c-13 -14 -21 -16 -28 -9 -8 8 -6 15 8 25 26 20 41 7 20 -16z m7143 -61 c7
-76 -8 -98 -46 -71 -19 13 -22 22 -18 52 2 20 12 54 21 76 15 34 19 37 27 23
5 -10 12 -46 16 -80z m-6302 48 c7 -36 -1 -76 -15 -76 -11 0 -22 67 -15 90 10
30 23 24 30 -14z m-1055 -25 c13 -25 13 -58 -1 -66 -18 -12 -57 4 -64 25 -16
51 40 86 65 41z m5453 -16 c-3 -34 -32 -80 -43 -69 -12 12 20 106 34 101 6 -2
10 -17 9 -32z m-4783 -11 c0 -13 -4 -24 -10 -24 -5 0 -10 14 -10 31 0 17 4 28
10 24 6 -3 10 -17 10 -31z m-170 -6 c11 -18 20 -41 20 -50 0 -10 8 -33 17 -53
9 -19 13 -38 9 -42 -12 -12 -54 43 -66 87 -6 21 -15 42 -20 45 -16 10 -12 45
5 45 8 0 24 -15 35 -32z m4687 5 c5 -13 -43 -70 -51 -62 -4 3 1 23 9 43 15 35
34 44 42 19z m2273 -49 c0 -13 -4 -24 -10 -24 -5 0 -10 14 -10 31 0 17 4 28
10 24 6 -3 10 -17 10 -31z m235 27 c7 -12 -12 -24 -25 -16 -11 7 -4 25 10 25
5 0 11 -4 15 -9z m-1935 -31 c0 -11 -7 -20 -15 -20 -17 0 -18 2 -9 24 9 23 24
20 24 -4z m680 2 c0 -21 -18 -42 -37 -42 -16 0 -17 32 -1 48 18 18 38 15 38
-6z m-5462 -26 c3 -12 -1 -17 -10 -14 -7 3 -15 13 -16 22 -3 12 1 17 10 14 7
-3 15 -13 16 -22z m112 -47 c0 -20 -4 -29 -12 -27 -15 5 -22 33 -14 54 9 24
26 6 26 -27z m4135 -8 c-7 -29 -44 -73 -55 -66 -4 3 4 27 17 55 25 52 50 59
38 11z m272 -5 c-4 -9 -11 -16 -16 -16 -13 0 -24 37 -15 51 10 16 38 -16 31
-35z m-4584 -28 c47 -99 84 -235 68 -251 -10 -10 -58 85 -68 135 -3 18 -14 49
-25 68 -18 35 -24 81 -11 93 9 10 9 11 36 -45z m3412 41 c10 -14 1 -21 -19
-13 -9 3 -13 10 -10 15 7 12 21 11 29 -2z m1389 -25 c3 -9 2 -23 -3 -32 -7
-12 -4 -23 11 -39 16 -17 18 -25 9 -42 -15 -27 -39 -27 -43 1 -2 14 -12 24
-28 28 -19 5 -24 12 -23 31 6 59 13 69 42 69 17 0 31 -6 35 -16z m1356 -38 c0
-14 -5 -37 -12 -53 -9 -23 -12 -25 -15 -10 -7 26 6 87 17 87 6 0 10 -11 10
-24z m-6042 -28 c39 -88 37 -122 -6 -93 -25 19 -46 78 -38 111 9 35 23 30 44
-18z m-282 -37 c-10 -16 -23 -14 -30 5 -9 25 4 38 21 21 9 -8 12 -20 9 -26z
m-68 12 c-2 -10 -10 -18 -18 -18 -8 0 -16 8 -18 18 -2 12 3 17 18 17 15 0 20
-5 18 -17z m452 7 c0 -5 -4 -10 -10 -10 -5 0 -10 5 -10 10 0 6 5 10 10 10 6 0
10 -4 10 -10z m3507 -35 c43 -8 95 -15 116 -15 20 0 37 -4 37 -9 0 -21 -36
-34 -103 -39 -60 -4 -81 -1 -120 17 -50 23 -54 30 -35 49 15 15 10 15 105 -3z
m2801 -35 c20 0 22 -5 22 -59 0 -60 -13 -88 -25 -52 -3 10 -17 22 -30 25 -19
5 -25 13 -25 35 0 16 -3 44 -6 62 l-7 34 25 -22 c13 -13 34 -23 46 -23z
m-8120 -34 c2 -36 0 -47 -10 -44 -8 3 -14 24 -16 52 -2 36 0 47 10 44 8 -3 14
-24 16 -52z m6046 42 c-21 -38 -57 -78 -70 -78 -21 0 -17 11 17 53 28 34 69
53 53 25z m-4584 -13 c0 -8 -7 -15 -15 -15 -8 0 -15 7 -15 15 0 8 7 15 15 15
8 0 15 -7 15 -15z m-819 -42 c15 -40 -2 -49 -22 -12 -17 34 -16 55 2 43 6 -3
14 -17 20 -31z m85 12 c-3 -9 -11 -13 -16 -10 -8 5 -7 11 1 21 14 18 24 11 15
-11z m5465 -15 c20 -11 26 -54 10 -65 -6 -3 -14 3 -20 12 -8 16 -13 17 -43 5
-60 -25 -68 -25 -68 -8 0 26 46 66 75 66 15 0 35 -5 46 -10z m1649 -12 c0 -13
-4 -30 -9 -37 -8 -12 -11 -9 -16 11 -7 28 -1 48 16 48 5 0 9 -10 9 -22z m-156
-30 c3 -18 22 -55 41 -82 19 -27 35 -55 35 -63 0 -7 -16 -21 -36 -30 -26 -13
-40 -28 -49 -56 -15 -43 -32 -67 -50 -67 -24 0 -23 39 2 72 20 27 23 40 18 73
-11 62 -9 137 4 168 13 34 27 28 35 -15z m-2365 -85 c39 -25 45 -43 14 -43 -8
0 -26 9 -40 20 -14 11 -31 20 -38 20 -7 0 -18 7 -25 15 -22 27 44 18 89 -12z
m2545 -15 c3 -13 7 -44 10 -70 3 -27 16 -69 30 -95 45 -90 59 -214 30 -259
-13 -19 -16 -42 -12 -104 7 -124 27 -126 37 -4 6 80 24 108 35 57 7 -32 -19
-194 -37 -232 -21 -45 -107 -36 -107 10 0 27 -27 35 -50 14 -25 -22 -37 -13
-43 32 -3 21 -12 65 -21 98 -21 81 -20 148 3 193 23 45 54 156 76 272 9 47 18
91 20 98 7 20 24 14 29 -10z m-1654 -33 c0 -8 -7 -15 -15 -15 -9 0 -12 6 -9
15 4 8 10 15 15 15 5 0 9 -7 9 -15z m275 -14 c7 -12 -12 -24 -25 -16 -11 7 -4
25 10 25 5 0 11 -4 15 -9z m-6413 -26 c9 -20 9 -28 -1 -38 -15 -15 -31 6 -31
41 0 30 18 28 32 -3z m2473 15 c3 -5 -1 -10 -9 -10 -9 0 -16 5 -16 10 0 6 4
10 9 10 6 0 13 -4 16 -10z m-2881 -267 c-4 -32 -11 -69 -16 -82 -8 -23 -9 -23
-29 -5 -15 13 -19 26 -15 46 10 51 35 98 51 98 14 0 15 -8 9 -57z m610 -40 c9
-22 -10 -41 -25 -26 -13 13 -5 43 10 43 5 0 12 -8 15 -17z m7853 -115 c11 -13
29 -39 38 -58 10 -19 27 -47 38 -61 17 -24 18 -31 6 -62 -11 -31 -10 -37 9
-62 27 -34 28 -85 4 -115 -16 -20 -19 -21 -31 -6 -20 24 -29 20 -36 -16 -4
-18 -12 -44 -18 -58 -6 -14 -16 -45 -21 -70 -7 -28 -17 -45 -26 -45 -21 0 -25
76 -7 134 23 72 29 136 17 180 -9 33 -8 46 5 72 16 29 15 34 -4 79 -38 88 -22
140 26 88z m-487 -194 c-30 -141 -39 -166 -58 -162 -13 3 -17 15 -17 53 1 56
40 189 63 211 29 30 33 -2 12 -102z m-7741 -68 c26 -72 33 -109 21 -126 -9
-13 -11 -13 -20 0 -5 8 -10 26 -10 40 0 14 -9 44 -20 67 -18 42 -24 64 -21 93
2 23 28 -14 50 -74z m7624 -21 c0 -14 -7 -43 -15 -63 -23 -58 -48 -133 -59
-177 -12 -49 -48 -111 -87 -153 -66 -71 -69 -20 -7 102 28 56 45 102 45 124 0
28 -3 33 -12 24 -19 -19 -38 -14 -48 14 -7 17 -6 32 1 47 14 26 50 67 59 67 4
0 11 -24 14 -52 7 -49 9 -52 22 -34 16 23 19 72 4 81 -21 13 -9 33 28 48 42
17 55 11 55 -28z m260 -42 c28 -31 19 -111 -21 -190 -17 -32 -34 -76 -37 -96
-9 -45 -23 -48 -32 -7 -12 62 -34 41 -54 -51 -9 -43 -23 -66 -73 -121 -33 -37
-64 -68 -68 -68 -5 0 -8 11 -8 23 0 33 -9 39 -34 22 -34 -24 -39 -18 -32 40 5
46 4 55 -9 55 -9 0 -25 -15 -36 -34 -11 -19 -27 -37 -36 -40 -23 -9 -37 8 -25
31 16 30 124 119 153 126 34 9 79 105 79 170 0 48 9 60 54 71 17 4 53 32 85
66 47 50 57 56 65 42 5 -9 18 -27 29 -39z m435 -137 c3 -13 -1 -17 -14 -14
-11 2 -20 11 -22 22 -3 13 1 17 14 14 11 -2 20 -11 22 -22z m-8255 -61 c7 -16
-8 -29 -23 -20 -15 9 -12 35 4 35 8 0 16 -7 19 -15z m215 -23 c2 -7 -6 -12
-17 -12 -21 0 -27 11 -14 24 9 9 26 2 31 -12z m8012 -44 c0 -23 -39 -78 -55
-78 -23 0 -18 25 11 59 27 33 44 40 44 19z m-7925 -61 c0 -15 -4 -28 -9 -29
-14 -5 -30 28 -23 46 10 26 32 14 32 -17z m7800 -42 c0 -10 -6 -20 -12 -22 -8
-3 -13 5 -13 22 0 17 5 25 13 23 6 -3 12 -13 12 -23z m-310 4 c10 -15 -1 -23
-20 -15 -9 3 -13 10 -10 16 8 13 22 13 30 -1z m389 -56 c9 -59 7 -82 -10 -119
-19 -40 -14 -50 15 -34 18 9 21 8 21 -9 0 -11 -5 -32 -12 -46 -9 -20 -18 -25
-50 -25 -24 0 -41 5 -44 14 -3 8 -1 50 6 93 20 142 60 210 74 126z m-7946 -21
c2 -15 -2 -22 -12 -22 -11 0 -16 9 -16 26 0 31 23 28 28 -4z m7442 -38 c0 -8
-5 -12 -10 -9 -6 4 -8 11 -5 16 9 14 15 11 15 -7z m310 -19 c0 -9 -21 -57 -47
-108 -40 -78 -48 -88 -51 -65 -2 15 3 42 12 60 8 18 17 44 21 58 11 38 34 70
50 70 8 0 15 -7 15 -15z m-540 -35 c0 -20 -25 -38 -36 -27 -8 7 15 47 26 47 6
0 10 -9 10 -20z m-86 -16 c13 -5 14 -9 5 -20 -6 -8 -17 -14 -25 -14 -20 0 -28
21 -13 31 17 11 14 10 33 3z m-6934 -39 c6 -15 6 -43 1 -69 -10 -53 5 -91 34
-91 11 -1 26 -4 33 -8 14 -10 16 -53 2 -62 -5 -3 -10 -26 -10 -50 0 -43 -15
-61 -42 -49 -15 6 -98 172 -98 195 0 9 -7 33 -15 52 -8 20 -15 50 -15 66 0 26
4 30 33 34 64 8 67 7 77 -18z m7201 -16 c-13 -11 -27 -17 -30 -13 -3 3 5 14
18 25 13 11 27 17 30 13 3 -3 -5 -14 -18 -25z m-7026 -53 c28 -21 12 -46 -30
-46 -30 0 -35 3 -35 23 0 13 3 27 7 30 11 11 38 8 58 -7z m6905 -16 c0 -5 -9
-10 -20 -10 -11 0 -20 5 -20 10 0 6 9 10 20 10 11 0 20 -4 20 -10z m230 -20
c0 -21 -33 -60 -50 -60 -16 0 -12 42 7 62 21 24 43 23 43 -2z m380 -29 c0 -13
-92 -91 -107 -91 -21 0 -15 35 10 57 42 38 97 57 97 34z m-7492 -161 c3 -33
12 -53 38 -82 36 -40 44 -81 23 -120 -10 -19 -12 -18 -45 17 -34 37 -35 37
-92 31 -58 -6 -90 3 -78 23 4 6 22 11 41 11 19 0 36 4 40 10 3 5 9 39 14 75
11 94 53 118 59 35z m-360 8 c7 -7 12 -18 12 -25 0 -22 -26 -14 -38 12 -9 20
-9 25 1 25 7 0 18 -5 25 -12z m7478 -96 c-15 -15 -16 -15 -16 2 0 9 6 27 12
39 l13 22 3 -24 c2 -13 -3 -31 -12 -39z m-7516 -48 c0 -54 -13 -50 -33 10 -17
49 -13 60 14 45 14 -7 19 -21 19 -55z m7408 41 c-6 -14 -13 -23 -16 -21 -7 7
9 46 18 46 5 0 4 -11 -2 -25z m-513 -65 c-10 -11 -22 -20 -27 -20 -5 0 -4 9 2
20 6 11 18 20 27 20 14 0 14 -2 -2 -20z m-6831 -82 c3 -18 8 -64 11 -103 4
-38 16 -116 27 -173 11 -56 18 -109 14 -117 -9 -23 -25 -18 -32 11 l-7 25 -27
-26 c-28 -27 -28 -27 -35 -5 -4 13 0 31 10 46 20 31 11 62 -22 75 -23 9 -25
13 -18 47 4 20 10 79 14 130 5 76 10 96 25 108 29 20 35 18 40 -18z m7031
-273 c0 -22 -31 -33 -48 -16 -7 7 -6 15 3 26 17 21 45 15 45 -10z m-77 -237
c17 -17 15 -58 -3 -64 -21 -8 -45 14 -45 41 0 35 24 47 48 23z m-2263 -29 c11
-17 -5 -79 -19 -79 -17 0 -29 44 -21 71 7 21 30 25 40 8z m-4175 -99 c0 -5 -4
-10 -10 -10 -5 0 -10 5 -10 10 0 6 5 10 10 10 6 0 10 -4 10 -10z m4101 -29 c9
-42 19 -50 33 -28 26 43 32 48 49 41 22 -8 22 -22 0 -46 -12 -14 -17 -34 -15
-69 1 -27 -2 -49 -8 -49 -14 0 -30 35 -30 65 0 24 -3 26 -28 20 -22 -4 -33 0
-56 24 l-28 30 26 26 c32 32 48 29 57 -14z m2277 -46 c4 -26 -41 -70 -62 -62
-22 9 -20 29 5 61 24 31 53 31 57 1z m-1460 -77 c-3 -7 -11 -13 -18 -13 -7 0
-15 6 -17 13 -3 7 4 12 17 12 13 0 20 -5 18 -12z m-4814 -40 c9 -12 16 -37 16
-56 0 -59 -52 -52 -65 8 -13 61 18 92 49 48z m6186 -30 c0 -39 -42 -113 -48
-85 -6 28 28 117 44 117 2 0 4 -15 4 -32z m90 -2 c0 -38 -56 -248 -90 -334
-16 -42 -30 -80 -30 -84 0 -20 -64 -147 -71 -142 -11 6 -11 81 0 146 4 26 19
64 33 85 72 110 87 139 102 206 28 119 36 147 46 147 6 0 10 -11 10 -24z
m-3105 4 c3 -5 -1 -10 -9 -10 -9 0 -16 5 -16 10 0 6 4 10 9 10 6 0 13 -4 16
-10z m545 -50 c0 -5 -7 -10 -15 -10 -8 0 -15 5 -15 10 0 6 7 10 15 10 8 0 15
-4 15 -10z m2055 -36 c-28 -21 -41 -3 -14 18 17 14 25 16 28 7 2 -7 -4 -18
-14 -25z m-5591 -10 c12 -30 6 -64 -15 -85 l-20 -20 -37 22 c-20 12 -55 27
-77 33 -23 7 -41 19 -43 29 -3 14 5 17 55 17 32 0 65 5 73 10 23 15 57 12 64
-6z m6196 -34 c0 -16 -4 -30 -10 -30 -11 0 -14 43 -3 53 11 12 13 8 13 -23z
m-230 -29 c0 -6 -4 -13 -10 -16 -5 -3 -10 1 -10 9 0 9 5 16 10 16 6 0 10 -4
10 -9z m-430 -35 c0 -8 -4 -18 -10 -21 -5 -3 -10 3 -10 14 0 12 5 21 10 21 6
0 10 -6 10 -14z m-6087 -30 c3 -8 -1 -20 -9 -26 -12 -10 -14 -8 -14 14 0 28
14 35 23 12z m6057 -58 c0 -29 -51 -148 -63 -148 -11 0 -5 27 25 108 24 64 38
79 38 40z m690 -17 c0 -95 -73 -399 -95 -394 -18 4 -17 47 4 153 11 58 25 132
31 164 15 88 60 145 60 77z m-6633 -65 c-4 -9 -11 -16 -17 -16 -11 0 -14 33
-3 44 11 10 26 -11 20 -28z m465 2 c-15 -15 -26 -4 -18 18 5 13 9 15 18 6 9
-9 9 -15 0 -24z m5564 -40 c-11 -84 -113 -321 -142 -332 -38 -15 -39 34 -1
109 11 22 35 85 53 139 34 101 55 136 82 136 12 0 13 -10 8 -52z m-1276 1 c0
-5 -7 -9 -15 -9 -8 0 -15 7 -15 15 0 9 6 12 15 9 8 -4 15 -10 15 -15z m128 -9
c23 -21 42 -30 65 -30 55 0 96 -19 103 -47 9 -34 -13 -54 -31 -29 -17 23 -35
13 -35 -20 0 -36 -30 -30 -78 16 -22 22 -47 40 -55 40 -18 0 -57 46 -57 67 0
11 29 30 51 32 3 1 20 -12 37 -29z m290 -17 c2 -8 -6 -13 -22 -13 -26 0 -40
12 -29 24 11 11 46 2 51 -11z m-4783 -29 c0 -19 -5 -29 -15 -29 -16 0 -25 28
-16 51 10 25 31 10 31 -22z m120 -18 c11 -54 3 -70 -40 -84 -41 -13 -85 -9
-85 8 0 5 14 13 32 18 33 8 43 21 53 65 8 38 33 34 40 -7z m-517 -118 l-3 -33
-23 23 c-25 25 -23 52 7 86 15 18 16 17 19 -13 2 -17 2 -46 0 -63z m362 41 c0
-5 -4 -9 -10 -9 -5 0 -10 7 -10 16 0 8 5 12 10 9 6 -3 10 -10 10 -16z m5910
-11 c0 -64 -56 -270 -82 -304 -38 -48 -50 5 -24 103 17 62 66 193 79 211 15
19 27 14 27 -10z m180 -57 c0 -28 -7 -48 -25 -68 -29 -34 -31 -20 -8 54 20 63
33 68 33 14z m-116 -47 c-1 -59 -26 -145 -50 -174 -7 -8 -23 -40 -37 -70 -13
-30 -31 -61 -40 -69 -15 -12 -17 -10 -17 16 0 17 13 61 29 99 47 113 78 197
86 232 11 54 30 32 29 -34z m-2314 -3 c31 -33 68 -65 84 -70 39 -16 88 -13
114 5 17 12 30 13 55 6 17 -6 45 -13 60 -16 40 -9 33 -45 -13 -69 -29 -15 -53
-18 -148 -14 -63 2 -117 8 -123 14 -17 17 -35 6 -74 -48 -35 -50 -51 -56 -102
-43 -16 4 -23 14 -23 30 0 17 -7 25 -25 30 -26 6 -102 1 -147 -11 -23 -6 -29
-3 -39 18 -14 31 -4 76 19 84 9 3 32 17 51 31 18 14 56 33 84 44 28 11 64 30
81 43 52 41 82 34 146 -34z m1040 -22 c0 -18 -4 -28 -10 -24 -5 3 -10 20 -10
36 0 18 4 28 10 24 6 -3 10 -20 10 -36z m-5020 -9 c0 -11 -4 -20 -10 -20 -5 0
-10 9 -10 20 0 11 5 20 10 20 6 0 10 -9 10 -20z m4528 -55 c12 -14 27 -25 33
-25 5 0 9 -12 7 -27 -4 -33 -48 -54 -76 -37 -19 12 -45 81 -38 101 9 22 51 15
74 -12z m1970 -62 c-3 -42 -28 -59 -28 -20 0 32 9 57 22 57 5 0 8 -17 6 -37z
m-1824 -19 c12 -30 7 -74 -8 -74 -22 0 -28 16 -20 55 7 37 18 45 28 19z m533
-16 c31 -35 43 -63 43 -103 0 -28 -5 -38 -26 -47 -21 -10 -27 -9 -35 3 -5 8
-7 22 -5 32 3 14 -5 22 -29 33 -51 21 -68 60 -39 88 23 23 67 20 91 -6z m-769
-21 c6 -7 12 -25 14 -41 2 -24 -2 -31 -25 -38 -52 -18 -70 7 -47 66 10 28 40
35 58 13z m-188 -17 c0 -5 -11 -10 -25 -10 -14 0 -25 5 -25 10 0 6 11 10 25
10 14 0 25 -4 25 -10z m1670 2 c0 -5 -8 -16 -18 -25 -20 -19 -45 -5 -35 19 6
15 53 20 53 6z m-1324 -64 c8 -25 -12 -48 -42 -48 -21 0 -24 5 -24 38 0 49 17
68 42 46 9 -9 20 -25 24 -36z m495 2 c25 0 30 -13 18 -49 -7 -20 -20 -33 -35
-37 -38 -10 -18 -23 26 -17 36 5 40 4 40 -17 0 -12 8 -35 17 -50 24 -41 5 -62
-51 -58 -38 3 -41 5 -39 31 2 25 -1 26 -25 20 -15 -3 -45 -18 -66 -32 -34 -22
-52 -26 -142 -29 -111 -5 -158 2 -152 20 2 6 20 17 39 23 19 7 34 16 34 21 0
8 -126 20 -247 23 -55 1 -63 19 -22 46 22 14 30 15 50 5 17 -10 33 -10 68 -1
54 13 195 15 230 2 14 -6 26 -19 28 -33 3 -20 10 -23 49 -26 59 -4 106 13 90
32 -7 8 -23 17 -36 20 -39 10 -31 40 18 69 24 14 50 33 57 42 9 11 16 13 24 5
5 -5 18 -10 27 -10z m-1190 -6 c17 -15 16 -18 -18 -62 -19 -26 -41 -50 -48
-54 -19 -11 -89 -25 -102 -21 -16 6 -17 49 -2 59 6 3 17 22 25 41 8 18 25 38
37 43 35 14 89 11 108 -6z m404 -26 l36 -31 -20 -21 c-29 -28 -134 -31 -139
-3 -4 18 57 87 77 87 6 0 26 -14 46 -32z m1805 24 c0 -28 -103 -151 -156 -187
-37 -25 -74 -33 -74 -16 0 12 208 211 220 211 6 0 10 -4 10 -8z m-1384 -13
c10 -17 -13 -36 -27 -22 -12 12 -4 33 11 33 5 0 12 -5 16 -11z m-318 -32 c2
-12 -3 -17 -17 -17 -12 0 -21 6 -21 13 0 31 32 34 38 4z m1102 -28 c5 -33 6
-34 50 -31 59 3 90 -5 90 -23 0 -22 -45 -41 -136 -58 -151 -28 -203 -68 -104
-80 28 -3 60 -13 72 -22 26 -17 84 -20 124 -5 32 13 22 27 -21 32 -47 5 -32
21 45 46 77 26 94 24 65 -9 -17 -17 -17 -22 -5 -29 21 -14 46 -12 87 5 43 18
53 19 53 3 0 -24 -43 -58 -75 -58 -17 0 -40 -7 -52 -15 -14 -10 -67 -19 -155
-25 -109 -9 -142 -15 -182 -36 -28 -14 -75 -27 -110 -30 -39 -4 -73 -15 -96
-30 -19 -12 -48 -28 -64 -34 -34 -13 -234 -29 -358 -30 -48 0 -90 -4 -93 -10
-9 -15 -68 -13 -63 3 10 31 73 45 238 55 153 9 170 12 230 40 36 17 97 40 135
52 39 12 77 24 85 27 10 3 4 10 -20 23 -46 25 -73 25 -95 0 -11 -12 -31 -20
-50 -20 -21 0 -46 -11 -70 -30 -56 -44 -90 -50 -315 -57 l-205 -6 -32 -27
c-36 -32 -84 -46 -109 -32 -23 13 -46 80 -30 90 6 4 61 7 121 8 137 1 190 14
210 54 8 16 15 36 15 45 0 13 21 15 143 15 79 0 147 -3 151 -7 4 -5 -23 -13
-61 -19 -65 -10 -67 -11 -40 -22 40 -17 112 -15 127 3 7 8 9 15 4 15 -32 2
109 40 146 40 25 0 57 6 71 14 14 7 37 16 51 19 38 10 94 65 80 79 -9 9 -24 6
-61 -12 -66 -30 -85 -23 -78 32 9 65 23 73 130 73 55 0 100 5 112 12 29 18 39
11 45 -28z m320 8 c0 -27 -82 -77 -125 -77 -37 0 3 58 55 79 36 14 70 13 70
-2z m315 -16 c7 -12 -12 -24 -25 -16 -11 7 -4 25 10 25 5 0 11 -4 15 -9z
m-1785 -47 c0 -17 -22 -14 -28 4 -2 7 3 12 12 12 9 0 16 -7 16 -16z m-114 -29
c3 -8 14 -17 25 -20 23 -8 25 -38 3 -59 -20 -21 -64 -21 -64 -1 0 8 4 15 9 15
5 0 12 7 15 15 4 11 -3 19 -19 25 -25 9 -31 21 -18 33 12 12 44 7 49 -8z m321
-40 c7 -20 3 -23 -36 -35 -36 -10 -53 9 -31 35 16 20 59 19 67 0z m1459 -36
c-34 -39 -33 -49 4 -49 17 0 30 -3 30 -8 0 -22 -57 -85 -109 -120 -73 -49
-155 -77 -297 -103 -59 -10 -125 -27 -148 -38 -90 -41 -115 -50 -160 -56 -91
-14 -38 34 84 77 70 24 18 40 -102 31 -77 -5 -88 -4 -88 10 0 11 12 18 38 22
20 4 51 9 67 12 17 3 64 20 105 38 56 24 98 34 160 40 78 6 98 13 228 76 79
37 157 80 175 95 39 33 48 15 13 -27z m-1616 31 c0 -6 -14 -35 -30 -64 -27
-47 -35 -54 -65 -58 -34 -4 -46 4 -24 18 6 3 26 30 45 60 23 35 41 54 54 54
11 0 20 -5 20 -10z m-260 -54 c0 -18 -38 -46 -62 -46 -31 0 -29 19 4 40 39 24
58 25 58 6z m327 -50 c-9 -24 -57 -21 -57 4 0 27 31 43 49 25 7 -7 11 -21 8
-29z m133 4 c0 -10 -9 -24 -19 -30 -24 -12 -32 -12 -51 0 -12 7 -12 12 4 29
25 28 66 28 66 1z m-590 0 c13 -9 12 -12 -5 -26 -23 -17 -66 -15 -73 4 -2 6 7
16 20 21 30 13 40 13 58 1z m2117 -27 c-12 -46 -12 -48 16 -51 15 -2 27 -9 27
-17 0 -16 -38 -55 -53 -55 -5 0 -28 -20 -51 -45 -41 -45 -146 -115 -173 -115
-7 0 -16 -6 -19 -14 -3 -8 -19 -19 -35 -25 -31 -11 -40 -31 -13 -31 8 0 32 9
52 19 123 64 264 131 276 131 26 0 29 -21 5 -46 -32 -34 -126 -85 -248 -133
-57 -23 -121 -51 -142 -61 -48 -25 -59 -25 -59 0 0 12 16 30 42 46 51 33 35
47 -35 32 -53 -11 -67 -6 -51 20 12 18 73 45 142 62 23 6 42 15 42 20 0 15
-85 12 -122 -4 -38 -16 -97 -32 -184 -50 -34 -7 -67 -17 -75 -21 -7 -5 -37
-12 -66 -16 -29 -4 -73 -17 -98 -29 -51 -25 -108 -24 -113 2 -4 19 54 40 89
31 11 -3 42 3 67 15 103 45 210 80 262 86 50 7 122 34 265 101 28 13 60 27 72
30 12 3 52 35 90 70 68 64 100 81 90 48z m-1937 -24 c0 -15 -117 -66 -179 -77
-42 -8 -54 -7 -58 4 -10 27 6 42 54 49 26 3 59 13 73 20 29 17 110 20 110 4z
m85 -68 c8 -13 -35 -41 -62 -41 -22 0 -71 -18 -127 -48 -35 -18 -170 -29 -180
-14 -9 15 40 30 119 36 57 5 73 10 92 31 13 13 34 27 46 29 12 3 31 7 42 9 37
8 64 7 70 -2z m-40 -111 c0 -22 -134 -86 -197 -93 -47 -6 -57 -4 -62 10 -9 23
0 28 68 42 33 6 78 22 100 36 44 27 91 29 91 5z m895 -5 c0 -21 -5 -25 -30
-25 -16 0 -51 -8 -77 -19 -86 -33 -270 -38 -260 -7 7 20 91 45 157 46 36 0 94
7 130 14 36 8 68 14 73 15 4 0 7 -10 7 -24z m-656 -14 c9 -14 -93 -53 -120
-47 -28 7 -31 31 -6 45 21 13 119 14 126 2z m1952 -135 c-16 -38 -33 -46 -42
-21 -5 13 3 40 43 140 5 15 8 6 11 -32 2 -30 -3 -66 -12 -87z m-1741 104 c8
-13 -40 -24 -72 -15 -26 7 -26 8 -8 15 28 12 73 12 80 0z m-822 -35 c56 -54
47 -92 -17 -74 -37 11 -55 36 -56 77 0 44 26 43 73 -3z m425 6 c25 -15 9 -46
-25 -49 -36 -4 -77 14 -67 29 14 23 69 35 92 20z m180 -21 c20 -10 49 -22 65
-25 30 -6 35 -26 12 -45 -12 -10 -23 -9 -55 4 -22 9 -52 16 -66 16 -29 0 -40
21 -24 49 13 26 21 26 68 1z m232 -34 c0 -17 -37 -46 -58 -46 -19 0 -26 28
-12 45 16 20 70 20 70 1z m207 -3 c4 -10 -53 -33 -83 -33 -20 0 -47 27 -40 39
10 16 118 10 123 -6z m1263 3 c0 -49 -263 -176 -365 -176 -63 0 -40 26 58 64
50 20 130 57 177 81 88 45 130 56 130 31z m-1793 -72 c5 -16 -63 -27 -85 -15
-15 9 -14 11 8 20 31 13 72 10 77 -5z m490 -30 c4 -11 -1 -22 -12 -30 -24 -17
-27 -17 -51 1 -19 15 -19 15 0 30 26 20 55 19 63 -1z m-149 -3 c21 -13 -10
-21 -84 -21 -60 0 -86 13 -46 23 30 8 117 7 130 -2z m592 -6 c10 -12 7 -17
-14 -27 -22 -9 -29 -9 -43 4 -8 9 -12 21 -9 27 10 16 51 13 66 -4z m240 0 c0
-14 -48 -45 -70 -45 -15 0 -12 21 7 42 20 22 63 24 63 3z m-150 -5 c0 -5 -4
-10 -10 -10 -5 0 -10 5 -10 10 0 6 5 10 10 10 6 0 10 -4 10 -10z m225 -20 c-5
-8 -11 -8 -17 -2 -6 6 -7 16 -3 22 5 8 11 8 17 2 6 -6 7 -16 3 -22z m495 16
c0 -21 -39 -46 -70 -46 -25 1 -25 1 10 30 37 33 60 38 60 16z m-1620 -5 c0
-17 -46 -76 -63 -79 -27 -5 -20 19 15 55 32 33 48 41 48 24z m2020 -30 c14
-27 13 -64 -4 -86 -14 -19 -15 -19 -35 -1 -35 32 -24 106 16 106 7 0 17 -9 23
-19z m-2183 -7 c5 -16 -26 -46 -45 -42 -22 4 -25 23 -6 42 18 18 45 18 51 0z
m2029 -52 c-15 -15 -16 -14 -16 14 0 16 6 36 13 43 10 10 13 7 15 -15 2 -15
-3 -34 -12 -42z m-913 32 c11 -11 -5 -34 -24 -34 -18 0 -26 20 -12 33 8 9 28
9 36 1z m297 -8 c0 -20 -24 -26 -78 -20 -74 8 -93 14 -87 24 3 6 42 10 86 10
61 0 79 -3 79 -14z m-855 -6 c3 -5 -10 -19 -29 -31 -20 -12 -33 -25 -30 -30 3
-5 36 -6 74 -3 61 6 70 5 76 -11 5 -12 0 -24 -14 -36 -17 -13 -50 -18 -149
-23 -71 -4 -161 -9 -200 -12 -62 -5 -73 -3 -73 10 0 14 81 46 117 46 8 0 36 9
63 21 36 15 51 29 59 50 9 26 14 29 55 29 25 0 48 -4 51 -10z m-200 -25 c0
-18 -8 -20 -62 -23 -49 -2 -63 0 -63 11 0 17 54 36 95 34 23 -2 30 -7 30 -22z
m613 -16 c3 -19 -43 -39 -89 -39 -24 0 -29 4 -29 24 0 30 12 35 70 33 33 -1
46 -6 48 -18z m-1060 -31 c-5 -15 -48 -24 -48 -10 0 14 12 22 33 22 10 0 17
-5 15 -12z m210 3 c8 -4 12 -19 10 -32 -3 -21 -9 -24 -47 -27 -24 -2 -49 -1
-57 2 -19 7 -6 34 25 51 30 16 50 18 69 6z m1002 -1 c0 -5 -5 -10 -11 -10 -5
0 -7 5 -4 10 3 6 8 10 11 10 2 0 4 -4 4 -10z m130 -45 c0 -8 -9 -15 -20 -15
-20 0 -26 11 -13 23 12 13 33 7 33 -8z m-277 -40 c-1 -5 -8 -14 -17 -20 -18
-11 -42 7 -31 25 8 13 51 9 48 -5z m-987 -27 c4 -6 -4 -21 -21 -34 -18 -14
-29 -33 -30 -54 -3 -36 -27 -66 -44 -56 -15 10 -13 47 4 70 8 11 15 28 15 37
0 19 35 49 57 49 6 0 15 -5 19 -12z m651 -4 c6 -18 -19 -23 -170 -39 -169 -18
-211 -19 -201 -4 9 15 71 41 119 50 63 11 248 6 252 -7z m460 -28 c-4 -9 -11
-16 -17 -16 -11 0 -14 33 -3 44 11 10 26 -11 20 -28z m-468 -52 c8 -7 -25 -38
-55 -50 -22 -9 -59 -12 -120 -8 -164 9 -191 20 -91 35 28 5 86 15 127 23 65
12 125 12 139 0z m1554 10 c9 -10 -4 -34 -19 -34 -8 0 -14 6 -14 13 0 22 19
35 33 21z m-3096 -47 c4 -4 2 -17 -5 -28 -7 -11 -10 -24 -7 -29 3 -6 51 -7
113 -4 105 5 142 -2 128 -25 -8 -12 -358 -16 -370 -4 -4 4 3 15 16 25 20 15
21 19 8 28 -8 5 -20 8 -27 5 -6 -2 -38 -7 -70 -10 -49 -6 -61 -4 -73 10 -13
15 -12 19 5 32 16 12 46 14 147 11 70 -2 130 -7 135 -11z m678 -16 c12 -20
-27 -40 -92 -45 -38 -4 -95 -11 -128 -17 -92 -16 -175 -22 -175 -12 0 5 12 20
26 34 24 22 35 24 180 30 85 3 157 9 161 13 9 9 21 8 28 -3z m1175 -16 c0 -22
-47 -42 -62 -27 -8 8 -8 15 2 27 16 20 60 20 60 0z m-363 -42 c6 -17 -50 -31
-153 -38 -66 -5 -94 -4 -99 5 -19 30 48 49 169 47 50 -1 81 -6 83 -14z m-457
-33 c5 0 17 -9 27 -19 12 -12 35 -21 63 -23 37 -2 45 -6 45 -23 0 -26 -51 -44
-126 -44 -69 -1 -84 -15 -64 -55 8 -16 15 -30 15 -32 0 -2 -65 -4 -145 -4 -81
0 -145 4 -145 9 0 13 56 46 103 61 40 13 44 20 25 51 -11 17 -10 22 12 39 41
33 72 36 88 12 19 -29 42 -28 42 2 0 25 15 37 38 30 8 -2 18 -4 22 -4z m-325
-20 c0 -9 -11 -16 -27 -18 -30 -4 -36 6 -16 26 16 16 43 11 43 -8z m1014 -19
c11 -7 9 -11 -9 -21 -28 -15 -85 4 -59 21 18 11 50 11 68 0z m-309 -39 c0 -14
-48 -33 -55 -22 -4 6 -3 15 0 20 7 12 55 13 55 2z m934 -13 c-18 -30 -164 -56
-164 -29 0 6 15 10 33 10 17 1 46 7 62 15 37 17 79 19 69 4z m-1757 -45 c4
-13 -23 -44 -38 -44 -16 0 -22 29 -9 46 14 16 41 15 47 -2z m-3142 -29 c0 -11
-59 -19 -82 -11 -8 3 -11 11 -8 16 8 14 90 9 90 -5z m3745 0 c0 -24 -51 -41
-107 -36 -19 2 -3 31 21 41 36 15 86 12 86 -5z m698 -4 c17 -10 -4 -29 -38
-33 -31 -4 -37 20 -8 31 29 12 30 12 46 2z m-4268 -41 c103 -22 113 -25 124
-42 5 -9 8 -20 4 -23 -10 -11 -171 16 -215 35 -42 18 -51 29 -36 44 8 8 28 5
123 -14z m1797 -25 c8 -22 -2 -28 -44 -27 -43 2 -65 18 -43 32 24 16 80 12 87
-5z m2783 -5 c0 -5 -7 -10 -16 -10 -8 0 -12 5 -9 10 3 6 10 10 16 10 5 0 9 -4
9 -10z m-2066 -45 c25 -19 93 -19 129 -1 26 14 27 14 27 -9 0 -29 -33 -54 -84
-62 -29 -5 -39 -1 -55 18 l-19 23 -54 -19 c-63 -21 -91 -16 -86 17 6 43 100
64 142 33z m661 -4 c0 -17 -37 -32 -55 -21 -7 4 -10 15 -7 25 8 20 62 17 62
-4z m354 10 c11 -7 9 -11 -8 -20 -26 -14 -269 -46 -278 -37 -11 10 19 34 62
50 44 16 202 21 224 7z m-541 -26 c4 -19 -13 -35 -40 -35 -11 0 -18 8 -18 20
0 20 27 42 45 36 6 -1 12 -11 13 -21z m-2928 -35 c0 -5 -4 -10 -10 -10 -5 0
-10 5 -10 10 0 6 5 10 10 10 6 0 10 -4 10 -10z m3400 -59 c0 -11 -26 -22 -34
-14 -12 12 -5 23 14 23 11 0 20 -4 20 -9z m-3130 -31 c0 -5 -4 -10 -10 -10 -5
0 -10 5 -10 10 0 6 5 10 10 10 6 0 10 -4 10 -10z m2004 -79 c18 -7 18 -8 -5
-14 -32 -9 -83 -9 -106 0 -16 6 -15 8 7 14 33 9 81 9 104 0z m706 -31 c0 -17
-7 -20 -49 -20 -28 0 -53 5 -56 10 -3 6 4 10 17 10 13 0 30 5 38 10 26 17 50
12 50 -10z"/>
<path d="M616 9034 c-13 -35 -2 -99 15 -88 12 7 12 104 0 104 -5 0 -12 -7 -15
-16z"/>
<path d="M8460 5470 c0 -16 5 -30 10 -30 6 0 10 14 10 30 0 17 -4 30 -10 30
-5 0 -10 -13 -10 -30z"/>
<path d="M8435 5384 c-11 -11 -13 -20 -6 -27 12 -12 41 8 41 29 0 19 -15 18
-35 -2z"/>
<path d="M8167 4650 c-19 -27 -22 -50 -7 -50 13 0 32 38 28 58 -3 14 -6 13
-21 -8z"/>
<path d="M6754 2000 c-30 -12 -40 -30 -17 -30 23 0 59 25 47 32 -5 3 -19 2
-30 -2z"/>
<path d="M6045 1800 c-4 -6 7 -10 25 -10 18 0 29 4 25 10 -3 6 -15 10 -25 10
-10 0 -22 -4 -25 -10z"/>
<path d="M7241 1793 c-5 -10 -46 -31 -90 -48 -45 -16 -81 -33 -81 -37 0 -12
55 -9 67 3 7 7 40 26 75 43 60 30 86 56 54 56 -8 0 -20 -8 -25 -17z"/>
<path d="M6910 1678 c-77 -24 -97 -37 -78 -50 15 -10 59 -2 96 18 15 8 37 14
49 14 12 0 34 5 50 11 22 8 24 12 13 19 -22 14 -58 11 -130 -12z"/>
<path d="M7810 11371 c0 -13 69 -65 76 -59 6 7 -54 68 -67 68 -5 0 -9 -4 -9
-9z"/>
<path d="M7015 11360 c-9 -14 37 -31 50 -19 6 7 5 13 -5 19 -20 13 -37 12 -45
0z"/>
<path d="M7910 11274 c0 -4 19 -26 43 -49 23 -23 53 -57 67 -75 32 -44 38 -22
7 27 -34 54 -82 103 -101 103 -9 0 -16 -3 -16 -6z"/>
<path d="M8100 11067 c0 -22 31 -57 51 -57 24 0 24 11 -2 44 -22 27 -49 35
-49 13z"/>
<path d="M1127 10970 c-64 -69 -106 -178 -80 -203 13 -13 52 36 69 86 9 27 27
66 40 85 24 35 32 72 15 72 -5 0 -25 -18 -44 -40z"/>
<path d="M8200 10988 c1 -27 40 -100 52 -96 32 11 11 75 -32 98 -15 8 -20 8
-20 -2z"/>
<path d="M7070 10630 c0 -5 16 -10 36 -10 21 0 33 4 29 10 -3 6 -19 10 -36 10
-16 0 -29 -4 -29 -10z"/>
<path d="M924 10593 c-19 -19 -74 -131 -74 -150 0 -7 4 -13 9 -13 15 0 61 60
67 88 4 15 13 36 20 47 28 39 11 61 -22 28z"/>
<path d="M1350 10600 c0 -5 5 -10 10 -10 6 0 10 5 10 10 0 6 -4 10 -10 10 -5
0 -10 -4 -10 -10z"/>
<path d="M1231 10464 c-68 -69 -96 -133 -69 -160 12 -13 20 -14 37 -5 24 13
24 15 25 90 1 52 2 54 35 66 42 14 61 39 43 57 -9 9 -25 -1 -71 -48z"/>
<path d="M7783 10493 c-32 -12 -3 -63 45 -77 19 -6 22 -4 22 18 0 14 -9 35
-20 46 -21 21 -26 22 -47 13z"/>
<path d="M6965 10479 c-4 -6 -5 -12 -4 -14 5 -4 48 -7 84 -6 29 2 29 2 11 16
-23 17 -82 20 -91 4z"/>
<path d="M8056 10468 c-3 -13 -6 -54 -6 -93 0 -54 5 -77 21 -100 43 -64 81
-151 95 -219 9 -39 22 -81 30 -93 20 -31 18 -61 -6 -75 -31 -20 -24 -39 30
-93 53 -53 59 -72 34 -110 -16 -24 -15 -26 16 -61 28 -33 50 -73 50 -93 0 -4
-9 -17 -21 -30 l-21 -22 27 -39 c30 -43 28 -70 -5 -70 -37 0 -35 -29 3 -68
l37 -38 -6 -69 c-5 -49 -12 -76 -26 -92 -20 -21 -20 -21 1 -50 25 -34 38 -121
22 -151 -6 -11 -25 -23 -42 -27 l-31 -7 52 -48 c29 -27 49 -53 46 -59 -4 -6
-25 -11 -47 -11 -46 0 -49 -11 -14 -52 31 -37 31 -48 0 -48 -17 0 -45 20 -91
65 -55 54 -64 68 -54 80 7 8 21 15 32 15 25 0 19 18 -15 44 -16 11 -48 21 -82
24 l-55 4 0 69 c0 50 4 69 13 69 12 0 81 -39 150 -84 30 -20 33 -14 12 24 -19
33 -19 67 1 78 14 8 11 16 -21 61 -34 47 -67 71 -96 71 -20 0 -7 -28 27 -58
39 -35 42 -65 6 -70 -16 -3 -38 12 -77 50 -29 29 -63 61 -75 71 -11 10 -23 31
-26 47 -4 16 -18 37 -31 46 -27 17 -27 26 -7 153 6 36 4 46 -11 57 -16 12 -23
11 -50 -6 -31 -19 -33 -19 -49 -1 -16 17 -15 19 14 31 39 16 60 46 60 86 0 17
7 37 15 44 17 14 19 42 6 68 -5 9 -12 24 -14 33 -4 13 -13 15 -44 9 -57 -10
-63 -15 -51 -48 9 -22 5 -46 -16 -122 -15 -52 -34 -105 -42 -117 -8 -14 -10
-24 -4 -28 6 -3 10 -17 10 -31 0 -13 15 -41 35 -63 19 -21 35 -41 35 -44 0 -2
-18 -27 -40 -53 -22 -27 -40 -54 -40 -61 0 -7 15 -16 33 -21 29 -8 32 -12 30
-43 -1 -19 -5 -49 -9 -68 -6 -29 -3 -38 18 -55 13 -12 37 -38 52 -59 16 -22
42 -43 57 -49 32 -11 54 -42 43 -59 -4 -6 -20 -8 -40 -4 -49 9 -44 -12 16 -69
38 -36 54 -60 65 -100 9 -30 25 -62 36 -72 11 -10 26 -32 33 -49 16 -37 99
-115 123 -115 25 0 83 -37 83 -53 0 -7 -14 -24 -31 -36 -28 -21 -31 -27 -26
-63 3 -22 18 -58 34 -81 15 -23 39 -63 53 -88 14 -26 41 -73 60 -105 30 -51
35 -55 40 -36 3 12 1 84 -4 159 -7 99 -6 140 2 154 15 24 15 52 0 67 -17 17
-13 118 6 164 9 21 16 65 16 98 0 37 8 83 21 118 14 39 23 91 26 165 3 59 9
110 14 112 4 3 20 -21 36 -52 21 -43 29 -77 32 -131 l3 -73 42 3 c38 3 41 5
40 33 -2 117 -49 426 -73 480 -5 11 -32 47 -60 80 -28 32 -51 65 -51 72 0 26
31 26 53 1 12 -14 34 -32 50 -42 15 -9 37 -32 50 -51 12 -19 28 -35 35 -35 16
0 15 12 -2 47 -8 15 -26 69 -41 118 -30 104 -57 143 -139 200 -67 46 -79 63
-78 115 1 23 -6 44 -14 51 -21 17 -49 74 -91 182 -29 75 -33 95 -24 115 10 22
6 29 -47 80 -67 64 -77 90 -91 215 -6 48 -13 92 -16 97 -10 17 -22 11 -29 -12z
m414 -948 c0 -21 -15 -27 -25 -10 -7 12 2 30 16 30 5 0 9 -9 9 -20z m46 -435
c3 -8 3 -19 0 -24 -10 -16 -36 -1 -36 20 0 22 28 26 36 4z m-536 1 c0 -11 -19
-15 -25 -6 -3 5 1 10 9 10 9 0 16 -2 16 -4z m-24 -61 c4 -8 0 -22 -7 -31 -11
-13 -14 -13 -27 0 -17 17 -9 46 13 46 9 0 18 -7 21 -15z m151 -258 c-2 -7 -13
-13 -25 -15 -26 -4 -42 26 -21 38 16 11 52 -7 46 -23z m93 -121 c25 -27 21
-56 -6 -56 -26 0 -54 30 -54 57 0 31 30 30 60 -1z m118 -113 c3 -18 -2 -23
-17 -23 -21 0 -45 32 -34 44 15 15 48 0 51 -21z m-133 1 c27 -18 34 -54 11
-54 -15 0 -56 45 -56 61 0 14 18 11 45 -7z"/>
<path d="M7456 10403 c-11 -11 -6 -23 9 -23 8 0 15 4 15 9 0 13 -16 22 -24 14z"/>
<path d="M7930 10300 c0 -13 48 -36 57 -26 9 8 -6 22 -34 31 -14 4 -23 2 -23
-5z"/>
<path d="M7501 10274 c0 -11 3 -14 6 -6 3 7 2 16 -1 19 -3 4 -6 -2 -5 -13z"/>
<path d="M7180 10241 c0 -12 45 -22 64 -15 29 11 16 24 -24 24 -22 0 -40 -4
-40 -9z"/>
<path d="M7730 10176 c0 -9 5 -16 10 -16 6 0 10 4 10 9 0 6 -4 13 -10 16 -5 3
-10 -1 -10 -9z"/>
<path d="M7880 10119 c-17 -31 -5 -49 34 -49 45 0 54 16 25 46 -28 29 -45 30
-59 3z"/>
<path d="M7773 10091 c7 -54 12 -59 37 -36 28 25 25 38 -12 59 l-31 19 6 -42z"/>
<path d="M8030 10100 c0 -12 7 -32 16 -45 13 -20 20 -23 35 -14 26 14 24 34
-7 58 -33 26 -44 26 -44 1z"/>
<path d="M8490 10036 c0 -46 12 -51 49 -20 25 21 29 29 20 40 -6 8 -24 14 -40
14 -26 0 -29 -3 -29 -34z"/>
<path d="M8390 10006 c0 -10 9 -16 21 -16 24 0 21 23 -4 28 -10 2 -17 -3 -17
-12z"/>
<path d="M1242 9988 c-14 -14 -16 -77 -3 -97 16 -25 31 -1 31 49 0 51 -9 67
-28 48z"/>
<path d="M967 9972 c-21 -22 -34 -82 -19 -82 6 0 14 5 17 10 9 15 35 12 35 -4
0 -16 27 -29 41 -20 15 9 10 22 -11 29 -16 5 -20 15 -20 46 0 43 -16 51 -43
21z"/>
<path d="M7582 9954 c-19 -20 -31 -38 -27 -42 9 -10 207 -4 217 6 11 11 -106
72 -135 71 -12 0 -37 -16 -55 -35z"/>
<path d="M7846 9974 c-3 -9 -6 -24 -6 -34 0 -9 -7 -23 -15 -30 -8 -7 -15 -24
-15 -39 0 -15 -5 -32 -12 -39 -9 -9 -7 -13 8 -17 10 -4 33 -13 51 -22 40 -20
49 -13 56 39 9 75 22 98 57 98 40 0 31 16 -24 41 -51 23 -92 24 -100 3z"/>
<path d="M7420 9941 c0 -5 5 -13 10 -16 6 -3 10 -2 10 4 0 5 -4 13 -10 16 -5
3 -10 2 -10 -4z"/>
<path d="M8496 9904 c-13 -35 -6 -106 15 -135 11 -16 23 -29 27 -29 14 0 7
146 -7 163 -17 21 -27 21 -35 1z"/>
<path d="M8040 9865 c0 -16 27 -32 37 -21 7 7 -16 36 -28 36 -5 0 -9 -7 -9
-15z"/>
<path d="M7665 9839 c-8 -35 -4 -42 18 -34 27 11 29 65 2 65 -7 0 -16 -14 -20
-31z"/>
<path d="M986 9828 c-21 -29 -21 -87 0 -95 24 -9 38 13 38 63 1 53 -14 66 -38
32z"/>
<path d="M8116 9812 c-3 -6 -1 -14 5 -17 15 -10 25 3 12 16 -7 7 -13 7 -17 1z"/>
<path d="M1266 9719 c-16 -28 -17 -36 -5 -71 11 -34 10 -46 -6 -94 -10 -30
-15 -57 -12 -61 12 -11 69 50 89 96 23 50 19 95 -13 135 -26 33 -31 33 -53 -5z"/>
<path d="M8043 9713 c-4 -11 3 -24 23 -40 16 -12 32 -23 37 -23 12 0 8 55 -5
68 -17 17 -48 15 -55 -5z"/>
<path d="M7989 9657 c-7 -16 -20 -27 -31 -27 -15 0 -18 -5 -13 -22 16 -52 55
-88 97 -88 20 0 2 120 -21 143 l-20 20 -12 -26z"/>
<path d="M8595 9548 c4 -13 14 -34 24 -48 l16 -25 3 27 c4 33 -13 68 -34 68
-11 0 -14 -6 -9 -22z"/>
<path d="M1090 9530 c-13 -24 -9 -129 5 -133 16 -4 39 55 39 103 1 34 -3 45
-16 48 -9 2 -22 -6 -28 -18z"/>
<path d="M1505 9499 c-37 -33 -38 -49 -1 -49 28 0 42 15 51 53 9 36 -5 35 -50
-4z"/>
<path d="M7902 9503 c4 -23 69 -56 82 -43 14 14 -33 60 -61 60 -18 0 -24 -5
-21 -17z"/>
<path d="M1990 9435 l-25 -14 32 -1 c37 0 63 8 63 21 0 14 -42 10 -70 -6z"/>
<path d="M7400 9440 c0 -5 5 -10 11 -10 5 0 7 5 4 10 -3 6 -8 10 -11 10 -2 0
-4 -4 -4 -10z"/>
<path d="M8150 9415 c-11 -28 -37 -32 -89 -14 -86 30 -22 -38 67 -71 62 -23
82 -26 64 -8 -18 18 -14 48 9 67 20 16 20 18 4 34 -23 24 -44 21 -55 -8z"/>
<path d="M1276 9414 c-4 -10 -2 -22 3 -27 7 -7 13 -5 17 7 4 10 2 22 -3 27 -7
7 -13 5 -17 -7z"/>
<path d="M1425 9361 c-6 -11 9 -23 19 -14 9 9 7 23 -3 23 -6 0 -12 -4 -16 -9z"/>
<path d="M1028 9244 c-26 -60 -29 -132 -6 -147 27 -18 35 0 43 101 8 106 -4
120 -37 46z"/>
<path d="M8145 9210 c-9 -15 4 -30 25 -30 27 0 34 17 11 29 -24 13 -28 14 -36
1z"/>
<path d="M2580 9199 c0 -5 5 -7 10 -4 6 3 10 8 10 11 0 2 -4 4 -10 4 -5 0 -10
-5 -10 -11z"/>
<path d="M8685 8969 c-9 -14 5 -209 15 -209 10 0 20 49 27 143 6 73 5 77 -15
77 -11 0 -24 -5 -27 -11z"/>
<path d="M8230 8896 c0 -9 5 -16 10 -16 6 0 10 4 10 9 0 6 -4 13 -10 16 -5 3
-10 -1 -10 -9z"/>
<path d="M6894 8366 c-19 -14 -19 -15 2 -43 16 -21 30 -28 54 -28 44 0 48 18
12 55 -35 34 -41 36 -68 16z"/>
<path d="M1853 8213 c-18 -6 -16 -23 1 -23 17 0 30 16 19 23 -5 2 -14 2 -20 0z"/>
<path d="M2122 8125 c-17 -14 -44 -28 -61 -31 -17 -4 -28 -10 -25 -15 7 -12
151 -11 159 1 7 11 -24 70 -36 70 -4 0 -21 -11 -37 -25z"/>
<path d="M2293 8120 c-13 -5 -23 -16 -23 -24 0 -24 36 -37 93 -34 50 3 52 4
52 33 0 29 -2 30 -50 32 -27 1 -60 -2 -72 -7z"/>
<path d="M2591 8114 c-119 -26 -190 -85 -111 -92 42 -4 210 47 218 67 5 12
-23 43 -37 40 -3 -1 -35 -7 -70 -15z"/>
<path d="M1790 8080 c0 -5 7 -10 15 -10 8 0 15 5 15 10 0 6 -7 10 -15 10 -8 0
-15 -4 -15 -10z"/>
<path d="M5865 8048 c-57 -10 -70 -20 -61 -43 5 -15 8 -15 28 -1 12 9 30 16
38 16 18 0 58 26 50 32 -3 3 -27 0 -55 -4z"/>
<path d="M1138 8033 c7 -3 16 -2 19 1 4 3 -2 6 -13 5 -11 0 -14 -3 -6 -6z"/>
<path d="M1044 8005 c-16 -12 -17 -14 -2 -15 23 0 48 11 48 21 0 14 -24 11
-46 -6z"/>
<path d="M1342 7964 c-26 -18 -29 -44 -4 -44 24 0 62 28 62 46 0 19 -30 18
-58 -2z"/>
<path d="M4274 7746 c-22 -17 -11 -35 13 -20 19 12 29 34 16 34 -5 0 -18 -6
-29 -14z"/>
<path d="M3644 7609 c-24 -27 -11 -35 78 -43 100 -9 118 8 45 43 -55 27 -99
27 -123 0z"/>
<path d="M4605 7620 c28 -12 67 -12 60 0 -3 6 -23 10 -43 9 -30 0 -33 -2 -17
-9z"/>
<path d="M4865 7620 c-3 -5 3 -10 14 -10 12 0 21 5 21 10 0 6 -6 10 -14 10 -8
0 -18 -4 -21 -10z"/>
<path d="M4750 7610 c0 -5 14 -10 30 -10 17 0 30 5 30 10 0 6 -13 10 -30 10
-16 0 -30 -4 -30 -10z"/>
<path d="M4028 7590 c-14 -10 -50 -29 -81 -40 -30 -11 -60 -27 -67 -35 -6 -8
-33 -21 -60 -30 -46 -15 -79 -40 -68 -51 12 -11 152 27 194 53 89 54 156 123
121 123 -8 0 -26 -9 -39 -20z"/>
<path d="M4407 7528 c-56 -33 -66 -95 -12 -70 36 16 65 15 86 -4 14 -12 25
-14 45 -7 40 13 40 26 -3 67 -44 41 -64 44 -116 14z"/>
<path d="M4614 7516 c-10 -8 -16 -17 -12 -21 8 -8 48 13 48 25 0 14 -13 12
-36 -4z"/>
<path d="M4140 7351 c-12 -23 -13 -81 -2 -98 5 -8 22 6 50 43 l42 54 -26 10
c-37 15 -52 12 -64 -9z"/>
<path d="M4151 7162 c-19 -44 -7 -171 14 -150 3 3 5 45 3 94 -3 86 -3 88 -17
56z"/>
<path d="M4455 7028 c-3 -7 -6 -29 -7 -48 -3 -29 0 -35 17 -35 22 0 31 30 21
71 -7 26 -24 32 -31 12z"/>
<path d="M4142 6935 c-14 -31 -16 -75 -3 -75 14 0 19 12 27 58 7 47 -6 56 -24
17z"/>
<path d="M4980 6864 c-11 -29 -5 -80 10 -89 11 -6 57 62 62 91 2 15 -4 20 -30
22 -27 3 -34 -1 -42 -24z"/>
<path d="M4130 6750 c0 -89 -20 -187 -56 -289 -22 -61 -40 -87 -95 -146 -70
-73 -119 -158 -119 -206 0 -15 -16 -49 -35 -75 -19 -27 -55 -79 -80 -117 -25
-37 -78 -102 -118 -145 -108 -113 -127 -145 -127 -213 0 -41 4 -58 15 -63 23
-8 18 -41 -20 -151 -38 -108 -74 -324 -72 -430 0 -35 -6 -77 -16 -101 -20 -51
-10 -94 29 -135 26 -27 26 -30 20 -111 -6 -83 -6 -83 32 -153 21 -38 45 -70
52 -70 22 0 31 55 18 115 -12 58 -2 130 18 137 6 2 28 -18 48 -44 20 -26 74
-80 119 -120 183 -161 254 -195 363 -173 51 11 66 20 135 86 74 70 161 124
201 124 60 0 126 -56 99 -83 -11 -11 -16 -67 -6 -67 3 0 19 10 35 22 26 19 34
20 67 10 25 -8 44 -22 55 -41 14 -25 24 -30 70 -36 62 -8 204 7 281 29 29 9
64 18 78 20 33 7 144 137 193 228 20 36 43 72 51 78 22 18 31 -14 17 -64 -12
-45 -10 -51 13 -42 25 9 35 51 43 192 7 117 11 137 30 157 l22 23 -20 39 c-11
22 -20 46 -20 55 0 8 -9 29 -20 45 -16 24 -20 47 -20 114 0 80 -2 88 -55 200
-42 90 -55 128 -55 164 0 49 -24 87 -55 87 -22 0 -42 39 -54 104 -8 41 -8 63
-1 70 18 18 43 -7 62 -59 19 -55 29 -66 36 -45 8 23 74 80 93 80 9 0 22 7 29
15 17 20 -15 85 -73 148 -47 50 -77 61 -77 26 0 -32 -17 -55 -50 -69 -22 -9
-33 -22 -37 -42 -8 -39 -14 -41 -54 -14 -36 25 -111 147 -148 244 -30 77 -16
92 40 45 l32 -27 -7 39 c-8 39 -32 95 -41 95 -3 0 -15 -6 -26 -12 -18 -12 -24
-9 -49 21 -18 21 -37 63 -50 115 -12 44 -35 107 -51 138 -23 45 -32 83 -43
178 -8 67 -17 124 -20 127 -3 4 -6 -50 -6 -118 0 -84 -4 -129 -12 -137 -16
-16 -110 -15 -133 1 -23 18 -7 29 50 37 22 3 40 10 40 15 0 6 -26 27 -58 48
-42 29 -64 52 -82 88 -14 27 -31 49 -39 49 -7 0 -38 -11 -67 -24 -30 -12 -66
-26 -80 -29 -15 -4 -34 -18 -43 -32 -9 -13 -29 -31 -44 -39 -16 -8 -39 -31
-53 -50 -13 -20 -30 -36 -37 -36 -21 0 -34 52 -29 115 6 64 -4 130 -22 148 -8
8 -11 -10 -11 -63z m349 -79 c20 -13 5 -29 -33 -37 -40 -7 -79 3 -73 19 7 21
81 34 106 18z m-291 -182 c3 -17 -22 -49 -38 -49 -15 0 -22 41 -9 56 15 18 43
14 47 -7z m1096 -658 c8 -12 -3 -41 -15 -41 -5 0 -9 11 -9 25 0 25 14 34 24
16z m-1471 -177 c-1 -10 -4 -29 -8 -42 -6 -19 -3 -24 14 -29 33 -8 25 -28 -36
-90 l-58 -58 -3 33 c-4 39 29 156 54 190 18 26 40 24 37 -4z m1247 -196 c0
-51 -48 -133 -67 -114 -8 8 13 70 35 104 16 24 32 29 32 10z m-1250 -61 c0
-12 -5 -29 -10 -37 -9 -13 -11 -13 -20 0 -13 20 -13 43 2 58 15 15 28 6 28
-21z m1350 29 c0 -3 -4 -8 -10 -11 -5 -3 -10 -1 -10 4 0 6 5 11 10 11 6 0 10
-2 10 -4z m46 -90 c3 -13 1 -34 -6 -46 -9 -17 -14 -19 -26 -9 -14 12 -19 60
-7 72 14 14 33 6 39 -17z m-1506 -66 c0 -16 -4 -30 -10 -30 -11 0 -14 43 -3
53 11 12 13 8 13 -23z m1280 -5 c0 -16 -27 -32 -37 -22 -3 4 -3 13 0 22 8 20
37 20 37 0z m268 -98 c3 -117 -11 -204 -37 -231 -12 -12 -42 -22 -77 -27 -31
-4 -86 -22 -121 -39 -72 -36 -153 -107 -153 -134 0 -10 -21 -38 -46 -63 -40
-38 -49 -43 -61 -31 -7 8 -15 27 -16 43 -2 25 2 30 27 35 35 6 56 34 39 51
-15 15 -48 3 -61 -24 -10 -21 -11 -21 -11 9 -1 41 15 54 66 54 24 0 54 7 67
15 12 8 47 27 76 43 56 29 56 29 121 170 43 94 66 119 55 58 -9 -45 1 -66 30
-66 17 0 24 6 24 19 0 10 7 35 15 54 8 20 15 56 15 79 0 62 10 90 29 86 13 -3
16 -20 19 -101z m-86 51 c-9 -9 -12 -7 -12 12 0 19 3 21 12 12 9 -9 9 -15 0
-24z m190 -56 c3 -9 2 -26 -2 -37 -7 -19 -7 -19 -18 2 -7 12 -12 29 -12 37 0
22 27 20 32 -2z m-827 -131 c7 -12 -12 -24 -25 -16 -11 7 -4 25 10 25 5 0 11
-4 15 -9z m285 -31 c0 -12 -13 -25 -35 -36 -34 -16 -88 -69 -97 -95 -6 -18
-38 -3 -38 18 0 34 39 82 87 107 59 31 83 33 83 6z m-200 -30 c0 -5 -4 -10
-10 -10 -5 0 -10 5 -10 10 0 6 5 10 10 10 6 0 10 -4 10 -10z m275 -20 c32 -12
24 -30 -15 -30 -33 0 -49 18 -29 31 17 11 13 11 44 -1z"/>
<path d="M3871 6409 c-14 -40 -14 -52 0 -44 16 11 31 57 21 67 -6 6 -14 -3
-21 -23z"/>
<path d="M4970 6344 c0 -4 5 -24 12 -46 12 -40 24 -44 42 -15 8 12 5 22 -14
42 -22 24 -40 32 -40 19z"/>
<path d="M3781 6237 c-6 -8 -8 -17 -5 -20 9 -8 44 11 44 23 0 15 -26 12 -39
-3z"/>
<path d="M5115 6160 c-3 -5 -1 -19 6 -31 13 -25 30 -9 22 22 -6 21 -18 25 -28
9z"/>
<path d="M1481 6121 c-29 -29 -26 -57 9 -93 24 -24 33 -28 45 -18 21 18 28 66
13 97 -17 35 -41 40 -67 14z"/>
<path d="M7165 6089 c-26 -31 -28 -50 -8 -56 11 -4 36 30 47 65 10 32 -8 28
-39 -9z"/>
<path d="M7485 5916 c-14 -10 -15 -15 -6 -21 8 -4 19 -1 28 8 20 19 1 30 -22
13z"/>
<path d="M7425 5880 c-3 -5 1 -10 9 -10 9 0 16 5 16 10 0 6 -4 10 -9 10 -6 0
-13 -4 -16 -10z"/>
<path d="M1574 5806 c-11 -28 4 -46 36 -46 34 0 38 10 13 32 -32 27 -43 30
-49 14z"/>
<path d="M3370 5720 c0 -5 5 -10 10 -10 6 0 10 5 10 10 0 6 -4 10 -10 10 -5 0
-10 -4 -10 -10z"/>
<path d="M1360 5605 c0 -9 83 -45 103 -45 33 0 12 23 -34 36 -47 15 -69 17
-69 9z"/>
<path d="M5443 5513 c10 -32 13 -34 15 -15 4 28 -4 52 -17 52 -5 0 -4 -16 2
-37z"/>
<path d="M1588 5533 c7 -3 16 -2 19 1 4 3 -2 6 -13 5 -11 0 -14 -3 -6 -6z"/>
<path d="M1700 5529 c0 -5 5 -7 10 -4 6 3 10 8 10 11 0 2 -4 4 -10 4 -5 0 -10
-5 -10 -11z"/>
<path d="M5595 5428 c4 -18 15 -58 25 -88 10 -30 21 -72 25 -92 9 -47 25 -40
25 11 0 55 -53 201 -72 201 -5 0 -7 -15 -3 -32z"/>
<path d="M2002 5407 c-17 -7 -49 -31 -70 -54 -24 -26 -68 -56 -113 -77 -100
-48 -149 -76 -172 -99 -10 -10 -38 -27 -62 -37 -52 -22 -59 -32 -51 -76 5 -25
12 -34 27 -34 35 0 93 30 134 70 22 22 76 59 120 84 140 79 264 160 270 178 8
24 -12 58 -33 57 -9 0 -32 -6 -50 -12z"/>
<path d="M2860 5384 c0 -9 5 -14 12 -12 18 6 21 28 4 28 -9 0 -16 -7 -16 -16z"/>
<path d="M3151 5346 c-7 -8 -8 -17 -3 -20 6 -3 15 1 21 8 7 8 8 17 3 20 -6 3
-15 -1 -21 -8z"/>
<path d="M7891 5314 c-50 -45 -77 -81 -68 -90 6 -7 134 104 141 121 11 29 -22
15 -73 -31z"/>
<path d="M5450 5295 c0 -22 4 -34 10 -30 6 3 10 17 10 30 0 13 -4 27 -10 30
-6 4 -10 -8 -10 -30z"/>
<path d="M2722 5215 c-73 -8 -147 -17 -164 -20 -36 -8 -249 -118 -295 -153
-18 -13 -52 -30 -75 -37 -36 -10 -44 -17 -49 -43 -8 -42 -28 -70 -91 -132 -50
-49 -108 -126 -108 -142 0 -5 10 -8 23 -8 13 0 32 -6 42 -14 16 -12 17 -16 6
-30 -7 -8 -22 -18 -32 -21 -12 -4 -22 -19 -26 -37 -7 -35 -37 -49 -88 -41 -29
5 -39 2 -50 -14 -8 -12 -26 -24 -40 -27 -14 -4 -25 -11 -25 -16 0 -13 10 -12
40 5 38 22 87 19 100 -6 14 -25 6 -49 -14 -49 -8 0 -23 -14 -33 -30 -19 -34
-24 -36 -105 -45 -63 -7 -84 -21 -43 -30 14 -3 37 -7 51 -10 21 -5 25 -11 22
-33 -3 -24 -9 -28 -53 -38 -58 -12 -67 -35 -18 -45 18 -3 46 -21 63 -39 17
-18 33 -30 37 -26 3 3 -1 14 -10 24 -22 24 -21 35 1 55 45 41 87 3 58 -50 -43
-79 -42 -74 -17 -94 25 -21 95 -26 106 -8 4 5 -1 19 -11 30 -16 18 -16 20 0
38 16 18 20 18 52 5 46 -19 56 -11 49 39 -5 32 -1 52 14 82 12 21 21 45 21 52
0 6 12 18 27 25 22 10 30 24 40 67 15 70 29 96 60 110 38 17 60 -1 79 -67 29
-103 30 -104 137 -96 69 5 97 11 113 25 23 21 54 25 54 8 0 -7 -13 -34 -30
-61 -16 -26 -30 -53 -30 -58 0 -15 -34 -12 -56 5 -28 21 -54 19 -54 -5 0 -37
40 -51 136 -48 84 3 89 4 103 30 13 23 13 35 3 88 -16 77 -40 127 -62 133 -13
3 -20 19 -25 58 -4 30 -20 77 -36 106 l-30 52 -82 -6 -82 -6 -33 52 c-39 63
-40 84 -7 99 17 8 25 20 25 37 0 14 9 34 19 44 23 23 96 45 118 37 26 -10 8
-31 -29 -34 -29 -2 -41 -11 -68 -48 -17 -25 -29 -51 -26 -59 8 -21 54 -18 83
5 14 11 43 25 65 31 l40 10 -7 60 c-6 49 -4 59 8 59 9 0 30 12 47 27 30 24 32
31 28 74 l-5 47 36 6 c59 10 67 7 111 -29 23 -19 52 -35 65 -35 12 0 34 -9 48
-20 39 -31 50 -26 44 20 -3 27 -1 43 9 51 22 18 40 -4 60 -78 17 -61 21 -68
78 -109 85 -63 90 -60 54 28 -28 67 -87 167 -136 234 -44 58 -42 58 -230 39z
m-652 -459 c0 -3 -4 -8 -10 -11 -5 -3 -10 -1 -10 4 0 6 5 11 10 11 6 0 10 -2
10 -4z m184 -78 c53 -49 36 -100 -20 -63 -28 18 -40 13 -46 -20 -5 -27 -29
-30 -56 -5 -29 28 -28 46 7 81 36 36 80 38 115 7z m-166 -141 c3 -14 -1 -18
-20 -15 -12 2 -24 11 -26 21 -3 14 1 18 20 15 12 -2 24 -11 26 -21z m-62 -122
c4 -9 1 -29 -6 -45 -9 -22 -20 -30 -43 -32 -25 -2 -32 -9 -42 -38 -16 -47 -39
-50 -65 -8 -28 47 -26 76 7 89 15 5 33 19 40 29 18 25 100 29 109 5z"/>
<path d="M7012 5208 c-7 -7 -12 -23 -12 -36 0 -20 3 -22 14 -13 17 14 27 49
17 56 -4 2 -13 -1 -19 -7z"/>
<path d="M5491 5174 c0 -11 3 -14 6 -6 3 7 2 16 -1 19 -3 4 -6 -2 -5 -13z"/>
<path d="M7767 5163 c-12 -11 -8 -23 8 -23 8 0 15 7 15 15 0 16 -12 20 -23 8z"/>
<path d="M3340 5132 c0 -28 17 -62 30 -62 17 0 11 34 -10 60 l-20 25 0 -23z"/>
<path d="M5486 5124 c-13 -35 -6 -64 22 -81 15 -9 50 -39 79 -65 28 -26 57
-48 62 -48 13 0 14 59 2 78 -4 7 -25 19 -47 27 -28 9 -41 21 -47 41 -18 55
-58 82 -71 48z"/>
<path d="M5680 5116 c0 -28 31 -71 48 -65 8 3 5 17 -8 47 -21 46 -40 55 -40
18z"/>
<path d="M7030 5105 c0 -16 28 -19 68 -9 37 10 25 24 -23 24 -33 0 -45 -4 -45
-15z"/>
<path d="M1098 5089 c-10 -5 -18 -17 -18 -26 0 -12 6 -14 27 -8 40 10 58 26
41 36 -17 11 -29 11 -50 -2z"/>
<path d="M7175 5081 c-10 -17 4 -31 31 -31 19 0 25 5 22 18 -4 19 -43 29 -53
13z"/>
<path d="M3270 5030 c0 -32 11 -38 29 -16 14 16 4 46 -15 46 -9 0 -14 -11 -14
-30z"/>
<path d="M1750 5040 c0 -5 6 -10 14 -10 8 0 18 5 21 10 3 6 -3 10 -14 10 -12
0 -21 -4 -21 -10z"/>
<path d="M1454 4982 c-44 -33 -114 -107 -114 -122 0 -31 96 31 153 99 48 57
26 70 -39 23z"/>
<path d="M2004 4970 c-23 -11 -52 -32 -65 -47 l-24 -25 22 6 c65 20 138 56
138 67 0 22 -27 21 -71 -1z"/>
<path d="M2755 4980 c-15 -25 36 -110 67 -110 14 0 18 8 18 35 0 54 -64 109
-85 75z"/>
<path d="M1080 4950 c0 -21 4 -30 13 -27 6 2 12 14 12 27 0 13 -6 25 -12 28
-9 2 -13 -7 -13 -28z"/>
<path d="M6320 4935 c-46 -34 -51 -51 -37 -129 10 -58 9 -70 -6 -95 -18 -30
-23 -101 -8 -101 5 0 13 21 17 47 6 32 15 49 26 51 14 3 17 -6 20 -45 4 -63
20 -62 74 4 52 64 62 112 40 197 -26 99 -62 118 -126 71z m68 -114 c5 -29 -16
-53 -41 -49 -29 4 -31 20 -6 52 24 31 42 30 47 -3z"/>
<path d="M7415 4931 c-7 -13 32 -34 47 -25 7 5 5 11 -7 21 -22 15 -32 16 -40
4z"/>
<path d="M2590 4865 c0 -9 13 -42 30 -75 28 -56 46 -77 56 -68 7 8 -35 121
-53 140 -20 22 -33 23 -33 3z"/>
<path d="M6000 4870 c-18 -11 -4 -40 20 -40 13 0 20 7 20 19 0 22 -21 33 -40
21z"/>
<path d="M7505 4868 c-21 -66 -33 -123 -28 -135 9 -23 44 -10 75 28 l29 36
-27 41 c-28 43 -42 51 -49 30z"/>
<path d="M2752 4730 c0 -14 2 -19 5 -12 2 6 2 18 0 25 -3 6 -5 1 -5 -13z"/>
<path d="M5797 4653 c-2 -5 -7 -19 -10 -33 -3 -14 -16 -29 -29 -35 -19 -8 -24
-19 -26 -62 -3 -57 1 -62 36 -37 32 22 52 67 52 118 0 41 -12 67 -23 49z"/>
<path d="M1876 4625 c-19 -15 -19 -15 1 -15 11 0 26 7 33 15 17 20 -7 20 -34
0z"/>
<path d="M1400 4530 c0 -5 18 -10 40 -10 22 0 40 5 40 10 0 6 -18 10 -40 10
-22 0 -40 -4 -40 -10z"/>
<path d="M2945 4440 c-3 -5 -9 -40 -12 -78 -5 -56 -3 -70 11 -81 15 -12 19
-12 32 1 14 14 14 25 3 92 -12 72 -20 88 -34 66z"/>
<path d="M5686 4393 c-10 -61 -8 -99 5 -86 14 14 25 123 12 123 -6 0 -13 -17
-17 -37z"/>
<path d="M7167 4383 c-12 -11 -8 -23 7 -23 7 0 19 7 26 15 10 12 9 15 -7 15
-11 0 -23 -3 -26 -7z"/>
<path d="M6481 4313 c-13 -47 -14 -63 -1 -63 9 0 30 61 30 88 0 27 -20 10 -29
-25z"/>
<path d="M3645 4330 c3 -5 8 -10 11 -10 2 0 4 5 4 10 0 6 -5 10 -11 10 -5 0
-7 -4 -4 -10z"/>
<path d="M3555 4310 c3 -5 8 -10 11 -10 2 0 4 5 4 10 0 6 -5 10 -11 10 -5 0
-7 -4 -4 -10z"/>
<path d="M3678 4274 c5 -10 29 -23 53 -29 31 -7 47 -18 58 -39 22 -39 35 -34
39 12 4 51 -12 63 -94 70 -63 5 -66 4 -56 -14z"/>
<path d="M5656 4258 c-8 -33 -7 -58 3 -58 11 0 21 63 11 73 -4 5 -10 -2 -14
-15z"/>
<path d="M6262 4111 c2 -94 7 -173 11 -178 18 -17 27 26 23 97 -15 218 -19
250 -28 250 -7 0 -9 -58 -6 -169z"/>
<path d="M4565 4243 c-19 -84 -39 -103 -78 -72 -14 10 -27 19 -30 19 -3 0 -8
-18 -12 -40 -5 -28 -16 -47 -37 -64 l-31 -24 16 -197 c22 -282 38 -284 57 -7
5 78 12 147 15 152 11 17 32 11 49 -15 21 -31 71 -34 118 -5 18 11 45 20 61
20 15 0 53 9 85 21 31 12 80 27 107 34 28 7 66 20 85 30 47 23 110 85 110 107
0 9 10 27 23 39 l22 22 -30 -8 c-16 -3 -86 -40 -154 -81 -74 -44 -136 -74
-152 -74 -20 0 -37 11 -59 38 l-31 37 -20 -25 c-11 -14 -30 -41 -43 -60 -26
-41 -59 -47 -64 -12 -2 13 4 44 12 69 20 58 20 97 1 113 -12 10 -15 7 -20 -17z"/>
<path d="M6644 4256 c-8 -22 3 -33 18 -18 9 9 9 15 0 24 -9 9 -13 7 -18 -6z"/>
<path d="M7359 4184 c-11 -14 -10 -15 11 -12 13 1 25 9 28 16 5 17 -23 15 -39
-4z"/>
<path d="M7275 4150 c-3 -5 3 -10 14 -10 11 0 23 5 26 10 3 6 -3 10 -14 10
-11 0 -23 -4 -26 -10z"/>
<path d="M3135 4098 c-30 -27 -37 -42 -42 -87 -4 -35 -13 -60 -26 -72 -24 -22
-34 -109 -20 -174 14 -62 35 -51 55 28 18 68 50 141 67 151 15 10 34 -23 27
-49 -3 -13 -20 -40 -37 -59 -34 -39 -54 -96 -44 -127 10 -31 27 -18 63 47 18
32 45 71 59 86 l26 27 -26 103 c-30 122 -43 158 -57 158 -6 0 -26 -15 -45 -32z"/>
<path d="M7034 4086 c-38 -32 -27 -42 11 -11 17 13 27 26 24 30 -4 3 -20 -5
-35 -19z"/>
<path d="M2044 4088 c-8 -12 22 -38 43 -38 17 0 7 23 -17 38 -14 8 -21 9 -26
0z"/>
<path d="M3923 4035 c-17 -7 -39 -25 -49 -40 -16 -24 -16 -35 -6 -96 7 -38 12
-79 12 -92 0 -12 5 -39 11 -59 13 -51 38 -49 84 5 47 54 60 79 80 157 19 73
11 101 -37 126 -33 17 -54 17 -95 -1z"/>
<path d="M2980 4021 c-5 -11 -10 -25 -10 -32 0 -18 27 7 33 31 7 26 -9 26 -23
1z"/>
<path d="M6175 3943 c-5 -55 -3 -118 5 -172 17 -117 23 -136 46 -136 15 0 21
12 30 65 9 49 18 70 39 88 l27 23 -50 -7 c-58 -7 -58 -9 -68 130 -4 48 -10 89
-15 91 -4 3 -10 -34 -14 -82z"/>
<path d="M2124 3989 c10 -51 28 -62 24 -15 -2 23 -9 41 -17 44 -11 4 -13 -3
-7 -29z"/>
<path d="M6117 3993 c-11 -10 -8 -53 3 -53 6 0 10 14 10 30 0 31 -2 35 -13 23z"/>
<path d="M6492 3960 c0 -19 2 -27 5 -17 2 9 2 25 0 35 -3 9 -5 1 -5 -18z"/>
<path d="M6767 3913 c-20 -20 10 -123 36 -123 4 0 29 20 55 45 l47 45 -55 -2
c-50 -3 -55 -1 -58 20 -3 22 -13 28 -25 15z"/>
<path d="M2945 3880 c-8 -26 4 -48 16 -29 12 19 11 49 0 49 -5 0 -12 -9 -16
-20z"/>
<path d="M4790 3661 c0 -102 5 -135 21 -125 10 6 12 166 3 202 -14 50 -24 16
-24 -77z"/>
<path d="M6755 3710 c-3 -5 -2 -10 4 -10 5 0 13 5 16 10 3 6 2 10 -4 10 -5 0
-13 -4 -16 -10z"/>
<path d="M2810 3630 c-13 -25 -33 -187 -24 -201 8 -14 33 21 34 48 0 12 5 25
10 28 13 8 13 132 1 140 -6 3 -15 -4 -21 -15z"/>
<path d="M3023 3628 c-12 -13 -46 -67 -76 -120 -31 -54 -65 -110 -76 -124 -15
-19 -21 -42 -21 -78 -1 -28 -7 -78 -15 -110 -8 -33 -12 -64 -9 -68 10 -16 41
22 63 75 12 29 26 60 31 69 6 10 10 31 10 47 0 35 25 54 52 40 25 -14 23 -41
-14 -146 -18 -50 -30 -94 -27 -98 22 -21 82 59 94 127 4 20 2 68 -5 105 -12
66 -11 71 15 133 33 79 41 121 26 149 -15 27 -22 26 -48 -1z"/>
<path d="M4364 3495 c3 -22 6 -60 6 -85 0 -33 3 -41 10 -30 16 24 12 114 -6
136 -14 18 -15 17 -10 -21z"/>
<path d="M2573 3224 c-4 -10 1 -22 10 -29 19 -14 104 -28 118 -19 16 9 10 24
-9 24 -11 0 -27 9 -37 20 -22 25 -73 27 -82 4z"/>
<path d="M5280 3230 c0 -5 4 -10 9 -10 6 0 13 5 16 10 3 6 -1 10 -9 10 -9 0
-16 -4 -16 -10z"/>
<path d="M2180 3201 c0 -15 10 -41 22 -56 20 -25 25 -27 73 -21 67 8 129 -11
225 -69 70 -42 78 -45 147 -45 79 0 127 15 157 49 l19 21 -84 0 c-46 0 -102
-5 -124 -10 l-40 -9 -63 64 c-61 63 -63 65 -87 49 -39 -25 -148 -10 -190 27
-41 37 -55 37 -55 0z"/>
<path d="M5870 3175 c0 -11 4 -27 10 -35 8 -12 10 -12 16 4 4 11 0 24 -10 34
-15 15 -16 15 -16 -3z"/>
<path d="M1270 3141 c0 -6 5 -13 10 -16 6 -3 10 1 10 9 0 9 -4 16 -10 16 -5 0
-10 -4 -10 -9z"/>
<path d="M2870 3025 c0 -5 14 -23 30 -39 17 -16 30 -33 30 -37 0 -15 -45 -39
-72 -39 -15 0 -29 -4 -33 -9 -6 -10 17 -36 46 -51 30 -17 27 -113 -6 -156 -42
-55 -48 -83 -54 -259 l-6 -169 -36 -11 c-63 -18 -87 -47 -98 -124 -4 -34 -11
-47 -25 -49 -42 -8 -46 42 -14 211 20 108 21 125 9 195 -8 42 -17 146 -20 229
-4 84 -9 155 -12 157 -6 6 -126 46 -139 46 -14 0 -13 -66 3 -77 6 -6 29 -16
50 -22 78 -26 78 -85 0 -378 -21 -79 -22 -98 -12 -131 14 -49 1 -78 -46 -98
-40 -16 -101 -19 -110 -4 -4 6 7 26 24 46 38 43 41 93 11 206 -11 41 -22 100
-26 131 -6 47 -10 57 -26 57 -56 0 -72 -40 -42 -104 16 -32 16 -41 1 -121 -9
-48 -27 -109 -42 -136 -31 -60 -33 -121 -5 -149 24 -24 25 -33 5 -64 -15 -23
-14 -25 11 -45 23 -18 40 -21 135 -21 63 0 110 4 114 10 4 6 43 10 93 9 71 -1
94 2 127 20 47 25 58 26 75 6 11 -13 9 -20 -10 -40 -12 -13 -20 -31 -17 -39
10 -25 72 -30 135 -12 78 23 85 28 105 69 9 21 21 37 25 37 13 0 72 -86 72
-104 0 -32 18 -15 34 32 26 74 26 76 -19 82 -48 6 -58 31 -19 49 15 7 73 19
128 28 111 18 126 25 126 57 0 13 12 33 26 47 l26 24 17 -23 c40 -57 74 -92
90 -92 12 0 10 5 -8 19 l-24 19 29 27 c16 15 41 34 56 43 39 23 35 32 -16 32
-48 0 -58 8 -75 63 -7 20 -17 37 -22 37 -22 0 -77 -36 -134 -86 -47 -42 -67
-54 -93 -54 -43 0 -72 16 -72 39 0 23 -31 51 -57 51 -12 0 -24 8 -27 17 -11
27 -28 0 -28 -43 0 -27 6 -42 22 -54 30 -22 21 -61 -20 -90 -31 -22 -149 -64
-157 -56 -11 11 10 47 35 60 55 29 65 49 58 118 -17 143 -36 212 -67 238 -31
26 -32 60 -3 60 21 0 25 34 22 160 l-3 114 40 23 c23 13 57 23 80 23 68 0 145
12 139 21 -3 5 -15 9 -28 9 -29 0 -46 18 -46 50 l0 26 -130 0 c-80 -1 -130 -5
-130 -11z m-80 -885 c0 -13 -7 -20 -20 -20 -19 0 -27 20 -13 33 13 14 33 6 33
-13z m-252 -14 c5 -25 -23 -46 -62 -46 -16 0 -37 -7 -47 -16 -15 -13 -24 -14
-53 -4 -39 12 -61 34 -51 49 11 19 99 40 155 38 45 -2 55 -5 58 -21z"/>
<path d="M1324 2997 c8 -45 26 -87 37 -87 10 0 -17 101 -32 114 -9 8 -10 2 -5
-27z"/>
<path d="M3330 2930 c0 -6 18 -30 41 -55 40 -43 41 -45 29 -82 -22 -68 -41
-94 -76 -109 -40 -17 -40 -17 -14 -54 11 -15 24 -39 30 -54 7 -20 16 -26 41
-26 17 0 44 -8 60 -17 26 -16 30 -16 45 -1 32 32 42 275 13 329 -10 20 -123
79 -151 79 -10 0 -18 -5 -18 -10z"/>
<path d="M2720 2910 c0 -5 11 -10 25 -10 14 0 25 5 25 10 0 6 -11 10 -25 10
-14 0 -25 -4 -25 -10z"/>
<path d="M2170 2841 c-12 -8 -9 -12 13 -20 53 -20 101 -23 122 -8 11 9 16 19
12 23 -12 12 -130 16 -147 5z"/>
<path d="M2009 2641 l-24 -20 20 -37 c20 -38 49 -63 60 -52 10 10 18 76 11
102 -8 31 -34 34 -67 7z"/>
<path d="M6716 2652 c-5 -8 45 -52 59 -52 10 0 5 36 -7 48 -14 14 -44 16 -52
4z"/>
<path d="M3137 2633 c-11 -11 -8 -101 4 -109 16 -10 29 15 29 57 0 35 -20 66
-33 52z"/>
<path d="M3691 2424 c-24 -31 -14 -54 24 -54 30 0 33 6 26 42 -9 41 -24 45
-50 12z"/>
<path d="M6511 2425 l-44 -22 24 -17 c34 -23 57 -20 72 12 14 26 13 54 -1 51
-4 -1 -27 -12 -51 -24z"/>
<path d="M4028 2419 c-10 -5 -23 -19 -29 -31 -10 -18 -8 -24 11 -38 22 -17 23
-18 6 -61 -21 -55 -13 -80 42 -138 39 -41 72 -53 72 -27 0 8 11 27 23 42 35
40 57 27 57 -31 0 -38 -5 -51 -29 -73 -39 -35 -57 -80 -36 -88 9 -4 29 -1 45
6 39 16 50 7 50 -41 l0 -40 38 3 37 3 6 63 c4 44 12 69 28 85 11 13 21 29 21
36 0 25 93 192 112 202 23 13 225 2 234 -12 3 -5 18 -9 35 -9 72 0 -6 78 -106
105 -35 9 -72 23 -82 31 -33 25 -69 17 -101 -23 -28 -36 -33 -37 -109 -44 -98
-8 -148 -32 -204 -99 -23 -27 -46 -47 -50 -44 -5 3 -9 21 -9 40 0 22 -6 37
-15 40 -22 9 -18 52 5 66 25 16 26 50 2 71 -21 19 -30 20 -54 6z m292 -169 c0
-24 -26 -38 -42 -22 -16 16 -2 42 22 42 13 0 20 -7 20 -20z"/>
<path d="M2150 2391 c0 -31 22 -82 34 -78 15 5 19 52 6 77 -13 25 -40 26 -40
1z"/>
<path d="M3878 2341 c-31 -3 -61 -11 -66 -16 -5 -6 -15 -31 -22 -57 -15 -57 0
-108 31 -108 11 0 19 4 19 9 0 5 15 18 34 29 23 13 38 33 46 59 7 21 21 47 31
59 19 20 16 35 -5 33 -6 -1 -37 -5 -68 -8z"/>
<path d="M2080 2291 c-11 -22 -14 -90 -4 -115 9 -23 24 -20 24 5 0 15 4 19 16
15 9 -3 21 -6 29 -6 7 0 15 -14 19 -31 3 -18 11 -29 18 -27 23 8 20 39 -5 66
-14 15 -34 46 -46 70 -24 46 -35 52 -51 23z"/>
<path d="M6724 2296 c-9 -23 0 -51 16 -51 10 0 15 10 15 29 0 32 -21 47 -31
22z"/>
<path d="M6635 2230 c-8 -13 14 -42 26 -34 5 3 9 14 9 25 0 20 -24 26 -35 9z"/>
<path d="M1940 2215 c0 -3 11 -30 25 -59 38 -79 87 -116 71 -52 -11 43 -96
142 -96 111z"/>
<path d="M1820 2070 c0 -5 5 -10 10 -10 6 0 10 5 10 10 0 6 -4 10 -10 10 -5 0
-10 -4 -10 -10z"/>
<path d="M2124 2069 c-4 -7 0 -17 9 -23 8 -7 22 -27 30 -46 12 -28 16 -32 22
-18 8 19 -23 90 -42 95 -6 2 -15 -1 -19 -8z"/>
<path d="M3563 2009 c-40 -12 -42 -25 -7 -41 22 -11 32 -9 68 12 23 13 67 26
101 30 55 7 52 7 -35 8 -52 0 -110 -4 -127 -9z"/>
<path d="M1840 1975 c-7 -8 -18 -15 -25 -15 -7 0 -34 -9 -59 -21 -58 -25 -60
-55 -7 -80 19 -9 46 -31 61 -49 18 -23 32 -31 44 -27 22 9 20 34 -6 84 -18 34
-21 47 -12 60 15 24 48 28 64 8 13 -16 40 -21 40 -6 0 10 -65 61 -78 61 -5 0
-15 -7 -22 -15z"/>
<path d="M2476 1955 c-9 -9 -19 -34 -22 -56 -9 -54 -34 -84 -62 -75 -18 6 -22
15 -22 46 0 63 -25 83 -109 88 l-71 4 0 -40 c0 -31 8 -49 35 -82 40 -48 44
-80 16 -126 -44 -72 -35 -93 22 -50 18 13 51 29 74 35 50 14 96 50 129 102 13
21 38 46 55 54 23 13 28 19 20 29 -6 8 -10 29 -9 47 3 28 -1 35 -18 37 -12 2
-29 -4 -38 -13z"/>
<path d="M2020 1942 c0 -13 34 -42 50 -42 10 0 10 3 0 16 -17 20 -50 37 -50
26z"/>
<path d="M3023 1908 c-30 -34 -53 -71 -53 -85 0 -21 57 -15 78 8 21 21 36 75
26 90 -9 15 -30 10 -51 -13z"/>
<path d="M2819 1885 c-26 -14 -53 -58 -42 -69 25 -25 106 21 101 58 -4 26 -25
30 -59 11z"/>
<path d="M4669 1855 c-30 -16 -56 -65 -61 -115 -3 -33 0 -37 41 -57 52 -26 75
-19 116 37 36 49 33 60 -20 60 -54 0 -57 11 -10 39 48 28 46 51 -2 51 -21 -1
-50 -7 -64 -15z m36 -145 c0 -8 -10 -16 -22 -18 -22 -3 -32 16 -16 32 12 11
38 2 38 -14z"/>
<path d="M3170 1850 c-8 -5 -12 -12 -8 -15 9 -9 48 4 48 16 0 12 -21 11 -40
-1z"/>
<path d="M2145 1808 c9 -29 23 -44 32 -35 8 9 -17 57 -29 57 -5 0 -6 -10 -3
-22z"/>
<path d="M4182 1808 c-38 -38 38 -68 84 -33 19 15 19 15 0 30 -24 18 -67 20
-84 3z"/>
<path d="M2715 1800 c-3 -5 1 -10 9 -10 9 0 16 5 16 10 0 6 -4 10 -9 10 -6 0
-13 -4 -16 -10z"/>
<path d="M3984 1799 c-3 -6 -1 -16 4 -21 13 -13 45 8 36 23 -7 12 -31 11 -40
-2z"/>
<path d="M4370 1800 c0 -5 5 -10 10 -10 6 0 10 5 10 10 0 6 -4 10 -10 10 -5 0
-10 -4 -10 -10z"/>
<path d="M3710 1793 c-17 -6 -40 -32 -40 -46 0 -10 28 -7 105 13 82 21 83 21
60 30 -22 10 -102 11 -125 3z"/>
<path d="M2134 1725 c-18 -14 -17 -14 13 -15 35 0 52 14 27 24 -20 8 -17 8
-40 -9z"/>
<path d="M2860 1730 c-20 -12 -3 -40 24 -40 27 0 81 18 75 25 -11 10 -88 22
-99 15z"/>
<path d="M2662 1708 c-5 -7 -13 -23 -16 -35 -6 -18 -3 -23 12 -23 23 0 52 30
52 53 0 20 -33 23 -48 5z"/>
<path d="M4177 1683 c-21 -5 -18 -22 6 -37 13 -8 21 -6 34 7 16 15 16 19 3 27
-8 5 -17 9 -20 9 -3 -1 -13 -3 -23 -6z"/>
<path d="M4924 1677 c-8 -23 2 -47 20 -47 26 0 29 21 8 43 -19 19 -22 19 -28
4z"/>
<path d="M2824 1649 c-16 -17 -16 -22 -4 -29 21 -14 28 -12 38 8 10 18 6 42
-7 42 -4 0 -16 -9 -27 -21z"/>
<path d="M2982 1641 c-11 -7 -11 -9 2 -14 19 -7 46 1 46 14 0 11 -31 11 -48 0z"/>
<path d="M3897 1635 c-21 -7 -41 -16 -44 -18 -12 -13 11 -26 55 -33 26 -4 65
-13 86 -21 45 -15 56 -11 33 15 -10 10 -17 24 -17 30 0 14 -40 42 -60 42 -8
-1 -32 -7 -53 -15z"/>
<path d="M4533 1613 c-25 -10 -12 -23 22 -23 20 0 46 -7 59 -15 20 -13 28 -13
72 1 60 20 62 23 44 34 -15 10 -175 12 -197 3z"/>
<path d="M4543 1528 c-34 -16 -30 -48 6 -48 32 0 56 22 47 45 -6 17 -22 18
-53 3z"/>
<path d="M2811 1506 c-19 -20 -21 -26 -9 -26 19 0 41 25 36 40 -2 6 -14 0 -27
-14z"/>
<path d="M4726 1521 c-16 -3 -31 -12 -34 -19 -3 -10 7 -12 39 -10 23 2 44 8
46 14 5 16 -16 21 -51 15z"/>
<path d="M1450 1503 c0 -30 17 -73 30 -73 16 0 11 33 -10 65 -18 27 -20 28
-20 8z"/>
<path d="M4820 1445 l-25 -14 26 -1 c14 0 34 7 45 15 19 14 19 14 -1 14 -11 0
-31 -6 -45 -14z"/>
<path d="M4639 1388 c-17 -32 29 -70 80 -66 50 4 45 23 -16 58 l-52 30 -12
-22z"/>
<path d="M2863 1378 c-6 -7 -17 -34 -26 -60 l-16 -48 40 0 c45 0 52 10 53 74
1 34 -2 41 -20 44 -11 2 -25 -3 -31 -10z"/>
<path d="M5090 1343 c0 -4 10 -17 23 -31 22 -23 22 -24 2 -38 -11 -8 -37 -17
-58 -21 -24 -3 -51 -17 -68 -34 -17 -16 -34 -29 -39 -29 -6 0 -10 -4 -10 -10
0 -13 46 -13 71 0 10 6 19 17 19 26 0 17 27 29 93 38 47 7 47 7 47 46 0 29 -5
42 -19 50 -22 11 -61 14 -61 3z"/>
<path d="M2064 1311 c-23 -11 -77 -26 -120 -35 -43 -9 -83 -21 -88 -26 -16
-16 21 -23 82 -16 83 9 217 80 175 93 -4 1 -27 -6 -49 -16z"/>
<path d="M1510 1220 c0 -5 5 -10 10 -10 6 0 10 5 10 10 0 6 -4 10 -10 10 -5 0
-10 -4 -10 -10z"/>
<path d="M1776 1204 c-21 -12 -42 -14 -76 -10 -51 7 -63 0 -73 -44 -3 -14 -20
-33 -37 -43 -38 -23 -38 -36 3 -74 41 -39 68 -53 104 -53 60 0 124 -61 127
-121 2 -41 27 -51 120 -47 99 4 92 20 -18 43 -24 5 -27 9 -21 28 4 12 10 41
12 64 3 29 12 46 27 57 13 8 37 28 54 45 26 26 38 31 81 31 27 0 53 5 57 11
12 20 -202 6 -224 -14 -38 -35 -77 -40 -128 -18 -25 12 -53 21 -61 21 -22 0
-10 23 20 38 15 6 39 18 55 25 20 9 28 21 30 45 4 36 -7 40 -52 16z m-15 -164
c10 -6 19 -17 19 -25 0 -22 -38 -28 -66 -10 -20 13 -23 19 -13 31 14 17 33 18
60 4z"/>
<path d="M2583 1195 c-18 -8 -33 -17 -33 -20 0 -3 30 -5 68 -5 l67 1 -24 19
c-27 23 -35 24 -78 5z"/>
<path d="M4794 1135 c-19 -15 -19 -15 5 -35 13 -11 37 -20 53 -20 32 0 68 -16
68 -30 0 -5 -10 -12 -22 -16 -22 -7 -22 -7 -3 -15 30 -11 233 -11 240 1 4 6
-6 10 -22 10 -50 0 -105 20 -110 41 -3 12 -20 23 -47 30 -22 6 -58 20 -78 30
-45 23 -58 24 -84 4z"/>
<path d="M4552 1110 c-34 -15 -21 -35 24 -38 49 -4 102 14 87 29 -15 15 -84
20 -111 9z"/>
<path d="M5144 1085 c24 -18 49 -20 44 -2 -3 6 -18 13 -34 15 -28 2 -28 2 -10
-13z"/>
<path d="M2690 1070 c-32 -8 -38 -36 -10 -45 20 -6 60 17 60 35 0 12 -23 17
-50 10z"/>
<path d="M2970 1030 c0 -19 3 -21 12 -12 9 9 9 15 0 24 -9 9 -12 7 -12 -12z"/>
<path d="M2104 965 c-3 -8 5 -34 18 -57 29 -53 57 -60 94 -23 22 22 24 28 13
41 -13 16 -40 29 -92 45 -21 6 -29 4 -33 -6z"/>
<path d="M1980 911 c-25 -17 56 -46 87 -32 14 6 23 17 21 24 -5 15 -87 21
-108 8z"/>
<path d="M2708 824 c-14 -30 3 -47 37 -38 48 14 105 37 105 44 0 11 -39 20
-88 20 -36 0 -44 -4 -54 -26z"/>
<path d="M4389 736 c-32 -15 -38 -46 -9 -46 29 0 60 18 60 34 0 20 -24 26 -51
12z"/>
<path d="M4177 724 c-17 -17 -4 -24 44 -24 36 0 49 4 47 13 -5 13 -79 22 -91
11z"/>
<path d="M3968 703 c7 -3 16 -2 19 1 4 3 -2 6 -13 5 -11 0 -14 -3 -6 -6z"/>
<path d="M3124 639 c-10 -17 13 -36 27 -22 12 12 4 33 -11 33 -5 0 -12 -5 -16
-11z"/>
<path d="M3397 643 c-33 -9 -6 -23 43 -23 52 0 74 14 37 24 -24 6 -53 6 -80
-1z"/>
</g>
</svg>
